<svg width="480" height="480" viewBox="0 0 480 480" fill="none" xmlns="http://www.w3.org/2000/svg">
<g clip-path="url(#clip0_64_3308)">
<path fill-rule="evenodd" clip-rule="evenodd" d="M204.949 275.103C206.868 276.083 207.538 277.176 208.409 279.216C212.075 287.805 217.996 295.378 223.097 303.155C223.912 304.4 226.029 306.327 227.063 307.49C238.247 320.072 254.568 323.593 270.145 327.558C271.765 327.971 273.165 332.665 269.06 333.32C261.928 333.372 251.748 335.103 245.053 331.058C240.288 327.961 234.316 325.787 229.839 322.53C221.481 316.45 195.901 284.988 204.949 275.103ZM301.687 251.443C302.205 251.408 302.348 251.451 302.868 251.506C305.545 254.581 301.01 265.113 300.675 268.443C300.142 273.791 294.767 292.205 296.3 296.243C298.172 297.445 306.165 293.696 307.687 297.518C307.207 303.955 296.79 306.505 291.81 307.967C288.943 308.437 281.023 310.773 279.003 307.748C278.088 303.478 284.138 299.8 285.035 297.592C288.112 290.318 289.308 282.538 291.185 274.94C292.328 270.32 293.708 265.828 294.588 261.041C295.545 255.818 297.138 254.025 301.687 251.443ZM324.88 256.078C326.22 255.973 329.038 256.213 330.52 256.263C339.358 256.566 345.84 258.148 353.008 263.342C355.26 265.022 356.565 266.7 356.95 269.53C357.518 273.67 354.56 282.598 349.182 277.898C345.672 287.618 341.03 296.755 331.34 301.385C329.874 301.47 326.272 298.7 326.09 297.373C324.882 288.508 333.523 274.001 339.638 268.138C334.018 264.563 322.225 261.998 316.772 266.905C315.767 266.317 314.537 265.481 313.54 264.836C315.797 258.371 318.307 256.965 324.88 256.078ZM237.011 234.109C246.387 234.187 268.492 237.147 272.402 246.929C271.857 249.085 269.588 253.852 266.883 253.423C265.858 253.258 265.733 252.75 265.155 251.98C265.058 251.983 264.958 251.985 264.86 251.988C264.608 253.416 264.309 257.585 263.952 258.815C262.285 264.528 259.06 271.331 254.567 275.331C252.772 276.928 251.34 277.355 249.13 277.168L242.801 276.103C242.297 273.906 241.987 271.668 241.874 269.418C241.501 261.158 245.202 252.505 250.21 245.871C250.74 245.17 250.954 245.309 250.889 244.48C248.936 242.875 238.717 242.127 235.676 241.777C233.267 241.5 231.746 243.147 228.796 241.667C226.836 242.098 222.724 243.516 221.975 240.967C222.234 239.666 222.515 239.454 223.333 238.416C226.601 234.265 231.985 234.485 237.011 234.109ZM118.556 231.632C121.599 231.973 143.853 242.79 148.223 244.541C149.641 245.242 152.75 246.834 153.217 248.364C154.272 251.826 150.289 256.66 147.517 258.323C146.363 259.323 140.438 259.095 139.665 259.685C135.861 262.578 132.838 262.808 128.317 264.081C127.367 263.743 127.136 263.553 126.169 263.823L125.717 264.028C121.458 265.945 120.115 265.608 115.964 264.028C123.615 254.666 127.986 255.648 138.773 251.433C136.101 250.346 133.335 248.227 130.7 247.305C125.042 245.326 119.866 242.43 114.608 239.586C112.917 238.67 117.8 232.512 118.556 231.632ZM329.855 230.784C332.143 230.584 334.52 230.759 336.855 230.884C351.228 231.656 365.087 235.736 375.045 246.671C376.567 248.345 378.89 253.475 378.663 255.65C378.02 257.01 376.463 257.433 375.053 258.041C373.868 257.276 372.793 256.306 371.708 255.393C370.781 254.596 368.878 253.231 368.23 252.478C359.913 242.798 347.82 239.156 335.557 237.691C331.295 237.182 325.93 237.569 321.39 237.008C320.77 236.534 320.825 236.554 320.562 235.808C320.738 232.964 327.625 231.329 329.855 230.784ZM229.53 206.88C235.293 206.324 250.248 209.024 255.628 210.989C263.5 213.851 269.972 215.779 275.527 222.593C278.417 225.152 282.195 231.477 276.05 232.446C276.672 232.348 261.96 224.616 261.385 224.266C258.37 222.624 251.862 219.044 248.137 218.224C238.277 216.132 227.822 215.04 217.74 215.357C214.387 215.462 207.688 219.144 206.027 216.1C206.023 214.827 206.442 214.385 207.316 213.42C212.894 207.259 221.702 207.073 229.53 206.88Z" fill="#4B4746"/>
</g>
<defs>
<clipPath id="clip0_64_3308">
<rect width="480" height="480" fill="white"/>
</clipPath>
</defs>
</svg>
