<svg width="480" height="480" viewBox="0 0 480 480" fill="none" xmlns="http://www.w3.org/2000/svg">
<g clip-path="url(#clip0_64_3318)">
<path fill-rule="evenodd" clip-rule="evenodd" d="M205.869 285.86C208.093 286.273 207.32 289.153 207.934 291.088C209.509 296.055 210.74 301.253 212.776 306.052C213.59 307.972 215.034 309.943 215.991 311.81C220.518 320.848 229.594 326.35 236.682 333.205C239.041 335.487 237.3 338.573 234.746 339.173C223.496 338.028 221.193 332.852 214.054 326.097C213.739 322.565 213.536 322.41 210.501 320.698C208.65 315.45 205.337 310.788 203.782 305.873C202.028 300.328 200.834 289.993 205.869 285.86ZM301.3 260.015C302.415 260.038 302.49 259.968 303.282 260.498C304.395 263.248 300.059 271.915 299.109 274.828C298.317 277.255 297.517 280.07 296.797 282.515C295.224 287.87 291.274 297.486 291.377 302.921C293.847 302.998 300.052 302.835 301.532 304.753C302.657 309.34 290.947 313.16 288.114 314.445L287.702 314.291C284.767 313.746 279.975 314.633 276.442 312.8C276.117 312.633 274.985 312.09 274.957 311.713C274.805 309.62 277.572 305.678 278.607 303.89C280.067 301.366 281.012 301.3 283.55 300.76C284.962 298.238 286.164 295.606 287.149 292.888C287.892 290.818 288.292 288.831 288.899 286.773C289.432 284.968 290.493 282.953 291.013 281.131C292.688 275.256 296.315 263.58 301.3 260.015ZM327.627 263.071C328.967 263.121 331.478 262.388 332.728 262.581C344.295 264.358 353.577 270.348 356.25 282.065C356.292 282.248 356.33 282.43 356.365 282.613C355.593 284.943 354.782 287.293 353.939 289.65C353.162 291.827 352.707 295.128 351.67 297.128C349.037 302.193 345.395 309.208 340.112 311.855C338.007 312.908 334.878 314.112 332.61 313.588C330.498 312.93 329.433 310.643 327.763 309.693C317.973 307.331 312.527 297.625 314.322 288.315C315.432 282.545 318.098 274.03 322.798 270.355C319.713 269.388 318.452 273.426 315.645 270.808C315.457 270.191 315.362 269.85 315.732 269.26C318.687 264.568 322.1 262.869 327.627 263.071ZM222.621 236.241C236.231 232.999 254.945 235.12 264.888 245.859C267.475 248.656 269.185 254.078 266.617 257.26C265.212 259.028 262.619 256.368 261.609 256.376L261.399 256.926L261.4 256.927C261.543 258.397 261.2 260.303 260.982 261.798C259.957 268.812 257.71 274.325 253.23 279.847C250.97 282.637 249.132 283.768 245.794 284.883C241.123 283.573 240.767 283.433 236.922 280.238C233.764 278.885 231.888 278.105 229.172 275.923C224.801 272.408 224.101 270.232 222.56 265.048C222.127 263.593 221.113 261.205 221.053 259.7C220.846 254.522 222.508 247.162 225.967 243.245C226.126 243.233 226.28 243.218 226.428 243.203C226.28 243.218 226.126 243.233 225.967 243.245C222.791 242.104 214.648 246.616 213.187 243.946C213.282 240.613 219.653 236.948 222.621 236.241ZM118.777 242.051C119.524 242.037 120.915 241.99 121.562 242.26C127.272 244.649 133.234 246.924 139.06 249.004C144.411 250.913 149.005 252.278 153.701 255.648C153.205 256.643 152.344 258.691 151.866 259.541C149.004 264.641 131.808 271.893 126.438 273.166C124.337 273.913 119.653 275.785 117.701 274.543C115.824 268.453 134.352 261.835 138.277 259.725L138.664 259.515C133.204 256.558 129.251 255.736 123.672 253.388C120.62 252.103 116.152 248.864 113.567 246.686C115.025 245.256 117.1 243.001 118.777 242.051ZM344.605 234.558C345.52 234.529 346.653 234.828 347.607 234.847C356.167 235.018 365.168 236.922 372.923 240.592C374.88 241.521 378.953 246.252 380.553 247.97C382.265 249.809 382.57 252.87 382.263 255.245C382.1 256.485 380.605 257.245 379.645 257.833C375.667 255.175 374.965 255.073 371.782 251.413C370.394 250.125 362.657 246.452 360.46 245.766C351.403 242.942 341.43 240.845 332.553 244.595C332.048 244.409 331.548 244.206 331.058 243.986C326.948 242.109 330.74 240.38 332.38 238.778C336.127 235.113 339.53 235.744 344.298 234.632L344.605 234.558ZM251.186 247.964L251.185 247.963L251.186 247.964ZM240.658 243.23C240.571 243.286 240.509 243.357 240.446 243.431C240.509 243.357 240.571 243.286 240.658 243.23ZM228.743 242.89H228.744H228.743ZM244.39 209.579C246.178 209.177 248.288 210.431 250.13 210.676C251.935 210.915 253.875 210.215 255.598 210.533C258.308 210.947 260.895 212.576 263.445 213.316C268.035 214.648 272.206 215.254 276.293 218.018C279.485 220.136 282.075 223.043 283.812 226.457C284.225 227.247 284.758 227.907 284.918 228.761C281.595 237.021 264.275 221.713 260.107 220.183C256.875 218.996 252.483 218.246 249.059 217.515C248.126 217.349 247.274 216.845 246.282 216.749C243.364 216.466 240.433 216.636 237.516 216.661H235.619C228.936 216.724 222.629 218.768 216.198 220.399C214.329 220.873 211.664 219.351 210.34 221.647L210.579 221.987C212.621 222.086 211.99 221.257 213.879 221.013L214.062 221.39C212.951 223.251 208.43 223.034 206.505 223.054C211.15 215.679 217.251 214.497 225.247 212.401C227.534 211.802 229.466 210.81 231.911 210.507C235.828 210.02 240.21 210.375 244.048 209.646L244.39 209.579Z" fill="#4B4746"/>
<path fill-rule="evenodd" clip-rule="evenodd" d="M322.798 270.354C323.534 269.892 330.188 270.602 331.395 270.875C335.88 271.89 339.895 274.957 343.73 277.39C338.325 281.079 329.296 298.009 327.935 304.89C327.635 306.4 327.668 308.137 327.763 309.692C317.973 307.33 312.527 297.624 314.322 288.314C315.432 282.544 318.098 274.029 322.798 270.354ZM231.474 242.214C232.742 241.264 234.229 242.616 235.114 243.466C236.508 243.586 237.995 243.729 239.394 243.806C240.804 243.883 240.111 242.945 241.435 243.157C241.416 243.119 241.882 244.259 241.615 244.157C243.775 244.99 249.111 247.762 251.185 247.963L251.59 248.411C250.789 249.388 248.547 250.335 247.652 251.36C244.238 255.268 238.586 263.653 236.87 268.245C237.1 269.912 237.7 268.205 237.65 269.285C237.563 271.183 236.512 275.395 235.964 276.928C236.536 277.93 237.032 278.567 237.116 279.707L236.922 280.237C233.764 278.885 231.888 278.104 229.172 275.922C224.801 272.407 224.101 270.232 222.559 265.047C222.127 263.592 221.113 261.205 221.053 259.7C220.846 254.523 222.508 247.161 225.967 243.244C228.286 243.072 229.347 242.424 231.084 243.387L231.439 243.093L231.474 242.214Z" fill="#FEFEFE"/>
</g>
<defs>
<clipPath id="clip0_64_3318">
<rect width="480" height="480" fill="white"/>
</clipPath>
</defs>
</svg>
