<svg width="480" height="480" viewBox="0 0 480 480" fill="none" xmlns="http://www.w3.org/2000/svg">
<g clip-path="url(#clip0_64_3464)">
<path fill-rule="evenodd" clip-rule="evenodd" d="M287.855 306.358C290.035 306.656 290.872 310.646 291.022 312.438C291.809 321.953 288.847 329.63 282.767 336.885C278.44 342.045 270.122 343.928 263.687 344.398C262.849 344.048 260.46 342.462 260.042 342.392C257.727 341.995 255.842 341.592 253.552 340.83C252.27 340.085 250.674 339.31 250.294 337.756C249.931 336.276 249.877 332.466 250.59 331.063C250.81 330.628 251.994 330.877 252.392 330.995C258.092 332.677 261.63 335.183 267.828 334.18C271.365 333.84 274.097 332.03 276.677 329.653C278.925 327.495 281.333 324.97 282.743 322.135C285.113 317.37 284.565 311.005 287.682 306.57C287.74 306.498 287.798 306.428 287.855 306.358ZM233.255 229.479C233.555 229.632 233.81 229.778 234.016 230.054C236.492 233.376 237.965 257.768 237.666 262.948C237.549 264.98 237.175 267.265 236.338 269.135C233.499 275.48 225.708 277.783 224.519 285.132C224.03 288.155 225.97 292.235 227.757 294.618C231.933 300.183 240.4 296.473 246.079 297.478C246.727 297.593 247.366 297.886 247.739 298.443C248.262 299.225 248.157 300.205 247.947 301.078C247.096 304.608 244.191 307.348 241.221 309.208C239.218 310.303 238.514 310.172 236.228 310.28L233.49 312.365C227.912 309.095 223.959 309.416 219.789 303.638C214.211 295.913 216.376 282.816 220.368 274.853C222.436 270.726 225.87 268.133 229.407 265.465C230.8 260.073 230.348 244.101 228.272 238.942C229.117 235.825 229.943 231.638 232.319 229.416L233.255 229.479ZM292.675 231.397C294.902 231.074 296.395 231.524 298.584 231.735C300.034 231.875 301.877 231.477 303.249 231.584C307.112 231.883 312.928 234.193 313.658 238.489C314.075 241.005 312.66 242.656 311.37 244.556C306.285 242.462 304.91 242.208 299.377 242.516C302.227 252.518 300.55 266.056 297.087 275.831C294.747 282.446 292.532 285.075 286.142 288.105C284.405 287.45 284.055 287.24 282.62 286.18C281.495 285.208 280.089 284.135 278.915 283.19C276.572 274.413 276.522 274.505 277.86 265.461C279.207 256.328 280.205 250.1 283.905 241.485C278.592 241.606 274.697 242.965 269.905 245.179C268.917 245.635 267.238 244.547 266.175 244.114C270.123 235.415 273.165 233.422 282.967 232.753C284.005 232.682 286.069 231.567 287.317 231.508C289.124 231.425 290.888 231.664 292.675 231.397ZM189.699 233.107C195.066 232.502 202.924 234.395 207.133 237.871C208.089 238.661 209.017 240.02 208.95 241.308C208.649 247.044 201.919 243.92 198.634 243.749C198.432 244.181 199.01 249.212 199.047 250.208C199.456 260.95 199.194 280.796 189.916 287.746C186.554 287.088 185.631 288.395 183.501 285.15C181.348 281.778 181.032 279.428 180.505 275.493C179.094 264.268 180.518 252.865 184.646 242.332C180.892 243.69 178.438 243.039 174.511 243.528C173.457 243.659 171.719 245.169 170.418 245.308C169.325 244.279 168.988 244.518 167.428 244.115L167.23 243.724C167.712 242.29 168.433 239.806 169.435 238.776C174.342 233.73 183.551 233.717 189.699 233.107ZM99.8149 238.547C102.997 238.356 104.43 240.05 107.33 241.107C110.489 242.484 113.829 243.258 116.946 244.802C119.442 246.04 128.746 247.697 129.891 249.871C130.812 252.496 128.12 258.335 126.014 259.613C121.143 262.57 115.045 265.848 109.813 267.786C108.165 268.706 101.878 271.225 100.322 269.645C100.014 268.888 100.081 268.083 100.207 267.291C101.224 260.838 108.306 259.843 112.685 256.51C113.218 256.105 114.079 255.332 114.168 254.632C113.164 254.078 111.953 254.505 110.877 254.058C109.601 253.528 108.28 252.438 107.054 251.893C102.206 249.731 94.4297 248.957 97.9849 241.54C98.5671 240.322 98.7317 239.584 99.8149 238.547ZM377.916 233.215C378.728 233.234 379.803 233.388 379.993 234.354C381.088 239.926 373.845 244.314 370.408 247.816C368.083 250.188 364.657 251.081 363.23 254.576C363.533 255.928 365.691 255.46 367.085 255.925C372.333 257.678 390.562 257.978 380.315 267.268C379.199 268.278 374.52 268.81 372.693 269.048C369.903 267.82 367.665 268.332 364.77 267.967C362.79 267.72 360.673 266.786 358.723 266.496C355.013 265.943 352.913 265.178 351.095 261.671C349.178 257.973 352.966 253.583 355.416 251.063C358.033 248.369 362.023 246.359 364.975 243.993C368.973 240.67 373.058 235.291 377.916 233.215ZM286.961 192.062C288.276 191.121 290.816 191.14 292.449 191.414L292.773 191.474L294.057 191.479C300.348 191.53 304.696 192.014 309.895 196.495C311.362 197.761 313.285 198.829 314.797 200.244C317.395 202.676 317.148 210.299 316.8 213.647C315.925 214.678 315.203 215.475 314.483 216.631C313.468 215.586 312.548 214.498 311.225 214.023C306.168 212.205 306.622 209.599 303.387 206.285C302.01 204.875 299.137 204.588 297.48 204.009C290.898 201.715 288.952 201.329 282.177 203.912C277.603 205.656 274.628 208.763 272.5 213.268C270.588 217.315 270.93 219.295 267.063 221.944C266.463 221.472 264.106 219.86 264.278 219.02C266.25 209.314 276.543 194.162 286.831 192.163L286.961 192.062ZM183.257 190.839C191.735 190.015 200.634 193.033 205.051 200.861C206.148 202.805 207.23 213.272 204.146 213.318C199.077 213.393 193.358 207.577 189.087 205.219C187.256 204.232 180.244 204.775 178.308 205.599C177.217 205.765 176.63 205.335 175.465 205.005C171.68 205.639 168.929 210.851 166.65 213.437C165.408 214.846 163.772 216.403 162.439 217.774C161.438 216.996 160.287 216.297 159.216 215.608C160.453 212.693 162.407 207.785 164.052 205.236C167.05 200.59 172.088 194.447 177.45 192.422C179.093 191.801 181.508 191.255 183.257 190.839Z" fill="#4B4746"/>
</g>
<defs>
<clipPath id="clip0_64_3464">
<rect width="480" height="480" fill="white"/>
</clipPath>
</defs>
</svg>
