<svg width="480" height="480" viewBox="0 0 480 480" fill="none" xmlns="http://www.w3.org/2000/svg">
<g clip-path="url(#clip0_64_3744)">
<path fill-rule="evenodd" clip-rule="evenodd" d="M244.13 299.877C244.28 299.917 244.435 299.94 244.578 299.998C245.285 300.282 245.705 301.182 245.928 301.87C246.982 305.112 244.823 311.4 243.288 314.323C241.88 317.005 239.926 318.99 237.753 321.05C233.161 325.405 230.326 327.558 224.158 329.413C213.23 332.7 204.803 332.188 194.645 326.743C193.621 326.21 192.761 325.645 192.791 324.365C192.839 322.322 194.329 317.97 195.743 316.635C196.941 315.505 202.665 319.322 204.221 319.535C206.853 320.137 208.961 320.75 211.645 320.97C218.619 321.538 223.542 319.835 229.295 316.078C231.814 314.643 234.018 313.56 235.781 311.115C238.588 307.225 240.316 302.997 244.13 299.877ZM327.673 292.25C330.173 292.018 332.466 293.233 334.633 294.34C334.381 300.932 332.8 299.962 327.495 300.877C324.195 301.447 321.992 304.317 320.265 307.052C324.027 305.962 326.233 304.988 330.268 306.193C334.063 307.325 335.527 308.275 337.452 311.667C337.45 317.322 335.502 322.165 331.72 326.328C330.51 327.535 328.485 328.858 326.933 329.56C324.015 330.878 319.57 331.495 316.685 329.955C314.885 328.992 313.968 328.128 311.91 327.363L311.6 327.248C310.45 321.01 309.923 317.005 312.09 310.9C315.085 302.467 319.653 296.258 327.673 292.25ZM328.082 316.158C326.185 315.86 322.225 315.052 320.518 315.325C319.665 315.485 318.233 315.647 317.585 316.12C317.26 318.497 321.587 321.324 323.73 321.467C324.595 321.525 325.995 321.128 326.855 320.875C328.27 320.173 328.72 319.7 329.87 318.672C329.28 317.782 328.772 316.975 328.082 316.158ZM205.029 203.89C209.394 205.372 206.518 210.635 205.141 213.542C200.517 223.436 197.94 228.482 193.837 239.165C189.565 250.288 172.139 290.977 199.747 285.198C201.606 284.81 204.312 284.247 206.125 283.584C210.586 281.949 222.368 272.298 226.775 274.347C228.655 276.83 223.171 282.722 221.295 284.435C219.988 285.69 219.063 286.73 217.956 288.147C212.803 289.382 212.843 291.218 209.729 292.443C204.798 294.378 204.681 293.333 199.537 296.568C196.083 295.123 192.281 297.137 188.862 296.834C184.251 296.427 177.995 289.7 176.3 285.88C175.466 283.998 177.365 273.379 177.554 270.857C178.184 262.417 181.612 254.457 183.879 246.402C185.481 240.565 188.002 235.381 190.337 229.811C192.535 224.569 195.25 219.678 198.033 214.734C200.214 210.86 201.337 206.728 205.029 203.89ZM248.789 238.271C257.725 237.632 256.479 243.361 255.932 248.958C255.194 256.465 251.462 268.567 243.881 271.392C241.045 272.407 239.355 271.852 238.064 268.57C235.697 262.55 239.85 253.887 241.033 247.743C241.364 246.025 244.716 241.896 245.702 240.349C246.359 239.319 247.722 238.688 248.789 238.271ZM156.629 224.103C159.846 223.762 162.724 223.365 163.801 227.191C166.375 236.332 161.731 257.713 151.3 260.478C148.566 261.148 147.259 257.5 146.159 255.845C144.301 253.048 144.801 251.37 143.945 248.539L143.839 248.195C145.425 242.42 151.219 226.366 156.629 224.103ZM256.015 192.04C260.502 192.359 267.252 198.669 270.865 201.108C275.917 204.516 278.32 206.307 282.247 211.187C285.315 214.997 283.437 218.88 280.435 222.081C279.885 222.668 278.917 222.403 278.275 222.277C277.182 221.62 275.927 220.218 274.787 219.311C273.155 218.008 270.912 216.779 269.407 215.478C267.43 213.878 265.57 211.24 263.558 209.775C260.533 207.573 257.875 205.269 255.03 202.87C253.125 201.262 251.355 200.312 249.483 198.469C250.82 196.716 253.645 192.794 255.65 192.006L256.015 192.04ZM178.953 188.33C188.614 187.221 187.023 193.309 180.326 196.313C178.53 197.039 175.75 198.697 173.767 198.922C166.611 199.734 159.539 202.286 152.34 202.165C150.562 202.135 149.861 202.103 148.167 202.476L147.732 202.575C145.454 202.918 142.063 204.221 140.878 201.5C140.805 200.126 141.345 199.822 142.002 198.799C144.468 194.963 148.926 195.119 152.852 194.16C154.978 193.708 157.505 192.454 159.614 192.195C166.024 191.408 172.736 189.264 178.953 188.33Z" fill="#4B4746"/>
</g>
<defs>
<clipPath id="clip0_64_3744">
<rect width="480" height="480" fill="white"/>
</clipPath>
</defs>
</svg>
