<svg width="480" height="480" viewBox="0 0 480 480" fill="none" xmlns="http://www.w3.org/2000/svg">
<g clip-path="url(#clip0_64_3561)">
<path fill-rule="evenodd" clip-rule="evenodd" d="M228.433 276.743C229.305 276.991 229.542 276.986 230.152 277.668C230.538 279.47 230.724 281.375 231.057 283.215C231.48 285.555 232.573 287.895 232.275 290.238C237.008 297.063 242.735 304.325 250.645 307.745C258.263 310.815 266.643 311.636 274.78 312.133C276.488 312.238 277.653 311.476 278.718 312.856C279.127 315.523 274.622 317.635 272.54 318.308C263.623 322.83 261.555 321.526 251.657 319.861L249.512 317.601C240.981 315.621 231.935 305.99 227.89 298.407C225.172 293.312 222.562 280.321 228.433 276.743ZM125.747 282.483C126.328 282.515 127.308 282.781 127.883 282.958C129.688 283.511 132.208 283.203 134.233 283.186L149.5 282.988C153.261 282.917 156.584 282.285 160.162 283.62C161.106 285.343 161.851 287.48 161.124 289.425C158.847 295.515 151.157 301.016 146.097 304.828C144.263 306.208 141.811 308.225 139.955 309.21C137.974 310.308 136.795 310.493 134.713 311.248C133.875 310.976 134.214 311.225 133.728 310.386C133.574 309.213 134.403 308.085 134.988 307.093C137.604 302.658 141.418 299.308 145.609 296.41C147.234 295.29 148.262 294.36 149.449 292.79L149.655 292.513C140.767 292.098 131.323 293.183 122.508 291.386C121.491 291.181 121.197 290.968 120.676 290.143C120.165 287.565 123.537 283.57 125.747 282.483ZM289.29 199.905C290.05 199.985 290.028 199.987 290.735 200.285C292.558 202.323 291.725 212.546 291.9 215.001C292.33 221.044 292.437 227.013 292.817 233.024C292.99 235.788 294.063 244.941 295.963 246.699C297.183 247.827 303.965 247.079 306.237 247.52C310.405 248.27 314.217 250.283 317.532 252.888C324.267 258.378 322.915 268.936 317.765 274.906C313.237 280.15 298.165 286.745 292.272 281.221C289.37 273.601 292.945 273.436 299.445 273.343C307.025 273.233 311.033 271.993 315.647 265.955C314.315 263.928 313.46 262.455 311.665 260.808C308.643 260.17 301.595 258.728 299.115 257.446C295.415 258.851 295.63 258.46 292.147 260.973C291.065 260.96 290.082 261.051 289.272 260.346C288.537 258.663 289.465 257.6 289.185 256.38C287.667 249.787 286.97 243.115 286.508 236.376C286.47 235.435 285.675 234.007 285.732 233.121C286.012 228.857 285.96 224.739 285.72 220.48C285.59 218.425 286.015 215.867 285.845 213.871C285.36 208.216 284.743 204.202 289.29 199.905ZM207.062 230.848C217.446 223.97 231.882 220.868 244.226 222.099C248.695 222.546 251.558 223.212 254.78 226.736C258.887 231.223 254.952 234.191 255.31 236.389C256.957 246.517 256.077 258.308 247.132 264.91C243.974 267.188 240.879 265.758 237.316 265.693C236.224 266.123 233.268 266.878 232.184 266.736C229.406 266.371 224.426 265.498 221.937 264.473C216.287 262.148 212.37 257.502 210.184 251.903C207.967 246.223 208.887 241.918 211.183 236.56C207.586 237.071 205.849 240.348 201.884 239.389C200.593 237.853 205.515 231.873 207.062 230.848ZM332.527 209.76C335.687 209.336 338.855 208.747 342.053 208.93C344.858 209.136 347.668 209.621 350.351 210.49C353.18 211.407 355.99 213.254 357.285 216.026C358.29 218.18 359.587 222.137 356.588 223.334C355.833 223.635 354.833 223.674 354.016 223.752C354.046 224.918 354.433 226.025 354.428 227.006C354.373 234.601 355.14 242.214 349.465 248.222C346.16 251.72 344.625 251.05 340.55 251.358C336.217 252.852 328.503 251.223 324.928 248.187C316.608 241.12 317.078 228.819 323.753 220.823C320.483 220.149 319.318 226.704 316.41 226.609C314.198 226.217 314.378 223.925 314.806 222.46C316.296 217.346 320.635 214.057 325.075 211.569C327.215 210.37 330.115 210.083 332.527 209.76ZM234.879 186.054C238.727 185.613 247.058 185.932 249.969 188.419C252.055 190.24 255.375 193.576 255.545 196.388C255.832 201.176 253.593 202.187 249.924 199.59C249.773 199.483 246.151 198.804 245.429 198.569C241.798 197.384 238.276 196.253 234.395 196.769C228.334 197.183 224.629 199.551 220.704 204.057C215.485 208.429 214.926 212.873 210.159 217.256C209.509 217.852 208.012 215.375 207.958 214.855C207.691 212.282 209.268 209.166 210.287 206.838C213.972 199.697 220.45 193.286 227.162 189.002C228.854 187.96 232.905 186.705 234.879 186.054ZM332.035 171.608C335.513 171.16 339.315 173.148 342.225 175.108C345.45 177.281 348.317 182.666 345.537 186.215C342.762 189.358 337.597 184.656 335.09 183.063C330.47 180.127 329.17 180.209 323.955 180.686C319.118 181.991 319.017 183.352 316.345 187.541C314.412 188.212 311.408 189.574 310.125 187.364C310.012 184.843 313.468 179.882 315.155 177.957C319.243 173.303 326.068 171.887 332.035 171.608Z" fill="#4B4746"/>
<path fill-rule="evenodd" clip-rule="evenodd" d="M236.382 229.342C234.864 231.792 232.897 234.605 231.98 237.358C230.812 240.865 231.506 245.573 230.3 248.856C229.882 249.992 229.704 249.506 229.828 250.68C230.274 251.147 230.677 251.568 231.148 252.015C231.509 256.155 233.024 259.513 235.388 262.925C235.938 263.718 237.118 264.915 237.316 265.693C236.224 266.123 233.269 266.877 232.184 266.735C229.406 266.37 224.427 265.498 221.937 264.473C216.288 262.148 212.37 257.503 210.183 251.903C207.967 246.223 208.886 241.917 211.182 236.559C213.591 234.041 217.612 234.297 220.699 233.251C221.088 233.12 222.837 231.76 223.259 231.434C224.116 231.499 224.131 231.555 224.881 231.917C227.368 231.611 234.181 230.251 236.382 229.342ZM333.716 217.534C337.202 218.428 335.711 218.949 339.937 217.963C338.82 219.588 335.945 223.594 335.347 225.426C333.883 229.932 334.64 237.553 335.248 242.148C335.888 246.992 339.868 248.844 340.551 251.358C336.218 252.853 328.503 251.223 324.928 248.186C316.608 241.119 317.078 228.818 323.753 220.823C324.831 220.042 332.648 217.259 333.716 217.534Z" fill="#FEFEFE"/>
</g>
<defs>
<clipPath id="clip0_64_3561">
<rect width="480" height="480" fill="white"/>
</clipPath>
</defs>
</svg>
