<svg width="480" height="480" viewBox="0 0 480 480" fill="none" xmlns="http://www.w3.org/2000/svg">
<g clip-path="url(#clip0_64_3711)">
<path fill-rule="evenodd" clip-rule="evenodd" d="M243.983 289.715C245.61 290.617 245.576 291.707 245.483 293.465C245.067 301.355 243.026 307.275 237.349 312.888C235.586 314.63 233.847 317.155 231.847 318.775C224.694 324.855 214.205 328.37 204.796 327.843C201.252 327.645 197.236 326.437 193.767 325.59C193.311 325.477 191.703 324.278 190.889 323.96C189.229 323.312 186.582 322.46 185.074 321.685C182.339 320.278 177.448 316.695 175.429 314.47C175.064 314.07 174.103 313.552 173.765 313.01C172.512 311 174.042 307.272 174.647 304.848C178.292 306.288 180.281 308.26 183.225 309.857C188.706 312.832 193.923 316.63 200.229 317.04C201.963 317.447 204.656 316.993 206.236 317.28C209.778 317.928 211.345 317.545 214.837 316.965C229.655 314.515 236.488 301.193 243.844 289.851C243.891 289.806 243.937 289.76 243.983 289.715ZM335.885 292.06C336.89 292.033 337.055 291.968 337.923 292.391C339.247 294.023 338.762 295.726 337.707 297.315C334.985 298.62 331.775 300.283 328.923 301.183C327.043 301.773 323.477 302.008 321.707 302.713C318.987 303.795 317.685 304.777 314.702 305.617C318.672 307.13 323.445 308.67 326.825 311.41C329.142 313.29 327.045 316.803 324.277 316.766C321.85 316.736 319.355 316.548 316.895 316.433C315.55 316.073 314.17 315.417 312.548 314.867C309.373 313.792 303.71 312.86 301.515 310.062C300.962 308.655 301.193 305.275 301.74 304C302.893 301.323 303.56 301.058 306.104 302.083C310.799 297.04 329.08 293.321 335.885 292.06ZM201.188 215.207C201.804 215.424 202.373 215.692 202.72 216.27C203.842 218.144 195.768 237.279 194.597 240.97C193.517 244.372 192.881 247.924 191.889 251.362L193.739 252.843C193.183 255.383 192.127 259.907 188.667 259.277C188.318 258.927 187.819 258.258 187.351 258.288C182.274 258.623 177.532 260.941 174.149 264.743C173.781 266.628 173.347 268.597 174.004 270.447C174.946 273.097 178.007 275.353 180.458 276.52C182.828 277.648 184.797 277.493 187.272 277.548C187.93 277.563 188.827 278.242 189.573 278.022C197.192 275.757 204.49 272.143 211.959 269.395C213.36 268.88 214.645 267.98 215.984 267.407C216.596 267.147 217.026 267.412 217.453 267.657C218.971 270.7 213.323 274.598 211.261 276.168C208.514 278.635 204.339 283.688 200.907 284.928C198.659 285.74 193.689 287.967 191.581 288.513C191.404 288.375 190.295 287.53 190.168 287.56C183.234 289.153 173.62 289.227 168.928 282.88C167.563 281.035 166.042 278.788 164.793 276.745C165.073 274.253 164.536 273.938 164.56 272.428C164.615 268.875 166.949 263.845 168.736 260.862C171.134 256.862 176.554 252.327 180.677 250.17C181.441 249.77 184.063 249.158 185.023 248.928C187.748 240.882 189.414 233.48 193.239 225.861C195.833 220.697 196.111 218.667 201.188 215.207ZM247.556 236.027C248.736 235.874 250.105 236.007 251.31 236.071C252.577 240.424 252.755 244.78 251.232 249.066C249.021 255.298 245.894 264.103 239.448 267.145C237.44 266.943 236.156 266.13 234.321 265.242C234.124 259.91 234.613 256.515 236.284 251.348C237.936 246.241 242.629 238.45 247.556 236.027ZM155.198 220.018C159.601 219.779 159.815 220.813 161.729 224.64C160.671 235.435 159.71 243.527 150.568 250.435C149.381 250.453 147.667 250.763 146.453 250.94C143.304 245.987 143.782 241.746 145.555 236.322C147.189 231.32 150.324 222.537 155.198 220.018ZM265.322 205.142C266.56 205 267.81 204.952 269.058 204.996C273.938 205.138 279.823 207.546 283.288 211.01C285.72 213.441 286.992 219.368 286.625 222.691C286.327 225.392 284.338 231.585 282.105 233.374C281.276 233.545 281.643 233.614 280.953 233.242C280.168 231.617 279.148 224.729 278.96 222.703C276.182 219.482 273.877 216.38 269.692 215.499C267.357 214.948 257.573 215.089 254.94 215.572C249.706 216.533 247.321 218.771 244.436 222.888C243.717 223.141 243.108 223.44 242.417 223.756C241.862 223.515 240.3 222.859 239.948 222.516C237.847 220.467 242.075 214.146 243.541 212.756C248.594 207.966 258.535 205.23 265.322 205.142ZM163.947 182.352C166.409 181.902 170.732 182.869 173.144 183.519C181.437 185.836 185.848 194.791 182.804 202.822C181.105 207.303 179.762 209.012 175.515 211.286C174.451 203.743 175.335 199.213 169.316 193.778C163.676 189.588 153.047 191.404 147.452 194.769C146.694 195.226 146.332 196.942 145.459 197.676C145.129 197.51 144.799 197.343 144.471 197.174L144.122 197.527C143.815 198.86 143.92 199.097 142.632 199.61C141.73 199.474 140.967 198.886 140.177 198.393C142.499 188.389 154.676 183.106 163.947 182.352Z" fill="#4B4746"/>
</g>
<defs>
<clipPath id="clip0_64_3711">
<rect width="480" height="480" fill="white"/>
</clipPath>
</defs>
</svg>
