<svg width="480" height="480" viewBox="0 0 480 480" fill="none" xmlns="http://www.w3.org/2000/svg">
<g clip-path="url(#clip0_64_3406)">
<path fill-rule="evenodd" clip-rule="evenodd" d="M283.663 307.86C284.437 308.155 284.835 308.788 284.722 309.585C283.275 319.94 273.397 328.799 264.185 332.774C263.05 333.262 261.255 334.443 260.13 334.7C254.903 335.89 249.538 336.827 244.158 336.657C241.504 336.565 239.256 335.445 236.751 334.77C226.802 332.052 226.406 329.942 220.12 323.03C219.147 321.645 218.871 321.188 218.164 319.655C218.287 317.608 218.733 313.623 220.127 312.11C222.352 312.018 228.427 318.172 230.949 319.647C235.172 322.12 239.67 324.728 244.671 325.062C250.905 325.48 254.59 325.235 260.475 323.015C262.103 322.372 264.888 321.655 266.265 320.603C271.977 316.235 278.195 312.538 283.663 307.86ZM231.208 242.198C232.173 242.519 232.261 242.516 233.007 243.168C233.994 245.314 233.854 255.825 233.827 258.61C233.805 260.868 234.291 263.708 234.379 266.058C234.482 268.803 234.611 271.425 234.9 274.183C235.321 278.925 239.337 282.535 239.14 287.36C239.028 290.105 237.752 293.599 234.367 293.185C230.411 292.7 228.293 291.87 225.663 288.845C222.743 286.047 219.107 283.565 216.128 280.705C213.369 278.058 216.83 270.197 219.03 267.902C220.141 266.743 224.912 268.14 226.659 268.37C227.099 261.105 223.938 247.08 231.208 242.198ZM189.148 238.719C195.219 239.259 194.573 246.975 195.479 251.237C197.048 258.622 195.05 274.677 186.923 277.467C186.761 277.432 186.6 277.394 186.439 277.354C180.672 275.904 181.088 273.599 180.621 268.842C180.02 262.727 178.859 256.132 181.076 250.16C182.591 246.078 184.997 240.658 189.148 238.719ZM287.22 238.287C288.183 238.273 288.89 238.295 289.84 238.503C291.988 238.983 293.838 240.338 294.943 242.24C296.7 245.238 296.963 249.479 297.17 252.888C297.623 260.348 294.235 272.177 287.332 276.045C280.028 275.815 280.718 268.357 277.868 264.109C279.34 259.41 276.133 255.167 278.34 250.672C280.283 246.716 283.055 240.136 287.22 238.287ZM97.9116 237.945C100.851 238.088 102.856 240.107 105.502 241.278C113.239 244.703 120.947 247.966 128.924 250.787C129.321 250.927 131.395 252.074 131.391 252.399C131.331 255.782 128.987 259.355 127.278 262.178C126.452 263.308 117.79 268.007 116.734 268.135C113.865 268.132 111.505 269.6 109.034 270.902C108.213 270.565 106.489 269.965 106.255 269.152C104.748 263.92 112.611 259.135 115.771 257.263C108.787 254.775 102.376 250.937 95.9135 247.349C92.9327 245.693 96.3077 239.754 97.9116 237.945ZM377.015 236.614C378.015 236.893 378.484 237.096 378.924 238.029C378.619 242.431 370.71 246.545 367.52 248.522C365.847 249.558 363.237 252.367 361.839 253.822C365.267 255.02 378.714 257.162 379.164 260.354C377.585 264.257 370.142 263.85 366.45 264.242C366.307 264.292 365.662 264.502 365.495 264.5C360.247 264.323 353.53 264.189 348.882 261.627C346.185 260.137 349.63 255.01 350.775 253.433C352.752 250.71 355.312 249.348 357.982 247.45C362.972 243.905 367.787 239.991 373.249 237.191C373.822 236.897 376.215 236.731 377.015 236.614ZM185.408 215.109C196.407 214.999 205.299 217.488 213.314 225.221L211.887 227.974C210.646 228.323 209.108 228.641 207.83 228.938C205.719 228.293 203.624 227.594 201.548 226.845L199.627 228.456C198.892 228.214 196.833 227.551 196.204 227.501C190.696 227.062 177.798 225.971 172.942 227.289C169.885 228.1 166.422 228.351 163.273 228.935C160.409 229.466 148.727 236.1 147.317 232.623C147.476 230.85 149.684 226.93 150.938 225.653C157.47 219.007 176.647 215.497 185.408 215.109ZM298.962 212.348C305.21 213.186 313.307 212.829 319.462 214.104C322.72 214.78 329.75 220.027 332.2 222.297C331.242 223.985 330.605 224.592 329.235 225.88C325.76 224.668 318.737 225.063 314.922 224.962C312.995 224.911 311.305 224.197 309.51 224.025C301.255 223.235 293.903 222.869 285.688 224.591C279.85 225.107 274.182 225.786 268.627 227.739C266.472 228.497 257.036 232.981 255.725 229.943C256 228.837 257.047 226.972 257.685 225.977C261.68 219.741 268.263 218.897 274.648 216.766C279.568 215.124 281.583 214.214 286.94 213.522C290.752 213.03 294.948 213.246 298.497 212.454L298.962 212.348Z" fill="#4B4746"/>
</g>
<defs>
<clipPath id="clip0_64_3406">
<rect width="480" height="480" fill="white"/>
</clipPath>
</defs>
</svg>
