<svg width="480" height="480" viewBox="0 0 480 480" fill="none" xmlns="http://www.w3.org/2000/svg">
<g clip-path="url(#clip0_64_3428)">
<path fill-rule="evenodd" clip-rule="evenodd" d="M278.47 320.194C281.92 320.142 281.555 324.235 281.133 326.607C280.363 330.945 278.63 333.85 274.875 336.215C267.53 340.845 259.73 344.502 250.895 344.654C248.886 344.694 245.677 343.972 243.742 343.592C242.182 343.029 240.166 342.904 239.214 341.317C238.483 340.097 239.424 334.862 240.583 334.329C242.415 333.486 246.075 333.699 248.234 333.592C251.187 333.432 254.125 333.062 257.024 332.484C258.269 332.237 263.857 331.092 264.692 330.63C268.992 328.245 274.08 322.524 278.47 320.194ZM229.036 227.88C230.327 227.973 230.725 228.048 230.921 229.355C231.989 236.315 230.271 243.033 229.298 249.887C228.004 258.591 228.138 267.351 227.095 276.106C226.662 280.864 227.257 285.624 227.647 290.346C228.071 295.474 231.254 298.482 233.938 302.47C235.802 302.2 239.889 302.204 241.605 301.632C244.678 300.606 253.03 295.474 256.237 296.249C258.602 298.479 251.907 306.227 250.305 308.112C247.201 311.912 244.652 313.629 239.774 314.734C237.735 315.199 235.869 315.069 233.896 315.694C230.843 312.817 226.471 311.43 223.581 307.817C220.288 303.7 220.545 296.624 220.004 291.537C219.78 289.43 219.593 287.022 219.479 284.929C219.442 283.315 220.182 281.58 220.182 280.005C220.179 268.267 221.903 256.761 223.199 245.138C223.743 240.262 225.032 231.17 229.036 227.88ZM185.053 251.075C195.583 251.545 194.372 276.075 190.987 282.692C188.951 286.675 187.985 288.01 183.873 289.737C181.721 289.025 180.461 288.67 178.609 287.357C175.086 275.427 173.321 264.622 180.597 253.512C181.831 251.627 182.966 251.327 185.053 251.075ZM290.982 248.283C298.085 247.81 298.94 254.839 299.43 260.332C300.13 268.212 299.322 278.142 294.425 284.697C293.475 285.969 292.53 286.1 291.061 286.195C290.426 286.3 289.835 286.457 289.213 286.612C288.32 286.282 287.31 285.972 286.397 285.67C285.985 284.775 283.895 280.812 283.825 280.232C283.013 273.397 282.556 263.652 284.078 256.972C285.343 251.43 286.838 250.782 290.982 248.283ZM380.442 240.733C381.655 240.965 383.448 241.114 383.673 242.494C382.703 244.542 378.42 246.61 377.04 248.106C374.395 250.975 371.54 254.262 369.053 257.242C372.298 257.344 373.03 256.872 376.03 256.054C388.93 252.542 382.89 261.625 377.242 266.032C375.505 267.387 372.62 269.225 371.21 270.505C368.495 272.967 366.325 275.514 363.433 277.787C362.365 278.677 361.222 279.387 360.06 280.149C358.845 279.504 358.232 279.06 357.14 278.272C358.327 274.662 360.67 272.597 362.878 269.644C363.393 268.955 363.877 268.559 363.782 267.885C361.35 267.412 354.832 269.664 353.67 266.319C352.283 262.332 362.393 255.217 364.963 252.867C369.163 249.024 375.405 242.76 380.442 240.733ZM90.3975 240.43C93.917 240.363 111.457 251.457 114.957 253.8C115.131 254.769 115.397 255.65 115.661 256.599C114.977 258.604 114.347 260.347 112.999 262.037C111.647 263.729 107.694 264.302 106.875 266.179C107.384 268.275 117.845 272.407 117.461 275.377C116.864 279.992 110.907 278.857 107.696 278.47C103.218 277.477 101.469 276.429 97.2783 274.769C94.0187 273.594 90.0705 272.835 87.3447 270.585C84.292 268.065 89.1842 262.322 91.2725 260.442C94.1268 260.517 99.8616 259.189 102.99 258.609C98.1716 256.044 92.1645 251.937 87.0362 248.959C86.0374 246.664 88.679 242.014 90.3975 240.43ZM185.333 213.584C187.03 213.158 197.337 214.416 199.647 214.856C201.189 215.15 204.171 216.104 205.721 216.645C206.146 217.489 206.702 218.596 206.708 219.545C206.729 223.067 204.278 227.025 201.941 229.471C199.119 229.748 197.509 230.682 195.136 230.985C192.64 231.303 189.395 229.998 186.463 229.944C181.939 229.861 178.308 230.817 173.815 230.832C169.804 231.139 164.356 231.987 160.994 234.334C159.367 233.91 155.015 233.019 154.75 231.249C154.401 228.916 157.229 223.77 158.572 221.892C162.485 216.421 171.544 215.527 177.707 214.308C179.699 213.979 182.675 214.026 185.333 213.584ZM296.427 210.109C304.347 210.061 312.867 209.724 317.802 216.829C317.182 219.678 314.434 226.729 312.364 228.979C311.004 230.457 309.82 228.807 308.62 228.417C303.025 226.601 296.743 226.559 291.058 226.509C289.655 226.621 288.177 226.429 286.652 226.555C283.795 226.792 281.04 227.508 278.223 227.86C275.523 228.198 273.437 228.222 270.71 228.717C269.862 228.171 268.16 227.186 268.313 226.027C268.703 223.097 270.998 216.327 273.223 214.484C278.425 210.179 290.042 210.313 296.427 210.109Z" fill="#4B4746"/>
</g>
<defs>
<clipPath id="clip0_64_3428">
<rect width="480" height="480" fill="white"/>
</clipPath>
</defs>
</svg>
