<svg width="480" height="480" viewBox="0 0 480 480" fill="none" xmlns="http://www.w3.org/2000/svg">
<g clip-path="url(#clip0_64_3774)">
<path fill-rule="evenodd" clip-rule="evenodd" d="M340.168 300.344C341.588 300.152 343.053 300.257 344.487 300.307C344.802 300.747 345.68 301.965 345.72 302.427C345.789 306.12 340.83 310.864 338.117 312.874C334.492 315.564 332.14 316.255 329.458 320.12C331.458 320.479 332.738 320.339 334.766 320.157C339.47 319.734 342.153 320.357 346.33 322.402C345.81 323.499 345.2 324.629 344.638 325.714C340.978 328.049 338.672 327.602 333.845 331.107C332.203 331.02 319.355 333.097 317.825 333.785C314.903 332.585 310.497 333.069 307.3 333.509C304.79 334.444 303.86 331.524 303.245 329.817C307.59 318.837 315.733 318.307 323.945 312.049C319.85 311.932 317.777 312.51 314.005 312.717C312.097 312.822 306.416 311.999 304.203 311.727C306.118 305.455 308.088 303.592 314.76 303.539C322.962 303.477 331.925 301.414 340.168 300.344ZM243.764 296.297L244.016 296.727C244.231 303.744 239.407 308.994 234.861 313.977C230.944 318.272 216.963 324.385 210.87 325.502C209.6 326.03 207.361 325.163 206.251 325.435C194.825 328.225 184.176 324.317 175.289 316.094C174.209 314.912 172.865 313.796 173.209 312.032C173.818 308.907 175.838 304.745 179.736 306.289C181.764 307.094 183.618 308.754 185.551 309.782C202.814 319.807 220.067 314.917 234.742 302.967C236.955 301.165 240.759 297.822 243.09 296.384L243.38 296.209L243.764 296.297ZM210.543 211.969C211.451 211.932 211.832 211.843 212.673 212.204C212.949 213.017 212.616 213.604 212.368 214.565C212.888 215.698 212.333 216.487 211.69 217.537C205.321 227.779 198.101 237.477 193.047 248.504C190.258 254.589 186.578 259.702 184.812 266.242C183.957 269.412 183.014 270.36 184.883 273.592C191.525 285.087 214.326 268.619 220.366 270.077C222.316 272.236 215.348 277.859 213.82 279.202C210.295 282.607 199.528 287.794 194.518 288.827C193.671 288.999 188.632 289.406 187.092 289.626C185.816 289.166 183.961 288.569 182.905 287.754C180.23 285.692 176.804 285.344 176.184 281.831C173.554 266.942 182.399 251.732 190.168 239.708C194.456 233.072 204.324 215.788 210.543 211.969ZM251.705 243.109C254.315 243.077 257.79 244.268 258.357 247.161C259.637 253.687 254.175 262.452 251.442 268.237C249.772 271.772 246.463 275.919 243.889 278.694C243.604 278.999 241.419 279.594 240.915 279.734C238.474 280.174 235.005 280.339 234.61 277.091C233.695 269.561 244.363 244.455 251.705 243.109ZM163.508 219.318C165.24 219.033 167.858 219.107 169.313 220.167C169.971 221.36 170.155 222.845 169.875 224.184C167.226 236.835 164.234 246.072 153.931 254.289C153.776 254.537 153.46 254.738 153.174 254.703C145.483 253.737 148.571 245.487 149.88 241.321C152.736 232.233 156.269 225.349 163.508 219.318ZM262.678 209.568C263.823 209.234 264.598 209.639 265.825 209.659C270.865 209.823 276.442 209.451 281.395 210.627C284.972 211.476 291.847 213.684 294.032 216.848C294.84 218.016 294.213 219.747 293.875 221.004C290.23 224.362 288.295 225.322 284.005 227.754C281.767 227.167 279.577 226.421 277.447 225.519C274.355 224.36 272.167 224.141 269.072 223.245C268.382 223.046 266.262 222 265.385 221.611C261.625 222.685 257.902 222.043 254.188 223.385C253.57 223.609 251.772 224.546 251.037 224.902C244.927 222.244 245.042 225.235 246.452 217.165C252.027 211.449 255.703 211.073 262.678 209.568ZM156.725 174.655C159.895 174.183 161.291 174.721 164.036 175.954C170.996 179.082 175.347 182.398 179.936 188.534C181.588 190.744 185.045 194.408 182.721 197.523C180.649 200.299 175.97 207.924 171.863 205.138C168.902 202.346 167.027 197.102 164.107 194.888C161.573 192.967 157.325 189.632 154.681 188.156C151.02 186.112 147.468 185.973 144.173 182.619C148.111 177.024 150.075 175.438 156.725 174.655Z" fill="#4B4746"/>
</g>
<defs>
<clipPath id="clip0_64_3774">
<rect width="480" height="480" fill="white"/>
</clipPath>
</defs>
</svg>
