<svg width="480" height="480" viewBox="0 0 480 480" fill="none" xmlns="http://www.w3.org/2000/svg">
<g clip-path="url(#clip0_64_3081)">
<path fill-rule="evenodd" clip-rule="evenodd" d="M263.55 300.997C263.812 300.987 264.945 300.947 265.03 300.984C268.665 302.635 264.015 312.102 262.575 314.252C261.215 316.279 260.445 317.134 259.525 319.082C255.68 321.292 254.59 323.942 251.192 326.657C247.635 329.502 242.251 331.776 239.082 334.674C237.882 334.731 237.807 334.89 236.755 335.054C231.933 335.802 228.472 335.831 223.814 334.851C218.949 333.354 220.664 329.351 222.956 325.856C223.781 324.6 228.567 326.392 230.112 326.082C240.206 324.049 249.716 318.689 256.13 310.529C258.785 307.122 260.625 304.004 263.55 300.997ZM201.844 227.239C205.164 226.96 204.831 231.222 204.036 233.289C198.378 247.999 191.826 262.723 188.849 278.27C188.348 280.888 187.536 285.593 188.815 287.963C189.636 289.483 195.222 291.8 196.921 292.118C201.398 291.77 206.043 291.925 210.402 293.032C216.416 294.557 210.814 300.408 207.883 301.9C206.713 302.498 205.779 302.852 204.575 303.277C203.247 303.997 201.928 304.738 200.62 305.493C197.472 305.115 196.63 304.998 193.725 303.77L191.337 305.15C182.24 301.535 179.086 297.765 180.029 287.81C181.566 271.595 188.385 256.335 194.308 241.326C196.188 236.56 197.342 230.32 201.844 227.239ZM243.885 244.481C252.862 243.816 251.508 259.552 250.04 264.96C248.274 271.47 244.729 279.764 240.296 284.957C240.45 284.777 236.775 286.197 236.14 286.585L235.823 286.779L233.852 287.824C232.299 286.909 230.975 285.73 230.127 284.112C227.677 279.437 231.277 264.338 233.03 259.125C234.341 255.23 236.627 249.38 239.876 246.725C241.04 245.774 242.544 245.145 243.885 244.481ZM351.745 245.033C358.403 245.475 355.09 249.498 353.61 253.623C351.873 258.468 347.095 262.895 345.232 267.472C345.632 267.34 346.033 267.208 346.433 267.078C350.4 265.798 358.952 264.593 354.787 271.578C351.02 277.895 344.392 279.426 337.785 280.761C336.728 280.748 333.387 280.653 332.93 280.078C329.235 275.415 339.667 262.627 341.617 259.795C341.352 259.925 341.08 260.048 340.808 260.163L340.487 260.295C339.125 260.87 338.655 260.482 337.325 260.527C335.518 260.59 333.933 261.075 332.558 259.347C332.465 258.1 333.392 255.305 333.93 254.133C335.315 251.11 339.767 250.787 342.675 249.691C345.657 248.567 348.995 245.966 351.745 245.033ZM163.692 235.262C176.572 233.604 163.209 281.44 154.573 276.85C153.193 276.85 151.817 276.955 150.602 276.343C149.15 274.403 149.195 268.155 149.501 265.74C149.398 265.56 148.647 264.215 148.658 264.155C150.619 254.918 154.244 239.141 163.692 235.262ZM261.598 215.586C265.42 216.17 269.51 214.76 273.42 215.997C277.69 217.347 276.435 220.046 275.535 223.385C274.97 225.485 274.482 227.246 273.702 229.302C267.045 234.64 260.95 232.598 253.032 232.413C251.437 232.376 250.43 232.124 248.803 232.412C245.346 231.879 234.421 232.009 233.001 227.746C232.48 226.183 235.292 221.169 236.232 219.599C239.207 214.635 246.368 216.437 251.185 216.159C254.707 216.032 257.928 216.145 261.598 215.586ZM143.666 196.278C149.446 195.68 167.407 202.506 173.026 206.04C174.12 206.727 174.042 207.35 174.297 208.381C174.605 209.632 172.279 219.959 171.984 220.297C170.442 220.443 169.854 220.058 168.097 220.156L167.81 220.175C167.266 220.259 162.558 220.008 161.765 219.971C156.622 219.776 152.392 216.579 147.897 214.731C142.884 212.67 139.999 212.798 136.216 208.443C138.049 205.443 141.113 198.116 143.666 196.278Z" fill="#4B4746"/>
</g>
<defs>
<clipPath id="clip0_64_3081">
<rect width="480" height="480" fill="white"/>
</clipPath>
</defs>
</svg>
