<svg width="480" height="480" viewBox="0 0 480 480" fill="none" xmlns="http://www.w3.org/2000/svg">
<g clip-path="url(#clip0_64_3754)">
<path fill-rule="evenodd" clip-rule="evenodd" d="M335.01 291.308C336.39 291.233 338.31 290.966 339.49 291.486C339.768 291.84 340.063 292.063 339.945 292.563C338.098 300.303 328.71 300.973 323.16 305.726C324.685 306.496 325.942 306.626 327.487 307.281C331.205 308.853 338.332 312.485 338.585 317.053C338.64 318.073 337.232 319.223 336.515 319.906C335.045 320.125 334.275 320.368 332.857 320.795C330.57 320.083 328.292 319.813 325.822 319.048C323.95 318.753 322.072 317.373 320.617 316.213L320.428 316.197C315.823 315.77 311.98 312.66 307.42 311.84C301.837 310.838 304.737 306.755 306.897 303.983C307.29 303.477 308.752 301.808 309.207 301.58C316.925 297.72 327.102 295.565 334.64 291.51L335.01 291.308ZM173.156 284.681C178.19 284.883 181.343 290.613 185.31 293.228C192.024 297.59 199.763 300.123 207.759 300.571C210.655 300.773 213.565 300.498 216.372 299.761C223.2 298.013 229.467 294.901 236.126 292.708C236.922 292.448 237.519 292.473 238.291 292.758C239.7 294.871 234.938 299.264 233.451 300.591C231.595 301.789 229.553 303.628 227.518 305C220.566 309.845 212.094 310.925 203.818 311.24C194.275 311.603 185.632 306.613 178.894 300.308C173.938 295.67 165.376 292.078 173.156 284.681ZM221.249 205.936C224.683 208.106 215.586 225.261 214.176 228.328C211.156 234.9 208.435 241.677 205.451 248.22C203.206 253.142 199.023 258.77 196.95 264.018C196.04 266.271 196.765 275.869 193.114 276.01C190.91 274.86 189.048 270.628 187.861 268.33C186.303 265.583 185.067 261.101 184.877 257.923C185.016 255.956 186.205 253.69 186.818 251.99C189.733 243.912 192.726 248.896 195.611 253.58C197.505 249.683 200.136 245.641 201.946 241.709C206.306 232.242 212.959 211.56 221.249 205.936ZM258.92 227.293C262.04 227.096 262.877 227.061 264.797 229.613C264.902 231.378 265.72 235.897 265.53 237.25C264.263 246.334 257.963 265.498 248.552 268.468C234.926 270.225 247.349 233.457 258.92 227.293ZM171.229 205.266C184.32 204.235 170.109 242.633 161.443 243.283L158.494 243.731C157.654 242.465 157.032 241.411 156.282 240.09C156.425 238.241 156.057 236.325 156.224 234.683C157.273 224.345 161.329 210.09 171.229 205.266ZM251.495 205.332C256.825 204.674 265.342 205.417 270.46 206.912C272.517 207.513 275.232 208.874 277.295 209.52C280.06 210.385 282.393 210.954 285.11 212.056C290.523 214.251 294.501 216.82 296.788 222.38C297.411 223.893 298.135 226.144 297.396 227.71C297.131 228.286 296.628 228.719 296.021 228.898C294.041 229.493 292.188 228.301 290.476 227.43C285.603 225.363 283.26 223.144 279.072 220.303C276.257 218.394 274.363 218.324 271.565 215.614C264.543 216.293 259.265 212.852 252.476 212.879C250.041 212.889 243.295 213.048 242.147 210.56C242.479 209.096 247.436 206.724 248.88 205.842C249.232 205.628 250.975 205.397 251.495 205.332ZM164.41 177.597C166.311 177.246 166.211 178.023 167.614 177.995C175.237 177.846 198.267 183.22 199.474 192.63C198.918 193.729 196.441 194.517 195.251 194.993C191.395 193.369 190.263 192.586 186.062 191.893C182.895 191.049 181.314 190.157 178.317 189.047C176.159 188.248 173.189 188.046 171.128 187.509C163.144 185.428 159.913 185.088 151.835 185.969C150.679 185.348 149.986 184.772 148.963 183.978C154.912 176.312 156.71 178.687 164.41 177.597Z" fill="#4B4746"/>
</g>
<defs>
<clipPath id="clip0_64_3754">
<rect width="480" height="480" fill="white"/>
</clipPath>
</defs>
</svg>
