<svg width="480" height="480" viewBox="0 0 480 480" fill="none" xmlns="http://www.w3.org/2000/svg">
<g clip-path="url(#clip0_64_3617)">
<path fill-rule="evenodd" clip-rule="evenodd" d="M212.997 278.24C213.84 278.165 213.826 278.15 214.706 278.33C216.381 279.77 216.259 283.081 217.914 285.703C222.179 292.465 226.02 298.133 233.851 301.115C235.456 301.708 238.275 302.965 240.021 302.953C246.075 302.918 250.575 303.408 256.475 304.851C255.888 309.18 255.177 309.403 252.002 312.395C247.2 316.598 238.171 313.986 232.758 311.886C226.934 309.628 219.309 301.806 215.483 296.891C214.3 295.373 211.095 287.478 210.872 285.495C210.564 282.888 211.331 280.268 212.997 278.24ZM148.408 277.578C149.678 277.428 151.682 277.356 152.91 277.676C153.273 278.021 153.691 278.46 153.727 278.978C154.096 284.347 152.581 288.363 149.819 292.495C153.295 293.113 157.958 293.361 161.525 293.613L161.506 297.738C160.247 298.528 156.252 301.193 155.192 301.54C150.05 303.22 135.681 309.508 131.029 307.66C130.355 306.938 130.552 307.268 130.431 306.136C131.145 303.796 132.673 298.181 134.226 296.551C136.458 294.208 139.077 293.1 140.971 289.945C137.205 290.235 133.869 291.126 130.177 292.051C129.134 292.313 123.403 293.058 123.627 290.825C124.094 289.19 124.941 286.006 125.998 284.743C128.712 281.506 134.98 281.422 138.886 280.228C141.929 279.295 145.506 278.006 148.408 277.578ZM293.155 201.238C293.625 201.236 294.682 201.228 295.07 201.557C302.625 207.971 302.423 218.427 305.957 227.02C308.402 232.958 309.238 240.141 311.175 246.345C311.963 248.863 312.303 252.325 312.818 254.95C313.593 265.225 316.822 275.885 310.905 285.218L310.533 285.373C305.228 287.613 287.69 285.56 281.235 286.928C280.937 286.99 279.76 286.695 279.385 286.595C277.813 285.832 276.157 285.255 274.45 284.88C274.167 282.982 273.69 280.475 273.705 278.585C273.757 272.555 282.59 273.442 286.635 273.162C293.14 272.715 299.245 272.72 305.72 273.147C305.803 272.775 306.282 270.644 306.278 270.4C306.23 267.21 304.582 264.427 304.03 260.975C303.332 256.592 303.02 252.025 302.16 247.789C301.607 245.065 299.88 241.687 299.408 238.728C298.975 236.039 299.152 233.19 298.547 230.633C298.21 229.196 296.618 227.595 295.997 225.984C294.182 221.254 293.87 214.269 290.575 210.467C289.872 209.654 289.613 208.62 289.818 207.536C290.205 205.493 291.482 202.51 293.155 201.238ZM253.209 207.347C256.342 207.25 258.173 207.55 260.908 209.187C267.505 213.135 266.683 215.119 262.925 220.644C260.553 219.26 257.293 219.397 254.323 219.029C255.635 231.333 255.748 246.296 250.278 257.59C239.53 265.245 237.196 245.691 238.004 239.255C238.088 238.032 238.588 236.072 238.744 234.736C239.435 228.808 240.767 224.361 242.519 218.692C238.353 219.796 234.599 220.47 230.437 221.806C226.947 222.925 219.27 229.836 216.501 227.049C216.093 224.866 217.329 222.193 218.45 220.231C220.406 217.005 226.039 213.782 229.568 212.559C232.174 211.655 235.89 210.715 238.64 209.815C242.929 208.413 248.344 208.547 252.852 207.437L253.209 207.347ZM340.113 197.818C344.6 197.083 348.805 198.288 352.845 200.014C358.332 208.544 351.028 216.435 344.358 208.62C346.208 219.362 345.738 233.851 339.8 243.287C335.858 244.219 333.65 244.912 331.643 240.556C329.941 232.151 330.73 223.697 332.11 215.299C332.382 213.642 333.715 209.379 333.768 208.739L333.515 208.585C332.695 209.056 331.952 210.22 331.355 211.016C326.358 211.161 327.095 212.373 322.733 214.383C321.835 214.797 321.22 214.775 320.368 214.394C318.705 212.258 320.288 208.312 321.723 206.401C325.698 201.101 333.933 198.861 340.113 197.818ZM226.418 168.596C228.675 168.343 234.729 168.649 237.037 168.777C241.549 169.169 246.456 169.549 249.689 173.099C253.662 177.461 247.293 183.629 243.858 186.366C237.749 185.952 231.322 183.359 224.707 184.582C222.617 185.082 221.351 184.419 219.155 184.733C217.61 184.955 215.208 186.274 214.017 186.535C210.924 187.213 203.471 187.321 200.643 186.115C199.288 184.604 201.743 179.882 202.756 178.691C204.643 176.475 209.31 171.742 212.044 170.869C216.141 169.561 222.036 169.149 226.418 168.596ZM333.871 159.103C336.5 158.839 339.36 159.083 342.09 159.049C356.37 158.872 354.603 168.383 345.558 175.069C344.301 175.999 339.42 174.426 337.533 174.63C333.58 175.056 328.868 174.523 324.943 175.319L324.565 175.399C323.622 175.615 320.972 175.78 320.44 176.103C312.755 180.763 314.072 182.321 308.35 174.005C309.68 171.326 312.52 165.431 314.297 163.166C317.7 158.829 328.823 159.504 333.871 159.103Z" fill="#4B4746"/>
</g>
<defs>
<clipPath id="clip0_64_3617">
<rect width="480" height="480" fill="white"/>
</clipPath>
</defs>
</svg>
