<svg width="480" height="480" viewBox="0 0 480 480" fill="none" xmlns="http://www.w3.org/2000/svg">
<g clip-path="url(#clip0_64_3490)">
<path fill-rule="evenodd" clip-rule="evenodd" d="M306.73 292.444C307.5 292.434 307.952 292.465 308.512 292.977C309.137 294.808 306.197 298.637 305.007 299.97C300.68 304.82 296.03 309.512 290.56 313.082C289.318 313.892 288.08 313.795 286.825 314.487C284.785 315.732 282.902 317.435 280.794 318.595C274.97 320.797 268.889 323.255 262.807 324.607C258.645 325.47 254.023 324.895 249.88 325.692C246.167 326.41 243.528 325.98 239.865 325.487C237.873 325.22 235.359 325.487 233.422 325.027C228.087 323.76 222.426 321.792 217.219 320.107C212.277 318.41 215.129 314.035 217.732 311.415C219.744 310.5 224.947 313.364 226.503 313.524C233.703 314.259 240.873 316.164 247.995 316.439C251.228 316.562 256.432 317.415 259.222 316.442C264.412 314.627 269.547 313.932 274.642 311.982C276.52 311.27 278.21 309.972 279.945 309.247C285.695 306.85 290.38 303.425 295.334 299.75C298.884 297.23 302.995 294.754 306.73 292.444ZM235.208 235.141C237.201 235.414 237.851 236.792 238.808 238.336C237.925 243.975 239.523 250.76 240.577 256.352C242.607 267.135 242.267 276.985 248.932 286.37C248.16 287.935 247.439 288.8 246.383 290.187L242.083 291.43C240.136 290.794 235.031 288.17 233.325 286.958C229.051 283.713 223.588 280.278 221.283 275.52C224.814 266.593 225.367 263.68 234.258 271.077C234.218 268.502 233.706 267.175 233.602 264.923C233.454 261.708 233.553 259.078 233.258 255.758C232.849 251.133 231.813 245.681 232.313 241.106C232.507 239.336 234.212 236.633 235.208 235.141ZM194.079 233.354C200.605 233.697 217.278 237.481 213.287 248.998C211.951 252.847 199.988 245.704 197.429 243.59C198.98 254.836 200.033 274.018 188.425 280.355C184.412 280.145 184.476 280.1 181.847 276.892C181.276 276.42 180.64 275.783 180.093 275.266C178.863 267.621 178.987 260.625 180.092 253.01C180.236 252.022 180.496 248.866 180.804 248.1C181.617 246.077 183.13 244.129 183.952 241.993L183.789 241.655C179.885 241.608 172.85 245.222 168.858 246.571C168.427 246.717 166.857 248.106 166.417 248.494C165.084 248.521 163.017 248.965 162.435 247.741C162.588 246.131 165.076 242.079 166.292 241.139C167.092 240.52 174.562 236.054 175.308 235.89C181.302 234.567 187.986 233.613 194.079 233.354ZM290.9 231.597C296.155 230.979 305.15 232.072 310.215 233.427C315.7 234.894 316.303 237.105 318.85 241.659C317.96 243.982 317.42 244.682 315.892 246.517C315.166 246.114 310.12 244.566 308.94 244.1C305.162 242.607 301.305 241.145 297.472 239.8C297.382 240.196 297.345 240.108 297.425 240.426C299.985 250.475 303.982 270.57 292.905 277.017C279.163 278.627 278.455 256.675 279.94 247.68C280.325 245.345 282.683 241.75 283.483 239.129C282.568 239.818 281.241 241.38 280.5 241.503L279.775 240.849C278.202 240.929 272.615 243.545 269.445 243.761C268.482 244.747 268.05 245.5 266.583 245.439C264.655 244.193 266.135 241.501 267.233 240.165C272.483 233.766 283.263 232.479 290.9 231.597ZM97.935 230.62C98.6493 230.587 100.666 231.349 101.544 231.598C110.961 234.265 120.286 238.214 128.377 243.763C130.29 245.074 129.485 246.064 129.881 248.889C128.5 251.192 126.749 254.182 124.654 255.837C119.795 256.222 115.65 261.542 110.201 260.612C109.847 260.68 109.493 260.747 109.139 260.812C107.188 261.165 102.825 262.125 101.211 261.008C99.9562 256.853 112.389 251.425 115.248 249.802L115.291 249.423C113.559 246.512 98.9111 240.756 95.0024 239.439C91.145 238.141 93.5441 235.845 95.0581 233.646C95.7625 232.623 96.9009 231.337 97.935 230.62ZM371.24 231.448C377.307 235.831 358.718 246.781 362.703 248.391C369.285 251.05 377.705 248.855 383.882 253.86L384.167 254.095C381.505 259.772 377.98 259.28 372.243 260.059C370.493 260.424 365.632 259.338 363.592 259.008C360.42 258.493 352.267 258.392 350.195 255.269C346.705 250.012 358.333 242.528 361.23 239.973C364.987 236.657 367.507 233.948 371.24 231.448ZM192.705 210.357C197.516 210.202 207.468 212.3 209.912 217.233C212.723 222.912 205.606 222.556 201.875 220.76C196.575 222.48 188.957 220.545 183.701 220.358C180.874 220.258 172.05 221.22 169.564 221.944C166.761 222.496 154.811 226.702 153.094 224.942C152.875 218.074 164.259 214.683 169.45 212.976C171.254 212.499 173.515 212.559 175.29 212.118C181.043 210.69 186.76 210.915 192.705 210.357ZM292.828 204.095C299.68 203.575 312.402 204.564 318.53 207.6C320.812 208.731 326.288 211.825 327.033 214.392C327.253 215.148 327.08 215.893 326.66 216.539C323.792 220.95 320 216.544 317.858 216.187C317.64 216.151 316.937 216.355 316.712 216.413C314.11 217.082 307.312 214.949 303.83 214.61C299.465 214.186 294.967 214.497 290.658 213.894C285.663 212.957 271.719 215.6 266.209 216.852C263.965 217.454 261.79 218.637 259.573 219.267C258.398 219.601 256.732 219.991 256.312 218.642C258.067 208.203 276.885 205.225 285.395 204.821C288.085 204.693 290.14 204.594 292.828 204.095Z" fill="#4B4746"/>
</g>
<defs>
<clipPath id="clip0_64_3490">
<rect width="480" height="480" fill="white"/>
</clipPath>
</defs>
</svg>
