<svg width="480" height="480" viewBox="0 0 480 480" fill="none" xmlns="http://www.w3.org/2000/svg">
<g clip-path="url(#clip0_64_3102)">
<path fill-rule="evenodd" clip-rule="evenodd" d="M272 304.15C274.442 305.193 274.045 306.365 273.79 308.508C272.627 318.198 266.205 323.068 259.203 328.888C258.541 329.44 256.907 329.653 256.057 330.245C254.555 331.29 253.145 333.125 251.388 333.785C243.674 335.763 229.322 338.555 222.398 333.533C219.581 331.456 217.596 329.425 220.038 325.78C223.11 324.123 231.436 327.79 235.936 327.44C245.587 326.6 256.55 322.423 263.357 315.405C266.56 312.103 268.947 307.455 272 304.15ZM200.023 222.156C203.35 224.21 201.492 227.811 200.921 230.903C200.342 234.033 198.786 237.224 197.963 240.284C194.063 254.788 188.786 269.625 188.882 284.8C188.9 287.63 190.773 288.995 192.718 290.662C197.414 291.1 202.249 290.952 206.853 291.435C208.77 291.635 213.764 293.648 212.65 296.303C211.439 299.188 208.677 301.267 205.881 302.607C200.387 303.73 198.374 303.417 192.981 303.202C178.845 302.642 180.788 284.902 182.18 275.237C182.869 270.447 182.635 268.268 184.902 263.598C185.577 262.208 184.895 257.41 186.586 255.647C188.488 251.915 189.062 245.355 191.099 241.261C193.508 234.829 194.58 226.885 200.023 222.156ZM230.498 235.15C235.984 234.381 250.734 234.442 255.117 236.624C256.107 236.496 259.05 236.038 259.96 236.158C264.975 236.895 269.957 238.304 274.527 240.609C277.077 241.895 281.322 245.228 279.42 248.66C278.527 250.272 275.797 249.153 274.09 249.393L273.894 249.92C274.622 258.64 271.227 270.157 265.872 277.137C262.422 281.632 254.195 286.985 248.561 287.397C242.259 288.16 243.277 288.107 237.376 285.85C226.88 284.3 225.005 277.969 224.9 268.489C224.524 263.037 226.781 257.852 228.885 252.952C229.482 251.56 233.588 245.795 233.078 244.678C230.962 243.627 226.987 244.482 225.536 242.5C225.135 240.667 229.264 235.324 230.498 235.15ZM354.65 250.586C355.245 250.531 356.919 250.338 356.987 251.223C357.592 258.945 348.035 264.725 345.135 271.803C346.035 272.995 357.48 269.725 358.605 271.45C362.498 277.418 343.612 281.991 341.392 282.391C339.44 282.171 336.957 282.523 335.272 282.075C330.68 280.348 332.403 278.678 333.243 275.815C334.486 271.57 342.667 265.48 343.397 262.495C342.834 260.861 337.28 262.065 334.463 260.221C333.323 258.343 337.165 253.943 338.69 252.793C342.21 252.59 346.338 251.521 349.98 251.398C351.078 251.363 353.32 250.751 354.65 250.586ZM141.572 225.177C143.115 224.988 145.247 225.355 146.918 225.527C154.701 226.331 163.806 227.043 171.181 229.61C174.197 230.661 179.226 233.602 182.135 235.241C180.611 237.488 180.037 238.369 177.77 239.82C177.761 250.007 175.045 260.306 167.765 267.913C166.291 269.453 161.039 273.775 158.966 274.29C157.099 274.752 156.552 274.227 153.973 275.42C150.59 274.715 149.076 274.238 145.932 272.82C142.8 272.02 138.515 268.545 137.636 265.418C135.884 259.196 135.571 251.873 137.642 245.69C138.855 242.071 140.857 238.757 142.418 235.288C140.959 234.768 139.128 234.127 138.173 232.842C136.254 230.259 139.307 226.463 141.572 225.177ZM251.628 191.044C253.073 191.016 254.607 191.414 255.987 191.394C262.48 191.299 268.857 192.127 275.3 192.838C280.002 193.45 283.032 192.846 286.777 196.116C291.207 199.981 293.12 200.735 287.91 205.512C285.53 207.695 284.59 209.446 281.232 210.791C277.482 212.196 279.21 207.554 274.08 210.242C271.2 209.501 265.555 208.761 262.48 208.241C260.07 208.067 257.52 208.247 255.125 208.024C253.25 207.85 251.238 207.138 249.349 206.842C247.934 206.564 245.685 206.409 244.344 206.019C242.064 205.355 243.259 199.403 244.131 198.043C245.831 195.388 248.656 192.007 251.628 191.044ZM144.595 183.774C146.462 183.801 149.057 184.506 150.832 184.336C157.258 183.72 162.34 184.646 168.54 185.993C172.374 186.826 177.262 185.658 181.049 187.91C182.822 188.965 183.231 190.981 183.724 192.771L183.525 193.144C182.21 195.667 179.214 198.968 177.457 201.36C176.999 201.985 176.751 202.031 176.16 202.066C174.371 202.143 172.478 201.657 170.625 201.6C167.764 201.387 164.873 202.036 162.03 201.434C154.919 199.927 147.401 200.929 140.404 199.644C138.155 199.23 135.469 196.129 136.559 193.702C138.011 190.473 141.354 185.424 144.595 183.774Z" fill="#4B4746"/>
<path d="M255.478 247.305C257.582 247.054 260.525 246.976 262.745 247.533C262.993 247.595 262.963 248.243 263.76 248.332L264.15 247.344L264.628 247.182C265.4 247.621 265.593 248.256 266.105 249.108C267.038 249.393 267.495 247.998 268.21 248.343C269.517 248.974 269.675 249.632 271.298 249.354C272.462 248.62 271.746 247.801 272.748 247.271C273.46 247.793 273.666 249.022 273.896 249.92C274.623 258.64 271.228 270.158 265.873 277.138C262.423 281.633 254.195 286.985 248.562 287.397C242.259 288.16 243.278 288.107 237.377 285.85L237.394 285.683C244.247 284.22 246.888 278.495 249.856 272.772C254.115 264.565 254.597 254.042 253.21 245.022L255.478 247.305ZM162.465 238.221C164.554 238.288 165.939 238.46 167.922 239.043C168.146 239.108 170.546 238.371 171.498 238.443C173.484 240.414 175.855 236.306 177.771 239.82C177.761 250.007 175.045 260.305 167.765 267.912C166.291 269.452 161.039 273.775 158.966 274.29C157.1 274.752 156.553 274.228 153.974 275.42C150.591 274.715 149.077 274.238 145.932 272.82C148.233 270.865 149.678 271.757 152.736 268.725C158.985 262.527 162.627 247.029 162.465 238.221Z" fill="#FEFEFE"/>
</g>
<defs>
<clipPath id="clip0_64_3102">
<rect width="480" height="480" fill="white"/>
</clipPath>
</defs>
</svg>
