<svg width="480" height="480" viewBox="0 0 480 480" fill="none" xmlns="http://www.w3.org/2000/svg">
<g clip-path="url(#clip0_64_3627)">
<path fill-rule="evenodd" clip-rule="evenodd" d="M214.144 278.935C214.786 278.91 215.627 278.88 215.925 279.435C217.085 281.59 217.614 284.098 218.527 286.373C220.381 291.078 223.089 294.948 226.748 298.355C230.637 301.975 232.519 302.663 237.587 304.005C241.664 305.083 247.068 307.12 250.535 309.557L250.833 309.767C250.318 313.647 250.062 313.645 246.517 314.993C244.545 314.96 242.469 315.156 240.518 315.443C225.69 317.633 202.006 292.408 214.144 278.935ZM147.902 282.863C148.533 282.888 148.349 282.892 148.973 283.16C150.759 285.482 148.399 292.043 146.544 293.97C145.137 295.43 143.598 296.761 142.245 298.318L142.268 298.62C144.293 300.12 151.235 299.563 153.118 300.413C154.38 302.135 152.873 304.96 151.211 305.87C146.228 308.6 134.241 311.778 128.609 310.703C125.845 307.908 128.529 302.22 130.591 299.682C131.558 298.489 135.924 294.783 135.745 293.725C132.831 292.88 123.475 297.6 124.314 290.145L124.628 287.307C129.332 284.732 135.048 285.011 140.295 284.171C142.854 283.758 145.402 283.235 147.902 282.863ZM296.264 212.413C300.692 212.941 303.118 223.222 304.98 226.626C309.618 235.102 311.187 244.494 314.742 253.42C316.199 257.079 316.652 261.687 316.969 265.612C317.494 272.114 317.632 279.02 315.562 285.29C314.382 288.767 311.989 292.172 310.327 295.517C310.242 295.53 310.16 295.543 310.075 295.555L309.657 295.625C306.92 296.067 306.137 296.825 303.875 298.413C302.137 297.985 301.344 298.315 299.634 298.46C296.904 298.692 291.492 298.194 288.977 297.134C286.055 295.732 285.309 295.747 283.009 293.339C283.152 292.287 283.425 291.073 283.633 290.015C289.395 283.835 297.953 285.443 305.333 285.243C306.388 285.215 307.445 284.982 308.112 284.142C311.784 279.53 308.83 269.29 307.267 264.265C306.202 260.478 306.252 255.698 304.8 252.06C302.192 245.53 299.685 238.94 297.192 232.376C295.042 226.712 292.91 224.223 292.362 217.864C293.487 215.338 294.35 214.454 296.264 212.413ZM242.539 221.45C249.352 218.471 260.955 218.531 267.505 222.852C269.385 224.107 270.932 225.802 272.012 227.789C271.875 229.117 271.467 232.316 271.772 233.543C272.217 235.317 273.533 237.343 273.565 239.299C273.59 240.79 272.785 242.813 272.602 244.261C271.717 251.268 268.614 259.898 263.242 264.733C261.552 266.256 256.847 268.675 254.49 268.408C252.758 268.21 251.08 267.673 249.127 267.775C243.737 268.65 239.291 270.683 233.503 268.413C222.822 264.225 218.137 252.471 221.853 241.762C221.164 241.881 214.854 244.988 214.367 242.755C214.003 241.088 215.981 236.934 216.885 235.382C220.084 230.109 226.201 228.536 231.059 225.53C235.145 223.003 238.649 223.15 242.539 221.45ZM346.085 211.434C350.567 212.583 357.055 211.835 360.945 212.71C366.182 214.508 366.372 220.213 367.13 224.155C368.565 231.624 367.792 239.058 364.24 245.838C360.195 253.553 356.457 258.7 347.842 261.118C342.177 262.705 343.01 259.063 340.54 258.435L339.777 258.903C337.157 259.513 334.088 258.626 331.663 257.661C320.578 253.253 318.933 238.49 322.905 228.69C320.442 227.956 318.895 231.716 317.107 230.035C316.012 229.003 316.105 226.811 315.878 225.335C319.293 217.077 323.037 214.852 332.182 213.124C336.415 212.324 341.68 211.335 346.085 211.434ZM225.4 179.59C229.381 179.091 237.295 179.875 241.479 180.454C256.63 182.549 253.417 186.243 246.51 194.887C240.168 196.542 233.527 194.81 226.68 194.131C222.803 194.813 218.775 194.841 214.837 194.988C210.928 195.134 203.623 196.941 200.211 194.74C197.994 191.647 203.166 183.371 205.958 182.036C210.103 180.053 216.989 179.89 221.563 179.828C222.976 179.809 223.916 179.864 225.4 179.59ZM332.397 176.109C334.325 175.697 338.227 176.555 340.285 176.554C344.5 176.541 349.07 176.024 353.187 177.127C355.797 177.804 357.413 180.051 356.368 182.683C354.713 186.846 349.7 191.039 345.18 191.446C343.395 191.606 341.36 191.221 339.605 191.285C337.33 191.367 337.07 191.817 334.812 191.073C333.39 190.784 331.823 191.253 330.555 191.065C326.498 190.466 320.665 191.114 316.892 190.502C315.537 190.284 314.23 189.835 313.028 189.174C307.693 186.266 313.687 182.324 316.057 180.125C319.727 176.718 321.66 176.115 326.602 176.543C327.882 176.654 331.002 176.249 332.397 176.109Z" fill="#4B4746"/>
<path fill-rule="evenodd" clip-rule="evenodd" d="M223.202 240.234C226.409 238.23 239.951 232.258 243.634 232.985C243.984 233.054 244.256 233.208 244.553 233.398C245.411 235.015 242.423 239.233 242.206 241.395C241.513 248.299 242.228 256.54 244.543 263.095C245.263 265.132 247.532 266.525 249.126 267.775C243.736 268.65 239.291 270.682 233.503 268.412C222.822 264.225 218.137 252.47 221.853 241.762C222.043 240.965 222.528 240.655 223.202 240.234ZM339.973 224.861C340.908 225.481 341.985 226.157 342.88 226.812C340.21 230.144 340.14 231.904 339.072 235.634C336.84 243.435 337.415 250.083 340.64 257.412C340.705 257.557 339.907 258.67 339.777 258.902C337.157 259.512 334.087 258.625 331.662 257.66C320.577 253.253 318.933 238.49 322.905 228.69C323.083 228.157 323.22 227.521 323.893 227.318C329.173 225.726 334.58 224.848 339.973 224.861Z" fill="#FEFEFE"/>
</g>
<defs>
<clipPath id="clip0_64_3627">
<rect width="480" height="480" fill="white"/>
</clipPath>
</defs>
</svg>
