<svg width="480" height="480" viewBox="0 0 480 480" fill="none" xmlns="http://www.w3.org/2000/svg">
<g clip-path="url(#clip0_64_3394)">
<path fill-rule="evenodd" clip-rule="evenodd" d="M284.537 315.008C286.549 315.44 287.163 316.828 286.918 318.727C286.433 322.517 282.97 328.385 280.213 330.928C276.953 333.935 270.15 336.288 266.008 337.838C263.785 338.668 261.355 338.668 259.655 340.32C259.208 340.73 255.276 339.313 254.258 339.003C253.003 338.728 250.817 338.485 250.345 337.185C249.77 335.595 251.37 329.408 253.105 328.895C255.823 328.093 259.198 327.68 262.022 327.078C264.08 326.655 266.055 326.006 268.058 325.363C273.425 324.021 280.102 316.438 284.537 315.008ZM229.891 222.854C230.817 223.182 232.475 224.492 232.65 225.552C233.044 227.933 231.595 233.061 231.272 235.696C230.864 239.034 230.738 242.395 230.412 245.741C229.461 255.515 226.985 275.633 232.255 283.846C240.627 296.893 252.407 281.385 257.482 282.932C257.855 283.045 257.85 283.217 258.018 283.527C258.088 289.525 256.11 291.132 252.76 295.875C250.47 297.775 247.514 299.713 245.057 301.493L244.331 301.065C243.447 300.978 241.729 301.557 240.792 301.817C235.807 300.275 233.513 301.01 229.401 296.703C224.605 292.005 223.31 287.635 222.19 281.275C221.371 276.625 221.134 274.27 221.937 269.527C221.993 269.19 221.678 266.21 221.593 265.74C220.973 262.32 221.637 259.13 221.883 255.722C221.957 249.845 222.763 245.033 223.945 239.265C225.152 233.381 225.204 227.317 229.891 222.854ZM191.86 249.561C193.659 249.529 196.854 251.908 196.962 253.65C197.477 261.998 199.262 271.778 197.849 279.99C197.434 282.398 194.579 286.96 193.409 288.985C191.983 289.12 190.416 289.063 188.974 289.046C188.665 289.006 188.188 288.866 187.871 288.783C185.729 286.948 185.383 282.655 184.788 279.928C184.33 277.825 181.924 271.003 182.339 269.133C183.443 264.158 184.225 258.175 186.479 253.613C187.644 251.256 189.483 250.245 191.86 249.561ZM291.045 247.292C292.087 247.127 293.875 247.084 294.915 247.296C296.582 247.635 297.232 249.343 298.064 250.647C302.004 256.807 302.185 267.81 300.263 274.618C299.415 277.621 297.757 282.421 295.505 284.846C295.154 285.221 292.712 286.595 292.1 286.945C291.172 287.443 290.7 287.347 289.68 287.085C287.305 286.487 285.272 284.958 284.045 282.841C282.265 279.721 281.92 269.278 282.353 265.61C283.093 259.36 285.145 250.637 291.045 247.292ZM100.883 237.303C101.71 237.32 106.97 238.096 107.745 238.28C114.33 239.809 122.034 248.282 123.496 254.767C125.613 264.155 119.355 273.137 110.351 275.817C108.181 276.464 105.786 274.712 104.157 273.682L102.345 272.267C98.5825 263.18 102.506 256.863 109.67 251.355C107.034 249.38 104.001 247.895 101.082 246.347C99.91 246.541 97.9128 246.82 96.8164 247.205C95.9039 247.525 93.286 249.835 92.3477 249.715C91.5435 248.335 91.3208 247.97 90.0596 246.931C92.4433 240.555 94.0281 238.592 100.883 237.303ZM370.803 235.296C374.497 236.318 375.37 237.154 378.383 239.374C378.013 241.338 378.297 243.59 377.497 245.236C375.217 246.39 366.602 240.747 362.55 248.716C363.204 251.239 365.279 250.019 367.608 250.424L367.835 250.468L368.309 250.57C373.082 251.652 374.104 253.366 374.053 258.187C374.033 260.032 374.548 260.875 373.978 262.843C372.63 267.485 368.727 272.05 364.037 273.503C361.947 274.155 359.68 273.945 357.747 272.915C355.297 271.597 353.98 268.965 353.285 266.362C351.26 258.795 352.015 253.13 355.952 246.248C358.322 241.984 360.745 239.754 365.072 237.625C367.207 236.575 368.715 236.178 370.803 235.296ZM115.732 259.868C115.265 259.49 115.002 259.148 114.325 259.28C112.182 259.923 109.342 260.708 108.104 262.687C107.884 264.525 109.202 264.93 110.695 265.75C111.658 266.165 112.626 266.565 113.6 266.953C115.004 266.228 115.491 266.113 115.911 264.618C116.357 263.036 116.468 261.385 115.732 259.868ZM367.812 262.017C366.915 259.717 361.107 259.955 358.975 260.123C358.72 261.06 358.75 261.025 358.907 262.005C360.35 264.362 364.095 264.27 366.348 263.213C367.432 262.65 367.4 262.892 367.812 262.017ZM359.9 251.36C359.886 251.41 359.872 251.462 359.859 251.515H359.86C359.873 251.462 359.887 251.41 359.901 251.36H359.9ZM360.674 250.189C360.554 250.288 360.44 250.397 360.336 250.522C360.44 250.397 360.554 250.288 360.674 250.189ZM192.951 212.326C196.784 212.099 205.769 212.02 205.353 217.866C203.415 221.247 193.181 223.272 189.267 224.084C185.543 224.856 181.528 224.436 177.568 226.032C176.498 226.463 174.26 226.519 172.497 227.186L172.061 227.353C171.434 227.552 170.806 227.747 170.177 227.936C168.944 228.306 160.07 230.534 160.419 227.954C161.481 220.119 171.046 217.441 177.493 215.708C179.291 215.224 181.473 215.168 183.305 214.734C186.802 213.677 189.601 212.947 192.951 212.326ZM282.567 209.577C285.595 210.394 289.17 209.571 292.33 209.854C294.543 210.053 297.333 210.016 299.482 210.426C301.852 210.877 304.262 211.624 306.672 212.112C309.094 212.603 311.667 213.096 314.01 213.844C317.782 215.049 318.162 216.727 319.774 220.011C317.967 225.359 318.432 223.809 313.442 224.96C309.417 226.56 305.874 223.007 303.274 222.99C296.317 222.945 290.807 220.841 284.077 219.446C281.572 218.927 277.087 221.235 275.232 218.222C275.032 217.241 275.237 216.435 275.752 215.569C277.819 212.097 278.365 210.786 282.143 209.527C282.42 209.515 282.28 209.5 282.567 209.577Z" fill="#4B4746"/>
</g>
<defs>
<clipPath id="clip0_64_3394">
<rect width="480" height="480" fill="white"/>
</clipPath>
</defs>
</svg>
