<svg width="480" height="480" viewBox="0 0 480 480" fill="none" xmlns="http://www.w3.org/2000/svg">
<g clip-path="url(#clip0_64_3860)">
<path d="M203.697 325.5C204.668 325.365 206.495 325.848 207.621 325.945C216.738 326.735 225.946 328.055 234.735 330.617C236.016 330.99 238.566 333.625 239.629 334.67C239.124 335.71 238.538 337.3 238.093 338.415C236.798 339.108 235.815 339.45 234.441 339.957C234.175 340.052 233.905 340.14 233.633 340.218C227.559 341.903 209.566 336.44 202.597 336.053C201.9 336.015 199.869 335.372 199.199 334.992C197.775 332.46 201.474 326.968 203.697 325.5ZM333.18 287.348C336.562 286.735 339.455 291.947 340.742 294.465C337.677 303.477 335.022 299.305 328.603 297.133C324.38 298.448 322.355 300.74 319.723 304.282C320.8 304.222 322.015 304.165 323.09 304.2C326.727 304.36 330.153 305.955 332.615 308.635C337.425 313.92 335.852 320.105 332.912 325.775C332.317 326.923 331.655 327.84 330.683 328.7C327.58 330.918 324.14 332.62 320.495 333.742C314.845 332.132 309.167 329.672 308.987 323.015C309.337 320.947 308.53 314.885 309.022 313.18C312.382 301.507 320.612 288.735 333.18 287.348ZM326.258 315.772C323.11 315.61 322.425 314.62 319.21 315.11C317.742 315.548 315.15 316.385 316.56 318.63C318.79 322.182 321.945 322.33 325.675 322.19C327.302 321.623 327.722 320.473 328.59 318.963C327.845 317.538 327.325 316.977 326.258 315.772ZM208.551 186.757C209.122 186.899 209.251 186.958 209.801 187.172C211.335 189.299 208.381 194.01 207.263 196.215C203.605 203.426 200.502 210.513 197.458 217.988C195.01 224.001 192.727 229.052 191.243 235.464C190.606 238.216 188.955 241.344 188.294 244.173C186.481 253.192 182.639 264.88 188.522 273.112C190.984 276.405 199.327 278.763 203.3 279.288C207.901 279.893 209.945 278.675 214.287 281.58C214.514 282.33 214.883 283.162 215.187 283.897C214.479 288.317 213.77 291.382 209.338 293.317C208.845 293.477 207.42 293.867 206.919 293.745C202.882 292.515 196.704 292.435 193.024 290.652C187.242 287.852 181.627 285.595 179.319 279.14C177.348 273.625 177.866 270.827 178.261 265.38C179.125 254.717 181.233 244.193 184.541 234.021C185.488 231.186 186.806 228.455 187.752 225.638C191.372 214.856 196.391 204.574 201.466 194.419C202.958 191.432 205.348 188.044 208.551 186.757ZM237.748 224.701C238.975 224.841 239.842 225.527 241.006 225.81C242.663 226.212 244.964 226.355 246.565 226.795C249.091 227.49 251.815 228.471 254.32 229.305C260.37 231.319 268.902 232.792 273.857 236.654C273.662 238.176 273.595 238.85 272.675 240.093C271.105 242.2 268.733 243.563 266.123 243.858C262.846 244.22 259.56 243.263 256.99 241.198C256.875 245.848 256.123 250.105 255.058 254.593C252.448 261.17 250.747 263.934 243.729 265.877C242.528 265.487 241.38 264.935 240.225 264.42C237.962 258.735 236.743 255.28 238.193 249.122C239.157 245.029 239.611 241.467 241.802 237.718C240.454 236.755 239.907 236.307 238.317 235.686C235.915 234.746 232.637 235.461 231.011 233.502C230.044 230.553 235.164 225.747 237.748 224.701ZM149.16 213.516C153.111 213.112 170.059 217.149 173.734 219.268C173.859 224.207 173.725 225.618 169.216 228.115C167.234 227.833 165.975 227.792 163.958 227.748C164.88 233.238 162.785 239.132 159.676 243.618C158.334 245.603 155.98 248.992 153.647 249.577C147.046 251.232 147.665 245.922 147.924 241.72C148.336 235.019 149.164 230.075 152.451 224.159C148.931 223.632 147.418 223.045 144.479 221.003C145.621 218.42 146.821 215.191 149.16 213.516ZM249.544 201.465C250.36 201.49 262.278 203.423 263.188 203.76C268.54 205.743 277.228 206.951 281.848 210.096C282.53 210.561 283.81 212.802 284.295 213.608C283.217 215.519 281.617 218.864 279.88 219.989C275.493 222.25 270.923 218.067 266.525 217.003C261.733 215.844 257.087 214.448 252.479 212.622C250.497 211.836 245.184 211.52 245.764 208.391C246.25 206.324 247.801 202.671 249.544 201.465ZM155.591 184.226C161.792 184.343 167.57 186.287 173.399 187.939C179.558 189.685 182.372 191.197 186.689 195.84C185.96 196.942 184.723 198.478 183.896 199.611C183.053 199.743 181.931 199.832 181.059 199.929C179.833 199.939 175.672 200.714 175.122 200.515C170.928 198.998 152.568 193.909 151.213 190.749C151.726 188.807 154.262 185.916 155.591 184.226Z" fill="#4B4746"/>
</g>
<defs>
<clipPath id="clip0_64_3860">
<rect width="480" height="480" fill="white"/>
</clipPath>
</defs>
</svg>
