<svg width="480" height="480" viewBox="0 0 480 480" fill="none" xmlns="http://www.w3.org/2000/svg">
<g clip-path="url(#clip0_64_3450)">
<path fill-rule="evenodd" clip-rule="evenodd" d="M289.527 313.468C289.74 313.558 290.232 313.908 290.452 314.053C292.755 318.098 285.435 324.658 283.26 327.335C277.177 334.823 265.495 337.093 256.348 335.988C254.18 335.725 250.617 334.363 248.364 333.698C246.036 332.285 245.797 330.835 245.845 328.42C246.44 322.383 247.926 323.961 252.04 324.973C257.65 326.356 264.742 325.898 270.045 323.573C273.39 322.105 276.687 321.268 279.545 319.228C283.15 316.658 285.67 315.223 289.527 313.468ZM230.344 219.531C231.031 220.162 231.471 221.35 231.881 222.234C231.407 223.667 231.261 225.118 230.961 226.607C228.747 237.609 226.784 248.736 225.221 259.853C224.871 262.343 224.861 265.978 224.92 268.502C225.069 274.965 224.892 282.853 228.701 288.35C229.506 289.643 233.918 292.512 235.363 292.485C243.922 292.327 251.355 290.957 260.088 291.695C259.838 294.075 259.852 295.52 257.79 297.155C255.88 298.667 253.845 300.226 251.758 301.478C247.052 304.463 242.276 305.673 236.65 305.465C232.349 304.92 226.304 301.902 223.699 298.557C216.55 289.377 216.554 279.22 217.896 268.16C218.151 266.049 218.224 259.365 218.633 257.797C220.991 248.771 222.263 225.167 229.623 219.42L230.344 219.531ZM171.544 228.428C179.753 225.883 187.732 226.682 196.103 226.769C205.258 226.864 204.507 226.967 209.658 234.475C209.23 236.565 209.229 238.23 207.499 239.423C206.057 239.857 206.044 238.884 204.728 239.283C204.321 240.045 204.273 240.052 204.134 240.938C206.394 248.048 203.377 263.348 200.458 270.465C196.182 280.89 179.991 285.96 169.828 281.653C164.194 281 160.496 279.516 156.906 274.803C153.929 270.896 155.982 265.068 153.989 260.518C153.314 258.976 153.862 255.106 154.118 253.371C155.37 244.907 157.367 235.683 164.661 230.273C166.678 228.772 169.193 228.893 171.544 228.428ZM289.513 221.902C296.543 221.926 304.472 221.636 311.175 223.805C312.462 224.447 316.438 228.071 316.518 229.366C316.72 232.583 314.41 234.049 311.808 234.572L313.067 236.946C312.755 246.967 312.8 255.978 307.777 265.228C306.305 267.941 304.818 271.628 302.393 273.696C297.493 277.878 283.925 282.178 278.43 277.491C277.387 277.906 277.417 278.59 275.877 279.095C271.704 278.847 264.412 272.838 264.22 268.303C264.05 264.303 260.535 261.706 259.755 258.366C258.57 253.298 259.163 245.373 260.625 240.253C261.11 238.532 263.075 235.305 263.143 233.792C262.798 233.48 262.215 233.072 262.29 232.696C262.655 230.876 265.357 227.446 266.55 226.136C271.64 224.395 275.735 223.54 281.067 223.227C283.59 223.079 286.928 221.893 289.513 221.902ZM95.0391 232.362C98.8151 234.936 101.206 238.571 104.066 242.011C107.704 246.385 112.602 250.595 115.658 255.355L115.438 256.368C114.87 259.088 113.35 262.613 111.495 264.755C110.601 265.788 108.387 265.523 106.972 265.515C108.214 268.418 110.76 272.286 111.636 274.718C111.117 276.121 109.689 277.478 108.644 278.648L106.686 276.685C103.442 276.34 102.483 275.4 99.8203 273.715C98.9326 273.115 97.8168 272.738 96.9463 272.118C92.3693 268.85 86.314 264.705 80.9785 262.85C85.1554 253.548 85.4105 250.458 96.6494 253.248C98.0746 253.603 99.544 253.918 101.001 254.35C100.317 253.265 99.1728 250.223 98.5918 249.621C95.4913 246.399 93.4739 243.659 91.0967 239.877C91.8932 237.321 93.3952 234.478 95.0391 232.362ZM386.197 239.506C387.182 239.684 387.315 239.758 387.853 240.395C388.118 247.421 383.634 249.907 379.729 254.853C378.687 256.173 376.362 259.05 375.895 260.623C377.075 261.44 381.783 259.538 383.603 259.488C386.125 259.42 388.63 259.508 391.143 259.47C390.928 263.698 391.26 263.488 387.457 265.501C383.055 267.833 378.757 268.733 373.947 269.77C371.795 270.235 369.523 270.703 367.575 271.741C365.583 272.313 366.425 270.528 363.64 273.013C363.117 272.803 362.6 272.581 362.085 272.348C357.637 270.293 360.728 265.403 362.9 262.808C364.745 260.603 373.977 253.665 373.145 251.033C371.412 250.411 367.447 252.807 365.375 250.667C364.918 248.813 368.61 243.578 369.74 243.272C375.253 241.781 380.632 241.202 386.197 239.506ZM194.216 190.099C198.709 189.856 202.878 191.151 204.289 195.882C204.185 197.313 197.101 206.437 195.07 207.304C195.04 207.317 192.013 206.095 191.604 206.158C186.827 206.894 177.312 205 173.307 206.884L172.968 207.045C170.674 206.035 169.437 205.94 167.037 206.22C164.62 206.877 159.219 206.883 156.892 205.245C151.834 201.684 155.178 193.391 160.493 192.251C167.103 190.834 174.977 191.331 181.912 190.577C185.5 190.186 190.254 190.4 194.216 190.099ZM301.172 185.393C303.274 185.134 306.188 185.328 308.375 185.31C311.667 185.284 315.79 185.063 318.52 187.159C321.307 189.3 320.267 192.676 318.107 194.849C316.262 196.668 314.33 198.915 311.897 199.962C308.493 201.427 304.695 200.883 301.125 200.944C297.015 201.014 292.912 201.184 288.812 201.33C284.372 201.323 273.452 202.668 270.272 198.956C266.603 194.671 277.06 188.667 279.537 186.492C284.719 185.496 289.96 186.332 295.207 185.689C297.089 185.459 299.247 185.479 301.172 185.393Z" fill="#4B4746"/>
<path fill-rule="evenodd" clip-rule="evenodd" d="M194.091 240.117C194.65 240.083 199.709 241.818 200.033 241.688C201.332 241.164 202.447 240.904 203.761 240.637L204.134 240.938C206.394 248.048 203.377 263.347 200.458 270.465C196.182 280.89 179.99 285.96 169.827 281.652C170.397 280.565 171.398 280.69 171.854 280.013C173.961 276.888 178.486 273.097 180.282 270.005C183.845 263.872 185.269 255.333 185.335 248.296C185.357 245.926 184.535 242.64 184.009 240.278C187.313 240.235 190.702 240.325 194.091 240.117ZM313.067 236.945C312.755 246.966 312.8 255.978 307.777 265.228C306.305 267.94 304.818 271.628 302.393 273.695C297.493 277.878 283.926 282.177 278.431 277.49C279.928 276.505 281.943 272.717 282.875 271.1C287.187 263.58 289.218 254.32 288.436 245.687C288.151 242.553 287.176 238.848 286.578 235.695C288.353 235.18 289.68 234.297 290.55 236.232L291.075 236.275C292.747 233.668 293.16 236.422 295.095 236.301C297.095 234.577 297.943 235.464 300.05 236.521C301.082 236.346 302.108 236.138 303.125 235.896C305.31 236.691 309.561 238.285 311.601 236.798C312.008 236.083 311.855 235.422 311.808 234.571L313.067 236.945Z" fill="#FEFEFE"/>
</g>
<defs>
<clipPath id="clip0_64_3450">
<rect width="480" height="480" fill="white"/>
</clipPath>
</defs>
</svg>
