<svg width="480" height="480" viewBox="0 0 480 480" fill="none" xmlns="http://www.w3.org/2000/svg">
<g clip-path="url(#clip0_64_3663)">
<path fill-rule="evenodd" clip-rule="evenodd" d="M222.472 276.11C226.093 276.645 230.919 283.818 233.56 286.173C234.536 286.933 236.191 287.417 237.159 288.082C243.909 292.702 251.835 295.46 259.577 297.933C262.507 298.983 265.597 298.788 268.582 299.138C276.185 300.028 283.503 298.71 291.103 298.68C293.318 298.672 295.88 297.383 298.065 297.848C298.437 297.928 298.483 298.238 298.658 298.563C298.618 299.485 298.069 300.18 297.579 300.985C295.815 301.508 293.897 302.793 292.065 303.652C285.537 306.662 281.63 308.277 274.318 308.8C272.233 308.95 270.33 309.38 268.145 309.09C264.982 308.667 261.897 307.893 258.802 307.15C257.31 306.791 255.71 306.905 254.242 306.475C244.753 303.687 235.972 299.365 228.347 293.03C226.477 291.478 224.655 290.293 222.993 288.438C221.424 286.683 220.734 285.383 219.598 283.316C220.147 280.246 220.872 278.73 222.472 276.11ZM154.861 272.41C156.002 272.228 156.941 271.968 157.955 272.45C163.368 277.76 143.422 295.119 139.531 298.188C138.812 298.755 137.276 299.313 136.539 298.468C136.187 294.37 140.772 288.768 143.021 285.61C143.261 284.748 143.14 284.722 142.655 284.152C141.515 283.798 141.112 284.468 139.73 284.485C132.344 284.575 117.319 287.47 125.768 274.883C127.029 273.006 129.428 275.25 130.716 274.99C132.807 274.57 135.082 275.043 137.228 275.093C143.402 275.615 148.972 272.675 154.861 272.41ZM251.285 224.372C252.495 224.297 253.888 224.404 255.01 224.891C256.262 225.381 259.548 227.523 259.848 228.884C261.24 235.23 252.975 233.15 249.479 233.709C248.008 233.945 247.169 234.311 246.09 234.726C250.902 241.603 254.678 251.485 254.58 259.907C254.52 265.257 252.618 273.037 246.241 273.385C243.968 273.51 238.054 265.732 236.582 263.89C236.093 260.713 235.84 261.3 234.335 258.457C233.757 257.364 233.601 254.572 233.201 253.085L233.124 252.808C232.025 248.617 232.049 243.044 232.571 238.732C228.38 240.759 222.469 245.097 218.783 248.026C216.572 249.783 215.193 255.767 211.776 254.56C211.284 253.985 211.177 253.528 211.19 252.775C211.472 236.737 237.7 224.668 251.285 224.372ZM290.917 201.168C294.907 202.093 293.787 207.111 294.477 210.443C296.569 220.56 300.34 241.418 310.497 246.593C312.177 243.904 312.328 243.774 315.037 242.103C316.522 243.106 317.385 243.746 317.855 245.569C318.37 247.681 318.1 253.02 317.052 254.91C314.745 259.073 312.095 264.013 309.67 268.083C308.428 270.72 307.177 272.64 303.872 273.223C303.222 273.338 302.925 272.97 302.53 272.563C301.985 270.845 302.454 270.015 302.682 268.396C303.332 263.731 304.707 262.015 306.627 258.133C304.957 256.878 302.98 253.983 301.547 252.373C295.787 245.898 292.222 234.196 290.557 225.739C289.414 219.935 289.557 216.931 287.405 210.683C288.04 207.738 288.78 203.402 290.917 201.168ZM339.228 197.301C340.913 197.091 346.293 197.387 348.158 197.537C351.217 197.784 354.035 200.798 355.805 203.202C355.298 204.995 354.692 206.017 353.68 207.516C351.368 207.525 349.053 207.504 346.738 207.451C347.503 209.603 347.92 211.87 348.5 214.269C350.723 223.464 354.062 236.419 347.497 244.505C346.817 245.34 345.105 246.034 344.103 246.474C340.948 245.871 338.595 244.409 336.965 241.583C336.37 240.33 335.795 239.066 335.245 237.792C334.105 235.113 333.8 233.207 332.943 230.734C330.208 222.861 329.23 216.691 332.443 208.656C332.268 208.726 331.041 209.227 330.983 209.24C327.613 210.028 322.805 216.031 319.605 215.675C319.29 215.4 319.05 215.329 319.045 214.911C318.938 206.034 332.845 198.627 339.228 197.301ZM236.963 201.316C241.146 201.939 250.192 199.495 252.539 204.609C253.074 205.78 252.2 207.274 251.702 208.397C249.956 208.463 241.219 209.049 239.825 209.403C234.931 210.649 227.822 212.52 223.077 214.328C219.908 215.568 216.874 217.829 213.876 219.25C208.298 221.894 203.885 225.498 199.328 229.66C197.51 231.318 191.51 239.22 189.215 235.895C188.769 233.659 190.392 230.442 191.565 228.524C194.104 224.367 196.831 223.009 200.293 220.057C210.466 211.384 223.759 204.073 236.963 201.316ZM344.117 170.761C347.042 170.69 352.844 171.07 354.945 173.143C355.44 173.631 355.743 174.305 355.613 175.007C355.462 175.822 354.509 176.572 353.847 176.985C352.104 178.074 349.877 177.411 347.935 177.83C346.147 178.216 343.282 180.042 341.704 179.696C341.602 179.674 341.502 179.644 341.4 179.627C336.867 178.867 320.255 185.252 315.823 187.368C314.788 187.863 313.815 188.532 312.86 189.166C311.01 190.51 306.225 194.054 304.03 193.34C302.362 191.412 305.172 187.214 306.512 185.558C308.789 182.74 313.21 181.475 316.347 179.785C318.702 178.517 321.008 176.952 323.54 176.052C327.945 174.699 332.483 173.734 336.89 172.339C339.015 171.675 341.22 171.092 343.425 170.834C343.72 170.785 343.773 170.769 344.117 170.761Z" fill="#4B4746"/>
</g>
<defs>
<clipPath id="clip0_64_3663">
<rect width="480" height="480" fill="white"/>
</clipPath>
</defs>
</svg>
