<svg width="480" height="480" viewBox="0 0 480 480" fill="none" xmlns="http://www.w3.org/2000/svg">
<g clip-path="url(#clip0_64_3232)">
<path fill-rule="evenodd" clip-rule="evenodd" d="M223.07 298.653C226.334 299.078 227.435 303.887 229.421 306.235C233.36 310.887 237.489 315.667 242.332 319.405C246.457 322.59 251.145 324.95 255.808 327.233C257.226 327.888 263.419 329.335 265.235 329.805C267.777 330.463 271.465 330.833 274.113 331.808C275.51 332.32 275.515 332.113 276.193 333.408C276.33 336.05 272.785 337.075 270.795 337.625C267.423 339.075 263.655 338.866 260.185 338.576C249.717 337.706 239.816 332.26 232.428 324.957C230.764 323.312 228.181 321.202 226.891 319.212C223.703 314.297 222.26 310.672 218.467 305.985C219.434 303.435 220.84 300.313 223.07 298.653ZM299.355 255.145C300.34 255.86 300.735 256.523 301.395 257.51C300.752 259.18 300.205 262.22 299.81 264.077C298.897 268.205 298.068 272.351 297.323 276.513C296.84 279.12 296.16 281.735 295.625 284.35C294.635 289.187 293.77 294.125 292.675 298.938C294.883 297.988 298.185 295.86 300.537 296.837C302.957 300.005 292.575 308.333 290.255 309.955C287.915 312.095 287.275 312.671 284.395 313.906L281.358 312.571C282.113 309.151 283.522 306.188 284.49 302.858C285.862 297.868 287.19 292.728 288.177 287.643C288.6 284.893 288.425 282.016 289.408 279.366C292.488 271.048 291.952 261.05 299.355 255.145ZM337.412 261.076C337.742 261.063 338.968 261.033 339.165 261.135C343.94 263.65 342.242 275.381 341.36 279.013C339.85 285.238 335.735 289.245 330.938 292.908C330.13 293.525 329.4 293.452 328.55 293.23C327.148 292.34 325.618 291.2 324.245 290.225C324.02 289.432 323.115 285.878 323.14 285.22C323.44 277.83 329.678 263.298 337.412 261.076ZM250.212 245.747C253.237 245.693 255.33 248.099 256.22 250.778C258.287 257 257.146 262.755 254.218 268.493C252.466 271.933 249.194 277.665 245.286 279.03C243.669 279.092 242.475 279.023 240.855 278.92C239.705 276.843 239.1 274.432 237.909 272.122C238.06 270.31 238.251 269.462 238.682 267.677L237.755 265.103C239.397 259.873 244.591 247.424 250.212 245.747ZM116.275 235.223C119.196 235.109 146.958 249.304 150.675 251.911C148.838 257.62 148.982 258.086 144.353 262.915C140.333 262.985 137.34 264.72 133.372 265.077C131.356 265.257 130.973 266.175 129.181 266.728C126.094 267.398 120.17 269.275 117.419 267.09C116.48 265.063 118.191 263.723 119.545 262.353C123.799 258.045 128.786 256.732 134.237 254.65C132.93 253.877 129.571 252.677 128.719 252.037C125.253 249.429 114.808 245.425 112.615 242.923C111.753 240.251 114.201 236.711 116.275 235.223ZM333.505 233.589C337.045 233.046 350.825 235.612 354.558 236.847C366.098 240.666 369.646 244.254 374.593 254.568C369.788 258.88 369.025 256.502 364.318 253.497C363.365 252.887 362.137 252.265 361.117 251.743C358.068 250.17 355.848 247.85 352.79 246.452C351.805 246.002 349.92 245.826 348.795 245.449C341.558 243.026 334.143 242.794 326.603 242.458C323.44 242.301 318.705 243.192 315.71 242.401C315.23 242.274 314.728 241.577 314.533 241.042C314.642 240.589 314.638 240.586 314.903 240.222C320.538 232.459 325.148 234.921 333.071 233.661L333.505 233.589ZM239.576 212.87C246.481 211.991 265.133 216.689 270.613 220.821C273.01 222.627 277.072 226.248 277.422 229.372C277.572 230.704 277.648 232.093 276.763 233.174C276.368 233.391 275.785 233.693 275.326 233.53C269.303 231.376 263.2 229.013 257.367 226.363C256.19 225.827 254.218 225.39 252.943 225.073C245.93 222.812 237.531 222.415 229.745 222.24C222.611 222.457 214.956 224.146 207.935 223.75C206.565 223.673 209.644 218.537 210.231 218.165C217.194 213.76 231.459 213.158 239.307 212.902C239.397 212.891 239.487 212.882 239.576 212.87Z" fill="#4B4746"/>
</g>
<defs>
<clipPath id="clip0_64_3232">
<rect width="480" height="480" fill="white"/>
</clipPath>
</defs>
</svg>
