<svg width="480" height="480" viewBox="0 0 480 480" fill="none" xmlns="http://www.w3.org/2000/svg">
<g clip-path="url(#clip0_64_3050)">
<path fill-rule="evenodd" clip-rule="evenodd" d="M243.414 304.978C243.994 304.933 245.855 304.75 245.885 305.5C246.312 316.145 237.106 322.155 229.748 327.955C228.235 329.148 221.962 332.397 220.477 332.638C216.932 333.215 214.986 333.467 211.646 334.712C209.316 333.915 206.671 334.04 204.053 333.425C203.172 333.168 201.274 332.71 200.872 331.968C198.543 327.658 201.06 324.05 205.718 324.327C212.679 324.742 219.723 322.49 225.933 319.818C233.093 316.733 237.128 309.635 243.161 305.162L243.414 304.978ZM176.922 229.831C181.236 230.879 179.743 238.935 180.275 242.597C182.279 256.383 178.72 312.402 206.282 286.718C207.708 285.391 210.747 282.333 212.638 283.375C214.232 285.978 212.539 291.987 210.396 294.082C206.723 297.985 203.637 303.218 197.56 303.75C193.84 304.078 188.563 303.285 185.567 300.835C182.645 298.443 180.463 294.238 179.205 290.696C176.294 278.923 174.447 266.205 174.334 254.055C174.303 250.753 173.766 247.554 173.738 244.27C173.715 241.642 173.266 239.042 173.649 236.451C174.009 233.975 175.39 231.676 176.922 229.831ZM151.057 259.235C151.82 259.37 152.582 259.517 153.34 259.68C163.844 261.978 162.442 286.75 155.852 290.632C152.654 291.444 151.428 290.275 149.662 287.535C148.931 286.4 148.017 284.28 147.804 282.952C147.011 278 145.722 273.095 147.041 268.11C147.912 264.76 147.851 261.117 151.057 259.235ZM229.926 250.223C235.363 251.323 235.184 254.152 236.594 258.787C238.111 263.77 237.812 280.437 231.379 281.5C229.46 280.305 228.392 279.589 227.142 277.614C223.35 271.617 222.585 266.265 223.941 259.367C224.812 254.935 226.27 252.698 229.926 250.223ZM353.525 235.49C360.055 234.863 357.865 242.178 353.248 243.214C347.5 244.502 343.999 250.18 342.617 255.425C344.132 255.17 345.708 254.627 347.185 254.172C350.84 255.547 354.657 253.67 357.572 257.973C359.362 260.613 359.307 264.033 358.852 267.013C358.185 271.283 355.872 275.12 352.41 277.705C345.937 280.445 348.572 281.662 340.705 279.48C338.16 276.905 335.47 273.635 333.998 270.337C332.233 266.387 334.584 257.638 336.349 253.925C340.049 246.142 345.25 238.727 353.525 235.49ZM344.15 263.747C343.005 264.282 342.05 264.732 340.942 265.36C343.085 268.775 344.992 271.052 349.41 271.305C355.797 266.348 348.923 263.775 344.15 263.747ZM158.385 221.851C161.804 221.603 162.688 222.29 165.164 224.458C163.826 227.347 158.268 231.943 155.261 232.873C149.692 234.597 145.331 237.251 140.093 239.649C130.925 242.751 133.776 236.954 137.166 232.743C140.081 229.123 154.157 222.202 158.385 221.851ZM218.475 210.318C226.615 209.68 238.571 212.38 245.805 216.107C248.703 217.599 249.728 220.717 247.709 223.353C246.593 224.808 245.241 224.855 243.564 225.163L243.14 225.293C241.712 225.74 226.832 221.679 224.299 221.514C222.506 221.397 214.312 219.571 213.511 218.082C213.515 214.746 215.358 211.622 218.475 210.318Z" fill="#4B4746"/>
</g>
<defs>
<clipPath id="clip0_64_3050">
<rect width="480" height="480" fill="white"/>
</clipPath>
</defs>
</svg>
