<svg width="480" height="480" viewBox="0 0 480 480" fill="none" xmlns="http://www.w3.org/2000/svg">
<g clip-path="url(#clip0_64_3165)">
<path d="M251.513 318.865C253.878 318.335 256.12 319.363 255.768 322.07C255.33 325.435 253.846 327.498 251.426 329.678C247.297 330.138 243.312 330.495 239.2 330.875C235.38 331.225 231.594 332.382 227.562 332.56L226.624 332.532C220.518 332.402 222.58 327.44 224.799 324.098C226.019 322.26 230.794 322.182 233.023 321.725C239.064 320.482 245.354 319.43 251.513 318.865ZM175.769 229.939C180.675 229.885 179.367 237.615 179.703 241.041C181.023 254.492 179.457 268.688 186.116 281.075C187.968 284.52 190.727 286.448 193.909 288.513C196.5 288.275 199.047 289.01 201.791 288.782C204.666 288.542 210.111 285.978 212.364 287.945C214.223 291.4 209.916 296.507 207.572 298.685C202.849 303.122 200.712 300.287 197.457 301.645C192.254 299.68 187.946 300.187 183.434 295.598C182.757 294.91 180.555 292.89 180.167 292.015C177.706 286.457 176.1 279.263 174.62 273.338C174.26 271.898 174.263 267 174.029 265.242C173.222 259.17 171.608 252.775 173.167 246.767C171.531 242.945 173.083 233.215 175.769 229.939ZM156.411 250.78C157.827 250.443 161.493 251.23 162.666 252.252C164.693 256.434 159.777 258.735 157.41 260.725C155.135 263.53 157.966 268.795 158.55 271.87C159.376 276.218 157.543 288.937 151.775 288.965C149.553 288.975 146.265 285.65 144.703 283.64C140.483 277.78 140.711 276.962 141.351 269.225C141.469 267.8 141.946 266.974 141.624 265.502C140.507 265.074 134.44 266.89 132.785 265.732C130.991 264.478 133.247 260.043 134.141 258.7C137.576 257.128 141.252 255.303 144.795 254.048C148.527 252.725 152.584 251.903 156.411 250.78ZM348.082 236.325C352.427 236.107 356.03 236.808 358.695 240.442C358.018 244.474 358.22 245.333 355.367 248.04C353.657 246.98 352.297 245.876 350.38 244.739C343.287 248.135 340.04 247.931 340.117 257.255C343.81 257.227 347.57 257.17 351.252 257.31C359.609 257.63 358.812 271.06 354.877 275.385C350.855 279.94 349.03 281.6 342.875 283.567C342.11 283.292 341.217 283.048 340.417 282.918C336.282 282.243 334.107 278.297 333.14 274.47C330.817 265.29 331.77 254.858 336.782 246.691C339.387 242.451 343.04 237.631 348.082 236.325ZM349.627 270.35C349.719 267.948 345.895 267.895 344.17 268.067C343.28 268.34 342.462 268.47 341.877 269.175C341.584 270.715 343.063 271.472 344.268 272.225C345.283 272.207 346.578 272.223 347.562 272.103C348.442 271.543 349.119 271.242 349.627 270.35ZM242.656 236.347C246.138 236.491 250.162 237.912 253.302 239.405C252.299 241.249 251.712 241.907 250.372 243.509C247.144 244.579 243.828 245.622 240.851 247.272C242.493 250.272 243.907 254.402 243.458 257.8C242.363 266.087 240.307 272.374 230.934 271.787C228.264 270.03 227.371 268.275 225.609 265.673C225.321 262.318 224.194 260.767 223.227 257.777C222.5 255.53 223.045 250.455 223.345 248.02C220.025 247.776 209.802 248.806 208.275 246.16C208.065 244.468 209.268 239.693 211.173 239.376C221.258 237.694 232.711 237.901 242.656 236.347ZM153.224 210.245C156.455 209.945 155.694 212.046 156.87 214.454C154.578 217.447 151.862 218.781 149.298 221.401C146.673 224.083 144.166 226.866 141.437 229.459C139.896 230.922 138.704 233.048 136.869 234.169C135.751 234.723 134.673 235.3 133.786 234.077C132.979 229.847 139.514 222.236 142.064 219.056C145.237 215.1 148.568 212.2 153.224 210.245ZM230.864 193.302C233.116 193.356 235.354 193.668 237.534 194.234C242.616 195.547 248.596 198.81 253.022 200.141C261.157 202.586 260.115 213.582 254.195 213.554C253.388 213.729 251.3 214.139 250.572 213.843C245.592 211.846 241.152 208.287 236.001 206.628C232.446 205.483 229.419 203.998 226.103 202.322C226.815 199.712 228.24 194.504 230.864 193.302Z" fill="#4B4746"/>
</g>
<defs>
<clipPath id="clip0_64_3165">
<rect width="480" height="480" fill="white"/>
</clipPath>
</defs>
</svg>
