<svg width="480" height="480" viewBox="0 0 480 480" fill="none" xmlns="http://www.w3.org/2000/svg">
<g clip-path="url(#clip0_64_3686)">
<path fill-rule="evenodd" clip-rule="evenodd" d="M229.168 303.33C233.328 304.222 234.066 303.445 237.519 303.788C244.057 304.435 251.332 305.398 257.73 306.69C260.06 307.353 263.43 309.105 264.398 311.36C266.403 316.022 263.82 317.553 260.23 319.39C258.298 319.86 256.597 319.74 254.622 319.7L252.205 318.18L251.908 318.262C251.784 318.295 250.692 318.611 250.611 318.605C245.502 318.175 237.262 317.865 233.157 314.775C230.285 315.108 227.964 315.305 225.22 314.225C225.237 310.85 225.85 304.995 229.168 303.33ZM128.35 275.038C135.881 274.3 142.808 276.8 147.131 283.25C150.313 287.997 150.963 295.248 149.692 300.735C148.755 304.78 147.634 310.582 143.911 313.097C142.05 314.29 140.009 315.45 138.096 316.69C131.875 315.708 126.629 313.09 124.188 306.977C123.25 300.62 127.2 293.12 133.051 290.418C134.86 289.583 136.633 288.747 138.392 287.807C126.812 283.985 124.512 284.26 119.394 295.043L115.208 293.845C114.948 284.341 119.575 278.195 128.35 275.038ZM143.134 297.182C142.399 296.905 141.414 297.07 140.594 297.135C135.385 297.45 125.674 302.15 134.478 306.28C136.241 306.762 138.89 307.754 140.498 307.215C142.013 305.614 143.796 299.21 143.134 297.182ZM290.733 199.86C294.325 201.632 295.675 206.176 297.765 209.124C305.68 220.289 313.92 235.137 314.785 249.043C314.503 259.737 307.082 273.278 297.627 278.543C294.655 280.198 294.582 281.678 290.605 282.163C288.758 282.388 288.085 282.798 286.063 282.775C284.36 282.95 281.27 282.812 281.332 280.27C281.727 264.033 296.957 274.672 304.065 261.418C309.812 252.55 306.652 247.919 303.667 239.383C301.285 232.576 293.93 221.804 292.653 215.636C288.898 212.676 288.513 211.748 287.073 207.304C287.658 204.836 289.163 201.847 290.733 199.86ZM258.185 223.11C264.167 222.78 259.132 230.836 257.475 232.861C255.132 232.95 254.782 232.897 252.785 234.189C256.304 241.486 256.157 244.185 254.002 252.34C253.002 256.122 249.642 259.145 246.184 260.915C241.876 258.207 239.633 255.872 237.783 251.13C236.468 247.761 235.399 245.937 235.74 242.25C236.106 239.812 235.85 237.478 236.289 234.87C229.482 236.412 227.351 235.63 220.747 239.449C219.263 239.109 217.415 238.834 215.879 238.548C218.48 229.946 220.044 230.571 227.945 228.272C238.077 225.325 247.651 223.641 258.185 223.11ZM356.485 211.392C355.877 213.118 355.562 214.099 354.454 215.721C353.472 217.165 352.06 218.655 350.51 219.642C350.473 219.666 349.703 219.688 349.568 219.75C349.45 219.821 349.335 219.892 349.22 219.964C349.612 220.95 350.748 224.441 350.983 225.177C352.69 230.509 353.107 234.836 351.392 240.25C350.522 242.996 348.487 246.543 345.834 247.864C344.562 248.498 342.767 248.359 341.51 247.761C338.363 246.263 337.508 244.876 336.255 241.961C333.925 236.706 332.634 228.425 334.057 222.722C331.824 222.92 323.725 223.624 322.358 222.124C321.83 219.888 324.017 214.427 326.297 214.287C332.655 213.896 338.845 212.615 345.115 211.422C347.367 210.993 349.803 209.88 352.153 209.321L354.97 209.291L356.485 211.392ZM245.328 198.656C247.767 198.329 252.125 198.239 253.715 200.541C254.003 200.956 254.105 201.472 253.997 201.966C253.282 205.214 246.722 208.288 243.807 210.084C238.977 209.674 224.739 212.539 219.621 213.833C213.282 214.889 208.279 214.212 213.991 207.324C216.676 204.085 224.108 203.488 228.254 202.361C233.94 200.816 239.493 199.352 245.328 198.656ZM351.353 184.548C352.391 184.504 355.128 185.693 354.845 186.877C352.66 196.044 333.134 197.397 326.137 198.058L325.7 198.193C324.517 198.563 323.615 198.641 322.57 197.883C321.118 195.565 324.605 191.45 326.39 190.035C330.417 189.663 334.068 188.083 337.93 187.334C342.403 186.465 346.918 185.639 351.353 184.548Z" fill="#4B4746"/>
</g>
<defs>
<clipPath id="clip0_64_3686">
<rect width="480" height="480" fill="white"/>
</clipPath>
</defs>
</svg>
