<svg width="480" height="480" viewBox="0 0 480 480" fill="none" xmlns="http://www.w3.org/2000/svg">
<g clip-path="url(#clip0_64_3574)">
<path fill-rule="evenodd" clip-rule="evenodd" d="M244.772 293.638C247.524 294.1 249.31 296.43 251.587 297.965C254.582 299.542 259.475 303.533 262.475 304.695C268.957 307.205 275.488 306.522 281.528 311.022C281.305 311.587 281.075 312.15 280.837 312.707C280.112 314.38 279.394 315.328 277.682 316.003C271.53 318.385 266.942 317.988 261.025 315.155C259.437 314.398 256.84 313.8 255.443 312.9C250.56 309.75 246.587 305.155 242.409 301.107C242.705 298.93 243.603 295.515 244.772 293.638ZM121.471 276.683C127.203 275.408 135.887 275.515 141.189 278.095C144.748 279.825 148.446 283.972 149.635 287.52H149.634C152.563 293.602 150.36 306.438 143.901 309.638C143.229 309.97 142.472 310.268 141.781 310.61C142.078 311.113 141.997 310.99 142.4 311.412C141.991 312.032 140.892 312.263 140.204 312.445C134.838 313.86 128.164 308.532 127.192 303.3C126.332 298.677 129.467 290.242 134.737 289.252C136.449 288.929 137.733 289.265 139.383 288.36C134.746 284.378 128.488 284.37 122.866 285.74C121.093 286.03 118.556 287.04 116.779 286.497C115.016 285.96 115.532 284.488 116.059 283.383C117.036 281.14 118.769 277.285 121.471 276.683ZM142.297 291.133C140.021 295.31 137.925 294.62 135.311 297.835C135.074 298.127 134.499 300.269 134.355 300.792C135.403 301.434 136.497 302.134 137.566 302.729C140.607 303.469 141.35 303.629 143.743 301.292C144.656 298.762 145.307 292.363 142.297 291.133ZM291.217 193.222C292.347 193.134 293.225 193.208 294.127 193.95C300.182 198.93 310.415 227.712 312.728 236.196C313.993 240.75 314.835 245.411 315.245 250.12C316.233 262.5 306.28 282.882 292.305 283.917C287.433 283.549 286.895 279.513 288.89 275.758C290.015 275.09 293.062 273.867 294.48 273.322C299.835 271.265 303.795 267.447 306.558 262.447C308.85 258.307 308.435 250.407 307.177 245.962C306.949 245.158 305.783 243.106 305.37 242.005C304.858 240.638 304.803 237.274 304.425 236.379C302.975 232.952 301.227 229.889 300.012 226.282C297.777 219.659 295.435 213.238 292.665 206.822C291.558 204.258 289.608 203.014 288.563 199.749L288.465 199.437C288.833 197.181 289.507 194.831 291.217 193.222ZM239.45 236.048C245.838 235.435 247.02 242.618 248.148 247.231C248.435 248.406 249.602 249.884 249.911 251.165C251.052 255.893 250.34 269.825 244.257 271.133C240.665 270.228 238.014 266.585 236.892 263.235C234.347 255.643 231.478 248.209 235.117 240.392C236.054 238.381 237.319 236.846 239.45 236.048ZM338.172 213.687C338.922 213.709 339.865 213.977 340.46 214.392C349.132 220.419 351.48 234.812 346.268 243.805C345.343 245.399 344.962 245.664 343.332 246.096C340.648 245.896 339.51 245.407 337.035 244.312C333.381 237.642 330.66 231.086 332.363 223.388C333.215 219.536 334.75 215.891 338.172 213.687ZM248.681 196.343C250.158 196.23 251.502 196.19 252.395 197.471C252.672 201.193 242.522 206.378 239.865 208.561C239.028 209.248 236.127 210.247 235.388 210.913C230.637 215.196 226.306 216.387 220.202 217.828C219.04 218.007 218.325 217.948 217.251 217.553C215.499 215.698 219.056 209.895 220.693 208.881C227.386 204.768 234.237 200.783 241.073 196.94C241.896 196.478 246.755 196.657 248.309 196.405L248.681 196.343ZM327.945 182.608C333.217 183.083 356.505 184.493 343.61 195.345C342.692 196.116 340.868 195.19 339.175 195.594C332.158 193.406 325.66 192.456 318.855 189.347C319.277 188.173 320.47 185.653 321.275 184.705C323.142 182.505 325.397 182.822 327.945 182.608Z" fill="#4B4746"/>
</g>
<defs>
<clipPath id="clip0_64_3574">
<rect width="480" height="480" fill="white"/>
</clipPath>
</defs>
</svg>
