<svg width="480" height="480" viewBox="0 0 480 480" fill="none" xmlns="http://www.w3.org/2000/svg">
<g clip-path="url(#clip0_64_3380)">
<path fill-rule="evenodd" clip-rule="evenodd" d="M287.42 316.604C289.79 317.024 288.748 319.437 288.23 321.215C284.695 333.357 275.195 343.92 262.607 346.7C252.74 348.877 240.623 343.48 233.488 336.857C232.319 335.43 231.842 334.135 231.922 332.303C232.158 326.9 234.07 327.363 237.551 330.325C242.767 334.762 249.086 337.965 256.065 338.05C257.273 338.065 258.643 337.799 259.857 337.702C270.777 336.949 278.363 327.93 284.65 319.932C285.568 318.765 286.37 317.659 287.42 316.604ZM225.892 236.483C226.324 236.606 226.778 236.734 227.168 236.962C230.332 238.816 234.369 259.693 234.879 264.093C235.478 269.26 235.101 274.702 236.36 279.734C235.692 281.897 234.879 283.192 233.293 284.772C226.616 285.577 222.166 289.49 226.72 296.38C231.671 303.872 243.379 299.76 247.056 302.085C248.737 304.842 243.397 309.993 241.352 311.468C237.19 311.735 233.131 314.672 228.82 313.097C219.984 309.87 216.511 296.567 218.841 288.109C220.973 280.37 223.688 279.475 229.845 275.987C226.745 269.09 226.854 261.059 225.275 253.667C224.889 252.324 224.783 249.851 224.229 248.619C223.046 245.986 220.845 245.429 221.665 242.154C222.259 239.775 223.781 237.732 225.892 236.483ZM175.855 238.48C182.969 235.741 184.761 237.331 191.547 237.816C199.35 238.375 202.671 240.046 205.477 247.767C203.123 254.357 205.089 257.7 204.908 264.147C204.729 270.54 201.368 285.029 194.868 288.104C192.15 289.389 189.567 288.432 187.767 288.925C184.075 292.215 177.27 289.954 173.308 288.122C170.06 286.619 167.858 278.568 166.959 275.392C164.588 267.017 166.747 256.002 170.977 248.561C168.027 248.62 165.546 255.31 163.123 253.805C162.281 252.119 163.299 248.598 163.927 246.847C166.161 241.285 171.143 240.296 175.855 238.48ZM281.788 234.226C290.055 231.242 295.868 232.409 303.686 234.892C314.265 238.253 314.64 245.114 311.765 254.392C310.79 257.535 311.44 263.905 309.53 267.37C307.19 273.107 304.913 280.6 298.883 283.447C296.975 284.347 295.675 284.412 293.678 284.632C293.218 284.812 292.75 284.977 292.282 285.13C289.065 286.155 282.393 285.154 279.428 283.452C275.21 281.032 272.685 278.192 271.305 273.569C268.807 265.194 268.287 254.667 272.452 246.788L271.945 246.697C270.515 247.973 269.805 249.567 267.897 250.337C266.46 250.147 266.633 248.353 266.905 247.287C268.973 239.55 275.021 236.67 281.788 234.226ZM94.9346 246.541C97.7824 246.521 113.918 251.617 117.334 253.274C118.139 253.667 119.077 254.077 119.267 255.064C121.279 265.537 109.228 269.157 101.578 271.352C98.1379 271.867 96.4088 271.557 93.4873 269.957C93.6956 269.384 94.1297 268.374 94.3887 267.877C95.8723 265.017 103.826 261.328 106.676 260.45C102.306 258.125 92.37 256.112 90.2344 253.365C89.7354 250.878 92.7036 247.44 94.9346 246.541ZM378.65 240.284C379.386 240.229 382.103 240.01 382.021 241.279C381.605 247.687 369.177 250.684 366.492 254.962C366.592 257.644 384.605 258.032 383.82 263.347C382.965 264.29 380.928 265.544 379.785 266.309C377.233 266.207 375.578 266.205 373.03 266.312C370.173 265.795 352.767 263.572 352.05 260.569C350.683 254.857 362.357 250.138 366.232 247.781C370.205 245.366 373.933 242.004 378.65 240.284ZM195.882 195.861C206.224 195.037 212.535 208.271 207.25 216.551C206.693 217.423 204.708 218.093 204.233 217.299C201.51 212.736 199.055 209.77 195.356 206.042C194.982 205.958 194.606 205.881 194.229 205.813C189.552 204.962 187.598 206.398 184.011 208.924C181.041 210.94 179.043 213.344 177.91 216.784C177.202 218.407 176.713 221.44 174.587 221.724C166.952 222.768 172.583 213.743 174.286 210.892C176.983 206.377 179.708 202.718 183.784 199.338C187.96 195.875 190.768 196.087 195.882 195.861ZM291.423 192.852C298.692 192.439 302.952 195.912 305.01 202.857C305.44 204.31 304.3 214.586 302.612 214.614C298.132 214.688 295.46 206.159 292.433 203.703C291.093 202.659 288.135 202.106 286.42 201.534C282.683 202.339 281.887 203.18 279.263 205.912C276.303 209.696 275.257 212.159 273.92 216.723C273.322 218.755 270.72 222.458 268.122 221.378C265.68 218.841 268.59 212.804 269.728 209.972C273.778 199.895 280.465 193.699 291.423 192.852Z" fill="#4B4746"/>
<path fill-rule="evenodd" clip-rule="evenodd" d="M170.977 248.562C173.039 246.473 187.575 244.722 189.914 246.045C189.222 246.889 186.973 246.617 185.356 248.617C179.901 255.365 180.33 266.408 180.793 274.638C181.133 280.68 183.857 284.787 187.767 288.925C184.075 292.215 177.27 289.955 173.308 288.122C170.06 286.619 167.858 278.568 166.959 275.393C164.589 267.018 166.747 256.002 170.977 248.562ZM290.127 241.344C286.872 249.136 282.863 282.07 293.678 284.633C293.218 284.813 292.75 284.977 292.282 285.13C289.065 286.155 282.393 285.155 279.428 283.452C275.21 281.032 272.685 278.193 271.305 273.57C268.807 265.195 268.287 254.668 272.452 246.788C274.347 244.209 278.788 242.125 281.968 241.723C284.678 241.38 287.495 241.64 290.127 241.344Z" fill="#FEFEFE"/>
</g>
<defs>
<clipPath id="clip0_64_3380">
<rect width="480" height="480" fill="white"/>
</clipPath>
</defs>
</svg>
