<svg width="480" height="480" viewBox="0 0 480 480" fill="none" xmlns="http://www.w3.org/2000/svg">
<g clip-path="url(#clip0_64_3034)">
<path fill-rule="evenodd" clip-rule="evenodd" d="M243.322 312.22C243.689 312.947 243.314 314.145 243.253 314.952C242.805 320.84 238.18 326.695 234.073 330.67C230.454 334.175 221.363 339.15 216.227 339.57C208.235 340.223 202.16 339.015 195.867 333.955L194.575 332.87C195.122 330.758 195.554 325.72 197.347 324.567C199.561 325.222 202.174 326.815 204.28 327.49C206.918 328.335 212.301 329.727 214.883 329.897C216.441 330.002 223.86 327.497 225.226 326.545C228.813 323.997 232.497 321.492 235.693 318.46C237.924 316.342 239.942 313.145 242.762 311.905L243.322 312.22ZM180.125 239.665C180.895 239.994 181.63 240.449 182.363 240.864C185.539 249.156 188.041 258.682 190.483 267.26C192.348 273.807 183.366 277.985 180.255 282.207L180.055 282.482C180.003 288.802 181.879 289.447 186.729 292.755C189.409 292.752 196.282 293.242 198.356 294.937C199.619 297.607 195.621 300.178 193.558 301.235C189.39 303.415 184.027 304.977 179.569 302.805C174.244 300.207 173.171 295.695 171.343 290.532C173.916 280.34 174.256 277.815 182.174 270.633C180.867 265.608 180.126 261.485 177.869 256.678C177.127 255.098 177.17 251.163 176.854 249.284C176.226 245.546 177.005 242.127 180.125 239.665ZM134.431 251.885C134.372 238.58 156.705 242.407 164.809 244.347C167.837 245.072 170.727 248.159 171.969 250.912C171.707 251.73 171.428 252.543 171.13 253.348C170.751 254.367 170.539 254.925 169.527 255.39C168.609 255.352 167.332 254.212 166.377 253.602L165.85 253.747C168.639 257 168.711 256.998 168.562 261.338C168.239 270.767 164.82 278.697 157.463 284.76C153.778 287.795 149.617 288.285 145.195 286.575C144.872 286.533 144.552 286.467 144.237 286.38C139.891 285.15 137.664 280.827 135.617 277.397C136.163 274.222 135.554 272.445 135.504 269.345C135.55 266.06 135.672 262.737 135.843 259.455C135.957 257.268 138.778 253.887 137.58 251.942C136.639 251.635 136.133 252.292 134.746 252.285L134.431 251.885ZM241.652 241.226C249.516 240.884 254.226 241.564 261.771 244.081C264.988 245.155 265.325 245.795 266.768 248.716C265.993 250.65 265.558 251.333 264.23 252.835C262.725 252.4 260.01 251.547 258.495 251.817L258.378 251.485C254.97 251.29 252.38 250.692 249.081 250.05C248.966 250.028 247.637 250.11 247.37 250.119C247.244 250.166 246.904 250.282 246.804 250.277C244.79 250.185 242.66 249.165 240.581 249.135L239.433 248.16L239.276 248.353C238.505 249.264 237.876 249.284 236.667 249.603C236.737 250.722 237.731 252.957 238.217 254.062C240.015 258.155 239.993 262.815 238.924 267.125C239.228 271.425 236.669 279.203 233.7 282.508C231.435 285.027 229.598 284.707 226.646 285.582C226.284 285.519 222.407 283.933 221.77 283.683C217.899 275.693 216.6 265.01 219.081 256.227C219.402 255.093 221.573 251.461 221.251 250.553C218.576 250.755 213.175 253.895 211.18 251.935C210.601 249.533 213.902 246.329 215.898 245.418C224.092 241.514 232.902 241.605 241.652 241.226ZM233.973 274.61L233.972 274.608L233.973 274.61ZM356.825 238.121C357.74 240.958 357.923 238.772 359.647 239.664L359.658 240.338C357.748 244.225 343.105 253.51 342.92 256.647C343.675 256.717 344.823 256.115 345.575 255.8C350.4 257.027 356.97 256.167 361.17 258.18C367.25 261.092 362.05 264.985 357.857 265.715C355.3 266.16 351.743 266.307 349.708 266.942C346.488 266.325 344.82 266.123 341.705 267.218C337.038 265.17 327.403 267.955 324.745 263.003C323.97 261.558 329.033 255.48 330.405 254.66C334.375 253.028 338.486 249.052 341.913 247.277C346.958 244.666 351.253 238.884 356.218 237.821L356.825 238.121ZM236.575 260.442C236.574 260.447 236.575 260.446 236.575 260.439V260.442ZM236.348 253.039H236.349H236.348ZM247.092 249.304L247.36 250.12V250.119L247.093 249.304H247.092ZM246.346 249.003C246.389 249.028 246.434 249.051 246.482 249.073L246.347 249.003C246.303 248.977 246.262 248.95 246.219 248.917L246.346 249.003ZM245.396 247.469H245.395H245.396ZM236.868 246.968H236.867H236.868ZM243.698 246.332C243.812 246.332 243.924 246.342 244.033 246.361C244.088 246.371 244.141 246.382 244.194 246.396C244.301 246.425 244.404 246.464 244.504 246.514C244.255 246.389 243.984 246.333 243.698 246.332ZM235.17 200.857C237.163 200.537 240.978 200.682 243.098 200.927C247.557 201.442 252.29 207.887 251.633 212.323C251.4 213.879 249.76 214.948 248.139 214.344C245.128 213.222 242.197 211.681 239.149 210.611C237.007 209.87 234.695 209.854 232.515 209.16C230.171 209.962 227.221 211.011 224.803 211.386C223.674 211.561 223.745 211.518 222.59 211.949C220.742 212.972 218.609 214.048 216.921 215.344C215.47 216.505 212.799 223.104 210.234 221.067C205.433 217.282 216.367 207.31 219.215 205.388C221.406 203.909 226.818 201.725 229.471 201.037C230.114 200.87 233.677 201.023 234.884 200.892L235.17 200.857ZM154.274 203.031C162.383 202.375 176.057 204.083 175.985 215.106C175.973 217.033 175.086 218.8 174.354 220.558C170.201 217.562 161.179 213.339 156.182 212.269C154.83 211.929 154.109 211.528 152.987 212.168L152.804 212.981L152.523 213.101C146.369 211.177 142.278 218.556 136.915 220.3C136.558 220.416 136.397 220.121 136.154 219.901C135.901 218.48 137.116 215.864 137.85 214.636C141.413 208.672 147.793 204.871 154.274 203.031Z" fill="#4B4746"/>
<path fill-rule="evenodd" clip-rule="evenodd" d="M242 248C244 248 244.5 247 245.74 248.452C247.5 247.5 249.067 249.422 250.5 248L253.067 248.177C256.5 249 257 249.604 258.378 251.485L258.495 251.817C260.498 267.155 254.218 284.47 237.404 287.615C234.522 288.155 229.205 287.023 226.646 285.583C229.597 284.708 231.435 285.028 233.7 282.508C236.669 279.203 239.227 271.425 238.923 267.125C239.992 262.815 240.015 258.155 238.217 254.063C237.731 252.958 236.737 250.723 236.667 249.604C237.957 249.263 238.586 249.263 239.433 248.16C239.959 248.165 239.992 248.144 240.516 248.064L242 248ZM151.375 250.026C155.265 250.631 160.381 252.782 164.394 253.442C165.196 253.572 164.953 253.437 165.85 253.747C168.639 257 168.711 256.998 168.562 261.338C168.239 270.768 164.82 278.697 157.463 284.76C153.778 287.795 149.618 288.285 145.195 286.575C145.371 286.485 145.546 286.39 145.72 286.295C155.026 281.143 154.745 262.453 153.017 253.46C152.841 252.545 151.871 250.891 151.375 250.026Z" fill="#FEFEFE"/>
</g>
<defs>
<clipPath id="clip0_64_3034">
<rect width="480" height="480" fill="white"/>
</clipPath>
</defs>
</svg>
