<svg width="480" height="480" viewBox="0 0 480 480" fill="none" xmlns="http://www.w3.org/2000/svg">
<g clip-path="url(#clip0_64_3014)">
<path fill-rule="evenodd" clip-rule="evenodd" d="M237.669 311.005C241.056 311.998 239.855 314.295 239.808 317.207C239.619 328.94 230.662 337.163 221.003 342.238C219.649 342.948 217.164 342.82 215.147 343.707C208.104 341.8 204.623 344.435 197.067 339.842C192.554 337.1 191.013 337.663 186.156 333.5C184.273 332.03 184.107 331.787 183.449 329.552C183.758 327.732 184.045 325.167 184.94 323.61C187.577 322.152 195.616 328.755 198.438 329.658C205.344 331.873 209.871 333.922 217.199 332.092C222.923 330.662 225.779 328.973 229.582 324.313C232.282 321.003 234.793 313.37 237.669 311.005ZM181.803 244.893C182.349 245.008 183.292 245.096 183.517 245.684C185.756 251.518 186.085 259.188 186.504 265.363C186.679 267.945 187.176 269.3 186.887 271.77C193.22 273.107 194.587 275.223 191.959 282.35C191.446 283.74 187.837 283.145 186.146 283.485C182.93 284.132 178.896 285.648 176.817 288.39C171.622 297.41 185.949 304.582 192.802 300.445C196.581 298.162 200.477 295.377 204.29 293.082C205.938 292.092 207.803 290.015 209.701 289.56L210.262 289.935C210.616 291.067 209.524 292.76 209.639 294.155C209.756 295.577 209.298 296.193 208.574 297.37C207.69 298.665 206.966 300.185 206.084 301.525C202.423 307.082 196.957 311.87 190.346 313.425C190.53 313.38 189.106 314.675 189.066 314.705C185.198 314.408 181.292 313.845 177.351 313.707C174.494 313.607 170.753 307.357 168.725 305.377C166.861 303.56 166.59 294.887 167.129 292.28C167.828 288.897 170.185 283.295 171.956 280.185C173.349 277.697 178.432 275.468 178.948 272.743C180.311 265.543 174.595 249.91 181.803 244.893ZM156.553 249.464C161.928 249.268 161.98 254.275 162.701 258.257C164.064 265.782 163.665 273.965 160.106 280.86C158.824 283.347 157.649 284.172 155.191 285.155C155.108 285.142 155.024 285.128 154.941 285.113C146.996 280.932 147.638 267.037 149.361 260.137C150.345 256.2 154.289 250.843 156.553 249.464ZM233.433 245.796C236.476 246.175 237.564 247.494 238.83 250.38C242.168 257.995 239.866 275.493 231.335 278.97C231.13 278.863 230.927 278.752 230.726 278.64C222.927 274.215 223.481 262.75 225.836 255.403C227.165 251.255 228.65 246.848 233.433 245.796ZM354.745 240.049C355.597 240.071 355.658 240.015 356.431 240.421C358.375 243.779 351.712 248.762 349.817 250.895C348.47 252.415 347.08 253.98 345.72 255.493C352.465 254.955 358.095 253.887 364.36 256.565C361.135 263.557 354.7 262.738 349.703 265.912C347.846 265.842 347.227 265.845 345.455 266.42C342.345 267.18 341.733 266.02 338.713 267.46C337.9 267.848 330.057 267.812 328.642 267.832C325.475 265.49 324.828 263.828 326.763 260.148C329.695 254.568 335.738 252.833 340.788 249.532C344.845 246.878 350.208 240.993 354.745 240.049ZM243.664 213.352C251.027 213.204 256.593 216.045 259.225 223.412C261.218 228.988 260.167 236.614 253.848 238.909L253.373 238.675C251.781 236.652 250.9 231.71 250.355 229.04C248.414 227.605 245.005 224.272 242.868 223.744C241.279 223.351 241.332 223.973 238.927 222.978L238.582 222.832C237.722 223.559 237.304 224.09 236.17 224.242C232.73 224.702 229.691 226.412 226.902 228.397C224.288 230.476 220.694 234.788 218.591 237.52C216.936 239.668 216.81 244.409 213.596 245.995C212.194 246.048 211.253 244.963 211.317 243.661C211.618 237.548 216.672 230.515 220.4 226.024C225.222 220.217 231.307 215.766 238.641 213.889C239.642 213.63 242.563 213.436 243.664 213.352ZM154.874 216.517C163.974 215.462 168.016 224.659 167.152 232.294C166.874 234.75 167.506 242.413 163.686 242.095C160.597 240.33 160.343 235.364 158.445 232.656C155.053 227.817 154.835 225.172 149.327 228.958C146.375 232.139 144.003 235.894 142.7 240.289C142.014 242.605 140.205 246.402 137.304 242.647C136.468 240.805 138.245 236.059 138.929 234.556C142.565 226.555 146.628 219.911 154.874 216.517Z" fill="#4B4746"/>
</g>
<defs>
<clipPath id="clip0_64_3014">
<rect width="480" height="480" fill="white"/>
</clipPath>
</defs>
</svg>
