<svg width="480" height="480" viewBox="0 0 480 480" fill="none" xmlns="http://www.w3.org/2000/svg">
<g clip-path="url(#clip0_64_3794)">
<path fill-rule="evenodd" clip-rule="evenodd" d="M255.257 311.465C255.525 311.485 255.582 311.555 255.847 311.683C256.115 312.95 256.37 313.925 256.722 315.165C249.834 330.415 231.369 340.117 214.698 335.229C211.121 334.179 206.878 331.917 203.305 330.435C200.683 328.53 201.387 322.553 203.035 320.455C204.89 319.323 206.81 321.094 208.485 321.85C211.291 323.115 214.952 325.075 217.97 325.505C231.181 327.38 244.868 318.45 255.257 311.465ZM342.24 296.548C343.875 296.13 345.842 297.701 345.875 299.148C345.964 303.068 340.008 307.223 337.123 309.355C334.645 311.185 330.877 312.455 328.887 314.985C328.04 316.083 327.445 316.718 326.5 317.74C329.48 317.073 343.188 317.173 344.983 319.365C344.848 324.355 330 327.74 326.003 327.78C323.563 327.805 321.65 326.88 318.64 327.25L318.3 327.296L317.76 327.468C315.013 326.898 313.475 326.003 311.36 324.261C313.165 315.821 319.885 313.325 325.99 308.258C321.165 307.368 317.883 306.62 313.1 307.82C312.125 308.063 310.195 306.598 310.565 305.221C311.243 302.696 313.373 300.628 315.498 299.198C318.445 299.091 321.407 299.421 324.375 299.108C330.282 298.488 336.52 298.2 342.24 296.548ZM212.859 206.976C213.66 207.024 213.61 206.998 214.297 207.407C215.284 208.982 213.773 212.211 213.03 213.755C211.753 216.409 209.709 218.848 208.171 221.386C203.699 228.764 182.208 263.642 182.055 270.135C182.04 270.8 182.189 271.76 182.698 272.237C184.437 273.867 200.151 275.965 203.972 277.425C207.524 278.782 210.125 280.682 212.73 283.407L210.542 286.56C208.235 287.505 205.834 288.615 203.545 289.63C193.973 291.945 178.279 286.635 171.911 278.982C171.996 278.317 172.12 277.657 172.28 277.005C174.43 268.475 177.906 261.664 182.324 254.159C183.629 251.942 184.597 248.889 185.971 246.768C188.752 242.475 191.549 238.303 194.204 233.917L201.93 221.097C204.458 216.86 208.524 209.576 212.859 206.976ZM234.558 230.714C246.378 226.373 265.087 228.819 274.132 236.559L275.182 237.592C277.604 239.975 279.781 242.224 280.77 245.672L279.99 248.812V248.812C279.827 250.623 279.67 251.281 278.68 252.833C274.943 258.703 272.47 250.69 270.062 250.418C269.657 245.643 261.635 242.099 257.595 240.781C256.208 240.329 255.063 239.731 253.6 239.516C253.1 239.719 252.095 240.351 252.043 240.96C251.53 247.049 252.082 249.688 249.352 255.503C246.039 262.558 240.794 273.98 233.209 277.157C231.046 276.75 228.443 278.105 225.923 276.17C224.911 275.392 224.102 273.718 223.454 273.035C220.759 270.415 220.07 270.415 219.723 266.473C218.87 257.745 223.373 248.578 226.964 240.907C228.214 238.24 231.809 231.724 234.558 230.714ZM167.603 199.645C169.695 199.609 172.359 201.096 174.262 201.448C178.977 202.321 182.36 203.966 185.348 207.8C187.073 209.956 188.63 211.66 189.393 214.514C190.819 219.847 189.782 224.162 183.688 220.19L183.462 220.04L182.572 218.935L182.618 218.665C182.605 218.754 182.589 218.844 182.571 218.935C180.471 216.907 171.955 211.85 169.253 210.486C169.325 210.47 169.398 210.454 169.472 210.439C169.398 210.454 169.324 210.469 169.253 210.485L168.476 210.434C167.962 211.43 168.722 215.257 168.695 216.855C168.525 227.093 164.863 241.729 156.931 248.819C155.992 249.659 152.709 251.207 151.423 251.939C146.79 251.597 140.797 249.489 140.079 244.312C139.527 240.333 138.915 239.057 140.244 235.095C142.349 228.818 144.15 222.565 147.721 216.896C149.143 214.633 151.195 212.659 152.678 210.418C151.753 211.17 150.388 212.152 149.174 212.154C144.055 212.164 147.477 207.223 149.045 205.228C150.228 203.608 151.8 202.57 153.789 201.991C158.022 200.758 163.191 199.719 167.603 199.645ZM279.105 243.623C279.519 244.331 279.725 245.171 279.838 246.157C279.804 245.861 279.762 245.579 279.709 245.309C279.691 245.219 279.672 245.13 279.651 245.043C279.61 244.869 279.563 244.7 279.51 244.537C279.404 244.211 279.272 243.906 279.106 243.623H279.105ZM278.313 242.66C278.509 242.834 278.681 243.018 278.832 243.215C278.731 243.084 278.622 242.958 278.502 242.837C278.442 242.777 278.379 242.718 278.314 242.66H278.313ZM276.176 241.509L276.177 241.508L276.176 241.509ZM275.467 241.216H275.468H275.467ZM274.963 240.645C275.053 240.787 275.15 240.914 275.254 241.023L275.153 240.908C275.12 240.868 275.087 240.825 275.055 240.781C275.024 240.737 274.994 240.692 274.964 240.645H274.963ZM274.073 237.416C274.1 238.201 274.296 239.203 274.636 240.01C274.296 239.203 274.1 238.201 274.073 237.416ZM258.485 201.463C264.65 201.519 277.572 205.931 283.772 207.925C285.352 208.433 292.155 212.376 293.75 213.537C297.362 216.169 297.242 221.017 297.615 225.202C296.002 228.562 292.315 231.912 288.932 233.499C287.007 234.179 286.585 234.247 284.958 233.089C282.378 231.25 279.94 229.056 277.323 227.289C270.325 222.567 260.843 219.736 254.765 213.904C244.822 215.614 256.512 203.435 258.485 201.463ZM182.619 217.364H182.62H182.619ZM181.777 215.241C181.923 215.46 182.054 215.685 182.167 215.916C182.054 215.685 181.923 215.46 181.777 215.241ZM178.605 212.436C179.043 212.69 179.461 212.965 179.849 213.259C179.305 212.847 178.705 212.473 178.071 212.14L178.605 212.436ZM160.966 169.474C171.915 171.043 178.658 172.878 188.266 178.263C202.485 186.231 200.351 187.378 190.188 197.978C189.544 198.049 186.979 197.56 186.144 197.443C184.808 196.38 183.572 194.924 182.08 193.895C179.059 191.81 174.536 189.587 171.147 188.111C166.641 186.149 156.413 185.311 153.257 181.319C152.736 178.467 158.553 170.969 160.966 169.474Z" fill="#4B4746"/>
<path fill-rule="evenodd" clip-rule="evenodd" d="M253.6 239.516C255.062 239.731 256.207 240.329 257.595 240.782C261.635 242.1 269.658 245.644 270.062 250.418C269.332 258.773 263.769 270.518 257.395 276.401C254.279 279.273 245.158 281.326 240.961 280.968C238.274 280.796 234.654 279.413 233.209 277.159C240.795 273.981 246.04 262.558 249.353 255.503C252.083 249.689 251.53 247.05 252.043 240.96C252.095 240.352 253.099 239.72 253.6 239.516ZM169.253 210.486C173.853 209.414 183.729 213.153 182.571 218.935L183.462 220.04C184.046 228.838 178.659 240.091 173.307 247.029C168.601 253.127 158.259 256.905 151.423 251.94C152.71 251.207 155.991 249.659 156.931 248.82C164.863 241.73 168.525 227.093 168.695 216.856C168.722 215.258 167.963 211.43 168.477 210.434L169.253 210.486Z" fill="#FEFEFE"/>
</g>
<defs>
<clipPath id="clip0_64_3794">
<rect width="480" height="480" fill="white"/>
</clipPath>
</defs>
</svg>
