<svg width="480" height="480" viewBox="0 0 480 480" fill="none" xmlns="http://www.w3.org/2000/svg">
<g clip-path="url(#clip0_64_3285)">
<path fill-rule="evenodd" clip-rule="evenodd" d="M218.759 285.132C219.012 285.147 219.492 285.247 219.76 285.294C222.528 287.424 220.558 298.667 220.542 302.232C220.41 311.599 225.131 317.385 232.388 322.827C236.991 326.282 246.276 328.047 250.612 332.365C251.125 332.877 249.987 334.922 249.67 335.565C247.984 336.03 246.441 336.529 244.695 336.634C243.76 336.567 243.616 336.9 242.933 336.98C236.554 337.73 228.551 335.342 223.855 330.869C222.292 329.312 219.806 327.609 218.599 325.782C216.936 323.264 214.337 319.122 213.551 316.265C212.999 314.26 213.362 310.817 213.286 308.695C212.941 299.097 213.656 293.237 218.759 285.132ZM305.112 240.921C305.662 240.911 305.823 240.954 306.373 241.029C307.45 241.705 307.973 243.248 307.663 244.426C305.681 251.977 302.568 259.154 300.763 266.794C300.2 269.177 299.668 271.527 299.093 273.874C301.763 280.774 307.138 279.917 312.396 284.235C314.903 286.295 317.015 289.549 317.117 292.987C317.265 297.939 313.613 305.042 310.793 309.097C307.353 313.59 303.115 317.335 297.46 317.962C295.383 318.192 293.685 319.612 291.86 318.18C289.78 316.463 287.776 314.75 287.186 311.993C286.331 307.995 288.453 306.645 291.853 306.18C299.29 309.252 304.82 306.292 308.05 299.35C305.415 293.85 302.183 293.507 297.445 290.607C296.58 290.077 293.373 287.12 292.293 286.204C292.233 284.444 291.743 280.917 291.705 279.629C291.47 271.529 300.31 246.196 305.112 240.921ZM340.556 251.275C353.195 250.89 363.731 251.465 370.431 263.357C371.313 264.924 372.57 267.717 371.771 269.557C371.061 271.184 372.978 273.302 371.848 275.082C371.06 276.517 370.743 277.517 369.133 278.212C368.905 278.2 368.68 278.188 368.455 278.175C366.375 275.448 365.435 271.969 362.708 269.597C362.171 269.127 360.81 268.612 360.215 268.374C361.82 276.924 354.293 291.745 350.37 299.315C349.238 301.5 345.79 305.067 343.918 306.905C343.348 307.61 342.135 308.435 341.37 309.007C339.953 308.865 336.188 308.962 335.525 307.98C327.813 296.557 344.653 268.708 350.548 261.88C345.128 257.945 338.792 260.639 333.045 262.709C332.54 262.89 330.171 264.919 329.471 265.414C328.471 265.147 327.575 264.9 326.817 264.207C325.04 259.477 337.111 252.927 340.556 251.275ZM248.965 223.093C264.563 221.195 279.38 236.81 273.76 251.762L271.478 252.812C269.755 250.864 269.087 249.079 267.585 246.914C265.022 257.739 261.097 270.305 254.072 278.985C252.32 281.15 248.204 284.987 245.287 285.202C243.543 285.33 242.47 284.714 241.215 283.624C239.036 281.734 239.237 280.007 239.093 277.312C237.757 265.787 248.921 243.469 257.16 235.521C253.048 233.24 251.643 232.755 246.844 233.149C243.88 233.392 242.486 233.32 239.548 234.157C234.864 235.49 230.97 237.156 226.738 239.544C226.24 239.823 225.6 239.806 225.037 239.689C223.503 238.135 226.381 233.382 227.535 231.971C233.208 225.037 240.665 224.195 248.965 223.093ZM124.105 240.286C126.229 240.131 139.222 242.387 141.309 243.35C148.399 246.623 154.487 245.973 161.774 247.808C166.231 248.931 161.719 256.215 160.443 258.698C158.035 260.062 156.599 259.617 155.035 260.485C150.094 263.222 145.369 265.557 140.489 268.452C137.381 270.295 135.368 270.685 131.947 273.02C129.193 274.632 125.289 276.387 122.151 276.912C121.105 276.845 120.191 275.962 120.529 274.895C121.916 270.422 125.058 265.637 129.363 263.477C132.735 261.784 135.978 259.992 139.249 258.065C140.543 257.3 142.288 256.693 143.755 255.863C141.803 255.283 140.07 255.135 138.249 254.582C134.268 253.375 130.216 251.835 126.334 250.342C122.689 251.622 121.575 250.924 120.257 247.286C121.116 244.607 121.724 241.972 124.105 240.286ZM356.805 212.53C358.435 212.264 359.09 213.078 360.412 213.002C368.312 212.549 375.345 215.761 381.635 220.334C385.497 223.141 387.683 227.706 388.093 232.424C388.408 237.483 389.185 240.824 385.777 245.033C381.732 241.91 377.452 234.289 373.532 230.407C370.562 227.603 360.957 223.918 356.822 223.138C355.999 222.983 351.299 223.046 349.537 222.877C348.887 223.462 348.173 224.256 347.2 224.223C342.703 224.068 339.787 230.116 335.35 228.82C334.17 228.243 334.407 226.886 334.867 225.998C337.105 221.664 343.478 216.764 347.713 214.794C349.606 213.913 353.911 213.569 356.383 212.683L356.805 212.53ZM248.899 187.356C250.193 187.288 251.408 187.617 252.593 187.757C263.8 189.079 271.6 196.612 272.035 208.045C272.193 209.512 271.595 211.275 270.65 212.407C269.3 214.027 266.47 210.978 265.317 210.087C260.252 206.172 255.277 202.142 249.658 199.023C249.418 198.89 248.031 198.921 247.688 198.93C246.207 198.889 240.077 197.952 239.149 198.258C235.691 199.403 230.268 200.255 226.823 201.436C224.346 202.286 220.822 205.188 218.175 204.916C217.592 204.526 217.547 204.657 217.31 203.888C216.842 202.368 220.365 196.722 221.187 195.742C223.622 192.835 233.575 189.217 237.336 188.472C239.501 188.043 246.526 187.527 248.899 187.356Z" fill="#4B4746"/>
</g>
<defs>
<clipPath id="clip0_64_3285">
<rect width="480" height="480" fill="white"/>
</clipPath>
</defs>
</svg>
