<svg width="480" height="480" viewBox="0 0 480 480" fill="none" xmlns="http://www.w3.org/2000/svg">
<g clip-path="url(#clip0_64_3810)">
<path d="M246.907 222.12C255.633 221.746 263.353 226.483 268.808 233.036C272.053 236.934 272.313 243.483 272.003 248.321C271.858 250.55 270.288 252.333 268.57 253.603C266.188 253.245 266.32 249.03 265.408 247.956C263.433 245.635 260.555 240.925 258.49 239.097L258.198 238.842C257.03 249.83 251.163 262.448 244.189 270.915C241.747 273.685 238.152 275.678 234.565 276.125C225.526 277.253 228.819 263.858 230.025 260.12C233.631 248.947 238.436 240.712 244.757 231.342C242.724 231.461 239.505 231.466 237.623 231.823C233.824 232.544 231.692 233.447 227.696 233.635C228.84 222.929 238.131 222.462 246.907 222.12ZM237.634 260.348C238.178 259.438 238.554 259.023 238.604 258.005L238.342 257.4C238.004 258.145 237.355 259.338 237.376 260.093L237.634 260.348Z" fill="#4B4746"/>
<path d="M238.342 257.4L238.603 258.005C238.554 259.023 238.177 259.438 237.634 260.348L237.375 260.093C237.355 259.338 238.004 258.145 238.342 257.4Z" fill="#4B4746"/>
<path d="M205.53 209.433C206.38 209.566 207.682 210.551 207.555 211.404C206.922 215.65 204.401 219.488 202.779 223.419C200.938 227.884 199.253 232.447 197.106 236.792C194.188 244.515 192.22 250.213 187.315 257.08C186.386 257.02 176.469 257.908 175.839 258.31C164.493 265.565 174.036 274.403 183.47 275.223C185.454 275.395 188.252 276.313 190.429 275.843C193.338 275.265 202.867 270.78 205.031 272.73C205.315 273.785 205.086 274.675 204.937 275.775C202.805 278.29 199.71 281.318 197.363 283.738C191.782 288.05 189.528 288.25 182.675 289.713C181.107 289.11 179.533 288.833 177.924 288.383C157.913 282.813 159.17 263.308 170.574 249.895C172.793 247.284 183.389 244.931 186.79 244.988C188.668 241.405 190.064 237.669 191.773 234.016C194.332 228.547 197.225 223.237 199.766 217.754C201.143 214.784 202.833 211.398 205.53 209.433Z" fill="#4B4746"/>
<path d="M160.289 195.065C168.578 194.626 179.05 196.32 181.463 206.449C182.61 211.262 180.482 215.331 177.733 219.25C175.625 216.272 173.941 211.087 172.167 208.789C171.198 209.815 170.698 214.693 170.188 216.296C167.789 223.76 165.606 231.786 161.509 238.536C160.186 240.717 157.499 243.703 155.799 245.806C155.258 246.554 154.619 247.269 154.017 247.973C152.651 248.338 151.93 248.616 150.629 249.136C146.532 247.55 145.191 247.554 145.046 242.771C144.844 236.117 147.467 230.796 150.099 224.885C152.152 220.274 154.322 215.685 157.138 211.49C158.705 209.157 160.614 207.389 162.465 205.277C154.461 202.934 153.831 206.304 146.377 206.362C145.724 206.367 145.371 205.896 145.061 205.447C145.039 203.926 145.779 203.454 146.458 202.281C149.654 196.759 154.087 196.147 160.289 195.065Z" fill="#4B4746"/>
<path d="M261.205 190.259C262.86 190.181 264.5 190.499 266.165 190.762C277.925 192.619 288.423 201.678 290.03 213.767C290.328 215.988 288.305 227.829 284.918 227.335C281.67 225.112 277.935 214.253 275.728 210.076C275.52 209.74 275.298 209.413 275.058 209.097C273.988 207.664 270.535 205.697 268.943 204.822C261.433 200.759 252.425 200.568 244.749 204.308C242.762 205.265 239.772 207.985 237.539 207.432C233.986 206.552 238.238 201.114 239.344 199.664C242.668 195.307 248.196 191.747 253.648 190.927C255.263 190.683 256.265 191.156 257.673 191.775C259.113 191.017 259.663 190.776 261.205 190.259Z" fill="#4B4746"/>
<path d="M331.533 293.755C337.805 295.692 334.968 299.667 332.525 303.635C331.54 303.61 330.573 303.662 329.59 303.702C327.68 305.302 327.823 305.482 326.223 307.367C322.635 308.277 320.088 309.577 317.573 312.317C321.528 314.947 327.533 316.827 330.35 321.237C334.903 328.367 321.768 327.45 318.168 326.435C313.515 325.512 304.298 321.055 300.193 318.437C299.563 317.705 299.57 316.472 299.665 315.707C301.11 303.997 309.118 307.772 316.613 301.46C319.515 299.012 328.285 296.195 331.533 293.755Z" fill="#4B4746"/>
<path d="M167.273 164.333C170.936 163.512 178.571 165.287 181.589 167.68C183.403 169.118 184.868 170.877 186.424 172.401C190.238 176.079 192.644 177.674 193.391 183.2C193.608 184.807 194.442 196.365 190.734 195.504C187.355 194.72 181.747 185.648 179.617 182.496C177.595 180.197 175.849 177.691 173.222 176.384C164.416 172.005 156.289 178.267 148.653 181.966C148.102 182.232 147.712 182.082 147.201 181.796C146.242 179.877 148.791 175.65 149.986 174.021C154.521 167.842 159.72 165.433 167.273 164.333Z" fill="#4B4746"/>
<path d="M241.495 297.883C244.524 300.738 240.276 312.983 237.926 315.823C233.954 320.623 229.527 324.725 223.9 327.495C222.761 328.075 221.479 329.245 220.339 329.745C215.96 331.668 211.891 331.108 207.369 330.263C206.737 330.145 204.217 330.255 203.328 330.248C201.267 328.858 199.69 328.468 197.618 327.345C194.657 325.743 190.086 322.3 188.572 319.245C187.997 317.245 187.524 310.215 190.127 309.73C191.771 310.38 192.451 313.365 193.581 315.465C198.245 317.323 201.376 321.003 206.506 320.7C206.765 320.685 208.81 322.073 209.592 322.26C213.248 320.9 216.781 320.695 220.168 319.318C224.103 317.718 230.161 312.348 232.923 309.148C235.849 305.758 238.294 301.528 241.323 298.075L241.495 297.883Z" fill="#4B4746"/>
</g>
<defs>
<clipPath id="clip0_64_3810">
<rect width="480" height="480" fill="white"/>
</clipPath>
</defs>
</svg>
