<svg width="480" height="480" viewBox="0 0 480 480" fill="none" xmlns="http://www.w3.org/2000/svg">
<g clip-path="url(#clip0_64_3343)">
<path fill-rule="evenodd" clip-rule="evenodd" d="M214.871 304.892C215.221 304.944 215.648 304.952 215.701 305.245C216.647 310.432 217.636 316.063 221.124 320.243C223.542 323.138 229.019 327.285 232.591 328.537C238.312 330.542 240.452 330.137 245.189 334.45C243.426 336.325 242.569 337.475 240.15 338.443C237.937 338.948 235.548 339.375 233.282 339.545C231.404 339.825 230.064 338.12 228.665 337.632C224.971 336.345 222.768 335.14 219.94 332.115C215.27 327.117 211.441 319.593 211.296 312.653C211.235 309.728 212.942 306.839 214.871 304.892ZM289.822 246.44C296.737 247.689 307.529 271.924 308.925 278.794C309.542 281.844 311.39 290.113 310.622 293.328C309.517 297.952 308.302 304.742 305.885 308.977C301.065 315.199 295.032 325.359 286.67 326.669C284.442 327.019 281.33 327.655 279.51 326.535C277.682 324.66 276.614 323.37 275.064 321.27C277.162 308.938 284.607 316.897 292.105 313.882C295.227 312.65 300.313 304.547 300.638 301.334C301.065 297.102 299.875 296.7 301.58 291.542C300.168 288.085 299.56 283.357 298.405 279.785C297.893 278.197 296.215 275.887 295.635 274.227C293.887 269.232 291.907 264.257 289.73 259.432C288.455 257.295 286.718 255.465 285.473 253.3C284.05 250.833 287.807 247.389 289.822 246.44ZM325.643 263.872C330.082 264.055 334.895 263.932 339.305 264.575C341.06 264.845 344.425 266.702 346.215 267.285C350.702 268.72 355.393 270.047 358.388 274.007C359.478 275.45 357.583 280.577 357.745 282.2C358.073 285.477 358.99 287.103 357.633 290.533C354.858 297.54 350.71 306.85 343.805 310.707C341.292 311.985 338.84 312.307 336.42 313.352C334.127 312.534 329.897 309.75 328.564 309.395C326.402 308.92 324.31 308.415 322.662 306.68C320.07 303.953 317.962 298.492 317.537 294.752C317.415 293.682 318.138 291.327 318.24 290.122C318.368 289.68 317.912 288.422 317.997 288.124C319.602 282.402 323.127 275.957 327.225 271.937C325.247 272.057 319.692 272.885 320.107 269.672C320.338 267.907 323.573 264.012 325.643 263.872ZM227.317 249.733C237.609 248.413 248.877 247.014 258.96 250.172C260.375 250.615 265.596 251.562 266.252 253.102C267.737 256.854 264.572 261.5 264.274 265.37C264.114 267.455 265.545 270.01 265.51 271.8C265.397 278.053 260.047 287.96 254.725 291.267C250.812 293.707 246.072 294.437 241.606 293.292C241.108 293.162 240.919 293.062 240.402 293.047L239.943 292.953C237.142 290.54 234.446 286.797 233.901 283.039L233.838 282.59C233.634 281.22 233.734 281.078 234.292 279.715L234.251 279.421C233.519 273.189 239.976 262.973 243.448 258.16C236.602 259.292 233.317 257.025 227.482 258.539C226.592 258.787 224.182 259.855 223.577 259.912C214.891 260.757 224.325 250.117 227.317 249.733ZM236.471 287.778C236.59 287.869 236.717 287.957 236.849 288.041C236.717 287.957 236.59 287.869 236.471 287.778ZM235.766 287V286.999V287ZM122.921 234.356C125.027 233.942 131.072 236.537 132.575 237.668C138.841 242.385 145.846 246.509 144.446 255.392C143.735 259.907 144.222 263.617 141.214 267.877C137.048 273.777 134.463 277.218 127.381 278.818C124.498 277.79 122.57 277.885 119.538 277.715C116.537 275.76 115.53 273.042 113.126 270.414L114.347 264.965C119.393 251.408 129.68 252.602 131.466 249.452C130.761 248.347 125.07 245.558 123.542 244.649C120.268 242.7 117.328 243.316 113.929 244.328C111.806 246.799 111.149 252.275 108.622 252.8C100.081 254.537 105.798 245.43 108.309 242.622C112.95 237.432 115.953 235.052 122.921 234.356ZM133.74 257.395C129.789 259.627 113.442 264.225 125.57 268.962C128.298 269.35 130.959 269.749 133.269 267.91C136.439 265.385 137.251 261.752 137.513 258.022C136.559 257.857 134.713 257.155 134.081 257.2L133.74 257.395ZM345.067 230.052C345.505 230.077 347.879 230.211 348.192 230.292C353.827 231.76 360.088 236.751 363.29 241.519C365.137 244.268 366.4 246.767 365.787 250.057C365.39 252.185 363.245 255.862 361.527 257.042C357.437 253.22 354.635 246.821 350.303 242.935C349.27 242.01 347.05 240.019 345.872 239.357C344.277 238.459 341.53 238.021 340.168 236.576C339.541 234.394 343.09 230.618 345.067 230.052ZM254.428 215.351C261.658 214.603 268.545 215.721 273.564 221.283C271.557 226.946 269.417 225.626 264.26 225.602C259.832 225.715 254.675 224.552 250.425 224.386C247.949 224.29 239.492 225.775 237.173 226.549L236.743 227.518C234.493 227.251 235.24 226.843 232.831 227.573C230.188 228.385 226.655 229.638 224.633 231.442C223.16 232.755 222.403 233.709 220.639 234.653C219.397 234.133 217.767 233.706 217.615 232.156C217.39 229.865 221.441 225.525 223.374 224.496C230.35 220.841 237.869 217.313 245.597 215.602C247.902 215.091 251.703 215.754 254.428 215.351Z" fill="#4B4746"/>
<path fill-rule="evenodd" clip-rule="evenodd" d="M328.365 271.148C329.428 271.448 330.427 272.655 331.072 272.883C333.032 273.573 335.948 274.168 337.968 274.608C336.475 277.38 337.274 278.13 334.952 281.322C330.6 287.31 326.718 295.963 327.477 303.505C327.595 304.733 329.07 308.643 328.747 309.28L328.564 309.396C326.402 308.921 324.309 308.416 322.662 306.681C320.07 303.953 317.962 298.493 317.537 294.753C317.415 293.683 318.138 291.328 318.24 290.123C318.368 289.681 317.912 288.423 317.997 288.125C319.602 282.403 323.127 275.958 327.225 271.938L328.365 271.148ZM227.482 258.54C233.317 257.025 236.602 259.293 243.448 258.16C239.921 263.05 233.314 273.515 234.292 279.715C234.266 281.747 234.748 286.313 236.297 287.638C238.086 289.17 241.95 289.528 240.402 293.048L239.943 292.953C237.261 294.381 231.89 292.285 229.407 290.893C226.048 289.01 222.704 284.943 221.807 281.123C220.605 276.008 221.436 269.261 223.584 264.453C224.164 263.266 226.475 260.226 227.35 258.766L227.482 258.54Z" fill="#FEFEFE"/>
</g>
<defs>
<clipPath id="clip0_64_3343">
<rect width="480" height="480" fill="white"/>
</clipPath>
</defs>
</svg>
