<svg width="480" height="480" viewBox="0 0 480 480" fill="none" xmlns="http://www.w3.org/2000/svg">
<g clip-path="url(#clip0_64_3368)">
<path fill-rule="evenodd" clip-rule="evenodd" d="M287.482 310.941C289.03 311.111 289.985 311.91 290.21 313.508C292.215 327.715 278.537 344.075 265.107 347.282C250.828 350.695 241.327 345.295 229.979 338.146C229.449 337.661 228.802 337.068 228.423 336.46C227.269 334.61 228.276 328.822 230.22 327.765C231.886 327.89 235.865 331.615 237.647 332.885C239.231 334.295 241.161 334.733 242.974 335.648C258.365 343.413 276.225 335.413 283.37 320.405C284.655 317.703 285.662 313.211 287.482 310.941ZM224.992 240.214C226.945 240.23 227.776 240.738 228.426 242.631C229.605 246.066 229.767 249.782 230.628 253.31C231.237 256.872 233.502 260.362 234.482 263.64C235.963 268.59 237.133 271.208 239.766 275.606C238.831 278.456 235.929 285.328 232.701 285.665C233.171 285.615 223.7 283.443 223.196 283.313C218.774 286.118 212.642 286.587 216.571 293.05C220.241 298.847 227.368 301.232 233.849 301.59C238.595 301.85 251.615 295.665 255.195 296.485L255.355 296.896C255.118 298.69 254.172 301.172 253.397 302.827C250.957 307.857 241.421 312.15 236.046 313.095C234.111 313.435 231.243 313.111 229.309 313.271C221.083 313.955 211.817 307.18 206.8 301.268C206.637 301.074 205.103 296.641 204.758 295.843C206.98 286.34 210.445 280.11 219.162 274.883C221.077 273.733 224.189 273.14 225.753 271.813C226.413 270.168 224.943 266.238 224.663 264.423C223.512 256.965 219.604 246.659 224.992 240.214ZM293.152 240.854C296.085 240.457 306.502 241.851 307.223 245.367C307.01 246.483 304.907 248.451 304.055 249.325L297.357 250.532C297.232 251.547 298.605 256.323 298.763 257.86C299.645 266.45 297.995 275.948 291.685 282.277C290.238 283.727 287.808 284.837 285.74 284.56C283.785 284.297 281.5 283.935 280.16 282.396C276.998 277.478 277.37 274.907 276.657 269.465C276.577 268.852 275.632 266.347 275.362 265.635C277.315 258.205 275.473 255.62 278.545 248.155C276.197 249.239 268.431 251.155 266.275 249.885C264.628 247.447 268.387 243.289 270.272 242.786C277.555 240.845 285.682 241.565 293.152 240.854ZM179.661 241.595C184.318 241.079 189.608 242.978 194.65 241.983C195.978 241.721 199.678 242.458 201.384 242.373C204.111 242.238 217.105 242.015 213.657 247.721C211.591 250.958 205.983 252.383 202.128 252.87C202.316 253.435 202.496 254.003 202.667 254.57C204.752 261.565 204.206 269.363 200.729 275.84C199.577 277.757 197.323 280.475 195.345 281.495C193.935 282.213 192.296 282.335 190.795 281.838C183.791 279.57 183.276 267.715 183.624 261.702C183.774 259.107 185.585 253.347 186.389 250.67C182.696 251.148 170.735 252.34 175.821 245.167C177.329 243.041 177.161 242.587 179.661 241.595ZM91.0234 243.288C93.1924 243.164 94.3393 243.56 96.2226 244.581C99.9006 246.575 103.496 248.549 107.337 250.218C111.105 251.855 117.952 253.703 120.279 257.412C120.598 260.025 118.363 261.898 116.858 263.668C112.576 268.708 107.188 268.527 101.312 271.1C100.083 271.277 97.2482 273.311 96.1249 274.066C94.5621 273.903 91.559 274.697 90.8818 273.117C89.8636 270.745 93.0572 267.18 94.5654 265.515C96.6341 263.227 99.9762 261.848 102.737 260.535C98.8919 258.93 95.9113 256.865 92.4355 254.615C91.3256 253.895 87.782 251.948 87.2997 251.008C86.1625 248.791 89.2499 244.436 91.0234 243.288ZM378.41 241.274C379.817 241.198 380.658 241.224 381.852 241.991C384.575 246.427 369.235 252.718 366.285 255.918L366.04 256.188C367.432 256.54 368.491 257.017 370.226 257.63C375.243 259.402 382.502 261.178 384.335 266.933C384.525 267.53 383.748 268.52 383.266 268.955C380.401 271.55 377.23 271.503 373.558 271.33C368.088 268.693 361.275 266.807 355.57 264.26C354.078 263.612 352.343 263.182 351.748 261.465C350.778 258.68 354.787 255.182 356.67 253.595C359.04 251.597 362.535 250.498 365.143 248.884C369.637 246.102 373.325 242.99 378.41 241.274ZM288.11 197.76C292.378 195.894 303.919 197.943 305.862 202.739C306.432 203.776 307.4 205.544 307.697 206.681C308.025 207.41 308.288 208.166 308.48 208.941C309.62 213.353 307.978 216.178 305.855 219.76C305.005 219.162 302.617 217.588 302.032 216.944C300.97 215.771 299.64 212.787 298.3 211.73C296.152 210.032 294.322 209.447 292.117 207.544L291.808 207.274C289.935 208.194 288.708 207.991 286.83 208.271C281.873 209.011 277.678 216.816 274.838 220.978L275.145 221.715C276.838 225.772 274.167 226.823 271.085 228.852C269.85 228.27 268.592 227.796 267.602 226.885C267 225.489 268.96 220.011 269.567 218.672C273.242 210.883 280.035 201.29 288.11 197.76ZM192.638 198.574C197.753 198.914 201.814 201.818 204.765 205.915C207.142 209.218 206.09 220.838 202.725 222.887C199.165 223.517 194.983 212.328 193.688 210.131C193.269 209.419 189.697 208.653 187.907 207.669C185.724 209.127 183.867 210.367 181.793 211.987C179.715 214.076 177.818 217.181 176.454 219.775L177.101 222.23C176.154 223.642 174.568 225.593 172.986 226.254C171.316 226.953 169.212 226.255 168.553 224.498C168.797 222.764 169.586 221.95 170.09 220.505C171.287 217.07 172.486 213.767 174.813 210.873C181.224 202.903 182.821 200.235 192.638 198.574Z" fill="#4B4746"/>
</g>
<defs>
<clipPath id="clip0_64_3368">
<rect width="480" height="480" fill="white"/>
</clipPath>
</defs>
</svg>
