<svg width="480" height="480" viewBox="0 0 480 480" fill="none" xmlns="http://www.w3.org/2000/svg">
<g clip-path="url(#clip0_64_3501)">
<path fill-rule="evenodd" clip-rule="evenodd" d="M206.799 314.411C211.637 315.126 220.18 322.607 225.503 324.498C236.85 328.53 245.65 328.11 256.985 324.533C259.736 323.662 271.205 318.603 273.205 319.255C274.902 321.255 270.293 325.245 268.855 326.483C262.723 332.44 259.49 332.3 251.66 334.993C246.967 336.605 242.318 336.242 238.044 337.57C235.146 336.425 232.552 336.635 229.558 336.193C227.396 335.873 225.277 335.063 223.261 334.251C217.944 332.106 206.29 326.41 204.054 321.18C204.365 318.803 204.858 315.993 206.799 314.411ZM232.083 244.897C233.331 245.513 233.912 246.677 233.801 247.998C232.613 262.095 233 276.838 238.206 290.185C238.967 292.138 242.888 296.458 242.452 298.113C240.98 303.702 235.653 301.075 231.99 300.477L231.678 300.427C228.439 299.475 224.341 296.33 221.432 294.458C217.418 291.873 219.213 285.955 221.85 283.028C223.888 280.768 224.659 280.667 227.445 280.512C226.423 272.73 226.282 266.044 227.002 258.25C227.186 256.252 226.857 253.792 227.136 251.85C227.481 249.446 230.166 246.259 232.083 244.897ZM158.991 247.944C164.357 232.974 185.526 230.043 198.754 234.427C205.242 236.578 208.946 240.924 211.626 246.959C210.971 248.967 210.517 252.045 208.17 252.43C206.086 251.75 205.737 249.333 203.671 249.276L203.348 249.671C205.528 258.242 204.484 265.31 199.953 272.96C196.131 279.413 193.441 281.115 186.762 284.078C183.489 283.135 180.891 284.057 177.784 282.185C176.138 282.693 170.278 282.535 168.245 282.528C166.351 276.07 161.563 271.84 161.074 264.735C160.715 259.52 161.062 257.27 162.995 252.483C158.625 252.7 157.17 253.025 158.991 247.944ZM278.215 231.275C287.945 227.672 300.265 229.421 309.748 233.188C312.915 234.447 316.628 237.197 317.69 240.38C318.785 243.098 318.257 249.482 315.032 250.47C312.667 250.32 310.837 246.798 308.432 245.318L308.11 245.682C307.919 245.124 307.615 244.78 307.244 244.4L306.852 244C304.801 242.617 302.072 241.664 299.498 240.878L297.008 240.138C290.788 238.919 286.745 237.765 280.7 239.93C288.137 248.771 289.915 268.615 282.005 278.27C281.857 278.45 280.72 279.17 280.455 279.34C279.52 279.53 277.298 280.624 276.6 280.392C272.193 278.88 269.745 273.975 268.145 269.948C266.96 266.96 266.133 265.408 266.223 262.083C266.262 260.663 265.773 258.245 265.94 256.915C266.455 252.827 267.475 248.685 268.312 244.641L268.095 244.433C264.478 245.113 265.142 248.826 262.52 249.433C261.485 249.309 260.895 248.689 260.04 248.035C261.662 238.042 269.652 234.445 278.215 231.275ZM96.41 238.118C98.811 238.192 108.595 244.007 111.687 244.905C113.61 245.463 123.1 248.966 123.691 250.507C124.399 252.357 122.296 258.163 121.111 260.045C119.763 260.775 118.007 261.192 116.502 262.07C113.353 263.905 110.142 265.941 107.124 267.973C107.064 268.013 107.003 268.052 106.942 268.092L106.636 268.291C102.757 270.818 94.8663 273.173 99.16 265.248C99.9993 263.698 101.107 262.247 102.238 260.9C104.534 258.168 106.779 256.751 110.197 255.808C108.008 254.281 105.539 253.495 103.188 252.148C101.151 250.98 95.5379 247.308 94.3807 245.47C93.627 244.273 95.7224 239.494 96.41 238.118ZM376.668 234.682C377.632 234.734 377.943 234.84 378.708 235.355C381.815 241.414 363.574 250.357 363.565 254.097C366.258 256.365 377.487 254.373 380.022 259.587C379.887 263.145 372.066 263.803 369.315 264.43C367.91 264.93 359.307 264.646 357.639 264.251C355.674 263.783 352.793 262.877 351.753 261.025C351.245 260.12 351.255 259.1 351.527 258.123C352.142 255.925 353.885 253.875 355.44 252.26C358.508 249.074 362.48 246.394 365.895 243.543C369.513 240.522 372.5 237.023 376.668 234.682ZM190.138 207.862C193.354 207.326 212.927 213.784 201.43 220.436C199.496 220.075 193.648 218.312 192.726 218.24C186.752 217.771 172.592 218.625 167.517 221.219C165.311 222.599 160.44 226.773 158.536 227.381C152.788 229.215 157.066 220.206 158.805 218.434C161.451 215.737 165.215 214.503 168.552 212.804C173.917 210.197 179.805 209.211 185.598 208.142C186.717 207.945 188.853 207.98 190.138 207.862ZM302.102 201.833C304.385 201.562 310.637 203.414 313.465 203.573C316.195 203.726 322.924 207.537 324.082 210.203C325.847 214.26 327.242 217.121 322.772 219.837C320.88 218.391 318.362 217.645 316.377 216.604C306.322 211.332 306.052 211.283 295.223 212.07C289.61 212.372 287.825 212.589 282.51 214.87C281.36 215.363 279.302 215.839 278.13 216.466C276.525 217.337 275.005 218.844 273.307 219.477C272.51 219.883 270.735 218.809 270.805 217.925C271.772 205.613 295.2 202.795 302.102 201.833Z" fill="#4B4746"/>
<path fill-rule="evenodd" clip-rule="evenodd" d="M180.813 241.496C184.513 241.65 188.612 242.088 192.036 243.557C194.495 244.612 202.569 247.259 203.349 249.671C205.529 258.242 204.484 265.309 199.953 272.959C196.131 279.412 193.441 281.115 186.762 284.077C183.489 283.135 180.891 284.057 177.784 282.185C178.566 281.017 181.664 279.912 182.672 278.147C186.19 271.977 186.209 265.43 186.581 258.622C186.561 258.981 186.904 257.355 186.905 257.357C186.623 257.084 186.006 256.372 185.93 255.999C184.801 250.464 183.818 246.363 180.813 241.496ZM280.7 239.929C286.745 237.764 290.788 238.919 297.008 240.138C301 239.5 299.623 241.262 303 241.499C304.895 243.326 305.5 241.5 306.853 243.999C307.4 244.573 307.855 244.938 308.11 245.681C311.775 253.147 310.128 262.15 305.338 268.712C299.273 277.02 293.097 283.647 281.93 280.112C281.387 279.937 280.91 279.681 280.455 279.339C280.72 279.169 281.856 278.45 282.005 278.27C289.915 268.615 288.138 248.769 280.7 239.929Z" fill="#FEFEFE"/>
</g>
<defs>
<clipPath id="clip0_64_3501">
<rect width="480" height="480" fill="white"/>
</clipPath>
</defs>
</svg>
