<svg width="480" height="480" viewBox="0 0 480 480" fill="none" xmlns="http://www.w3.org/2000/svg">
<g clip-path="url(#clip0_64_3527)">
<path fill-rule="evenodd" clip-rule="evenodd" d="M286.603 314.231C287.238 314.276 287.636 314.432 288.236 314.622C289.833 316.027 289.005 318.128 288.323 319.838C283.67 331.493 264.038 339.862 252.41 334.817L250.69 334.088C249.994 333.82 248.755 333.405 248.333 332.795C246.783 330.558 248.693 326.7 250.323 325.183C252.685 324.625 254.045 326.39 256.077 326.856C267.017 329.348 279.195 321.035 286.603 314.231ZM230.475 229.978C231.343 230.204 231.783 230.25 232.039 231.203C232.684 233.601 232.38 237.098 232.259 239.579C232.14 242.018 232.065 244.623 231.864 246.99C231.581 251.305 230.454 255.426 230.222 259.753C229.644 270.535 227.896 282.433 229.83 293.12C230.241 295.388 233.134 299.7 234.365 301.81C246.148 307.764 254.005 294.32 257.473 295.173C257.693 295.485 257.918 295.866 257.898 296.253C257.65 301.038 256.275 303.755 253.308 307.055C251.67 308.935 247.356 312.593 245.273 314.535C237.91 316.225 237.755 315.86 230.473 313.42C229.609 312.417 225.161 308.2 224.923 307.62C221.884 300.218 221.099 291.343 220.975 283.37C220.921 279.895 221.567 276.55 221.85 273.106C222.105 261.208 223.794 249.39 225.694 237.657C226.111 235.081 227.982 231.335 230.24 229.919L230.475 229.978ZM171.458 248.309C174.626 247.439 196.609 243.591 199.236 244.378C201.492 245.054 202.678 246.372 203.692 248.395C203.159 250.17 202.104 252.427 201.389 254.242C205.666 260.932 205.678 269.768 204.383 277.438C203.248 284.163 199.044 292.095 193.219 295.768C190.232 297.658 183.907 298.985 180.302 299.973C177.908 299.22 175.133 298.613 173.336 296.875C173.264 295.675 168.535 295.785 166.589 294.72C157.798 289.907 157.657 276.277 159 267.612C159.248 266.015 161.088 261.058 160.749 260.08L159.51 259.798C159.249 259.365 159.192 259.442 159.365 258.85C160.457 255.122 163.417 252.233 166.634 250.36C168.144 249.467 169.767 248.776 171.458 248.309ZM282.878 239.319C285.933 238.917 288.088 238.351 290.872 239.984C295.637 238.906 305.9 239.981 310.47 242.226C311.145 242.557 313.5 245.145 314.18 245.872C312.307 248.403 312.88 248.145 311.88 250.898C312.08 253.825 313.525 256.673 313.37 259.62C312.635 273.613 305.008 293.143 289.388 295.718C286.258 296.233 278.758 294.26 277.72 290.883L274.813 291.713C271.578 290.78 270.878 290.737 269.635 287.582C268.838 285.557 267.866 283.652 267.191 281.513C266.483 279.265 266.948 277.355 266.778 275.06C266.57 271.957 266.29 268.903 266.683 265.798C267.108 262.438 266.882 258.587 267.72 255.332C268.368 252.815 270.295 250.23 271.813 248.206C270.49 247.962 270.191 248.122 269.338 247.278C269.126 246.459 268.98 246.014 269.495 245.253C272.758 240.423 277.613 240.013 282.878 239.319ZM100.774 234.297C106.433 233.675 111.665 234.959 116.361 238.106C117.705 239.007 119.279 239.9 120.31 241.197C128.191 251.11 123.938 265.828 115.191 273.688C113.452 275.238 111.316 275.143 109.255 277.025C102.333 273.968 101.774 276.513 97.1262 268.848C95.3897 263.973 100.164 254.483 104.758 252.505C108.618 250.842 109.818 251.073 113.589 248.288C111.339 245.892 108.699 244.539 105.467 244.003C92.0207 241.774 96.9467 248.185 93.3684 250.532C92.5727 251.055 91.4578 251.64 90.4875 251.305C89.8371 251.082 89.4141 250.545 89.1711 249.927C88.3831 247.92 89.011 245.272 89.926 243.415C91.9373 239.333 96.5357 235.768 100.774 234.297ZM372.198 235.045C375.642 234.752 376.447 236.126 378.747 238.428C376.302 244.194 376.025 244.202 370.367 243.269C370.122 243.229 367.425 243.913 366.797 243.993C364.87 246.365 363.775 248.071 362.335 250.77C363.775 250.09 364.953 249.511 366.585 249.313C384.5 247.134 382.925 260.422 373.568 270.77C370.323 273.747 367.162 274.273 362.985 275.478C361.372 274.99 357.667 273.983 356.36 273.183C354.152 271.828 351.915 268.168 351.927 265.44C351.974 254.976 358.365 242.327 367.082 236.447C367.635 236.073 371.392 235.235 372.198 235.045ZM112.76 258C109.163 260.225 106.543 258.345 103.743 263.138C104.938 264.223 107.365 266.918 108.542 267.24C111.595 267.183 112.419 267.087 114.735 264.777C117.911 261.61 118.188 258.105 112.76 258ZM366.037 257.595C364.572 257.747 362.315 257.923 360.93 258.183C359.947 259.338 359.645 259.715 358.85 261.025C360.82 263.44 362.468 265.97 365.505 266.902L366.058 266.805C375.625 264.705 374.63 257.675 366.037 257.595ZM192.864 215.361C200.038 215.215 205.736 218.79 196.906 223.157C192.063 225.553 190.011 225.496 185.156 226.586C184.387 228.215 183.252 226.949 181.62 227.112C177.928 227.482 174.494 229.592 170.849 230.208C169.471 230.505 168.188 231.354 166.933 232.058C165.9 231.823 163.309 231.225 163.452 229.946C164.09 224.236 169.598 220.907 174.312 219.394C180.847 217.295 186.233 215.742 192.864 215.361ZM288.202 207.343C289.225 207.338 290.9 207.655 291.973 207.856C300.688 209.485 310.355 207.471 314.803 216.982C313.913 218.426 312.475 221.302 310.745 221.52C310.37 221.22 309.995 220.919 309.625 220.615C305.753 220.821 305.413 220.542 301.83 219.9C299.605 219.485 297.338 218.461 295.026 218.047C289.698 217.092 283.561 215.913 278.173 216.219C276.388 216.32 274.673 217.339 273.733 215.143C273.723 214.458 273.822 214.036 274.247 213.492C278.862 207.591 281.783 208.282 288.202 207.343Z" fill="#4B4746"/>
<path fill-rule="evenodd" clip-rule="evenodd" d="M201.39 254.242C205.667 260.932 205.677 269.767 204.383 277.438C203.247 284.162 199.044 292.095 193.219 295.768C190.232 297.657 183.907 298.985 180.302 299.973C177.908 299.22 175.133 298.612 173.336 296.875C173.374 296.64 173.496 296.29 173.567 296.05C176.568 294.305 178.663 291.988 179.856 288.735C183.06 280 184.737 263.595 181.177 255.188C182.541 254.775 183.943 254.293 185.373 254.205C188.257 254.03 199.257 255.532 200.86 254.38C200.944 254.32 201.015 254.245 201.092 254.178L201.39 254.242ZM287.353 246.688C293.147 247.122 298.495 247.761 304.112 249.274C305.905 249.757 305.328 248.954 307.098 250.122C308.985 250.02 310.7 249.196 311.84 249.702L311.88 250.897C312.08 253.825 313.525 256.673 313.37 259.62C312.635 273.613 305.008 293.143 289.388 295.718C286.258 296.233 278.759 294.26 277.721 290.883C288.611 284.773 294.085 264.17 290.768 252.482C290.148 250.29 288.788 248.428 287.353 246.688Z" fill="#FEFEFE"/>
</g>
<defs>
<clipPath id="clip0_64_3527">
<rect width="480" height="480" fill="white"/>
</clipPath>
</defs>
</svg>
