<svg width="480" height="480" viewBox="0 0 480 480" fill="none" xmlns="http://www.w3.org/2000/svg">
<g clip-path="url(#clip0_64_3175)">
<path d="M241.105 307.997C242.25 307.937 242.95 307.983 243.867 308.673C244.291 309.327 244.483 309.87 244.361 310.712C242.85 322.299 231.469 329.897 221.685 334.42C216.588 336.775 205.844 336.877 200.822 334.322C198.941 333.365 195.317 331.267 193.958 329.688C192.886 328.155 192.445 327.377 191.585 325.707C192.073 324.204 193.711 315.502 196.53 318.492C200.957 323.185 206.97 326.03 213.483 326.112C220.75 326.205 229.587 321.732 234.325 316.287C236.659 313.66 238.613 310.229 241.105 307.997ZM176.832 229.128C178.604 229.245 179.603 230.107 179.814 231.951C180.045 233.965 179.179 236.228 179.261 238.229C179.385 241.246 179.686 244.275 179.59 247.302C179.244 253.853 178.577 258.685 179.32 265.438C180.169 273.155 180.932 279.543 187.235 284.893C190.39 287.39 195.527 288.778 199.425 289.285C201.226 289.517 203.723 287.448 205.996 289.752C207.958 291.739 205.779 295.03 204.509 296.808C203.684 297.963 202.839 299.115 201.877 300.143C200.95 301.097 200.201 301.12 198.941 301.077C197.802 301.097 196.73 301.647 195.652 301.689C194.93 301.717 193.028 300.522 192.254 300.657C192.244 300.657 191.17 301.275 190.474 301.433C184.933 299.39 176.08 291.63 173.56 286.228C172.48 282.948 169.397 273.972 169.698 270.877C170.772 259.847 168.022 237.249 176.832 229.128ZM141.036 256.16C144.87 255.73 162.158 246.574 164.868 251.71C165.107 253.522 162.969 255.495 161.703 257.157C168.899 266.72 167.26 280.768 162.451 291.04C161.719 292.603 160 294.523 158.618 295.518C156.008 297.377 152.756 298.097 149.605 297.515C147.065 297.05 147.423 296.735 145.934 296.272C142.841 295.872 141.133 293.757 139.511 291.3C136.5 287.11 137.373 281.54 136.333 277.025C135.061 271.505 135.445 271.67 136.732 266.117C127.539 266.322 135.61 256.765 141.036 256.16ZM217.593 243.928C220.12 243.751 222.954 244.232 225.508 244.204C232.881 243.909 240.132 244.138 247.491 244.62C249.406 244.746 251.688 244.591 253.66 244.661C259.325 244.863 260.405 245.782 264.115 249.806C262.928 251.61 262.063 253.363 260.12 254.2C258.705 254.17 258.815 253.45 257.668 253.308L257.271 253.718C260.593 259.46 259.608 264.853 258.445 271.123C256.388 282.23 243.219 292.305 232.325 285.938C230.76 286.04 229.585 285.858 228.111 285.311C217.234 281.263 217.559 268.17 218.815 258.633C219.01 257.155 220.732 253.001 221.239 251.548C219.022 251.615 213.048 253.39 212.878 249.646C212.793 247.774 215.635 244.065 217.593 243.928ZM351.758 233.019C353.168 233.159 355.162 233.773 356.147 234.819C357.092 237.791 351.825 240.336 349.822 241.463C347.032 243.031 345.448 249.027 344.588 251.963C350.628 249.686 353.9 248.944 358.635 254.367C360.525 261.232 357.407 269.83 351.895 274.085C345.21 278.102 342.745 277.275 336.447 273.603C335.425 271.05 334.32 266.058 333.21 262.936C335.39 258.346 335.715 253.647 337.473 249.434C339.575 244.393 346.675 234.945 351.758 233.019ZM349.003 268.14C349.895 262.41 349.395 261.525 343.375 262.115C343.143 262.555 342.933 262.71 343.107 263.027C344.287 265.155 346.537 267.192 348.715 268.032L349.003 268.14ZM156.385 223.266C157.088 223.218 157.071 223.256 157.753 223.482L157.948 223.921C157.281 227.152 147.931 233.092 144.962 234.332C142.058 235.545 136.125 237.416 133.049 238.049C131.825 237.799 131.551 237.863 131.157 236.649C131.452 234.516 133.955 232.148 135.471 230.559C141.074 229.199 142.933 227.898 147.87 225.228C149.085 224.57 154.277 223.966 156.385 223.266ZM215.258 208.61H215.257L215.829 208.8C216.043 209.338 216.285 209.839 216.353 210.32C216.285 209.839 216.043 209.338 215.829 208.8C222.505 211.614 230.336 212.914 237.161 215.888C243.117 218.482 245.033 216.701 248.78 223.396C244.216 229.002 245.002 225.451 239.883 227.856C236.467 225.829 231.48 225.486 227.567 223.987C221.415 221.631 212.691 219.351 207.488 215.198C205.387 213.52 210.077 209.179 211.724 208.107L215.258 208.61Z" fill="#4B4746"/>
<path fill-rule="evenodd" clip-rule="evenodd" d="M161.702 257.157C168.898 266.72 167.26 280.768 162.451 291.04C161.719 292.602 160 294.523 158.618 295.518C156.008 297.378 152.755 298.097 149.604 297.515C147.064 297.05 147.422 296.735 145.933 296.272C147.338 295.48 149.409 294.64 150.706 293.845C153.891 291.892 155.452 286.435 156.278 283.027C158.521 273.783 157.32 269.537 152.081 261.423C156.809 260.073 157.891 261.295 161.702 257.157ZM243.537 253.7C246.909 252.605 250.203 253.645 253.891 254.075C254.4 254.54 255.02 255.297 255.562 255.305C255.498 254.67 255.443 254.469 255.535 253.832C256.323 253.842 256.466 253.855 257.271 253.718C260.593 259.46 259.608 264.852 258.445 271.122C256.388 282.229 243.22 292.304 232.326 285.937C236.389 285.352 237.814 284.662 240.132 281.14C244.943 273.827 247.952 261.75 243.537 253.7Z" fill="#FEFEFE"/>
</g>
<defs>
<clipPath id="clip0_64_3175">
<rect width="480" height="480" fill="white"/>
</clipPath>
</defs>
</svg>
