<svg width="480" height="480" viewBox="0 0 480 480" fill="none" xmlns="http://www.w3.org/2000/svg">
<g clip-path="url(#clip0_64_3835)">
<path fill-rule="evenodd" clip-rule="evenodd" d="M333.603 285.58C335.392 285.458 335.525 287.15 335.032 288.16C332.177 294.027 321.992 296.277 316.827 299.519C316.552 301.177 322.303 302.617 323.678 303.609C330.33 308.422 328.865 309.292 323.798 313.417C320.763 312.184 318.933 312.934 315.445 311.564C310.593 309.504 301.463 308.362 299.798 302.515C299.941 300.53 304.297 296.513 305.975 295.88C309.557 294.53 313.27 293.63 316.917 292.237C320.124 291.017 323.3 289.707 326.433 288.305C328.99 287.147 330.74 285.825 333.603 285.58ZM162.466 275.39C164.396 275.835 165.553 277.86 166.75 279.343C168.676 281.728 171.501 284.078 173.815 286.15C175.208 287.395 178.345 290.507 179.532 291.317C186.485 296.127 192.971 298.955 201.456 299.665C207.288 300.155 208.593 300.237 214.449 299.08C219.538 298.072 224.228 296.945 229.102 295.03C230.55 294.46 232.297 292.93 233.776 292.263C235.652 291.453 237.461 290.52 239.282 289.612C241.046 288.735 243.756 286.378 245.712 286.607C247.563 288.56 242.38 293.565 241.089 294.835C240.058 295.853 235.789 300.512 234.743 301.03C230.835 302.968 224.353 305.285 220.108 306.695C219.115 307.153 214.449 307.527 213.846 307.92C209.865 310.65 207.304 307.745 203.142 308.82C198.146 310.113 187.482 307.395 182.719 305.19C179.944 303.905 169.284 296.037 167.183 293.622C161.838 287.482 155.295 282.519 162.466 275.39ZM213.283 200.214C213.689 200.265 214.111 200.358 214.516 200.436C215.922 202.429 210.706 211.567 210 213.786C205.765 227.105 199.096 239.194 193.326 251.849C191.758 255.287 192.162 263.049 189.5 265.099C187.642 265.342 185.023 265.064 183.43 264.122C181.973 263.262 182.744 260.462 182.035 258.442C180.772 253.875 181.911 252.267 179.186 247.786C179.297 247.12 179.426 246.156 179.64 245.526C183.05 235.464 185.733 232.714 191.319 243.754C194.079 237.77 196.662 232.015 199.007 225.842C199.97 223.305 201.712 220.697 202.744 218.12C205.113 212.205 207.701 203.816 213.283 200.214ZM251.758 210.039C262.338 210.35 273.665 214.648 281.305 221.96C287.95 228.32 289.7 236.052 282.476 242.825C278.218 233.567 272.253 227.975 263.828 222.655C263.203 225.363 262.96 228.257 262.32 230.97C261.763 233.328 260.88 235.759 260.083 238.057C257.168 245.724 251.88 256.827 242.978 258.46C241.896 257.992 240.973 257.447 240.104 256.635C238.356 254.985 237.345 252.699 237.302 250.297C237.205 246.607 239.115 241.644 240.097 238.005C242.034 230.823 246.99 224.406 251.968 218.998C242.202 217.115 242.379 216.829 232.5 220.123C231.705 219.872 231.761 219.893 231.254 219.225C231.097 218.438 231.122 218.001 231.496 217.255C233.673 212.91 236.404 211.705 240.513 210.061C244.146 210.294 248.126 210.001 251.758 210.039ZM158.575 182.856C159.524 182.662 163.145 183.133 164.414 183.108C174.66 182.906 189.269 189.522 190.703 200.831C191.387 206.223 186.043 204.264 183.457 201.936C181.344 200.035 179.965 199.185 177.954 196.864C176.823 199.507 176.693 202.158 175.882 204.895C174.188 210.615 172.256 217.203 169.379 222.459C168.621 223.844 166.616 226.265 165.581 227.556C163.067 230.303 161.957 231.774 158.672 233.466C141.828 233.437 159.574 200.312 165.202 194.936C165.774 194.39 166.996 193.301 167.228 192.598C166.471 192.159 165.014 192.019 164.162 191.8C159.945 190.705 156.119 190.255 151.752 190.551C150.083 190.664 147.003 190.883 146.747 188.788C147.015 188.047 147.225 187.648 147.785 187.086C151.675 183.178 153.601 183.177 158.575 182.856ZM250.077 182.04C252.165 181.833 254.12 182.389 256.122 182.396C264.552 182.387 273.535 183.885 281.305 187.011C287.855 189.646 293.305 191.045 297.885 196.697C298.68 197.369 300.312 198.423 301.02 199.08C303.475 201.352 309.517 212.348 302.965 213C302.04 213.092 301.813 212.752 301.11 212.307C296.205 207.372 295.052 209.845 291.322 202.695C286.055 201.12 282.84 196.906 277.86 194.531C276.678 193.688 275.105 194.05 273.825 193.646C268.93 192.105 264.275 190.867 259.162 190.285C257.305 190.074 255.002 189.393 253.024 189.139C250.702 188.84 245.534 189.308 244.095 187.515C243.769 184.958 247.959 182.631 250.077 182.04ZM158.576 149.851C172.384 148.886 189.005 151.832 200.646 159.883C201.928 160.769 203.089 163.102 204.197 164.165C209.735 169.477 206.64 173.715 199.655 170.17C197.892 169.048 195.291 168.284 193.519 167.191C184.055 161.357 173.606 158.527 162.59 157.658C159.671 157.428 150.236 158.42 149.042 155.788C148.966 153.88 151.079 152.976 152.356 151.975C154.703 150.138 155.654 150.043 158.576 149.851Z" fill="#4B4746"/>
</g>
<defs>
<clipPath id="clip0_64_3835">
<rect width="480" height="480" fill="white"/>
</clipPath>
</defs>
</svg>
