<svg width="480" height="480" viewBox="0 0 480 480" fill="none" xmlns="http://www.w3.org/2000/svg">
<g clip-path="url(#clip0_64_3439)">
<path fill-rule="evenodd" clip-rule="evenodd" d="M296.283 301.995C299.4 303.848 293.435 314.383 291.873 316.468C288.46 321.016 281.728 327.43 276.175 329.125C268.815 331.375 262.013 333.198 254.85 329.555L254.705 329.508C254.022 329.293 253.028 329.063 252.796 328.403C252.153 326.59 252.188 322.883 252.743 321.133C253.668 320.416 266.449 321.25 269.352 320.127C273.502 318.522 275.913 315.738 279.958 314.946C282.973 311.836 286.232 309.363 289.665 306.738C291.747 305.148 293.73 302.623 296.283 301.995ZM231.139 216.867C231.626 216.974 232.078 217.147 232.536 217.346C233.421 217.73 233.748 218.164 233.925 219.116C234.588 222.674 233.687 227.249 233.355 230.842C232.379 241.418 227.679 273.127 231.412 281.815C232.461 284.255 234.655 285.603 236.953 286.67C238.811 287.535 240.604 288.9 242.679 289.145C246.037 289.542 250.193 287.405 253.385 286.435C255.433 285.812 263.662 283.69 265.302 284.648C265.867 284.978 266.038 285.4 266.118 286.02C266.448 288.602 261.415 293.215 259.682 295.11C258.38 296.415 257.085 297.727 255.798 299.047C252.818 299.215 249.912 300.548 246.888 301.103C244.785 299.863 235.3 302.168 230.097 297.953C225.179 293.97 222.539 285.718 222.216 279.625C222.098 277.383 222.636 275.105 222.706 272.858C222.841 268.475 222.793 264.15 223.163 259.773C223.475 256.078 224.219 252.4 224.748 248.73C225.161 245.858 225.332 242.956 225.72 240.079C226.047 237.657 226.569 235.266 226.933 232.852C227.392 229.811 227.113 226.836 227.848 223.801C228.489 221.16 229.279 218.904 231.139 216.867ZM90.9772 229.638C96.3413 232.176 96.5583 234.416 100.988 237.921C105.76 241.697 112.332 245.175 115.819 250.454C117.995 253.749 112.387 259.23 111.753 261.507C112.406 262.94 114.037 264.342 114.99 265.677C121.358 274.595 114.02 274.525 107.383 272.292C104.412 270.822 103.612 270.154 101.702 267.454C99.1202 267.389 96.4547 265.492 94.1423 264.217C92.2906 263.195 84.2453 260.293 84.3024 258.118C84.3502 256.325 86.2326 250.889 87.5241 249.707C89.5049 247.893 96.2932 247.558 98.9108 247.635C95.7826 244.662 91.0998 240.027 88.695 236.663C89.218 234.151 89.559 231.811 90.9772 229.638ZM184.714 215.788C186.599 215.592 195.455 216.149 197.443 216.662C199.873 217.29 203.979 219.565 205.161 221.995C206.624 225.003 205.62 226.798 204.8 229.774C201.711 229.296 200.59 228.546 197.731 227.566C196.213 227.045 193.726 227.495 191.884 227.221C193.739 238.026 193.809 257.39 188.97 267.615C187.303 271.137 184.534 272.428 181.165 269.915L181.097 269.825C179.958 268.327 179.65 267.345 178.924 265.672C175.057 256.745 176.192 246.619 178.426 237.425C179.347 233.637 179.745 231.281 181.34 227.527C179.165 226.986 173.66 227.078 171.973 228.358C167.83 231.501 159.515 233.34 164.032 224.781C167.914 217.426 177.359 217.788 184.714 215.788ZM292.02 216.38C294.201 216.361 300.878 217.306 302.99 217.788C307.417 218.799 315.534 224.244 313.673 229.748C313 231.735 309.545 229.049 308.477 228.704C307.15 228.277 307.239 229.602 305.822 229.078C303.769 228.859 299.184 227.238 297.59 228.243C297.285 228.856 298.357 234.023 298.477 235.505C299.26 245.222 299.175 255.705 295.44 264.858C294.72 266.625 292.61 268.995 291.355 270.44C287.823 270.547 287.31 270.292 285.758 267.227C285.31 266.232 284.925 265.213 284.607 264.17C284.187 262.793 283.715 260.927 283.527 259.499C282.02 247.979 281.282 238.255 286.95 227.564C281.682 227.181 281.727 229.602 277.477 227.513C275.692 228.225 264.357 233.125 263.424 229.497C264.182 227.032 264.71 225.286 266.652 222.889C270.21 218.503 276.697 219.161 281.415 217.096C282.033 216.827 291.305 216.392 292.02 216.38ZM380.19 234.497C383.567 234.952 383.073 238.295 382.413 240.725C381.15 245.376 377.868 248.497 374.975 252.137C373.768 253.66 372.6 255.505 371.503 257.155C375.247 256.73 376.912 257.352 380.352 255.36C382.285 254.24 389.357 254.237 390.817 256.355C391.107 257.845 390.142 259.555 389.509 260.95C386.547 262.28 383.307 264.459 380.365 265.379C377.725 266.202 375.15 266.333 372.317 267.265L371.932 267.395C369.335 268.472 361.972 268.805 359.387 268.368C358.193 267.228 358.698 265.895 358.828 264.385C359.355 258.283 364.748 253.057 368.288 248.245C366.745 248.728 362.455 248.319 360.31 248.404C359.878 247.564 359.475 246.64 359.078 245.777C359.303 244.934 359.995 242.532 360.495 241.903C363.105 238.625 369.683 238.847 373.35 237.543C375.848 236.655 377.783 234.99 380.19 234.497ZM185.734 177.393C189.49 177.066 196.291 177.042 199.927 177.773C206.94 179.183 200.698 187.431 199.488 191.532L199.389 191.875C194.113 192.551 193.559 191.756 188.372 191.268C184.759 190.928 179.835 192.827 176.408 193.845C175.153 194.218 173.377 195.042 172.219 195.097C169.549 194.085 166.989 195.418 165.046 197.188C153.462 195.872 153.681 191.659 160.493 183.73C164.812 178.703 167.367 180.55 172.709 179.439C177.783 178.384 180.346 177.52 185.734 177.393ZM287.674 178.122C295.1 178.08 302.13 177.988 309.342 178.705C321.602 179.925 324.722 184.678 315.107 193.486C312.782 195.615 305.35 194.728 302.562 194.32C299.832 194.041 298.752 194.258 296.125 194.261C293.595 194.264 290.615 193.871 288.003 193.973C283.925 194.132 280.202 194.185 276.165 193.366C274.77 192.867 273.682 191.825 272.24 191.38C271.528 191.161 269.376 190.443 269.535 189.445C269.905 187.117 270.752 182.984 272.472 181.337C275.647 178.297 283.504 178.228 287.674 178.122Z" fill="#4B4746"/>
</g>
<defs>
<clipPath id="clip0_64_3439">
<rect width="480" height="480" fill="white"/>
</clipPath>
</defs>
</svg>
