<svg width="480" height="480" viewBox="0 0 480 480" fill="none" xmlns="http://www.w3.org/2000/svg">
<g clip-path="url(#clip0_64_3845)">
<path fill-rule="evenodd" clip-rule="evenodd" d="M263.803 223.505C264.46 223.397 264.75 224.213 265.292 224.407C266.172 224.722 267.432 224.365 268.412 224.775C270.78 225.767 273.6 229.008 276.235 228.917C276.99 228.891 276.875 228.861 277.7 228.994C279.388 231.102 284.347 237.13 284.81 239.262C283.952 249.434 277.16 259.985 269.622 266.578C264.657 270.92 260.392 272.265 253.872 271.505C250.295 271.088 246.247 268.78 244.234 265.755C258.365 261.49 262.777 243.013 264.175 230.169C264.407 228.046 263.765 225.7 263.803 223.505ZM173.48 194.404C174.42 194.126 176.324 194.771 177.308 195.084C179.591 194.384 183.296 195.124 185.328 196.217C188.302 197.818 191.938 202.56 191.599 206.058C191.872 206.35 192.166 206.603 192.336 206.944C193.944 213.839 190.283 225.712 186.521 231.368C184.404 234.55 179.824 240.269 175.887 240.792C169.08 241.697 164.831 242.894 159.009 238.879C159.237 238.243 163.296 235.9 164.174 234.407C170.783 223.164 174.402 209.491 173.601 196.45C173.54 195.46 172.921 195.455 173.48 194.404Z" fill="#FEFEFE"/>
<path fill-rule="evenodd" clip-rule="evenodd" d="M248.382 288.863C249.462 288.95 249.031 288.743 249.778 289.373C250.46 291.135 249.891 297.018 249.254 299.083C248.244 302.355 246.547 307.053 244.321 309.743C243.725 310.463 241.091 312.325 240.655 312.948C238.212 316.435 238.031 317.985 233.975 319.958C232.652 320.6 231.642 321.66 230.56 322.743C227.546 323.045 223.73 325.218 221.981 325.333C219.907 325.473 210.081 326.52 208.586 326.26C200.605 324.865 192.483 321.017 185.899 316.405C184.285 315.272 182.771 313.46 181.246 312.168C175.992 309.305 174.942 306.223 171.5 301.698C168.426 298.838 168.756 290.611 172.875 291.09C174.629 292.013 175.077 293.77 175.954 295.172C177.142 297.07 183.279 303.55 184.757 304.735C193.822 311.98 203.933 317.315 215.929 316.248C223.703 315.555 234.129 310.12 238.89 303.797C242.207 299.395 244.511 293.163 248.382 288.863ZM339.442 294.285C341.292 294.085 344.305 294.025 345.472 295.64C345.442 298.343 339.077 300.495 336.887 301.198C331.095 303.06 325.362 305.618 319.59 307.458C326.107 311.803 331.234 310.495 334.799 318.38C332.36 324.32 329.257 323.31 324.062 321.682C319.62 320.362 318.55 319.035 314.73 317.063C311.218 315.248 304.798 314.42 302.508 310.533C300.993 307.96 306.49 302.97 308.628 301.943C311.935 300.551 316.305 301.342 319.66 300.535C326.672 298.85 332.885 297.267 339.442 294.285ZM216.332 205.539C219.775 206.865 216.973 212.781 216.069 215.254C210.298 231.02 204.159 246.579 197.386 261.948C196.283 264.625 197.72 271.09 194.85 272.7C189.536 275.682 188.177 267.481 186.714 264.121C186.232 260.781 184.773 256.19 184.583 253.195C184.645 250.71 185.508 243.633 187.372 242.134C190.602 239.537 193.715 247.841 195.334 250.18L195.577 250.525C196.279 249.053 197.264 247.67 197.902 246.139C201.321 237.942 204.484 229.636 208.051 221.502C210.349 216.262 211.474 209.119 216.332 205.539ZM258.2 213.858C262.36 213.528 265.24 213.556 269.397 214.73C271.899 215.437 275.634 216.302 277.987 217.682C283.004 220.626 288.583 225.412 291.953 230.202C294.215 233.738 295.475 241.213 294.29 245.244C293.852 246.734 292.97 249.674 291.575 250.478C288.21 250.043 286.973 240.363 284.81 239.262C284.348 237.13 279.387 231.102 277.7 228.994C276.875 228.861 276.99 228.892 276.235 228.918C273.6 229.009 270.78 225.767 268.413 224.775C267.433 224.365 266.173 224.722 265.293 224.407C264.75 224.213 264.46 223.397 263.802 223.505C263.765 225.7 264.407 228.046 264.174 230.17C262.777 243.013 258.365 261.49 244.234 265.755C242.242 264.885 241.257 265.17 239.431 263.438C235.79 259.663 235.853 253.255 236.173 248.133C236.538 242.273 240.953 233.418 243.857 228.415C244.898 226.622 246.648 224.835 248.056 223.493C245.816 224.371 242.439 225.716 240.199 224.437C239.788 223.864 239.408 223.268 239.68 222.54C242.737 214.504 250.975 214.43 258.2 213.858ZM163.954 184.364C172.048 182.127 180.832 184.551 187.906 188.681C195.151 193.285 198.06 198.34 199.975 206.443C199.055 207.669 197.717 209.405 196.334 209.978C194.438 209.614 194.203 207.742 192.665 206.68L192.336 206.944C192.166 206.603 191.871 206.35 191.598 206.058C190.2 204.615 189.211 203.13 187.578 201.867C184.376 199.391 180.859 196.997 177.307 195.085V195.084C176.323 194.771 174.42 194.126 173.48 194.404C172.92 195.455 173.539 195.46 173.6 196.45C174.402 209.492 170.783 223.164 164.174 234.407C163.296 235.9 159.238 238.243 159.009 238.879C156.006 238.742 153.069 238.134 150.755 236.14C150.034 234.063 148.114 228.13 148.135 226.326C148.253 216.384 154.345 201.737 160.358 194.373L160.192 193.959L159.729 193.851C157.744 194.387 155.723 196.629 153.924 198.027C149.19 195.74 151.223 194.641 153.133 190.17C154.456 187.071 160.773 185.243 163.954 184.364ZM267.907 186.549C268.357 186.502 268.262 186.472 268.642 186.537C274.635 187.547 277.065 186.393 283.405 188.352C292.232 190.964 300.838 195.233 305.77 203.362C307.262 205.821 307.394 212.394 304.615 213.778C300.982 212.338 296.263 205.849 292.565 202.979L291.435 202.135C282.748 195.546 271.727 194.425 261.022 195.349C260.327 195.409 259.16 196.399 258.445 196.685C257.327 197.133 257.217 195.875 256.179 196.146C253.634 196.419 248.097 199.648 246.399 196.745C246.161 196.338 246.516 195.465 246.793 195.018C252.047 186.532 259.94 188.777 267.907 186.549ZM186.177 196.748V196.747V196.748ZM185.328 196.218V196.217V196.218ZM166.244 156.341C169.558 155.719 178.759 156.297 181.761 157.234C185.948 158.541 191.424 160.516 195.383 162.443C198.218 163.822 206.436 172.545 204.333 175.916C202.745 177.076 201.072 176.248 199.218 176.202C197.98 176.171 196.743 175.157 195.645 174.424C193.613 173.195 191.446 171.427 189.284 170.307C183.244 167.249 176.174 164.401 169.487 163.251C166.363 162.713 163.57 163.955 160.187 163.046C158.744 163.606 156.629 164.583 155.313 163.377C154.994 159.639 163.066 156.659 166.244 156.341Z" fill="#4B4746"/>
</g>
<defs>
<clipPath id="clip0_64_3845">
<rect width="480" height="480" fill="white"/>
</clipPath>
</defs>
</svg>
