<svg width="480" height="480" viewBox="0 0 480 480" fill="none" xmlns="http://www.w3.org/2000/svg">
<g clip-path="url(#clip0_64_3605)">
<path fill-rule="evenodd" clip-rule="evenodd" d="M211.688 288.99C212.461 288.945 212.398 288.888 213.131 289.051C212.998 298.123 225.612 306.881 233.378 309.618C239.67 311.541 248.571 309.808 254.173 312.926C256.092 313.996 250.565 319.258 249.355 319.963C247.089 319.028 243.874 320.863 241.634 321.811C238.928 320.756 237.099 321.223 234.768 320.521C231.414 319.508 226.189 318.233 223.236 316.405C216.559 312.275 211.927 305.186 207.995 298.566C208.416 295.171 208.436 290.898 211.688 288.99ZM142.292 285.481C144.208 284.848 148.17 283.96 148.59 286.943C149.077 290.402 147.723 295.665 145.807 298.582L146.39 298.79H146.391C148.649 298.185 156.865 297.45 158.973 298.388C162.52 302.701 135.113 318.647 130.553 316.2C129.752 315.77 129.184 314.168 128.83 313.273C129.625 308.663 130.602 305.853 133.367 302.106H133.366L132.974 301.335C128.826 303.645 127.125 304.077 122.637 302.595C123.012 301.05 123.5 298.795 124.146 297.455C126.396 292.79 131.396 291.402 135.578 289.215C137.804 287.857 139.789 286.306 142.292 285.481ZM144.4 300.865C144.287 300.939 144.172 301.001 144.057 301.048L143.884 301.108C144.057 301.06 144.23 300.976 144.4 300.865ZM295.226 212.992C295.988 212.962 296.78 212.91 297.468 213.303C300.648 215.12 305.847 229.855 307.42 233.885C308.542 236.761 309.81 239.574 310.817 242.495C312.762 248.132 314.077 253.941 315.5 259.721C316.25 262.763 317.312 265.983 317.595 269.096C318.085 274.503 317.403 281.883 314.963 286.811C313.113 290.548 310.555 292.798 306.593 294.141C301.138 295.988 297.273 296.11 291.646 295.865C289.781 295.783 287.958 295.766 286.143 295.278C284.74 294.901 283.413 294.171 282.115 293.533C278.325 291.413 277.888 291.096 275.268 287.668C275.305 286.731 275.275 284.851 275.96 284.216C279.055 281.421 283.975 281.823 287.853 281.963C294.098 282.191 300.128 282.343 306.36 282.07C307.338 281.411 308.242 280.571 309.135 279.791C308.845 277.776 308.71 276.698 308.093 274.783C308.423 273.626 309.19 271.083 308.923 270.016C307.645 264.881 305.598 259.883 304.405 254.666C303.62 252.261 302.192 249.855 301.335 247.51C299.433 242.297 300.875 237.55 295.686 234.186C296.131 228.036 292.671 226.443 291.146 221.319C291.766 218.594 293.006 214.82 295.226 212.992ZM246.523 224.289C255.482 224.22 253.717 238.962 254.015 244.881C254.262 249.801 252.977 254.69 251.457 259.315C250.2 263.147 248.684 263.447 245.253 265.1C243.05 265.092 242.565 264.747 240.743 263.64C240.009 260.82 237.407 255.967 237.29 253.497C236.897 245.219 237.753 228.468 246.523 224.289ZM332.768 213.283C343.485 212.636 341.104 226.036 341.252 232.963C341.357 237.939 337.752 247.158 333.97 250.373C331.242 248.471 330.262 248.118 327.167 246.815C326.172 241.715 324.727 234.204 325.885 229.102C327.082 223.804 328.118 216.474 332.768 213.283ZM230.158 188.385C234.64 188.206 252.36 188.28 255.955 192.214C257.548 193.959 253.558 203.367 252.958 206.557L252.885 206.962C243.561 205.434 232.07 202.644 222.806 205.551C222.16 205.744 220.382 205.882 219.535 206.046C216.425 206.665 213.326 207.342 210.241 208.077C208.294 208.557 202.593 211.476 201.21 210.727C200.524 209.777 200.353 208.777 200.037 207.634C200.777 205.581 203.073 199.598 204.794 198.118C207.577 195.725 216.441 190.491 219.913 189.394C221.068 189.029 228.783 188.468 230.158 188.385ZM345.63 171.097C359.612 170.082 349.357 181.274 345.947 186.865C339.397 184.473 333.673 187.657 327.615 189.614C322.04 191.416 320.287 192.709 315.779 196.317C314.792 197.162 313.245 198.53 311.955 198.743C311.473 198.823 310.99 198.714 310.643 198.342C310.203 197.871 310.015 197.285 309.955 196.655C309.748 194.467 314.205 185.863 315.825 183.901C317.438 181.949 319.425 180.177 321.575 178.836C323.288 177.769 325.348 177.072 327.21 176.305C333.277 173.802 339.035 171.742 345.63 171.097Z" fill="#4B4746"/>
</g>
<defs>
<clipPath id="clip0_64_3605">
<rect width="480" height="480" fill="white"/>
</clipPath>
</defs>
</svg>
