<svg width="480" height="480" viewBox="0 0 480 480" fill="none" xmlns="http://www.w3.org/2000/svg">
<g clip-path="url(#clip0_79_2775)">
<path d="M255.173 78.5544C256.233 78.4588 257.915 78.9707 258.992 78.863C265.072 78.2543 271.007 78.9058 277.072 79.2888C279.022 79.4783 280.955 79.9406 282.885 80.2361C283.915 80.3941 285.335 79.9645 286.372 80.0466C295.117 80.7399 302.445 84.2595 309.84 88.7097C310.367 89.0272 310.538 89.0346 311.138 88.9861C312.24 88.9272 313.237 89.5147 314.247 89.9002C318.87 91.6682 321.595 94.378 322.695 99.3025C323.505 102.93 324.215 103.723 323.385 107.628C324.46 106.69 325.705 105.296 326.94 104.649C327.836 104.18 337.969 102.694 339.407 102.793C342.71 103.02 346.118 103.844 349.258 104.879C352.48 103.653 355.63 104.281 358.598 105.69C360.095 106.403 367.145 109.656 367.945 110.257C370.635 112.534 380.717 119.845 381.633 122.927C383.378 128.806 384.82 137.298 384.765 143.36C384.717 148.657 381.213 154.477 380.008 159.529C379.598 161.241 380.185 163.971 379.843 165.774C378.78 171.635 376.562 179.081 374.622 184.683C374.077 186.253 370.98 191.32 370.14 193.249C367.287 199.791 363.918 206.054 360.933 212.563C359.465 215.769 356.65 219.797 355.082 223.007C351.635 230.057 347.635 235.932 342.857 242.118C341.313 244.12 338.94 245.969 337.128 247.699C334.775 249.945 335.685 250.39 332.27 251.557C331.25 251.895 330.225 252.221 329.195 252.533C327.733 251.911 326.363 251.767 324.793 251.602C320.698 251.167 318.14 249.817 315.058 247.149L314.91 246.759C314.03 244.369 314.038 243.009 313.44 240.98C312.26 236.957 311.22 234.232 311.52 229.859C311.662 227.786 312.388 225.754 312.75 223.744C312.942 222.674 311.997 221.715 312.47 220.118C313.945 215.11 314.92 212.407 315.645 207.167C314.365 207.158 313.205 207.795 311.963 207.886C310.568 207.989 308.763 207.695 307.405 207.655C302.55 207.51 299.517 206.592 296.14 202.909C291.925 198.312 289.44 195.261 287.338 189.421C282.913 192.512 278.065 195.761 272.987 197.444C269.64 198.555 267.035 200.14 264.255 202.301L264.31 202.201C256.235 202.437 255.542 204.143 249.228 206.036C248.517 205.521 247.547 204.77 246.809 204.351C240.935 205.241 234.95 203.764 230.164 200.245C225.84 197.068 222.376 191.683 221.392 186.357C221.09 184.725 222.014 176.979 222.48 175.212C217.106 178.284 210.751 178.988 205.203 181.812C202.332 183.274 197.262 187.47 194.412 186.029C192.327 186.165 190.163 189.561 188.583 190.216C184.912 191.738 181.073 191.601 177.174 193.457C175.123 194.433 171.154 196.988 168.917 197.74C168.863 197.756 167.902 197.306 167.722 197.217C162.018 198.679 137.724 207.019 133.18 204.684C134.341 202.923 137.137 204.046 137.432 202.455C136.142 202.096 133.752 202.724 132.685 203.519C130.912 204.566 130.026 205.626 128.42 206.695C125.574 206.536 123.078 205.74 120.368 205.288C113.782 204.189 102.936 202.41 98.1777 197.324C94.6245 193.526 92.0743 186.569 92.6348 181.312C93.2825 175.237 93.994 168.726 97.7969 163.718C92.8504 162.287 90.9193 161.05 86.3213 158.946C84.7748 155.3 85.6889 155.471 83.292 151.508L83.4023 151.11C84.0061 148.893 83.9887 145.728 84.5322 144.383C87.3857 137.317 94.2466 128.547 100.079 123.594C105.118 119.74 110.552 116.389 115.92 113.018C117.787 111.846 120.315 110.996 122.071 109.851C130.371 104.439 138.48 101.905 147.809 98.7996C163.728 93.4446 179.992 89.171 196.487 86.0086C199.997 85.3573 203.665 85.7221 207.024 85.0183C213.107 83.7446 218.939 82.0083 225.193 81.6541C226.9 81.5576 228.722 81.5008 230.422 81.2878C232.915 80.7319 234.86 79.497 237.588 79.2722C240.954 78.995 244.085 79.8191 247.354 79.8416C249.99 79.7413 252.57 78.7897 255.173 78.5544ZM325.213 246.894C325.195 247.767 325.132 247.951 325.577 248.717C326.415 249.375 329.61 249.739 330.888 249.898L330.872 249.3C329.25 247.849 327.308 247.495 325.213 246.894ZM330.393 242.269C329.04 242.814 326.215 243.69 325.683 244.894L325.91 245.166C327.128 244.414 330.1 243.142 330.58 242.557L330.393 242.269ZM328.907 217.898C328.052 218.659 327.858 218.753 327.365 219.745C327.405 220.196 327.32 220.228 327.527 220.468C328.375 219.941 328.72 219.831 329.202 219.004L329.218 218.216L328.907 217.898ZM332.575 204.976L332.14 204.709C331.017 205.152 330.9 205.237 330.072 206.117C328.682 207.203 327.348 207.336 325.923 208.416V208.67C327.695 208.852 329.857 208.008 330.795 206.451C331.555 205.8 332.275 205.657 332.747 204.792L332.39 204.61L332.575 204.976ZM315.5 198.729C314.118 199.483 309.804 201.992 309.258 203.425L309.673 203.551C311.255 202.066 313.98 200.31 315.83 198.998C315.593 198.729 315.722 198.785 315.5 198.729ZM146.697 194.863C145.85 195.669 144.808 196.541 144.223 197.52C144.485 197.81 144.329 197.723 144.677 197.805C145.487 197.099 146.974 196.034 147.104 195.125L146.697 194.863ZM141.422 188.634C140.71 188.491 139.771 189.015 139.045 189.323C134.747 190.307 137.431 190.032 134.355 192.449C133.813 192.875 131.929 192.981 131.382 193.719C135.002 193.879 136.213 191.374 139.328 189.846C140.084 189.521 140.936 189.259 141.422 188.634ZM256.18 189.027C254.622 189.653 253.465 190.511 252.418 191.838L252.58 191.989C254.052 191.007 254.937 190.384 256.287 189.253L256.18 189.027ZM107.532 189.181C106.786 189.542 105.521 190.03 105.084 190.651C105.499 190.748 105.422 190.768 105.835 190.744C106.562 190.421 107.727 190.053 108.072 189.416L107.532 189.181ZM267.37 181.188C266.735 181.835 266.645 181.701 266.593 182.399C266.895 182.253 267.065 182.203 267.32 181.995L268.647 181.525L268.683 181.305C268.245 181.261 267.81 181.208 267.37 181.188ZM134.504 179.681C133.467 180.62 132.896 180.965 131.987 182.069L132.162 182.299L132.676 181.955C133.409 181.718 135.31 181.268 135.612 180.71C135.171 180.165 134.928 180.144 134.504 179.681ZM125.039 178.211C123.719 178.967 121.852 179.34 120.869 180.152L120.857 180.511L121.149 180.597C122.104 180.182 124.952 179.111 125.423 178.398L125.039 178.211ZM148.196 171.863C147.529 172.372 147.239 172.545 146.501 172.934L146.347 173.339L146.672 173.853C147.409 173.331 148.222 172.87 148.652 172.101L148.359 171.737L148.196 171.863ZM120.887 170.322L120.965 170.634C121.912 170.618 122.608 170.55 123.553 170.451L124.107 170.441C123.577 169.823 122.441 169.712 121.654 169.694L120.887 170.322ZM202.007 165.184C201.093 165.658 197.084 167.733 196.721 168.427C197.126 168.568 196.927 168.561 197.314 168.472C198.9 168.205 201.103 166.473 202.47 165.457L202.364 165.225L202.007 165.184ZM296.745 158.739C295.585 159.407 293.036 160.713 292.355 161.755L292.39 162.402C293.5 161.558 296.167 159.96 296.715 159.171L296.745 158.739ZM284.44 158.741C283.728 159.148 282.817 159.533 282.492 160.226L282.723 160.511C283.39 160.131 284.3 159.735 284.643 159.103L284.44 158.741ZM272.433 154.634C272.045 154.419 272.227 154.432 271.905 154.485C271.063 154.946 269.475 155.61 269.133 156.348L269.723 156.578C270.61 156.22 272.015 155.544 272.433 154.634ZM316.3 145.238C315.272 145.681 314.03 145.953 313.588 146.717L314.475 147.351C315.175 146.835 315.885 146.333 316.605 145.846L316.643 145.422L316.3 145.238ZM203.022 128.839C201.882 128.925 200.798 129.842 199.969 130.6L200.032 130.77C201.319 130.417 202.328 130.152 203.18 129.11L203.022 128.839ZM286.688 126.347C285.758 126.852 284.548 127.629 284.183 128.648L284.65 128.546C285.473 127.952 287.004 127.221 287.287 126.601L286.688 126.347ZM256.305 124.533C255.46 124.74 254.975 125.466 254.375 126.166C253.46 126.542 252.06 126.952 251.643 127.832C252.58 128.085 253.807 127.134 254.59 126.627C255.335 125.957 256.077 125.441 256.305 124.533ZM320.115 103.596C319.148 104.837 318.155 108.599 319.838 109.449C320.123 107.715 321.052 104.978 320.407 103.78L320.115 103.596ZM217.318 103.412C216.153 104.563 215.628 105.026 214.729 106.4L214.787 106.769L215.018 106.886C215.64 106.151 217.598 104.159 217.584 103.508L217.318 103.412ZM185.645 104.601C184.995 104.428 185.042 104.419 184.391 104.572C183.642 104.66 183.115 104.616 182.592 105.123L182.808 105.404C183.549 105.494 183.76 105.39 184.468 105.201L185.517 104.883L185.645 104.601ZM241.27 100.304C240.453 100.767 238.977 101.451 238.504 102.125L238.852 102.548C239.972 101.85 240.437 101.637 241.33 100.64C241.317 100.527 241.354 100.38 241.27 100.304ZM187.808 96.3738C187.217 97.3373 187.006 98.1117 187.321 99.2419L187.613 99.3464C187.812 98.4624 188.02 97.6072 188.146 96.7087L187.808 96.3738ZM282.285 89.6433C281.143 90.776 280.735 91.7854 281.442 93.3211L282.005 93.6775C281.42 91.4996 282.22 91.7991 282.585 89.905L282.285 89.6433ZM245.473 91.1209C244.078 92.4586 242.65 92.3938 242.041 93.2673C242.149 93.3518 242.244 93.4749 242.378 93.5037C243.497 92.9947 244.982 92.4538 245.81 91.6199L245.793 91.2478L245.473 91.1209ZM277.022 89.3572C275.66 89.6082 273.962 91.0839 273.027 92.0691L273.115 92.3347C273.223 92.2829 273.805 92.0086 273.883 91.9519C276.033 90.3974 276.35 90.5309 278.84 89.6169L278.645 89.3845C278.017 89.3495 277.66 89.3317 277.022 89.3572ZM268.3 87.449C266.327 87.7082 265.115 88.0001 263.423 89.0115L263.293 89.3054C264.538 89.4528 265.013 89.1741 266.195 88.7546C267.687 89.3333 267.95 89.9251 268.468 91.4099L268.697 91.4871C268.805 90.0393 268.435 89.3669 268.702 87.7332L268.457 87.4343L268.3 87.449ZM248.593 84.0232C248.13 84.8256 247.163 87.9034 247.354 88.6345C248.253 88.1448 249.033 87.6072 249.901 87.1082C250.96 86.5397 251.225 86.4386 252.09 85.6453L252.253 85.0779C251.373 83.9406 249.964 84.0587 248.593 84.0232ZM239.813 86.739C240.682 87.3909 242.104 86.8805 243.143 86.6658L243.081 86.24C241.884 85.9985 241.195 86.1967 239.96 85.9607L239.813 86.739Z" fill="#EDC43E"/>
<path d="M133.702 152.388C132.821 146.895 131.1 148.276 133.841 142.261C136.399 136.037 140.325 132.739 145.494 128.782C154.496 121.891 166.482 110.882 178.732 116.59C179.75 118.127 177.175 120.082 176.045 121.018C174.382 122.396 173.999 120.036 172.675 122.217C171.819 122.362 171.993 120.867 170.735 120.68C168.856 122.199 166.9 121.973 164.842 122.772C157.505 125.621 152.749 132.041 145.649 135.104C143.978 135.989 139.506 142.07 140.944 143.736C141.864 144.801 144.627 146.321 146.118 146.599C160.091 149.202 174.621 144.261 186.165 136.419C189.34 134.262 194.231 122.866 199.11 130.566L199.281 130.843L199.969 130.6L200.033 130.77C199.423 131.22 194.344 142.444 193.668 143.876C196.378 145.985 200.67 148.628 204.183 148.076C212.907 146.705 218.984 144.131 223.494 136.248C225.098 133.755 226.239 130.701 228.15 128.423C230.69 125.396 232.249 126.031 234.647 128.279C232.794 133.313 232.47 136.848 232.534 142.269C237.43 146.822 238.54 145.543 244.631 145.178C246.685 143.469 249.168 139.718 250.235 137.319C252.335 132.59 255.52 121.319 258.943 133.632C258.92 133.715 258.895 133.797 258.873 133.88C257.925 137.1 256.668 140.219 255.113 143.193C250.568 152.044 245.915 153.114 237.199 157.762C235.91 157.556 234.624 157.334 233.34 157.097C224.266 155.335 227.226 148.905 224.413 148.396C222.831 148.967 217.171 153.094 215.578 154.416C214.791 155.069 214.643 155.875 214.334 156.846C212.494 158.033 211.291 154.966 207.077 158.63C203.729 159.065 200.792 158.237 198.122 159.424C192.117 158.296 191.152 157.86 186.481 153.629C186.155 152.24 185.081 149.529 184.341 148.336C182.572 148.845 179.822 149.542 178.12 150.264C177.86 150.374 177.765 151.177 177.673 151.563C176.783 152.062 174.464 151.692 173.905 152.015C171.041 153.666 167.163 154.856 164.459 156.584C163.288 155.232 161.99 156.461 160.179 156.866C152.146 158.666 140.055 158.204 133.702 152.388Z" fill="#4B4746"/>
<path d="M325.212 246.895C327.307 247.496 329.25 247.848 330.872 249.299L330.888 249.898C329.61 249.739 326.415 249.374 325.577 248.716C325.132 247.95 325.194 247.767 325.212 246.895ZM330.58 242.558C330.1 243.142 327.128 244.413 325.91 245.165L325.683 244.894C326.216 243.69 329.04 242.813 330.393 242.269L330.58 242.558ZM329.218 218.216L329.203 219.004C328.721 219.832 328.375 219.941 327.527 220.468C327.32 220.228 327.405 220.196 327.365 219.745C327.858 218.753 328.053 218.659 328.908 217.898L329.218 218.216ZM332.747 204.791C332.275 205.656 331.555 205.799 330.795 206.45C329.858 208.007 327.695 208.852 325.923 208.67V208.415C327.348 207.336 328.682 207.202 330.072 206.116C330.9 205.237 331.017 205.152 332.14 204.708L332.575 204.977L332.39 204.61L332.747 204.791ZM132.685 203.519C133.752 202.723 136.142 202.096 137.432 202.454C137.137 204.046 134.341 202.923 133.18 204.684C132.709 203.858 133.763 204.566 132.685 203.519ZM315.5 198.729C315.722 198.785 315.593 198.729 315.83 198.998C313.98 200.31 311.254 202.066 309.672 203.55L309.258 203.425C309.803 201.993 314.118 199.483 315.5 198.729ZM147.104 195.125C146.974 196.034 145.487 197.099 144.677 197.806C144.328 197.724 144.485 197.81 144.223 197.521C144.808 196.542 145.85 195.668 146.697 194.862L147.104 195.125ZM139.328 189.846C136.213 191.373 135.002 193.879 131.383 193.72C131.93 192.982 133.813 192.876 134.355 192.449C137.432 190.032 134.747 190.307 139.045 189.323L139.328 189.846ZM256.287 189.252C254.937 190.384 254.052 191.007 252.58 191.989L252.418 191.837C253.465 190.511 254.622 189.653 256.18 189.026L256.287 189.252ZM108.072 189.416C107.726 190.053 106.562 190.421 105.835 190.744C105.422 190.768 105.499 190.748 105.084 190.651C105.521 190.03 106.786 189.542 107.532 189.181L108.072 189.416ZM139.045 189.322C139.771 189.014 140.711 188.491 141.422 188.634C140.936 189.26 140.084 189.52 139.328 189.846L139.045 189.322ZM267.37 181.188C267.81 181.208 268.245 181.26 268.683 181.305L268.647 181.524L267.319 181.994C267.065 182.202 266.895 182.252 266.593 182.398C266.645 181.7 266.735 181.835 267.37 181.188ZM134.504 179.681C134.928 180.143 135.171 180.165 135.612 180.71C135.309 181.268 133.409 181.718 132.676 181.955L132.161 182.299L131.987 182.068C132.896 180.964 133.467 180.619 134.504 179.681ZM125.423 178.397C124.952 179.11 122.104 180.183 121.149 180.598L120.857 180.511L120.869 180.152C121.852 179.34 123.719 178.967 125.039 178.211L125.423 178.397ZM148.652 172.101C148.222 172.87 147.409 173.33 146.672 173.853L146.347 173.338L146.5 172.935C147.239 172.545 147.528 172.372 148.196 171.862L148.359 171.737L148.652 172.101ZM121.654 169.694C122.441 169.712 123.577 169.822 124.107 170.44L123.553 170.45C122.608 170.549 121.912 170.617 120.965 170.633L120.888 170.322L121.654 169.694ZM202.364 165.226L202.47 165.456C201.103 166.472 198.9 168.205 197.314 168.473C196.927 168.561 197.126 168.568 196.721 168.426C197.086 167.732 201.093 165.658 202.007 165.184L202.364 165.226ZM296.715 159.171C296.167 159.96 293.5 161.557 292.39 162.401L292.355 161.754C293.036 160.712 295.585 159.406 296.745 158.738L296.715 159.171ZM284.643 159.103C284.3 159.734 283.39 160.131 282.723 160.512L282.493 160.227C282.818 159.533 283.728 159.149 284.44 158.741L284.643 159.103ZM271.905 154.485C272.227 154.432 272.045 154.42 272.433 154.634C272.015 155.544 270.61 156.219 269.723 156.577L269.133 156.348C269.476 155.609 271.063 154.946 271.905 154.485ZM316.643 145.422L316.604 145.847C315.885 146.333 315.174 146.835 314.475 147.351L313.588 146.716C314.031 145.953 315.273 145.681 316.3 145.238L316.643 145.422ZM203.18 129.109C202.328 130.151 201.319 130.417 200.032 130.77L199.969 130.601C200.798 129.842 201.881 128.924 203.021 128.838L203.18 129.109ZM287.288 126.601C287.006 127.221 285.473 127.951 284.65 128.545L284.183 128.648C284.548 127.629 285.758 126.852 286.688 126.348L287.288 126.601ZM256.305 124.532C256.077 125.44 255.335 125.957 254.59 126.627C253.807 127.134 252.58 128.084 251.643 127.831C252.06 126.951 253.46 126.541 254.375 126.165C254.975 125.466 255.46 124.739 256.305 124.532ZM320.407 103.78C321.052 104.978 320.122 107.715 319.837 109.448C318.155 108.598 319.148 104.836 320.115 103.596L320.407 103.78ZM217.585 103.507C217.6 104.158 215.64 106.151 215.018 106.887L214.787 106.769L214.73 106.399C215.629 105.026 216.154 104.563 217.319 103.411L217.585 103.507ZM184.39 104.572C185.041 104.42 184.995 104.427 185.645 104.601L185.517 104.883L184.468 105.2C183.76 105.39 183.549 105.494 182.808 105.404L182.592 105.122C183.114 104.616 183.642 104.66 184.39 104.572ZM241.271 100.305C241.354 100.381 241.317 100.527 241.33 100.64C240.437 101.636 239.972 101.849 238.852 102.547L238.505 102.125C238.978 101.451 240.454 100.767 241.271 100.305ZM188.146 96.709C188.02 97.6074 187.812 98.4618 187.613 99.3457L187.321 99.2412C187.006 98.1112 187.217 97.3373 187.808 96.374L188.146 96.709ZM282.585 89.9043C282.22 91.7988 281.42 91.4994 282.005 93.6777L281.442 93.3213C280.735 91.7856 281.143 90.7762 282.285 89.6436L282.585 89.9043ZM245.793 91.248L245.809 91.6191C244.981 92.453 243.496 92.9949 242.377 93.5039C242.243 93.4751 242.149 93.3511 242.041 93.2666C242.65 92.3934 244.078 92.4587 245.473 91.1211L245.793 91.248ZM277.022 89.3574C277.66 89.3319 278.017 89.3488 278.645 89.3838L278.84 89.6172C276.35 90.5311 276.033 90.3969 273.883 91.9512C273.805 92.0079 273.223 92.2832 273.115 92.335L273.027 92.0684C273.962 91.0831 275.66 89.6084 277.022 89.3574ZM268.702 87.7334C268.435 89.3669 268.805 90.0387 268.697 91.4863L268.468 91.4092C267.95 89.9244 267.688 89.3326 266.195 88.7539C265.013 89.1734 264.538 89.4521 263.293 89.3047L263.423 89.0107C265.115 87.9995 266.328 87.7084 268.3 87.4492L268.457 87.4336L268.702 87.7334ZM248.593 84.0225C249.964 84.058 251.373 83.9409 252.253 85.0781L252.09 85.6445C251.225 86.438 250.96 86.5399 249.901 87.1084C249.033 87.6074 248.253 88.1441 247.354 88.6338C247.164 87.9017 248.13 84.8243 248.593 84.0225ZM239.96 85.9609C241.195 86.1969 241.884 85.9978 243.081 86.2393L243.143 86.666C242.104 86.8807 240.683 87.3909 239.813 86.7393L239.96 85.9609Z" fill="#EDC43E"/>
</g>
<defs>
<clipPath id="clip0_79_2775">
<rect width="480" height="480" fill="white"/>
</clipPath>
</defs>
</svg>
