<svg width="480" height="480" viewBox="0 0 480 480" fill="none" xmlns="http://www.w3.org/2000/svg">
<g clip-path="url(#clip0_79_7206)">
<path d="M149.301 233.764C148.643 232.785 143.739 225.464 143.435 224.681C141.207 218.933 136.836 207.054 136.415 200.969C136.03 195.408 134.882 193.687 133.9 188.516C133.258 186.685 134.114 179.315 133.627 177.936C131.667 172.397 134.363 168.213 132.99 162.786C131.547 157.082 133.349 151.935 134.148 146.472C134.784 142.122 135.195 138.585 136.713 134.364C139.405 122.977 142.437 115.686 152.264 108.836C165.047 99.901 178.667 91.952 193.136 86.0202C195.733 84.9555 205.872 82.0057 209.132 82.0677C210.858 82.809 212.069 81.0765 213.378 80.8025C219.538 79.513 227.644 80.0435 233.738 78.7145C240.523 77.2345 244.643 77.4212 251.4 77.1125C257.505 76.8335 261.485 77.2225 267.513 77.748L282.195 78.924C286.325 79.2745 291.028 79.2765 295.083 79.8997C301.74 80.923 308.313 82.851 314.835 84.4822C316.923 85.004 319.13 85.235 321.123 85.7272C325.438 86.793 330.183 88.2505 334.393 89.6822C338.648 91.1287 340.838 94.491 342.545 98.494C340.95 104.28 341.568 105.082 336.858 110.012C339.355 110.292 340.668 110.266 343.303 110.707C347.588 111.424 349.808 112.625 353.558 113.711C360.548 115.733 366.343 117.292 372.713 121.059C374.625 122.189 375.995 123.532 377.83 124.651C381.55 126.672 384.875 128.633 388.265 131.162C392.385 134.234 395.565 140.203 399.12 143.215C399.31 144.838 398.695 145.12 397.528 146.213C397.343 147.07 397.32 146.651 397.663 147.509C399.238 148.543 401.59 147.22 402.133 148.014C404.563 151.57 402.525 151.914 407.17 153.996C410.508 158.034 410.435 160.149 411.955 164.928C412.565 166.847 414.475 168.906 415.143 171.072C417.3 178.038 419.795 186 420.395 193.249C420.455 193.972 420.55 200.968 420.523 201.018C418.703 204.433 420.113 207.372 419.578 210.55C418.258 218.414 414.995 227.723 408.53 232.86C404.118 236.352 402.075 236.75 397.535 238.828C393.96 237.114 384.605 238.512 380.105 237.64C376.52 236.944 372.413 234.507 369.258 235.367C366.558 235.991 363.563 234.008 360.968 233.378C359.693 233.067 358.25 233.314 356.975 232.905C341.375 227.906 326.188 222.933 311.71 215.137C308.743 213.54 305.873 211.601 302.948 209.919C300.245 208.512 297.975 208.004 295.105 206.331C293.175 210.175 290.75 213.916 286.595 215.617C285.578 216.196 283.233 215.131 282.515 215.242C279.425 215.722 276.915 214.868 274.04 214.449C269.62 213.804 267.035 212.816 263.258 210.399C262.585 209.969 260.865 209.971 260.095 209.54C254.03 206.502 248.69 202.62 243.757 197.967C242.236 196.532 240.358 194.597 238.695 193.391C237.862 196.325 237.81 198.975 236.368 201.569C237.148 204.248 236.983 204.866 236.275 207.561C234.706 213.532 231.17 217.212 225.181 218.941C219.917 220.382 214.175 219.521 209.265 217.262C208.604 216.958 206.125 216.07 205.716 215.719C202.417 212.884 200.256 209.362 196.509 206.869C194.946 205.829 194.293 202.783 191.544 203.145C190.161 204.543 189.718 208.582 189.023 210.647C188.366 212.603 186.865 215.492 186.338 217.204C184.77 222.3 183.443 225.432 181.075 230.131C178.575 235.089 177.477 235.169 173.588 239.098C172.559 240.139 171.537 242.525 170.712 243.651C170.171 243.499 169.894 243.387 169.373 243.172C164.169 244.798 158.957 244.699 155.014 240.642C154.123 239.726 152.782 238.81 152 237.87C152.626 236.766 154.261 235.825 154.565 234.807C153.966 234.011 153.895 233.897 153.826 232.906C154.545 232.404 155.316 232.056 155.595 231.359C154.301 231.162 153.164 232.299 152.322 233.16C151.042 234.158 150.735 234.796 149.301 233.764ZM298.838 157.461C301.298 154.372 299.275 153.629 301.863 152.022C302.243 151.785 302.355 151.656 302.66 151.332L302.585 150.95L300.86 150.695C299.443 154.363 299.53 154.559 297.18 157.769C297.705 157.989 298.12 157.691 298.838 157.461ZM349.228 222.834C348.465 223.318 348.11 223.581 347.275 223.895C346.695 223.793 346.445 223.75 345.86 223.727L345.713 224.184C347.13 226.535 349.995 225.863 350.628 224.15C350.358 223.79 350.088 223.474 349.8 223.13C350.09 222.219 350.898 221.94 351.685 220.889L351.358 220.79C350.303 221.156 349.73 221.883 349.228 222.834ZM212.159 89.2205L212.113 88.8582C210.088 88.7802 206.207 88.411 204.412 88.529L204.623 89.2997C206.168 89.9652 210.696 89.9242 212.159 89.2205ZM216.573 206.1C217.544 205.572 223.173 202.926 223.343 202.639L222.929 202.567C219.47 203.295 218.897 203.597 216.089 205.883L215.992 206.151C216.112 206.144 216.478 206.135 216.573 206.1ZM412.188 208.484C413.49 207.601 416.32 205.846 417.223 204.677C416.75 204.367 417.008 204.463 416.458 204.384C414.898 205.486 412.88 206.811 411.555 208.126L411.525 208.453L412.188 208.484ZM180.998 217.689C181.993 217.39 183.009 217.181 183.653 216.361L183.361 216.139C182.095 216.114 181.178 216.595 179.984 217.061C177.914 217.726 177.067 217.749 176.675 220.053L176.88 220.286C178.762 219.257 178.875 218.234 180.998 217.689ZM267.103 87.6465C268.475 87.2137 272.863 86.2592 273.63 85.81L273.688 85.36L273.195 85.277C271.993 85.6192 267.35 86.6517 266.778 87.1192L266.728 87.5192L267.103 87.6465ZM283.18 190.823C284.528 189.761 286.31 188.175 287.343 186.821L287.235 186.455L286.4 186.366C286.123 186.667 283.01 190.317 282.72 190.703C283.053 190.882 282.895 190.869 283.18 190.823ZM217.834 85.7442C219.1 85.3615 223.868 84.037 224.578 83.3562C224.437 83.3367 224.29 83.2812 224.152 83.3172C222.491 83.652 219.002 84.4942 217.573 85.3175L217.449 85.6785L217.834 85.7442ZM195.181 189.482C195.919 189.654 197.333 189.643 198.142 189.664L198.47 189.064C198.743 189.283 198.655 189.161 198.774 189.396C197.692 188.357 194.989 188.365 193.688 189.079C192.122 189.664 189.244 190.561 188.102 191.625C190.006 191.183 194.081 189.566 195.181 189.482ZM165.722 107.497C167.082 106.896 169.551 105.581 170.596 104.581L170.691 104.117C168.929 104.965 167.138 105.76 165.706 107.119L165.722 107.497ZM193.454 107.532C194.275 107.207 195.618 106.765 196.245 106.222L196.207 105.866L195.841 105.722C194.963 106.156 193.495 106.661 193.146 107.362L193.454 107.532ZM378.35 161.29C379.173 160.848 380.56 160.197 381.168 159.568L381 159.271L380.853 159.231C379.743 159.831 379.088 160.145 378.1 160.969L378.07 161.361L378.35 161.29ZM193.338 99.4467C194.22 99.0167 195 98.7385 195.651 98.024L195.507 97.7617L195.199 97.723C194.442 98.0957 193.677 98.4522 192.904 98.7925L192.839 99.1222L193.338 99.4467ZM177.825 195.643C179.113 195.347 179.964 195.216 181.14 194.571L181.171 194.256L180.457 194.222C179.839 194.481 177.733 195.243 177.46 195.633L177.825 195.643ZM167.309 150.836L166.97 150.706C166.039 152.106 164.312 152.689 163.857 153.562C165.616 154.028 166.7 152.161 167.309 150.836ZM142.672 167.806C141.598 168.377 140.651 168.754 139.888 169.677C139.873 170.064 139.843 170.152 139.909 170.53C140.415 170.073 142.598 168.253 142.672 167.806ZM205.866 157.745C206.54 157.315 208.138 156.453 208.397 155.823L207.902 155.706C207.096 156.235 205.927 156.88 205.411 157.639L205.866 157.745ZM219.472 193.679C220.79 192.488 222.404 190.748 223.957 190.101C225.171 189.804 225.965 189.629 227.105 189.122C225.976 188.976 224.574 189.382 223.256 189.523C221.191 190.398 220.633 191.769 219.472 193.679ZM229.922 198.043C230.6 197.407 231.634 196.577 231.982 195.771L231.751 195.455C231.086 196.047 230.04 196.858 229.657 197.607L229.922 198.043ZM235.951 94.3887L236.125 94.7162C237.197 94.8437 237.339 94.8002 238.427 94.633L238.118 94.2512C237.145 94.2135 236.921 94.2415 235.951 94.3887ZM163.319 236.894C164.585 236.53 166.37 236.117 167.204 235.092L167.052 234.875C166.273 235.182 163.482 236.113 163.062 236.496L163.319 236.894ZM216.254 193.332L216.178 193.66C217.128 194.04 217.855 194.002 218.872 194.055L218.824 193.619C217.909 193.297 217.231 193.353 216.254 193.332ZM286.723 199.025C287.528 198.622 288.565 198.183 289.2 197.58L288.97 197.204L286.64 198.511L286.565 198.862L286.723 199.025ZM327.545 98.476C326.135 97.7122 325.478 97.3805 323.863 97.326C324.92 98.144 326.223 98.4755 327.545 98.476ZM338.878 126.783C338.04 127.087 337.125 127.273 336.585 127.872C336.945 128.249 336.748 128.144 337.13 128.265C337.848 127.921 338.958 127.529 339.33 126.894L338.878 126.783ZM398.245 199.749C397.373 200.211 396.638 200.49 396.038 201.256L395.998 201.787C396.955 201.191 397.778 200.909 398.248 200.038L398.245 199.749ZM342.788 141.397C341.73 142.004 341.423 142.097 340.673 143.011L340.813 143.293L341.088 143.121C341.87 142.659 342.835 142.248 343.268 141.551L342.788 141.397ZM268.675 103.972C267.923 104.422 267.59 104.436 267.28 105.086C268.098 105.125 268.188 105.02 268.938 104.713C269.88 104.69 269.98 104.86 270.553 104.39C269.988 103.914 269.423 103.951 268.675 103.972ZM210.422 105.324C209.551 105.488 207.056 105.643 206.812 105.936L207.067 106.356C208.215 106.465 209.694 106.245 210.646 105.578L210.422 105.324ZM386.763 213.803C386.058 214.06 385.903 213.98 385.503 214.477C386.625 214.644 386.908 214.565 388.06 214.425C388.883 214.538 388.585 214.663 389.098 214.307C388.375 213.62 387.683 213.738 386.763 213.803ZM180.548 145.859C179.661 146.698 178.838 147.363 178.226 148.411L178.425 148.665L178.722 148.557C179.399 147.946 180.74 146.883 181.062 146.123L180.548 145.859ZM389.45 207.026C388.225 207.685 387.23 208.061 386.745 209.368C386.97 209.856 386.855 209.711 387.218 210.091C388.115 208.774 388.51 208.283 389.598 207.12L389.45 207.026ZM287.308 82.7462C288.3 82.5172 290.138 82.2155 290.878 81.6555C290.6 81.3477 290.743 81.4107 290.525 81.3427C289.43 81.4467 287.528 81.621 286.808 82.4957C287.068 82.794 286.903 82.7072 287.308 82.7462ZM219.68 180.172C219.071 180.695 217.788 181.637 217.579 182.312L218.098 182.327C218.869 181.968 219.97 181.61 220.345 180.917C220.056 180.314 220.26 180.563 219.68 180.172ZM165.593 199.41C164.826 200.205 164.442 200.456 164.139 201.472C164.302 202.299 164.128 201.947 164.658 202.579L164.744 202.375C165.171 201.376 166.088 200.246 166.05 199.577L165.593 199.41ZM155.176 223.138C153.844 223.277 151.654 223.523 150.605 224.395L150.737 224.626L151.065 224.63C152.063 224.369 154.925 223.743 155.582 223.237C155.239 223.112 155.378 223.106 155.176 223.138ZM412.725 191.376C413.118 193.046 413.04 192.73 411.99 194.531C412.513 194.602 412.288 194.632 412.665 194.525C413.543 193.783 414.005 193.634 414.355 192.659C414.033 191.916 413.473 191.762 412.725 191.376ZM302.013 103.935C301.075 104.865 298.74 106.639 299.708 107.967C300.173 108.124 300.485 108.292 300.953 108.274C298.958 105.736 302.583 105.414 302.308 104.04L302.013 103.935Z" fill="#3EB7B8"/>
<path d="M277.83 131.646C278.648 131.028 280.89 129.236 281.85 129.225C283.873 129.203 285.515 130.26 287.515 129.337L287.92 129.48C287.305 130.425 287.255 130.187 287.26 131.13C288.393 133.286 291.098 134.828 291.913 136.681C291.98 136.832 291.343 137.601 291.12 137.878C291.07 138.921 293.745 141.777 294.258 143.16C297.043 150.669 296.998 160.926 290.738 166.74C289.88 167.538 285.145 170.546 284.06 170.337C282.173 169.974 280.268 169.73 278.208 169.693C276.595 167.937 269.568 165.004 266.89 163.072C264.363 170.821 263.2 171.07 255.783 172.994C251.693 171.108 246.906 168.016 243.569 165.08C241.578 163.329 241.205 161.728 238.177 160.739C237.692 160.581 235.779 158.524 235.262 157.979C232.303 165.778 228.93 175.493 220.652 179.329C219.175 180.014 212.874 180.817 210.591 181.306C208.418 180.72 205.277 178.508 203.34 177.269C199.875 175.054 198.217 171.218 196.587 167.566C195.711 166.202 194.926 165.975 193.489 165.325C192.551 166.067 190.786 169.047 189.685 170.334C187.345 173.143 184.723 175.445 182.733 178.564C181.756 180.096 178.292 179.695 176.737 180.324C175.83 180.691 175.418 181.402 174.389 181.543C172.349 180.56 169.012 180.755 167.944 179.638C164.804 176.354 163.816 169.064 163.963 164.86C164.082 161.463 167.798 153.034 167.309 150.836L166.97 150.706C167.022 150.649 167.074 150.592 167.126 150.534L167.349 150.276C168.447 149.027 169.672 145.823 170.333 144.208C172.698 138.43 174.737 134.222 179.218 129.831C180.162 130.433 181.402 130.979 181.484 132.172C180.591 132.726 180.191 132.735 180.018 133.78C180.745 134.183 181.26 133.69 182.534 133.922C182.509 134.861 181.679 134.865 181.628 135.159C180.888 139.45 182.239 138.858 177.615 140.832C177.281 142.213 175.583 146.006 175.136 147.663C175.062 147.937 174.189 147.792 173.833 148.811C173.945 148.953 174.056 149.096 174.165 149.241C175.776 151.393 172.613 152.018 172.36 153.755C172.487 153.841 173.332 154.409 173.308 154.52C172.235 159.486 171.133 162.528 171.367 167.765C171.935 168.561 172.635 169.393 173.252 170.164C174.116 170.256 175.012 170.379 175.881 170.365C178.003 170.331 180.317 168.834 181.964 167.604C195.016 157.859 188.984 147.73 197.031 139.226C198.926 139.935 199.584 140.255 201.224 141.386C201.791 148.73 200.378 155.253 205.889 162.02C206.956 163.33 209.253 164.194 209.615 165.132C209.462 165.795 209.399 165.907 209.428 166.576C211.455 167.235 216.514 169.037 218.329 169.204C220.891 168.253 223.544 165.458 225.468 163.486C225.651 161.777 226.067 160.564 226.554 158.93C227.676 155.175 227.603 152.971 227.185 149.135C226.844 148.084 225.138 147.611 224.174 147.224C225.057 146.333 225.939 145.167 226.735 144.179C228.479 140.617 229.212 138.16 232.608 136.018C236.824 139.411 240.014 144.2 244.048 147.689C248.007 151.114 254.208 158.125 259.155 159.638L259.633 159.502C259.585 158.54 259.443 158.526 258.838 157.647C258.85 151.346 255.95 146.49 259.385 140.42C262.118 135.586 263.955 134.323 267.328 140.795C267.458 141.576 266.933 143.664 267.393 144.304C270.383 148.454 274.308 152.228 277.873 155.928C278.035 156.097 287.043 157.666 287.648 157.338C287.895 155.512 285.808 149.867 284.618 148.37C282.878 148.27 283.16 149.137 282.09 149.038L281.905 148.652C282.588 147.643 283.16 148.242 283.713 147.194C281.888 142.496 276.838 140.34 276.76 135.1C276.745 134 277.403 132.656 277.83 131.646Z" fill="#4B4746"/>
<path d="M155.594 231.358C155.315 232.056 154.544 232.403 153.825 232.905C153.894 233.896 153.966 234.011 154.564 234.807C154.26 235.825 152.625 236.766 151.999 237.87C151.229 236.886 150.02 234.882 149.301 233.764C150.734 234.795 151.041 234.158 152.321 233.16C153.163 232.299 154.3 231.162 155.594 231.358ZM167.203 235.092C166.369 236.117 164.584 236.53 163.318 236.895L163.062 236.496C163.482 236.113 166.273 235.182 167.052 234.875L167.203 235.092ZM351.685 220.89C350.897 221.941 350.09 222.219 349.8 223.13C350.087 223.474 350.357 223.79 350.627 224.149C349.994 225.863 347.129 226.535 345.712 224.184L345.859 223.727C346.444 223.75 346.695 223.793 347.274 223.895L346.869 224.379L346.972 224.772H346.973L346.87 224.379L347.274 223.895C348.109 223.581 348.464 223.317 349.227 222.834C349.729 221.882 350.302 221.155 351.357 220.789L351.685 220.89ZM155.176 223.138C155.377 223.105 155.239 223.113 155.582 223.237C154.925 223.743 152.062 224.37 151.064 224.63L150.736 224.627L150.605 224.395C151.654 223.523 153.844 223.276 155.176 223.138ZM180.997 217.688C178.874 218.233 178.761 219.256 176.879 220.285L176.675 220.053C177.067 217.749 177.914 217.726 179.983 217.062L180.997 217.688ZM183.652 216.361C183.008 217.181 181.993 217.389 180.998 217.688L179.983 217.062C181.178 216.595 182.095 216.114 183.361 216.139L183.652 216.361ZM386.762 213.804C387.682 213.738 388.374 213.621 389.097 214.308C388.585 214.663 388.882 214.538 388.06 214.425C386.907 214.565 386.624 214.644 385.502 214.478C385.902 213.981 386.057 214.06 386.762 213.804ZM389.598 207.12C388.51 208.284 388.114 208.774 387.217 210.091C386.855 209.711 386.97 209.856 386.745 209.368C387.23 208.062 388.225 207.684 389.45 207.025L389.598 207.12ZM416.457 204.385C417.007 204.463 416.749 204.367 417.222 204.678C416.319 205.846 413.489 207.601 412.187 208.484L411.524 208.453L411.555 208.126C412.88 206.811 414.897 205.486 416.457 204.385ZM223.343 202.639C223.173 202.926 217.543 205.571 216.572 206.1C216.477 206.134 216.112 206.144 215.992 206.151L216.088 205.883C218.896 203.597 219.47 203.295 222.929 202.567L223.343 202.639ZM166.05 199.577C166.087 200.247 165.171 201.376 164.743 202.375L164.657 202.579C164.128 201.947 164.302 202.299 164.139 201.473C164.442 200.456 164.825 200.205 165.592 199.41L166.05 199.577ZM398.247 200.038C397.777 200.909 396.955 201.191 395.997 201.787L396.037 201.256C396.637 200.49 397.373 200.211 398.245 199.749L398.247 200.038ZM289.199 197.58C288.564 198.183 287.527 198.622 286.722 199.025L286.564 198.862L286.64 198.512L288.97 197.204L289.199 197.58ZM231.981 195.771C231.633 196.577 230.599 197.407 229.921 198.043L229.656 197.607C230.04 196.859 231.086 196.048 231.751 195.455L231.981 195.771ZM181.17 194.257L181.14 194.571C179.964 195.216 179.112 195.347 177.824 195.643L177.46 195.634C177.733 195.243 179.839 194.481 180.457 194.222L181.17 194.257ZM412.725 191.376C413.472 191.762 414.032 191.917 414.355 192.659C414.005 193.634 413.542 193.783 412.665 194.524C412.288 194.632 412.512 194.602 411.989 194.531C413.039 192.73 413.117 193.046 412.725 191.376ZM216.254 193.332C217.23 193.353 217.908 193.297 218.823 193.619L218.871 194.055C217.855 194.002 217.127 194.04 216.178 193.66L216.254 193.332ZM223.256 189.522C224.574 189.382 225.975 188.976 227.105 189.122C225.965 189.629 225.17 189.804 223.956 190.102C222.403 190.748 220.79 192.489 219.472 193.68C220.632 191.769 221.191 190.398 223.256 189.522ZM193.688 189.079C194.868 188.432 197.199 188.364 198.431 189.132L198.142 189.665C197.434 189.646 196.262 189.652 195.486 189.539L195.181 189.482C194.08 189.566 190.005 191.183 188.102 191.625C189.243 190.561 192.122 189.664 193.688 189.079ZM287.234 186.455L287.343 186.82C286.31 188.174 284.527 189.761 283.18 190.823C282.895 190.869 283.052 190.881 282.72 190.703C283.011 190.316 286.121 186.668 286.399 186.366L287.234 186.455ZM198.469 189.064C198.741 189.283 198.654 189.161 198.773 189.396C198.672 189.299 198.557 189.211 198.431 189.132L198.469 189.064ZM219.68 180.173C220.259 180.563 220.056 180.314 220.345 180.917C219.97 181.61 218.869 181.968 218.098 182.327L217.578 182.312C217.787 181.637 219.071 180.696 219.68 180.173ZM142.671 167.807C142.597 168.254 140.414 170.072 139.908 170.529C139.842 170.152 139.872 170.064 139.887 169.678C140.65 168.754 141.597 168.377 142.671 167.807ZM194.839 163.556C196.7 163.495 196.864 166.192 196.586 167.566C195.709 166.202 194.925 165.975 193.488 165.325C193.951 164.452 194.046 164.07 194.839 163.556ZM380.999 159.271L381.167 159.568C380.559 160.197 379.172 160.849 378.35 161.29L378.069 161.361L378.1 160.97C379.087 160.146 379.742 159.831 380.852 159.231L380.999 159.271ZM302.585 150.95L302.66 151.332C302.355 151.656 302.242 151.786 301.862 152.022C299.275 153.63 301.297 154.372 298.837 157.461C298.12 157.691 297.705 157.989 297.18 157.77C299.53 154.559 299.442 154.363 300.859 150.695L302.585 150.95ZM208.398 155.823C208.139 156.453 206.54 157.315 205.865 157.745L205.411 157.639C205.927 156.881 207.096 156.235 207.902 155.707L208.398 155.823ZM399.12 143.216C402.39 145.579 403.788 150.008 407.17 153.996C402.525 151.914 404.562 151.57 402.132 148.014C401.589 147.221 399.237 148.543 397.662 147.509C397.32 146.651 397.342 147.07 397.527 146.214C398.695 145.12 399.31 144.838 399.12 143.216ZM167.309 150.836C166.699 152.161 165.616 154.027 163.857 153.562C164.312 152.689 166.039 152.106 166.97 150.707L167.309 150.836ZM226.734 144.179C227.543 145.722 227.306 147.419 227.185 149.135C226.843 148.084 225.138 147.611 224.174 147.224C225.057 146.333 225.938 145.167 226.734 144.179ZM181.062 146.123C180.739 146.883 179.398 147.946 178.722 148.557L178.424 148.665L178.226 148.411C178.838 147.363 179.661 146.698 180.547 145.858L181.062 146.123ZM343.267 141.551C342.834 142.247 341.869 142.659 341.087 143.121L340.812 143.293L340.672 143.011C341.422 142.097 341.73 142.004 342.787 141.397L343.267 141.551ZM339.329 126.895C338.957 127.529 337.847 127.921 337.13 128.265C336.748 128.144 336.945 128.249 336.585 127.872C337.125 127.274 338.04 127.087 338.877 126.783L339.329 126.895ZM302.307 104.04C302.581 105.415 298.957 105.736 300.952 108.274C300.485 108.293 300.172 108.125 299.707 107.968C298.74 106.64 301.074 104.866 302.012 103.936L302.307 104.04ZM196.206 105.866L196.244 106.223C195.617 106.765 194.275 107.207 193.453 107.532L193.146 107.361C193.495 106.661 194.963 106.156 195.84 105.722L196.206 105.866ZM170.595 104.581C169.55 105.581 167.081 106.896 165.722 107.497L165.705 107.119C167.138 105.76 168.928 104.965 170.69 104.117L170.595 104.581ZM210.646 105.578C209.694 106.245 208.214 106.465 207.066 106.356L206.812 105.937C207.056 105.643 209.551 105.488 210.421 105.324L210.646 105.578ZM268.675 103.973C269.422 103.952 269.987 103.914 270.552 104.391C269.98 104.86 269.879 104.69 268.937 104.713C268.187 105.02 268.097 105.125 267.279 105.086C267.589 104.436 267.922 104.423 268.675 103.973ZM195.507 97.7617L195.65 98.0244C194.999 98.7387 194.219 99.0163 193.337 99.4463L192.839 99.1221L192.904 98.793C193.677 98.4527 194.441 98.0954 195.198 97.7227L195.507 97.7617ZM323.862 97.3262C325.477 97.3807 326.134 97.7121 327.544 98.4756C326.222 98.475 324.92 98.1439 323.862 97.3262ZM238.117 94.251L238.426 94.6328C237.338 94.8 237.197 94.8433 236.125 94.7158L235.95 94.3887C236.921 94.2414 237.145 94.2132 238.117 94.251ZM204.411 88.5293C206.207 88.4113 210.088 88.7804 212.112 88.8584L212.158 89.2207C210.695 89.9243 206.168 89.9652 204.623 89.2998L204.411 88.5293ZM273.688 85.3604L273.63 85.8096C272.862 86.2588 268.475 87.2137 267.103 87.6465L266.728 87.5195L266.777 87.1191C267.351 86.6516 271.991 85.6197 273.194 85.2773L273.688 85.3604ZM224.151 83.3174C224.29 83.2814 224.437 83.3369 224.578 83.3564C223.868 84.0372 219.099 85.3614 217.833 85.7441L217.449 85.6787L217.572 85.3174C219.001 84.4942 222.491 83.6522 224.151 83.3174ZM290.524 81.3428C290.742 81.4108 290.6 81.3478 290.877 81.6553C290.137 82.2152 288.3 82.5171 287.308 82.7461C286.903 82.7071 287.067 82.7939 286.808 82.4961C287.528 81.6214 289.429 81.4468 290.524 81.3428Z" fill="#3EB7B8"/>
</g>
<defs>
<clipPath id="clip0_79_7206">
<rect width="480" height="480" fill="white"/>
</clipPath>
</defs>
</svg>
