<svg width="480" height="480" viewBox="0 0 480 480" fill="none" xmlns="http://www.w3.org/2000/svg">
<g clip-path="url(#clip0_79_6087)">
<path d="M131.287 184.193C123.57 180.869 109.443 174.518 106.543 166.197C102.877 155.678 104.989 139.542 109.353 129.541C111.515 124.657 113.786 119.821 116.164 115.038C119.111 109.048 119.941 107.09 123.999 101.613C130.367 92.199 140.516 86.9587 151.515 85.0247C155.535 84.318 164.551 81.9217 168.565 82.5352C178.909 84.116 185.937 81.4672 195.929 79.6517C198.26 79.228 203.038 80.6792 205.582 80.5692C212.845 79.9405 219.061 80.8585 226.224 81.5182C234.477 82.2785 242.872 81.9922 251.128 83.5412C254.673 84.138 258.108 85.9112 261.763 86.448C284.618 89.8062 306.23 99.712 326.138 111.036C328.098 112.093 330.668 112.792 332.56 113.9C349.16 123.621 371.07 128.455 378.338 148.64C380.155 153.686 381.833 155.973 379.91 161.262C380.58 161.988 381.228 162.739 381.48 163.749C382.953 169.616 381.878 177.367 381.93 183.501C381.675 188.926 380.19 193.871 379.09 199.176C377.32 207.72 375.408 217.15 371.418 225.008C368.76 230.247 365.373 235.39 362.445 240.496C360.45 243.978 360.028 246.621 359.468 250.572C358.6 255.972 357.455 261.855 355.125 266.782C354.078 268.997 350.698 272.777 348.64 270.63C344.758 266.58 342.765 266.68 337.733 265.087C329.675 262.537 324.288 262.705 316.985 267.53C313.67 269.665 310.54 274.65 306.51 274.77C306.125 274.775 304.465 273.77 304.008 273.58C296.575 270.495 292.778 260.787 291.6 253.365C291.348 251.775 290.61 250.087 290.463 248.447C289.665 243.31 288.98 237.666 287.015 232.857C286.998 231.959 286.863 230.337 287.558 229.738C288.763 230.368 289.403 230.709 290.753 230.736C293.835 229.224 293.318 231.285 295.983 230.047L295.873 229.731C294.345 229.534 291.495 229.297 290.633 227.977C291.045 227.067 291.293 227.127 292.25 226.441L292.128 226.127C290.825 225.82 289.555 227.012 287.893 226.081C287.435 225.825 286.335 225.614 285.775 225.523C284.99 223.23 284.74 219.68 283.91 217.802C281.533 212.414 280.823 212.515 281.053 206.564L280.805 206.343C278.08 203.886 276.368 199.208 274.348 196.259C273.075 194.398 270.32 191.386 268.72 189.633C265.578 186.189 258.863 181.992 254.575 179.897C251.593 178.438 246.264 176.987 243.007 175.562C240.407 174.425 237.683 173.128 235.034 172.167C233.398 171.573 230.376 171.908 228.956 171.55C222.847 170.008 216.879 169.584 210.62 169.154C209.904 169.105 207.475 169.554 206.482 169.597C204.435 169.687 201.642 169.372 199.704 169.603C188.643 170.924 178.426 173.266 167.726 176.367C164.983 177.162 161.427 177.415 158.682 178.252C154.043 179.666 150.331 181.946 145.631 183.359C141.58 184.577 134.446 183.459 131.287 184.193ZM341.365 189.595C344.073 191.994 347.123 189.782 346.27 187.276C345.76 186.956 346.04 187.003 345.438 187.056C343.125 187.423 341.773 187.987 339.63 188.949L339.435 189.35C340.2 189.88 340.2 189.148 341.365 189.595ZM351.628 164.092C353.035 164.48 353.875 163.486 354.368 162.337L354.31 161.801C353.87 161.459 353.538 161.312 352.923 161.516C351.73 162.166 350.79 162.693 349.52 163.211L349.35 163.478C349.755 163.858 350.873 163.922 351.628 164.092ZM307.553 225.642C308.57 225.348 309.723 224.955 310.015 223.801C309.325 223.812 309.343 223.996 308.658 224.523C307.203 224.48 305.485 224.516 304.195 225.261L303.953 225.752C304.968 226.92 306.46 226.402 307.553 225.642ZM363.61 172.612C364.743 169.585 366.6 169.291 367.17 167.702L366.948 167.44L366.743 167.663C365.813 168.65 362.003 171.011 363.61 172.612ZM313.39 220.851L313.623 220.756C314.503 220.408 316.64 219.869 317.163 219.496L317.183 219.045C316.193 219.325 313.825 219.832 313.35 220.551L313.39 220.851ZM235.954 127.484C235.139 127.984 233.653 128.778 233.127 129.485L233.363 129.803C234.151 129.378 235.729 128.538 236.141 127.771L235.954 127.484ZM354.85 216.441C354.19 216.931 352.615 217.934 352.395 218.598L352.648 218.874C353.533 218.243 354.578 217.643 355.113 216.743L354.85 216.441ZM327.065 223.737C327.955 223.039 329.073 221.931 329.643 220.942C328.025 221.442 327.705 222.238 327.065 223.737C326.328 224.315 324.85 225.451 324.643 226.338L325.213 226.307C326.498 224.94 326.805 225.376 328.095 224.457L328.018 224.165L327.633 224.013C327.178 223.83 327.34 223.926 327.065 223.737ZM340.103 196.553C340.785 196.187 341.478 195.837 342.175 195.502L342.055 195.244L341.068 195.186C340.125 195.839 339.993 195.871 339.438 196.828L339.733 196.879L340.103 196.553ZM364.618 188.467C365.355 188.058 366.485 187.572 366.87 186.888C366.635 186.772 366.548 186.692 366.308 186.664C365.318 187.322 365.053 187.429 364.34 188.339L364.468 188.582L364.618 188.467ZM352.65 195.987C352.875 194.95 353.16 193.785 352.358 192.941C352.283 193.837 352.175 194.729 352.04 195.618C352.398 196.021 352.183 195.918 352.65 195.987ZM225.309 152.484C224.641 151.891 223.462 151.37 222.632 151.898L222.607 152.397L225.309 152.484ZM352.215 171.433C352.9 171.023 353.77 170.629 354.11 169.957L353.89 169.735C353.233 170.095 352.438 170.418 352.038 171.008C352.098 171.15 352.155 171.292 352.215 171.433ZM342.565 221.673C341.928 222.1 340.985 222.589 340.743 223.246L341.145 223.42C341.905 222.862 342.713 222.512 342.838 221.783L342.565 221.673ZM165.539 93.513C164.427 93.826 161.415 94.5645 160.797 95.2605C161.113 95.5217 160.96 95.4775 161.2 95.5147L161.433 95.412C162.72 94.8552 165.027 94.3625 165.79 93.7342C165.629 93.5127 165.727 93.5652 165.539 93.513ZM226.122 95.2072C225.416 95.6175 224.752 95.8767 224.374 96.5665L224.64 96.7075C225.277 96.3735 226.287 95.9707 226.572 95.3897L226.122 95.2072ZM300.198 231.777C300.925 231.397 302.033 230.993 302.373 230.399L301.933 230.207C301.105 230.612 300.363 230.821 299.87 231.502L300.198 231.777ZM134.166 175.809C132.974 176.303 132.5 176.462 131.446 177.233L131.338 177.616L131.618 177.632C132.388 177.25 134.001 176.571 134.465 175.963L134.256 175.796L134.166 175.809ZM308.045 267.19C306.81 267.947 306.543 268.082 305.608 269.245L305.538 269.65C306.038 269.645 305.855 269.742 306.133 269.477L306.38 269.345C307.345 268.837 308.963 268.425 309.32 267.925C308.888 267.362 308.825 267.485 308.045 267.19ZM193.525 96.7207C192.834 97.1315 192.375 97.292 192.047 98.0135C192.434 97.9587 192.266 98.0405 192.55 97.766C193.369 97.6032 193.897 97.6575 194.394 97.1787C193.996 96.922 193.958 96.833 193.525 96.7207ZM310.758 219.289C309.89 219.668 308.958 219.956 308.37 220.668L308.573 221.024C309.285 220.644 310.47 220.127 310.92 219.522L310.758 219.289ZM294.008 207.984C292.893 208.431 291.765 208.855 290.633 209.255L290.653 209.597L290.843 209.489C291.993 209.313 293.61 209.118 294.35 208.146L294.008 207.984ZM126.221 108.746C125.484 109.078 125.366 108.965 125.122 109.519C126.271 109.693 126.633 109.568 127.81 109.379L128.572 109.39L128.495 109.156C127.429 108.824 127.318 108.772 126.221 108.746ZM370.763 148.145C369.57 148.561 368.583 149.253 368.013 150.41L368.168 150.662L368.385 150.616C369.34 149.697 369.873 149.357 370.988 148.692L371.095 148.309L370.763 148.145ZM353.55 182.821L353.353 183.315C353.928 183.573 356.3 183.505 357.168 183.557L357.303 183.111C356.293 182.826 354.583 182.615 353.55 182.821ZM322.995 189.953C321.888 190.48 321.228 190.713 320.313 191.546C321.048 191.521 321.518 191.237 322.193 190.935C323.12 190.835 323.838 190.916 324.623 190.391C324.013 189.967 323.8 190.053 322.995 189.953ZM211.951 122.431C210.712 124.026 209.432 123.336 208.51 124.545L208.679 124.779L210.345 124.279C211.226 124.022 211.923 123.798 212.284 122.866L211.951 122.431ZM188.198 144.743C187.526 145.432 184.53 148.061 184.433 148.394L184.576 148.506C185.84 147.868 188.11 146.382 188.334 144.859L188.198 144.743ZM307.715 210.779C306.985 210.946 306 211.068 305.503 211.554C305.995 211.917 306.45 211.854 307.08 211.881C308.063 212.252 308.083 212.465 308.845 212.213C308.593 211.394 308.44 211.467 307.715 210.779ZM337.363 194.531C335.708 195.223 335.178 195.343 333.95 196.675L334.12 196.889L335.103 196.195C335.64 195.96 339.22 194.574 339.315 194.492C338.483 194.441 338.21 194.404 337.363 194.531ZM354.253 155.546C353.38 155.729 353.205 155.616 352.625 156.126C353.763 156.389 355.955 156.241 357.313 156.311C358.115 156.184 357.895 156.383 358.27 155.933C357.045 155.614 355.54 155.611 354.253 155.546ZM271.603 173.77C270.463 174.435 267.678 175.958 267.003 177.034C267.283 177.275 267.145 177.242 267.36 177.262C268.523 176.517 271.035 175.023 271.863 174.11L271.735 173.814L271.603 173.77Z" fill="#FF81B2"/>
<path d="M218.137 132.502C218.308 130.921 218.117 129.21 218.367 127.678C219.036 123.595 221.098 119.501 223.179 115.962C224.248 114.145 226.549 112.024 228.151 110.665C236.147 103.886 247.073 98.4527 257.815 100.12C258.853 100.281 260.793 100.882 261.398 101.998C263.263 107.222 256.568 107.41 253.228 106.383C252.015 106.006 249.909 106.62 248.989 106.812C238.432 109.013 228.199 114.376 227.364 126.235C229.349 130.664 233.892 132.465 237.456 136.406C237.931 136.428 248.781 137.681 248.67 137.629C256.41 141.263 260.903 138.37 269.208 137.647L269.483 137.625L269.208 134.378C268.538 129.698 267.453 130.538 270.645 126.358C271.745 125.046 272.878 123.589 273.778 122.139C277.455 116.22 284.955 111.754 291.89 111.239C298.193 110.771 303.15 111.507 306.955 116.998C306.633 118.159 306.07 120.573 305.653 121.548C302.635 128.576 298.383 134.696 292.305 139.403C290.323 140.939 287.605 142.12 285.33 143.781C287.575 146.666 293.795 149.679 297.353 150.624C298.6 150.955 303.51 150.187 305.4 150.226C308.615 142.563 312.215 137.265 320.273 133.749C327.158 130.745 338.933 130.842 333.513 141.937C330.315 148.482 323.795 153.362 317.203 156.016C315.355 156.807 313.585 158.19 311.288 159.057C311.828 163.457 311.688 167.017 315.528 170.005C317.22 171.321 321.643 173.661 323.67 173.96C329.683 174.846 337.648 174.402 343.738 174.126C343.133 175.097 342.078 176.696 341.588 177.655C334.018 182.448 324.855 184.036 316.113 182.068C312.878 181.34 307.62 179.231 305.83 176.283C304.568 174.199 304.69 173.003 304.805 170.73C304.025 170.78 303.533 170.882 302.8 170.604C301.705 169.253 302.26 165.733 302.35 163.831C302.573 162.471 302.923 161.218 303.265 159.886C297.448 159.986 289.803 158.102 284.445 155.881C281.138 154.95 279.308 153.269 276.2 151.697C276.165 150.656 276.29 149.996 276.438 148.971C274.163 148.636 272.023 146.533 269.645 146.666C268.343 146.738 266.148 147.178 264.968 147.717C263.303 147.737 260.98 147.735 259.383 148.27L258.955 148.593C258.388 148.74 253.803 147.416 252.603 147.199C250.61 146.459 246.12 148.578 244.562 148.412C237.9 147.706 232.419 143.882 226.183 142.4C222.732 139.161 220.135 136.812 218.137 132.502Z" fill="#4B4746"/>
<path d="M361.391 320.945C367.722 321.421 365.345 332.792 365.742 337.197C366.092 341.6 366.275 346.132 366.78 350.51C368.695 367.145 367.475 383.813 361.808 399.638C360.058 403.03 357.29 407.53 354.673 410.293C346.816 418.583 340.138 417.503 330.311 417.808C319.311 418.15 310.06 423.525 300.085 414.59C293.465 408.657 296.435 406.352 293.205 399.117C291.475 395.272 291.193 393.697 290.963 389.522C288.558 387.228 288.153 386.06 285.163 384.425C278.976 379.502 277.175 376.448 269.088 374.123C267.693 373.721 264.28 372.331 262.99 372.293C251.108 371.945 248.913 372.14 253.492 360.537C257.22 351.087 259.693 347.595 268.396 341.35C278.905 333.51 294.963 332.448 306.992 337.385C316.115 341.13 325.01 344.938 335.367 343.025C337.897 342.558 347.413 337.447 349.641 335.737C351.413 334.367 352.988 332.76 354.32 330.96C356.903 327.403 357.448 323.755 361.391 320.945ZM110.679 305.853C113.379 306.143 114.494 310.61 114.893 312.885C115.987 319.125 117.18 323.922 121.541 328.702C142.272 351.43 165.838 351.98 194.318 353.003C196.559 353.088 198.665 354.098 200.135 355.79C201.77 357.68 201.271 360.6 201.129 362.907C200.757 370.862 194.73 372.065 188.193 372.92C180.892 373.875 177.555 376.235 171.568 379.973C166.634 383.055 163.29 384.558 158.633 388.521C156.313 390.843 152.846 394.42 152.348 397.798C151.943 400.548 152.536 403.332 151.126 406.01C148.874 410.282 143.218 410.41 139.032 411.8C137.42 410.395 132.812 408.313 130.683 408.043C127.715 407.668 125.168 410.14 122.998 411.92C122.827 411.94 122.655 411.957 122.484 411.975C117.013 412.495 110.999 412.19 106.672 408.515C101.901 404.462 100.874 400.395 98.8654 394.848C97.6861 391.59 96.3728 389.93 96.0167 386.258C95.536 381.3 95.8495 377.327 96.1915 372.372C96.355 370.005 96.2271 367.525 96.4513 365.072C97.9065 350.69 100.46 336.44 104.088 322.445C105.674 316.283 106.418 310.838 110.679 305.853ZM347.545 352.59L347.328 352.463L347.545 352.59ZM308.045 267.19C308.825 267.485 308.888 267.362 309.32 267.925C308.963 268.425 307.345 268.837 306.38 269.345L306.133 269.478C305.855 269.742 306.038 269.645 305.538 269.65L305.608 269.245C306.542 268.083 306.81 267.948 308.045 267.19ZM285.776 225.523C286.336 225.614 287.435 225.825 287.893 226.081C289.555 227.012 290.826 225.821 292.128 226.128L292.25 226.441C291.293 227.127 291.045 227.067 290.633 227.978C291.496 229.296 294.345 229.534 295.872 229.731L295.983 230.047C293.318 231.285 293.835 229.225 290.753 230.736C289.403 230.709 288.763 230.367 287.558 229.737C286.863 230.336 286.997 231.959 287.015 232.856C286.267 229.683 286.25 228.604 285.776 225.523ZM302.373 230.399C302.033 230.993 300.926 231.398 300.198 231.777L299.87 231.502C300.363 230.821 301.105 230.612 301.933 230.207L302.373 230.399ZM310.015 223.802C309.759 224.811 308.845 225.239 307.939 225.526L307.553 225.643C306.46 226.402 304.968 226.919 303.953 225.752L304.195 225.262C305.485 224.517 307.202 224.479 308.657 224.522C309.342 223.996 309.325 223.813 310.015 223.802ZM327.066 223.737C327.34 223.926 327.178 223.831 327.633 224.014L328.018 224.166L328.096 224.457C326.806 225.376 326.498 224.941 325.213 226.307L324.643 226.339C324.85 225.451 326.328 224.315 327.066 223.737ZM329.643 220.942C329.073 221.931 327.956 223.039 327.066 223.737C327.706 222.238 328.025 221.442 329.643 220.942ZM342.838 221.783C342.713 222.513 341.906 222.862 341.146 223.421L340.742 223.246C340.985 222.589 341.928 222.1 342.566 221.674L342.838 221.783ZM310.92 219.522C310.47 220.127 309.286 220.644 308.573 221.023L308.37 220.668C308.958 219.956 309.89 219.668 310.758 219.289L310.92 219.522ZM317.163 219.496C316.641 219.869 314.503 220.408 313.623 220.756L313.391 220.851L313.351 220.551C313.826 219.832 316.193 219.325 317.183 219.045L317.163 219.496ZM355.112 216.743C354.577 217.642 353.533 218.243 352.648 218.874L352.396 218.599C352.616 217.934 354.191 216.932 354.851 216.441L355.112 216.743ZM307.715 210.779C308.44 211.468 308.592 211.395 308.845 212.214C308.083 212.466 308.062 212.253 307.08 211.882C306.45 211.855 305.995 211.917 305.503 211.555C306.001 211.069 306.985 210.947 307.715 210.779ZM294.351 208.146C293.611 209.118 291.993 209.313 290.843 209.489L290.652 209.597L290.633 209.255C291.765 208.855 292.893 208.432 294.008 207.984L294.351 208.146ZM337.362 194.531C338.21 194.404 338.483 194.441 339.316 194.492C339.221 194.573 335.64 195.96 335.103 196.195L334.12 196.89L333.95 196.675C335.178 195.344 335.708 195.224 337.362 194.531ZM342.055 195.244L342.175 195.503C341.478 195.837 340.785 196.188 340.103 196.554L339.733 196.88L339.438 196.828C339.992 195.871 340.125 195.839 341.068 195.186L342.055 195.244ZM352.358 192.941C353.16 193.785 352.876 194.951 352.651 195.987C352.183 195.919 352.398 196.022 352.04 195.618C352.175 194.73 352.283 193.837 352.358 192.941ZM322.995 189.953C323.8 190.054 324.013 189.967 324.623 190.392C323.838 190.916 323.12 190.835 322.193 190.936C321.518 191.237 321.047 191.521 320.313 191.546C321.228 190.713 321.888 190.481 322.995 189.953ZM345.438 187.056C346.04 187.003 345.761 186.956 346.271 187.276C347.123 189.782 344.073 191.994 341.365 189.595C340.201 189.148 340.2 189.879 339.436 189.351L339.63 188.949C341.772 187.988 343.125 187.422 345.438 187.056ZM366.308 186.664C366.548 186.692 366.635 186.772 366.87 186.889C366.485 187.572 365.356 188.059 364.618 188.468L364.468 188.582L364.34 188.34C365.052 187.429 365.318 187.322 366.308 186.664ZM353.55 182.821C354.582 182.616 356.293 182.827 357.303 183.111L357.168 183.558C356.301 183.505 353.928 183.573 353.353 183.315L353.55 182.821ZM134.464 175.964C134 176.571 132.388 177.251 131.618 177.633L131.337 177.616L131.445 177.232C132.499 176.462 132.974 176.303 134.166 175.81L134.256 175.796L134.464 175.964ZM271.735 173.814L271.862 174.109C271.035 175.023 268.523 176.517 267.36 177.262C267.146 177.242 267.282 177.275 267.003 177.034C267.678 175.959 270.463 174.436 271.603 173.771L271.735 173.814ZM367.17 167.702C366.6 169.291 364.743 169.585 363.61 172.612C362.003 171.011 365.812 168.651 366.742 167.663L366.947 167.44L367.17 167.702ZM354.11 169.957C353.77 170.629 352.9 171.023 352.215 171.434C352.155 171.292 352.098 171.15 352.038 171.009C352.438 170.419 353.233 170.095 353.891 169.735L354.11 169.957ZM302.351 163.831C306.188 165.883 302.388 168.82 304.806 170.73C304.026 170.78 303.532 170.882 302.8 170.604C301.705 169.254 302.261 165.733 302.351 163.831ZM352.923 161.516C353.538 161.312 353.871 161.459 354.311 161.801L354.368 162.338C353.876 163.486 353.035 164.48 351.628 164.092C350.873 163.921 349.756 163.858 349.351 163.478L349.521 163.211C350.79 162.693 351.731 162.166 352.923 161.516ZM354.253 155.546C355.54 155.612 357.046 155.614 358.271 155.934C357.896 156.383 358.115 156.184 357.313 156.311C355.955 156.241 353.763 156.389 352.625 156.126C353.205 155.616 353.381 155.729 354.253 155.546ZM276.668 150.066L276.865 150.165C277.82 150.654 280.658 152.095 281.093 152.865C280.805 153.099 280.628 153.255 280.393 153.549C281.673 154.605 283.293 154.618 284.445 155.881C281.138 154.951 279.308 153.269 276.2 151.697C276.165 150.657 276.29 149.997 276.438 148.972L276.668 150.066ZM222.632 151.897C223.461 151.37 224.641 151.89 225.31 152.483L222.607 152.397L222.632 151.897ZM371.095 148.309L370.987 148.692C369.873 149.357 369.34 149.698 368.385 150.616L368.168 150.662L368.013 150.41C368.583 149.253 369.57 148.561 370.763 148.146L371.095 148.309ZM321.585 139.969C323.073 140.901 324.548 140.332 325.415 141.569C325.913 144.604 320.221 148.377 317.686 149.121C316.266 149.39 314.948 149.694 313.54 150.024C314.388 147.759 315.477 145.596 316.215 143.319C317.905 142.329 320.07 141.144 321.585 139.969ZM188.333 144.858C188.109 146.381 185.84 147.868 184.576 148.506L184.433 148.395C184.53 148.061 187.526 145.432 188.198 144.743L188.333 144.858ZM262.072 145.055C263.8 144.925 263.767 146.166 264.112 147.422L264.968 147.717C263.303 147.737 260.98 147.735 259.383 148.27C260.452 146.593 259.251 146.844 262.072 145.055ZM287.593 120.025C290.53 119.779 293.978 121.851 295.918 123.997C293.968 130.44 290.555 131.756 284.66 134.105C280.628 137.752 279.298 134.169 277.955 130.695C280.988 123.616 279.173 122.739 287.593 120.025ZM270.645 126.358C270.997 130.205 269.147 131.534 269.207 134.378C268.537 129.699 267.452 130.538 270.645 126.358ZM236.141 127.771C235.728 128.539 234.151 129.378 233.363 129.803L233.127 129.485C233.652 128.778 235.139 127.984 235.954 127.483L236.141 127.771ZM212.283 122.865C211.922 123.797 211.226 124.022 210.345 124.279L208.679 124.778L208.51 124.545C209.432 123.336 210.711 124.025 211.95 122.431L212.283 122.865ZM126.222 108.746C127.318 108.773 127.429 108.825 128.495 109.156L128.572 109.39L127.81 109.379C126.633 109.568 126.271 109.693 125.122 109.52C125.366 108.965 125.484 109.079 126.222 108.746ZM193.525 96.7207C193.958 96.8329 193.995 96.922 194.394 97.1787C193.897 97.6573 193.369 97.603 192.55 97.7656C192.266 98.0401 192.434 97.9589 192.046 98.0137C192.374 97.2922 192.834 97.1314 193.525 96.7207ZM226.572 95.3896C226.287 95.9706 225.277 96.374 224.641 96.708L224.374 96.5664C224.752 95.8767 225.416 95.6173 226.122 95.207L226.572 95.3896ZM165.538 93.5127C165.727 93.5649 165.628 93.5129 165.789 93.7344C165.027 94.3625 162.72 94.8555 161.433 95.4121L161.2 95.5146C160.96 95.4774 161.113 95.522 160.796 95.2607C161.414 94.5648 164.426 93.8257 165.538 93.5127Z" fill="#FF81B2"/>
</g>
<defs>
<clipPath id="clip0_79_6087">
<rect width="480" height="480" fill="white"/>
</clipPath>
</defs>
</svg>
