<svg width="480" height="480" viewBox="0 0 480 480" fill="none" xmlns="http://www.w3.org/2000/svg">
<g clip-path="url(#clip0_79_9308)">
<path d="M171.814 227.658C167.361 230.329 160.867 236.437 157.862 240.706C155.918 243.469 154.309 246.498 151.97 248.965C151.23 249.745 150.367 250.562 149.433 251.097C148.244 251.777 141.227 253.73 139.972 253.56C137.051 253.17 133.186 250.085 131.27 247.966C128.322 244.71 125.433 240.238 124.54 235.878C124.073 233.6 123.886 231.207 123.243 228.975C122.367 225.937 120.988 223.005 120.476 219.869C120.093 217.521 120.33 215.015 119.845 212.701C119.542 211.253 118.59 209.997 118.245 208.529C116.215 199.877 115.879 194.094 116.306 185.323C116.72 176.817 117.364 167.362 119.74 159.182C121.909 151.712 125.929 145.439 129.921 138.876C131.665 136.01 133.28 132.957 135.358 130.317C140.481 123.81 155.008 110.301 161.732 105.714C166.401 102.528 171.557 99.64 176.558 97C178.812 95.8102 181.526 94.8382 183.599 93.366C184.975 92.3892 186.073 90.9007 187.347 89.7827C189.756 87.6692 201.997 84.839 205.586 84.2135C210.066 83.4327 214.581 83.2727 219.084 82.7387L232.13 81.3162C233.473 81.1732 237.49 80.612 238.651 80.6567C242.784 80.6712 247.148 81.3362 251.248 81.3892C256.353 81.4552 260.753 80.9022 265.875 82.0605C267.655 82.3487 269.505 82.172 271.278 82.4312C281.888 83.9842 292.485 87.4715 302.753 90.4652C305.903 91.3837 310.73 95.1285 313.775 96.515C319.253 99.0112 324.048 102.354 329.073 105.585C332.588 107.927 338.173 110.621 341.163 113.595C351.275 123.656 362.033 134.336 367.858 147.555C369.073 150.76 369.568 153.845 370.388 157.192C372.563 166.062 372.668 175.329 373.34 184.388C373.38 184.927 372.163 188.304 371.98 189.22C369.355 202.253 361.89 214.271 353.828 224.637C351.24 227.957 346.36 231.333 342.873 234.161C340.765 234.005 339.72 234.91 338.208 234.877C334.613 234.446 335.18 229.178 334.203 227.148C331.975 222.517 329.685 221.815 329.77 216.268C328.25 214.14 326.523 209.478 325.405 206.919C323.743 203.117 322.053 199.962 320.15 196.287C318.133 192.515 315.993 187.605 313.488 184.163C311.63 181.607 304.558 177.852 301.71 176.658C297.818 175.027 294.185 174.378 290.533 172.042L290.148 171.793C283.29 172.217 275.845 171.031 268.88 172.204C268.36 172.291 266.353 173.224 265.538 173.437C262.378 174.263 254.365 177.156 251.785 179.062C246.183 183.246 241.633 188.906 236.939 193.999C233.413 197.826 228.408 201.744 224.305 204.912C219.598 208.546 214.508 211.278 209.594 214.512C206.033 216.855 203.277 219.718 199.15 221.291C192.53 224.523 187.492 223.623 180.497 225.076C178.789 225.431 176.154 226.798 174.237 227.425L173.718 226.671C173.992 225.6 174.581 224.796 175.162 223.843L175.074 223.744C174.697 224.101 173.833 224.991 173.433 225.176L173.267 224.935C173.52 223.684 173.475 223.49 174.335 222.639C173.491 222.396 169.473 225.364 171.814 227.658ZM340.155 214.88L340.225 215.318L340.688 215.435C341.988 214.628 344.133 213.022 344.208 211.393C343.588 210.434 342.98 210.456 341.885 210.311C341.16 210.727 339.233 211.689 338.87 212.239L339.088 212.659C339.938 212.717 340.888 212.662 341.523 213.161C341.535 214.077 340.878 214.327 340.155 214.88ZM204.846 212.016C206.256 212.684 207.396 213.131 208.462 211.616C208.32 210.808 207.536 210.063 206.802 209.701C205.187 210.57 204.186 211.017 202.865 212.293L202.799 212.663C203.523 212.764 204.17 212.353 204.846 212.016ZM356.625 213.655C357.48 212.94 357.505 213.136 357.833 212.237C357.608 211.396 356.585 210.642 355.863 210.167C355.373 210.952 354.943 211.61 354.545 212.45C355.203 213.267 355.665 212.859 356.625 213.655ZM348.375 194.935C351.268 194.907 351.465 194.818 353.84 192.743C354.285 192.355 355.745 190.686 355.985 190.232L355.57 189.979C351.97 192.729 353.865 193.543 348.123 194.726L348.188 195.068L348.375 194.935ZM353.24 205.179C354.21 204.843 355.185 204.697 355.663 203.942C354.945 203.42 353.68 203.562 352.795 203.619L352.473 203.842C351.545 203.666 351.7 203.531 351.103 203.915C351.26 204.67 352.193 205.109 352.875 205.411L353.24 205.179ZM262.333 166.864C263.05 166.521 263.015 166.549 263.575 165.987C263.49 164.421 261.705 164.48 260.535 164.565L259.395 165.258L259.33 165.565C260.148 165.569 261.485 165.432 262.07 165.884L262.333 166.864ZM199.591 212.444L199.899 212.587C201.106 211.879 202.062 211.465 202.603 210.153L202.496 210.096C200.97 211.124 199.351 210.578 198.395 211.328C198.557 211.985 198.823 211.942 199.591 212.444ZM351.19 172.474C353.458 171.073 354.63 170.826 356.74 168.955L356.783 168.591L356.628 168.493C355.288 169.326 351.843 171.151 351.065 172.019L351.075 172.374L351.19 172.474ZM304.143 112.915C304.838 112.684 305.1 112.638 305.703 112.197C305.343 111.468 304.885 111.312 304.378 110.648C303.955 111.367 302.913 112.887 302.928 113.608C303.583 113.523 303.62 113.37 304.143 112.915ZM234.325 175.083C236.904 174.257 238.534 174.17 240.792 173.535L240.743 173.155L240.555 173.088C238.915 173.362 235.481 173.881 234.194 174.725L234.023 175.109L234.325 175.083ZM187.922 191.816C189.086 191.529 189.594 191.485 190.596 190.792L190.446 190.464L190.169 190.622C189.186 190.786 188.245 190.855 187.383 191.322L187.398 191.615L187.922 191.816ZM305.76 98.8347C306.805 98.7962 308.263 98.667 308.84 97.6387C308.383 97.3322 308.645 97.4247 307.983 97.5287C307.163 97.6465 305.42 97.768 304.87 98.237C305.343 98.7187 305.145 98.5797 305.76 98.8347ZM213.107 189.187C212.363 189.814 211.005 190.792 210.672 191.615L210.894 191.815C211.99 191.035 212.509 190.717 213.398 189.667C213.278 189.247 213.397 189.392 213.107 189.187ZM152.066 228.677C153.172 228.452 153.905 228.371 154.915 227.85L154.898 227.612L154.345 227.55C153.083 227.772 152.745 227.788 151.649 228.422L151.689 228.732L152.066 228.677ZM235.692 177.936C234.537 178.832 234.091 179.719 233.418 181.013L233.488 181.382C234.538 180.553 234.978 179.71 235.708 178.591C235.709 178.409 235.727 178.099 235.692 177.936ZM248.739 151.087C249.331 150.392 250.515 149.294 250.54 148.554L250.253 148.401C249.395 149.317 248.856 149.781 248.302 150.916L248.476 151.177L248.739 151.087ZM274.615 91.8197L274.828 92.3485C276.088 92.572 278.67 93.1547 279.813 92.8787L279.615 92.54C277.96 92.3497 276.123 91.5265 274.615 91.8197ZM351.593 216.626C352.333 216.315 353.27 216.067 353.693 215.515C353.313 215.23 353.468 215.281 353.03 215.164C352.085 215.581 351.81 215.629 351.125 216.354L351.285 216.631L351.593 216.626ZM357.04 202.77C357.875 202.172 358.808 201.633 359.343 200.792L359.145 200.499C358.355 201.048 357.345 201.62 356.858 202.412L357.04 202.77ZM306.888 124.014C305.525 124.61 303.558 125.403 302.373 126.195V126.554L302.455 126.6C303.538 126.139 306.203 125.101 306.995 124.462L307.02 124.099L306.888 124.014ZM240.062 178.509C238.644 178.68 237.337 179.367 236.393 180.44L236.545 180.748L236.903 180.857C237.621 180.246 240.226 178.704 240.265 178.553L240.062 178.509ZM356.61 133.55C355.758 134.016 352.81 135.464 352.5 136.131L352.858 136.269C353.815 135.701 356.485 134.432 356.905 133.826C356.673 133.545 356.8 133.589 356.61 133.55ZM210.79 199.991C209.773 200.384 206.6 201.515 206.1 202.298L206.377 202.386C207.803 201.857 209.712 201.219 210.994 200.468L211.005 200.164L210.79 199.991ZM195.755 213.507C194.103 214.26 192.985 215.019 191.905 216.529C192.041 216.991 191.915 216.838 192.183 217.055C192.992 216.357 195.534 214.444 195.839 213.726L195.755 213.507Z" fill="#97918A"/>
<path d="M211.383 115.746C213.112 115.441 216.813 116.308 218.333 117.319C225.45 122.05 224.985 133.927 224.299 141.434C224.173 142.818 223.34 146.264 223.551 147.214C226.038 149.64 227.796 147.734 231.383 148.632L231.72 148.719C234.079 147.668 236.523 146.62 238.805 145.578C249.184 140.838 245.757 128.557 248.497 120.009C248.78 119.127 249.098 118.446 249.943 118.057C253.567 120.139 251.765 138.146 250.182 141.77C249.094 144.262 247.048 147.471 246.365 149.609C244.043 150.98 241.806 153.08 239.395 154.668C235.239 157.405 227.869 157.767 222.968 157.873C222.296 157.888 219.91 157.197 218.738 157.071C215.296 158.195 212.222 162.231 209.424 164.333C207.954 165.004 205.29 166.282 203.806 166.579C200.768 167.186 200.947 167.404 198.643 169.436L198.372 169.357C196.617 168.877 192.578 169.682 190.661 170.133C189.14 172.001 188.244 174.644 187.196 175.898C184.607 178.996 180.692 182.258 177.687 185.156C177.202 185.134 177.372 185.153 176.933 185.093L176.646 185.05C169.146 190.389 158.872 191.33 150.874 187.288C147.863 185.766 147.979 187.308 144.789 184.439C143.813 178.705 138.193 174.641 140.333 167.232C142.176 158.852 144.229 150.16 152.307 145.714C154.06 146.131 155.832 145.961 156.766 147.574C156.877 149.004 156.513 149.393 156.095 150.794L156.548 151.403C156.549 152.876 150.16 155.767 149.378 157.807C149.277 158.073 150.002 158.141 149.674 159.299C149.068 159.23 149.275 159.213 148.677 159.33C147.395 161.88 146.029 166.798 147.136 169.559C152.7 183.433 170.438 180.11 179.722 172.34C180.933 171.327 181.727 169.554 182.433 168.168C180.316 167.361 179.79 166.702 178.05 165.657C172.412 162.271 170.638 158.434 167.61 152.753C167.635 151.163 167.678 149.573 167.737 147.984C167.947 143.131 169.433 135.316 173.289 132.345C178.652 128.213 185.46 130.501 189.221 135.368C194.704 142.462 195.156 149.389 193.987 157.931C193.887 158.665 193.939 159.256 194.385 159.779C196.243 160.291 196.694 159.809 198.366 159.575C204.681 158.691 206.901 155.153 212.728 152.954C210.989 149.905 208.381 148.372 206.896 144.957C206.251 143.473 204.271 137.641 203.487 135.864C203.643 135.662 203.798 135.461 203.953 135.26C203.044 128.814 203.034 119.338 211.383 115.746Z" fill="#4B4746"/>
<path d="M365.318 290.04C368.648 290.085 370.153 292.535 371.35 295.222C373.82 300.765 374.775 306.602 376.283 312.442C379.048 323.17 382.117 334.243 382.002 345.423C381.92 353.445 382.533 361.265 382.163 369.27C382.048 371.753 382.332 374.372 382.092 376.862C379.977 389.312 377.591 405.4 365.586 412.288C364.531 412.893 363.545 413.832 362.398 414.295C354.756 416.487 347.595 413.12 340.818 409.895C332.173 410.743 325.13 414.717 315.9 413.897C308.265 413.22 308.947 413.088 305.087 406.458C305.095 403.67 302.658 400.94 301.933 398.137C301.826 397.723 301.997 395.525 301.958 395.373C299.15 387.338 289.408 379.63 282.605 374.892C279.783 372.928 275.023 374.55 275.233 368.975C275.325 366.448 277.198 360.247 279.618 359.455C285.37 356.89 296.34 357.777 301.627 355.415C308.297 352.43 317.88 341.847 323.458 336.795C326.515 334.025 329.1 327.43 331.18 324.003C334.818 318.01 338.186 312.328 341.438 306.163C344.818 299.153 343.493 296.528 349.693 290.44C350.908 290.463 352.873 290.323 354.02 290.413C358.943 290.808 360.433 291.127 365.318 290.04ZM107.56 291.027C109.951 290.912 112.65 291.353 115.098 291.383C116.528 291.4 122.319 290.925 123.275 291.682C126.33 294.105 126.75 299.454 128.85 302.639C130.64 305.352 132.904 307.735 134.809 310.367C138.158 314.949 140.34 319.498 144.646 323.338C146.776 325.238 149.092 326.95 151.293 328.785C158.559 334.847 165.908 342.023 174.287 346.44C177.549 348.16 181.616 349.838 185.034 351.298C189.201 352.933 192.831 354.013 196.437 356.843C200.405 359.96 203.126 369.25 200.149 373.49C198.003 376.547 191.37 379.44 188.117 381.845C184.074 384.832 179.925 388.06 176.466 391.803C174.42 394.01 173.924 394.922 174.066 397.642C174.101 401.93 169.048 407.602 165.254 409.012C158.62 411.477 150.194 407.255 144.287 404.932C142.795 407.312 140.224 409.925 137.22 409.865C130.63 409.73 126.22 408.353 120.852 404.605C120.01 404.018 117.606 404.325 116.662 403.088C115.3 401.235 114.225 399.447 112.764 397.625C102.958 385.392 98.7474 371.05 98.9214 355.517C98.9497 352.99 98.2187 350.275 98.3638 347.918C99.1586 335 99.8822 322.357 102.399 309.617C103.448 304.324 103.54 294.76 107.56 291.027ZM371.797 396.993V396.992V396.993ZM161.665 388.097C161.636 388.103 161.62 388.107 161.607 388.108C161.62 388.107 161.636 388.103 161.666 388.097C162.063 387.766 162.431 387.463 162.788 387.178C162.431 387.463 162.062 387.766 161.665 388.097ZM322.653 385.827V385.828V385.827ZM166.093 384.74H166.094H166.093ZM176.885 378.51V378.509V378.51ZM310.778 376.39V376.389V376.39ZM184.215 375.804C184.138 375.818 184.06 375.833 183.982 375.849C184.06 375.833 184.138 375.818 184.215 375.804ZM337.245 367.243C336.915 367.358 336.548 367.506 336.103 367.697C336.548 367.506 336.915 367.358 337.245 367.243ZM371.056 361.123H371.057H371.056ZM375.615 357.21H375.616H375.615ZM375.99 356.877V356.876V356.877ZM367.24 356.247L367.241 356.248L367.24 356.247ZM376.955 354.936H376.956H376.955ZM345.533 353.388V353.39L346.39 353.365L345.533 353.388ZM376.943 342.038C377.177 341.951 377.418 341.858 377.653 341.756C377.418 341.858 377.177 341.951 376.943 342.038ZM127.063 317.55H127.064H127.063ZM154.897 227.612L154.915 227.85C153.905 228.371 153.171 228.452 152.066 228.678L151.689 228.732L151.648 228.423C152.744 227.788 153.083 227.772 154.345 227.55L154.897 227.612ZM174.336 222.639C173.476 223.49 173.52 223.685 173.267 224.935L173.432 225.177C173.833 224.992 174.697 224.102 175.074 223.744L175.162 223.843C174.581 224.795 173.992 225.6 173.718 226.671L174.237 227.425C173.268 227.597 172.801 227.627 171.814 227.658C169.473 225.364 173.492 222.396 174.336 222.639ZM195.838 213.726C195.533 214.445 192.992 216.357 192.183 217.055C191.915 216.838 192.041 216.991 191.905 216.529C192.985 215.019 194.103 214.26 195.754 213.508L195.838 213.726ZM353.03 215.164C353.467 215.281 353.313 215.23 353.693 215.514C353.27 216.067 352.332 216.316 351.592 216.627L351.286 216.631L351.126 216.354C351.81 215.629 352.085 215.581 353.03 215.164ZM341.885 210.311C342.98 210.457 343.588 210.434 344.208 211.393C344.133 213.022 341.988 214.629 340.688 215.435L340.225 215.318L340.156 214.88C340.878 214.327 341.535 214.077 341.523 213.161C340.888 212.662 339.937 212.717 339.087 212.659L338.871 212.239C339.233 211.69 341.16 210.727 341.885 210.311ZM355.863 210.167C356.585 210.642 357.607 211.396 357.833 212.237C357.505 213.136 357.48 212.941 356.626 213.655C355.666 212.859 355.203 213.267 354.545 212.45C354.943 211.61 355.373 210.952 355.863 210.167ZM206.802 209.701C207.536 210.063 208.319 210.808 208.461 211.616C207.396 213.13 206.256 212.684 204.846 212.016C204.17 212.354 203.523 212.764 202.798 212.663L202.865 212.294C204.186 211.017 205.188 210.57 206.802 209.701ZM202.602 210.153C202.062 211.465 201.105 211.879 199.899 212.587L199.59 212.444C198.823 211.942 198.557 211.984 198.395 211.328C199.352 210.578 200.97 211.124 202.497 210.096L202.602 210.153ZM352.795 203.619C353.68 203.562 354.945 203.42 355.663 203.942C355.185 204.697 354.211 204.844 353.241 205.179L352.876 205.411C352.193 205.109 351.261 204.67 351.103 203.915C351.7 203.531 351.546 203.666 352.473 203.842L352.795 203.619ZM359.342 200.792C358.807 201.633 357.876 202.172 357.041 202.77L356.858 202.413C357.345 201.621 358.355 201.048 359.145 200.499L359.342 200.792ZM211.005 200.164L210.995 200.468C209.712 201.219 207.803 201.857 206.377 202.386L206.1 202.299C206.6 201.515 209.773 200.384 210.79 199.991L211.005 200.164ZM355.985 190.231C355.745 190.686 354.286 192.355 353.84 192.743C351.465 194.818 351.268 194.907 348.376 194.935L348.188 195.068L348.123 194.725C353.865 193.543 351.97 192.729 355.57 189.979L355.985 190.231ZM190.596 190.793C189.594 191.486 189.086 191.529 187.922 191.816L187.398 191.615L187.383 191.323C188.246 190.856 189.186 190.786 190.169 190.622L190.446 190.464L190.596 190.793ZM213.107 189.187C213.397 189.392 213.278 189.248 213.398 189.668C212.509 190.717 211.989 191.035 210.894 191.815L210.671 191.615C211.005 190.792 212.363 189.815 213.107 189.187ZM235.692 177.936C235.727 178.098 235.709 178.409 235.708 178.591C234.978 179.71 234.538 180.554 233.488 181.383L233.418 181.012C234.09 179.719 234.537 178.832 235.692 177.936ZM240.264 178.553C240.225 178.704 237.62 180.246 236.903 180.857L236.544 180.749L236.393 180.44C237.337 179.368 238.643 178.68 240.062 178.51L240.264 178.553ZM240.744 173.155L240.792 173.535C238.534 174.17 236.904 174.257 234.325 175.083L234.023 175.108L234.194 174.725C235.48 173.881 238.915 173.362 240.555 173.088L240.744 173.155ZM356.783 168.592L356.74 168.956C354.63 170.826 353.457 171.073 351.19 172.474L351.075 172.374L351.065 172.019C351.842 171.151 355.287 169.326 356.627 168.493L356.783 168.592ZM260.536 164.565C261.706 164.481 263.491 164.421 263.576 165.987C263.016 166.549 263.05 166.521 262.333 166.864L262.071 165.884C261.486 165.432 260.148 165.569 259.331 165.565L259.395 165.258L260.536 164.565ZM177.469 139.605C180.294 141.035 183.385 141.728 185.434 144.364C186.08 145.196 186.517 145.65 187.242 146.402C187.209 149.048 187.863 150.402 188.205 152.891C188.513 155.137 188.092 158.828 185.271 159.032C179.38 156.963 171.321 149.417 174.236 142.445C174.171 142.601 176.688 140.944 177.469 139.605ZM250.541 148.554C250.515 149.294 249.331 150.392 248.739 151.087L248.476 151.177L248.301 150.917C248.855 149.782 249.394 149.317 250.252 148.401L250.541 148.554ZM210.231 124.191C215.791 127.024 218.663 128.377 219.08 135.656C219.186 137.507 219.45 143.39 218.64 144.751C215.388 143.051 214.15 141.51 212.417 138.349C209.269 132.61 208.528 130.352 210.231 124.191ZM356.61 133.551C356.8 133.59 356.672 133.546 356.905 133.827C356.484 134.433 353.815 135.701 352.858 136.269L352.501 136.131C352.811 135.464 355.757 134.016 356.61 133.551ZM307.02 124.098L306.996 124.462C306.203 125.101 303.538 126.14 302.456 126.6L302.373 126.554V126.195C303.558 125.403 305.526 124.609 306.888 124.013L307.02 124.098ZM304.377 110.647C304.885 111.311 305.343 111.468 305.703 112.197C305.1 112.638 304.838 112.684 304.143 112.915C303.621 113.37 303.582 113.523 302.927 113.608C302.912 112.887 303.955 111.366 304.377 110.647ZM307.983 97.5291C308.645 97.4251 308.383 97.332 308.84 97.6385C308.263 98.6667 306.805 98.7963 305.76 98.8348C305.145 98.5798 305.343 98.7186 304.871 98.2371C305.421 97.7681 307.163 97.6468 307.983 97.5291ZM274.615 91.8201C276.122 91.5269 277.96 92.3495 279.615 92.5398L279.813 92.8787C278.671 93.1547 276.088 92.5719 274.828 92.3484L274.615 91.8201Z" fill="#97918A"/>
</g>
<defs>
<clipPath id="clip0_79_9308">
<rect width="480" height="480" fill="white"/>
</clipPath>
</defs>
</svg>
