<svg width="480" height="480" viewBox="0 0 480 480" fill="none" xmlns="http://www.w3.org/2000/svg">
<g clip-path="url(#clip0_79_6526)">
<path d="M167.005 76.4072C169.275 77.166 172.65 77.6097 175.059 77.8994C177.372 78.1776 180.251 77.9718 182.401 78.8945C186.075 80.471 189.053 83.429 192.652 85.2393C194.093 86.0293 195.664 85.872 197.165 86.5713C202.207 88.9957 207.331 91.0564 212.503 93.1738C215.84 94.5403 219.212 97.4273 222.812 98.3086C227.925 99.5598 233.625 100.362 238.884 100.892C243.243 101.331 247.777 101.053 252.192 101.981C253.18 102.086 253.988 102.24 255.008 102.221C261.26 102.104 267.857 100.815 274.045 101.415C274.287 101.439 274.44 102.369 275.377 102.192C279.172 101.478 282.87 100.321 286.75 100.252C291.692 100.047 296.81 98.6884 301.7 97.9395C304.165 97.5617 306.81 96.9487 309.165 98.0762C308.585 99.6907 305.26 101.503 304.05 103.008C303.96 103.119 301.759 103.182 301.144 103.324L300.974 103.768C302.694 104.627 309.556 101.094 310.939 99.8955C311.037 99.4304 311.125 98.9637 311.205 98.4951C312.34 98.1816 313.18 98.3393 314.15 98.0166C319.57 97.656 327.63 99.6333 333.202 99.9121C335.427 100.023 339.112 101.768 341.41 102.294C351.832 104.509 362.465 110.867 371.275 116.408C374.47 118.419 379.513 127.387 381.115 130.846C380.345 131.296 379.857 131.458 379.497 132.259C379.639 133.111 379.897 133.369 380.38 134.077C379.829 135.203 376.49 135.354 375.222 135.531L377.622 137.37C379.197 137.244 380.807 137.078 382.375 136.75C382.807 136.928 383.17 137.078 383.465 137.2C385.535 140.28 385.279 144.023 386.144 147.568C387.779 154.268 388.592 161.171 387.085 168.005C385.297 176.102 381.822 185.692 375.795 191.572C375.342 192.014 374.374 191.726 373.729 192.646C373.384 194.12 374.002 195.616 373.932 197.121C373.615 203.883 370.67 210.691 364.803 214.368C361.275 216.579 357.047 217.291 353.12 218.49C351.372 219.024 349.719 219.79 348.014 220.43C347.127 220.761 346.06 220.859 345.255 221.356C341.987 223.377 331.207 232.405 328.755 235.209C326.975 237.244 325.999 239.801 323.997 241.691C320.824 244.688 304.584 255.56 300.519 256.753C298.719 257.28 296.532 257.09 294.724 256.657C291.029 255.775 283.385 252.593 281.345 249.355C280.805 248.496 280.475 247.502 280.135 246.551C281.077 241.988 281.254 238.106 281.229 233.503C281.222 231.788 281.694 229.464 281.627 227.658C281.537 225.219 281.295 222.976 281.3 220.524C279.68 218.959 279.438 218.578 278.428 216.45C278.98 215.374 278.655 214.949 279.085 214.233C279.575 214.591 279.763 214.817 280.138 215.295L280.702 215.312C282.107 215.666 283.819 214.951 285.377 215.758C285.817 215.986 286.592 215.759 287.085 215.629C288.05 215.394 289.21 214.7 289.75 213.841C289.862 213.018 289.87 213.077 289.485 212.34C288.82 212.153 288.855 212.187 288.428 211.648L288.758 211.302C289.265 209.882 288.97 209.634 288.125 208.512C288.275 207.448 288.715 207.542 288.75 206.581L288.555 206.42L288.088 206.874C286.55 206.731 285.915 206.126 285.798 204.557C284.673 203.967 284.882 203.827 283.72 204.521C282.675 204.666 282.54 204.588 281.812 205.55L281.532 205.928C280.312 206.47 278.824 205.607 276.412 206.409C275.802 205.707 275.682 205.552 274.945 205.01L274.885 204.669L276.152 204.203L276.207 203.937C275.732 203.526 275.562 203.547 274.947 203.557C273.315 203.582 272.29 201.63 270.465 202.142C268.417 202.716 268.132 204.886 266.377 205.954C266.087 206.731 266.325 206.544 265.798 206.903C260.958 205.842 256.77 203.633 252.005 202.514C250.175 202.353 248.101 202.839 246.285 202.709C241.332 202.355 236.595 203.193 231.747 204.191C221.559 206.289 212.541 212.145 202.948 215.95C199.083 217.483 195.638 217.827 191.798 218.906C191.182 218.365 191.03 218.149 190.225 217.951C189.542 218.139 189.365 218.554 188.945 219.146L188.493 219.192L188.125 218.851C188.176 217.692 188.462 217.456 187.99 216.772C185.338 216.017 181.347 215.891 181.178 219.535L181.498 219.847C182.908 219.812 183.683 219.263 184.479 220.339C183.342 220.999 181.899 222.533 181.149 222.562C180.681 222.36 179.617 221.889 179.155 221.993C174.143 223.123 169.221 224.742 164.221 225.92C162.295 226.373 159.865 225.738 157.87 226.257C156.541 226.603 155.447 227.13 154.203 227.698C152.928 227.059 150.595 227.091 148.125 226.047C143.131 227.785 125.637 224.668 121.059 221.601C120.167 221.602 116.157 221.654 115.528 221.344C109.886 218.461 102.381 215.786 97.4627 211.847C93.8405 208.946 91.9305 204.512 87.4822 202.017C85.7985 201.072 82.6677 192.161 81.3074 190.016C80.0669 188.06 79.1181 183.878 78.4276 181.574C74.0701 169.429 74.9234 158.341 82.7996 147.72C84.5605 145.345 91.2855 136.641 91.1795 134.33C91.0495 134.104 90.5338 133.179 90.5301 133.019C90.4649 129.332 95.1018 120.181 97.0545 117.472C98.2534 117.274 98.7024 116.687 99.9549 116.547C100.352 117.603 99.5947 117.5 99.8807 118.626C100.702 117.942 100.359 117.321 100.865 116.519C101.127 116.104 102.136 115.269 102.54 114.924C103.551 114.813 104.805 115.018 105.566 114.578C105.322 113.801 104.973 113.751 104.196 113.121C103.154 113.45 100.866 114.842 100.121 114.192L100.332 112.97C103.771 108.247 111.539 101.169 117.474 100.132C120.829 99.5456 126.966 99.803 130.281 100.835C132.19 101.429 135.966 103.645 137.811 103.587C137.882 103.31 138.137 102.41 138.286 102.167C139.557 100.092 141.488 97.6998 142.638 95.5645C149.808 82.261 153.766 81.014 167.005 76.4072ZM285.075 246.611C285.722 247.312 286.035 247.319 287.072 247.357C287.437 247.37 287.8 247.378 288.165 247.383L288.275 247.01C287.455 246.134 286.417 246.128 285.187 246.008L285.075 246.611ZM313.742 232.495C312.75 233.101 312.177 233.364 311.425 234.261L311.54 234.483L311.97 234.485L312.152 234.331C312.825 233.765 314.172 233.024 314.277 232.577L313.742 232.495ZM297.782 225.292C297.05 225.561 295.782 225.89 295.37 226.468L295.644 226.698L298.057 225.78L298.175 225.426L297.782 225.292ZM330.812 222.441C330.06 221.833 329.165 221.957 328.22 222.063L328.017 222.088C329.197 222.802 329.36 222.693 330.812 222.441ZM290.245 221.347C290.699 221.354 290.58 221.377 290.729 221.329C290.684 220.498 290.702 219.931 289.955 219.396L290.245 221.347ZM157.898 218.629C157.096 219.181 157.143 219.156 156.749 220.062L156.818 220.626L157.289 220.849C158.049 220.577 158.013 220.577 158.654 220.074L159.735 219.456L159.849 219.009C159.233 218.521 158.709 218.63 157.898 218.629ZM286.982 218.221C286.072 218.655 283.89 219.535 283.54 220.326L283.673 220.804C284.993 220.326 285.91 219.96 286.825 218.896L286.982 218.221ZM175.342 218.607C174.439 218.951 172.149 219.245 171.777 219.439C172.426 219.462 172.974 219.47 173.621 219.562L173.57 219.964L172.515 220.042L172.497 220.201C174.165 220.842 175.229 221.006 176.519 219.592L176.617 219.052C176.055 218.427 176.393 218.598 175.576 218.5L175.342 218.607ZM132.188 217.172C131.465 217.73 131.07 217.901 130.847 218.773C131.538 220.803 136.279 221.29 137.374 219.826C137.795 219.519 138.781 218.934 138.862 218.549C133.082 219.969 134.781 217.418 132.188 217.172ZM313.162 216.662C312.477 217.515 312.462 217.252 312.502 218.084C313.257 218.68 315.927 218.86 317.04 218.942C315.822 218.15 314.414 218.38 313.514 217.675L313.722 217.039L313.162 216.662ZM190.16 205.817C189.227 206.015 188.895 206.178 188.004 206.555C187.273 206.946 186.355 207.321 185.93 207.982C186.718 208.128 187.774 207.54 188.525 207.177C189.244 206.881 189.59 206.587 190.235 206.152L190.131 205.878L190.16 205.817ZM159.065 207.105C158.355 207.175 157.537 207.135 157.034 207.497C157.233 207.723 157.274 207.814 157.518 207.975C158.164 207.802 158.933 207.685 159.413 207.266L159.065 207.105ZM134.248 205.572C132.38 205.843 132.079 205.766 130.798 207.207L130.848 207.579C131.534 207.46 131.614 207.306 132.156 206.864C133.282 206.219 134.436 206.364 135.711 206.364L135.653 206.125C135.094 205.873 134.847 205.734 134.248 205.572ZM312.095 206.239L312.295 206.534C313.255 205.99 313.502 205.927 314.152 205.082L314.2 204.469L313.803 204.151L312.095 206.239ZM291.657 203.948C290.587 204.558 290.312 204.642 289.522 205.542L289.567 205.915L289.88 205.974C290.792 205.488 291.49 205.222 292.133 204.421L292.032 204.052L291.657 203.948ZM197.093 201.229C196.195 201.504 193.694 202.526 193.213 203.236C193.581 203.583 193.39 203.485 193.742 203.604C194.954 202.902 196.174 202.212 197.401 201.535C197.17 201.237 197.298 201.304 197.093 201.229ZM293.888 202.915C294.575 203.372 295.485 203.012 296.787 203.349L297.062 203.285C296.055 202.46 295.54 202.248 294.25 202.15L293.888 202.915ZM365.139 200.879C364.755 201.599 364.227 202.358 364.277 203.133L364.553 203.313C364.913 202.666 365.51 201.827 365.437 201.151L365.139 200.879ZM138.079 197.203C137.429 197.822 136.51 198.71 135.804 199.221C133.934 200.573 132.796 200.018 131.474 202.093L131.583 202.311L131.697 202.147C134.257 200.935 136.64 199.855 138.383 197.559C138.202 197.218 138.33 197.307 138.079 197.203ZM187.717 199.502C186.215 201.1 185.658 200.227 184.611 201.448L184.649 201.721C185.709 201.405 186.86 201.264 187.536 200.51C187.701 199.964 187.762 200.022 187.717 199.502ZM309.883 199.116C309.01 199.763 308.153 200.315 307.468 201.146L307.51 201.404L307.894 201.33C308.632 200.852 310.3 199.991 310.593 199.365L309.883 199.116ZM226.515 198.175C225.825 198.821 225.055 199.393 224.733 200.259C225.055 200.492 224.894 200.451 225.189 200.463C225.707 199.944 226.732 199.089 226.848 198.441L226.515 198.175ZM215.045 196.905C214.569 197.554 213.512 198.836 213.359 199.537L213.736 199.889C214.262 199.158 215.187 198.03 215.401 197.218L215.045 196.905ZM301.425 196.729C300.34 197.38 299.665 197.706 298.78 198.624C298.76 199.299 298.692 198.96 299.242 199.613C300.08 198.955 301.337 198.005 301.599 196.922L301.425 196.729ZM201.96 198.446C201.617 197.599 200.619 197.181 199.749 197.364C198.681 197.425 198.461 197.361 197.596 197.906L197.704 198.236C199.336 198.457 199.262 197.847 200.322 197.824C201.103 198.254 201.223 198.501 201.96 198.446ZM269.34 190.692C265.622 193.056 267.959 191.505 266.332 194.412L266.412 194.687C267.422 194.49 268.365 193.831 269.275 193.298C269.403 194.428 268.888 193.959 269.388 195.236C270.093 195.588 271.835 195.037 273.474 195.516C274.729 195.839 275.044 195.913 275.997 196.795L276.415 196.787C276.714 193.687 268.705 195.895 270.33 191.384C269.908 190.941 269.91 190.841 269.34 190.692ZM175.724 192.93C174.818 193.704 172.682 195.282 172.551 196.343L172.836 196.606C173.98 195.331 174.696 194.604 175.97 193.459C175.851 193.006 175.963 193.164 175.724 192.93ZM239.107 193.402C238.574 194.455 238.388 194.567 237.434 195.279L237.325 195.653L237.909 196.14C239.004 195.516 239.267 195.064 239.421 193.78L239.107 193.402ZM255.25 193.258C253.735 193.828 252.977 194.056 251.4 194.425L251.517 194.717C253.252 195.095 253.117 194.614 254.812 194.534C255.98 194.479 256.835 194.876 258.059 194.677L258.282 194.733C259.23 194.982 259.417 195.066 260.267 195.544L260.775 195.413L260.87 195.021C259.852 194.021 257.952 194.042 256.635 193.805C256.09 193.706 255.732 193.314 255.25 193.258ZM92.6131 191.405C91.8862 192.15 91.0086 192.919 90.5731 193.833L90.7078 194.328C91.4877 193.6 92.3572 192.955 92.744 192L92.6131 191.405ZM202.112 191.213C201.176 191.878 200.755 192.174 199.73 192.677L199.709 192.988L200.332 193.52C201.048 192.779 202.258 191.99 202.357 191.385L202.112 191.213ZM290.857 192.541C289.347 192.497 282.687 191.751 281.892 192.39C283.063 193.577 285.68 192.304 287.945 193.177C289.06 193.266 290.967 193.481 291.852 192.766L291.61 192.695L291.54 192.493L290.857 192.541ZM314.15 190.712C313.458 191.263 312.895 191.602 312.487 192.379L312.537 192.852L312.928 193.069C313.652 192.637 314.293 192.398 314.615 191.658C314.435 191.153 314.477 191.026 314.15 190.712ZM172.977 191.504C172.234 191.795 170.739 192.189 170.489 192.732L170.904 192.937C171.71 192.609 172.871 192.275 173.35 191.618L172.977 191.504ZM252.237 190.616C251.64 190.036 251.049 190.257 250.207 190.375C251.027 190.773 251.292 190.917 252.237 190.616ZM123.204 188.176C122.156 188.966 121.907 189.088 121.154 190.121L121.198 190.5L121.473 190.576C122.19 189.889 122.892 189.186 123.58 188.47C123.372 188.183 123.504 188.271 123.204 188.176ZM133.951 186.301C133.502 187.15 131.692 189.262 131.665 189.75C132.865 189.621 133.772 187.936 134.588 187.401C135.045 187.102 135.705 186.939 136.426 186.5L134.83 186.114L133.951 186.301ZM329.892 188.269C329.305 187.872 328.357 187.606 327.689 187.887C326.59 188.183 326.063 188.097 325.508 188.84C326.3 189.243 326.947 188.808 327.667 188.412C328.532 188.675 329.03 188.949 329.854 188.64L329.892 188.269ZM295.912 184.465C294.85 184.738 294.547 184.847 293.472 184.715C292.418 185.054 291.46 186.948 290.325 188.084L290.13 188.518L290.372 188.759C291.139 188.648 291.785 188.32 292.15 187.604C293.115 185.699 294.787 186.639 296.237 184.693L295.912 184.465ZM308.173 186.251C309.315 187.966 312.885 187.295 314.597 186.834L314.58 186.428C313.14 185.823 311.017 187.839 308.367 185.405L308.173 186.251ZM203.269 181.121C202.194 182.144 198.468 184.527 200.294 186.198C201.07 186.908 202.149 186.811 203.134 186.783L203.306 186.504C201.508 185.768 202.14 186.999 200.536 185.506C199.941 183.616 202.724 183.901 203.565 182.001C203.454 181.466 203.53 181.571 203.269 181.121ZM243.796 183.41C241.867 184.682 242.166 184.51 239.761 184.543C240.046 184.887 240.205 185.086 240.521 185.403C241.821 185.559 243.206 184.59 244.21 183.798L244.244 183.447L243.796 183.41ZM111.351 183.357C110.717 183.179 110.756 183.204 110.104 183.344C109.131 183.55 108.549 183.498 107.93 184.107L108.337 184.35C108.891 184.209 108.75 184.354 109.055 184.024C109.884 183.885 110.687 183.842 111.351 183.357ZM284.057 182.634C282.957 182.739 281.427 182.786 280.457 183.205L280.317 183.562L280.548 183.761C281.75 183.585 283.083 183.492 284.15 182.973L284.152 182.685L284.057 182.634ZM211.979 180.601L210.698 181.129L210.546 181.503C211.255 182.33 211.349 182.433 211.456 183.514C211.827 182.557 212.175 181.681 212.592 180.743L212.372 180.519L211.979 180.601ZM169.378 181.96C168.725 182.522 168.168 182.667 167.79 183.35C168.89 183.344 169.791 183.175 170.81 183.187C171.761 183.192 171.712 183.21 172.519 182.713C171.466 182.295 170.303 182.669 169.668 181.707L169.378 181.96ZM283.595 177.511C281.472 179.309 280.117 178.177 279.05 180.273L279.292 180.216C280.557 179.648 283.575 178.721 284.165 177.729L284.014 177.51L283.595 177.511ZM328.912 179.657C328.134 179.155 326.137 178.526 325.34 178.687C326.815 179.611 327.237 179.874 328.912 179.657ZM296.642 179.091C297.347 178.641 297.76 178.091 298.527 177.638C299.267 177.201 299.933 176.977 300.048 176.15C299.168 175.425 298.145 175.352 297.027 174.991L296.642 179.091ZM174.318 173.677C173.258 174.119 172.634 174.358 171.638 174.959C172.117 175.385 172.672 175.792 172.957 176.347C172.487 177.373 172.018 177.909 172.223 178.864C173.03 178.037 173.185 177.782 173.475 176.649C173.195 175.147 173.505 175.018 174.318 173.677ZM332.165 176.103C331.622 176.814 330.992 177.483 330.827 178.339C331.254 178.616 331.137 178.566 331.287 178.614C331.697 177.866 332.133 177.131 332.588 176.409C332.273 176.111 332.432 176.18 332.165 176.103ZM95.9285 175.46C95.1773 175.839 94.0701 176.3 93.5369 176.897C93.6418 177.4 93.5128 177.252 93.8055 177.538C94.5382 177.063 95.738 176.411 96.1571 175.716L95.9285 175.46ZM377.059 173.208C376.049 174.977 374.362 175.545 372.349 176.082C372.05 176.164 371.744 176.235 371.439 176.295L371.33 176.634L371.545 176.959C373.382 176.513 377.004 175.598 377.434 173.585C377.352 173.494 377.152 173.257 377.059 173.208ZM283.224 171.265C281.75 171.651 280.393 172.176 280.557 173.932C281.017 174.577 281.302 174.588 282.059 174.836C281.402 173.759 281.379 174.1 281.542 173.128C282.209 172.238 282.408 172.186 283.388 171.588C283.333 171.48 283.277 171.372 283.224 171.265ZM327.463 170.718C326.38 171.865 324.238 172.713 324.325 173.799C325.705 173.05 327.323 172.476 327.463 170.718ZM350.92 170.724C348.8 170.595 344.748 170.816 344.388 173.56L344.74 173.597L344.87 173.412C346.102 172.214 346.563 172.309 347.775 171.395C349.197 171.377 349.885 171.444 351.24 170.926L351.29 170.564L350.92 170.724ZM86.6629 172.976L86.9217 173.189C87.7656 173.101 88.6076 172.996 89.4471 172.875L89.8299 172.554C89.0344 172.197 88.4458 172.595 87.158 172.172L86.6629 172.976ZM140.227 171.338C138.994 171.624 137.143 171.695 136.238 171.952L136.248 172.574C137.554 172.486 139.319 172.413 140.389 171.646L140.227 171.338ZM231.312 169.112C230.645 169.461 227.782 170.882 226.772 171.076C226.589 171.112 226.631 171.556 226.633 171.594C228.4 171.232 229.524 170.78 231.135 169.919L231.312 169.112ZM307.68 165.055C306.6 165.401 306.032 166.101 305.189 166.892C304.544 167.561 303.165 168.792 302.972 169.568C303.985 169.458 304.855 168.255 305.47 167.491L305.72 167.178C306.597 166.466 306.965 166.165 307.72 165.342L307.68 165.055ZM107.393 166.62C106.632 167.362 106.609 167.391 106.207 168.361L106.486 168.628C107.303 168.266 107.108 167.55 107.338 167.439C107.974 167.136 110.989 167.424 111.812 167.451C112.743 167.387 112.808 167.303 113.645 166.825L113.641 166.672C111.487 166.634 109.538 166.765 107.393 166.62ZM363.222 167.272C362.71 167.241 362.198 167.27 361.695 167.359C362.319 167.617 366.758 168.753 367.184 168.564C366.602 167.88 364.105 167.329 363.222 167.272ZM264.917 167.626C263.615 167.254 262.722 167.435 261.375 167.556L261.25 167.777L261.465 168.005C262.782 168.271 263.632 168.306 264.894 167.855L264.917 167.626ZM237.855 162.442C235.642 162.75 234.512 161.669 233.387 162.147C233.252 163.399 233.218 164.179 232.748 165.365C232.526 166.124 232.331 166.797 232.154 167.566L232.383 167.627C232.949 167.178 233.589 166.615 234.222 166.294C235.599 165.751 237.797 164.396 238.147 162.873L237.855 162.442ZM156.249 164.149C155.141 164.97 154.668 165.366 153.66 166.309L153.613 166.676L153.931 166.829C155.001 166.125 155.562 165.571 156.485 164.712L156.535 164.314L156.249 164.149ZM163.529 163.466C162.678 164.071 161.899 164.628 161.078 165.281C161.333 165.654 161.156 165.524 161.635 165.636C162.363 165.116 163.485 164.446 163.888 163.709C163.556 163.458 163.649 163.496 163.529 163.466ZM228.597 163.773C227.977 164.125 228.023 164.155 227.493 164.661L226.835 164.611C225.521 164.464 224.626 164.298 223.304 164.452C223.695 164.85 224.203 164.825 224.871 164.967C226.057 165.339 228.836 165.963 228.597 163.773ZM147.497 161.506C146.614 162.172 145.726 162.646 144.885 163.303C146.306 163.789 146.228 163.257 146.806 164.783L147.153 165.166L147.47 165.021C147.492 164.151 147.262 163.981 146.748 163.275C147.061 162.109 147.663 162.751 147.649 161.646L147.497 161.506ZM176.86 161.862C175.855 161.356 176.375 161.47 175.236 161.523C173.059 162.653 173.61 164.061 170.874 163.671C170.485 163.616 170.345 163.666 170.03 163.851C171.182 164.159 171.489 163.832 172.983 164.308C172.439 164.403 172.236 164.411 171.736 164.636C172.082 164.825 172.377 164.991 172.735 165.159C173.477 164.705 176.049 162.521 176.86 161.862ZM100.459 163.031C99.4964 163.101 98.2407 163.817 97.324 164.258C96.4958 164.28 95.4654 164.171 94.8524 164.542C95.7356 164.894 96.9659 164.787 97.9149 164.664C98.828 164.249 99.9794 163.863 100.459 163.031ZM218.277 162.25C217.636 162.312 217.18 162.347 216.526 162.364C216.795 163.217 217.028 163.079 217.484 163.998C217.811 163.523 217.722 163.78 217.773 163.234L218.896 162.312L218.805 162.028L218.277 162.25ZM153.579 157.834C151.901 158.597 150.506 159.155 149.263 160.572C149.614 160.799 149.507 160.751 149.653 160.799C151.079 159.89 152.317 159.137 153.792 158.312L153.83 157.947L153.579 157.834ZM111.667 158.488C111.03 159.132 110.542 159.588 109.853 160.176C109.858 160.354 109.848 160.641 109.891 160.797C110.877 160.118 111.167 160.028 111.688 159.008L111.667 158.488ZM222.891 158.453C222.114 159.303 221.836 159.406 220.746 159.773L220.728 160.106C221.227 160.364 221.379 160.447 221.91 160.618C222.577 160.331 222.962 159.535 223.378 158.892L223.345 158.529L222.891 158.453ZM136.219 158.486C135.434 158.801 134.935 158.903 134.423 159.567L134.358 160.218L134.634 160.531L134.78 160.378C135.41 159.731 135.629 159.564 136.371 159.059C136.351 158.579 136.442 158.754 136.219 158.486ZM209.347 158.223C208.584 158.708 207.757 159.099 207.369 159.883L207.667 160.011C208.514 159.502 209.111 159.14 209.903 158.556L209.838 158.255L209.347 158.223ZM323.968 157.089C321.75 157.801 319.902 156.668 318.697 158.645L318.86 158.922C320.055 158.655 322.203 157.624 322.86 157.67C323.89 158.975 322.675 158.793 323.814 159.896C323.977 159.185 323.995 158.285 324.67 158.096C326.287 157.643 328.455 158.488 330.434 158.672C328.902 157.886 325.643 157.022 323.968 157.089ZM364.152 155.165C363.22 155.713 360.36 157.936 360.053 158.87L360.4 159.134L360.627 159.104C361.412 158.355 364.61 155.803 364.8 155.521C364.417 155.188 364.632 155.305 364.152 155.165ZM236.94 156.625L236.648 156.713C232.24 157.992 233.852 155.723 229.727 158.614C232.024 158.158 232.891 157.24 234.817 157.579C235.478 157.743 235.405 157.708 236.003 157.552C237.061 157.272 238.183 157.368 239.18 157.821C239.601 158.371 239.642 158.457 239.95 159.082L240.271 159.069C240.08 157.297 238.37 157.511 237.362 156.561L236.94 156.625ZM297.385 153.186C295.685 153.849 291.333 156.194 292.423 158.43L293.167 158.693C292.789 154.724 296.667 155.003 297.88 153.312L297.385 153.186ZM165.847 157.264C164.701 157.696 164.362 157.76 163.417 158.491L163.52 158.668L163.815 158.604L166.241 157.679L166.363 157.374L165.847 157.264ZM179.243 156.388C178.376 156.567 177.258 156.692 176.581 157.203L176.539 157.602L176.72 157.74C177.425 157.454 178.998 156.962 179.358 156.472L179.243 156.388ZM303.34 155.165L303.527 155.465C305.675 155.447 305.833 155.305 307.735 156.263L308.758 155.753L308.769 155.451C308.024 155.18 304.597 154.585 303.724 154.49L303.34 155.165ZM338.889 153.625C338.664 153.693 338.369 153.752 338.202 153.875C336.232 154.023 334.309 153.818 333.202 155.687L333.463 155.832L333.952 155.483C336.732 153.846 338.182 155.014 339.349 154.325L339.295 153.89L338.889 153.625ZM139.115 152.053C137.88 152.909 135.704 153.801 135.158 155.065L135.347 155.259C136.12 154.743 139.345 152.757 139.679 152.233C139.574 151.812 139.688 151.926 139.5 151.782L139.115 152.053ZM346.814 153.512C345.695 153.764 345.477 153.736 344.647 154.458L344.65 154.646C345.112 154.639 345.125 154.689 345.54 154.547C346.297 154.432 347.295 154.367 347.889 153.96L347.912 153.823C347.45 153.658 347.282 153.542 346.814 153.512ZM322.093 150.912C319.695 152.327 319.335 152.46 316.525 152.812C316.967 153.369 316.875 153.204 317.557 153.582C318.722 153.66 321.384 152.105 322.385 151.405L322.557 151.04L322.093 150.912ZM88.4285 146.461C87.0688 147.903 84.679 149.745 84.3319 151.478C84.6906 152.356 84.6791 152.308 85.3992 152.944L85.6131 152.684C86.7203 151.393 88.0834 151.521 88.5994 150.724C88.1405 150.132 88.3395 150.342 87.6219 149.972C87.4804 149.051 87.3637 148.779 87.9129 148.009C88.1454 147.689 88.3859 147.374 88.6336 147.065C88.5891 146.549 88.6992 146.731 88.4285 146.461ZM307.412 151.359C306.112 151.431 305.329 151.368 304.157 151.93L304.173 152.238C304.852 152.28 304.675 152.325 305.309 152.172C306.517 152.001 307.312 151.978 308.394 151.413L308.167 151.197L307.412 151.359ZM236.398 149.667C235.795 150.234 234.569 151.214 234.38 151.926L234.667 152.039C235.485 151.432 236.471 150.838 236.955 149.987C236.667 149.626 236.853 149.732 236.398 149.667ZM195.903 150.736C194.734 150.076 190.537 150.055 189.288 150.346L189.183 150.6C190.591 151.176 191.932 150.242 194.674 151.336L195.903 150.736ZM352.72 149.03C351.592 149.51 350.467 149.997 349.345 150.49L349.447 150.651C350.17 150.578 350.71 150.515 351.425 150.384C352.985 149.619 354.707 149.681 356.472 149.572C355.295 149.399 353.882 149.156 352.72 149.03ZM296.697 146.852C295.785 149.942 294.875 148.22 293.862 150.058L294.095 150.456C295.367 149.812 296.172 149.727 297.252 148.777C297.559 147.788 297.55 148.292 297.133 147.214L296.697 146.852ZM332.737 148.478C331.912 148.874 331.005 149.249 330.307 149.823L330.432 150.054L331.055 149.818C331.852 149.562 333.072 149.287 333.622 148.728C333.12 148.442 333.325 148.512 332.737 148.478ZM271.763 148.369C270.775 148.238 270.785 148.231 269.803 148.377L269.202 148.703C269.709 149.027 270.81 148.712 271.51 148.587L271.947 148.621L271.763 148.369ZM165.876 146.495C163.974 147.503 161.755 147.463 160.602 148.194L160.804 148.354C162.31 148.135 164.928 147.872 166.119 146.985L166.168 146.656L165.876 146.495ZM323.487 146.194C323.682 147.56 324.3 147.579 325.564 148.055C325.109 146.888 324.607 146.628 323.487 146.194ZM127.231 144.829C125.838 145.538 124.177 146.098 124.48 147.91L124.569 147.998C125.207 146.204 126.707 146.124 127.314 144.877L127.231 144.829ZM358.57 145.374C359.048 146.389 359.252 147.073 360.122 147.771C360.824 147.959 360.537 147.935 361.29 147.727C360.702 147.224 359.038 145.707 358.57 145.374ZM372.064 144.224C371.08 144.732 366.872 146.162 366.78 146.231C367.525 146.643 368.087 146.617 368.934 146.694C369.457 146.905 369.98 147.121 370.5 147.341L370.45 147.317L371.173 147.486C370.515 146.93 370.444 147.069 370.309 146.4C371.024 145.849 372.149 145.207 372.474 144.504L372.064 144.224ZM196.111 145.023C195.615 144.611 194.4 144.93 193.454 144.971C192.627 145.297 192.262 145.46 191.37 145.456C189.417 145.449 187.799 146.301 186.083 147.162C187.554 146.925 192.29 146.097 193.321 145.41L193.436 145.436C194.422 145.664 195.365 145.923 196.111 145.023ZM303.125 145.216C301.452 145.562 301.12 145.567 299.555 146.263L299.575 146.55L299.835 146.352C301.275 146.386 302.59 146.681 303.492 145.359L303.36 145.12L303.125 145.216ZM335.763 143.123C334.55 144.682 334.555 144.111 333.133 145.007L333.357 145.525C334.297 145.168 335.802 144.745 336.295 143.879C336.09 143.335 336.213 143.503 335.763 143.123ZM350.222 138.312C347.952 138.926 346.172 140.194 344.332 139.642C343.975 139.535 343.83 139.597 343.513 139.758C342.15 141.6 341.432 142.84 339.354 143.86C339.249 144.434 339.245 144.153 339.365 144.704C340.96 143.567 343.092 141.481 344.417 140.89C346.609 139.914 347.967 139.88 350.357 138.692L350.367 138.396L350.222 138.312ZM326.252 141.441C325.315 141.246 325.732 141.172 324.947 141.562C324.125 142.509 323.602 142.953 323.662 144.181C324.334 144.697 324.602 144.778 325.5 144.573L325.8 144.183C327.407 143.127 327.865 143.865 330.057 144.205C328.935 143.112 328.082 143.427 326.845 142.066C326.72 141.866 326.437 141.621 326.252 141.441ZM306.607 142.548C305.732 143.063 304.822 143.458 304.282 144.277C305.589 145.077 308.675 143.828 310.889 144.497C311.649 144.492 312.28 144.598 312.87 144.176L312.803 143.798C311.31 143.031 308.365 143.416 306.803 143.946L306.514 143.771C306.532 143.263 306.54 143.236 306.673 142.744L306.607 142.548ZM103.247 138.866C102.035 138.625 99.7679 140.033 98.7156 140.67C97.6866 141.439 97.3028 141.459 96.033 141.645L95.9393 141.969C96.3218 142.336 96.6452 142.639 97.0487 142.982L97.2899 143.206C99.2992 142.118 99.5882 142.336 101.517 142.003C101.881 141.94 103.262 139.805 103.247 138.866ZM142.49 141.302C143.295 141.775 143.75 141.682 144.726 141.698C144.407 141.534 142.821 140.669 142.536 140.725L142.49 141.302ZM166.079 139.415C165.401 139.889 163.873 140.795 163.617 141.462C164.054 141.609 163.878 141.603 164.128 141.592C164.837 141.112 166.257 140.314 166.551 139.613L166.079 139.415ZM133.701 141.284L133.684 141.589C134.475 141.581 134.694 141.455 135.422 141.189L136.323 141.207L136.358 140.962C135.56 140.594 135.584 140.573 134.661 140.49L133.701 141.284ZM308.3 139.996C308.9 140.987 309.69 141.421 310.84 141.545C309.972 140.611 309.612 140.137 308.3 139.996ZM180.489 138.624C179.221 138.769 178.494 138.383 177.566 138.5C176.376 138.866 174.845 139.411 173.937 140.271C175.129 140.91 175.673 139.808 176.576 139.666C177.983 139.062 178.225 139.044 179.728 139.33C180.416 138.931 180.254 139.202 180.489 138.624ZM360.11 135.603C359.635 136.195 359.653 135.93 359.673 136.469C360.332 136.642 360.393 136.614 361.088 136.608C362.123 137.392 363.202 138.776 364.062 139.133L364.423 138.493C363.468 137.213 361.68 135.98 360.11 135.603ZM332.692 135.728C332.237 137.131 331.484 137.29 330.72 138.434C331.277 138.216 331.603 138.061 332.138 137.79C332.758 137.33 334.162 136.76 334.345 136.304C333.73 135.893 333.407 135.879 332.692 135.728ZM183.682 134.51L183.429 134.655C182.583 135.135 180.546 135.857 180.386 136.315C180.83 136.549 180.662 136.547 181.104 136.533C182.155 135.98 183.471 135.377 184.335 134.606L184.183 134.396L183.682 134.51ZM330.625 134.624C330.15 134.321 330.407 134.393 329.82 134.5C328.785 135.039 326.26 135.777 325.68 136.263L325.817 136.515L326.513 136.528C327.32 136.193 330.332 135.103 330.625 134.624ZM126.847 131.451C124.955 132.497 123.642 133.665 121.986 135.03L121.921 135.322L122.15 135.433C123.606 134.654 125.752 132.919 127.087 131.843C126.946 131.494 127.051 131.606 126.847 131.451ZM248.137 132.196C247.527 132.607 246.986 132.856 246.699 133.506C247.066 133.698 246.91 133.679 247.137 133.686C247.741 133.205 248.413 132.885 248.516 132.313L248.137 132.196ZM109.791 131.748C109.091 132.079 108.796 132.065 108.449 132.61L108.731 132.893C109.251 132.72 109.718 132.472 110.192 132.562C111.211 132.631 111.067 132.771 111.866 132.388C111.378 131.655 110.599 131.747 109.791 131.748ZM184.971 129.545C182.751 130.738 181.829 132.021 179.753 131.63C179.933 132.231 179.913 132.11 180.252 132.663C181.66 132.606 183.77 130.985 184.897 130.093L185.083 129.606L184.971 129.545ZM377.423 129.402C375.398 130.224 374.49 130.912 372.41 130.623C372.932 130.061 373.047 130.025 373.277 129.284L372.892 128.732C371.855 130.759 367.76 131.597 365.732 131.522C364.893 131.611 363.257 131.649 362.52 132.047L362.905 132.312C364.142 132.305 364.508 132.281 365.718 132.037C368.116 131.297 378.919 131.598 378.697 128.769L378.232 128.42L377.423 129.402ZM212.447 127.496C211.249 128.786 210.762 129.675 210.268 131.381L210.527 131.82C211.048 130.836 212.27 128.652 212.605 127.715L212.447 127.496ZM197.686 127.674C195.458 128.383 192.695 130.664 190.709 130.717L190.489 130.999C191.167 132.014 191.582 131.711 192.762 131.497C194.504 131.649 197.187 130.645 198.055 129.211C197.975 128.651 197.997 127.994 197.686 127.674ZM99.9656 127.985C99.2166 128.778 98.8373 129.06 97.9071 129.632C97.97 130.062 97.887 129.891 98.0985 130.169C98.9566 129.816 99.5906 129.663 100.181 128.962C100.23 128.247 100.341 128.555 99.9656 127.985ZM308.46 128.29C308.077 127.626 307.532 127.28 306.74 127.368C306.08 127.916 305.694 128.12 305.417 128.929C305.779 130.024 306.295 129.892 307.397 130.029C308.372 129.049 308.285 129.429 308.46 128.29ZM272.985 126.768C271.975 127.031 270.785 127.462 270.295 128.445C270.862 128.632 270.575 128.617 271.155 128.494C272.13 127.658 272.467 127.457 273.662 126.982L273.577 126.81L272.985 126.768ZM265.245 124.164C265.557 126.259 264.695 126.349 262.982 127.605L263.54 127.917C264.672 127.151 266.108 126.344 266.588 125.093L266.425 124.632C266.035 124.47 265.645 124.292 265.245 124.164ZM222.542 127.44L222.516 127.737L222.634 127.829C223.484 127.55 224.788 127.21 225.457 126.692C225.367 126.289 225.472 126.422 225.238 126.233L222.542 127.44ZM340.87 127.262C339.742 127.196 339.414 127.222 338.292 127.379L338.55 127.772C339.605 127.8 340.012 127.765 341.062 127.619L340.87 127.262ZM234.678 124.67C234.083 125.116 233.1 125.721 232.86 126.351L233.32 126.298C234.097 125.963 235.017 125.742 235.372 125.137C235.051 124.877 235.045 124.814 234.678 124.67ZM353.595 123.479C352.45 123.949 352.568 123.709 351.905 124.558L352.222 124.695L352.798 124.459C353.455 124.311 354.164 124.25 354.627 123.811C354.055 123.434 354.292 123.521 353.595 123.479ZM178.833 123.64C178.189 123.141 177.395 123.157 176.601 123.382L176.607 123.869C177.509 123.861 177.934 123.784 178.833 123.64ZM337.432 118.788C335.853 119.235 334.687 118.722 333.602 119.143C331.33 120.024 331.01 122.683 328.38 122.788L328.205 123.256C328.382 123.442 328.582 123.681 328.782 123.817L329.088 123.631C331.305 122.264 331.702 121.038 333.827 120.003C335.139 119.363 336.947 120.087 337.955 118.895C337.543 118.76 337.72 118.768 337.432 118.788ZM317.67 122.565C316.965 122.76 315.713 122.989 315.258 123.476C315.782 123.83 315.555 123.736 316.22 123.775C317.192 123.394 317.664 123.302 318.394 122.596L318.155 122.415L317.67 122.565ZM221.984 121.244C221.03 121.638 220.414 121.823 219.614 122.475L219.827 122.688L220.421 122.514C221.301 122.165 222.187 121.831 223.077 121.509L222.922 121.307L221.984 121.244ZM307.197 120.577C306.52 120.708 306.045 120.65 305.74 121.061C307.2 121.408 308.7 121.466 310.218 121.714L311.027 121.504L311.04 121.208C310.43 121.041 307.837 120.588 307.197 120.577ZM209.662 116.476C208.69 117.281 205.898 118.854 205.575 119.538L205.64 119.903C206.801 119.209 209.288 117.981 209.683 116.768L209.662 116.476ZM223.901 117.554C222.593 117.273 220.501 117.316 219.437 117.562C218.567 117.868 216.884 118.638 216.18 118.845C217.283 118.69 219.721 118.033 220.329 118.143C221.47 118.197 222.342 118.254 223.491 118.179L223.901 117.554ZM180.536 117.15C179.723 117.679 179.285 117.929 178.412 118.349L178.403 118.638L178.88 118.764C179.581 118.392 180.637 117.998 180.943 117.416L180.536 117.15ZM224.471 117.935L224.394 117.689C224.306 117.658 224.21 117.631 224.108 117.604L224.471 117.935ZM270.29 113.283C268.893 113.566 265.618 115.227 264.87 116.259C264.99 116.36 265.109 116.461 265.229 116.562C267.044 115.511 268.7 114.554 270.58 113.609L270.588 113.312L270.29 113.283ZM341.465 114.105C340.832 114.617 340.075 115.02 339.937 115.668L340.173 115.766C340.925 115.301 341.608 115.072 341.905 114.38L341.465 114.105ZM295.218 113.285C294.435 113.631 292.558 114.33 292.11 114.914L292.585 114.899C293.66 114.523 294.872 114.187 295.785 113.545L295.724 113.297L295.218 113.285ZM351.375 112.201C350.437 112.637 349.31 113.292 348.805 114.228L349.11 114.693C350.218 114.059 350.675 113.548 351.575 112.676C351.508 112.518 351.44 112.359 351.375 112.201ZM221.35 111.397C220.479 111.167 220.039 111.289 219.152 111.397C218.091 111.608 217.618 111.53 216.858 112.162L217.196 112.46C217.497 112.382 217.802 112.335 218.056 112.192C219.037 112.02 220.523 111.849 221.35 111.397ZM327.298 109.682L327.485 109.896C328.075 109.861 328.665 109.833 329.252 109.772L329.625 109.544C328.932 109.23 328.505 109.287 327.75 109.275L327.298 109.682ZM294.972 108.04C294.133 108.411 293.133 108.735 292.57 109.416C292.807 109.789 292.727 109.709 292.84 109.797C293.812 109.238 294.362 109.001 295.13 108.16L294.972 108.04ZM136.747 108.549C136.024 108.924 135.4 109.074 135.062 109.655C135.518 109.775 135.43 109.797 135.883 109.779L137.337 108.815L137.385 108.538L136.747 108.549ZM238.026 108.676C237.167 108.722 235.625 108.59 235.158 108.978C235.498 109.38 235.388 109.284 235.82 109.604C237.099 109.41 237.391 109.404 238.496 108.761L238.421 108.537L238.026 108.676ZM263.385 107.884C262.902 107.721 263.077 107.71 262.617 107.769C261.437 108.13 260.974 108.192 259.974 108.955L260.053 109.194L260.55 109.035C261.267 108.794 262.907 108.342 263.385 107.884ZM177.073 104.484C176.292 105.165 172.895 107.979 172.65 108.661C172.814 108.672 172.985 108.719 173.143 108.675C174.268 107.802 177.144 105.757 177.845 104.717L177.684 104.426L177.073 104.484ZM288.732 105.303C287.707 105.545 286.967 105.625 286.112 106.232L286.122 106.6L286.32 106.736C287.075 106.436 288.652 106.005 288.897 105.452L288.732 105.303ZM125.487 103.373C124.58 104.108 124.326 104.429 123.555 105.33C122.735 105.273 122.76 105.126 122.268 105.506C122.569 106.141 123.542 106.699 124.227 106.727C125.759 105.748 127.541 105.82 128.423 104.914C128.187 104.474 126.241 103.856 125.487 103.373ZM221.952 102.152C221.345 102.634 220.845 102.897 220.627 103.616L220.835 103.755L221.15 103.462C221.865 103.103 222.515 102.954 222.814 102.388C222.347 102.209 222.439 102.209 221.952 102.152ZM218.48 100.104C217.595 100.189 216.618 100.143 215.961 100.595L216.514 100.828C217.467 100.791 218.257 100.832 219.151 100.51L219.032 100.252L218.48 100.104ZM209.752 97.3574C208.591 96.8257 207.345 97.6679 206.393 98.2793C205.688 98.689 204.97 99.0762 204.24 99.4395L204.506 99.959L203.908 100.226C204.88 99.9806 205.714 99.4017 206.437 99.2734C207.475 99.2488 209.817 98.5822 209.752 97.3574ZM191.388 98.2285C191.997 98.6513 194.865 98.837 195.929 99.0518L196.161 98.499C195.336 97.7188 192.929 97.844 191.674 97.8037L191.388 98.2285ZM173.801 95.2979C173.551 96.2791 173.3 97.0175 173.306 98.0322L173.522 98.0059C173.814 97.176 174.348 96.206 174.247 95.5088L173.801 95.2979ZM182.463 93.7842C181.836 93.4812 181.34 93.7119 180.497 93.8271C179.498 93.7999 178.946 93.6873 178.06 94.0742L177.718 94.5498L177.838 94.9834C179.121 95.6186 179.292 95.4679 180.509 94.7539C181.443 94.4248 181.712 94.3894 182.463 93.7842ZM182.377 85.875C181.293 86.6149 180.953 87.85 180.404 89.1123L180.645 89.5537C181.414 88.4932 182.062 87.6344 182.709 86.4854C182.538 85.9584 182.682 86.1395 182.377 85.875ZM191.23 87.0215C190.719 87.5707 190.128 88.031 190.038 88.7275L190.352 88.8848L190.587 88.7988C191.305 88.1851 191.768 88.0257 191.965 87.2852C191.521 87.0265 191.698 87.0517 191.23 87.0215Z" fill="#3EB7B8"/>
<path d="M195.903 150.737C200.86 148.582 205.287 145.924 210.457 144.345C212.274 143.688 214.056 142.659 215.883 142.055C227.579 138.191 239.831 135.068 251.91 139.112C259.555 141.672 262.008 143.593 265.583 150.771C266.4 152.413 266.683 153.079 268.608 152.557C268.825 152.5 269.668 152.422 269.953 152.504C273.3 153.762 285.228 158.07 287.62 160.1C293.485 165.08 296.098 167.003 296.96 174.398L297.028 174.991L296.643 179.091C295.618 181.142 294.86 182.88 293.473 184.715C292.418 185.054 291.46 186.948 290.325 188.084C284.013 187.685 289.293 183.129 288.648 179.714C288.5 178.928 288.52 177.936 288.515 177.148C287.015 175.301 286.618 174.606 285.788 172.471C284.658 171.751 283.183 170.351 281.93 169.469C279.845 168.001 277.938 166.85 275.75 165.535L272.613 165.443C270.253 163.721 267.18 163.289 264.348 162.254L262.475 164.989C261.978 165.916 261.585 166.513 261.375 167.556L261.25 167.777C259.01 170.895 257.535 172.122 254.593 174.549C253.008 175.856 250.08 176.974 249.493 178.2C234.195 178.57 236.543 163.925 245.007 156.861C246.673 155.471 250.56 153.799 251.215 153.079C251.138 152.175 250.558 151.41 249.877 150.838C245.409 147.079 238.179 149.473 234.872 148.053C234.764 148.007 234.653 147.965 234.543 147.919C234.478 147.892 234.413 147.863 234.348 147.835C221.879 150.42 211.126 151.93 199.575 157.935C198.501 158.494 193.751 162.063 193.045 161.676L192.747 160.981C192.039 161.012 192.361 160.895 191.79 161.439C192.132 162.064 191.979 161.851 192.535 162.325C191.571 163.042 190.177 163.56 189.128 164.252C186.078 166.264 182.96 168.21 179.771 169.997C177.773 171.117 176.16 172.593 174.318 173.677C173.258 174.12 172.635 174.358 171.638 174.959C166.6 177.943 161.669 180.7 156.214 182.973C154.532 183.674 152.087 183.97 150.588 184.504C144.793 186.571 142.729 187.255 136.426 186.5L134.83 186.114C133.385 185.793 132.14 185.58 130.794 184.954C130.277 184.465 129.395 184.086 128.732 183.754C124.027 180.86 125.723 184.984 122.334 178.447L119.857 177.241C118.068 174.046 116.565 169.53 114.359 166.937C114.212 163.023 113.098 159.226 113.3 155.235C113.428 152.691 114.224 145.473 117.357 145.057C118.001 145.695 117.853 145.328 117.902 146.159C117.419 146.729 117.038 147.027 117.004 147.754L117.355 148.056L118.593 147.908L118.884 148.159C118.75 148.422 118.033 149.842 118.015 150.031C117.569 154.875 120.099 163.631 122.472 167.595C125.336 172.382 133.044 175.95 138.281 176.892C141.306 177.483 150.649 177.491 152.995 176.382C158.612 173.729 167.606 168.651 172.736 165.159C173.478 164.705 176.049 162.522 176.86 161.863C180.84 159.215 190.681 153.415 194.674 151.336L195.903 150.737Z" fill="#4B4746"/>
<path d="M285.188 246.009C286.418 246.129 287.455 246.134 288.275 247.011L288.165 247.383C287.8 247.378 287.437 247.37 287.072 247.357C286.035 247.319 285.723 247.312 285.075 246.611L285.188 246.009ZM314.277 232.577C314.172 233.024 312.825 233.765 312.152 234.331L311.97 234.485L311.54 234.483L311.425 234.261C312.177 233.364 312.75 233.101 313.742 232.495L314.277 232.577ZM298.175 225.426L298.058 225.78L295.646 226.698L295.37 226.468C295.783 225.89 297.05 225.561 297.782 225.292L298.175 225.426ZM328.22 222.063C329.165 221.957 330.06 221.833 330.812 222.441C329.36 222.693 329.198 222.802 328.018 222.088L328.22 222.063ZM289.955 219.396C290.702 219.931 290.685 220.498 290.73 221.329C290.58 221.378 290.7 221.354 290.245 221.347L289.955 219.396ZM157.898 218.629C158.709 218.63 159.233 218.521 159.849 219.009L159.735 219.456L158.654 220.074C158.013 220.577 158.049 220.577 157.289 220.849L156.818 220.625L156.749 220.062C157.143 219.156 157.096 219.181 157.898 218.629ZM286.825 218.896C285.91 219.96 284.993 220.325 283.673 220.803L283.54 220.326C283.89 219.535 286.072 218.655 286.982 218.221L286.825 218.896ZM175.577 218.5C176.394 218.598 176.055 218.427 176.617 219.052L176.52 219.592C175.229 221.006 174.165 220.842 172.497 220.201L172.516 220.042L173.571 219.964L173.621 219.562C172.974 219.47 172.426 219.462 171.777 219.439C172.149 219.245 174.439 218.951 175.342 218.607L175.577 218.5ZM132.188 217.173C134.782 217.419 133.082 219.969 138.862 218.549C138.781 218.934 137.796 219.519 137.375 219.826C136.281 221.29 131.538 220.803 130.848 218.773C131.071 217.901 131.466 217.73 132.188 217.173ZM181.178 219.535C181.347 215.891 185.338 216.018 187.99 216.772C188.462 217.456 188.176 217.692 188.125 218.851L188.494 219.192L188.946 219.146C189.366 218.554 189.543 218.139 190.226 217.951C191.031 218.149 191.182 218.365 191.798 218.906C189.892 219.404 186.318 220.758 184.48 220.339C183.684 219.263 182.909 219.812 181.498 219.847L181.178 219.535ZM313.723 217.039L313.515 217.675C314.415 218.38 315.823 218.15 317.04 218.942C315.928 218.86 313.257 218.68 312.502 218.084C312.462 217.252 312.477 217.515 313.162 216.662L313.723 217.039ZM270.465 202.142C272.29 201.63 273.315 203.582 274.947 203.557C275.562 203.547 275.732 203.526 276.207 203.937L276.152 204.203L274.885 204.669L274.945 205.01C275.683 205.552 275.802 205.707 276.412 206.409C278.824 205.607 280.312 206.47 281.532 205.928L281.812 205.55C282.54 204.588 282.675 204.666 283.72 204.521L284.097 204.3C284.636 203.992 284.77 203.992 285.162 204.205L285.798 204.557L285.825 204.84C285.997 206.2 286.646 206.739 288.088 206.874L288.555 206.42L288.75 206.581C288.717 207.482 288.328 207.456 288.156 208.325L288.125 208.512C288.97 209.634 289.265 209.882 288.758 211.302L288.428 211.648C288.855 212.187 288.82 212.153 289.485 212.34C289.87 213.077 289.862 213.018 289.75 213.841C289.21 214.7 288.05 215.394 287.085 215.629C286.592 215.759 285.818 215.986 285.378 215.758C283.821 214.951 282.108 215.666 280.703 215.312H280.702L280.138 215.295C279.763 214.817 279.575 214.591 279.085 214.233C278.655 214.949 278.98 215.374 278.428 216.45L276.065 213.035H276.064C274.197 211.384 273.335 212.167 272.18 210.274C269.935 208.708 270.162 207.791 268.572 206.221C267.298 206.611 267.19 207.052 265.798 206.903C266.325 206.544 266.087 206.731 266.377 205.954C268.132 204.886 268.417 202.716 270.465 202.142ZM280.68 214.652H280.681H280.68ZM281.742 214.299L281.743 214.3L281.742 214.299ZM276.475 211.601H276.476H276.475ZM275.864 210.355C275.611 210.448 275.387 210.541 275.2 210.631L275.439 211.086H275.44L275.2 210.631C275.294 210.586 275.397 210.54 275.508 210.494C275.619 210.448 275.738 210.402 275.865 210.355H275.864ZM284.672 209.717H284.673H284.672ZM285.818 209.046V209.047V209.046ZM287.03 207.871V207.872V207.871ZM188.525 207.177C187.775 207.54 186.718 208.128 185.931 207.982C186.355 207.321 187.273 206.946 188.004 206.555L188.525 207.177ZM159.414 207.266C158.935 207.685 158.165 207.802 157.519 207.975C157.274 207.814 157.233 207.723 157.034 207.497C157.537 207.135 158.356 207.175 159.066 207.105L159.414 207.266ZM134.248 205.572C134.847 205.734 135.094 205.873 135.653 206.125L135.711 206.364C134.436 206.364 133.282 206.219 132.156 206.864C131.614 207.306 131.535 207.46 130.849 207.579L130.799 207.208C132.08 205.767 132.381 205.843 134.248 205.572ZM190.131 205.878L190.235 206.152C189.59 206.587 189.245 206.881 188.526 207.177L188.004 206.555C188.896 206.178 189.227 206.015 190.161 205.817L190.131 205.878ZM314.2 204.469L314.152 205.082C313.502 205.928 313.255 205.99 312.295 206.534L312.096 206.239L313.803 204.151L314.2 204.469ZM292.032 204.052L292.133 204.421C291.49 205.222 290.792 205.488 289.88 205.974L289.567 205.915L289.522 205.542C290.312 204.642 290.587 204.558 291.657 203.948L292.032 204.052ZM282.996 205.635H282.997H282.996ZM197.094 201.229C197.298 201.304 197.17 201.237 197.401 201.535C196.174 202.212 194.955 202.903 193.743 203.605C193.391 203.486 193.582 203.583 193.214 203.236C193.695 202.526 196.197 201.504 197.094 201.229ZM294.25 202.15C295.54 202.248 296.055 202.46 297.062 203.285L296.788 203.349C295.486 203.012 294.575 203.373 293.888 202.915L294.25 202.15ZM365.438 201.151C365.51 201.827 364.913 202.666 364.553 203.313L364.277 203.133C364.227 202.358 364.756 201.599 365.141 200.879L365.438 201.151ZM138.079 197.204C138.33 197.308 138.202 197.218 138.383 197.56C136.64 199.856 134.257 200.935 131.697 202.147L131.583 202.311L131.475 202.094C132.796 200.019 133.934 200.573 135.804 199.221C136.51 198.71 137.429 197.823 138.079 197.204ZM187.717 199.502C187.762 200.022 187.702 199.964 187.536 200.51C186.86 201.264 185.709 201.405 184.649 201.721L184.611 201.448C185.658 200.227 186.215 201.1 187.717 199.502ZM310.593 199.365C310.3 199.991 308.632 200.852 307.895 201.33L307.51 201.404L307.468 201.146C308.153 200.315 309.01 199.763 309.882 199.116L310.593 199.365ZM226.85 198.441C226.733 199.089 225.707 199.944 225.189 200.463C224.895 200.451 225.056 200.491 224.734 200.259C225.056 199.393 225.826 198.821 226.517 198.175L226.85 198.441ZM215.401 197.218C215.187 198.03 214.262 199.158 213.736 199.889L213.359 199.537C213.512 198.836 214.569 197.554 215.045 196.905L215.401 197.218ZM301.601 196.922C301.338 198.005 300.08 198.955 299.242 199.613C298.693 198.96 298.76 199.299 298.78 198.624C299.665 197.706 300.34 197.38 301.425 196.729L301.601 196.922ZM199.749 197.364C200.62 197.181 201.618 197.599 201.961 198.446C201.224 198.502 201.104 198.254 200.322 197.824C199.262 197.847 199.336 198.457 197.704 198.236L197.597 197.906C198.462 197.361 198.681 197.425 199.749 197.364ZM269.34 190.692C269.91 190.841 269.908 190.941 270.33 191.384C268.705 195.895 276.715 193.687 276.415 196.787L275.997 196.794C275.045 195.912 274.729 195.839 273.475 195.516C271.835 195.037 270.093 195.588 269.388 195.236C268.888 193.959 269.403 194.428 269.275 193.298C268.365 193.831 267.422 194.49 266.412 194.687L266.333 194.412C267.96 191.505 265.623 193.056 269.34 190.692ZM175.725 192.93C175.964 193.164 175.852 193.006 175.971 193.459C174.697 194.604 173.981 195.331 172.836 196.606L172.551 196.343C172.682 195.282 174.818 193.704 175.725 192.93ZM239.421 193.78C239.267 195.064 239.004 195.516 237.909 196.14L237.326 195.653L237.435 195.279C238.388 194.567 238.574 194.455 239.107 193.402L239.421 193.78ZM255.25 193.258C255.732 193.314 256.09 193.706 256.635 193.805C257.952 194.042 259.853 194.021 260.87 195.021L260.775 195.413L260.268 195.544C259.418 195.066 259.23 194.982 258.282 194.733L258.06 194.678C256.835 194.877 255.98 194.479 254.812 194.534C253.118 194.614 253.252 195.095 251.518 194.717L251.4 194.425C252.978 194.056 253.735 193.828 255.25 193.258ZM92.7441 192C92.3573 192.955 91.4879 193.6 90.708 194.328L90.5742 193.834C91.0097 192.92 91.8863 192.15 92.6133 191.405L92.7441 192ZM202.357 191.385C202.258 191.99 201.049 192.779 200.332 193.52L199.71 192.988L199.73 192.677C200.755 192.174 201.176 191.878 202.112 191.213L202.357 191.385ZM281.893 192.39C282.688 191.751 289.347 192.497 290.857 192.541L291.54 192.493L291.609 192.695L291.853 192.766C290.968 193.481 289.06 193.266 287.945 193.177C285.68 192.304 283.063 193.577 281.893 192.39ZM314.149 190.712C314.477 191.026 314.435 191.152 314.615 191.657C314.293 192.397 313.653 192.637 312.928 193.069L312.537 192.852L312.487 192.379C312.895 191.602 313.457 191.263 314.149 190.712ZM173.351 191.618C172.871 192.275 171.709 192.609 170.903 192.937L170.489 192.731C170.74 192.188 172.234 191.795 172.978 191.504L173.351 191.618ZM250.208 190.375C251.05 190.257 251.64 190.036 252.237 190.616C251.293 190.917 251.028 190.773 250.208 190.375ZM123.204 188.176C123.504 188.271 123.372 188.183 123.58 188.47C122.893 189.186 122.19 189.889 121.474 190.576L121.198 190.5L121.154 190.121C121.907 189.088 122.156 188.966 123.204 188.176ZM136.426 186.5C135.705 186.939 135.046 187.102 134.588 187.401C133.772 187.936 132.865 189.621 131.665 189.75C131.692 189.262 133.503 187.15 133.951 186.301L134.83 186.114L136.426 186.5ZM327.689 187.887C328.357 187.606 329.305 187.872 329.893 188.269L329.854 188.64C329.03 188.949 328.532 188.675 327.667 188.412C326.947 188.808 326.3 189.243 325.508 188.84C326.063 188.097 326.59 188.183 327.689 187.887ZM296.237 184.693C294.787 186.64 293.114 185.699 292.149 187.604C291.784 188.321 291.139 188.648 290.372 188.759L290.13 188.518L290.325 188.084C291.46 186.948 292.418 185.055 293.473 184.716C294.547 184.848 294.85 184.738 295.912 184.465L296.237 184.693ZM308.367 185.405C311.017 187.839 313.14 185.823 314.58 186.428L314.598 186.834C312.885 187.295 309.315 187.966 308.173 186.251L308.367 185.405ZM203.27 181.121C203.53 181.571 203.454 181.466 203.565 182.001C202.724 183.901 199.941 183.616 200.536 185.506C202.14 186.999 201.508 185.768 203.307 186.504L203.134 186.783C202.149 186.811 201.07 186.908 200.294 186.198C198.468 184.527 202.194 182.144 203.27 181.121ZM244.244 183.447L244.21 183.798C243.206 184.59 241.822 185.559 240.522 185.403C240.206 185.086 240.046 184.887 239.761 184.543C242.166 184.51 241.867 184.682 243.796 183.41L244.244 183.447ZM128.731 183.754C129.756 183.002 129.992 182.815 131.315 183.339L131.602 183.882C131.373 184.559 131.365 184.506 130.794 184.954C130.277 184.465 129.395 184.086 128.731 183.754ZM110.104 183.344C110.756 183.204 110.717 183.179 111.352 183.357C110.688 183.842 109.885 183.885 109.056 184.024C108.751 184.355 108.891 184.208 108.337 184.35L107.93 184.107C108.549 183.498 109.131 183.55 110.104 183.344ZM284.152 182.685L284.149 182.973C283.082 183.492 281.75 183.586 280.548 183.762L280.317 183.562L280.457 183.205C281.427 182.786 282.958 182.739 284.058 182.634L284.152 182.685ZM212.592 180.743C212.175 181.681 211.827 182.557 211.456 183.514C211.349 182.433 211.255 182.33 210.546 181.503L210.698 181.129L211.979 180.601L212.372 180.519L212.592 180.743ZM169.669 181.707C170.304 182.668 171.466 182.295 172.52 182.713C171.713 183.21 171.762 183.193 170.811 183.188C169.792 183.176 168.891 183.344 167.791 183.35C168.169 182.667 168.725 182.522 169.378 181.96L169.669 181.707ZM284.165 177.729C283.575 178.721 280.557 179.648 279.292 180.216L279.05 180.273C280.117 178.178 281.472 179.31 283.595 177.512L284.015 177.51L284.165 177.729ZM325.34 178.687C326.137 178.526 328.135 179.155 328.912 179.657C327.237 179.874 326.815 179.611 325.34 178.687ZM297.027 174.991C298.145 175.352 299.168 175.425 300.048 176.15C299.933 176.977 299.267 177.201 298.527 177.638C297.76 178.091 297.348 178.641 296.643 179.091L297.027 174.991ZM174.318 173.678C173.506 175.019 173.197 175.147 173.477 176.649C173.187 177.782 173.03 178.037 172.224 178.864C172.018 177.909 172.487 177.373 172.957 176.347L172.838 176.146C172.534 175.69 172.058 175.332 171.639 174.959C172.635 174.358 173.258 174.12 174.318 173.678ZM332.165 176.103C332.433 176.18 332.273 176.111 332.588 176.409C332.133 177.131 331.698 177.866 331.288 178.614C331.138 178.566 331.255 178.616 330.828 178.339C330.993 177.483 331.623 176.814 332.165 176.103ZM96.1572 175.716C95.7381 176.411 94.5383 177.063 93.8057 177.538C93.513 177.252 93.6429 177.4 93.5381 176.897C94.0713 176.3 95.1784 175.839 95.9297 175.46L96.1572 175.716ZM377.061 173.208C377.153 173.257 377.353 173.495 377.436 173.585C377.006 175.598 373.382 176.513 371.545 176.959L371.33 176.634L371.44 176.295C371.745 176.235 372.051 176.164 372.351 176.082C374.363 175.545 376.051 174.977 377.061 173.208ZM283.388 171.587C282.408 172.185 282.21 172.238 281.543 173.128C281.381 174.1 281.403 173.759 282.061 174.836C281.303 174.588 281.018 174.577 280.558 173.932C280.393 172.176 281.751 171.651 283.226 171.265C283.278 171.372 283.333 171.48 283.388 171.587ZM327.462 170.718C327.322 172.476 325.705 173.05 324.325 173.799C324.238 172.713 326.379 171.865 327.462 170.718ZM351.24 170.926C349.885 171.444 349.198 171.377 347.775 171.395C346.563 172.309 346.103 172.214 344.87 173.412L344.74 173.597L344.388 173.56C344.748 170.816 348.8 170.595 350.92 170.724L351.29 170.564L351.24 170.926ZM87.1582 172.172C88.446 172.595 89.0346 172.197 89.8301 172.554L89.4473 172.875C88.6078 172.996 87.7658 173.1 86.9219 173.188L86.6631 172.976L87.1582 172.172ZM140.39 171.646C139.319 172.413 137.553 172.486 136.247 172.574L136.238 171.952C137.143 171.696 138.993 171.624 140.227 171.338L140.39 171.646ZM231.135 169.919C229.525 170.78 228.4 171.232 226.633 171.594C226.631 171.555 226.59 171.112 226.772 171.076C227.782 170.882 230.647 169.461 231.313 169.112L231.135 169.919ZM307.72 165.342C307.154 165.959 306.806 166.283 306.297 166.706L305.72 167.178L305.47 167.491C304.855 168.255 303.985 169.458 302.973 169.568C303.165 168.792 304.545 167.561 305.19 166.892L305.782 166.319C306.348 165.773 306.87 165.315 307.68 165.055L307.72 165.342ZM107.394 166.62C109.538 166.765 111.487 166.634 113.642 166.672L113.646 166.825C112.808 167.303 112.743 167.387 111.812 167.451C110.989 167.424 107.974 167.135 107.338 167.438C107.108 167.548 107.304 168.266 106.486 168.628L106.208 168.361C106.61 167.392 106.632 167.362 107.394 166.62ZM363.223 167.272C364.105 167.329 366.602 167.88 367.185 168.564C366.759 168.754 362.319 167.617 361.695 167.359C362.198 167.27 362.71 167.241 363.223 167.272ZM260.46 164.979C261.372 164.737 261.513 164.816 262.476 164.988C261.978 165.915 261.585 166.513 261.375 167.556C262.722 167.435 263.615 167.254 264.918 167.626L264.895 167.855C263.632 168.306 262.782 168.271 261.465 168.005L261.25 167.777L261.143 167.199C260.268 166.532 260.273 166.426 260.12 165.423L260.46 164.979ZM252.207 160.869C253.422 160.917 254.707 161.302 255.465 162.305C256.25 164.783 252.682 167.089 250.729 167.644C246.679 168.503 245.492 165.85 248.948 162.945L251.14 162.682C251.999 162.032 251.765 162.085 252.207 160.869ZM233.387 162.147C234.512 161.669 235.642 162.75 237.855 162.442L238.147 162.873C237.797 164.396 235.599 165.751 234.222 166.294C233.589 166.615 232.949 167.178 232.383 167.627L232.154 167.566C232.331 166.797 232.527 166.124 232.748 165.365L232.904 164.938C233.228 163.977 233.269 163.242 233.387 162.147ZM156.535 164.314L156.485 164.712C155.562 165.571 155.001 166.125 153.932 166.829L153.613 166.676L153.66 166.309C154.668 165.366 155.141 164.97 156.249 164.149L156.535 164.314ZM163.529 163.466C163.65 163.496 163.556 163.458 163.888 163.709C163.486 164.446 162.364 165.116 161.636 165.636C161.157 165.524 161.334 165.654 161.079 165.281C161.9 164.628 162.678 164.071 163.529 163.466ZM228.597 163.773C228.836 165.963 226.057 165.339 224.871 164.967C224.204 164.825 223.696 164.85 223.305 164.452C224.296 164.337 225.047 164.402 225.915 164.503L226.835 164.611L227.493 164.661C228.023 164.155 227.977 164.125 228.597 163.773ZM147.649 161.646C147.663 162.751 147.061 162.109 146.748 163.275C147.263 163.981 147.492 164.151 147.47 165.021L147.153 165.166L146.807 164.783C146.228 163.257 146.306 163.789 144.885 163.303C145.726 162.646 146.614 162.172 147.497 161.506L147.649 161.646ZM175.236 161.523C176.375 161.47 175.856 161.356 176.86 161.862C176.049 162.521 173.478 164.705 172.735 165.159C172.378 164.991 172.082 164.826 171.736 164.637C172.236 164.411 172.44 164.403 172.983 164.308C171.49 163.832 171.182 164.159 170.03 163.851C170.345 163.666 170.486 163.616 170.874 163.671C173.611 164.062 173.059 162.653 175.236 161.523ZM97.915 164.665C96.9661 164.788 95.7358 164.894 94.8525 164.542C95.4655 164.171 96.496 164.28 97.3242 164.258L97.915 164.665ZM100.459 163.031C99.9795 163.863 98.8282 164.249 97.915 164.664L97.3242 164.258C98.2409 163.817 99.4965 163.101 100.459 163.031ZM218.896 162.312L217.773 163.234C217.722 163.78 217.811 163.523 217.484 163.998C217.028 163.08 216.795 163.218 216.526 162.365C217.18 162.348 217.636 162.313 218.277 162.251L218.805 162.028L218.896 162.312ZM153.83 157.947L153.792 158.312C152.317 159.137 151.08 159.89 149.653 160.799C149.507 160.751 149.615 160.798 149.264 160.572C150.507 159.155 151.902 158.597 153.579 157.834L153.83 157.947ZM111.688 159.008C111.167 160.028 110.876 160.118 109.891 160.797C109.847 160.641 109.858 160.355 109.854 160.177C110.542 159.588 111.03 159.132 111.667 158.488L111.688 159.008ZM223.345 158.529L223.378 158.892C222.962 159.535 222.577 160.331 221.91 160.618C221.38 160.447 221.228 160.364 220.729 160.106L220.746 159.773C221.836 159.406 222.114 159.304 222.892 158.454L223.345 158.529ZM136.219 158.486C136.442 158.754 136.351 158.579 136.371 159.059C135.629 159.564 135.41 159.731 134.78 160.378L134.634 160.531L134.358 160.219L134.423 159.567C134.935 158.903 135.435 158.801 136.219 158.486ZM209.839 158.255L209.903 158.556C209.111 159.14 208.514 159.502 207.667 160.011L207.37 159.883C207.758 159.099 208.584 158.708 209.348 158.223L209.839 158.255ZM323.967 157.089C325.642 157.022 328.902 157.886 330.435 158.672C328.455 158.488 326.287 157.643 324.67 158.096C323.995 158.285 323.977 159.185 323.814 159.896C322.675 158.792 323.889 158.975 322.859 157.67C322.201 157.625 320.054 158.655 318.859 158.922L318.697 158.646C319.902 156.669 321.749 157.801 323.967 157.089ZM364.152 155.165C364.632 155.305 364.418 155.188 364.8 155.521C364.61 155.803 361.413 158.355 360.628 159.104L360.4 159.134L360.053 158.87C360.36 157.936 363.22 155.713 364.152 155.165ZM237.363 156.561C238.371 157.51 240.08 157.297 240.271 159.069L239.95 159.082C239.642 158.457 239.601 158.371 239.18 157.821C238.184 157.368 237.061 157.272 236.003 157.552C235.405 157.708 235.479 157.743 234.817 157.579C232.891 157.24 232.024 158.158 229.728 158.614C233.853 155.723 232.241 157.992 236.648 156.713L236.94 156.626L237.363 156.561ZM297.88 153.313C296.667 155.003 292.79 154.724 293.167 158.693L292.423 158.43C291.333 156.194 295.685 153.849 297.385 153.186L297.88 153.313ZM166.363 157.374L166.241 157.679L163.815 158.604L163.521 158.668L163.417 158.491C164.362 157.76 164.701 157.696 165.847 157.264L166.363 157.374ZM179.358 156.472C178.998 156.962 177.425 157.454 176.72 157.74L176.54 157.602L176.581 157.203C177.258 156.692 178.377 156.567 179.244 156.388L179.358 156.472ZM303.725 154.49C304.597 154.585 308.024 155.18 308.77 155.451L308.758 155.753L307.734 156.263C305.832 155.306 305.675 155.447 303.527 155.465L303.34 155.165L303.725 154.49ZM339.295 153.89L339.351 154.325C338.183 155.014 336.733 153.846 333.953 155.483L333.463 155.832L333.203 155.687C334.311 153.818 336.233 154.023 338.203 153.875C338.371 153.752 338.666 153.694 338.891 153.626L339.295 153.89ZM139.501 151.782C139.689 151.926 139.575 151.812 139.68 152.233C139.347 152.757 136.122 154.743 135.349 155.259L135.158 155.065C135.704 153.801 137.88 152.909 139.115 152.053L139.501 151.782ZM346.815 153.512C347.282 153.542 347.45 153.658 347.912 153.823L347.89 153.96C347.295 154.367 346.297 154.432 345.54 154.547C345.125 154.689 345.112 154.639 344.65 154.646L344.647 154.458C345.477 153.736 345.695 153.764 346.815 153.512ZM322.558 151.04L322.385 151.405C321.385 152.105 318.723 153.66 317.558 153.582C316.875 153.204 316.968 153.369 316.525 152.812C319.335 152.46 319.695 152.327 322.093 150.912L322.558 151.04ZM88.4287 146.461C88.6993 146.731 88.5893 146.549 88.6338 147.065C88.386 147.374 88.1456 147.689 87.9131 148.009C87.3638 148.779 87.4806 149.051 87.6221 149.972C88.3396 150.342 88.1407 150.132 88.5996 150.724C88.0836 151.521 86.7205 151.393 85.6133 152.684L85.3994 152.944C84.6792 152.308 84.6907 152.356 84.332 151.478C84.6791 149.745 87.069 147.903 88.4287 146.461ZM308.396 151.413C307.313 151.978 306.518 152.001 305.311 152.172C304.676 152.326 304.853 152.28 304.173 152.238L304.158 151.93C305.33 151.368 306.113 151.431 307.413 151.359L308.168 151.198L308.396 151.413ZM236.398 149.667C236.853 149.732 236.668 149.626 236.955 149.987C236.471 150.838 235.485 151.432 234.667 152.039L234.38 151.926C234.569 151.214 235.795 150.234 236.398 149.667ZM189.288 150.346C190.537 150.055 194.734 150.076 195.903 150.736L194.674 151.336C191.932 150.242 190.591 151.176 189.184 150.6L189.288 150.346ZM352.721 149.031C353.883 149.157 355.295 149.399 356.473 149.572C354.708 149.681 352.985 149.619 351.425 150.384C350.71 150.514 350.17 150.578 349.447 150.651L349.346 150.49C350.468 149.997 351.593 149.511 352.721 149.031ZM297.133 147.214C297.55 148.292 297.559 147.788 297.252 148.777C296.172 149.727 295.367 149.812 294.095 150.456L293.862 150.058C294.875 148.22 295.785 149.942 296.697 146.852L297.133 147.214ZM332.737 148.479C333.325 148.513 333.121 148.442 333.623 148.728C333.073 149.287 331.852 149.562 331.055 149.818L330.433 150.054L330.308 149.823C331.005 149.249 331.912 148.875 332.737 148.479ZM269.803 148.377C270.785 148.231 270.775 148.238 271.763 148.369L271.947 148.621L271.51 148.587C270.81 148.712 269.711 149.027 269.203 148.703L269.803 148.377ZM166.168 146.657L166.119 146.985C164.928 147.872 162.311 148.136 160.804 148.354L160.603 148.194C161.755 147.463 163.974 147.503 165.876 146.495L166.168 146.657ZM323.487 146.194C324.607 146.628 325.109 146.888 325.564 148.055C324.3 147.579 323.682 147.56 323.487 146.194ZM127.314 144.877C126.707 146.124 125.207 146.204 124.569 147.999L124.48 147.91C124.178 146.098 125.838 145.538 127.231 144.829L127.314 144.877ZM358.57 145.375C359.039 145.709 360.703 147.225 361.29 147.727C360.538 147.935 360.825 147.959 360.122 147.771C359.252 147.073 359.048 146.389 358.57 145.375ZM372.475 144.504C372.149 145.207 371.024 145.848 370.31 146.399C370.445 147.068 370.515 146.93 371.172 147.486L370.45 147.317L370.5 147.341C369.98 147.121 369.457 146.905 368.935 146.694C368.087 146.617 367.525 146.643 366.78 146.231C366.873 146.162 371.08 144.732 372.064 144.224L372.475 144.504ZM193.454 144.97C194.4 144.929 195.615 144.611 196.111 145.023C195.365 145.923 194.422 145.664 193.437 145.436L193.322 145.409L193.321 145.41C192.29 146.097 187.555 146.925 186.084 147.162C187.799 146.301 189.417 145.449 191.37 145.456C192.262 145.46 192.627 145.296 193.454 144.97ZM303.493 145.359C302.591 146.681 301.275 146.386 299.835 146.352L299.575 146.55L299.556 146.263C301.12 145.568 301.453 145.562 303.125 145.216L303.36 145.12L303.493 145.359ZM335.763 143.124C336.212 143.504 336.09 143.336 336.295 143.879C335.802 144.745 334.297 145.168 333.357 145.525L333.133 145.007C334.555 144.111 334.55 144.683 335.763 143.124ZM350.367 138.396L350.357 138.692C347.967 139.88 346.609 139.914 344.417 140.89C343.092 141.48 340.96 143.567 339.365 144.704C339.245 144.153 339.25 144.434 339.354 143.86C341.432 142.84 342.15 141.6 343.513 139.758C343.83 139.597 343.975 139.535 344.332 139.642C346.172 140.194 347.953 138.926 350.223 138.312L350.367 138.396ZM324.948 141.563C325.733 141.173 325.316 141.246 326.253 141.441C326.438 141.621 326.72 141.866 326.845 142.066C328.082 143.427 328.935 143.112 330.058 144.205C327.865 143.865 327.407 143.127 325.8 144.183L325.5 144.574C324.603 144.779 324.335 144.697 323.662 144.181C323.602 142.953 324.125 142.509 324.947 141.563C324.932 141.789 324.92 141.968 324.903 142.124C324.879 142.357 324.845 142.536 324.783 142.733C324.742 142.865 324.688 143.005 324.614 143.175H324.615C324.872 142.582 324.896 142.352 324.948 141.563ZM306.673 142.744C306.54 143.236 306.533 143.263 306.516 143.771L306.803 143.946C308.365 143.416 311.31 143.031 312.803 143.798L312.87 144.176C312.28 144.598 311.65 144.493 310.891 144.498C308.676 143.828 305.591 145.076 304.283 144.277C304.823 143.458 305.733 143.063 306.607 142.548L306.673 142.744ZM324.703 143.834C324.77 143.934 324.835 144.013 324.907 144.086C324.835 144.013 324.77 143.934 324.703 143.834ZM99.6973 140.085C100.836 139.431 102.338 138.685 103.247 138.866C103.263 139.805 101.881 141.94 101.518 142.003C99.5884 142.336 99.2994 142.118 97.29 143.206L97.0488 142.982C96.6453 142.639 96.3229 142.336 95.9404 141.969L96.0332 141.645C97.3029 141.459 97.6868 141.439 98.7158 140.67L99.6973 140.085ZM97.6553 142.436C97.5603 142.489 97.4622 142.557 97.3613 142.646C97.4622 142.557 97.5603 142.489 97.6553 142.436ZM142.536 140.725C142.821 140.669 144.407 141.534 144.727 141.698C143.751 141.682 143.295 141.775 142.49 141.302L142.536 140.725ZM166.552 139.613C166.258 140.313 164.838 141.113 164.129 141.593C163.879 141.604 164.054 141.609 163.617 141.462C163.873 140.795 165.401 139.889 166.079 139.415L166.552 139.613ZM134.661 140.49C135.584 140.573 135.56 140.594 136.358 140.962L136.323 141.207L135.422 141.189C134.694 141.455 134.475 141.581 133.685 141.589L133.701 141.284L134.661 140.49ZM308.3 139.996C309.612 140.137 309.972 140.611 310.84 141.545C309.69 141.421 308.9 140.987 308.3 139.996ZM177.566 138.5C178.494 138.383 179.22 138.769 180.488 138.624C180.253 139.202 180.416 138.931 179.728 139.33C178.224 139.044 177.983 139.062 176.576 139.666C175.673 139.808 175.129 140.91 173.938 140.271C174.845 139.411 176.376 138.866 177.566 138.5ZM360.109 135.603C361.679 135.98 363.467 137.212 364.422 138.493L364.062 139.133C363.203 138.776 362.122 137.392 361.087 136.608C360.392 136.614 360.332 136.642 359.672 136.469C359.652 135.93 359.635 136.195 360.109 135.603ZM332.692 135.728C333.407 135.879 333.731 135.893 334.346 136.304C334.163 136.76 332.758 137.33 332.138 137.79C331.603 138.061 331.278 138.216 330.721 138.434C331.486 137.29 332.237 137.131 332.692 135.728ZM381.115 130.846C382.2 132.983 382.17 134.931 383.465 137.2C383.17 137.078 382.807 136.928 382.375 136.75C380.808 137.078 379.198 137.244 377.623 137.37L375.223 135.531C376.49 135.354 379.829 135.203 380.38 134.077C379.897 133.369 379.641 133.111 379.498 132.259C379.858 131.458 380.345 131.296 381.115 130.846ZM184.336 134.606C183.472 135.378 182.155 135.979 181.104 136.533C180.663 136.547 180.831 136.549 180.386 136.315C180.546 135.857 182.583 135.135 183.429 134.655L183.683 134.51L184.184 134.396L184.336 134.606ZM329.82 134.5C330.408 134.393 330.15 134.321 330.625 134.624C330.331 135.103 327.32 136.193 326.513 136.528L325.817 136.515L325.681 136.263C326.261 135.777 328.785 135.039 329.82 134.5ZM126.848 131.451C127.052 131.605 126.946 131.494 127.087 131.843C125.752 132.919 123.606 134.654 122.15 135.433L121.921 135.322L121.987 135.03C123.643 133.665 124.956 132.497 126.848 131.451ZM248.517 132.313C248.414 132.885 247.742 133.206 247.138 133.687C246.91 133.68 247.067 133.698 246.7 133.506C246.987 132.856 247.529 132.608 248.138 132.197L248.517 132.313ZM109.791 131.748C110.599 131.747 111.378 131.655 111.866 132.388C111.067 132.771 111.211 132.631 110.192 132.562C109.718 132.472 109.251 132.72 108.731 132.893L108.45 132.61C108.797 132.066 109.091 132.079 109.791 131.748ZM185.083 129.605L184.897 130.093C183.77 130.985 181.661 132.606 180.252 132.663C179.913 132.11 179.934 132.231 179.754 131.63C181.829 132.021 182.751 130.738 184.971 129.545L185.083 129.605ZM378.697 128.769C378.919 131.598 368.116 131.297 365.718 132.037L364.941 132.183C364.27 132.293 363.833 132.307 362.905 132.312L362.521 132.046C363.258 131.649 364.894 131.611 365.732 131.522V131.521C367.76 131.596 371.855 130.759 372.893 128.732L373.277 129.284C373.047 130.025 372.933 130.061 372.41 130.623C374.49 130.912 375.397 130.224 377.422 129.402L378.232 128.42L378.697 128.769ZM362.521 132.046C362.452 132.083 362.39 132.122 362.338 132.166L362.51 132.039L362.521 132.046ZM212.605 127.715C212.27 128.652 211.048 130.836 210.527 131.82L210.269 131.381C210.762 129.675 211.249 128.786 212.447 127.496L212.605 127.715ZM197.687 127.674C197.998 127.994 197.975 128.651 198.055 129.211C197.187 130.645 194.505 131.649 192.763 131.497L193.088 131.122L192.762 131.497C191.582 131.711 191.168 132.014 190.49 130.999L190.709 130.718H190.71C192.696 130.664 195.458 128.383 197.687 127.674ZM99.9658 127.985C100.341 128.556 100.23 128.247 100.182 128.962C99.5908 129.663 98.9568 129.816 98.0986 130.169C97.8872 129.891 97.9702 130.062 97.9072 129.632C98.8375 129.06 99.2168 128.778 99.9658 127.985ZM306.74 127.368C307.533 127.28 308.078 127.626 308.46 128.291C308.285 129.429 308.372 129.049 307.397 130.029C306.295 129.892 305.78 130.023 305.418 128.929C305.695 128.12 306.08 127.916 306.74 127.368ZM273.577 126.81L273.662 126.982C272.467 127.457 272.13 127.658 271.155 128.494C270.575 128.617 270.862 128.632 270.295 128.445C270.785 127.462 271.975 127.031 272.985 126.768L273.577 126.81ZM265.245 124.164C265.645 124.292 266.035 124.47 266.425 124.632L266.588 125.093C266.108 126.344 264.673 127.151 263.54 127.917L262.982 127.605C264.695 126.349 265.558 126.259 265.245 124.164ZM225.238 126.233C225.472 126.421 225.367 126.289 225.457 126.692C224.789 127.21 223.484 127.55 222.634 127.829L222.517 127.737L222.542 127.439L225.238 126.233ZM338.293 127.379C339.415 127.222 339.743 127.196 340.87 127.262L341.062 127.619C340.013 127.765 339.605 127.8 338.55 127.772L338.293 127.379ZM234.678 124.67C235.045 124.814 235.051 124.877 235.372 125.137C235.017 125.742 234.097 125.963 233.32 126.298L232.861 126.351C233.101 125.721 234.083 125.116 234.678 124.67ZM353.595 123.479C354.292 123.521 354.055 123.434 354.627 123.811C354.164 124.251 353.454 124.311 352.797 124.459L352.223 124.695L351.905 124.558C352.568 123.709 352.45 123.949 353.595 123.479ZM176.603 123.382C177.396 123.157 178.189 123.141 178.833 123.64C177.935 123.784 177.509 123.861 176.607 123.869L176.603 123.382ZM337.433 118.788C337.72 118.768 337.543 118.76 337.955 118.895C336.948 120.087 335.14 119.363 333.827 120.003C331.703 121.038 331.305 122.264 329.088 123.631L328.782 123.817C328.582 123.681 328.382 123.442 328.205 123.256L328.38 122.788C331.01 122.683 331.33 120.024 333.603 119.143C334.688 118.722 335.853 119.235 337.433 118.788ZM318.395 122.596C317.665 123.302 317.192 123.394 316.22 123.775C315.555 123.736 315.783 123.83 315.258 123.476C315.713 122.989 316.965 122.76 317.67 122.565L318.155 122.415L318.395 122.596ZM222.922 121.307L223.077 121.509C222.187 121.831 221.301 122.165 220.421 122.514L219.826 122.688L219.614 122.475C220.414 121.823 221.029 121.638 221.983 121.244L222.922 121.307ZM307.198 120.577C307.839 120.588 310.43 121.041 311.04 121.208L311.027 121.504L310.218 121.714C308.7 121.466 307.2 121.409 305.74 121.061C306.045 120.65 306.521 120.708 307.198 120.577ZM209.684 116.768C209.289 117.981 206.801 119.209 205.641 119.903L205.575 119.539C205.897 118.855 208.69 117.282 209.662 116.476L209.684 116.768ZM219.438 117.562C220.501 117.317 222.594 117.274 223.902 117.555L223.491 118.179C222.343 118.254 221.47 118.197 220.329 118.143C219.721 118.033 217.284 118.69 216.181 118.845C216.886 118.638 218.568 117.869 219.438 117.562ZM180.943 117.416C180.637 117.998 179.581 118.392 178.88 118.764L178.404 118.638L178.412 118.349C179.285 117.929 179.724 117.679 180.536 117.15L180.943 117.416ZM100.121 114.192C100.866 114.842 103.156 113.45 104.197 113.121C104.974 113.751 105.322 113.801 105.566 114.578C104.805 115.018 103.551 114.813 102.54 114.924C102.136 115.269 101.127 116.104 100.865 116.519C100.36 117.321 100.703 117.942 99.8809 118.626C99.5949 117.5 100.353 117.602 99.9561 116.547C98.7035 116.687 98.2543 117.274 97.0557 117.472C98.0843 115.903 99.1999 114.462 100.332 112.97L100.121 114.192ZM224.108 117.604C224.21 117.63 224.306 117.658 224.395 117.689L224.471 117.936L224.108 117.604ZM224.108 117.604C224.042 117.586 223.973 117.57 223.902 117.555L223.96 117.468L224.108 117.604ZM270.588 113.312L270.58 113.609C268.7 114.554 267.045 115.511 265.23 116.562C265.11 116.461 264.99 116.36 264.87 116.259C265.618 115.227 268.893 113.566 270.29 113.283L270.588 113.312ZM341.905 114.38C341.608 115.072 340.925 115.301 340.173 115.766L339.938 115.668C340.075 115.02 340.832 114.617 341.465 114.105L341.905 114.38ZM295.725 113.297L295.785 113.545C294.873 114.187 293.66 114.522 292.585 114.898L292.11 114.914C292.558 114.33 294.435 113.631 295.218 113.285L295.725 113.297ZM351.575 112.676C350.675 113.548 350.218 114.059 349.11 114.693L348.806 114.228C349.311 113.292 350.438 112.637 351.375 112.201C351.44 112.359 351.508 112.518 351.575 112.676ZM219.153 111.397C220.04 111.289 220.48 111.167 221.352 111.397C220.524 111.849 219.038 112.02 218.057 112.192C217.802 112.335 217.498 112.382 217.196 112.46L216.858 112.162C217.618 111.53 218.092 111.608 219.153 111.397ZM327.75 109.275C328.505 109.287 328.933 109.229 329.625 109.543L329.252 109.772C328.665 109.833 328.075 109.861 327.485 109.896L327.298 109.682L327.75 109.275ZM295.13 108.16C294.362 109.001 293.812 109.238 292.84 109.797C292.728 109.709 292.808 109.789 292.57 109.416C293.133 108.735 294.133 108.411 294.973 108.04L295.13 108.16ZM137.337 108.815L135.883 109.779C135.43 109.797 135.518 109.776 135.062 109.656C135.4 109.075 136.024 108.924 136.747 108.549L137.385 108.539L137.337 108.815ZM238.496 108.761C237.391 109.404 237.1 109.41 235.82 109.604C235.389 109.284 235.498 109.38 235.158 108.978C235.625 108.589 237.167 108.722 238.026 108.676L238.421 108.537L238.496 108.761ZM262.617 107.77C263.077 107.711 262.903 107.721 263.385 107.884C262.907 108.342 261.267 108.794 260.55 109.035L260.053 109.194L259.976 108.955C260.975 108.192 261.438 108.13 262.617 107.77ZM177.845 104.717C177.144 105.757 174.268 107.802 173.144 108.675C172.985 108.719 172.814 108.672 172.65 108.661C172.895 107.979 176.292 105.165 177.073 104.484L177.685 104.426L177.845 104.717ZM288.897 105.452C288.652 106.005 287.075 106.436 286.32 106.736L286.122 106.6L286.112 106.232C286.967 105.625 287.707 105.545 288.732 105.303L288.897 105.452ZM125.487 103.374C126.241 103.857 128.187 104.474 128.423 104.914C127.596 105.763 125.979 105.753 124.518 106.555L124.228 106.727C123.543 106.699 122.569 106.141 122.269 105.506C122.761 105.126 122.736 105.273 123.556 105.33C124.327 104.429 124.581 104.109 125.487 103.374ZM309.165 98.0762C310.588 97.9992 312.748 97.9186 314.15 98.0166C313.18 98.3394 312.34 98.1816 311.205 98.4951C311.125 98.9636 311.038 99.4305 310.94 99.8955C309.558 101.093 302.696 104.626 300.976 103.768L301.146 103.324C301.761 103.182 303.96 103.119 304.05 103.008C305.26 101.503 308.585 99.6907 309.165 98.0762ZM221.952 102.152C222.439 102.209 222.347 102.208 222.815 102.388C222.516 102.954 221.866 103.103 221.151 103.462L220.835 103.755L220.628 103.616C220.846 102.897 221.345 102.634 221.952 102.152ZM219.032 100.252L219.151 100.511C218.257 100.833 217.467 100.791 216.515 100.828L215.962 100.595C216.619 100.143 217.595 100.19 218.48 100.104L219.032 100.252ZM206.764 98.042C207.655 97.4784 208.736 96.8921 209.752 97.3574C209.817 98.5821 207.475 99.2488 206.438 99.2734C205.715 99.4017 204.88 99.9806 203.908 100.226L204.506 99.959L204.24 99.4395C204.97 99.0762 205.688 98.689 206.394 98.2793L206.764 98.042ZM191.674 97.8037C192.929 97.844 195.337 97.7188 196.162 98.499L195.929 99.0518C194.865 98.837 191.998 98.6512 191.39 98.2285L191.674 97.8037ZM174.247 95.5088C174.348 96.2059 173.815 97.176 173.523 98.0059L173.307 98.0322C173.3 97.0177 173.551 96.2798 173.801 95.2988L174.247 95.5088ZM180.497 93.8271C181.34 93.7119 181.836 93.4812 182.463 93.7842C181.712 94.3893 181.443 94.4248 180.509 94.7539L180.15 94.2363V94.2373L180.509 94.7539C179.292 95.4679 179.121 95.6186 177.838 94.9834L177.719 94.5498L178.061 94.0742C178.947 93.6873 179.498 93.7999 180.497 93.8271ZM182.377 85.875C182.682 86.1394 182.538 85.9584 182.709 86.4854C182.062 87.6344 181.414 88.4932 180.646 89.5537L180.404 89.1123C180.953 87.85 181.294 86.6149 182.377 85.875ZM191.23 87.0215C191.699 87.0517 191.521 87.0264 191.965 87.2852C191.768 88.0257 191.305 88.1851 190.587 88.7988L190.354 88.8848L190.039 88.7275C190.129 88.0311 190.719 87.5707 191.23 87.0215Z" fill="#3EB7B8"/>
</g>
<defs>
<clipPath id="clip0_79_6526">
<rect width="480" height="480" fill="white"/>
</clipPath>
</defs>
</svg>
