<svg width="480" height="480" viewBox="0 0 480 480" fill="none" xmlns="http://www.w3.org/2000/svg">
<g clip-path="url(#clip0_79_4098)">
<path d="M149.574 76.2787C153.875 73.9412 155.067 74.1947 159.224 72.9947C166.585 70.7479 174.102 70.4974 181.721 71.2722C183.745 71.4779 186.516 71.1139 188.462 71.4167C196.462 72.6622 205.626 75.6224 212.34 80.0394C220.712 75.0117 228.615 72.1109 238.221 74.9907C242.981 76.4177 245.344 77.5344 249.323 80.8262C253.805 84.5352 257.273 86.4764 259.123 92.2477C263.378 90.9257 267.798 91.4729 272.208 91.1832C276.225 90.9192 280.175 90.3392 284.213 90.2794C286.87 90.2402 289.918 90.8254 292.48 90.1579C295.18 89.4549 298.213 90.1837 301 90.1039C304.338 90.0084 307.6 89.7669 310.94 90.0824C314.17 90.3877 317.39 91.3034 320.578 91.9209C323.625 92.5112 326.748 92.7299 329.775 93.3749C332.848 94.0294 335.865 95.2174 338.86 96.1599C341.488 96.9867 344.26 97.6409 346.798 98.7014C351.385 100.62 355.67 103.328 359.958 105.827C362.09 107.071 364.335 108.185 366.435 109.473C370.76 112.126 375.205 116.084 378.71 119.756C381.398 122.572 400.803 148.071 401.305 150.282C401.515 151.2 401.475 152.242 401.818 153.117C402.318 154.386 403.405 155.733 404.155 156.889C406.448 160.425 408.435 163.742 409.643 167.825C410.163 169.574 409.99 171.168 410.295 172.913C410.998 176.913 411.628 180.906 411.685 184.983C411.723 187.718 411.255 190.439 411.003 193.156C410.8 195.324 410.835 197.496 410.553 199.661C409.198 210.02 405.125 224.419 399.32 233.046C397.153 236.267 394.973 239.867 392.293 242.671C390.22 244.84 387.75 246.627 385.64 248.779C383.025 251.445 380.76 254.685 378.013 257.175C374.835 260.055 362.528 267.802 358.32 269.597C356.24 270.485 353.978 271.03 351.76 271.45C346.288 272.485 340.555 272.997 335.02 273.627C328.973 274.312 323.455 274.602 317.995 277.625C315.513 279.002 313.013 280.627 310.848 282.467C307.605 285.222 303.5 291.877 298.545 288.667C296.743 287.5 295.963 285.392 295.598 283.365C293.823 273.545 298.33 255.417 303.03 246.515C306.493 239.957 310.948 234.029 313.14 226.833C313.273 226.399 313.2 226.584 313.42 226.18C316.48 224.693 317.37 224.487 320.528 224.913C321.09 224.554 321.493 223.764 321.34 223.104C317.82 222.703 314.35 226.025 313.303 220.096C313.225 218.475 313.795 217.488 312.65 216.075C311.34 215.582 311.263 215.694 310.648 214.583C310.845 213.858 310.898 213.764 310.925 212.991C310.32 212.101 308.863 210.173 308.455 209.365C307.203 206.883 306.025 203.294 303.943 201.337C303.905 201.303 301.32 199.869 300.55 199.299C298.503 197.78 295.683 195.878 293.403 194.798C291.753 194.018 289.413 193.395 287.665 192.772C281.525 190.582 276.255 189.329 269.74 188.882C268.525 188.799 267.06 188.525 265.793 188.565C265.303 188.58 263.105 189.598 262.938 189.603C261.228 189.655 259.348 188.055 257.298 188.273C254.635 188.555 252.015 188.844 249.365 189.079C246.88 189.301 244.331 189.379 241.861 189.616C240.703 189.728 238.647 190.711 237.559 190.712C236.02 190.714 233.903 190.084 232.335 189.924C230.666 189.753 228.088 191.145 226.859 190.243C226.725 190.169 226.591 190.095 226.457 190.02C224.915 189.392 220.105 191.312 218.517 191.903C218.305 191.737 217.403 191.066 217.151 191.073C211.3 191.243 207.425 193.668 201.705 191.734C200.844 192.444 199.4 193.915 198.37 193.542C196.347 192.808 191.183 194.476 189.364 194.003C184.907 192.844 182.183 193.544 177.726 194.475C176.614 194.707 174.112 192.83 173.097 192.064C170.6 192.511 170.433 193.405 169.042 193.426C168.393 192.883 168.351 192.308 168.125 191.472C158.85 192.637 151.6 189.087 142.96 186.38C138.612 185.017 132.428 181.269 129.175 177.878C128.805 177.492 127.97 175.755 127.691 175.178C123.717 173.787 119.241 166.176 116.658 162.636C116.542 161.487 116.442 160.336 116.359 159.184C114.4 156.718 112.018 153.272 112.498 149.807C112.812 147.537 112.607 147.965 112.114 145.733C111.423 142.605 111.445 139.366 111.443 136.188C110.586 128.732 112.575 121.392 115.059 114.476C118.801 104.062 123.459 95.7764 131.491 88.1559C137.241 82.6999 138.266 82.2459 145.482 78.6122C145.934 78.5407 146.387 78.4754 146.84 78.4162C147.686 79.1129 148.061 79.3194 149.142 79.2922L149.561 78.8492C149.914 77.7567 149.77 77.4594 149.574 76.2787ZM129.645 101.037C130.891 100.326 134.21 101.869 134.276 97.9607C133.721 97.1612 132.759 97.0244 131.815 96.8779L131.598 97.1374C130.45 98.4844 127.53 100.459 127.353 101.566C128.25 101.804 128.779 101.455 129.645 101.037ZM276.168 163.085L276.315 163.434L276.673 163.414C277.855 162.364 278.438 161.716 279.478 160.541C279.15 160.033 276.738 159.189 276.038 158.968C275.808 157.771 276.855 157.945 276.253 157.314C275.38 158.113 274.39 160.243 273.998 161.349C274.713 161.918 275.558 162.434 276.168 163.085ZM268.818 98.9692C270.153 98.2689 270.945 97.3997 270.44 95.9069C269.603 95.1782 269.603 95.1462 268.478 95.0714C267.678 95.6382 266.648 96.2059 266.38 97.0497C267.108 98.1664 267.853 97.7499 268.818 98.9692ZM232.485 186.314C233.926 186.218 236.625 185.089 236.466 183.434L236.321 183.347C234.459 184.413 232.761 183.168 231.848 184.645C231.866 185.469 232.044 185.626 232.485 186.314ZM185.147 124.474C185.877 124.06 187.159 123.513 187.496 122.907C187.226 122.815 184.368 122.626 183.841 122.611C183.128 122.875 181.988 123.149 181.555 123.611L181.753 124.243C182.97 124.374 183.914 124.503 185.147 124.474ZM212.556 135.44C213.846 135.238 214.406 135.129 215.647 134.738C216.382 134.967 216.429 135.071 217.016 135.55L217.284 135.373L216.8 134.71C216.971 134.042 216.98 134.084 217.413 133.535L217.23 133.481L216.786 133.558C214.056 134.002 213.495 132.982 211.586 135.459L211.697 135.692C211.967 135.621 212.313 135.55 212.556 135.44ZM126.026 98.7819C126.561 98.4569 128.638 97.1684 129.09 97.0132C131.096 96.2184 132.69 95.7449 134.744 95.1447C133.378 95.1452 132.013 95.1229 130.648 95.0774C128.068 95.6734 127.52 96.5604 126.026 98.7819ZM395.738 202.089C397.538 201.515 398.965 199.417 398.668 197.444C397.303 198.725 396.265 199.587 395.253 201.157C395.315 201.858 395.185 201.545 395.738 202.089ZM116.925 140.808C117.813 140.681 117.411 140.836 118.158 140.275L118.277 139.677C117.443 138.74 117.1 138.994 115.848 139.066C115.069 139.436 114.888 139.455 114.449 140.208C114.655 140.958 114.448 140.633 115.237 141.11C115.993 141.112 116.216 141.013 116.925 140.808ZM133.656 92.0529C135.282 91.0517 137.009 89.2644 134.311 88.1307C133.485 89.1947 133.58 89.6339 133.497 90.9872C133.045 91.3682 133.076 91.3902 132.515 91.5439C132.66 91.6209 132.804 91.6982 132.949 91.7752L133.101 91.4839L133.277 91.8942L133.656 92.0529ZM197.213 177.46C198.612 176.695 198.627 176.126 199.82 175.302C200.197 175.042 202.111 175.396 202.518 175.026C201.939 174.379 201.18 174.133 200.331 174.203C197.623 176.244 198.162 176.254 194.773 177.393C195.287 177.654 196.56 177.496 197.213 177.46ZM333.828 224.461L333.83 224.098L333.495 223.642C334.108 221.646 337.723 220.369 337.5 219.252L336.943 219.177C335.838 219.925 332.823 222.802 332.153 223.873C332.738 224.393 332.935 224.278 333.828 224.461ZM134.88 175.515L135.212 175.351C136.659 174.647 137.16 174.509 138.718 174.126L138.768 173.822C138.116 173.613 137.975 173.517 137.287 173.546C135.527 174.214 134.42 174.669 132.921 175.899L132.865 176.219L133.012 176.233L132.989 176.045C133.747 176.219 134.028 175.982 134.88 175.515ZM228.335 137.032C227.102 135.336 224.568 135.679 222.911 136.56L222.788 136.784C224.096 136.831 225.644 136.785 226.851 137.19C227.112 137.194 228.023 137.068 228.335 137.032ZM400.54 215.828L401.008 216.014C402.713 215.233 402.905 213.519 401.195 212.602L401.095 213.954C400.503 214.415 400.255 214.44 399.51 214.281C399.93 215.043 399.995 215.159 400.54 215.828ZM264.885 186.997C265.758 186.531 267.498 185.92 267.955 185.494L267.965 185.056C267.428 184.579 267.64 184.665 267.01 184.433C266.243 184.891 264.44 185.655 264.09 186.322C264.373 186.93 264.165 186.666 264.885 186.997ZM381.788 235.803C383.858 234.527 384.365 234.205 385.59 231.985L385.555 231.514L385.268 231.394C384.375 232.774 384.055 233.072 382.673 233.959C381.578 234.66 381.13 234.634 381.788 235.803ZM196.318 185.252C196.916 184.958 197.758 184.651 198.1 184.166C197.731 184.114 196.267 183.862 196.037 183.855C195.109 184.256 194.311 184.823 194.192 185.94L194.546 186.168C195.436 185.911 195.539 185.793 196.318 185.252ZM227.322 84.2232C228.019 83.8274 228.229 83.7127 228.849 83.2239C229.859 82.4269 231.36 82.0157 232.499 81.3299L232.243 81.1324L231.332 81.3332C229.6 81.4047 227.693 83.0102 226.528 84.2764C227.102 84.3687 226.839 84.4029 227.322 84.2232ZM204.032 137.45L204.084 137.247C204.586 137.103 204.868 137.049 205.379 136.943L205.49 136.619C204.532 136.178 201.652 135.963 200.751 136.435C201.117 137.037 201.854 137.218 202.549 137.511L204.032 137.45ZM209.654 90.5637C211.166 89.6409 212.283 87.9202 214.611 86.5422L214.415 86.2657C212.723 86.5887 210.638 88.6169 209.38 89.8387C209.365 90.3764 209.284 90.1312 209.654 90.5637ZM344.305 222.532C346.788 221.826 348.623 221.272 350.568 219.5C350.395 219.175 350.518 219.282 350.243 219.142L348.82 220.092C347.535 220.944 344.563 221.696 343.87 222.402L344.305 222.532ZM390.948 154.921C391.428 154.743 391.415 154.795 391.733 154.457C392.963 153.151 394.483 153.999 395.608 153.38L393.435 153.373C391.598 153.463 390.383 154.083 388.91 155.147L388.78 155.503C389.425 155.635 390.285 155.184 390.948 154.921ZM136.028 122.232L136.022 121.686C134.74 121.318 130.945 120.902 129.8 121.385C130.336 121.913 133.724 121.75 135.686 122.34L136.028 122.232ZM399.983 167.459C400.41 167.067 400.333 167.289 400.413 166.842C400.705 165.158 401.67 163.291 402.61 161.869L402.548 161.547L402.413 161.455C401.333 162.596 399.44 166.041 399.55 167.476L399.983 167.459ZM357.398 115.049L357.995 114.821L357.97 114.463L357.61 114.155C357.2 113.799 357.06 113.652 356.708 113.222L356.363 113.106C355.918 113.864 355.483 114.388 355.49 115.244L355.813 115.527C356.66 115.434 356.66 115.397 357.398 115.049ZM268.578 147.566C270.425 146.964 271.88 146.228 272.873 144.473L272.685 144.137L272.09 144.083C271.268 146.137 270.058 146.44 268.038 147.148L267.95 147.463L268.578 147.566ZM169.526 172.619L169.872 172.481C171.577 171.816 172.578 171.651 174.384 171.319L174.246 171.074C173.582 170.922 173.83 170.902 173.195 171.097C171.273 171.368 169.864 171.377 168.499 172.814L168.556 173.263C169.089 173.008 169.081 173.009 169.526 172.619ZM344.4 213.62C345.445 213.39 348.658 212.762 349.43 212.355C348.803 212.267 348.808 212.25 348.188 212.346C346.71 212.494 344.178 212.555 343.308 213.909L343.548 214.063L344.4 213.62ZM254.728 108.347C255.75 108.258 256.273 108.39 256.99 107.863C256.17 107.488 255.37 107.493 254.463 107.412C253.953 107.934 252.838 108.876 252.738 109.464C253.715 109.212 253.9 108.981 254.728 108.347ZM131.457 129.66L131.483 129.017C131.042 128.554 130.194 127.538 129.664 127.318C129.095 128.38 129.012 128.125 129.173 129.066C129.796 129.616 130.598 129.574 131.457 129.66ZM227.282 128.974C228.933 129.562 229.919 128.577 231.391 127.604L231.365 127.296L231.108 127.221C228.444 128.341 228.791 127.905 226.723 128.605L227.282 128.974ZM307.59 140.306L307.82 140.226C309.295 139.73 311.018 139.555 312.195 138.896L312.335 138.495L312.005 138.133C310.045 139.751 307.405 138.965 307.203 140.269C307.33 140.288 307.468 140.352 307.59 140.306ZM224.744 96.0512C226.393 94.8257 227.141 94.1769 228.382 92.4524L228.203 92.2359C227.049 92.7314 225.651 94.4999 224.588 95.5339C224.616 95.9807 224.521 95.8274 224.744 96.0512ZM203.561 132.646C204.6 132.551 207.043 132.157 207.807 131.46C207.264 131.294 207.418 131.279 206.882 131.305C205.425 131.656 204.107 131.923 202.725 132.514L202.913 132.705L203.561 132.646ZM169.936 180.691L170.738 180.85C171.59 180.265 171.355 180.641 171.628 179.799C171.145 179.606 171.281 179.619 171.106 179.631C170.136 179.735 169.006 179.766 168.153 180.184C168.432 180.549 168.729 180.541 169.287 180.616C169.503 180.643 169.72 180.668 169.936 180.691ZM175.272 150.043C176.259 149.462 177.056 149.932 178.173 149.42L177.968 149.542C177.388 149.115 176.074 149.213 175.346 149.239C174.634 149.554 173.315 150.015 172.911 150.587C173.848 150.664 174.358 150.375 175.272 150.043ZM368.895 223.234C370.24 222.366 370.698 222.37 372.218 222.211C371.695 221.664 371.568 221.728 370.803 221.452C369.88 221.953 368.345 222.792 367.763 223.683C368.503 223.701 368.135 223.741 368.895 223.234ZM360.218 188.296C361.295 187.6 362.13 186.868 361.883 185.438C361.345 186.203 360.485 187.287 360.168 188.108L360.218 188.296ZM260.958 106.807C261.543 106.296 262.408 105.676 262.635 104.993C262.34 104.669 262.49 104.751 262.255 104.652C261.555 105.316 261.188 105.649 260.603 106.403C260.838 106.78 260.693 106.674 260.958 106.807ZM403.005 198.895C402.278 199.344 401.01 200.021 400.533 200.655L400.705 200.882L401.14 200.778C401.818 200.409 403.35 199.702 403.695 199.13C403.27 198.817 403.503 198.886 403.005 198.895ZM137.395 93.2669C136.687 93.6277 136.251 93.8532 135.59 94.2882C135.648 94.8557 135.544 94.6102 135.881 95.0337C136.626 94.5514 137.163 94.3102 137.606 93.5477L137.395 93.2669ZM341.375 138.781L341.405 138.362C340.688 138.137 339.505 138.091 338.81 138.382C339.303 138.86 340.708 138.893 341.375 138.781ZM312.59 118.749L315.375 117.597L315.265 117.333C314.155 117.579 313.478 117.662 312.468 118.207L312.305 118.556L312.59 118.749ZM384 222.989C385.213 222.445 386.905 220.931 387.748 219.917L387.708 219.484C385.763 220.599 385.588 221.042 383.993 222.629L384 222.989ZM359.403 217.212C360.383 217.036 361.053 217.084 361.725 216.512L361.688 216.126C360.915 216.24 359.915 216.268 359.4 216.777L359.403 217.212ZM263.953 112.493C262.98 112.85 262.143 113.158 261.19 113.581L261.565 113.708C262.86 113.503 263.125 113.52 264.26 112.936L264.36 112.596L263.953 112.493ZM241.102 113.442C242.191 113.404 243.233 113.507 244.128 112.969L244.43 112.494L244.204 112.4C242.99 112.909 242.374 112.697 241.059 112.524L240.639 112.756C240.824 113.061 240.873 113.168 241.102 113.442ZM335.655 204.702C336.62 204.465 337.438 204.376 338.178 203.752L338.285 203.291C337.415 203.562 336.183 203.824 335.588 204.438L335.655 204.702ZM214.896 106.449C213.704 107.554 212.958 107.796 211.472 108.448L211.536 108.697L212.082 108.662C213.45 108.298 214.58 107.898 215.385 106.657C215.047 106.407 215.22 106.448 214.896 106.449ZM384.328 187.17C384.92 187 386.12 186.776 386.418 186.391C386.025 186.262 385.985 186.218 385.578 186.181C384.613 186.531 384.23 186.56 383.64 187.332L383.935 187.434L384.328 187.17ZM266.913 100.225C266.008 100.661 265.098 101.089 264.185 101.508L264.133 101.766L264.81 101.942C265.608 101.562 266.85 101.061 267.443 100.472L267.293 100.218L266.913 100.225ZM329.698 143.468C330.675 143.057 331.268 142.838 332.285 142.54L332.368 142.172L332.26 142.048C331.238 142.331 330.408 142.458 329.583 143.104C329.613 143.228 329.608 143.379 329.698 143.468ZM139.153 123.658C140.326 123.489 140.612 123.515 141.622 122.964L141.681 122.612L141.335 122.504L138.846 123.443L138.941 123.655L139.153 123.658ZM396.313 232.322C396.925 231.678 397.05 231.762 397.203 231.021C396.608 230.533 396.94 230.693 396.158 230.554C395.785 231.419 395.418 231.77 395.658 232.416L396.313 232.322ZM347.28 254.347C348.015 252.395 348.948 252.735 349.643 251.562C348.293 251.375 347.608 252.545 347.065 253.607C346.28 254.09 345.683 254.27 345.333 254.99C346.07 255.132 346.58 254.72 347.28 254.347ZM156.012 169.689C155.38 170.096 154.135 170.77 153.825 171.366C154.12 171.672 153.974 171.617 154.178 171.674C154.999 171.167 155.884 170.745 156.403 169.955C156.102 169.689 156.25 169.743 156.012 169.689ZM371.428 172.632C372.27 172.494 373.185 172.442 373.845 171.947L373.84 171.592C372.905 171.718 372.22 171.693 371.51 172.279L371.428 172.632ZM199.093 83.2079C198.49 83.6502 197.875 83.9772 197.59 84.6354L198.08 84.5872C198.758 84.2274 199.621 83.9264 199.933 83.3574C199.465 83.2199 199.562 83.2019 199.093 83.2079ZM288.313 185.151C287.675 185.756 287.25 186.007 287.135 186.86L287.295 187.274C287.773 186.728 288.235 186.17 288.683 185.601C288.42 185.202 288.565 185.331 288.313 185.151ZM239.749 96.9762C240.676 96.4822 242.215 95.8964 242.595 95.1379L242.344 95.0697C241.437 95.4127 240.266 95.7464 239.601 96.3974L239.478 97.0189L239.699 97.0322L239.749 96.9762ZM319.223 138.236C318.305 138.886 317.943 139.023 317.45 139.983C317.445 140.233 317.425 140.624 317.453 140.858C317.95 140.252 319.235 138.901 319.223 138.236ZM362.898 206.491C362.213 206.711 361.068 206.987 360.595 207.442C361.018 207.567 360.9 207.586 361.313 207.55C362.303 207.326 362.653 207.325 363.443 206.742L363.283 206.5L362.898 206.491ZM239.686 112.836C238.868 113.004 237.52 113.093 237.141 113.611L237.159 113.797C238.164 113.713 238.677 113.767 239.513 113.268L239.686 112.836ZM359.08 197.336L360.293 196.489L360.173 196.251L359.195 196.089C358.55 196.742 358.368 196.683 358.303 197.391C358.715 197.4 358.695 197.437 359.08 197.336ZM213.34 102.676C212.705 103.259 212.176 103.601 211.94 104.411C212.588 104.374 212.999 103.851 213.519 103.385C214.376 103.586 214.546 103.781 215.262 103.557C214.589 103.187 213.996 103.014 213.34 102.676ZM156.012 90.2737L154.114 90.8959L153.974 91.2062L154.358 91.4484C155.148 91.2347 155.73 91.1809 156.278 90.5967L156.012 90.2737ZM212.541 111.474C213.112 110.843 213.701 110.368 213.85 109.565L213.606 109.205C213.102 109.821 212.434 110.474 212.329 111.221L212.541 111.474ZM282.623 150.202L282.58 149.827C281.505 149.647 281.068 149.741 279.963 149.844C280.798 150.806 281.398 150.45 282.623 150.202ZM191.073 101.818C191.741 101.585 192.199 101.5 192.691 100.995C192.428 100.796 192.562 100.821 192.313 100.84L190.637 101.424L190.694 101.696L191.073 101.818ZM209.873 132.781C210.61 132.306 211.066 132.195 211.414 131.531L211.2 131.272C210.394 131.731 209.985 131.762 209.669 132.438L209.873 132.781ZM390.553 149.697C391.385 149.413 392.148 149.344 392.485 148.73L392.243 148.513C391.31 148.848 390.95 148.802 390.383 149.44L390.553 149.697ZM218.029 169.549C216.98 169.685 216.675 169.633 215.875 170.247L215.88 170.612L216.078 170.533C217.063 170.321 217.528 170.308 218.323 169.737C218.225 169.675 218.127 169.612 218.029 169.549ZM319.615 191.181C319.508 190.352 319.553 189.982 318.985 189.38L318.348 189.117L319.363 191.206L319.615 191.181ZM401.968 181.12C401.275 181.911 399.73 183.53 399.653 184.464L400.063 184.656C400.81 183.256 402.2 182.171 402.44 181.347L401.968 181.12ZM148.571 157.37C149.641 157.799 150.881 157.919 152.035 157.937C150.726 157.057 150.124 157.096 148.571 157.37ZM193.905 174.451L192.021 175.451L192.067 175.655L192.97 175.711C193.71 175.271 194.266 175.132 194.562 174.498L193.905 174.451ZM272.75 154.388C273.463 155.068 274.815 154.759 275.79 154.63C274.82 154.187 273.788 154.147 272.75 154.388ZM175.313 107.576C176.669 107.743 178.125 107.286 179.346 106.697C179.309 106.345 179.394 106.456 179.204 106.302C177.538 106.76 176.628 106.873 175.086 107.229L175.313 107.576ZM234.3 172.453C233.231 172.875 232.633 173.125 232.144 174.244L232.379 174.418L232.613 174.154C233.488 173.639 234.218 173.241 235.125 172.786L235.173 172.51L234.3 172.453ZM211.171 89.8017C211.823 91.1619 212.877 91.7344 214.364 91.8187C213.329 91.0064 212.433 90.1884 211.171 89.8017ZM168.399 154.137L168.64 154.539C169.685 154.558 170.784 154.546 171.816 154.672C170.821 153.616 169.712 153.936 168.399 154.137ZM340.38 143.379C341.515 143.821 342.758 143.905 343.94 143.619L343.703 143.242C342.38 143.195 341.668 143.257 340.38 143.379ZM132.414 140.647C131.668 141.342 130.994 141.829 130.607 142.751L130.811 143.278C131.384 142.639 132.67 141.494 132.646 140.854L132.414 140.647ZM150.078 171.422C149.213 171.942 148.49 172.375 147.663 172.962L147.777 173.242L148.098 173.295C148.986 172.834 149.862 172.504 150.455 171.735C150.208 171.421 150.354 171.495 150.078 171.422ZM161.349 77.7792C162.382 77.3732 163.273 77.1334 164.071 76.3862L164.191 75.8827L163.921 75.5219C162.871 76.0792 161.9 76.4804 161.119 77.3544C161.273 77.7372 161.164 77.6182 161.349 77.7792ZM348.385 127.385C347.845 127.491 347.438 127.484 347.06 127.799C348.328 127.753 349.04 127.778 350.308 127.882L351.075 127.592L351.088 127.313C349.873 127.142 349.61 127.199 348.385 127.385ZM355.298 253.065C356.09 252.935 357.383 252.822 358.003 252.452C357.69 252.422 357.2 252.355 356.883 252.365C355.478 252.4 354.995 252.332 353.763 253.09L353.783 253.36C354.525 253.362 354.605 253.292 355.298 253.065ZM329.79 258.425C328.703 259.757 328.118 260.05 326.423 260.445C326.43 260.812 326.37 260.657 326.56 260.917C328.005 260.677 329.083 260.327 330.005 259.122L330.105 258.67L329.79 258.425ZM262.028 165.969C260.995 166.448 259.955 166.826 259.153 167.603C259.168 167.723 259.138 167.869 259.22 167.959L262.138 166.551L262.238 166.179L262.028 165.969ZM178.825 75.0204C178.373 75.1437 177.567 75.2669 177.325 75.5452L177.232 76.1469L177.133 76.0279L177.305 75.5887L177.142 76.1257C177.425 76.3139 177.534 76.4107 177.846 76.5449C178.853 76.1794 179.183 76.1379 179.952 75.4402L179.969 75.1317C179.386 74.9447 179.428 74.9382 178.825 75.0204ZM333.125 265.912C332.568 266.582 331.693 267.442 331.548 268.247C331.878 268.615 331.698 268.51 332.028 268.64C332.498 267.615 332.828 267.207 333.558 266.345L333.443 266.025L333.125 265.912ZM195.69 130.347C194.344 130.492 193.379 130.524 192.117 131.058L192.066 131.363C192.694 131.51 192.697 131.46 193.343 131.327C194.597 131.052 195.633 130.882 196.815 130.368C196.354 130.1 196.458 130.241 195.69 130.347ZM259.17 149.571L259.365 150.09C260.578 150.489 261.633 150.294 262.823 149.904C262.083 149.372 260.36 149.621 259.17 149.571ZM388.398 158.259C387.388 158.728 386.18 159.182 385.395 159.926L385.393 160.57C386.378 159.985 387.938 159.315 388.428 158.516L388.398 158.259ZM377.873 165.636C376.88 165.688 375.995 165.745 375.008 165.852L374.9 166.057C375.193 166.191 375.505 166.359 375.805 166.442C377.088 166.286 377.415 166.333 378.485 165.696L378.315 165.473L377.873 165.636ZM232.134 158.469C231.286 159.146 230.425 159.805 229.55 160.445L229.581 160.83L229.929 160.974C230.757 160.319 231.857 159.562 232.437 158.723L232.286 158.491L232.134 158.469ZM186.723 155.342C186.136 156.021 184.546 157.78 184.587 158.63C184.717 158.581 184.872 158.566 184.969 158.467C185.727 157.515 186.511 156.583 187.319 155.673L187.179 155.392L186.723 155.342ZM358.225 137.516C359.735 138.883 360.985 138.518 362.8 137.816L362.62 137.542L362.39 137.56C360.978 137.66 359.635 137.578 358.225 137.516ZM153.747 87.2654C152.549 87.8634 151.828 88.1172 150.899 89.0892L151.021 89.3267C151.581 89.1627 151.424 89.2724 151.861 88.9362L152.14 88.7769C153.39 88.0737 153.756 87.9434 155.111 87.4937L155.17 87.2889C154.666 87.2679 154.251 87.2494 153.747 87.2654ZM374.425 245.252C373.625 245.8 371.915 246.793 371.6 247.584C371.87 247.921 371.925 248.023 372.25 248.307C372.923 246.376 374.953 246.248 374.75 245.226L374.425 245.252Z" fill="#EDC43E"/>
<path d="M152.851 132.003C152.366 130.237 151.926 128.646 151.319 126.893C150.764 125.294 149.849 123.335 149.422 121.769C149.32 121.398 149.86 118.896 149.897 118.248C149.959 117.163 149.277 115.639 149.311 114.691C149.432 111.339 150.9 106.835 152.423 103.874C153.076 102.604 155.614 99.5615 157.002 99.2603C157.447 99.1638 157.326 99.2178 157.757 99.461C159.053 102.957 154.006 107.277 155.493 110.372C155.216 111.038 154.554 111.101 154.549 111.163C154.404 112.966 155.03 115.887 155.801 117.494C155.542 117.911 155.473 117.98 155.138 118.344C155.381 119.201 155.991 119.904 156.423 120.678C160.272 127.55 168.7 131.123 175.91 133.178C181.715 134.833 187.887 135 193.783 136.304C196.957 137.006 199.471 139.388 202.549 137.511L204.032 137.45C206.684 138.102 206.125 137.037 209.75 139.086C214.091 137.52 222.231 137.312 226.851 137.19C227.112 137.195 228.023 137.068 228.335 137.033C230.353 136.97 232.134 136.157 233.966 136.141C240.109 136.087 246.184 135.609 252.303 135.119C254.583 134.936 257.18 135.263 259.498 135.114C270.01 134.29 280.993 134.477 291.23 137.194C295.138 138.23 299.975 140.768 303.498 142.674C306.723 144.525 308.188 147.325 312.085 148.301C314.833 149.27 318.585 148.228 321.06 148.401C324.33 148.629 331.905 149.795 334.648 151.262C339.835 154.037 346.198 161.925 346.288 168.124C346.318 170.277 345.663 171.836 346.365 173.85C346.218 176.457 344.8 185.247 343.655 187.193C340.748 192.143 337.46 198.115 332.34 200.684C331.495 201.109 329.35 200.908 329.453 199.708C329.96 193.768 336.615 189.543 338.29 183.892C339.473 179.214 339.005 176.503 338.025 172.253C337.19 168.638 334.925 164.783 332.18 162.611C329.4 160.413 323.568 157.99 319.995 158.494C318.515 158.702 318.108 158.799 316.498 158.545C315.125 166.167 315.878 170.21 308.368 175.586C305.49 177.644 303.213 178.138 299.68 178.692C298.05 178.82 297.025 178.977 295.548 179.516C294.183 180.015 289.665 178.418 288.348 177.869C282.613 175.48 282.373 169.202 284.985 164.353C286.428 161.676 287.88 158.93 290.078 156.715C291.638 155.048 295.598 152.808 296.438 150.887C294.693 148.068 282.793 145.498 279.338 144.683C276.13 143.927 269.053 143.536 265.818 143.865C264.893 143.959 264.053 144.332 263.095 144.359C260.268 144.438 257.478 144.142 254.648 144.496C253.773 144.606 249.084 145.828 248.661 145.483C248.19 145.099 247.872 144.805 247.239 144.881C246.916 144.92 246.734 145.07 246.453 145.219C246.093 145.411 245.833 145.509 245.425 145.539C242.911 145.724 240.383 145.658 237.864 145.859C232.773 146.265 227.619 146.94 222.517 147.054C221.663 147.074 221.483 148.619 220.418 148.583C218.915 148.532 217.346 147.701 215.736 147.652C212.608 147.555 209.431 147.93 206.275 147.862C204.104 147.816 201.894 147.809 199.732 147.61C197.938 147.445 196.161 147.088 194.362 146.975C189.821 146.689 185.474 146.683 181.075 145.261C179.324 144.695 176.293 143.135 174.61 143.021C174.079 142.985 173.348 143.394 172.867 143.606C170.999 143.481 159.818 137.329 157.41 135.801C156.03 134.926 154.047 133.206 152.851 132.003Z" fill="#4B4746"/>
<path d="M333.442 266.026L333.558 266.345C332.828 267.207 332.497 267.615 332.027 268.64C331.698 268.51 331.878 268.615 331.548 268.247C331.693 267.442 332.568 266.582 333.125 265.912L333.442 266.026ZM330.105 258.67L330.005 259.122C329.082 260.327 328.005 260.677 326.56 260.917C326.37 260.658 326.43 260.812 326.423 260.446C328.118 260.051 328.703 259.757 329.79 258.425L330.105 258.67ZM349.643 251.563C348.948 252.735 348.015 252.395 347.28 254.348C346.58 254.72 346.07 255.133 345.333 254.99C345.683 254.27 346.28 254.09 347.065 253.608C347.608 252.545 348.293 251.375 349.643 251.563ZM356.883 252.365C357.2 252.355 357.691 252.422 358.003 252.452C357.383 252.822 356.09 252.935 355.298 253.065C354.605 253.292 354.525 253.363 353.782 253.361L353.763 253.09C354.995 252.333 355.478 252.4 356.883 252.365ZM374.75 245.227C374.952 246.249 372.923 246.376 372.25 248.307C371.925 248.024 371.87 247.921 371.601 247.584C371.916 246.793 373.625 245.801 374.425 245.252L374.75 245.227ZM385.555 231.514L385.59 231.986C384.365 234.206 383.857 234.528 381.787 235.803C381.13 234.634 381.578 234.66 382.673 233.959C384.055 233.073 384.375 232.773 385.268 231.394L385.555 231.514ZM396.157 230.554C396.94 230.692 396.607 230.533 397.202 231.021C397.05 231.762 396.925 231.678 396.312 232.322L395.657 232.416C395.417 231.77 395.785 231.419 396.157 230.554ZM313.303 220.096C314.35 226.024 317.82 222.703 321.34 223.105C321.492 223.764 321.09 224.554 320.527 224.913C317.37 224.487 316.48 224.693 313.42 226.18C313.485 224.229 313.285 222.133 313.303 220.096ZM337.5 219.252C337.722 220.369 334.108 221.646 333.495 223.642L333.83 224.099L333.827 224.461C332.935 224.278 332.737 224.393 332.152 223.873C332.822 222.803 335.837 219.926 336.942 219.178L337.5 219.252ZM370.803 221.452C371.567 221.728 371.695 221.664 372.218 222.211C370.698 222.37 370.24 222.366 368.895 223.234C368.135 223.74 368.502 223.701 367.763 223.683C368.345 222.792 369.88 221.953 370.803 221.452ZM387.747 219.917C386.905 220.931 385.212 222.446 384 222.989L383.992 222.629C385.587 221.042 385.762 220.599 387.707 219.484L387.747 219.917ZM350.242 219.142C350.517 219.282 350.395 219.176 350.567 219.501C348.623 221.272 346.787 221.827 344.305 222.532L343.87 222.402C344.563 221.696 347.535 220.944 348.82 220.093L350.242 219.142ZM361.725 216.512C361.052 217.084 360.382 217.036 359.402 217.212L359.4 216.777C359.916 216.268 360.915 216.241 361.688 216.126L361.725 216.512ZM401.195 212.603C402.905 213.519 402.713 215.233 401.008 216.015L400.54 215.828C399.995 215.16 399.93 215.043 399.51 214.281C400.255 214.44 400.502 214.416 401.095 213.954L401.195 212.603ZM348.188 212.346C348.807 212.25 348.803 212.268 349.43 212.356C348.656 212.762 345.446 213.39 344.4 213.619L343.548 214.063L343.308 213.909C344.178 212.555 346.71 212.495 348.188 212.346ZM363.282 206.5L363.442 206.741C362.652 207.325 362.302 207.326 361.312 207.55C360.9 207.586 361.017 207.567 360.595 207.443C361.067 206.988 362.212 206.711 362.897 206.491L363.282 206.5ZM338.178 203.752C337.438 204.376 336.62 204.466 335.655 204.702L335.588 204.439C336.183 203.824 337.415 203.562 338.285 203.291L338.178 203.752ZM398.667 197.445C398.964 199.418 397.537 201.515 395.737 202.089C395.185 201.545 395.315 201.858 395.253 201.157C396.265 199.587 397.302 198.725 398.667 197.445ZM403.005 198.895C403.502 198.886 403.27 198.817 403.695 199.13C403.35 199.702 401.817 200.409 401.14 200.778L400.705 200.882L400.532 200.655C401.01 200.021 402.277 199.344 403.005 198.895ZM360.173 196.251L360.293 196.489L359.08 197.336C358.695 197.438 358.715 197.4 358.303 197.391C358.368 196.684 358.55 196.742 359.195 196.089L360.173 196.251ZM318.985 189.38C319.553 189.982 319.508 190.352 319.615 191.181L319.362 191.206L318.348 189.116L318.985 189.38ZM361.883 185.438C362.13 186.868 361.295 187.6 360.218 188.296L360.168 188.109C360.486 187.287 361.345 186.203 361.883 185.438ZM385.578 186.181C385.985 186.218 386.026 186.263 386.418 186.392C386.121 186.776 384.921 187 384.328 187.17L383.936 187.434L383.641 187.332C384.231 186.56 384.613 186.532 385.578 186.181ZM288.312 185.151C288.565 185.331 288.42 185.203 288.683 185.601C288.235 186.17 287.772 186.728 287.295 187.274L287.135 186.861C287.25 186.007 287.675 185.756 288.312 185.151ZM267.01 184.433C267.64 184.665 267.428 184.579 267.965 185.056L267.955 185.494C267.497 185.921 265.757 186.531 264.885 186.997C264.165 186.666 264.372 186.931 264.09 186.322C264.44 185.655 266.242 184.891 267.01 184.433ZM236.466 183.435C236.625 185.09 233.925 186.218 232.484 186.315C232.044 185.627 231.866 185.468 231.848 184.645C232.761 183.168 234.459 184.412 236.32 183.347L236.466 183.435ZM196.037 183.855C196.269 183.862 197.731 184.114 198.1 184.166C197.758 184.651 196.916 184.958 196.318 185.252C195.539 185.793 195.436 185.911 194.546 186.168L194.192 185.94C194.311 184.823 195.109 184.256 196.037 183.855ZM402.44 181.347C402.2 182.171 400.81 183.256 400.062 184.656L399.652 184.464C399.73 183.53 401.275 181.91 401.968 181.119L402.44 181.347ZM171.105 179.631C171.281 179.619 171.145 179.606 171.628 179.799C171.355 180.642 171.59 180.265 170.737 180.85L169.937 180.691C169.72 180.668 169.503 180.644 169.287 180.616C168.728 180.541 168.432 180.549 168.152 180.184C169.005 179.766 170.136 179.735 171.105 179.631ZM200.331 174.203C201.18 174.133 201.938 174.379 202.518 175.026C202.11 175.396 200.197 175.042 199.82 175.302C198.627 176.127 198.612 176.695 197.213 177.46C196.561 177.496 195.287 177.654 194.772 177.393C198.162 176.254 197.623 176.244 200.331 174.203ZM137.287 173.546C137.975 173.517 138.116 173.613 138.768 173.821L138.718 174.126C137.16 174.509 136.658 174.647 135.212 175.352L134.88 175.515C134.028 175.982 133.747 176.219 132.988 176.045L133.012 176.234L132.865 176.22L132.921 175.9C134.42 174.669 135.527 174.213 137.287 173.546ZM194.562 174.498C194.266 175.132 193.709 175.271 192.97 175.711L192.066 175.655L192.021 175.451L193.905 174.451L194.562 174.498ZM235.173 172.511L235.125 172.786C234.218 173.242 233.488 173.639 232.613 174.154L232.379 174.418L232.144 174.244C232.633 173.125 233.232 172.875 234.301 172.453L235.173 172.511ZM150.078 171.422C150.354 171.495 150.209 171.42 150.455 171.735C149.863 172.504 148.985 172.834 148.098 173.295L147.777 173.242L147.663 172.962C148.49 172.376 149.213 171.942 150.078 171.422ZM173.194 171.098C173.829 170.903 173.582 170.922 174.245 171.074L174.385 171.319C172.579 171.651 171.576 171.816 169.872 172.482L169.525 172.619C169.081 173.01 169.088 173.008 168.557 173.263L168.499 172.815C169.864 171.377 171.273 171.369 173.194 171.098ZM373.845 171.947C373.185 172.442 372.27 172.495 371.428 172.633L371.51 172.279C372.22 171.693 372.905 171.718 373.84 171.592L373.845 171.947ZM156.012 169.69C156.25 169.743 156.102 169.689 156.403 169.955C155.884 170.745 154.999 171.168 154.178 171.674C153.974 171.618 154.119 171.672 153.825 171.366C154.135 170.77 155.38 170.096 156.012 169.69ZM305.59 158.238C306.262 159.359 307.093 159.721 307.875 160.666C309.947 163.166 309.695 167.199 306.982 169.147C303.812 171.424 298.13 170.783 294.52 170.174C290.58 169.621 289.945 165.698 292.52 163.074C294.775 163.118 296.973 160.285 299.062 159.169C299.682 158.838 301.727 159.384 302.522 159.54C303.077 159.161 302.962 159.233 303.27 158.635L304.795 158.247C304.932 158.221 305.427 158.237 305.59 158.238ZM218.323 169.738C217.529 170.308 217.063 170.321 216.078 170.533L215.88 170.613L215.875 170.247C216.674 169.633 216.98 169.685 218.028 169.549C218.126 169.612 218.225 169.675 218.323 169.738ZM262.237 166.179L262.138 166.551L259.22 167.959C259.137 167.87 259.167 167.723 259.152 167.604C259.955 166.826 260.995 166.448 262.027 165.969L262.237 166.179ZM402.548 161.547L402.61 161.869C401.67 163.291 400.705 165.158 400.412 166.843C400.332 167.289 400.41 167.068 399.982 167.46L399.55 167.477C399.44 166.041 401.332 162.596 402.412 161.455L402.548 161.547ZM378.485 165.696C377.415 166.333 377.087 166.286 375.805 166.442C375.505 166.359 375.193 166.191 374.9 166.057L375.008 165.852C375.995 165.745 376.88 165.688 377.872 165.636L378.314 165.473L378.485 165.696ZM276.253 157.315C276.855 157.945 275.807 157.772 276.037 158.968C276.737 159.19 279.15 160.033 279.478 160.541L278.767 161.338C278.109 162.065 277.56 162.627 276.673 163.414L276.315 163.435L276.168 163.085C275.558 162.434 274.713 161.918 273.998 161.349C274.391 160.243 275.381 158.113 276.253 157.315ZM232.286 158.491L232.437 158.723C231.857 159.562 230.757 160.319 229.929 160.974L229.581 160.83L229.55 160.446C230.425 159.805 231.287 159.146 232.134 158.469L232.286 158.491ZM388.428 158.516C387.938 159.315 386.378 159.986 385.393 160.571L385.396 159.926C386.181 159.182 387.388 158.728 388.397 158.259L388.428 158.516ZM187.179 155.393L187.318 155.673C186.51 156.583 185.727 157.516 184.969 158.468C184.872 158.566 184.716 158.582 184.587 158.63C184.546 157.78 186.136 156.021 186.723 155.342L187.179 155.393ZM148.571 157.37C150.124 157.097 150.726 157.057 152.035 157.937C150.882 157.919 149.642 157.799 148.571 157.37ZM395.607 153.38C394.482 153.999 392.962 153.152 391.732 154.457C391.415 154.795 391.427 154.743 390.947 154.921C390.285 155.184 389.425 155.634 388.78 155.503L388.91 155.148C390.383 154.084 391.597 153.463 393.435 153.373L395.607 153.38ZM272.75 154.388C273.788 154.148 274.82 154.188 275.79 154.63C274.815 154.759 273.463 155.068 272.75 154.388ZM168.398 154.137C169.712 153.936 170.821 153.616 171.816 154.672C170.784 154.547 169.685 154.558 168.641 154.539L168.398 154.137ZM175.346 149.239C176.058 149.214 177.331 149.122 177.929 149.518C176.936 149.867 176.186 149.505 175.272 150.043C174.358 150.375 173.848 150.663 172.91 150.587C173.315 150.015 174.634 149.555 175.346 149.239ZM279.963 149.844C281.068 149.741 281.505 149.647 282.58 149.827L282.622 150.202C281.397 150.45 280.798 150.806 279.963 149.844ZM259.17 149.571C260.36 149.621 262.082 149.373 262.822 149.904C261.632 150.294 260.578 150.489 259.365 150.09L259.17 149.571ZM392.485 148.73C392.148 149.344 391.385 149.414 390.553 149.697L390.383 149.44C390.95 148.802 391.31 148.848 392.242 148.513L392.485 148.73ZM177.968 149.542C177.956 149.533 177.942 149.526 177.929 149.518C178.008 149.49 178.09 149.458 178.173 149.42L177.968 149.542ZM272.685 144.137L272.872 144.474C271.88 146.228 270.424 146.964 268.577 147.567L267.95 147.463L268.037 147.148C270.057 146.44 271.267 146.137 272.09 144.083L272.685 144.137ZM340.38 143.379C341.667 143.257 342.38 143.195 343.702 143.242L343.939 143.618C342.757 143.904 341.515 143.821 340.38 143.379ZM332.367 142.172L332.285 142.54C331.268 142.839 330.675 143.058 329.697 143.469C329.607 143.38 329.613 143.228 329.583 143.105C330.408 142.459 331.237 142.332 332.26 142.048L332.367 142.172ZM132.646 140.855C132.67 141.495 131.384 142.64 130.811 143.279L130.606 142.751C130.994 141.829 131.668 141.342 132.414 140.647L132.646 140.855ZM115.849 139.067C117.1 138.994 117.443 138.741 118.277 139.678L118.158 140.276C117.411 140.837 117.813 140.681 116.925 140.809C116.216 141.013 115.993 141.112 115.237 141.111C114.449 140.634 114.655 140.958 114.449 140.208C114.888 139.455 115.07 139.436 115.849 139.067ZM319.223 138.237C319.235 138.902 317.95 140.252 317.452 140.858C317.425 140.624 317.445 140.233 317.45 139.984C317.943 139.023 318.305 138.886 319.223 138.237ZM312.335 138.495L312.195 138.897C311.018 139.555 309.295 139.731 307.82 140.227L307.59 140.306C307.468 140.352 307.33 140.288 307.203 140.269C307.406 138.966 310.045 139.751 312.005 138.133L312.335 138.495ZM338.811 138.382C339.506 138.092 340.688 138.138 341.405 138.363L341.375 138.781C340.708 138.893 339.303 138.86 338.811 138.382ZM358.226 137.517C359.635 137.578 360.977 137.66 362.39 137.56L362.62 137.542L362.8 137.817C360.985 138.518 359.735 138.883 358.226 137.517ZM200.751 136.435C201.651 135.963 204.531 136.179 205.49 136.619L205.379 136.944C204.868 137.05 204.586 137.103 204.084 137.247L204.032 137.45L202.549 137.511C201.854 137.218 201.117 137.037 200.751 136.435ZM222.91 136.56C224.568 135.679 227.101 135.337 228.335 137.032C228.023 137.068 227.112 137.195 226.851 137.191C225.643 136.785 224.096 136.832 222.788 136.784L222.91 136.56ZM217.412 133.534C216.98 134.084 216.971 134.042 216.8 134.71L217.284 135.373L217.016 135.55C216.429 135.071 216.382 134.967 215.646 134.738C214.406 135.13 213.846 135.239 212.556 135.441C212.313 135.551 211.967 135.621 211.697 135.693L211.586 135.459C213.495 132.982 214.056 134.002 216.786 133.558L217.229 133.482L217.412 133.534ZM211.413 131.53C211.066 132.195 210.61 132.306 209.872 132.78L209.669 132.439C209.985 131.762 210.394 131.731 211.2 131.272L211.413 131.53ZM206.883 131.305C207.417 131.279 207.264 131.294 207.807 131.46C207.043 132.157 204.6 132.551 203.561 132.646L202.913 132.705L202.725 132.514C204.107 131.924 205.425 131.655 206.883 131.305ZM195.689 130.347C196.458 130.241 196.354 130.101 196.815 130.368C195.633 130.883 194.597 131.053 193.343 131.327C192.697 131.46 192.694 131.51 192.065 131.363L192.116 131.058C193.378 130.524 194.344 130.492 195.689 130.347ZM129.664 127.319C130.193 127.539 131.042 128.555 131.483 129.018L131.457 129.66C130.598 129.574 129.796 129.616 129.173 129.067C129.012 128.125 129.095 128.38 129.664 127.319ZM231.364 127.296L231.391 127.604C229.919 128.577 228.932 129.562 227.281 128.974L226.723 128.606C228.791 127.906 228.444 128.341 231.108 127.222L231.364 127.296ZM348.385 127.385C349.61 127.199 349.873 127.141 351.088 127.313L351.075 127.592L350.308 127.882C349.04 127.778 348.328 127.754 347.061 127.799C347.438 127.484 347.845 127.491 348.385 127.385ZM183.841 122.612C184.368 122.626 187.226 122.815 187.496 122.907C187.159 123.513 185.877 124.061 185.146 124.475C183.913 124.504 182.97 124.375 181.753 124.243L181.555 123.612C181.988 123.149 183.128 122.875 183.841 122.612ZM141.681 122.612L141.622 122.964C140.612 123.515 140.326 123.489 139.153 123.658L138.941 123.655L138.846 123.443L141.335 122.504L141.681 122.612ZM129.8 121.385C130.945 120.902 134.74 121.318 136.021 121.687L136.027 122.233L135.686 122.341C133.724 121.751 130.336 121.913 129.8 121.385ZM315.375 117.597L312.59 118.749L312.305 118.556L312.468 118.207C313.478 117.663 314.155 117.579 315.265 117.333L315.375 117.597ZM356.708 113.222C357.06 113.652 357.2 113.799 357.61 114.154L357.97 114.463L357.995 114.821L357.397 115.049C356.66 115.397 356.66 115.434 355.812 115.528L355.49 115.244C355.483 114.389 355.917 113.865 356.362 113.107L356.708 113.222ZM239.513 113.268C238.676 113.767 238.164 113.713 237.159 113.797L237.142 113.612C237.521 113.093 238.868 113.004 239.687 112.836L239.513 113.268ZM264.36 112.596L264.26 112.937C263.125 113.52 262.86 113.503 261.565 113.708L261.19 113.581C262.143 113.158 262.98 112.851 263.952 112.493L264.36 112.596ZM244.43 112.493L244.127 112.97C243.232 113.508 242.191 113.405 241.102 113.443C240.873 113.169 240.823 113.061 240.639 112.756L241.059 112.525C242.374 112.698 242.99 112.909 244.204 112.401L244.43 112.493ZM213.85 109.566C213.701 110.368 213.113 110.844 212.541 111.474L212.329 111.222C212.434 110.475 213.102 109.822 213.605 109.205L213.85 109.566ZM254.463 107.412C255.37 107.493 256.17 107.489 256.99 107.863C256.273 108.39 255.75 108.258 254.728 108.347C253.9 108.981 253.715 109.213 252.737 109.464C252.837 108.876 253.953 107.935 254.463 107.412ZM214.896 106.448C215.219 106.447 215.048 106.407 215.385 106.657C214.58 107.898 213.45 108.298 212.082 108.662L211.536 108.697L211.473 108.447C212.958 107.796 213.703 107.553 214.896 106.448ZM179.204 106.302C179.394 106.456 179.31 106.345 179.347 106.697C178.125 107.286 176.668 107.744 175.312 107.576L175.086 107.23C176.627 106.874 177.538 106.76 179.204 106.302ZM262.255 104.653C262.49 104.752 262.34 104.67 262.635 104.993C262.407 105.676 261.543 106.297 260.958 106.808C260.693 106.675 260.838 106.78 260.603 106.403C261.187 105.649 261.555 105.316 262.255 104.653ZM213.34 102.676C213.995 103.014 214.588 103.187 215.262 103.557C214.546 103.781 214.376 103.587 213.519 103.385C212.999 103.851 212.588 104.375 211.94 104.411C212.176 103.602 212.705 103.259 213.34 102.676ZM267.442 100.472C266.85 101.06 265.608 101.562 264.811 101.942L264.133 101.767L264.186 101.508C265.098 101.089 266.007 100.661 266.912 100.225L267.293 100.219L267.442 100.472ZM192.313 100.84C192.562 100.821 192.429 100.796 192.691 100.994C192.199 101.5 191.741 101.585 191.073 101.818L190.693 101.696L190.637 101.424L192.313 100.84ZM131.814 96.8781C132.759 97.0246 133.721 97.1616 134.276 97.9611C134.21 101.869 130.891 100.326 129.645 101.037C128.779 101.455 128.25 101.803 127.354 101.566C127.531 100.459 130.45 98.4847 131.598 97.1379L131.814 96.8781ZM268.478 95.0715C269.602 95.1462 269.602 95.1788 270.439 95.9074C270.944 97.4 270.152 98.2687 268.817 98.9689C267.853 97.7501 267.107 98.1666 266.38 97.05C266.647 96.2063 267.678 95.6382 268.478 95.0715ZM130.648 95.0773C132.013 95.1228 133.379 95.1452 134.744 95.1447C132.69 95.7449 131.096 96.2183 129.091 97.0129C128.638 97.1681 126.561 98.4574 126.026 98.7824C127.52 96.5609 128.068 95.6733 130.648 95.0773ZM242.595 95.1379C242.214 95.8964 240.675 96.4828 239.749 96.9768L239.699 97.0324L239.479 97.0188L239.602 96.3977C240.266 95.7468 241.438 95.4125 242.344 95.0695L242.595 95.1379ZM228.383 92.4523C227.141 94.1768 226.392 94.8255 224.743 96.051C224.522 95.8279 224.616 95.9805 224.589 95.5344C225.652 94.5004 227.049 92.732 228.203 92.2365L228.383 92.4523ZM137.605 93.5481C137.163 94.3104 136.626 94.5522 135.882 95.0344C135.544 94.6109 135.648 94.8558 135.59 94.2883C136.251 93.8533 136.687 93.6275 137.395 93.2668L137.605 93.5481ZM134.311 88.1311C137.008 89.2647 135.282 91.0516 133.656 92.0529L133.276 91.8947L133.101 91.4846L132.948 91.7756C132.804 91.6987 132.66 91.621 132.516 91.5441C133.076 91.3905 133.045 91.3684 133.497 90.9875C133.58 89.6343 133.484 89.195 134.311 88.1311ZM211.171 89.802C212.432 90.1887 213.329 91.0063 214.364 91.8186C212.878 91.7343 211.822 91.1622 211.171 89.802ZM156.277 90.5969C155.73 91.181 155.148 91.2348 154.358 91.4484L153.974 91.2063L154.114 90.8957L156.012 90.2736L156.277 90.5969ZM214.611 86.5422C212.284 87.9201 211.166 89.6409 209.654 90.5637C209.284 90.1313 209.364 90.3764 209.38 89.8391C210.637 88.6173 212.723 86.5889 214.415 86.2658L214.611 86.5422ZM153.747 87.2658C154.251 87.2498 154.665 87.2683 155.169 87.2893L155.11 87.4943C153.756 87.944 153.39 88.0744 152.14 88.7775L151.861 88.9367C151.424 89.2729 151.581 89.1634 151.021 89.3273L150.899 89.0891C151.828 88.1175 152.549 87.8637 153.747 87.2658ZM199.093 83.2082C199.562 83.2022 199.465 83.2201 199.933 83.3576C199.621 83.9266 198.758 84.2274 198.079 84.5871L197.591 84.6359C197.876 83.9777 198.49 83.6504 199.093 83.2082ZM232.499 81.3303C231.36 82.016 229.859 82.427 228.849 83.2238C228.229 83.7126 228.019 83.8281 227.322 84.2238C226.839 84.4035 227.102 84.3688 226.527 84.2766C227.692 83.0103 229.6 81.4047 231.332 81.3332L232.243 81.133L232.499 81.3303ZM149.573 76.2785C149.77 77.4593 149.914 77.7573 149.562 78.8498L149.142 79.2922C148.061 79.3194 147.685 79.113 146.84 78.4162C146.387 78.4754 145.934 78.541 145.482 78.6125C146.969 77.6803 148.008 77.056 149.573 76.2785ZM164.19 75.883L164.071 76.3859C163.273 77.1332 162.382 77.3735 161.349 77.7795C161.164 77.6185 161.272 77.7373 161.119 77.3547C161.9 76.4807 162.871 76.0789 163.921 75.5217L164.19 75.883ZM178.825 75.0207C179.428 74.9385 179.386 74.9451 179.969 75.132L179.951 75.4406C179.183 76.138 178.852 76.1797 177.846 76.5451C177.534 76.4109 177.425 76.3144 177.142 76.1262L177.161 76.0617L177.232 76.1467L177.325 75.5451C177.567 75.267 178.372 75.1439 178.825 75.0207ZM177.161 76.0617L177.133 76.0285L177.306 75.5891L177.161 76.0617Z" fill="#EDC43E"/>
</g>
<defs>
<clipPath id="clip0_79_4098">
<rect width="480" height="480" fill="white"/>
</clipPath>
</defs>
</svg>
