<svg width="480" height="480" viewBox="0 0 480 480" fill="none" xmlns="http://www.w3.org/2000/svg">
<g clip-path="url(#clip0_79_10066)">
<path d="M238.525 86.5733C241.511 86.1511 242.672 86.8783 245.4 86.9786C249.18 87.1176 252.748 86.9508 256.55 87.3487C260.892 87.8032 264.415 88.9497 268.58 90.0157C270.045 90.3907 272.848 90.1399 274.398 90.4815C275.81 90.793 277.288 91.2617 278.726 91.6222C280.528 92.0733 283.453 92.2715 285.103 92.7979C288.948 94.0809 293.185 95.0176 297.01 96.2003C307.962 99.5875 320.07 102.44 328.683 110.452C329.94 111.622 331.725 112.706 333.013 113.843C334.975 115.58 339.01 117.181 340.825 118.856C345.595 123.253 350.063 128.232 354.215 133.208C355.822 135.225 358.638 141.627 360.436 144.139C362.013 146.559 364.132 154.587 362.75 157.155C359.24 163.666 354.023 172.58 347.33 175.938C346.503 175.659 345.643 175.292 344.828 174.966C343.006 176.954 341.57 177.483 338.795 177.846C334.168 178.278 328.757 178.763 324.13 178.369C320.268 178.04 318.41 177.177 314.26 177.657C310.315 177.989 306.155 176.423 302.5 176.02C296.665 175.376 293.185 174.303 287.753 172.515L277.325 169.148C275.983 168.701 274.555 168.383 273.191 167.968C265.148 165.518 259.16 161.359 252.558 156.35C250.53 174.894 242.614 189.192 230.374 202.625C228.128 205.091 226.067 208.651 223.825 211.303C221.39 213.869 214.21 219.67 211.208 222.155C193.811 236.839 173.48 247.64 151.574 253.837C147.422 254.994 144.052 256.642 139.474 256.02C133.826 255.127 127.099 250.095 124.986 244.729C124.203 242.738 124.71 240.687 123.024 238.965C122.835 238.773 122.507 232.461 122.348 231.266C121.454 224.531 120.535 217.512 120.616 210.707C120.689 207.929 121.933 204.111 121.966 201.46C122.029 196.332 121.938 193.649 123.785 188.824C124.555 186.814 124.455 181.576 125.491 179.369C127.349 175.414 128.586 171.719 129.679 167.485C129.915 166.502 130.497 164.713 130.886 163.824C135.167 154.037 141.339 145.059 147.788 136.583C149.414 134.448 151.002 132.213 152.723 130.149C158.207 124.183 163.882 118.718 169.954 113.371C171.115 112.28 172.938 111.819 174.215 111.006C178.369 108.36 182.136 104.898 186.055 101.95C190.694 98.4607 195.817 96.1101 201.097 93.7979C204.386 92.7619 210.243 89.7905 213.547 89.3477C218.365 88.7018 218.132 89.5544 223.148 87.3477C227.798 88.2344 233.906 87.53 238.525 86.5733ZM127.849 231.652C126.794 232.289 125.776 233.153 125.435 234.382L125.637 234.696L126.199 234.707C126.744 234.083 128.172 232.663 128.47 232.055L127.849 231.652ZM212.459 162.72C211.024 164.426 211.132 165.184 208.983 165.891C209.002 166.302 208.922 166.154 209.121 166.377C211.168 166.126 211.7 164.923 212.666 163.108L212.459 162.72ZM277.71 124.164C276.708 124.876 275.198 125.956 274.643 127.047C274.96 127.336 274.805 127.263 275.063 127.35C275.582 126.826 277.984 124.665 278.048 124.295L277.71 124.164ZM290.95 121.061C289.493 121.612 288.347 121.975 287.05 122.847L286.858 123.278L287.125 123.551C288.023 122.982 290.668 121.662 291.088 121.122L290.95 121.061ZM327.056 118.36C326.436 119.036 325.463 119.928 325.228 120.757L325.49 120.936L325.777 120.88C326.275 120.2 327.245 119.151 327.263 118.469L327.056 118.36ZM290.433 113.422C289.565 113.143 289.45 113.199 288.575 113.332L287.733 113.879L287.74 114.11C288.508 114.096 288.483 114.077 289.218 113.819L290.298 113.694L290.433 113.422ZM306.441 108.217C304.061 110.435 302.32 111.296 300.388 112.941C300.585 113.303 300.51 113.222 300.62 113.313C302.52 112.268 305.533 110.479 306.643 108.591L306.441 108.217Z" fill="#97918A"/>
<path d="M176.005 215.491C174.298 215.304 172.749 215.553 171.63 214.131C170.762 209.667 174.535 186.751 175.052 180.955C175.465 177.452 175.662 173.92 176.041 170.414C176.194 168.998 177.807 165.299 176.999 164.196C176.131 164.952 169.841 176.155 169.209 178.054C167.617 182.839 165.461 186.913 163.488 191.509C159.529 200.728 157.588 211.226 152.369 219.846C151.917 220.592 150.328 220.505 149.634 220.455C149.121 219.838 149.195 219.431 149.24 218.627C149.521 213.583 152.712 206.553 154.484 201.662C159.984 186.481 164.975 171.792 173.698 158.065C175.198 155.705 176.652 152.994 178.77 151.119C179.772 150.233 181.466 148.846 182.912 149.076C183.7 149.201 184.42 149.768 184.876 150.413C187.211 153.711 182.638 181.063 181.866 186.279L182.818 187.251C185.282 181.46 188.945 175.052 192.508 169.86C193.686 168.144 195.896 165.905 197.431 163.8C198.58 163.531 200.001 163.094 201.081 163.59C208.031 166.784 204.161 179.354 206.344 184.195L207.394 186.518C210.6 183.428 214.1 175.778 216.9 171.993C218.178 170.265 219.346 166.334 220.577 164.534C223.11 160.829 227.124 152.562 230.641 150.214C231.455 150.23 231.1 150.099 231.73 150.653C232.151 152.133 230.709 156.408 230.155 158.196C228.454 163.066 226.739 168.259 224.709 173.001C222.925 176.359 220.949 179.316 219.381 182.789C217.323 187.349 210.058 198.079 205.95 200.445L202.652 200.5C198.116 195.851 197.978 185.686 196.593 179.059C195.722 180.776 194.345 182.381 193.302 184.025C187.794 192.707 185.04 202.665 180.285 211.677C179.707 212.773 177.099 214.645 176.005 215.491Z" fill="#4B4746"/>
<path d="M352.343 300.085C355.835 299.815 357.49 301.588 359.737 304.04C360.782 308.243 359.885 310.053 360.038 313.883C360.503 325.47 359.72 332.568 356.008 343.505C353.113 352.04 353.633 351.358 349.098 359.375C356.698 363.055 359.645 370.728 357.123 378.668C361.648 378.303 366.08 380.36 370.605 381.375C372.175 382.008 376.922 383.17 377.402 384.853C378.08 387.388 375.843 392.933 374.03 394.633C366.213 401.97 356.743 406.915 348.195 413.303C344.678 415.933 339.45 418.235 335.62 420.527C333.895 421.56 329.456 422.982 327.458 422.438C325.57 421.85 325.971 418.55 326.033 417.093C326.281 411.285 329.472 406.933 331.817 401.833C332.175 401.071 332.605 400.37 332.578 399.55C329.581 398.425 326.653 397.275 323.575 396.383C321.113 393.508 319.495 389.797 317.88 386.375C316.98 386.043 316.082 385.703 315.187 385.355C315.123 385.383 315.058 385.408 314.993 385.433L314.668 385.55C311.845 386.595 304.19 387.227 301.605 385.787C296.018 382.672 290.977 378.243 284.87 375.73C282.022 374.558 281.255 374.828 278.352 374.535C276.075 374.308 275.595 373.613 272.947 374.575C272.647 374.672 271.83 374.152 271.767 373.81C270.7 368.067 271.648 361.572 272.06 355.747C272.323 353.742 272.958 351.782 273.553 349.907C275.205 344.71 278.527 347.695 282.487 346.607C286.285 345.567 290.67 345.202 294.402 344.045C299.135 342.575 303.84 340.86 308.277 338.668C313.28 336.593 316.86 335.26 321.215 331.782C324.42 329.227 328.057 327.54 331.04 324.44C336.13 319.148 340.616 313.312 345.368 307.715C346.936 305.887 350.348 301.01 352.343 300.085ZM162.839 307.685C164.275 307.575 167.276 310.655 168.218 311.812C173.077 317.782 178.093 321.103 184.037 325.553C193.308 332.495 201.903 340.327 213.039 344.43C215.632 345.385 221.885 346.858 223.513 348.66C223.789 349.81 223.692 350.348 223.676 351.535C223.615 354.64 223.732 357.748 224.027 360.843C224.241 363.028 224.864 367.641 224.73 369.628C223.253 371.89 221.33 369.421 219.907 369.793C218.733 370.098 214.812 374.41 213.632 374.58C206.531 375.585 199.15 376.027 191.99 376.647C190.113 376.81 183.816 375.072 182.157 374.26C179.749 382.202 181.089 384.32 174.038 391.173C168.335 396.715 164.896 396.027 157.19 395.957L156.407 396.08C155.907 396.683 155.93 397.495 155.844 398.245C155.478 401.423 151.49 411.959 149.348 414.447C148.078 415.922 146.373 416.32 144.478 416.407C143.679 416.445 142.844 416.38 142.108 416.04C140.35 415.23 133.064 409.598 131.484 408.183C128.484 405.5 114.088 390.337 114.275 386.64C114.393 384.32 116.359 380.385 117.976 378.742C120.457 376.225 125.125 374.735 128.589 374.503C129.946 374.413 131.309 374.6 132.668 374.562C133.978 374.525 134.42 373.668 134.767 372.503C135.382 370.443 135.415 368.048 135.754 365.91C136.953 358.338 139.573 354.9 144.627 349.41C142.777 346.273 141.732 334.807 142.641 331.317C143.401 328.405 144.731 325.337 145.493 321.635C147.798 319.795 150.894 318.843 153.474 316.44C155.924 314.16 160.094 309.13 162.839 307.685ZM348.239 409.949H348.24H348.239ZM346.402 400.407H346.403H346.402ZM352.26 399.562H352.261H352.26ZM357.822 395.772H357.823H357.822ZM358.957 393.397C358.847 393.535 358.741 393.674 358.642 393.817C358.741 393.674 358.847 393.535 358.957 393.397ZM158.175 386.464H158.174H158.175ZM164.265 382.833V382.832L164.108 382.785L164.265 382.833ZM210.455 357.77L210.456 357.771L210.455 357.77ZM128.47 232.055C128.172 232.663 126.744 234.084 126.199 234.708L125.637 234.696L125.434 234.382C125.776 233.153 126.794 232.29 127.848 231.653L128.47 232.055ZM182.818 187.251C182.581 188.577 181.689 190.447 181.103 191.64C181.316 189.805 181.573 188.103 181.866 186.278L182.818 187.251ZM212.667 163.107C211.7 164.923 211.168 166.126 209.121 166.378C208.921 166.154 209.002 166.302 208.982 165.891C211.131 165.184 211.024 164.427 212.46 162.721L212.667 163.107ZM278.048 124.295C277.985 124.664 275.582 126.826 275.062 127.35C274.806 127.263 274.96 127.335 274.642 127.047C275.197 125.956 276.707 124.876 277.71 124.164L278.048 124.295ZM291.088 121.122C290.668 121.662 288.022 122.983 287.125 123.552L286.857 123.279L287.05 122.847C288.347 121.975 289.493 121.612 290.95 121.061L291.088 121.122ZM327.263 118.469C327.245 119.15 326.275 120.199 325.777 120.88L325.49 120.937L325.227 120.757C325.462 119.928 326.436 119.036 327.056 118.36L327.263 118.469ZM288.575 113.333C289.45 113.2 289.565 113.143 290.432 113.422L290.298 113.695L289.218 113.82C288.483 114.078 288.508 114.097 287.74 114.111L287.732 113.879L288.575 113.333ZM306.642 108.591C305.532 110.479 302.52 112.268 300.62 113.312C300.51 113.222 300.585 113.303 300.388 112.941C302.32 111.296 304.06 110.435 306.44 108.217L306.642 108.591Z" fill="#97918A"/>
</g>
<defs>
<clipPath id="clip0_79_10066">
<rect width="480" height="480" fill="white"/>
</clipPath>
</defs>
</svg>
