<svg width="480" height="480" viewBox="0 0 480 480" fill="none" xmlns="http://www.w3.org/2000/svg">
<g clip-path="url(#clip0_64_2058)">
<path d="M124.198 216.287C123.103 213.933 122.05 211.454 121.444 208.924C120.644 205.584 121.27 203.41 121.324 200.115C121.337 199.278 121.05 198.344 120.961 197.501C120.652 194.582 120.453 191.466 120.66 188.54C121.53 176.226 125.72 163.994 129.86 152.459C130.876 149.63 131.645 146.712 132.868 143.959C134.023 141.357 135.447 138.814 136.92 136.378C141.388 128.991 146.452 121.674 152.117 115.156C160.894 105.056 182.03 86.6281 194.014 81.5853C197.632 80.0628 202.294 78.4633 206.209 78.0186C207.695 77.8498 209.17 78.1321 210.656 77.8361C213.649 77.2396 216.542 75.9901 219.521 75.2883C224.106 74.2076 229.054 74.2253 233.735 73.8406C241.925 73.1673 250.235 72.2206 258.465 72.3718C267.585 72.5393 296.33 75.9486 303.69 80.4361C304.657 82.7536 303.015 82.5928 301.507 84.1746L301.497 84.5976C302.995 85.4758 303.747 86.0761 305.502 85.7831C307.32 83.9553 305.567 82.7621 306.415 81.6656L307.6 81.7998C313.135 85.0041 320.18 88.0713 325.262 91.6943C330.5 95.4271 338.787 102.463 341.772 108.1C346.03 110.44 348.07 114.984 350.357 119.141C351.165 120.612 351.71 123.605 352.53 124.955C354.99 129.006 356.347 130.001 356.83 134.813C362.802 141.24 364.64 152.917 366.385 161.256C367.45 166.339 369.627 170.149 369.032 175.754C368.93 176.712 369.315 178.572 368.772 179.456C367.825 181.004 369.057 181.889 369.342 183.335C369.34 188.354 369.372 193.716 367.8 198.536C367.29 200.454 366.025 203.266 365.68 205.127C364.567 211.103 366.332 215.997 358.375 216.389C355.225 216.545 351.487 216.988 348.15 216.619C346.41 216.427 343.805 215.951 341.987 215.747C337.055 217.052 332.48 215.691 327.592 214.737C317.352 213.61 306.74 213.287 296.477 212.344C289.697 211.49 284.462 210.288 277.575 210.87C270.182 211.494 261.772 210.45 254.257 210.961C252.355 211.091 249.848 210.387 247.874 210.581C243.071 211.052 238.29 211.398 233.503 211.986C229.371 212.613 226.227 213.155 222.036 212.703C217.943 212.262 218.941 211.718 215.86 210.326C215.658 210.371 215.457 210.413 215.254 210.453C208.88 211.67 214.769 184.306 215.935 180.817C216.416 179.381 216.264 176.157 216.702 174.424C217.637 170.723 218.569 167.942 218.625 164.089C217.214 166.626 216.213 169.678 214.884 172.32C210.546 180.932 205.848 189.393 201.652 198.059C199.144 203.239 197.781 208.532 193.823 212.794C189.277 214.193 187.249 213.229 183.122 213.54C176.775 214.018 168.625 217.724 169.711 206.97C169.926 204.834 169.98 202.324 170.401 200.17C170.827 197.987 171.785 195.773 172.13 193.548C172.628 188.549 173.053 184.594 174.587 179.761C173.346 181.449 171.795 183.161 170.652 184.896C168.663 187.916 166.906 191.259 164.925 194.275C162.422 198.084 159.748 202.052 157.496 206.016C155.854 208.907 154.684 212.592 152.938 215.592L152.768 215.88C148.248 218.439 136.928 216.622 131.537 216.628C129.779 216.63 127.836 217.151 126.084 217.4C125.396 217.072 124.839 216.694 124.198 216.287ZM342.582 213.764C343.417 213.997 343.06 214.066 343.707 213.707C344.215 212.653 344.485 212.037 343.882 210.923C343.307 210.758 343.325 210.74 342.732 210.767C341.845 210.986 340.967 211.09 340.322 211.709C340.412 212.791 341.67 213.245 342.582 213.764ZM288.442 206.851L288.277 207.087C287.58 208.065 287.26 208.414 286.415 209.261L286.292 209.762C286.845 209.974 286.615 209.919 287.252 209.843C289.477 208.602 288.057 208.578 289.52 207.383C290.572 206.522 292.132 207.899 293.337 206.237L292.967 206.169C291.162 206.225 290.2 206.316 288.442 206.851ZM187.749 133.871C188.76 133.52 189.566 133.252 190.309 132.502C189.659 132.396 189.13 132.679 188.491 132.91C187.069 132.353 185.729 131.84 184.758 133.269C184.728 134.365 184.606 133.858 185.18 134.833C186.182 135.435 187.086 134.741 187.749 133.871ZM144.437 164.847C145.888 165.45 144.109 165.734 145.593 165.707C146.303 164.366 146.995 163.005 147.83 161.738C147.542 161.401 147.709 161.506 147.358 161.379C146.859 161.974 146.431 162.479 145.858 163.024C145.278 163.577 143.113 164.338 143.001 164.926C143.48 164.904 143.959 164.888 144.437 164.847ZM282.642 92.8526L282.785 92.6108C279.9 92.7446 277.522 92.2588 274.77 92.6321L274.915 93.2273C276.657 93.6156 280.802 93.4996 282.642 92.8526ZM352.247 171.688C351.637 172.119 351.77 172.084 351.352 172.585C350.397 173.729 348.895 174.877 347.72 175.83C351.495 174.137 350.887 173.657 353.257 172.188C354.177 171.766 356.012 170.591 356.99 170.026L357.002 169.52L357.175 169.873L357.405 169.576C356.082 169.266 353.397 171.006 352.247 171.688ZM352.742 136.852C353.627 136.223 355.237 135.202 355.822 134.384L355.842 133.866C355.597 133.618 355.617 133.562 355.33 133.46C354.225 134.307 352.958 135.305 352.39 136.605L352.742 136.852ZM235.889 111.282C237.372 110.624 240.106 109.521 241.155 108.315L241.011 108.05L240.729 108.003C239.768 108.557 235.868 110.525 235.551 111.11L235.889 111.282ZM352.702 193.863C354.315 193.016 358.182 191.591 356.825 189.41C356.115 191.357 354.297 192.46 352.6 193.498L352.562 193.797L352.702 193.863ZM291.642 195.277C292.422 194.412 292.802 194.149 293.897 194.01C295.08 194.364 296.25 193.777 297.092 192.972C296.5 192.88 295.122 193.411 294.212 193.495L293.96 193.516C292.262 193.355 291.46 193.717 290.575 195.213C289.942 198.239 288.09 196.626 286.68 197.972L286.872 198.222C288.915 198.465 290.932 197.215 291.642 195.277ZM239.511 90.0071C238.48 92.1023 238.583 92.7491 236.839 94.0803L236.895 94.3458C237.518 94.1813 237.961 94.0896 238.548 93.8063L239.827 90.5298C240.674 89.5166 242.138 87.6823 242.311 86.4133L241.997 86.3631C240.796 87.4296 240.231 88.5728 239.511 90.0071ZM240.155 152.973L240.104 152.604C238.925 152.343 237.878 152.148 236.744 151.721C237.196 152.498 237.267 152.748 238.038 153.233C238.983 153.432 239.191 153.281 240.155 152.973ZM306.822 205.042C307.807 204.696 308.482 204.528 309.337 203.907C308.81 203.602 309.085 203.723 308.33 203.777C307.435 204.022 306.357 204.228 305.62 204.75C306.002 205.123 306.12 204.996 306.822 205.042ZM296.232 86.0548C295.22 86.4053 290.112 88.1023 289.532 88.6248L289.462 88.9446C290.6 88.6363 296.107 87.1048 296.232 86.0548ZM302.03 199.253C301.46 199.909 299.722 201.657 299.692 202.26L299.94 202.329C300.927 201.467 301.572 200.995 302.26 199.856C302.225 199.369 302.32 199.562 302.03 199.253ZM198.587 143.888C199.271 143.53 200.283 143.136 200.671 142.57C200.131 142.389 200.325 142.42 199.722 142.45C198.833 142.904 198.448 143.011 197.837 143.76L197.956 144.015L198.587 143.888ZM354.447 162.825C355.077 162.202 355.965 161.495 356.182 160.684C355.87 160.486 355.887 160.455 355.542 160.353C354.997 161.169 354.51 161.867 353.92 162.649L354.105 162.885L354.447 162.825ZM145.613 154.464C146.449 154.118 148.368 153.511 148.717 152.881L148.276 152.723C147.256 153.134 146.266 153.442 145.415 154.118L145.358 154.424L145.613 154.464ZM201.938 159.738C202.697 159.754 203.415 159.876 204.04 159.511C203.198 159.09 202.47 159.137 201.522 159.08C200.781 159.166 200.144 159.141 199.574 159.581C200.439 159.918 200.981 159.793 201.938 159.738ZM295.615 102.769C294.895 103.049 293.855 103.282 293.58 103.824L293.91 103.946C294.585 103.69 295.592 103.409 296.017 102.895L295.615 102.769ZM255.305 78.4618C256.532 77.2221 256.755 76.3626 257.207 74.7376C257.062 74.2218 257.197 74.3973 256.91 74.1431C256.165 75.1031 255.262 76.9376 255.002 78.1261L255.305 78.4618ZM302.86 132.9L304.41 132.511L304.54 132.269L303.835 132.049C303.147 132.143 302.31 132.151 301.81 132.558C302.407 132.91 302.167 132.819 302.86 132.9ZM355.212 151.9C356.24 151.856 357.45 151.23 358.397 150.798C357.455 150.749 354.472 151.21 352.9 151.255C352.087 151.849 352.062 151.672 351.755 152.455C352.71 152.801 354.167 152.106 355.212 151.9ZM188.504 177.518C187.124 178.294 186.205 178.74 185.044 179.823L184.985 180.233L185.174 180.413C186.321 179.646 187.628 178.864 188.588 177.898L188.504 177.518ZM222.645 112.316L222.302 112.841C222.964 113.133 223.631 112.905 224.449 112.8L224.944 112.435C224.433 112.076 223.336 112.242 222.645 112.316ZM196.956 131.315C197.712 130.719 198.882 129.934 199.305 129.134L198.906 128.946C198.059 129.619 197.239 130.161 196.646 131.05C196.875 131.316 196.749 131.263 196.956 131.315ZM236.173 203.219C235.344 204.035 234.947 204.306 234.52 205.376C234.608 205.515 234.738 205.753 234.847 205.854C235.452 205.093 236.079 204.445 236.38 203.539L236.173 203.219ZM263.312 103.145C264.147 102.848 265.32 102.545 265.905 101.943C265.452 101.689 265.677 101.748 265.245 101.712C264.135 102.142 263.747 102.224 262.837 102.944L262.947 103.201L263.312 103.145ZM309.507 96.7858C308.555 97.2116 306.335 97.9886 305.85 98.5726L306.075 99.0193C307.06 98.6288 309.237 97.8723 309.662 96.9751L309.507 96.7858ZM199.864 165.809C198.69 166.168 197.138 166.55 196.129 167.176L196.271 167.323L196.348 167.298C197.509 167.206 199.321 166.99 200.215 166.202L200.18 165.855L199.864 165.809ZM252.242 119.898C251.357 121.246 250.462 122.233 250.357 123.784L250.487 123.734C251.345 122.526 252.06 121.509 252.83 120.238L252.68 119.965L252.242 119.898ZM281.252 108.645C279.415 108.882 278.51 108.933 276.657 108.931C276.63 109.261 276.577 109.143 276.7 109.316C278.357 109.866 279.32 109.748 280.932 109.089C281.072 108.926 281.24 108.796 281.252 108.645ZM214.32 101.192C212.867 102.155 211.923 102.751 210.627 103.92L210.538 104.37L210.884 104.428C211.858 103.697 213.922 102.252 214.606 101.399L214.32 101.192ZM237.454 154.214C236.656 155.034 234.54 156.777 234.637 157.802C236.144 157.004 237.268 156.027 237.454 154.214ZM150.859 142.425C149.662 143.154 148.471 143.772 147.511 144.776L147.497 145.193L147.876 145.321C149.007 144.407 149.921 143.709 151.114 142.878L151.129 142.501L150.859 142.425ZM307.71 101.421C306.44 102.375 303.152 103.89 302.925 104.37L303.322 104.394C305 103.746 306.965 103.017 308.267 101.742L308.202 101.451L307.71 101.421ZM270.052 88.1846C269.017 88.6346 264.965 90.0063 264.657 90.3546L265.057 90.3271C266.99 90.1918 268.642 89.6926 270.32 88.6896L270.52 88.3368L270.052 88.1846Z" fill="#E88033"/>
<path d="M258.71 121.393C258.845 121.444 258.983 121.492 259.12 121.546C259.688 121.773 260 122.076 260.225 122.659C261.815 126.775 257.163 143.2 255.803 147.906C255.263 149.77 254.508 151.566 253.99 153.429C253.488 155.232 253.313 157.124 252.88 158.946C252.295 161.417 251.48 163.822 250.878 166.285C249.883 170.352 249.567 176.576 247.864 180.086L247.656 180.51C248.199 181.901 248.386 182.584 248.463 184.064L248.882 184.363C250.133 183.974 252.203 180.523 252.86 179.354C261.255 164.395 268.685 148.063 279.868 134.941C281.838 132.629 286.683 127.332 289.98 129.375C294.788 132.353 292.623 140.927 293.708 145.519C294.09 147.134 294.283 147.213 293.568 148.741C293.538 150.656 293.955 153.119 293.955 155.153C293.953 160.517 294.188 165.906 294.275 171.257C295.443 172.737 296.115 174.282 296.86 175.995C299.925 172.391 299.66 169.666 301.708 165.139C304.953 157.961 308.545 143.24 316.8 140.57C321.418 139.076 323.7 150.189 324.8 153.343C327.49 161.065 329.375 171.329 335.855 177.074C336.27 177.444 336.013 177.005 336.243 177.67L335.478 178.498L335.57 178.817C336.633 179.005 336.82 179.024 337.795 179.446C339.525 181.512 337.66 183.531 336.248 185.208C335.048 186.633 334.378 186.495 332.615 186.556C325.735 186.307 322.36 176.948 321.74 171.265C321.31 170.992 320.883 170.713 320.463 170.427C319.818 169.987 318.97 169.44 318.823 168.66C319.078 168.363 319.885 167.425 319.738 167.025C318.605 163.96 318.135 161.594 317.713 158.392C315.868 156.861 315.653 156.024 314.555 153.954C312.968 154.485 313.15 156.035 312.44 157.372C311.705 158.704 310.823 159.913 310.22 161.324C307.88 166.784 306.255 172.077 304.593 177.755C302.873 183.636 299.49 187.402 293.968 190.035C291.91 188.055 290.543 187.223 288.145 185.705C288.718 182.93 289.455 182.062 287.075 180.157L286.813 179.95C286.498 177.953 287.108 175.842 286.973 173.818C286.765 170.634 284.73 159.6 286.22 157.29C287.13 155.878 285.848 155.673 285.773 154.189C285.593 150.627 286.7 146.472 285.965 143.006C285.82 142.324 285.67 142.113 285.1 141.734C278.868 141.458 266.023 169.674 262.613 175.064C257.855 182.588 254.075 191.432 246.001 195.632C241.928 194.009 242.554 192.515 240.833 189.021C241.625 179.109 243.849 171.456 246.107 161.9C246.658 159.569 247.794 157.031 248.289 154.719C249.781 147.461 251.583 140.352 253.615 133.234C255.055 128.192 254.78 125.436 258.71 121.393Z" fill="#4B4746"/>
<path fill-rule="evenodd" clip-rule="evenodd" d="M123.768 297.975C123.872 297.99 123.978 297.993 124.08 298.018C125.774 298.41 126.813 298.427 128.576 298.332C131.646 298.167 136.214 311.925 137.302 314.378C138.319 316.67 139.519 319.056 140.774 321.23C141.543 322.56 142.811 323.75 143.905 324.82C145.781 326.655 147.923 328.405 149.592 330.425C152.969 334.515 153.935 337.223 158.446 340.562C162.32 343.43 166.425 345.592 170.488 348.145C173.743 350.19 176.918 352.532 180.286 354.367C183.768 356.237 187.269 358.07 190.788 359.865C193.596 361.278 197.842 362.907 200.015 364.912C200.884 368.085 201.07 371.405 200.561 374.655C187.334 382.448 179.77 398.605 171.518 410.843C169.936 413.188 168.512 415.275 166.312 417.025C163.972 418.887 160.196 416.61 157.921 415.883C154.751 414.873 151.835 413.58 148.645 413.032L148.308 412.978C148.204 412.96 148.1 412.945 147.997 412.925C146.874 412.727 145.817 411.9 144.675 411.6C139.735 410.305 134.691 409.2 129.723 407.982C128.772 407.75 126.74 407.455 126.032 406.775C124.736 405.525 129.513 383.018 127.656 380.393L127.125 380.362C126.06 381.233 116.635 402.107 115.351 404.657C113.003 403.59 109.923 403.812 107.346 403.282C104.628 402.7 102.034 402.125 99.2822 401.715C97.6174 401.47 94.3892 402.247 93.6122 401.165C93.3445 397.5 95.2799 385.825 94.7294 381.332C94.8872 382.62 97.0574 369.665 96.8466 370.495C99.6401 359.5 101.495 348.01 105.566 337.435C108.39 330.194 118.467 301.572 123.768 297.975ZM146.854 391.777C146.498 391.889 146.165 392.003 145.88 392.119V392.12C145.975 392.081 146.075 392.042 146.18 392.004C146.389 391.927 146.617 391.852 146.854 391.777ZM150.325 390.81V390.811V390.81ZM186.459 376.239H186.46H186.459ZM120.324 346.298C120.009 346.543 119.694 346.778 119.379 346.995C119.694 346.778 120.009 346.543 120.324 346.298ZM127.243 341.82H127.244H127.243ZM342.732 210.768C343.325 210.74 343.308 210.757 343.883 210.923C344.485 212.037 344.215 212.653 343.708 213.706C343.061 214.066 343.418 213.997 342.583 213.764C341.671 213.244 340.412 212.791 340.322 211.709C340.967 211.091 341.845 210.986 342.732 210.768ZM293.338 206.236C292.133 207.898 290.573 206.522 289.52 207.383C288.058 208.579 289.477 208.601 287.253 209.843C286.615 209.919 286.845 209.974 286.293 209.762L286.415 209.261C287.26 208.414 287.58 208.065 288.277 207.087L288.442 206.852C290.2 206.316 291.163 206.226 292.968 206.169L293.338 206.236ZM236.381 203.539C236.079 204.445 235.452 205.093 234.848 205.854C234.739 205.753 234.608 205.515 234.52 205.376C234.947 204.306 235.345 204.035 236.174 203.219L236.381 203.539ZM308.33 203.776C309.085 203.723 308.81 203.602 309.338 203.907C308.483 204.528 307.808 204.697 306.823 205.042C306.121 204.996 306.003 205.123 305.62 204.749C306.358 204.227 307.435 204.021 308.33 203.776ZM302.03 199.253C302.32 199.561 302.225 199.369 302.26 199.855C301.572 200.995 300.928 201.467 299.94 202.329L299.692 202.26C299.723 201.657 301.46 199.909 302.03 199.253ZM297.093 192.973C296.25 193.777 295.08 194.363 293.897 194.01V194.011C292.803 194.15 292.422 194.412 291.643 195.276C290.933 197.214 288.915 198.465 286.873 198.223L286.68 197.972C288.09 196.625 289.943 198.239 290.575 195.213C291.46 193.717 292.263 193.355 293.96 193.516L294.213 193.495C295.123 193.411 296.5 192.88 297.093 192.973ZM356.825 189.409C358.183 191.59 354.316 193.017 352.703 193.863L352.562 193.797L352.601 193.498C354.298 192.46 356.115 191.357 356.825 189.409ZM188.588 177.898C187.628 178.864 186.321 179.646 185.174 180.413L184.985 180.232L185.045 179.823C186.206 178.74 187.125 178.294 188.505 177.518L188.588 177.898ZM356.99 170.025C356.013 170.591 354.178 171.766 353.258 172.188C350.888 173.658 351.495 174.136 347.72 175.83C348.895 174.876 350.397 173.728 351.352 172.585C351.77 172.084 351.638 172.118 352.248 171.688C353.291 171.069 355.595 169.581 357.002 169.54L356.99 170.025ZM357.012 169.54C357.153 169.537 357.285 169.548 357.405 169.576L357.175 169.873L357.012 169.54ZM357.012 169.54C357.008 169.54 357.005 169.54 357.002 169.54L357.003 169.521L357.012 169.54ZM200.181 165.855L200.215 166.202C199.321 166.99 197.509 167.206 196.349 167.298L196.271 167.322L196.129 167.176C197.138 166.55 198.69 166.168 199.864 165.809L200.181 165.855ZM147.358 161.379C147.71 161.505 147.543 161.401 147.831 161.737C146.995 163.005 146.303 164.366 145.593 165.707C144.109 165.734 145.888 165.451 144.437 164.848C143.96 164.888 143.48 164.904 143.001 164.926C143.113 164.338 145.278 163.577 145.858 163.024C146.431 162.479 146.86 161.974 147.358 161.379ZM355.543 160.354C355.887 160.455 355.87 160.486 356.183 160.684C355.965 161.494 355.077 162.202 354.447 162.825L354.105 162.886L353.92 162.649C354.51 161.867 354.998 161.169 355.543 160.354ZM201.522 159.08C202.47 159.136 203.198 159.09 204.04 159.511C203.415 159.876 202.698 159.754 201.938 159.737C200.982 159.793 200.439 159.918 199.574 159.581C200.145 159.141 200.781 159.166 201.522 159.08ZM237.455 154.214C237.268 156.027 236.145 157.004 234.638 157.802C234.541 156.776 236.657 155.034 237.455 154.214ZM148.717 152.881C148.368 153.511 146.449 154.117 145.613 154.464L145.357 154.424L145.415 154.118C146.266 153.443 147.257 153.134 148.276 152.724L148.717 152.881ZM236.744 151.721C237.878 152.148 238.926 152.342 240.104 152.604L240.155 152.973C239.192 153.281 238.983 153.432 238.038 153.232C237.267 152.747 237.197 152.498 236.744 151.721ZM358.397 150.798C357.45 151.23 356.24 151.856 355.213 151.9C354.168 152.106 352.71 152.8 351.755 152.455C352.062 151.671 352.088 151.849 352.9 151.255C354.473 151.21 357.455 150.749 358.397 150.798ZM151.13 142.501L151.114 142.878C149.922 143.708 149.008 144.407 147.877 145.321L147.497 145.192L147.512 144.775C148.472 143.772 149.663 143.154 150.859 142.425L151.13 142.501ZM199.722 142.45C200.325 142.42 200.131 142.388 200.671 142.569C200.283 143.136 199.271 143.53 198.587 143.889L197.956 144.015L197.837 143.76C198.448 143.011 198.833 142.905 199.722 142.45ZM355.33 133.46C355.618 133.562 355.598 133.618 355.843 133.866L355.823 134.384C355.238 135.202 353.628 136.223 352.743 136.853L352.391 136.605C352.958 135.305 354.225 134.307 355.33 133.46ZM184.758 133.269C185.729 131.84 187.069 132.353 188.491 132.91C189.131 132.679 189.66 132.396 190.31 132.502C189.566 133.252 188.76 133.521 187.749 133.871C187.087 134.741 186.181 135.434 185.18 134.833C184.606 133.858 184.728 134.365 184.758 133.269ZM187.99 133.448H187.991H187.99ZM304.54 132.269L304.41 132.511L302.86 132.899C302.168 132.819 302.408 132.909 301.81 132.558C302.31 132.151 303.148 132.143 303.835 132.05L304.54 132.269ZM199.305 129.134C198.881 129.934 197.712 130.719 196.956 131.314C196.75 131.263 196.875 131.316 196.646 131.05C197.239 130.16 198.06 129.619 198.906 128.946L199.305 129.134ZM252.68 119.965L252.83 120.237C252.06 121.508 251.345 122.526 250.487 123.734L250.357 123.784C250.462 122.233 251.357 121.246 252.242 119.897L252.68 119.965ZM222.645 112.315C223.337 112.241 224.434 112.076 224.944 112.436L224.449 112.8C223.631 112.906 222.964 113.133 222.303 112.841L222.645 112.315ZM241.011 108.05L241.155 108.314C240.106 109.521 237.373 110.623 235.89 111.281L235.552 111.109C235.87 110.524 239.769 108.556 240.729 108.003L241.011 108.05ZM281.253 108.646C281.24 108.797 281.072 108.926 280.933 109.089C279.32 109.748 278.358 109.866 276.7 109.316C276.578 109.143 276.631 109.26 276.658 108.931C278.51 108.933 279.415 108.882 281.253 108.646ZM214.606 101.398C213.922 102.252 211.859 103.697 210.885 104.428L210.539 104.37L210.628 103.92C211.924 102.751 212.867 102.155 214.32 101.192L214.606 101.398ZM308.203 101.451L308.268 101.741C306.965 103.017 305.001 103.745 303.323 104.394L302.925 104.37C303.152 103.89 306.44 102.375 307.71 101.421L308.203 101.451ZM296.018 102.895C295.593 103.409 294.585 103.69 293.91 103.946L293.58 103.823C293.855 103.282 294.895 103.049 295.615 102.769L296.018 102.895ZM265.245 101.712C265.677 101.748 265.453 101.688 265.905 101.942C265.32 102.545 264.147 102.848 263.312 103.146L262.947 103.2L262.838 102.944C263.748 102.224 264.135 102.142 265.245 101.712ZM309.663 96.9746C309.238 97.8719 307.06 98.629 306.075 99.0195L305.851 98.5723C306.336 97.9883 308.555 97.2118 309.508 96.7861L309.663 96.9746ZM242.311 86.4131C242.139 87.6821 240.675 89.517 239.827 90.5303L238.549 93.8066C237.961 94.0898 237.518 94.1812 236.895 94.3457L236.84 94.0801C238.583 92.749 238.48 92.102 239.511 90.0068C240.231 88.5726 240.797 87.4298 241.998 86.3633L242.311 86.4131ZM274.77 92.6318C277.523 92.2587 279.9 92.7441 282.785 92.6104L282.643 92.8525C280.802 93.4995 276.657 93.6158 274.915 93.2275L274.77 92.6318ZM270.52 88.3369L270.32 88.6895C268.643 89.6925 266.99 90.1919 265.058 90.3271L264.657 90.3545C264.965 90.0062 269.018 88.6346 270.053 88.1846L270.52 88.3369ZM296.232 86.0547C296.107 87.1046 290.601 88.6359 289.463 88.9443L289.532 88.625C290.112 88.1025 295.219 86.4053 296.232 86.0547ZM303.69 80.4365C305.505 80.6298 306.058 80.8253 307.601 81.7998L306.415 81.666C305.568 82.7624 307.32 83.9557 305.503 85.7832C303.748 86.0762 302.995 85.4758 301.498 84.5977L301.508 84.1748C303.015 82.5932 304.657 82.7535 303.69 80.4365ZM256.91 74.1426C257.198 74.3968 257.063 74.2216 257.208 74.7373C256.755 76.3623 256.532 77.2222 255.305 78.4619L255.003 78.126C255.263 76.9375 256.165 75.1026 256.91 74.1426Z" fill="#E88033"/>
</g>
<defs>
<clipPath id="clip0_64_2058">
<rect width="480" height="480" fill="white"/>
</clipPath>
</defs>
</svg>
