<svg width="480" height="480" viewBox="0 0 480 480" fill="none" xmlns="http://www.w3.org/2000/svg">
<g clip-path="url(#clip0_79_9733)">
<path d="M135.814 153.466C136.66 150.887 137.72 148.344 138.654 145.831C141.179 139.034 143.988 130.715 148.51 124.901C152.29 120.041 156.314 115.872 159.604 110.459C161.592 107.187 167.465 103.842 170.703 101.891C172.573 100.852 175.044 99.967 177.081 98.8597C179.568 97.5075 182.164 95.7467 184.747 94.6935C186.756 93.8747 190.226 94.1347 192.105 93.8225C195.242 93.3015 199.018 92.8162 202.061 92.329C205.634 91.757 205.351 90.0552 210.051 90.4077C212.263 90.5737 219.552 88.488 222.277 88.2367C224.244 87.8645 226.415 88.4387 228.348 88.2577C230.123 88.0915 232.05 87.652 233.84 87.4055C240.112 86.5412 246.124 86.02 252.455 85.8037C256.035 85.6815 260.42 84.3777 264.103 84.2582C274.173 83.9515 284.47 83.645 294.533 84.0637C296.023 84.1365 297.525 83.411 298.99 83.4515C305.323 83.6257 311.308 84.8097 317.518 85.7035C323.908 86.6232 327.985 87.9502 334.085 89.9852C346.488 94.1225 359.503 99.5627 368.225 109.72C370.828 112.781 371.998 115.99 373.665 119.41C379.03 130.411 380.24 138.441 378.875 150.543C378.713 154.786 377.368 158.301 376.083 162.237C373.275 170.976 367.48 177.591 360.78 183.667C356.02 187.986 350.218 194.152 344.535 197.353C336.168 202.068 325.908 207.113 316.54 209.548C315.168 209.905 313.67 209.506 312.278 209.673C310.098 210.474 308.26 211.228 305.998 211.796C298.793 213.617 291.675 213.445 284.32 213.386C282.995 213.376 281.788 214.461 281.198 214.399C275.498 213.805 269.828 213.74 264.108 213.677C263.045 213.665 261.5 212.692 260.368 212.682C258.515 212.538 254.74 213.074 253.12 212.249C250.158 210.741 248.81 211.111 245.654 210.974C240.949 210.768 234.982 210.964 230.531 209.395C227.135 211.116 220.241 209.882 216.145 211.783C214.081 212.379 211.25 212.483 209.269 213.177C203.351 215.252 197.846 221.591 192.934 224.707C185.454 228.603 182.483 237.013 177.474 243.343C176.778 244.223 173.265 255.415 173.096 256.302C167.193 287.345 143.413 273.91 135.292 253.217C133.877 249.613 133.18 248.389 132.824 244.222C131.248 239.492 128.172 235.757 127.099 230.606C125.204 221.502 127.333 212.414 125.943 203.208C125.295 198.918 127.152 190.899 127.47 186.527C128.684 182.077 128.411 179.4 128.988 175.396C129.666 170.694 132.639 164.888 133.738 159.885C135.15 159.229 140.937 156.598 141.306 155.319C140.603 154.774 139.909 155.221 139.518 155.07C138.949 154.852 137.584 153.882 137.09 153.521C136.726 153.525 136.519 153.52 136.148 153.493L135.814 153.466ZM165.036 120.572C166.518 120.066 166.91 120.192 168.37 120.472C169.787 119.921 171.045 119.028 172.03 117.87L172.108 117.415C171.261 116.767 170.616 116.035 169.665 116.085C167.577 116.182 166.769 116.713 165.074 117.906C164.15 118.557 162.421 119.502 162.392 120.726L162.79 120.97C163.768 120.617 164.005 120.528 165.036 120.572ZM328.428 177.076C328.98 176.139 331 173.289 331.095 172.74C330.595 172.206 329.348 172.182 328.605 172.195C327.983 172.636 327.203 173.016 326.975 173.619C327.463 173.955 327.598 173.897 328.208 173.962C328.473 174.825 327.9 176.436 327.593 177.301C328.153 177.404 327.873 177.429 328.428 177.076ZM151.082 151.797C152.037 151.125 154.569 150.035 154.614 149.129C154.189 148.808 153.789 148.474 153.378 148.136L153.252 147.726L152.493 147.328C151.124 147.423 150.659 147.905 149.576 148.796C148.929 149.36 148.325 149.824 147.633 150.328L147.677 150.659C149.207 150.988 149.659 151.19 151.082 151.797ZM185.062 178.783C186.735 176.977 189.579 176.852 190.133 175.476L189.727 175.448C188.46 176.23 187.053 176.712 185.662 177.252C183.314 177.246 182.211 178.072 180.465 179.654C179.75 180.068 179.666 179.948 179.415 180.556C180.691 180.701 181.115 180.408 182.268 180.403C183.085 180.347 184.564 179.495 185.062 178.783ZM289.193 206.564C289.798 206.111 289.885 206.208 290.09 205.64C291.018 203.087 292.04 200.173 293.14 197.709L292.965 197.472C290.128 200.887 290.83 202.644 288.8 205.766C288.925 206.296 288.843 206.122 289.193 206.564ZM166.998 145.658C168.859 142.363 169.422 143.507 170.721 141.998C170.28 141.602 170.448 141.715 169.878 141.457C168.562 142.515 167.073 143.739 166.172 145.168L166.186 145.593L166.998 145.658ZM301.828 174.638C303.94 173.874 307.138 173.775 308.35 173.18L308.383 172.788L307.918 172.746L307.61 172.829C305.74 173.322 302.75 173.348 301.533 174.436L301.6 174.688L301.828 174.638ZM156.438 182.374C157.341 181.397 159.481 180.211 159.902 179.389C159.493 179.09 159.608 179.142 159.46 179.094C158.178 180.331 155.93 180.979 155.52 181.567C155.928 182.013 155.939 182.043 156.438 182.374ZM165.804 149.277C167.231 149.501 168.019 149.674 169.298 149.036L170.106 147.85L169.849 147.838C168.188 148.791 167.35 148.574 165.406 148.58L165.339 148.844L165.804 149.277ZM178.103 127.73L178.407 127.576C180.021 126.767 182.416 126.291 183.3 125.609L183.213 125.337L182.932 125.269C181.23 125.777 179.153 126.238 177.868 127.45L177.948 127.701L178.103 127.73ZM371.853 146.992C373.223 146.222 374.265 145.077 375.395 143.975C375.31 143.531 375.415 143.665 375.245 143.49C374.195 144.202 372.27 145.511 371.523 146.491L371.853 146.992ZM166.506 130.211C165.69 130.781 164.587 131.438 164.047 132.228L164.35 132.533C165.292 131.889 166.116 131.459 166.728 130.517L166.506 130.211ZM314.993 177.614C316.025 177.489 316.75 177.464 317.723 177.06L317.93 176.768L317.495 176.53C316.753 176.699 314.988 176.93 314.668 177.393L314.993 177.614ZM319.993 193.127C319.298 193.728 318.465 194.303 318.143 195.129L318.46 195.309C319.073 194.741 319.693 194.181 320.32 193.628L320.305 193.257L319.993 193.127ZM154.803 186.774C155.932 186.592 156.381 186.59 157.378 186.086L157.297 185.807L156.741 185.799L154.246 186.41L154.114 186.653L154.803 186.774ZM194.906 98.755C194.071 99.1312 193.074 99.456 192.532 100.152C192.744 100.544 192.592 100.437 192.918 100.554C193.633 100.151 195.026 99.4925 195.42 98.869L194.906 98.755ZM343.418 173.267C343.843 174.169 343.54 173.817 344.33 174.385C345.345 174.521 345.888 174.18 346.863 173.781L346.688 173.418L346.335 173.467C344.858 173.659 344.85 173.634 343.418 173.267ZM163.106 196.699C163.752 196.213 165.171 195.355 165.33 194.752L164.942 194.807C163.854 195.401 163.518 195.515 162.672 196.378L162.709 196.726L163.106 196.699ZM308.145 107.229C307.228 107.882 306.643 108.206 305.98 109.124L305.978 109.618C306.883 108.98 307.635 108.589 308.165 107.642L308.145 107.229ZM196.437 215.018C197.04 214.463 197.913 213.828 198.067 213.089L197.761 212.925C197.188 213.404 196.334 214.005 196.045 214.64C196.269 215.022 196.114 214.927 196.437 215.018ZM184.517 113.67C183.503 114.217 180.879 116.311 180.533 117.265C180.844 117.448 180.702 117.434 180.929 117.419C181.585 116.903 184.541 114.484 184.861 113.985L184.517 113.67ZM146.555 242.373C147.173 243.023 148.703 242.756 149.621 242.689C148.865 241.908 147.646 242.259 146.555 242.373ZM157.207 119.204C156.425 119.787 155.732 120.092 155.427 120.881L155.675 121.094C156.296 120.656 157.265 120.125 157.461 119.468L157.207 119.204ZM170.813 112.497C171.77 112.19 172.569 112.003 173.409 111.455L173.155 111.264L172.63 111.35C171.518 111.618 171.079 111.623 170.226 112.321L170.212 112.652L170.813 112.497ZM330.15 102.672C331.068 102.416 332.355 102.103 332.728 101.117L332.533 100.796C331.623 101.565 331.365 101.61 330.215 101.973L329.938 102.411L330.15 102.672ZM169.587 139.717C168.844 140.104 168.531 140.204 167.713 140.406L167.609 140.769L167.84 141.054C168.781 140.776 169.414 140.811 169.724 139.732L169.587 139.717ZM183.293 210.219C182.335 211.053 182.102 211.181 181.465 212.239L181.488 212.783C182.139 212.159 183.161 211.354 183.378 210.545L183.293 210.219ZM192.586 113.049C193.715 112.201 194.493 111.717 195.342 110.576L195.219 110.245C194.291 110.901 193.013 111.688 192.346 112.554C192.449 112.984 192.338 112.838 192.586 113.049ZM338.975 164.697L343.715 161.696C344.44 161.248 346.233 160.311 346.238 159.445C345.265 159.673 344.753 160.244 343.973 160.897C341.755 162.125 340.525 162.671 338.975 164.697ZM273.575 209.138C272.78 209.714 272.503 209.824 272.033 210.649L272.228 210.867L272.54 210.761C273.088 210.35 274.015 209.818 274.17 209.288C274.033 209.25 273.7 209.142 273.575 209.138ZM178.405 112.337C179.472 110.796 180.696 110.457 181.396 109.215L181.205 108.998C180.005 109.744 178.785 110.603 178.118 111.884C178.309 112.287 178.185 112.159 178.405 112.337ZM178.161 142.468L178.343 143.23C179.616 143.562 180.221 143.362 181.588 143.709L181.579 143.359C180.378 142.909 179.451 142.551 178.161 142.468ZM254.92 176.793C253.595 177.627 252.505 178.338 251.73 179.735L251.783 180.066C252.413 179.493 254.89 177.434 254.92 176.793ZM263.82 166.44C265.288 166.528 266.155 166.082 267.248 165.119L267.385 164.673L267.16 164.456C265.705 165.656 265.223 165.565 263.453 165.918L263.445 166.222L263.82 166.44ZM164.811 124.931L161.644 126.994L161.604 127.364L161.857 127.361C163.149 126.706 163.815 126.414 164.958 125.479L165.104 125.031L164.811 124.931ZM183.253 163.526C181.894 164.016 181.372 164.026 180.999 165.52C181.127 165.567 181.253 165.653 181.39 165.645C182.055 165.081 183.455 164.19 183.542 163.601L183.253 163.526ZM169.83 224.448C168.352 225.34 166.378 225.653 165.591 226.356L165.768 226.661L166.07 226.57C167.205 226.068 169.76 225.29 170.44 224.777L170.309 224.418L169.83 224.448ZM371.4 131.09C369.858 131.267 369.358 131.257 367.973 132.059L368.005 132.317C368.668 132.241 368.81 132.219 369.448 132.033C370.655 131.852 371.518 131.816 372.598 131.249L372.508 131.038C372.1 131.038 371.783 131.001 371.4 131.09Z" fill="#97918A"/>
<path d="M299.14 115.257C304.193 115.068 306.69 117.798 308.288 122.226C306.21 127.344 305.318 132.165 302.398 137.113C301.47 138.683 298.15 143.768 298.135 145.165C298.623 146.348 299.948 147.426 301.003 148.036C302.495 148.9 308.83 149.988 310.415 149.869C317.003 149.373 323.91 144.877 328.805 140.711C330.93 138.802 332.668 136.682 334.783 134.797C335.738 133.945 335.445 133.998 336.408 134.07L336.658 134.588C336.605 137.806 333.07 144.161 330.648 146.705C325.733 151.87 317.87 156.818 310.783 158.262C309.785 158.557 308.198 157.682 307.283 157.871C302.483 158.862 298.693 159.362 294.283 156.58C293.82 156.287 292.193 154.195 291.54 153.571C287.955 154.382 284.873 157.651 281.143 158.314C279.823 158.548 279.563 158.846 278.555 159.69C271.585 160.428 268.558 162.355 260.84 161.65C251.405 161.352 248.52 155.809 239.714 162.392C238.165 163.55 226.479 167.665 223.98 168.805C223.049 169.229 222.338 167.561 220.438 168.72C218.044 170.18 213.342 170.109 210.519 170.584C201.697 170.925 195.77 168.638 189.499 162.822C187.65 156.405 187.838 156.556 188.37 149.618C191.437 143.083 194.54 135.74 200.636 131.461C203.409 129.514 205.285 129.404 207.21 132.258C203.638 134.747 199.508 138.426 197.735 142.466C196.624 145.31 193.912 151.155 195.241 154.005C200.533 165.35 219.138 161.616 228.381 158.395C231.831 157.193 240.41 155.208 241.977 151.678C241.591 150.901 239.077 148.422 238.305 147.598L238.238 143.859C237.204 142.334 237.105 141.694 236.504 139.941C237.876 136.467 240.396 129.048 242.512 126.294C247.138 120.276 256.393 115.161 263.488 120.243C265.89 121.964 265.155 123.608 265.803 126.113C267.243 134.993 261.9 143.875 256.95 150.802C257.95 151.264 260.443 152.436 261.423 152.674C270.218 154.805 278.755 152.775 286.458 148.671C284.665 141.876 282.793 136.278 285.623 129.232C288.29 122.59 292.848 118.453 299.14 115.257Z" fill="#56473D"/>
<path d="M356.438 295.155C358.295 295.608 361.063 298.278 362.021 299.923C365.745 306.315 367.138 314.038 369.035 321.115C369.795 323.953 370.728 326.905 371.548 329.742C373.218 340.837 374.11 351.76 374.07 362.975C374.045 370.527 373.843 374.72 371.86 382.095C370.228 388.167 370.045 395.835 366.428 401.423C363.14 406.5 357.163 411.793 351.245 413.45C347.465 414.505 338.11 413.76 334.768 411.715C330.603 412.377 325.833 412.642 321.61 412.522C320.158 412.482 318.905 412.476 317.447 412.583C310.522 408.666 309.812 403.223 308.827 396.058C308.237 385.74 299.938 379.54 291.165 375.995C287.36 374.458 284.38 373.327 280.14 372.72C277.585 372.353 274.37 374.235 274.1 369.44C274.387 362.488 272.635 348.855 277.29 343.402C279.278 342.342 280.515 344.525 283.952 344.178C289.407 343.628 295.778 342.39 300.987 340.78C302.875 340.198 306.065 338.57 308.048 337.745C310.783 336.603 313.96 335.408 316.532 334.098C326.835 328.86 336.23 321.755 344.095 313.308C348.032 309.078 349.508 304.555 352.441 299.827C353.283 298.465 355.285 296.388 356.438 295.155ZM166.35 306.855C170.513 309.573 173.622 314.31 177.34 317.143C182.908 321.385 189.045 325.208 194.479 329.75C195.593 330.68 200.356 333.55 201.637 334.12C208.905 337.29 214.276 339.915 220.43 345.308C225.924 350.125 226.713 362.562 223.007 368.56C222.191 369.88 217.76 369.613 216.119 370.468C210.431 373.66 203.739 376.102 198.555 380.135C193.728 383.887 187.074 390.075 183.392 394.995C181.764 397.173 182.523 407.362 177.77 407.037C176.839 406.685 176.42 406.015 175.756 405.24C175.047 405.518 174.003 407.323 172.206 408.415C171.549 408.785 171.575 408.75 170.819 408.853C169.001 407.803 168.144 408.16 166.069 407.885C161.061 407.225 157.562 404.92 153.796 401.76C151.416 406.255 145.859 406.97 141.404 407.973C138.027 406.8 134.788 405.263 131.744 403.388C125.891 399.793 121.188 394.412 119.833 387.577C116.817 372.355 118.606 355.755 121.86 340.695C122.767 336.498 123.585 331.39 125.841 327.705C126.999 325.815 129.179 325.57 131.2 325.173C133.966 326.125 140.241 326.692 143.108 326.027C153.618 323.59 160.727 315.085 166.35 306.855ZM345.743 392.898V392.899V392.898ZM128.127 390.968H128.128H128.127ZM348.359 390.631H348.36H348.359ZM136.336 389.521L136.337 389.52L136.336 389.521ZM134.948 389.444C135.158 389.442 135.391 389.445 135.607 389.453C135.391 389.445 135.158 389.442 134.948 389.444ZM132.665 388.623V388.622V388.623ZM351.452 385.018L351.492 385.513H351.493L351.453 385.018H351.452ZM353.075 383.185C352.882 383.357 352.712 383.502 352.56 383.636C352.712 383.502 352.882 383.358 353.075 383.186C353.087 383.196 353.097 383.203 353.106 383.21C353.097 383.203 353.087 383.195 353.075 383.185ZM336.889 380.122V380.123V380.122ZM121.144 373.27V373.271V373.27ZM123.617 371.538L123.618 371.537L123.617 371.538ZM332.197 369.456C331.824 369.704 331.433 369.938 331.069 370.147C331.433 369.938 331.824 369.704 332.197 369.456ZM277.823 365.438C277.796 365.474 277.771 365.511 277.748 365.548L277.686 365.662C277.723 365.584 277.769 365.51 277.823 365.438ZM279.548 364.202V364.203V364.202ZM221.037 360.027C221.049 360.1 221.061 360.176 221.074 360.255C221.087 360.334 221.101 360.417 221.112 360.506C221.146 360.771 221.162 361.084 221.114 361.482C221.195 360.818 221.094 360.391 221.037 360.026V360.027ZM222.449 357.675H222.448H222.449ZM149.2 341.486C149.025 341.575 148.846 341.655 148.662 341.73C148.846 341.655 149.025 341.575 149.2 341.486ZM150.689 339.88H150.69L150.493 339.715L150.689 339.88ZM145.294 333.09H145.295H145.294ZM359.652 331.452C359.731 331.454 359.813 331.446 359.898 331.428C359.813 331.446 359.731 331.454 359.652 331.452ZM153.235 330.768H153.236H153.235ZM152.65 330.28H152.649H152.65ZM166.019 326.252H166.018H166.019ZM167.982 322.721H167.983H167.982ZM146.555 242.373C147.646 242.259 148.865 241.909 149.621 242.689C148.704 242.756 147.173 243.023 146.555 242.373ZM170.441 224.777C169.761 225.29 167.205 226.068 166.069 226.57L165.768 226.661L165.591 226.356C166.378 225.653 168.352 225.34 169.83 224.448L170.31 224.418L170.441 224.777ZM198.068 213.089C197.913 213.828 197.04 214.464 196.437 215.019C196.114 214.928 196.269 215.022 196.045 214.641C196.334 214.005 197.187 213.404 197.761 212.925L198.068 213.089ZM183.378 210.545C183.161 211.354 182.138 212.159 181.487 212.783L181.465 212.239C182.102 211.181 182.335 211.053 183.293 210.22L183.378 210.545ZM273.575 209.139C273.7 209.143 274.032 209.25 274.17 209.288C274.015 209.818 273.088 210.35 272.54 210.761L272.228 210.867L272.032 210.648C272.502 209.824 272.78 209.714 273.575 209.139ZM293.141 197.709C292.041 200.173 291.017 203.086 290.09 205.64C289.885 206.208 289.798 206.111 289.193 206.564C288.843 206.122 288.925 206.296 288.8 205.767C290.83 202.644 290.128 200.887 292.965 197.473L293.141 197.709ZM165.329 194.752C165.171 195.355 163.752 196.214 163.106 196.699L162.709 196.727L162.671 196.378C163.517 195.515 163.854 195.401 164.942 194.808L165.329 194.752ZM320.306 193.257L320.32 193.628C319.693 194.181 319.073 194.742 318.46 195.31L318.143 195.129C318.465 194.303 319.298 193.728 319.993 193.127L320.306 193.257ZM157.297 185.808L157.378 186.086C156.381 186.59 155.931 186.592 154.803 186.773L154.113 186.653L154.245 186.41L156.741 185.8L157.297 185.808ZM159.46 179.094C159.607 179.142 159.493 179.09 159.902 179.39C159.48 180.212 157.341 181.397 156.439 182.374C155.94 182.043 155.927 182.013 155.52 181.566C155.929 180.978 158.179 180.331 159.46 179.094ZM190.133 175.477C189.58 176.853 186.735 176.978 185.062 178.783C184.564 179.495 183.085 180.347 182.268 180.402C181.115 180.407 180.691 180.701 179.415 180.556C179.665 179.948 179.751 180.068 180.465 179.654L181.093 179.097C182.506 177.879 183.608 177.246 185.662 177.252L186.706 176.853C187.748 176.453 188.776 176.035 189.727 175.448L190.133 175.477ZM254.92 176.793C254.889 177.435 252.412 179.493 251.782 180.066L251.731 179.735C252.506 178.338 253.595 177.627 254.92 176.793ZM317.93 176.768L317.723 177.06C316.75 177.463 316.025 177.489 314.992 177.614L314.668 177.394C314.988 176.93 316.753 176.699 317.495 176.53L317.93 176.768ZM328.606 172.194C329.348 172.182 330.596 172.206 331.096 172.74C331.001 173.29 328.98 176.139 328.428 177.076C327.873 177.429 328.153 177.405 327.593 177.302C327.9 176.436 328.473 174.825 328.208 173.963C327.598 173.898 327.463 173.955 326.976 173.619C327.203 173.016 327.983 172.636 328.606 172.194ZM308.383 172.789L308.351 173.18C307.138 173.775 303.941 173.874 301.828 174.639L301.601 174.688L301.532 174.436C302.75 173.348 305.74 173.322 307.61 172.83L307.918 172.746L308.383 172.789ZM343.418 173.268C344.85 173.634 344.858 173.659 346.335 173.467L346.688 173.418L346.862 173.781C345.888 174.18 345.345 174.521 344.33 174.385C343.54 173.817 343.843 174.169 343.418 173.268ZM267.385 164.674L267.248 165.119C266.156 166.082 265.288 166.528 263.82 166.44L263.445 166.223L263.453 165.918C265.223 165.565 265.705 165.656 267.16 164.456L267.385 164.674ZM183.542 163.601C183.455 164.189 182.055 165.082 181.39 165.646C181.253 165.653 181.127 165.567 180.999 165.52C181.372 164.026 181.894 164.017 183.253 163.526L183.542 163.601ZM346.237 159.445C346.232 160.312 344.44 161.249 343.715 161.696L338.976 164.697C340.526 162.672 341.755 162.125 343.973 160.896C344.753 160.244 345.265 159.673 346.237 159.445ZM136.148 153.493C136.518 153.52 136.726 153.526 137.09 153.521C137.584 153.882 138.949 154.852 139.518 155.07C139.909 155.221 140.603 154.775 141.306 155.319C140.937 156.598 135.15 159.229 133.737 159.885C134.204 158.172 135.021 154.91 135.814 153.467L136.148 153.493ZM153.252 147.727L153.378 148.137C153.789 148.474 154.189 148.808 154.613 149.129C154.569 150.035 152.037 151.125 151.082 151.798C149.659 151.19 149.207 150.988 147.677 150.659L147.633 150.328C148.325 149.824 148.928 149.36 149.575 148.796L150.296 148.204C150.948 147.688 151.466 147.399 152.492 147.328L153.252 147.727ZM150.331 150.519V150.518V150.519ZM170.107 147.85L169.298 149.036C168.019 149.674 167.231 149.502 165.804 149.277L165.339 148.844L165.405 148.58C167.35 148.574 168.188 148.791 169.849 147.838L170.107 147.85ZM375.245 143.49C375.415 143.665 375.311 143.531 375.396 143.976C374.266 145.078 373.223 146.222 371.853 146.992L371.523 146.491C372.27 145.511 374.195 144.202 375.245 143.49ZM253.021 126.715C254.293 126.936 257.235 130.191 258.255 131.264C257.96 135.398 255.593 146.479 250.023 146.387C247.805 145.378 247.161 144.773 247.633 142.491C247.222 141.498 246.242 141.403 245.411 140.624C245.427 139.378 245.54 140.715 246.499 139.615C245.278 137.197 245.733 136.61 246.414 134.064C246.722 132.915 246.951 131.465 247.148 130.271C249.343 128.128 250.183 127.888 253.021 126.715ZM169.878 141.458C170.447 141.715 170.28 141.602 170.721 141.998C169.422 143.507 168.858 142.363 166.997 145.658L166.186 145.594L166.172 145.168C167.073 143.739 168.562 142.516 169.878 141.458ZM178.16 142.469C179.45 142.551 180.378 142.909 181.579 143.359L181.588 143.709C180.221 143.362 179.616 143.563 178.343 143.23L178.16 142.469ZM169.724 139.732C169.414 140.811 168.781 140.777 167.839 141.055L167.609 140.77L167.713 140.406C168.531 140.204 168.844 140.105 169.587 139.718L169.724 139.732ZM296.271 124.447C296.741 124.414 298.413 124.29 298.641 124.562C301.337 127.812 296.435 136.27 294.985 138.464C294.628 138.965 294.872 138.828 294.277 138.947C293.028 137.501 292.098 136.662 292.141 134.566C292.221 130.577 292.713 126.904 295.37 123.893L296.271 124.447ZM166.729 130.517C166.116 131.459 165.292 131.889 164.35 132.533L164.047 132.229C164.588 131.438 165.69 130.781 166.506 130.211L166.729 130.517ZM372.508 131.038L372.598 131.249C371.518 131.816 370.655 131.852 369.447 132.033C368.81 132.219 368.667 132.241 368.005 132.317L367.973 132.059C369.358 131.257 369.858 131.267 371.401 131.09C371.783 131.001 372.101 131.038 372.508 131.038ZM183.213 125.337L183.3 125.608C182.416 126.291 180.021 126.768 178.406 127.576L178.104 127.73L177.947 127.701L177.868 127.45C179.153 126.238 181.23 125.778 182.932 125.27L183.213 125.337ZM165.104 125.031L164.958 125.479C163.815 126.414 163.149 126.706 161.857 127.36L161.604 127.364L161.644 126.994L164.811 124.931L165.104 125.031ZM157.461 119.469C157.264 120.125 156.296 120.657 155.675 121.095L155.427 120.882C155.732 120.092 156.424 119.787 157.206 119.204L157.461 119.469ZM169.665 116.085C170.615 116.035 171.262 116.768 172.109 117.415L172.03 117.87C171.045 119.028 169.787 119.921 168.37 120.472C166.91 120.192 166.518 120.066 165.035 120.572C164.005 120.528 163.768 120.618 162.79 120.97L162.392 120.727C162.421 119.502 164.15 118.557 165.074 117.906C166.769 116.713 167.577 116.182 169.665 116.085ZM184.861 113.984C184.541 114.483 181.584 116.904 180.929 117.42C180.702 117.435 180.843 117.448 180.532 117.265C180.879 116.311 183.503 114.217 184.517 113.67L184.861 113.984ZM195.342 110.576C194.493 111.717 193.714 112.201 192.585 113.05C192.338 112.839 192.449 112.984 192.346 112.554C193.013 111.689 194.291 110.901 195.219 110.245L195.342 110.576ZM173.409 111.455C172.57 112.003 171.77 112.19 170.814 112.497L170.212 112.651L170.226 112.321C171.079 111.623 171.518 111.618 172.63 111.351L173.154 111.264L173.409 111.455ZM181.397 109.216C180.696 110.457 179.472 110.796 178.404 112.337C178.185 112.159 178.308 112.287 178.118 111.885C178.785 110.604 180.004 109.745 181.205 108.998L181.397 109.216ZM308.165 107.643C307.635 108.589 306.883 108.98 305.978 109.618L305.981 109.124C306.643 108.206 307.228 107.882 308.146 107.229L308.165 107.643ZM332.728 101.117C332.355 102.103 331.068 102.416 330.151 102.672L329.938 102.411L330.215 101.974C331.365 101.61 331.623 101.565 332.532 100.796L332.728 101.117ZM195.419 98.8691C195.025 99.4925 193.633 100.151 192.918 100.554C192.592 100.437 192.744 100.544 192.532 100.152C193.074 99.4564 194.07 99.1311 194.905 98.7549L195.419 98.8691Z" fill="#97918A"/>
</g>
<defs>
<clipPath id="clip0_79_9733">
<rect width="480" height="480" fill="white"/>
</clipPath>
</defs>
</svg>
