<svg width="480" height="480" viewBox="0 0 480 480" fill="none" xmlns="http://www.w3.org/2000/svg">
<g clip-path="url(#clip0_79_5992)">
<path d="M113.009 227.883C112.911 224.682 113.644 222.869 113.77 219.883C113.868 217.564 112.971 214.13 113.126 211.59C113.754 201.345 115.363 188.929 117.525 178.873C120.905 164.042 126.732 150.041 134.13 136.779C137.142 131.381 140.962 126.476 144.297 121.386C157.103 101.849 176.049 84.9533 199.415 79.9253C205.978 78.5128 213.22 77.6835 219.893 76.9395C222.195 76.6803 224.467 76.0455 226.794 75.913C232.812 75.3903 238.611 75.368 244.626 75.3145C250.688 75.2605 255.9 74.7918 262.02 76.177C263.285 76.463 265.893 76.075 267.328 76.3313C271.695 77.1125 276.03 77.2878 280.43 77.7443C286.013 78.563 291.743 79.7173 297.273 80.8715C303.413 82.6993 311.598 84.764 317.285 87.6675C321.748 89.9465 327.2 92.3845 331.555 94.6393C340.798 99.3848 349.445 105.205 357.32 111.98C363.33 117.088 366.48 120.309 369.758 127.642C370.013 128.208 370.59 129.103 370.908 129.776C370.46 131.808 369.17 131.265 367.333 132.477L367.323 132.711C369.238 132.943 370.773 132.487 371.79 133.494C375.463 139.547 376.268 147.044 377.345 153.876C378.44 160.832 379.873 168.431 378.65 175.504C378.288 177.635 375.688 181.95 374.583 183.995C375.46 185.149 376.685 184.121 376.938 186.222C375.695 189.93 367.515 193.886 363.74 195.59C356.84 198.705 347.158 199.806 339.758 201.983C336.068 203.068 332.968 204.337 329.313 205.376C324.778 206.376 322.92 205.895 318.455 207.858C317.098 207.447 316.073 207.165 314.788 206.559C310.458 199.909 309.763 184.883 307.96 176.73C308.03 175.559 308.383 173.701 307.89 172.839C306.538 172.34 303.85 173.461 302.175 173.931C303.518 173.983 306.315 173.711 306.993 173.946C307.868 175.153 307.353 176.401 307.073 177.8C305.755 180.235 305.245 182.517 304.475 185.098C303.52 188.304 302.638 191.68 301.853 194.876C299.79 203.3 299.485 215.182 289.778 218.531C288.56 218.951 287.335 219.453 286.095 219.87C282.093 218.744 281.5 220.902 277.765 219.507C276.26 220.044 275.603 220.125 274.03 220.375C271.348 219.343 270.255 219.03 270.253 215.822C270.25 210.407 269.813 205.125 270.513 199.724C270.888 196.815 273.183 192.998 272.303 190.222C272.86 188.702 273.925 186.106 273.828 184.517C272.925 185.126 272.115 187.017 271.628 188.061C270.315 190.369 269.49 192.987 268.383 195.406C265.888 200.861 256.255 221.38 252.03 224.113C249.523 225.735 242.571 227.474 239.479 228.512C238.257 228.922 237.063 229.527 235.87 230.027C235.358 229.768 233.245 228.668 233.155 228.209C232.127 222.933 235.593 214.333 236.802 209.02C237.486 206.897 237.659 204.065 238.439 202.019C240.874 195.632 242.201 189.143 244.212 182.612C244.709 180.75 245.274 179.248 245.945 177.436C244.613 178.919 244.025 179.805 243.342 181.677C241.659 184.684 239.539 187.205 237.775 190.459C235.624 194.426 233.663 198.211 231.645 202.231C231.01 203.496 227.922 206.428 226.999 208.113C225.855 209.849 224.719 213.108 223.54 214.654C220.086 219.185 217.328 225.269 214.791 229.928C213.377 232.526 206 237.978 203.518 240.069C202.091 241.271 194.532 242.826 192.487 243.856C189.806 244.973 187.654 247.084 185.417 247.936C183.382 248.688 180.736 249 178.774 249.826C173.545 252.028 168.379 253.898 162.942 255.523C160.868 256.14 158.592 257.55 156.499 258.193C153.275 259.183 150.765 259.843 147.724 261.408C146.039 264.883 144.54 271.303 142.489 274.858C142.194 275.37 140.868 276.355 140.329 276.763C138.89 276.503 137.822 276.485 136.365 276.428C134.002 273.85 128.917 267.213 127.444 264.153C126.298 261.773 124.964 257.348 123.736 254.628C122.697 252.328 120.883 248.69 120.097 246.355C118.511 241.647 117.575 236.056 115.552 231.52C115.171 230.666 113.623 228.688 113.009 227.883ZM146.268 134.821L146.447 134.669C148.24 133.162 149.242 133.113 151.04 131.105L151.026 130.755L150.8 130.678C149.201 131.619 146.555 132.695 145.783 134.13L145.93 134.648L146.268 134.821ZM167.585 117.314C166.535 117.576 163.521 119.835 163.322 120.768C165.796 120.68 165.696 120.509 167.253 118.693L167.559 118.755C167.748 119.545 167.868 119.486 167.652 120.151L168.067 120.657C169.242 120.146 170.055 119.491 170.551 118.296C170.507 117.369 170.677 117.757 170.021 117.096C169.108 116.749 168.595 117.035 167.585 117.314ZM195.868 229.404C197.157 229.042 199.464 229.513 199.776 229.167C198.935 228.417 197.943 228.018 196.823 228.238C195.514 228.877 194.474 229.279 193.656 230.499C194.474 230.532 195.178 229.907 195.868 229.404ZM233.409 187.147C234.179 186.982 236.04 184.891 236.34 184.154L235.977 183.902C234.802 184.913 233.271 185.758 232.324 186.635C232.829 186.947 232.848 186.965 233.409 187.147ZM341.373 162.783C342.963 162.085 344.788 160.865 345.995 159.621L346.015 159.313L345.815 159.214C344.203 160.31 342.578 161.392 340.945 162.462L340.943 162.743L341.373 162.783ZM303.458 154.991C302.22 156.37 300.923 157.098 299.408 158.148C301.22 157.586 302.965 157.173 303.843 155.324C304.748 152.986 305.325 153.205 307.64 152.95L307.903 152.617L307.605 152.437C306.533 152.621 305.225 152.5 304.443 152.685C304.135 153.628 303.898 154.092 303.458 154.991ZM277.17 174.628C278.015 172.91 278.698 172.513 280.113 171.308L279.973 171.006C278.62 171.688 277.483 172.208 276.598 173.43C276.575 174.237 276.49 173.826 277.17 174.628ZM263.1 167.531C264.648 167.306 266.2 166.916 267.368 165.8L267.24 165.493L266.905 165.431C265.345 166.638 263.508 166.716 262.818 167.404L262.988 167.576L263.1 167.531ZM251.55 181.021C252.915 180.086 254.32 178.767 255.575 177.654L255.615 177.281C254.22 177.795 252.625 179.342 251.595 180.422L251.55 181.021ZM166.054 226.751C167.75 226.348 168.843 226.108 170.453 225.468L170.32 225.22L169.813 225.324C168.726 225.519 166.043 225.993 165.264 226.687C165.675 226.758 165.651 226.792 166.054 226.751ZM190.584 199.461C189.613 199.182 187.703 199.76 186.923 200.392C187.485 200.691 189.279 200.397 190.152 200.384L190.584 199.461ZM270.778 159.724L270.623 159.476C269.078 159.568 267.758 159.686 266.21 159.569C267.253 160.96 269.318 160.14 270.778 159.724ZM308.423 165.289C307.5 165.54 306.318 165.746 305.613 166.337C305.683 166.489 305.723 166.666 305.84 166.785C306.883 166.394 307.63 166.134 308.62 165.606L308.423 165.289ZM252.255 163.259C252.885 162.702 253.585 162.208 253.878 161.444L253.6 161.251C252.945 161.746 252.438 162.132 251.825 162.678L251.888 163.115L252.255 163.259ZM149.457 242.31C148.648 242.497 147.045 242.729 146.561 243.274L146.798 243.504C147.688 243.339 148.797 243.235 149.519 242.747C149.507 242.36 149.571 242.493 149.457 242.31ZM315.68 152.565C316.418 151.713 317.135 150.845 317.83 149.96L317.725 149.535L317.495 149.409C316.81 150.254 315.705 151.473 315.305 152.426L315.44 152.65L315.68 152.565ZM370.028 157.16C369.11 157.628 368.813 157.703 368.155 158.457L368.323 158.654L368.668 158.521C369.463 158.167 370.1 157.937 370.798 157.409C370.32 157.134 370.578 157.217 370.028 157.16ZM327.493 155.644C328.093 155.035 328.983 154.297 329.2 153.519L329.133 153.205C328.275 153.912 327.983 154.06 327.463 155.004L327.493 155.644ZM327.465 120.686L329.058 118.766L329.028 118.481L328.813 118.419C328.213 118.977 327.33 119.658 327.063 120.386C327.35 120.699 327.193 120.643 327.465 120.686ZM309.103 126.691L309.083 126.356C308.275 126.13 307.438 126.296 306.593 126.387L306.693 126.833C307.71 126.915 308.073 126.833 309.103 126.691ZM208.229 212.074C207.118 212.331 204.973 212.66 204.243 213.273L204.191 213.624C205.59 213.317 206.727 213.155 208.002 212.502L208.229 212.074ZM327.43 139.492C326.633 140.037 324.92 140.938 324.578 141.541L324.633 141.863C325.753 141.314 326.538 141.053 327.345 140.108L327.43 139.492ZM190.052 228.797C189.243 228.985 188.284 229.107 187.685 229.627C188.499 229.747 188.448 229.744 189.254 229.565C190.382 229.46 190.813 229.52 191.739 228.945C191.24 228.596 190.778 228.731 190.052 228.797ZM184.586 87.6388L184.429 87.7933C183.78 88.4193 183.539 88.6038 182.791 89.0968L182.692 89.4948L183.16 89.8915C183.872 89.3273 184.726 88.7985 185.062 87.9898C184.771 87.663 184.938 87.7675 184.586 87.6388ZM319.003 120.855C318.503 121.334 317.953 122.585 317.615 123.252L317.718 123.867C318.41 123.149 319.233 121.97 319.343 120.977L319.003 120.855ZM305.728 139.654L305.165 139.905C305.758 140.335 306.88 140.554 307.61 140.651L308.338 140.072L308.318 139.712C307.508 139.379 306.618 139.556 305.728 139.654Z" fill="#FF81B2"/>
<path d="M164.248 123.236C165.237 123.795 166.145 124.181 166.83 125.06C167.209 126.821 163.464 132.658 162.533 134.535C160.233 139.168 157.787 143.747 156.228 148.721C155.191 152.341 153.748 155.88 152.75 159.332C150.128 168.736 147.922 178.251 146.138 187.85C145.723 189.999 145.25 192.163 144.78 194.296C144.494 195.596 144.978 197.56 144.761 198.921C143.629 206.03 142.699 213.157 143.638 220.354C143.762 221.297 143.594 222.731 143.497 223.712C145.58 220.522 148.429 216.775 149.918 213.228C152.768 206.442 155.828 199.976 158.612 193.146C159.252 191.576 161.349 188.87 162.42 186.869C166.798 178.926 171.351 168.098 180.253 164.484C181.003 164.18 182.406 164.585 183.003 165.105C186.663 168.293 185.898 171.669 185.791 175.793C185.666 181.43 185.242 187.057 184.522 192.65C184.018 196.488 183.169 199.325 183.615 203.236C183.815 204.992 182.631 204.509 183.95 206.877C183.895 207.724 183.596 208.935 183.952 209.411C185.036 207.877 189.708 201.463 190.152 200.384L190.584 199.461L190.864 199.12C193.052 196.421 195.249 192.662 197.342 189.577C203.048 181.166 210.14 173.131 217.652 166.277C219.59 164.509 221.642 163.083 224.111 162.295L224.645 162.391C225.925 165.253 218.253 173.657 217.149 175.763C215.153 179.572 215.23 180.361 211.94 183.358C210.78 184.414 208.657 189.656 207.353 191.069C204.593 195.4 201.674 199.59 198.549 203.665C194.867 209.17 186.448 222.512 181.756 226.372L181.608 226.495C180.023 226.585 177.387 226.832 175.909 226.603C176.095 225.372 172.414 219.222 172.43 217.013C172.454 213.917 174.663 206.631 174.167 203.901C173.133 198.213 173.249 197.504 175.168 191.733C175.991 189.257 176.207 184.877 176.249 182.043C175.344 183.128 174.11 184.941 173.113 185.829C166.124 192.047 164.793 201.796 160.556 209.749C160.049 210.701 159.479 212.613 158.981 213.511C157.296 216.555 145.68 238.061 143.675 237.83C131.771 236.008 135.146 217.68 135.75 209.419C135.848 208.08 135.18 207.135 135.335 205.786C135.556 203.859 136.354 201.978 136.479 200.033C137.071 190.779 139.253 181.688 140.829 172.568C141 171.578 141.764 170.317 142.101 169.339C144.806 161.49 146.218 154.686 150.044 147.1C153.552 140.145 157.947 127.908 164.248 123.236Z" fill="#4B4746"/>
<path d="M166.743 308.936C167.379 309.17 167.153 309.067 167.686 309.555C167.77 310.452 167.541 310.527 167.096 311.492C167.134 311.62 167.172 311.748 167.211 311.878C169.037 312.743 171.511 314.32 173.1 315.425C175.196 316.885 177.785 318.367 179.69 319.84C183.223 322.57 185.561 324.7 189.535 326.893C193.632 329.152 197.572 329.652 201.478 331.367C208.566 334.477 215.544 337.732 222.817 340.452C223.737 340.797 227.464 341.863 227.668 342.525C228.116 343.98 228.165 346.818 228.343 348.383C228.951 353.738 230.496 361.328 227.906 366.4C225.688 370.745 219.845 372.55 215.589 373.772C212.695 374.727 210.254 377.408 207.826 379.013C198.282 385.318 189.508 393.918 183.568 403.713C182.674 405.188 182.045 407.705 181.193 409.35C179.916 411.815 179.232 412.032 176.764 412.897C170.65 411.013 170.179 411.98 165.928 416.12C161.392 412.82 158.853 412.898 153.723 411.143C151.609 410.42 148.482 408.858 146.456 408.298C143.19 407.398 143.863 408.287 140.634 406.5C139.006 405.41 138.437 405.045 136.656 404.268C134.526 401.563 134.104 397.72 133.942 394.37C129.029 398.54 128.725 401.495 122.587 404.883C120.269 403.858 118.527 402.377 116.396 401.135C112.047 398.595 108.102 396.015 104.101 392.955C101.898 391.088 97.2113 389.01 95.4238 386.838C91.6143 382.21 83.4738 377.397 82.6338 371.215C82.7899 368.845 84.2521 365.06 85.4551 363.183C88.6911 358.135 93.1863 354.43 96.2168 349.175C97.3525 347.205 99.1059 345.358 100.266 343.418C102.54 339.61 104.805 335.847 107.009 332.005C109.448 327.828 111.245 323.175 114.793 319.798C119.686 323.378 121.382 323.36 126.979 324.565C133.961 326.07 138.1 324.69 144.797 322.59C148.05 321.57 151.178 320.638 153.974 318.605C157.683 316.048 162.498 310.87 166.43 309.077L166.743 308.936ZM165.45 397.681C165.397 397.805 165.331 397.936 165.257 398.071C165.331 397.936 165.397 397.805 165.45 397.681ZM130.9 388.948C130.662 389.072 130.397 389.172 130.136 389.279C130.397 389.172 130.662 389.072 130.9 388.948ZM164.083 384.359V384.36V384.359ZM190.591 343.567H190.59H190.591ZM149.456 242.31C149.57 242.493 149.507 242.36 149.519 242.746C148.796 243.234 147.688 243.339 146.798 243.504L146.562 243.274C147.045 242.729 148.647 242.497 149.456 242.31ZM196.823 228.237C197.942 228.018 198.935 228.417 199.775 229.167C199.463 229.512 197.156 229.042 195.867 229.403C195.178 229.907 194.474 230.532 193.656 230.499C194.473 229.279 195.514 228.877 196.823 228.237ZM190.052 228.797C190.778 228.731 191.24 228.596 191.739 228.944C190.813 229.519 190.382 229.46 189.254 229.564C188.448 229.743 188.499 229.747 187.685 229.627C188.284 229.107 189.243 228.985 190.052 228.797ZM170.453 225.468C168.843 226.108 167.75 226.348 166.054 226.751C165.651 226.792 165.674 226.758 165.264 226.687C166.043 225.993 168.726 225.519 169.812 225.324L170.319 225.22L170.453 225.468ZM208.001 212.502C206.726 213.155 205.589 213.317 204.19 213.623L204.243 213.273C204.973 212.661 207.118 212.331 208.229 212.073L208.001 212.502ZM186.923 200.392C187.703 199.76 189.613 199.182 190.584 199.461L190.152 200.384C189.279 200.396 187.485 200.69 186.923 200.392ZM273.827 184.517C273.925 186.105 272.86 188.702 272.303 190.223C272.045 189.339 271.97 188.961 271.628 188.061C272.115 187.016 272.925 185.126 273.827 184.517ZM236.339 184.153C236.039 184.89 234.179 186.981 233.409 187.146C232.847 186.964 232.828 186.947 232.323 186.635C233.271 185.758 234.801 184.913 235.977 183.902L236.339 184.153ZM245.945 177.436C245.274 179.248 244.708 180.75 244.211 182.611L243.342 181.678C244.026 179.805 244.613 178.919 245.945 177.436ZM255.575 177.653C254.32 178.766 252.915 180.086 251.55 181.021L251.595 180.422C252.625 179.342 254.22 177.795 255.615 177.281L255.575 177.653ZM302.175 173.931C303.85 173.461 306.537 172.34 307.89 172.839C308.382 173.701 308.03 175.559 307.96 176.73L307.072 177.801C307.352 176.401 307.867 175.153 306.992 173.945C306.314 173.711 303.517 173.983 302.175 173.931ZM280.112 171.308C278.697 172.512 278.015 172.91 277.17 174.628C276.49 173.827 276.575 174.237 276.598 173.431C277.483 172.208 278.62 171.687 279.973 171.006L280.112 171.308ZM267.24 165.493L267.367 165.8C266.2 166.916 264.647 167.306 263.1 167.531L262.987 167.576L262.817 167.404C263.507 166.716 265.345 166.638 266.905 165.431L267.24 165.493ZM308.62 165.605C307.63 166.134 306.882 166.394 305.84 166.785C305.723 166.666 305.682 166.489 305.612 166.337C306.317 165.747 307.5 165.54 308.423 165.289L308.62 165.605ZM253.878 161.443C253.585 162.208 252.885 162.702 252.255 163.259L251.888 163.114L251.825 162.678C252.438 162.133 252.945 161.746 253.6 161.251L253.878 161.443ZM346.015 159.312L345.995 159.621C344.788 160.865 342.962 162.085 341.372 162.783L340.942 162.743L340.945 162.462C342.578 161.393 344.202 160.31 345.814 159.214L346.015 159.312ZM270.777 159.724C269.317 160.139 267.252 160.959 266.21 159.568C267.757 159.686 269.077 159.568 270.622 159.476L270.777 159.724ZM370.027 157.159C370.577 157.217 370.32 157.134 370.798 157.409C370.1 157.937 369.463 158.167 368.668 158.521L368.322 158.654L368.155 158.457C368.813 157.703 369.11 157.628 370.027 157.159ZM307.902 152.616L307.64 152.95C305.325 153.205 304.747 152.986 303.842 155.323C302.964 157.173 301.22 157.585 299.407 158.147C300.922 157.098 302.22 156.369 303.457 154.991H303.458C303.898 154.092 304.135 153.628 304.442 152.685C305.225 152.5 306.533 152.621 307.605 152.438L307.902 152.616ZM329.2 153.52C328.983 154.297 328.092 155.035 327.492 155.644L327.463 155.004C327.983 154.06 328.275 153.912 329.133 153.205L329.2 153.52ZM317.725 149.535L317.83 149.959C317.135 150.844 316.417 151.713 315.68 152.565L315.44 152.649L315.305 152.426C315.705 151.474 316.81 150.254 317.495 149.409L317.725 149.535ZM327.345 140.108C326.537 141.052 325.753 141.314 324.633 141.862L324.578 141.54C324.921 140.937 326.632 140.037 327.43 139.492L327.345 140.108ZM305.728 139.654C306.617 139.556 307.507 139.379 308.317 139.712L308.338 140.071L307.61 140.65C306.88 140.554 305.758 140.335 305.165 139.904L305.728 139.654ZM151.025 130.755L151.039 131.104C149.241 133.113 148.24 133.163 146.446 134.669L146.268 134.821L145.93 134.648L145.782 134.13C146.555 132.695 149.201 131.619 150.8 130.679L151.025 130.755ZM370.907 129.776C371.482 131.35 371.545 131.855 371.79 133.494C370.773 132.487 369.237 132.943 367.322 132.711L367.332 132.477C369.169 131.265 370.46 131.808 370.907 129.776ZM306.593 126.387C307.438 126.296 308.276 126.13 309.083 126.356L309.103 126.69C308.073 126.833 307.71 126.915 306.692 126.833L306.593 126.387ZM319.343 120.977C319.233 121.97 318.41 123.149 317.718 123.867L317.615 123.252C317.953 122.585 318.503 121.334 319.003 120.855L319.343 120.977ZM168.263 117.113C168.876 116.931 169.336 116.836 170.021 117.096C170.677 117.756 170.507 117.369 170.551 118.296C170.116 119.341 169.44 119.974 168.49 120.458L168.066 120.657L167.651 120.151C167.868 119.486 167.748 119.545 167.559 118.755L167.253 118.692C165.696 120.509 165.796 120.68 163.321 120.768C163.521 119.835 166.535 117.576 167.585 117.314L168.263 117.113ZM329.027 118.48L329.058 118.766L327.465 120.686C327.193 120.643 327.35 120.699 327.062 120.386C327.33 119.658 328.213 118.977 328.812 118.419L329.027 118.48ZM184.586 87.6387C184.938 87.7674 184.771 87.6635 185.062 87.9902C184.725 88.7987 183.872 89.3275 183.16 89.8916L182.691 89.4951L182.791 89.0967C183.539 88.6038 183.78 88.4188 184.428 87.793L184.586 87.6387Z" fill="#FF81B2"/>
</g>
<defs>
<clipPath id="clip0_79_5992">
<rect width="480" height="480" fill="white"/>
</clipPath>
</defs>
</svg>
