<svg width="480" height="480" viewBox="0 0 480 480" fill="none" xmlns="http://www.w3.org/2000/svg">
<g clip-path="url(#clip0_64_2688)">
<path d="M149.573 76.2787C153.874 73.9412 155.066 74.1947 159.224 72.9947C166.584 70.7479 174.102 70.4974 181.72 71.2722C183.744 71.4779 186.515 71.1139 188.461 71.4167C196.461 72.6622 205.626 75.6224 212.34 80.0394C220.712 75.0117 228.615 72.1109 238.221 74.9907C242.981 76.4177 245.344 77.5344 249.323 80.8262C253.805 84.5352 257.272 86.4764 259.122 92.2477C263.377 90.9257 267.797 91.4729 272.207 91.1832C276.225 90.9192 280.175 90.3392 284.212 90.2794C286.87 90.2402 289.917 90.8254 292.48 90.1579C295.18 89.4549 298.212 90.1837 301 90.1039C304.337 90.0084 307.6 89.7669 310.94 90.0824C314.17 90.3877 317.39 91.3034 320.577 91.9209C323.625 92.5112 326.747 92.7299 329.775 93.3749C332.847 94.0294 335.865 95.2174 338.86 96.1599C341.487 96.9867 344.26 97.6409 346.797 98.7014C351.385 100.62 355.67 103.328 359.957 105.827C362.09 107.071 364.335 108.185 366.435 109.473C370.76 112.126 375.205 116.084 378.71 119.756C381.397 122.572 400.802 148.071 401.305 150.282C401.515 151.2 401.475 152.242 401.818 153.117C402.318 154.386 403.405 155.733 404.155 156.889C406.448 160.425 408.435 163.742 409.642 167.825C410.162 169.574 409.99 171.168 410.295 172.913C410.998 176.913 411.628 180.906 411.685 184.983C411.723 187.718 411.255 190.439 411.003 193.156C410.8 195.324 410.835 197.496 410.552 199.661C409.197 210.02 405.125 224.419 399.32 233.046C397.152 236.267 394.973 239.867 392.293 242.671C390.22 244.84 387.75 246.627 385.64 248.779C383.025 251.445 380.76 254.685 378.013 257.175C374.835 260.055 362.527 267.802 358.32 269.597C356.24 270.485 353.977 271.03 351.76 271.45C346.287 272.485 340.555 272.997 335.02 273.627C328.972 274.312 323.455 274.602 317.995 277.625C315.512 279.002 313.012 280.627 310.847 282.467C307.605 285.222 303.5 291.877 298.545 288.667C296.742 287.5 295.962 285.392 295.597 283.365C293.822 273.545 298.33 255.417 303.03 246.515C306.492 239.957 310.947 234.029 313.14 226.833C313.273 226.399 313.2 226.584 313.42 226.18C316.48 224.693 317.37 224.487 320.527 224.913C321.09 224.554 321.492 223.764 321.34 223.104C317.82 222.703 314.35 226.025 313.302 220.096C313.225 218.475 313.795 217.488 312.65 216.075C311.34 215.582 311.262 215.694 310.647 214.583C310.845 213.858 310.897 213.764 310.925 212.991C310.32 212.101 308.862 210.173 308.455 209.365C307.202 206.883 306.025 203.294 303.942 201.337C303.905 201.303 301.32 199.869 300.55 199.299C298.502 197.78 295.682 195.878 293.402 194.798C291.752 194.018 289.412 193.395 287.665 192.772C281.525 190.582 276.255 189.329 269.74 188.882C268.525 188.799 267.06 188.525 265.792 188.565C265.302 188.58 263.105 189.598 262.937 189.603C261.227 189.655 259.347 188.055 257.297 188.273C254.635 188.555 252.015 188.844 249.365 189.079C246.88 189.301 244.33 189.379 241.861 189.616C240.703 189.728 238.647 190.711 237.559 190.712C236.02 190.714 233.903 190.084 232.335 189.924C230.666 189.753 228.088 191.145 226.859 190.243C226.725 190.169 226.591 190.095 226.457 190.02C224.915 189.392 220.104 191.312 218.517 191.903C218.304 191.737 217.403 191.066 217.151 191.073C211.3 191.243 207.425 193.668 201.705 191.734C200.844 192.444 199.4 193.915 198.37 193.542C196.346 192.808 191.182 194.476 189.364 194.003C184.907 192.844 182.182 193.544 177.726 194.475C176.613 194.707 174.111 192.83 173.096 192.064C170.6 192.511 170.432 193.405 169.042 193.426C168.393 192.883 168.351 192.308 168.125 191.472C158.85 192.637 151.6 189.087 142.96 186.38C138.612 185.017 132.428 181.269 129.175 177.878C128.804 177.492 127.97 175.755 127.691 175.178C123.717 173.787 119.241 166.176 116.657 162.636C116.542 161.487 116.442 160.336 116.358 159.184C114.4 156.718 112.017 153.272 112.497 149.807C112.812 147.537 112.607 147.965 112.113 145.733C111.422 142.605 111.445 139.366 111.443 136.188C110.586 128.732 112.575 121.392 115.059 114.476C118.801 104.062 123.459 95.7764 131.491 88.1559C137.241 82.6999 138.265 82.2459 145.482 78.6122C145.934 78.5407 146.387 78.4754 146.84 78.4162C147.685 79.1129 148.061 79.3194 149.141 79.2922L149.561 78.8492C149.914 77.7567 149.77 77.4594 149.573 76.2787ZM129.644 101.037C130.891 100.326 134.21 101.869 134.276 97.9607C133.721 97.1612 132.759 97.0244 131.814 96.8779L131.597 97.1374C130.449 98.4844 127.53 100.459 127.353 101.566C128.249 101.804 128.779 101.455 129.644 101.037ZM276.167 163.085L276.315 163.434L276.672 163.414C277.855 162.364 278.438 161.716 279.477 160.541C279.15 160.033 276.737 159.189 276.037 158.968C275.807 157.771 276.855 157.945 276.252 157.314C275.38 158.113 274.39 160.243 273.997 161.349C274.712 161.918 275.557 162.434 276.167 163.085ZM268.817 98.9692C270.152 98.2689 270.945 97.3997 270.44 95.9069C269.602 95.1782 269.602 95.1462 268.477 95.0714C267.677 95.6382 266.647 96.2059 266.38 97.0497C267.107 98.1664 267.852 97.7499 268.817 98.9692ZM232.485 186.314C233.926 186.218 236.625 185.089 236.465 183.434L236.321 183.347C234.459 184.413 232.761 183.168 231.847 184.645C231.865 185.469 232.044 185.626 232.485 186.314ZM185.147 124.474C185.877 124.06 187.159 123.513 187.496 122.907C187.226 122.815 184.368 122.626 183.841 122.611C183.127 122.875 181.988 123.149 181.554 123.611L181.752 124.243C182.97 124.374 183.913 124.503 185.147 124.474ZM212.556 135.44C213.846 135.238 214.406 135.129 215.646 134.738C216.382 134.967 216.429 135.071 217.016 135.55L217.284 135.373L216.8 134.71C216.971 134.042 216.98 134.084 217.412 133.535L217.23 133.481L216.786 133.558C214.056 134.002 213.495 132.982 211.586 135.459L211.697 135.692C211.967 135.621 212.313 135.55 212.556 135.44ZM126.026 98.7819C126.561 98.4569 128.637 97.1684 129.09 97.0132C131.096 96.2184 132.69 95.7449 134.744 95.1447C133.378 95.1452 132.013 95.1229 130.648 95.0774C128.068 95.6734 127.52 96.5604 126.026 98.7819ZM395.737 202.089C397.537 201.515 398.965 199.417 398.668 197.444C397.303 198.725 396.265 199.587 395.253 201.157C395.315 201.858 395.185 201.545 395.737 202.089ZM116.925 140.808C117.813 140.681 117.411 140.836 118.158 140.275L118.277 139.677C117.443 138.74 117.1 138.994 115.848 139.066C115.069 139.436 114.887 139.455 114.449 140.208C114.655 140.958 114.448 140.633 115.237 141.11C115.993 141.112 116.216 141.013 116.925 140.808ZM133.656 92.0529C135.281 91.0517 137.009 89.2644 134.311 88.1307C133.484 89.1947 133.58 89.6339 133.497 90.9872C133.045 91.3682 133.076 91.3902 132.515 91.5439C132.66 91.6209 132.804 91.6982 132.949 91.7752L133.1 91.4839L133.277 91.8942L133.656 92.0529ZM197.212 177.46C198.612 176.695 198.627 176.126 199.82 175.302C200.196 175.042 202.11 175.396 202.518 175.026C201.938 174.379 201.18 174.133 200.331 174.203C197.623 176.244 198.162 176.254 194.772 177.393C195.287 177.654 196.56 177.496 197.212 177.46ZM333.827 224.461L333.83 224.098L333.495 223.642C334.107 221.646 337.722 220.369 337.5 219.252L336.942 219.177C335.837 219.925 332.822 222.802 332.152 223.873C332.737 224.393 332.935 224.278 333.827 224.461ZM134.88 175.515L135.212 175.351C136.659 174.647 137.16 174.509 138.717 174.126L138.768 173.822C138.116 173.613 137.975 173.517 137.287 173.546C135.527 174.214 134.42 174.669 132.921 175.899L132.865 176.219L133.011 176.233L132.988 176.045C133.747 176.219 134.028 175.982 134.88 175.515ZM228.335 137.032C227.101 135.336 224.568 135.679 222.91 136.56L222.788 136.784C224.096 136.831 225.643 136.785 226.851 137.19C227.112 137.194 228.023 137.068 228.335 137.032ZM400.54 215.828L401.008 216.014C402.712 215.233 402.905 213.519 401.195 212.602L401.095 213.954C400.503 214.415 400.255 214.44 399.51 214.281C399.93 215.043 399.995 215.159 400.54 215.828ZM264.885 186.997C265.757 186.531 267.497 185.92 267.955 185.494L267.965 185.056C267.427 184.579 267.64 184.665 267.01 184.433C266.242 184.891 264.44 185.655 264.09 186.322C264.372 186.93 264.165 186.666 264.885 186.997ZM381.788 235.803C383.858 234.527 384.365 234.205 385.59 231.985L385.555 231.514L385.267 231.394C384.375 232.774 384.055 233.072 382.672 233.959C381.577 234.66 381.13 234.634 381.788 235.803ZM196.318 185.252C196.915 184.958 197.758 184.651 198.1 184.166C197.731 184.114 196.267 183.862 196.037 183.855C195.109 184.256 194.31 184.823 194.192 185.94L194.546 186.168C195.436 185.911 195.539 185.793 196.318 185.252ZM227.322 84.2232C228.019 83.8274 228.229 83.7127 228.848 83.2239C229.859 82.4269 231.36 82.0157 232.499 81.3299L232.243 81.1324L231.332 81.3332C229.6 81.4047 227.692 83.0102 226.527 84.2764C227.102 84.3687 226.838 84.4029 227.322 84.2232ZM204.032 137.45L204.084 137.247C204.586 137.103 204.868 137.049 205.379 136.943L205.49 136.619C204.531 136.178 201.651 135.963 200.751 136.435C201.117 137.037 201.854 137.218 202.549 137.511L204.032 137.45ZM209.654 90.5637C211.166 89.6409 212.283 87.9202 214.611 86.5422L214.415 86.2657C212.723 86.5887 210.637 88.6169 209.38 89.8387C209.364 90.3764 209.284 90.1312 209.654 90.5637ZM344.305 222.532C346.787 221.826 348.622 221.272 350.567 219.5C350.395 219.175 350.517 219.282 350.242 219.142L348.82 220.092C347.535 220.944 344.562 221.696 343.87 222.402L344.305 222.532ZM390.948 154.921C391.428 154.743 391.415 154.795 391.733 154.457C392.963 153.151 394.483 153.999 395.608 153.38L393.435 153.373C391.598 153.463 390.383 154.083 388.91 155.147L388.78 155.503C389.425 155.635 390.285 155.184 390.948 154.921ZM136.028 122.232L136.021 121.686C134.74 121.318 130.945 120.902 129.8 121.385C130.336 121.913 133.724 121.75 135.685 122.34L136.028 122.232ZM399.983 167.459C400.41 167.067 400.333 167.289 400.413 166.842C400.705 165.158 401.67 163.291 402.61 161.869L402.547 161.547L402.413 161.455C401.333 162.596 399.44 166.041 399.55 167.476L399.983 167.459ZM357.397 115.049L357.995 114.821L357.97 114.463L357.61 114.155C357.2 113.799 357.06 113.652 356.707 113.222L356.362 113.106C355.917 113.864 355.482 114.388 355.49 115.244L355.812 115.527C356.66 115.434 356.66 115.397 357.397 115.049ZM268.577 147.566C270.425 146.964 271.88 146.228 272.872 144.473L272.685 144.137L272.09 144.083C271.267 146.137 270.057 146.44 268.037 147.148L267.95 147.463L268.577 147.566ZM169.525 172.619L169.872 172.481C171.576 171.816 172.578 171.651 174.384 171.319L174.245 171.074C173.582 170.922 173.829 170.902 173.194 171.097C171.273 171.368 169.864 171.377 168.498 172.814L168.556 173.263C169.088 173.008 169.081 173.009 169.525 172.619ZM344.4 213.62C345.445 213.39 348.657 212.762 349.43 212.355C348.802 212.267 348.807 212.25 348.187 212.346C346.71 212.494 344.177 212.555 343.307 213.909L343.547 214.063L344.4 213.62ZM254.727 108.347C255.75 108.258 256.272 108.39 256.99 107.863C256.17 107.488 255.37 107.493 254.462 107.412C253.952 107.934 252.837 108.876 252.737 109.464C253.715 109.212 253.9 108.981 254.727 108.347ZM131.457 129.66L131.483 129.017C131.042 128.554 130.193 127.538 129.664 127.318C129.095 128.38 129.012 128.125 129.172 129.066C129.795 129.616 130.598 129.574 131.457 129.66ZM227.281 128.974C228.933 129.562 229.919 128.577 231.391 127.604L231.365 127.296L231.108 127.221C228.444 128.341 228.791 127.905 226.723 128.605L227.281 128.974ZM307.59 140.306L307.82 140.226C309.295 139.73 311.017 139.555 312.195 138.896L312.335 138.495L312.005 138.133C310.045 139.751 307.405 138.965 307.202 140.269C307.33 140.288 307.467 140.352 307.59 140.306ZM224.743 96.0512C226.392 94.8257 227.141 94.1769 228.382 92.4524L228.203 92.2359C227.049 92.7314 225.651 94.4999 224.588 95.5339C224.615 95.9807 224.521 95.8274 224.743 96.0512ZM203.56 132.646C204.6 132.551 207.043 132.157 207.807 131.46C207.264 131.294 207.417 131.279 206.882 131.305C205.424 131.656 204.107 131.923 202.724 132.514L202.913 132.705L203.56 132.646ZM169.936 180.691L170.737 180.85C171.59 180.265 171.355 180.641 171.628 179.799C171.145 179.606 171.281 179.619 171.105 179.631C170.136 179.735 169.005 179.766 168.152 180.184C168.432 180.549 168.728 180.541 169.287 180.616C169.503 180.643 169.719 180.668 169.936 180.691ZM175.272 150.043C176.259 149.462 177.056 149.932 178.173 149.42L177.968 149.542C177.388 149.115 176.074 149.213 175.346 149.239C174.634 149.554 173.315 150.015 172.91 150.587C173.848 150.664 174.358 150.375 175.272 150.043ZM368.895 223.234C370.24 222.366 370.698 222.37 372.217 222.211C371.695 221.664 371.568 221.728 370.802 221.452C369.88 221.953 368.345 222.792 367.763 223.683C368.503 223.701 368.135 223.741 368.895 223.234ZM360.217 188.296C361.295 187.6 362.13 186.868 361.882 185.438C361.345 186.203 360.485 187.287 360.167 188.108L360.217 188.296ZM260.957 106.807C261.542 106.296 262.408 105.676 262.635 104.993C262.34 104.669 262.49 104.751 262.255 104.652C261.555 105.316 261.188 105.649 260.602 106.403C260.837 106.78 260.692 106.674 260.957 106.807ZM403.005 198.895C402.277 199.344 401.01 200.021 400.533 200.655L400.705 200.882L401.14 200.778C401.818 200.409 403.35 199.702 403.695 199.13C403.27 198.817 403.503 198.886 403.005 198.895ZM137.395 93.2669C136.687 93.6277 136.251 93.8532 135.59 94.2882C135.648 94.8557 135.544 94.6102 135.881 95.0337C136.625 94.5514 137.163 94.3102 137.605 93.5477L137.395 93.2669ZM341.375 138.781L341.405 138.362C340.687 138.137 339.505 138.091 338.81 138.382C339.302 138.86 340.707 138.893 341.375 138.781ZM312.59 118.749L315.375 117.597L315.265 117.333C314.155 117.579 313.477 117.662 312.467 118.207L312.305 118.556L312.59 118.749ZM384 222.989C385.212 222.445 386.905 220.931 387.747 219.917L387.707 219.484C385.762 220.599 385.587 221.042 383.992 222.629L384 222.989ZM359.402 217.212C360.382 217.036 361.052 217.084 361.725 216.512L361.687 216.126C360.915 216.24 359.915 216.268 359.4 216.777L359.402 217.212ZM263.952 112.493C262.98 112.85 262.142 113.158 261.19 113.581L261.565 113.708C262.86 113.503 263.125 113.52 264.26 112.936L264.36 112.596L263.952 112.493ZM241.101 113.442C242.191 113.404 243.233 113.507 244.127 112.969L244.43 112.494L244.204 112.4C242.99 112.909 242.374 112.697 241.058 112.524L240.639 112.756C240.823 113.061 240.873 113.168 241.101 113.442ZM335.655 204.702C336.62 204.465 337.437 204.376 338.177 203.752L338.285 203.291C337.415 203.562 336.182 203.824 335.587 204.438L335.655 204.702ZM214.896 106.449C213.704 107.554 212.958 107.796 211.472 108.448L211.536 108.697L212.082 108.662C213.45 108.298 214.579 107.898 215.384 106.657C215.047 106.407 215.219 106.448 214.896 106.449ZM384.328 187.17C384.92 187 386.12 186.776 386.418 186.391C386.025 186.262 385.985 186.218 385.578 186.181C384.613 186.531 384.23 186.56 383.64 187.332L383.935 187.434L384.328 187.17ZM266.912 100.225C266.007 100.661 265.097 101.089 264.185 101.508L264.132 101.766L264.81 101.942C265.607 101.562 266.85 101.061 267.442 100.472L267.292 100.218L266.912 100.225ZM329.697 143.468C330.675 143.057 331.267 142.838 332.285 142.54L332.367 142.172L332.26 142.048C331.237 142.331 330.407 142.458 329.582 143.104C329.612 143.228 329.607 143.379 329.697 143.468ZM139.153 123.658C140.326 123.489 140.612 123.515 141.622 122.964L141.681 122.612L141.335 122.504L138.845 123.443L138.941 123.655L139.153 123.658ZM396.312 232.322C396.925 231.678 397.05 231.762 397.203 231.021C396.608 230.533 396.94 230.693 396.158 230.554C395.785 231.419 395.418 231.77 395.658 232.416L396.312 232.322ZM347.28 254.347C348.015 252.395 348.947 252.735 349.642 251.562C348.292 251.375 347.607 252.545 347.065 253.607C346.28 254.09 345.682 254.27 345.332 254.99C346.07 255.132 346.58 254.72 347.28 254.347ZM156.011 169.689C155.38 170.096 154.135 170.77 153.825 171.366C154.119 171.672 153.973 171.617 154.177 171.674C154.999 171.167 155.884 170.745 156.403 169.955C156.102 169.689 156.25 169.743 156.011 169.689ZM371.427 172.632C372.27 172.494 373.185 172.442 373.845 171.947L373.84 171.592C372.905 171.718 372.22 171.693 371.51 172.279L371.427 172.632ZM199.093 83.2079C198.49 83.6502 197.875 83.9772 197.59 84.6354L198.079 84.5872C198.758 84.2274 199.62 83.9264 199.932 83.3574C199.465 83.2199 199.561 83.2019 199.093 83.2079ZM288.312 185.151C287.675 185.756 287.25 186.007 287.135 186.86L287.295 187.274C287.772 186.728 288.235 186.17 288.682 185.601C288.42 185.202 288.565 185.331 288.312 185.151ZM239.749 96.9762C240.675 96.4822 242.215 95.8964 242.595 95.1379L242.343 95.0697C241.437 95.4127 240.266 95.7464 239.601 96.3974L239.478 97.0189L239.699 97.0322L239.749 96.9762ZM319.222 138.236C318.305 138.886 317.942 139.023 317.45 139.983C317.445 140.233 317.425 140.624 317.452 140.858C317.95 140.252 319.235 138.901 319.222 138.236ZM362.897 206.491C362.212 206.711 361.067 206.987 360.595 207.442C361.017 207.567 360.9 207.586 361.312 207.55C362.302 207.326 362.652 207.325 363.442 206.742L363.282 206.5L362.897 206.491ZM239.686 112.836C238.868 113.004 237.52 113.093 237.141 113.611L237.159 113.797C238.164 113.713 238.676 113.767 239.513 113.268L239.686 112.836ZM359.08 197.336L360.292 196.489L360.172 196.251L359.195 196.089C358.55 196.742 358.367 196.683 358.302 197.391C358.715 197.4 358.695 197.437 359.08 197.336ZM213.34 102.676C212.705 103.259 212.176 103.601 211.94 104.411C212.588 104.374 212.999 103.851 213.519 103.385C214.376 103.586 214.546 103.781 215.262 103.557C214.589 103.187 213.995 103.014 213.34 102.676ZM156.012 90.2737L154.114 90.8959L153.973 91.2062L154.358 91.4484C155.148 91.2347 155.73 91.1809 156.277 90.5967L156.012 90.2737ZM212.54 111.474C213.112 110.843 213.701 110.368 213.85 109.565L213.605 109.205C213.102 109.821 212.433 110.474 212.329 111.221L212.54 111.474ZM282.622 150.202L282.58 149.827C281.505 149.647 281.067 149.741 279.962 149.844C280.797 150.806 281.397 150.45 282.622 150.202ZM191.073 101.818C191.741 101.585 192.199 101.5 192.691 100.995C192.428 100.796 192.562 100.821 192.313 100.84L190.636 101.424L190.694 101.696L191.073 101.818ZM209.872 132.781C210.61 132.306 211.066 132.195 211.413 131.531L211.2 131.272C210.394 131.731 209.985 131.762 209.668 132.438L209.872 132.781ZM390.552 149.697C391.385 149.413 392.147 149.344 392.485 148.73L392.242 148.513C391.31 148.848 390.95 148.802 390.383 149.44L390.552 149.697ZM218.028 169.549C216.98 169.685 216.674 169.633 215.875 170.247L215.88 170.612L216.078 170.533C217.063 170.321 217.528 170.308 218.323 169.737C218.225 169.675 218.126 169.612 218.028 169.549ZM319.615 191.181C319.507 190.352 319.552 189.982 318.985 189.38L318.347 189.117L319.362 191.206L319.615 191.181ZM401.967 181.12C401.275 181.911 399.73 183.53 399.652 184.464L400.062 184.656C400.81 183.256 402.2 182.171 402.44 181.347L401.967 181.12ZM148.571 157.37C149.641 157.799 150.881 157.919 152.035 157.937C150.726 157.057 150.123 157.096 148.571 157.37ZM193.905 174.451L192.021 175.451L192.067 175.655L192.97 175.711C193.709 175.271 194.266 175.132 194.562 174.498L193.905 174.451ZM272.75 154.388C273.462 155.068 274.815 154.759 275.79 154.63C274.82 154.187 273.787 154.147 272.75 154.388ZM175.312 107.576C176.668 107.743 178.125 107.286 179.346 106.697C179.309 106.345 179.394 106.456 179.204 106.302C177.538 106.76 176.627 106.873 175.086 107.229L175.312 107.576ZM234.3 172.453C233.231 172.875 232.633 173.125 232.143 174.244L232.379 174.418L232.613 174.154C233.488 173.639 234.218 173.241 235.125 172.786L235.172 172.51L234.3 172.453ZM211.171 89.8017C211.822 91.1619 212.877 91.7344 214.364 91.8187C213.329 91.0064 212.432 90.1884 211.171 89.8017ZM168.398 154.137L168.64 154.539C169.685 154.558 170.784 154.546 171.816 154.672C170.82 153.616 169.712 153.936 168.398 154.137ZM340.38 143.379C341.515 143.821 342.757 143.905 343.94 143.619L343.702 143.242C342.38 143.195 341.667 143.257 340.38 143.379ZM132.414 140.647C131.668 141.342 130.994 141.829 130.606 142.751L130.81 143.278C131.384 142.639 132.669 141.494 132.646 140.854L132.414 140.647ZM150.078 171.422C149.213 171.942 148.49 172.375 147.663 172.962L147.777 173.242L148.098 173.295C148.986 172.834 149.862 172.504 150.454 171.735C150.208 171.421 150.354 171.495 150.078 171.422ZM161.348 77.7792C162.381 77.3732 163.272 77.1334 164.071 76.3862L164.19 75.8827L163.921 75.5219C162.871 76.0792 161.9 76.4804 161.119 77.3544C161.272 77.7372 161.164 77.6182 161.348 77.7792ZM348.385 127.385C347.845 127.491 347.437 127.484 347.06 127.799C348.327 127.753 349.04 127.778 350.307 127.882L351.075 127.592L351.087 127.313C349.872 127.142 349.61 127.199 348.385 127.385ZM355.297 253.065C356.09 252.935 357.382 252.822 358.002 252.452C357.69 252.422 357.2 252.355 356.882 252.365C355.477 252.4 354.995 252.332 353.762 253.09L353.782 253.36C354.525 253.362 354.605 253.292 355.297 253.065ZM329.79 258.425C328.702 259.757 328.117 260.05 326.422 260.445C326.43 260.812 326.37 260.657 326.56 260.917C328.005 260.677 329.082 260.327 330.005 259.122L330.105 258.67L329.79 258.425ZM262.027 165.969C260.995 166.448 259.955 166.826 259.152 167.603C259.167 167.723 259.137 167.869 259.22 167.959L262.137 166.551L262.237 166.179L262.027 165.969ZM178.825 75.0204C178.372 75.1437 177.567 75.2669 177.325 75.5452L177.232 76.1469L177.133 76.0279L177.305 75.5887L177.142 76.1257C177.425 76.3139 177.534 76.4107 177.845 76.5449C178.852 76.1794 179.183 76.1379 179.951 75.4402L179.969 75.1317C179.386 74.9447 179.428 74.9382 178.825 75.0204ZM333.125 265.912C332.567 266.582 331.692 267.442 331.547 268.247C331.877 268.615 331.697 268.51 332.027 268.64C332.497 267.615 332.827 267.207 333.557 266.345L333.442 266.025L333.125 265.912ZM195.69 130.347C194.344 130.492 193.379 130.524 192.116 131.058L192.066 131.363C192.694 131.51 192.696 131.46 193.343 131.327C194.597 131.052 195.632 130.882 196.815 130.368C196.353 130.1 196.458 130.241 195.69 130.347ZM259.17 149.571L259.365 150.09C260.577 150.489 261.632 150.294 262.822 149.904C262.082 149.372 260.36 149.621 259.17 149.571ZM388.397 158.259C387.387 158.728 386.18 159.182 385.395 159.926L385.392 160.57C386.377 159.985 387.938 159.315 388.427 158.516L388.397 158.259ZM377.872 165.636C376.88 165.688 375.995 165.745 375.008 165.852L374.9 166.057C375.193 166.191 375.505 166.359 375.805 166.442C377.087 166.286 377.415 166.333 378.485 165.696L378.315 165.473L377.872 165.636ZM232.133 158.469C231.286 159.146 230.425 159.805 229.549 160.445L229.581 160.83L229.928 160.974C230.757 160.319 231.857 159.562 232.436 158.723L232.286 158.491L232.133 158.469ZM186.722 155.342C186.136 156.021 184.546 157.78 184.587 158.63C184.717 158.581 184.872 158.566 184.969 158.467C185.727 157.515 186.51 156.583 187.319 155.673L187.179 155.392L186.722 155.342ZM358.225 137.516C359.735 138.883 360.985 138.518 362.8 137.816L362.62 137.542L362.39 137.56C360.977 137.66 359.635 137.578 358.225 137.516ZM153.747 87.2654C152.549 87.8634 151.828 88.1172 150.899 89.0892L151.021 89.3267C151.581 89.1627 151.423 89.2724 151.861 88.9362L152.139 88.7769C153.39 88.0737 153.756 87.9434 155.111 87.4937L155.169 87.2889C154.665 87.2679 154.251 87.2494 153.747 87.2654ZM374.425 245.252C373.625 245.8 371.915 246.793 371.6 247.584C371.87 247.921 371.925 248.023 372.25 248.307C372.922 246.376 374.953 246.248 374.75 245.226L374.425 245.252Z" fill="#E88033"/>
<path d="M152.851 132.003C152.366 130.237 151.926 128.646 151.319 126.893C150.764 125.294 149.849 123.335 149.422 121.769C149.32 121.398 149.86 118.896 149.897 118.248C149.959 117.163 149.277 115.639 149.311 114.691C149.432 111.339 150.9 106.835 152.423 103.874C153.076 102.604 155.614 99.5615 157.002 99.2603C157.447 99.1638 157.326 99.2178 157.757 99.461C159.053 102.957 154.006 107.277 155.493 110.372C155.216 111.038 154.554 111.101 154.549 111.163C154.404 112.966 155.03 115.887 155.801 117.494C155.542 117.911 155.473 117.98 155.138 118.344C155.381 119.201 155.991 119.904 156.423 120.678C160.272 127.55 168.7 131.123 175.91 133.178C181.715 134.833 187.887 135 193.783 136.304C196.957 137.006 199.471 139.388 202.549 137.511L204.032 137.45C206.684 138.102 206.125 137.037 209.75 139.086C214.091 137.52 222.231 137.312 226.851 137.19C227.112 137.195 228.023 137.068 228.335 137.033C230.353 136.97 232.134 136.157 233.966 136.141C240.109 136.087 246.184 135.609 252.303 135.119C254.583 134.936 257.18 135.263 259.498 135.114C270.01 134.29 280.993 134.477 291.23 137.194C295.138 138.23 299.975 140.768 303.498 142.674C306.723 144.525 308.188 147.325 312.085 148.301C314.833 149.27 318.585 148.228 321.06 148.401C324.33 148.629 331.905 149.795 334.648 151.262C339.835 154.037 346.198 161.925 346.288 168.124C346.318 170.277 345.663 171.836 346.365 173.85C346.218 176.457 344.8 185.247 343.655 187.193C340.748 192.143 337.46 198.115 332.34 200.684C331.495 201.109 329.35 200.908 329.453 199.708C329.96 193.768 336.615 189.543 338.29 183.892C339.473 179.214 339.005 176.503 338.025 172.253C337.19 168.638 334.925 164.783 332.18 162.611C329.4 160.413 323.568 157.99 319.995 158.494C318.515 158.702 318.108 158.799 316.498 158.545C315.125 166.167 315.878 170.21 308.368 175.586C305.49 177.644 303.213 178.138 299.68 178.692C298.05 178.82 297.025 178.977 295.548 179.516C294.183 180.015 289.665 178.418 288.348 177.869C282.613 175.48 282.373 169.202 284.985 164.353C286.428 161.676 287.88 158.93 290.078 156.715C291.638 155.048 295.598 152.808 296.438 150.887C294.693 148.068 282.793 145.498 279.338 144.683C276.13 143.927 269.053 143.536 265.818 143.865C264.893 143.959 264.053 144.332 263.095 144.359C260.268 144.438 257.478 144.142 254.648 144.496C253.773 144.606 249.084 145.828 248.661 145.483C248.19 145.099 247.872 144.805 247.239 144.881C246.916 144.92 246.734 145.07 246.453 145.219C246.093 145.411 245.833 145.509 245.425 145.539C242.911 145.724 240.383 145.658 237.864 145.859C232.773 146.265 227.619 146.94 222.517 147.054C221.663 147.074 221.483 148.619 220.418 148.583C218.915 148.532 217.346 147.701 215.736 147.652C212.608 147.555 209.431 147.93 206.275 147.862C204.104 147.816 201.894 147.809 199.732 147.61C197.938 147.445 196.161 147.088 194.362 146.975C189.821 146.689 185.474 146.683 181.075 145.261C179.324 144.695 176.293 143.135 174.61 143.021C174.079 142.985 173.348 143.394 172.867 143.606C170.999 143.481 159.818 137.329 157.41 135.801C156.03 134.926 154.047 133.206 152.851 132.003Z" fill="#4B4746"/>
<path fill-rule="evenodd" clip-rule="evenodd" d="M333.442 266.025L333.558 266.345C332.828 267.208 332.497 267.615 332.027 268.64C331.697 268.51 331.878 268.615 331.548 268.248C331.693 267.443 332.568 266.583 333.125 265.913L333.442 266.025ZM330.105 258.67L330.005 259.123C329.082 260.328 328.005 260.678 326.56 260.918C326.37 260.658 326.43 260.812 326.423 260.445C328.117 260.05 328.703 259.758 329.79 258.425L330.105 258.67ZM349.643 251.562C348.948 252.735 348.015 252.395 347.28 254.347C346.58 254.72 346.07 255.132 345.333 254.99C345.683 254.27 346.281 254.089 347.065 253.607C347.608 252.545 348.293 251.375 349.643 251.562ZM356.883 252.365C357.2 252.355 357.691 252.423 358.003 252.453C357.383 252.823 356.09 252.935 355.298 253.065C354.605 253.292 354.525 253.362 353.782 253.36L353.763 253.09C354.995 252.333 355.478 252.4 356.883 252.365ZM374.75 245.226C374.953 246.248 372.922 246.376 372.25 248.307C371.925 248.024 371.87 247.921 371.601 247.585C371.916 246.793 373.625 245.8 374.425 245.252L374.75 245.226ZM385.555 231.514L385.59 231.985C384.365 234.205 383.857 234.528 381.787 235.803C381.13 234.634 381.578 234.66 382.673 233.96C384.055 233.073 384.375 232.774 385.268 231.394L385.555 231.514ZM396.157 230.554C396.94 230.693 396.607 230.533 397.202 231.021C397.05 231.762 396.925 231.678 396.312 232.323L395.657 232.417C395.417 231.77 395.785 231.419 396.157 230.554ZM313.303 220.096C314.35 226.025 317.82 222.703 321.34 223.104C321.492 223.764 321.09 224.554 320.527 224.914C317.37 224.487 316.48 224.693 313.42 226.18C313.485 224.23 313.285 222.133 313.303 220.096ZM337.5 219.253C337.723 220.369 334.108 221.646 333.495 223.642L333.83 224.098L333.827 224.461C332.935 224.278 332.737 224.392 332.152 223.873C332.823 222.802 335.837 219.925 336.942 219.177L337.5 219.253ZM370.803 221.452C371.568 221.727 371.695 221.664 372.218 222.211C370.698 222.37 370.24 222.366 368.895 223.234C368.135 223.741 368.502 223.701 367.763 223.683C368.345 222.792 369.88 221.953 370.803 221.452ZM387.747 219.918C386.904 220.932 385.212 222.445 384 222.989L383.992 222.628C385.587 221.042 385.762 220.599 387.707 219.484L387.747 219.918ZM350.242 219.142C350.517 219.283 350.395 219.175 350.567 219.501C348.622 221.272 346.787 221.827 344.305 222.533L343.87 222.402C344.563 221.696 347.535 220.944 348.82 220.092L350.242 219.142ZM361.725 216.511C361.052 217.083 360.382 217.036 359.402 217.212L359.4 216.777C359.915 216.269 360.915 216.24 361.688 216.126L361.725 216.511ZM401.195 212.602C402.905 213.518 402.713 215.233 401.008 216.014L400.54 215.829C399.995 215.16 399.93 215.043 399.51 214.281C400.255 214.44 400.502 214.415 401.095 213.954L401.195 212.602ZM348.188 212.345C348.807 212.25 348.803 212.267 349.43 212.355C348.657 212.762 345.446 213.39 344.4 213.62L343.548 214.063L343.308 213.909C344.178 212.555 346.71 212.494 348.188 212.345ZM363.282 206.501L363.442 206.742C362.652 207.325 362.302 207.326 361.312 207.55C360.9 207.586 361.017 207.567 360.595 207.442C361.067 206.987 362.212 206.711 362.897 206.491L363.282 206.501ZM338.178 203.753C337.438 204.377 336.62 204.465 335.655 204.702L335.588 204.438C336.183 203.824 337.415 203.562 338.285 203.292L338.178 203.753ZM398.667 197.444C398.964 199.417 397.537 201.515 395.737 202.089C395.185 201.545 395.315 201.858 395.253 201.158C396.265 199.587 397.302 198.725 398.667 197.444ZM403.005 198.895C403.502 198.886 403.27 198.817 403.695 199.13C403.35 199.702 401.817 200.409 401.14 200.778L400.705 200.882L400.532 200.656C401.01 200.021 402.277 199.344 403.005 198.895ZM360.173 196.251L360.293 196.49L359.08 197.336C358.695 197.438 358.715 197.4 358.303 197.391C358.368 196.684 358.55 196.742 359.195 196.088L360.173 196.251ZM318.985 189.38C319.552 189.982 319.508 190.353 319.615 191.181L319.362 191.206L318.348 189.117L318.985 189.38ZM361.883 185.438C362.13 186.868 361.295 187.6 360.218 188.296L360.168 188.109C360.485 187.287 361.345 186.204 361.883 185.438ZM385.578 186.18C385.985 186.217 386.026 186.262 386.418 186.391C386.121 186.776 384.921 187 384.328 187.17L383.936 187.434L383.641 187.333C384.231 186.56 384.613 186.531 385.578 186.18ZM288.312 185.151C288.565 185.331 288.42 185.203 288.683 185.601C288.235 186.17 287.772 186.728 287.295 187.274L287.135 186.86C287.25 186.007 287.675 185.756 288.312 185.151ZM267.01 184.433C267.64 184.665 267.427 184.579 267.965 185.056L267.955 185.494C267.498 185.92 265.757 186.531 264.885 186.998C264.165 186.667 264.372 186.931 264.09 186.323C264.44 185.656 266.242 184.891 267.01 184.433ZM236.466 183.434C236.625 185.089 233.925 186.218 232.484 186.314C232.044 185.626 231.866 185.469 231.848 184.645C232.761 183.168 234.459 184.413 236.32 183.347L236.466 183.434ZM196.037 183.855C196.269 183.863 197.731 184.114 198.1 184.167C197.758 184.651 196.916 184.959 196.318 185.253C195.539 185.794 195.436 185.911 194.546 186.168L194.192 185.94C194.311 184.824 195.109 184.256 196.037 183.855ZM402.44 181.346C402.2 182.171 400.81 183.257 400.062 184.657L399.652 184.464C399.73 183.53 401.275 181.911 401.968 181.12L402.44 181.346ZM171.105 179.631C171.281 179.619 171.145 179.607 171.628 179.799C171.355 180.642 171.59 180.265 170.737 180.85L169.937 180.691C169.72 180.669 169.503 180.643 169.287 180.616C168.729 180.541 168.432 180.549 168.152 180.184C169.005 179.766 170.136 179.735 171.105 179.631ZM200.331 174.204C201.18 174.133 201.938 174.38 202.518 175.026C202.11 175.396 200.197 175.042 199.82 175.301C198.627 176.126 198.612 176.694 197.213 177.46C196.561 177.496 195.287 177.654 194.772 177.393C198.162 176.254 197.623 176.244 200.331 174.204ZM137.287 173.546C137.975 173.517 138.116 173.614 138.768 173.822L138.718 174.126C137.16 174.509 136.658 174.646 135.212 175.351L134.88 175.515C134.028 175.983 133.747 176.219 132.988 176.045L133.012 176.233L132.865 176.219L132.921 175.9C134.42 174.669 135.527 174.214 137.287 173.546ZM194.562 174.498C194.266 175.132 193.709 175.271 192.97 175.711L192.066 175.655L192.021 175.451L193.905 174.451L194.562 174.498ZM235.173 172.51L235.125 172.787C234.218 173.242 233.488 173.639 232.613 174.154L232.379 174.419L232.144 174.245C232.633 173.125 233.232 172.874 234.301 172.453L235.173 172.51ZM150.078 171.421C150.354 171.494 150.209 171.421 150.455 171.735C149.863 172.504 148.985 172.834 148.098 173.295L147.777 173.243L147.663 172.961C148.49 172.375 149.213 171.941 150.078 171.421ZM173.194 171.097C173.829 170.902 173.582 170.922 174.245 171.074L174.385 171.319C172.579 171.651 171.576 171.816 169.872 172.482L169.525 172.619C169.081 173.009 169.089 173.008 168.557 173.263L168.499 172.815C169.864 171.378 171.273 171.368 173.194 171.097ZM373.845 171.948C373.185 172.442 372.27 172.494 371.428 172.632L371.51 172.279C372.22 171.693 372.905 171.719 373.84 171.592L373.845 171.948ZM156.012 169.689C156.25 169.743 156.102 169.69 156.403 169.956C155.884 170.745 154.999 171.167 154.178 171.673C153.974 171.617 154.119 171.672 153.825 171.367C154.135 170.771 155.38 170.096 156.012 169.689ZM305.59 158.239C306.262 159.359 307.092 159.721 307.875 160.667C309.947 163.167 309.695 167.2 306.982 169.147C303.812 171.424 298.129 170.782 294.52 170.173C290.58 169.62 289.945 165.698 292.52 163.075C294.775 163.118 296.973 160.284 299.062 159.169C299.683 158.838 301.728 159.385 302.522 159.541C303.077 159.161 302.962 159.233 303.27 158.634L304.795 158.248C304.932 158.222 305.427 158.238 305.59 158.239ZM218.323 169.738C217.529 170.308 217.063 170.321 216.078 170.534L215.88 170.613L215.875 170.247C216.674 169.633 216.98 169.685 218.028 169.549C218.126 169.612 218.225 169.675 218.323 169.738ZM262.237 166.178L262.138 166.551L259.22 167.959C259.138 167.869 259.167 167.722 259.152 167.603C259.955 166.826 260.995 166.448 262.027 165.969L262.237 166.178ZM402.548 161.547L402.61 161.87C401.67 163.291 400.705 165.158 400.412 166.842C400.332 167.289 400.41 167.067 399.982 167.46L399.55 167.476C399.44 166.04 401.332 162.595 402.412 161.455L402.548 161.547ZM378.485 165.696C377.415 166.333 377.087 166.286 375.805 166.442C375.505 166.359 375.193 166.192 374.9 166.057L375.008 165.852C375.995 165.746 376.88 165.689 377.872 165.636L378.314 165.473L378.485 165.696ZM276.253 157.314C276.855 157.945 275.807 157.771 276.037 158.967C276.715 159.182 279 159.981 279.44 160.493L279.478 160.542L278.767 161.338C278.109 162.066 277.56 162.627 276.673 163.415L276.315 163.434L276.168 163.086V163.085C275.558 162.433 274.713 161.918 273.998 161.349C274.391 160.243 275.38 158.113 276.253 157.314ZM232.286 158.492L232.437 158.723C231.857 159.562 230.757 160.32 229.929 160.974L229.581 160.831L229.55 160.446C230.425 159.805 231.287 159.146 232.134 158.468L232.286 158.492ZM388.428 158.516C387.938 159.316 386.378 159.985 385.393 160.57L385.396 159.926C386.18 159.182 387.388 158.729 388.397 158.259L388.428 158.516ZM187.179 155.392L187.318 155.672C186.51 156.583 185.727 157.515 184.969 158.467C184.872 158.566 184.717 158.582 184.587 158.63C184.546 157.78 186.136 156.021 186.723 155.342L187.179 155.392ZM148.571 157.37C150.124 157.096 150.726 157.057 152.035 157.937C150.882 157.919 149.642 157.799 148.571 157.37ZM395.607 153.38C394.518 153.98 393.057 153.203 391.849 154.341L391.543 154.647C391.39 154.783 391.307 154.788 390.947 154.921C390.285 155.184 389.425 155.635 388.78 155.503L388.91 155.148C390.383 154.084 391.597 153.462 393.435 153.373L395.607 153.38ZM272.75 154.387C273.787 154.147 274.82 154.188 275.79 154.63C274.815 154.759 273.462 155.067 272.75 154.387ZM168.398 154.137C169.712 153.937 170.821 153.616 171.816 154.671C170.784 154.546 169.685 154.558 168.641 154.54L168.398 154.137ZM175.346 149.239C176.058 149.214 177.331 149.121 177.929 149.517C176.936 149.866 176.186 149.505 175.272 150.043C174.358 150.375 173.848 150.664 172.91 150.587C173.315 150.015 174.634 149.554 175.346 149.239ZM279.963 149.844C281.068 149.742 281.505 149.648 282.58 149.828L282.622 150.203C281.398 150.45 280.798 150.806 279.963 149.844ZM259.17 149.571C260.36 149.621 262.082 149.372 262.822 149.904C261.632 150.294 260.578 150.489 259.365 150.089L259.17 149.571ZM392.485 148.73C392.148 149.344 391.385 149.413 390.553 149.697L390.383 149.44C390.95 148.803 391.31 148.848 392.242 148.513L392.485 148.73ZM177.968 149.543C177.955 149.533 177.942 149.526 177.929 149.517C178.008 149.489 178.09 149.458 178.173 149.42L177.968 149.543ZM272.685 144.137L272.872 144.473C271.88 146.228 270.425 146.964 268.577 147.566L267.95 147.462L268.037 147.148C270.057 146.441 271.267 146.137 272.09 144.084L272.685 144.137ZM340.38 143.379C341.667 143.257 342.38 143.196 343.702 143.243L343.939 143.619C342.757 143.905 341.515 143.821 340.38 143.379ZM332.367 142.172L332.285 142.54C331.268 142.838 330.675 143.057 329.697 143.468C329.608 143.379 329.613 143.228 329.583 143.104C330.408 142.458 331.237 142.331 332.26 142.047L332.367 142.172ZM132.646 140.854C132.67 141.494 131.384 142.639 130.811 143.278L130.606 142.751C130.994 141.829 131.668 141.342 132.414 140.647L132.646 140.854ZM115.849 139.067C117.1 138.995 117.443 138.74 118.277 139.677L118.158 140.276C117.411 140.837 117.813 140.681 116.925 140.808C116.216 141.013 115.993 141.111 115.237 141.11C114.449 140.633 114.655 140.958 114.449 140.209C114.888 139.455 115.07 139.436 115.849 139.067ZM319.223 138.236C319.235 138.901 317.95 140.252 317.452 140.858C317.425 140.624 317.445 140.234 317.45 139.984C317.943 139.023 318.305 138.886 319.223 138.236ZM312.335 138.495L312.195 138.896C311.018 139.555 309.295 139.73 307.82 140.226L307.59 140.306C307.468 140.352 307.33 140.288 307.203 140.269C307.406 138.966 310.045 139.751 312.005 138.132L312.335 138.495ZM338.811 138.381C339.506 138.091 340.688 138.137 341.405 138.362L341.375 138.781C340.708 138.892 339.303 138.86 338.811 138.381ZM358.226 137.516C359.635 137.578 360.977 137.661 362.39 137.56L362.62 137.542L362.8 137.816C360.985 138.518 359.736 138.882 358.226 137.516ZM200.751 136.435C201.651 135.963 204.531 136.179 205.49 136.62L205.379 136.943C204.868 137.049 204.586 137.103 204.084 137.248L204.032 137.45L202.549 137.511C201.854 137.218 201.117 137.037 200.751 136.435ZM222.91 136.56C224.568 135.679 227.101 135.337 228.335 137.033C228.023 137.068 227.112 137.194 226.851 137.19C225.643 136.785 224.096 136.831 222.788 136.784L222.91 136.56ZM217.412 133.535C216.98 134.084 216.971 134.042 216.8 134.71L217.284 135.374L217.016 135.55C216.429 135.071 216.382 134.966 215.646 134.738C214.406 135.129 213.846 135.238 212.556 135.44C212.313 135.55 211.967 135.622 211.697 135.693L211.586 135.459C213.495 132.981 214.056 134.002 216.786 133.558L217.229 133.481L217.412 133.535ZM211.413 131.531C211.066 132.195 210.609 132.307 209.872 132.781L209.669 132.438C209.985 131.762 210.395 131.731 211.2 131.272L211.413 131.531ZM206.883 131.305C207.417 131.279 207.264 131.295 207.807 131.461C207.043 132.157 204.6 132.551 203.561 132.646L202.913 132.705L202.725 132.514C204.107 131.924 205.425 131.656 206.883 131.305ZM195.689 130.347C196.458 130.242 196.354 130.1 196.815 130.368C195.633 130.882 194.597 131.052 193.343 131.327C192.697 131.46 192.694 131.51 192.065 131.363L192.116 131.058C193.378 130.524 194.344 130.493 195.689 130.347ZM129.664 127.318C130.193 127.538 131.042 128.554 131.483 129.017L131.457 129.661C130.598 129.574 129.796 129.616 129.173 129.067C129.012 128.125 129.095 128.38 129.664 127.318ZM231.364 127.296L231.391 127.604C229.919 128.577 228.932 129.562 227.281 128.974L226.723 128.605C228.791 127.905 228.444 128.34 231.108 127.221L231.364 127.296ZM348.385 127.385C349.61 127.199 349.873 127.142 351.088 127.313L351.075 127.592L350.308 127.882C349.04 127.778 348.328 127.754 347.061 127.799C347.438 127.485 347.845 127.491 348.385 127.385ZM183.841 122.611C184.368 122.625 187.226 122.816 187.496 122.908C187.159 123.514 185.877 124.06 185.146 124.474C183.914 124.503 182.97 124.375 181.753 124.244L181.555 123.612C181.988 123.15 183.128 122.875 183.841 122.611ZM141.681 122.612L141.622 122.964C140.612 123.515 140.326 123.489 139.153 123.658L138.941 123.655L138.846 123.443L141.335 122.504L141.681 122.612ZM129.8 121.384C130.945 120.902 134.74 121.318 136.021 121.686L136.027 122.233L135.686 122.34C133.724 121.75 130.336 121.913 129.8 121.384ZM315.375 117.597L312.59 118.75L312.305 118.556L312.468 118.207C313.477 117.662 314.155 117.579 315.265 117.334L315.375 117.597ZM356.708 113.222C357.06 113.652 357.2 113.799 357.61 114.155L357.97 114.463L357.995 114.821L357.397 115.049C356.66 115.397 356.66 115.434 355.812 115.528L355.49 115.245C355.483 114.389 355.917 113.864 356.362 113.106L356.708 113.222ZM239.513 113.268C238.677 113.767 238.164 113.713 237.159 113.797L237.142 113.612C237.521 113.093 238.868 113.004 239.687 112.836L239.513 113.268ZM264.36 112.596L264.26 112.936C263.125 113.52 262.86 113.504 261.565 113.709L261.19 113.582C262.143 113.158 262.98 112.85 263.952 112.493L264.36 112.596ZM244.43 112.494L244.127 112.969C243.232 113.507 242.191 113.404 241.102 113.442C240.873 113.168 240.823 113.06 240.639 112.755L241.059 112.524C242.374 112.697 242.99 112.908 244.204 112.4L244.43 112.494ZM213.85 109.566C213.7 110.368 213.113 110.844 212.541 111.474L212.329 111.221C212.434 110.475 213.102 109.821 213.605 109.205L213.85 109.566ZM254.463 107.413C255.37 107.494 256.17 107.489 256.99 107.864C256.273 108.391 255.75 108.258 254.728 108.347C253.9 108.981 253.715 109.213 252.737 109.464C252.837 108.877 253.953 107.935 254.463 107.413ZM214.896 106.449C215.219 106.448 215.048 106.408 215.385 106.658C214.58 107.899 213.45 108.298 212.082 108.663L211.536 108.698L211.473 108.448C212.958 107.797 213.703 107.554 214.896 106.449ZM179.204 106.302C179.394 106.456 179.31 106.345 179.347 106.698C178.125 107.287 176.668 107.743 175.312 107.576L175.086 107.229C176.627 106.873 177.538 106.76 179.204 106.302ZM262.255 104.652C262.49 104.751 262.34 104.67 262.635 104.994C262.407 105.676 261.543 106.297 260.958 106.807C260.693 106.674 260.838 106.78 260.603 106.403C261.188 105.649 261.555 105.316 262.255 104.652ZM213.34 102.675C213.996 103.014 214.588 103.187 215.262 103.557C214.546 103.781 214.376 103.586 213.519 103.384C212.999 103.851 212.588 104.374 211.94 104.411C212.176 103.601 212.705 103.259 213.34 102.675ZM267.442 100.472C266.85 101.061 265.608 101.562 264.811 101.942L264.133 101.766L264.186 101.508C265.098 101.09 266.007 100.662 266.912 100.225L267.293 100.218L267.442 100.472ZM192.313 100.84C192.562 100.821 192.429 100.797 192.691 100.995C192.199 101.5 191.741 101.585 191.073 101.818L190.693 101.696L190.637 101.423L192.313 100.84ZM131.814 96.8775C132.759 97.024 133.721 97.1611 134.276 97.9605C134.21 101.869 130.891 100.326 129.645 101.038C128.779 101.455 128.25 101.804 127.354 101.566C127.53 100.459 130.45 98.4843 131.598 97.1373L131.814 96.8775ZM268.478 95.0718C269.602 95.1466 269.602 95.1784 270.439 95.9068C270.944 97.3995 270.152 98.269 268.817 98.9693C267.852 97.75 267.107 98.1661 266.38 97.0494C266.648 96.2059 267.678 95.6385 268.478 95.0718ZM130.648 95.0777C132.013 95.1232 133.379 95.1456 134.744 95.1451C132.69 95.7453 131.096 96.2186 129.091 97.0132C128.638 97.1685 126.561 98.4568 126.026 98.7818C127.52 96.5604 128.068 95.6737 130.648 95.0777ZM242.595 95.1382C242.214 95.8966 240.675 96.4822 239.749 96.9761L239.699 97.0328L239.479 97.0191L239.602 96.398C240.266 95.747 241.438 95.4129 242.344 95.0699L242.595 95.1382ZM228.383 92.4527C227.141 94.1772 226.392 94.8258 224.743 96.0513C224.521 95.8279 224.616 95.9803 224.589 95.5338C225.652 94.4997 227.049 92.7313 228.203 92.2359L228.383 92.4527ZM137.605 93.5474C137.163 94.3098 136.626 94.5517 135.882 95.0338C135.544 94.6103 135.648 94.8558 135.59 94.2886C136.251 93.8537 136.687 93.6278 137.395 93.2672L137.605 93.5474ZM134.311 88.1304C137.008 89.2641 135.282 91.052 133.656 92.0533L133.276 91.8941L133.101 91.4839L132.948 91.775C132.804 91.6981 132.66 91.6213 132.516 91.5445C133.076 91.3908 133.045 91.3687 133.497 90.9879C133.58 89.6346 133.484 89.1944 134.311 88.1304ZM211.171 89.8013C212.432 90.1881 213.329 91.0067 214.364 91.8189C212.878 91.7347 211.822 91.1616 211.171 89.8013ZM156.277 90.5963C155.73 91.1805 155.148 91.2351 154.358 91.4488L153.974 91.2066L154.114 90.8961L156.012 90.274L156.277 90.5963ZM214.611 86.5425C212.284 87.9205 211.166 89.6413 209.654 90.564C209.284 90.1315 209.364 90.3762 209.38 89.8384C210.637 88.6167 212.723 86.5882 214.415 86.2652L214.611 86.5425ZM153.747 87.2652C154.251 87.2492 154.665 87.2676 155.169 87.2886L155.11 87.4937C153.756 87.9434 153.39 88.0738 152.14 88.7769L151.861 88.9361C151.424 89.2723 151.581 89.1627 151.021 89.3267L150.899 89.0894C151.829 88.1176 152.549 87.8632 153.747 87.2652ZM199.093 83.2076C199.562 83.2016 199.465 83.2205 199.933 83.358C199.62 83.9268 198.757 84.2278 198.079 84.5875L197.591 84.6353C197.876 83.9773 198.49 83.6497 199.093 83.2076ZM232.499 81.3297C231.36 82.0154 229.859 82.4272 228.849 83.2242C228.229 83.7129 228.019 83.8275 227.322 84.2232C226.839 84.4029 227.102 84.3692 226.527 84.2769C227.692 83.0107 229.6 81.4051 231.332 81.3336L232.243 81.1324L232.499 81.3297ZM149.573 76.2789C149.77 77.4595 149.914 77.7569 149.562 78.8492L149.142 79.2925C148.061 79.3198 147.685 79.1133 146.84 78.4166C146.387 78.4758 145.934 78.5404 145.482 78.6119C146.969 77.6798 148.008 77.0563 149.573 76.2789ZM164.19 75.8824L164.071 76.3863C163.273 77.1335 162.381 77.3729 161.349 77.7789C161.164 77.6179 161.272 77.7368 161.119 77.3541C161.9 76.4802 162.871 76.0792 163.921 75.522L164.19 75.8824ZM178.825 75.0201C179.428 74.9378 179.386 74.9445 179.969 75.1314L179.951 75.44C179.183 76.1377 178.853 76.18 177.846 76.5455C177.534 76.4112 177.425 76.3138 177.142 76.1255L177.16 76.0611L177.232 76.147L177.325 75.5455C177.567 75.2672 178.372 75.1433 178.825 75.0201ZM177.16 76.0611L177.133 76.0279L177.306 75.5884L177.16 76.0611Z" fill="#E88033"/>
</g>
<defs>
<clipPath id="clip0_64_2688">
<rect width="480" height="480" fill="white"/>
</clipPath>
</defs>
</svg>
