<svg width="480" height="480" viewBox="0 0 480 480" fill="none" xmlns="http://www.w3.org/2000/svg">
<g clip-path="url(#clip0_79_8089)">
<path d="M266.213 80.7563C268.313 80.0293 275.62 78.2161 277.835 78.6913C284.1 80.0348 289.643 78.4193 295.993 78.6248C297.633 78.6418 299.565 79.5383 301.15 79.6401C306.245 79.9668 310.545 81.0543 315.388 82.5658C319.82 83.9486 326.005 85.2703 329.335 88.8201C330.578 92.8038 329.785 94.5428 327.878 98.2013L327.708 98.5273C333.925 95.1598 344.793 95.0983 351.75 95.5398C353.8 95.6698 356.048 95.0628 358.13 95.3603C381.608 97.4721 395.378 111.701 384.305 134.927C383.713 136.171 382.508 137.418 382.115 138.652C382.715 139.039 385.138 140.113 385.34 140.316C387.463 142.439 389.738 146.93 390.395 149.826C391.813 156.777 385.363 163.686 380.583 167.867C378.94 169.303 376.185 170.262 374.385 171.345C369.02 174.571 364.36 176.007 358.288 177.477C352.728 178.823 347.02 180.77 341.328 181.785C337.15 182.712 332.505 184.579 328.215 185.322C325.06 185.868 321.57 186.455 318.373 186.764C315.608 187.03 312.418 186.834 309.65 187.286C306.54 187.794 303.145 188.883 300.068 189.535C299.525 189.65 297.553 188.575 296.918 188.249C293.16 189.235 278.058 190.312 274.503 189.234C274.405 189.204 274.303 189.182 274.205 189.156C269.838 190.653 269.088 191.176 264.63 190.06C260.845 189.112 254.143 190 250.343 189.676C246.548 189.353 230.947 186.942 228.185 188.554C227.812 190.358 228.001 192.248 227.501 194.41C226.901 197.334 225.795 200.265 224.856 203.075C222.585 209.873 219.633 216.552 213.542 220.788C212.266 221.676 207.691 222.164 205.488 222.945L205.184 223.056C202.995 221.639 199.832 218.96 198.367 216.77C197.255 222.247 193.982 230.422 190.497 234.836C186.001 240.53 180.318 244.514 172.699 244.091C173.316 251.967 172.91 262.707 167.523 269.097C165.55 271.437 158.781 275.335 155.558 275.842C154.365 276.03 152.107 273.805 150.642 273.182C146.934 271.61 142.986 270.382 139.525 268.28C135.991 266.132 134.161 263.895 131.372 260.997C130.368 259.955 128.113 258.525 126.882 257.325C122.033 252.6 117.49 247.923 113.17 242.701C112.075 241.376 109.442 238.956 108.595 237.801C107.214 235.916 104.259 231.309 103.327 229.232C101.879 226.004 101.022 222.883 99.0323 219.776C99.6011 219.281 100.923 218.523 101.62 218.015C103.238 217.967 104.857 217.929 106.476 217.901C104.875 215.797 104.728 215.125 106.808 213.304L107.039 213.106C104.742 212.004 102.204 215.23 100.778 216.468C100.226 216.946 98.9278 217.647 98.2496 218.087C97.1806 216.624 95.5373 214.311 95.1368 212.463C94.1411 207.868 93.9821 199.248 94.1088 194.559C94.1741 192.144 95.2891 185.135 95.6641 182.619C97.3153 171.546 103.207 158.838 109.84 149.864C111.009 148.284 113.138 146.109 114.521 144.538C116.2 142.722 117.706 140.32 119.452 138.603C125.55 132.674 131.695 127.255 138.722 122.391C147.862 116.079 158.192 110.41 168.171 105.49C177.004 101.136 186.945 98.0118 195.895 93.7691C197.882 92.9533 200.066 92.5313 202.061 91.7621C207.758 89.5648 213.382 87.5571 219.305 85.9796C223.328 84.9083 228.968 82.5538 233.103 82.9153C235.191 83.0783 237.991 82.0663 240.161 81.4103C244.095 80.2216 250.203 81.2016 253.495 80.5731C260.718 79.1946 258.813 78.3763 266.213 80.7563ZM185.54 180.564C186.979 180.135 189.366 178.475 189.629 176.936C189.141 176.537 188.815 176.399 188.086 176.428C186.497 177.303 184.995 178.285 183.953 179.806L183.906 180.364C184.574 180.75 184.615 180.595 185.54 180.564ZM104.761 222.684L105.669 221.666C105.599 220.981 105.55 221.046 105.74 220.391C106.378 220.153 107.094 220.003 107.485 219.549C106.849 218.947 106.18 219.097 105.303 219.162C104.042 220.082 102.424 221.514 102.793 223.287L103.217 223.582C104.015 223.405 104.15 223.21 104.761 222.684ZM168.291 120.625C170.432 120.052 170.975 119.988 173.178 119.823C173.901 119.147 174.728 118.57 174.927 117.64C174.625 117.098 174.772 117.267 174.281 116.869C173.001 120.054 169.778 118.654 167.932 120.264C168.123 120.619 167.985 120.521 168.291 120.625ZM155.056 225.196C155.927 224.868 160.4 222.923 160.748 222.323L160.368 222.261C159.444 222.596 154.969 223.963 154.613 224.181C154.292 224.895 154.287 224.56 154.51 225.214C155 225.232 154.827 225.288 155.056 225.196ZM131.729 232.559C130.999 232.948 130.044 233.338 129.633 233.999C130.468 234.117 131.866 233.529 132.735 233.239C133.802 232.849 135.265 232.143 134.966 230.746L134.369 230.644C133.258 231.035 132.619 231.761 131.729 232.559ZM305.85 174.752C307.585 174.483 310.955 174.104 312.44 173.333L312.735 172.882L312.448 172.495C309.785 173.998 307.933 173.061 305.705 174.499L305.85 174.752ZM309.395 93.8056C309.963 93.2396 312.423 88.0496 312.908 86.9951L312.788 86.4161C311.76 87.4866 309.23 92.6521 309.395 93.8056ZM375.403 144.958C376.76 145.33 378.573 145.249 379.63 144.22C378.85 143.842 377.113 144.78 375.285 144.245C374.51 143.62 374.813 144.014 374.513 142.91C373.715 143.599 372.113 144.772 371.253 145.357C372.485 145.268 374.233 145.203 375.403 144.958ZM236.377 187.508C237.758 186.769 239.46 185.457 240.773 184.507L240.868 184.152L240.742 184.012C239.187 184.596 237.455 185.744 236.164 186.785L236.115 187.206L236.377 187.508ZM192.798 200.53C193.527 200.324 194.779 200.099 195.225 199.573C194.713 199.142 194.991 199.295 194.344 199.186C193.503 199.519 192.569 199.798 191.915 200.397C192.468 200.647 192.175 200.597 192.798 200.53ZM378.023 124.443C376.973 125.046 374.105 126.29 373.67 126.836L373.908 126.925C375.185 126.506 377.358 125.773 378.288 124.833L378.253 124.546L378.023 124.443ZM374.448 132.402C375.2 132.275 375.19 132.307 375.85 131.944L375.853 131.761C375.19 131.572 375.2 131.526 374.528 131.493C373.773 131.752 373.12 131.854 372.67 132.472C373.288 132.783 373.585 132.558 374.448 132.402ZM281.665 173.838C282.433 173.171 283.555 172.263 284.18 171.508L284 171.238C283.105 171.81 281.898 172.455 281.295 173.272C281.408 173.753 281.278 173.568 281.665 173.838ZM346.998 162.264C348.035 161.581 348.643 161.166 349.615 160.364L349.523 160.068L349.89 159.893L349.95 160.039L349.455 160.075L350.073 159.875L350.03 159.792C348.723 160.234 347.08 161.369 345.728 162.116C344.498 162.547 344.27 162.612 343.248 163.404L342.993 163.942L343.253 164.068C344.555 163.333 345.56 162.697 346.998 162.264ZM131.172 180.374C132.42 180.916 133.037 180.886 134.339 180.458C133.207 180.115 132.36 180.23 131.172 180.374ZM331.463 156.149C332.058 155.508 333.375 154.233 333.655 153.502L333.593 153.227C332.645 154.006 331.978 154.426 331.4 155.505L331.463 156.149ZM160.59 141.704C160.054 140.882 158.503 140.107 157.581 140.449C158.083 141.083 159.773 141.535 160.59 141.704ZM308.163 154.955C307.185 155.744 305.278 156.675 305.34 157.767C306.463 157.176 308.338 156.445 308.163 154.955ZM165.921 196.8C166.525 196.364 168.16 195.374 168.295 194.843L168.178 194.773C167.164 195.216 166.408 195.429 165.683 196.249L165.703 196.626L165.921 196.8ZM170.869 149.38C172.052 149.833 172.618 149.939 173.871 149.564C172.929 149.062 171.968 149.265 170.869 149.38ZM126.951 153.49C126.145 153.806 125.394 154.095 124.607 154.457L124.751 154.715L125.059 154.756C125.862 154.491 126.819 154.262 127.439 153.731C127.185 153.439 127.346 153.523 126.951 153.49ZM146.793 139.6C147.547 139.301 148.753 138.99 149.119 138.439L148.806 138.267C148.041 138.472 146.714 138.69 146.254 139.241C146.634 139.585 146.439 139.493 146.793 139.6ZM171.292 154.853L169.241 155.35L169.115 155.597L169.558 155.761C170.418 155.603 170.911 155.578 171.667 155.123L171.64 154.851L171.292 154.853ZM156.326 134.583C157.597 135.315 158.743 135.631 160.12 134.885C158.779 134.56 157.691 134.599 156.326 134.583ZM169.375 226.953C171.711 225.388 174.967 225.689 175.392 224.438L175.284 224.35C173.867 224.804 170.138 225.68 169.254 226.248L169.143 226.613L169.375 226.953ZM321.185 170.253C320.22 170.84 319.035 171.467 318.268 172.261L318.213 172.658L318.368 172.756C319.335 172.146 320.663 171.437 321.348 170.582L321.185 170.253ZM313.523 165.328C312.115 165.631 310.76 165.838 309.49 166.507L309.455 166.826L309.533 166.885C310.638 166.665 313.093 166.336 313.708 165.484L313.523 165.328ZM270.533 159.38L270.683 159.872C271.483 160.193 273.958 159.757 275.105 159.738L274.998 159.36C273.588 159.143 271.968 159.269 270.533 159.38ZM271.515 165.164C270.67 165.64 267.945 166.901 267.658 167.434L267.935 167.714C269.22 167.195 270.88 166.453 271.885 165.484C271.763 165.378 271.638 165.271 271.515 165.164ZM256.145 180.596C257.545 179.598 258.785 178.698 260.123 177.621C260.053 177.27 260.143 177.399 259.903 177.207C258.97 177.811 256.163 179.424 255.945 180.415L256.145 180.596ZM308.213 152.119C308.3 153.142 308.115 153.133 308.67 153.656C309.978 153.621 310.795 153.128 312.11 152.742L311.988 152.41C309.775 152.431 310.225 153.053 308.213 152.119ZM334.29 172.875C333.49 173.869 331.933 176.371 331.543 177.546L331.82 177.852C332.188 177.394 334.225 174.004 334.638 173.263L334.29 172.875ZM185.259 197.534C184.388 198.078 184.049 198.175 183.61 199.048C183.578 199.895 183.535 200.205 184.236 200.944C184.576 201.3 184.951 201.622 185.355 201.904C185.11 200.774 184.882 200.35 184.341 199.315C184.537 198.528 184.862 198.298 185.398 197.616L185.259 197.534ZM139.191 155.443C141.007 156.955 141.443 156.71 143.836 156.652C143.133 155.477 140.501 155.498 139.191 155.443ZM299.048 181.214C297.385 181.98 295.79 182.683 294.61 184.128L294.655 184.516L294.95 184.611C296.063 183.177 297.838 182.659 299.423 181.538L299.3 181.28L299.048 181.214ZM149.963 134.741C151.376 133.704 152.968 133.28 154.22 132.196L154.18 131.815L153.794 131.737C152.608 132.411 150.698 133.417 149.709 134.25L149.716 134.641L149.963 134.741ZM158.516 149.267C156.928 150.33 157.173 150.493 155.317 149.802C154.73 150.09 154.534 150.5 154.157 151.043C155.392 151.203 157.997 150.833 158.731 149.745C158.617 149.318 158.728 149.452 158.516 149.267Z" fill="#3EB7B8"/>
<path d="M312.422 118.171C315.497 118.179 318.097 120.102 319.65 122.622C319.052 131.175 316.937 135.776 310.727 142.037C310.085 142.684 308.99 143.898 308.285 143.634C306.982 143.149 304.667 144.263 303.072 144.496C299.635 145.001 295.98 145.993 292.52 145.389C290.757 145.082 289.59 144.1 288.14 143.106C286.435 145.659 283.175 151.881 278.29 151.195C276.422 150.932 275.86 151.991 274.417 152.544C272.207 153.39 269.632 152.506 267.015 152.757L266.575 152.801C263.372 149.803 264.41 152.045 261.215 151.628C258.99 150.895 256.255 150.282 254.082 149.652C249.759 148.399 252.29 148.695 249.472 151.558C247.153 153.915 243.963 155.337 240.815 156.681C236.644 155.58 231.898 154.958 227.737 153.757C226.219 153.318 223.09 151.409 221.671 150.495C220.542 149.768 216.518 147.924 215.838 147.376C212.726 144.87 207.554 141.073 204.934 138.274C205.73 134.856 206.359 134.122 208.821 131.653C213.769 135.331 217.552 138.472 222.938 141.561C223.158 141.7 223.38 141.836 223.604 141.97C229.861 145.756 235.782 147.954 243.222 146.225C244.016 146.041 244.114 145.82 244.408 145.266C244.04 143.43 240.84 141.466 239.578 140.085C238.632 138.7 236.305 138.458 235.242 137.502C229.291 132.153 232.356 125.99 235.989 121.22C236.649 121.204 238.567 121.166 239.147 121.395C244.003 123.254 246.116 128.69 249.729 131.941C254.177 135.943 262.27 138.705 268.12 139.81C271.395 140.429 275.61 140.253 278.902 140.147C274.277 136.638 273.25 136.685 269.002 131.557C273.207 121.863 273.67 116.489 283.602 126.251C288.815 131.374 291.075 132.697 298.205 132.359C305.03 132.035 304.647 134.393 310.46 128.878C310.507 126.118 310.155 123.596 310.245 120.769C311.005 119.654 311.512 119.134 312.422 118.171Z" fill="#4B4746"/>
<path d="M134.966 230.746C135.265 232.142 133.801 232.85 132.734 233.239C131.865 233.53 130.468 234.117 129.633 233.999C130.043 233.338 130.999 232.949 131.729 232.56C132.618 231.761 133.258 231.035 134.369 230.645L134.966 230.746ZM175.392 224.438C174.967 225.689 171.71 225.388 169.375 226.953L169.144 226.613L169.254 226.248C170.138 225.68 173.866 224.804 175.283 224.351L175.392 224.438ZM160.748 222.322C160.4 222.922 155.927 224.868 155.056 225.196C154.827 225.289 155 225.232 154.51 225.214C154.286 224.561 154.292 224.895 154.613 224.181C154.971 223.963 159.443 222.597 160.367 222.262L160.748 222.322ZM105.303 219.162C106.179 219.097 106.849 218.947 107.484 219.549C107.094 220.003 106.378 220.153 105.739 220.392C105.549 221.046 105.599 220.981 105.669 221.666L104.761 222.684C104.149 223.21 104.015 223.406 103.217 223.582L102.793 223.287C102.424 221.514 104.042 220.082 105.303 219.162ZM100.777 216.468C102.204 215.23 104.742 212.004 107.038 213.106L106.808 213.304C104.727 215.125 104.875 215.797 106.476 217.901C104.856 217.929 103.238 217.967 101.619 218.016C100.922 218.524 99.6009 219.281 99.0322 219.776C98.7722 219.337 98.4665 218.577 98.249 218.087C98.9273 217.647 100.226 216.946 100.777 216.468ZM185.397 197.616C184.862 198.298 184.537 198.528 184.341 199.314C184.882 200.35 185.11 200.774 185.354 201.904C184.951 201.622 184.576 201.3 184.235 200.944C183.535 200.205 183.577 199.895 183.609 199.048C184.048 198.175 184.388 198.079 185.259 197.534L185.397 197.616ZM194.344 199.187C194.99 199.295 194.713 199.142 195.225 199.573C194.779 200.099 193.527 200.325 192.798 200.53C192.175 200.598 192.468 200.647 191.915 200.397C192.569 199.798 193.502 199.519 194.344 199.187ZM168.295 194.843C168.159 195.374 166.525 196.364 165.921 196.8L165.703 196.626L165.684 196.249C166.408 195.43 167.164 195.217 168.178 194.773L168.295 194.843ZM240.867 184.152L240.772 184.507C239.46 185.457 237.758 186.769 236.377 187.508L236.114 187.206L236.164 186.785C237.454 185.744 239.187 184.596 240.742 184.012L240.867 184.152ZM299.3 181.28L299.423 181.538C297.838 182.659 296.063 183.177 294.95 184.61L294.655 184.516L294.61 184.128C295.79 182.683 297.385 181.98 299.048 181.215L299.3 181.28ZM131.172 180.374C132.36 180.23 133.206 180.115 134.338 180.458C133.036 180.886 132.419 180.916 131.172 180.374ZM188.086 176.428C188.815 176.399 189.141 176.537 189.628 176.937C189.365 178.475 186.979 180.135 185.539 180.564C184.615 180.596 184.573 180.75 183.905 180.364L183.952 179.806C184.994 178.285 186.497 177.303 188.086 176.428ZM259.902 177.208C260.142 177.399 260.053 177.27 260.123 177.621C258.786 178.698 257.545 179.598 256.146 180.596L255.945 180.415C256.164 179.424 258.97 177.812 259.902 177.208ZM334.638 173.264C334.225 174.005 332.188 177.392 331.82 177.852L331.543 177.546C331.933 176.371 333.49 173.869 334.29 172.875L334.638 173.264ZM312.735 172.882L312.44 173.333C310.956 174.103 307.586 174.483 305.851 174.752L305.705 174.499C307.932 173.061 309.785 173.998 312.447 172.495L312.735 172.882ZM284.18 171.509C283.555 172.264 282.432 173.171 281.665 173.838C281.278 173.568 281.407 173.752 281.295 173.271C281.897 172.455 283.105 171.81 284 171.238L284.18 171.509ZM321.348 170.583C320.663 171.438 319.335 172.146 318.367 172.756L318.213 172.658L318.268 172.262C319.035 171.468 320.22 170.84 321.185 170.253L321.348 170.583ZM271.885 165.484C270.88 166.453 269.22 167.195 267.935 167.714L267.657 167.434C267.945 166.901 270.67 165.64 271.515 165.164C271.637 165.271 271.762 165.378 271.885 165.484ZM313.708 165.484C313.093 166.337 310.637 166.666 309.532 166.886L309.455 166.826L309.49 166.507C310.76 165.838 312.115 165.632 313.522 165.328L313.708 165.484ZM350.072 159.875L349.904 159.929L349.89 159.894L349.621 160.021L349.455 160.075L349.522 160.069L349.615 160.363C348.643 161.166 348.035 161.581 346.997 162.264C345.56 162.697 344.555 163.334 343.253 164.068L342.992 163.942L343.247 163.404C344.27 162.612 344.498 162.547 345.728 162.116L346.247 161.819C347.485 161.096 348.886 160.179 350.03 159.792L350.072 159.875ZM349.95 160.039L349.522 160.069V160.068L349.621 160.021L349.904 159.929L349.95 160.039ZM270.532 159.38C271.967 159.27 273.587 159.143 274.997 159.36L275.105 159.738C273.958 159.757 271.483 160.193 270.683 159.872L270.532 159.38ZM308.162 154.955C308.337 156.445 306.462 157.176 305.34 157.768C305.277 156.675 307.185 155.744 308.162 154.955ZM139.19 155.442C140.501 155.497 143.132 155.477 143.836 156.652C141.443 156.71 141.007 156.954 139.19 155.442ZM333.655 153.502C333.375 154.233 332.058 155.507 331.463 156.148L331.4 155.505C331.978 154.426 332.645 154.007 333.593 153.228L333.655 153.502ZM171.666 155.123C170.91 155.578 170.418 155.602 169.558 155.761L169.115 155.598L169.24 155.351L171.291 154.853L171.64 154.851L171.666 155.123ZM126.951 153.49C127.345 153.523 127.185 153.44 127.438 153.731C126.819 154.262 125.862 154.491 125.059 154.756L124.75 154.715L124.606 154.457C125.393 154.095 126.145 153.806 126.951 153.49ZM308.213 152.119C310.225 153.053 309.775 152.431 311.987 152.41L312.11 152.742C310.795 153.128 309.977 153.621 308.67 153.656C308.115 153.133 308.3 153.142 308.213 152.119ZM158.516 149.268C158.727 149.452 158.616 149.318 158.73 149.745C157.996 150.833 155.391 151.204 154.156 151.043C154.534 150.5 154.73 150.09 155.317 149.802C157.173 150.492 156.927 150.33 158.516 149.268ZM170.868 149.381C171.967 149.265 172.929 149.062 173.87 149.564C172.618 149.94 172.051 149.834 170.868 149.381ZM374.513 142.91C374.813 144.014 374.51 143.62 375.285 144.245C377.113 144.78 378.85 143.842 379.63 144.221C378.572 145.249 376.76 145.329 375.402 144.958C374.233 145.203 372.485 145.268 371.253 145.356C372.113 144.772 373.715 143.599 374.513 142.91ZM157.581 140.449C158.503 140.107 160.054 140.882 160.59 141.704C159.773 141.535 158.084 141.083 157.581 140.449ZM282.703 139.347C283.653 139.285 284.393 139.167 285.315 139.397L285.173 139.77C284.138 140.02 283.8 140.283 282.897 139.99L282.703 139.347ZM149.118 138.439C148.753 138.991 147.546 139.301 146.793 139.601C146.439 139.493 146.634 139.585 146.254 139.241C146.714 138.691 148.041 138.471 148.806 138.267L149.118 138.439ZM156.325 134.583C157.691 134.6 158.779 134.56 160.12 134.886C158.742 135.632 157.596 135.316 156.325 134.583ZM154.18 131.815L154.22 132.196C152.968 133.28 151.375 133.704 149.962 134.741L149.716 134.642L149.709 134.251C150.698 133.417 152.608 132.411 153.794 131.737L154.18 131.815ZM374.527 131.493C375.2 131.526 375.19 131.572 375.853 131.762L375.85 131.944C375.19 132.307 375.2 132.276 374.447 132.402C373.585 132.558 373.287 132.783 372.67 132.472C373.12 131.854 373.772 131.752 374.527 131.493ZM378.252 124.547L378.287 124.833C377.357 125.773 375.185 126.507 373.907 126.926L373.67 126.836C374.105 126.29 376.972 125.046 378.022 124.443L378.252 124.547ZM174.28 116.869C174.771 117.267 174.624 117.098 174.927 117.641C174.728 118.57 173.901 119.148 173.178 119.823C170.974 119.988 170.431 120.052 168.29 120.625C167.984 120.521 168.122 120.619 167.932 120.265C169.778 118.654 173.001 120.054 174.28 116.869ZM312.907 86.9951C312.422 88.0496 309.962 93.2397 309.395 93.8057C309.23 92.6519 311.76 87.4865 312.787 86.416L312.907 86.9951Z" fill="#3EB7B8"/>
</g>
<defs>
<clipPath id="clip0_79_8089">
<rect width="480" height="480" fill="white"/>
</clipPath>
</defs>
</svg>
