<svg width="480" height="480" viewBox="0 0 480 480" fill="none" xmlns="http://www.w3.org/2000/svg">
<g clip-path="url(#clip0_79_4243)">
<path d="M223.855 81.9466C237.695 74.7351 254.072 76.1684 269.15 77.5164C272.837 77.8461 277.67 79.9481 281.312 80.6946C289.535 82.4116 297.852 84.0449 305.167 88.3896C308.362 89.3694 311.652 89.8791 314.722 91.2154C325.81 96.0404 335.322 102.871 345.255 109.64C357.655 118.09 368.565 130.117 376.042 143.107C379 148.242 380.617 154.889 382.335 160.519C382.777 162.885 382.672 165.594 382.79 167.968C382.9 170.141 383.465 172.739 383.432 174.79C383.215 188.69 381.23 202.197 373.87 214.255C372.16 217.967 370.762 221.913 368.972 225.577C367.81 227.951 366.37 230.188 365.122 232.518C359.067 243.827 350.182 255.54 339.222 262.377C337.145 263.672 333.852 263.18 331.472 262.96C329.58 264.127 328.412 265.885 326.657 267.08C325.245 268.042 322.902 269.16 321.282 269.687C317.372 270.967 310.02 274.907 306.637 270.977C304.895 265.657 315.947 250.877 318.035 245.248C319.082 242.428 321.645 238.814 322.462 235.724C322.982 234.036 321.955 231.734 322.482 229.162C321.622 227.712 320.157 225.174 318.862 224.204C316.625 222.524 312.112 218.441 309.66 217.425C299.412 213.179 288.752 209.904 278.982 204.536C277.31 203.496 275.68 202.47 273.95 201.521C271.922 200.409 269.49 199.802 267.452 198.819C263.417 196.872 259.635 196.084 255.387 194.874L240.487 190.474C238.485 189.874 235.855 188.262 234.159 187.841C231.333 187.138 226.496 186.552 223.67 186.53C213.532 186.452 215.763 181.781 218.623 174.961C219.022 174.009 219.268 171.464 219.593 170.391C220.123 167.646 221.618 164.142 221.542 161.498C221.436 157.8 223.61 155.244 225.382 151.953C224.891 150.579 224.502 149.768 224.579 148.291C225.399 146.944 226.941 146.128 227.144 145.124C225.491 144.752 224.681 146.151 224 147.361C220.919 149.006 220.966 150.156 218.586 152.066C209.707 159.192 205.193 171.813 195.773 177.917C194.139 178.976 186.286 174.885 184.455 173.962C180.253 174.936 177.114 175.757 173.653 172.494C173.639 171.615 173.35 168.917 173.472 168.262C174.807 161.732 178.611 155.861 181.536 149.904C182.957 147.009 183.698 144.907 184.898 141.951C185.558 141.093 186.196 140.212 186.948 139.437C187.713 139.11 188.803 138.606 189.12 137.877L188.75 137.663C187.474 137.853 187.084 138.331 186.255 139.344C185.359 139.821 184.963 140.051 184.15 140.653C179.653 145.697 175.401 149.566 170.006 153.55C168.616 154.577 167.277 156.08 165.981 157.257C162.889 160.229 160.638 163.923 157.814 167.13C156.563 168.591 154.204 170.444 152.654 171.706C150.226 170.68 142.314 167.169 140.175 166.562C132.602 164.411 126.899 163.649 119.671 159.839C119.443 156.084 120.303 154.412 121.263 150.947C125.476 135.738 135.857 123.397 146.246 111.912C153.784 103.58 163.905 95.9186 174.341 91.7021C177.705 90.3426 181.062 88.2996 184.446 86.9421C191.972 84.2361 202.373 81.0234 210.246 80.1539C214.201 79.7169 220.27 80.4656 223.855 81.9466ZM226.869 137.42C227.724 137.126 229.245 136.748 229.81 136.187C229.356 135.152 228.34 135.428 227.404 134.048L226.866 133.858C226.297 134.553 224.856 136.034 224.874 136.691L225.656 136.754L226.074 137.472C226.408 137.471 226.556 137.503 226.869 137.42ZM193.173 100.284L193.702 100.237C193.298 99.2379 192.416 98.6751 191.493 98.1876C190.884 98.1699 190.579 98.1341 189.97 98.2151C189.597 99.2131 189.209 99.6654 189.496 100.487C190.562 101.019 191.985 100.578 193.173 100.284ZM252.827 116.925C250.632 117.097 250.097 117.433 248.161 118.504C249.857 118.227 252.477 117.881 254.04 117.381C254.695 117.066 255.155 116.666 255.407 115.994C255.295 115.097 255.46 115.485 254.907 114.782C253.577 114.16 252.48 114.788 251.585 115.769C251.44 116.491 251.352 116.185 251.7 116.739L252.827 116.925ZM324.45 226.891C325.782 225.956 327.125 223.864 327.15 222.21L326.87 221.913C325.652 223.001 324.74 224.529 324.145 226.041C324.205 226.668 324.075 226.4 324.45 226.891ZM205.021 97.2041C206.162 96.3551 209.029 94.8561 209.349 94.5021C208.774 94.0929 208.324 94.1099 207.621 94.0219C206.805 94.8431 203.998 97.1414 203.813 97.5991C204.463 97.5711 204.44 97.5284 205.021 97.2041ZM230.1 132.372C231.731 131.779 232.94 131.151 234.116 129.812L233.983 129.542L233.683 129.489C232.723 129.99 230.161 131.188 229.598 131.861C229.784 132.073 229.875 132.217 230.1 132.372ZM265.515 87.9216C266.905 87.9196 269.24 86.9381 269.712 85.6194L269.382 85.5116C268.55 85.8699 265.542 87.0424 265.14 87.5854L265.515 87.9216ZM283.012 140.72C282.807 139.59 282.305 139.645 281.232 139.35L280.885 138.838C281.055 138.446 281.215 138.051 281.37 137.653L280.95 137.365C280.607 137.804 279.742 138.846 279.477 139.259C280.615 139.769 281.83 140.366 283.012 140.72ZM188.429 127.817C189.436 126.839 192.695 124.221 193.047 123.569L192.741 123.423C190.978 124.597 189.477 125.772 188.134 127.433C188.293 127.803 188.164 127.705 188.429 127.817ZM250.067 171.35C251.08 170.917 252.795 170.298 253.557 169.61C253.062 169.396 253.295 169.424 252.872 169.446C251.597 169.934 250.685 170.227 249.535 170.996L249.465 171.358C249.581 171.359 249.973 171.375 250.067 171.35ZM250.072 95.7154C249.083 94.8744 247.925 95.2094 246.707 95.3771C247.511 96.0139 248.956 95.7769 250.072 95.7154ZM350.99 164.03C350.01 164.263 349.62 164.277 348.825 164.848L348.922 165.112L349.3 164.989C350.325 164.766 350.645 164.751 351.535 164.245L351.46 164.023L350.99 164.03ZM235.561 148.596C236.252 148.377 237.082 148.21 237.585 147.736C237.258 147.529 237.412 147.572 237.15 147.535C236.43 147.724 235.339 147.927 234.804 148.362C235.255 148.608 235.068 148.57 235.561 148.596ZM202.142 128.467C201.254 128.836 200.841 128.928 200.169 129.582L200.801 129.535C201.554 129.343 202.585 129.176 203.134 128.698C202.555 128.461 202.772 128.504 202.142 128.467ZM301.2 94.6206C300.055 94.0369 299.285 94.1759 298.007 94.3801C299.277 94.9066 299.822 94.8479 301.2 94.6206ZM291.905 135.79C292.732 135.533 293.24 135.454 293.892 134.88C293.382 134.745 293.605 134.748 293.232 134.788C292.597 134.995 291.655 135.17 291.33 135.611L291.905 135.79ZM221.027 85.7996C221.8 85.3656 223.13 84.7434 223.596 84.0721L223.401 83.7914L222.826 83.6881C222.087 84.1691 220.641 84.9649 220.272 85.6646C220.455 85.7004 220.858 85.7916 221.027 85.7996ZM350.662 141.264C351.462 140.697 352.052 140.269 352.802 139.641L352.612 139.229C351.475 139.807 351.307 139.85 350.417 140.718L350.392 141.108L350.662 141.264ZM185.214 99.7361L185.675 99.3816C185.043 99.1424 184.488 99.2694 183.803 99.3316L183.323 99.7829C183.801 100.099 184.51 99.8599 185.214 99.7361ZM364.805 169.47C363.712 170.083 362.48 170.655 361.65 171.555L361.707 171.947L362.017 172.093C362.827 171.506 364.605 170.355 365.09 169.604L364.805 169.47ZM235.191 107.105C236.073 107.902 237.375 107.793 238.596 107.794C237.303 107.036 236.703 106.964 235.191 107.105ZM313.487 107.514C314.442 109.082 315.097 109.876 317.03 109.727C315.757 109.013 314.62 108.441 313.487 107.514ZM296.885 103.352L296.79 103.796C297.672 104.032 299.642 103.78 300.645 103.702L300.76 103.407C299.137 103.192 298.512 103.253 296.885 103.352ZM246.308 79.2359C245.553 79.5584 244.159 80.0389 243.682 80.6111C243.903 80.6624 244.166 80.7419 244.382 80.7484C245.126 80.4456 246.73 79.9224 247.15 79.3596C246.694 79.2489 246.773 79.2439 246.308 79.2359Z" fill="#EDC43E"/>
<path d="M269.317 127.195C270.972 127.435 273.372 128.633 273.382 130.483C273.4 132.813 273.965 138.389 272.58 140.171C272.465 141.929 272.922 140.128 273.352 141.678C272.982 142.065 272.69 142.393 272.345 142.801L272.437 143.539C272.725 143.885 273.067 144.229 273.205 144.665C273.295 144.949 273.022 145.347 272.895 145.59C272.055 147.179 271.827 158.357 272.21 160.628C271.952 160.908 271.39 161.46 271.46 161.891C271.877 164.409 272.13 166.911 272.372 169.448C272.947 170.239 276.165 174.622 277.452 173.373C284.512 166.528 293.04 154.855 301.56 150.295C301.792 150.29 302.022 150.288 302.255 150.29C303.467 150.291 306.877 150.129 307.532 151.073C308.815 152.922 310.267 159.552 310.205 161.555C308.235 163.371 311.785 164.094 310.132 167.503C310.455 169.091 311.977 171.923 312.772 173.507C312.085 175.344 314.317 180.88 315.382 182.558C320.647 174.117 325.99 165.923 335.86 163.032C342.425 166.728 341.285 172.96 342.66 179.358C343.012 181.001 343.802 183.233 344.345 184.89C343.835 186.133 343.287 187.643 343.447 188.999C343.635 189.194 344.392 189.985 344.405 190.15C344.642 193.266 344.267 196.559 344.497 199.707C344.515 199.952 344.967 199.962 345.01 200.481C345.075 201.29 344.36 202.446 343.875 203.053C343.255 203.829 343.037 203.892 342.18 204.012C339.3 203.056 338.165 196.36 336.98 193.952C336.467 192.908 334.395 190.978 333.495 190.134C333.917 189.696 334.317 189.237 334.695 188.76C336.102 186.947 334.912 183.537 334.57 180.809C332.415 178.657 334.092 177.666 332.53 175.918C329.662 174.429 327.377 178.889 326.005 180.941C322.597 183.507 319.99 190.059 316.827 193.481C310.627 200.184 304.937 191.247 304.657 185.08C304.002 184.147 303.332 183.437 302.577 182.592C302.657 179.762 303.642 177.239 303.59 174.366C303.557 172.495 302.337 173.134 302.367 171.916C302.405 170.505 302.752 169.487 302.537 167.968C302.052 167.319 301.88 167.182 301.75 166.37C301.975 165.624 302.05 165.431 302.147 164.64C301.835 163.916 300.417 163.017 299.707 162.49C298.067 163.664 296.54 165.337 294.955 166.581C290.552 170.037 287.042 174.024 283.24 178.067C280.982 180.468 277.642 182.317 275.13 184.495L274.895 184.7L273.245 184.235C263.992 181.718 264.66 173.908 263.945 165.88C263.792 164.194 264.395 162.102 264.487 160.369C264.667 156.98 265.012 153.575 265.262 150.19C265.577 147.009 265.35 143.874 265.86 140.729C261.507 145.679 259.54 149.762 256.455 155.392C254.612 158.757 252.135 162.14 250.152 165.411C249.489 166.508 248.625 169.045 247.952 170.458C247.284 170.818 246.896 170.935 246.521 171.589C246.492 172.668 246.665 173.218 245.77 173.871C244.472 173.982 243.194 173.633 242.862 172.259C243.648 170.295 243.708 167.75 244.391 166.473C245.617 164.178 247.32 161.129 248.589 158.948C253.15 151.11 262.325 132.567 269.317 127.195Z" fill="#4B4746"/>
<path d="M342.575 340.42C345.942 341.977 346.193 344.045 348.555 345.975C353.447 349.97 359.32 356.33 364.758 359.253C374.24 364.35 383.775 367.885 394.522 368.522C398.905 368.78 397.622 373.94 396.135 376.508C392.387 383.178 387.94 390.072 382.897 395.85C379.43 399.555 372.84 402.947 369.115 406.765C368.398 407.5 365.993 408.413 365.155 409.12C362.455 411.325 359.725 412.532 356.805 414.22L353.285 416.135C349.53 417.76 349.71 418.637 346.955 420.452C345.578 421.36 339.26 423.192 337.335 423.827C333.081 422.571 330.189 420.443 327.27 417.324L326.685 416.688C325.987 415.06 326.722 414.577 325.543 413.723L325.37 413.923C322.46 417.34 321.502 420.4 317.555 422.835C314.502 422.867 310.933 423.448 308.155 423.4C303.42 423.318 298.525 422.955 293.763 422.8C286.445 422.562 292.013 413.076 292.928 409.423C293.96 405.305 293.328 403.05 293.553 399.223C292.57 397.473 288.543 390.12 287.565 388.982C282.778 383.415 271.942 377.69 264.772 375.572C263.44 375.177 261.718 374.793 260.348 374.66C258.578 374.488 255.82 375.49 254.465 374.388C254.15 373.245 255.905 368.792 256.508 367.367C257.968 363.9 262.392 365.51 264.862 365.053C268.562 364.368 273.433 364.413 276.87 363.995C280.723 363.528 286.768 360.303 288.633 356.888C292.883 349.583 292.548 348.417 300.338 345.015C313.755 348.992 327.642 348.682 340.152 341.875C340.98 341.425 341.79 340.94 342.575 340.42ZM299.91 413.418C300.024 413.454 300.131 413.48 300.232 413.5C300.13 413.48 300.024 413.453 299.91 413.417V413.418ZM303.045 412.307H303.046H303.045ZM349.957 405.833V405.832V405.833ZM364.247 404.824H364.248H364.247ZM350.582 401.433H350.583H350.582ZM298.577 390.083H298.578H298.577ZM327.15 222.211C327.125 223.864 325.783 225.956 324.45 226.892C324.075 226.4 324.205 226.668 324.146 226.041C324.741 224.53 325.653 223.001 326.87 221.913L327.15 222.211ZM365.09 169.604C364.605 170.355 362.828 171.506 362.018 172.093L361.707 171.947L361.65 171.555C362.48 170.655 363.712 170.083 364.805 169.47L365.09 169.604ZM252.873 169.445C253.295 169.424 253.063 169.396 253.558 169.61C252.795 170.298 251.08 170.917 250.067 171.351C249.973 171.375 249.582 171.36 249.466 171.358L249.535 170.996C250.685 170.228 251.598 169.934 252.873 169.445ZM351.535 164.245C350.645 164.751 350.325 164.766 349.3 164.989L348.923 165.112L348.825 164.849C349.62 164.277 350.01 164.262 350.99 164.029L351.46 164.023L351.535 164.245ZM237.15 147.535C237.411 147.573 237.258 147.53 237.585 147.736C237.082 148.21 236.251 148.378 235.561 148.597C235.068 148.57 235.255 148.607 234.804 148.361C235.339 147.926 236.43 147.725 237.15 147.535ZM224 147.36C224.681 146.151 225.491 144.752 227.145 145.124C226.941 146.128 225.4 146.944 224.579 148.291C224.421 147.759 224.38 147.837 224 147.36ZM189.12 137.878C188.803 138.606 187.713 139.11 186.948 139.438C186.196 140.212 185.558 141.093 184.898 141.951C184.854 141.283 184.673 141.294 184.15 140.653C184.964 140.051 185.36 139.821 186.256 139.345C187.084 138.332 187.475 137.853 188.75 137.663L189.12 137.878ZM352.803 139.642C352.053 140.27 351.463 140.697 350.663 141.264L350.393 141.108L350.418 140.718C351.307 139.85 351.475 139.807 352.612 139.229L352.803 139.642ZM281.37 137.653C281.215 138.051 281.055 138.447 280.885 138.839L281.232 139.351C282.305 139.645 282.808 139.59 283.013 140.72C281.83 140.365 280.615 139.769 279.478 139.259C279.743 138.846 280.608 137.805 280.95 137.365L281.37 137.653ZM227.404 134.049C228.34 135.429 229.357 135.153 229.811 136.188C229.245 136.749 227.725 137.126 226.869 137.42C226.556 137.503 226.408 137.471 226.074 137.472L225.656 136.755L224.874 136.691C224.857 136.035 226.298 134.553 226.866 133.858L227.404 134.049ZM293.232 134.788C293.605 134.748 293.383 134.746 293.893 134.881C293.24 135.455 292.733 135.533 291.905 135.79L291.33 135.611C291.655 135.17 292.597 134.995 293.232 134.788ZM233.982 129.542L234.116 129.812C232.94 131.152 231.731 131.779 230.1 132.372C229.875 132.217 229.785 132.073 229.599 131.861C230.161 131.189 232.722 129.991 233.683 129.489L233.982 129.542ZM202.142 128.467C202.771 128.504 202.555 128.461 203.135 128.698C202.586 129.176 201.554 129.344 200.801 129.535L200.17 129.582C200.841 128.928 201.254 128.836 202.142 128.467ZM193.047 123.568C192.694 124.221 189.436 126.839 188.429 127.817C188.164 127.705 188.293 127.802 188.134 127.433C189.477 125.772 190.978 124.597 192.741 123.423L193.047 123.568ZM251.585 115.769C252.48 114.788 253.577 114.161 254.907 114.782C255.46 115.485 255.295 115.097 255.407 115.994C255.155 116.666 254.695 117.065 254.04 117.381C252.478 117.881 249.858 118.227 248.162 118.505C250.098 117.434 250.633 117.097 252.827 116.926L251.7 116.739C251.353 116.185 251.44 116.491 251.585 115.769ZM313.487 107.515C314.62 108.442 315.758 109.013 317.03 109.727C315.098 109.876 314.442 109.083 313.487 107.515ZM235.191 107.105C236.703 106.965 237.303 107.036 238.597 107.794C237.375 107.792 236.074 107.902 235.191 107.105ZM296.885 103.352C298.512 103.253 299.138 103.191 300.76 103.406L300.646 103.702C299.643 103.781 297.673 104.033 296.79 103.797L296.885 103.352ZM191.493 98.1875C192.416 98.675 193.299 99.2378 193.702 100.237L193.173 100.284C191.985 100.578 190.563 101.019 189.496 100.487C189.209 99.6653 189.597 99.2128 189.97 98.2148C190.579 98.1338 190.884 98.1697 191.493 98.1875ZM183.803 99.332C184.488 99.2698 185.044 99.1426 185.676 99.3818L185.214 99.7363C184.51 99.8601 183.802 100.099 183.323 99.7832L183.803 99.332ZM207.621 94.0225C208.324 94.1104 208.774 94.0929 209.349 94.502C209.029 94.856 206.162 96.3551 205.021 97.2041C204.44 97.5283 204.463 97.5716 203.812 97.5996C203.998 97.1419 206.806 94.8438 207.621 94.0225ZM246.707 95.377C247.925 95.2092 249.083 94.8748 250.072 95.7158C248.956 95.7773 247.511 96.0137 246.707 95.377ZM298.008 94.3799C299.285 94.1757 300.055 94.0374 301.2 94.6211C299.823 94.8483 299.278 94.9063 298.008 94.3799ZM269.713 85.6191C269.24 86.9377 266.906 87.9196 265.516 87.9219L265.141 87.5859C265.543 87.0429 268.55 85.87 269.383 85.5117L269.713 85.6191ZM223.401 83.791L223.596 84.0723C223.13 84.7435 221.799 85.3658 221.026 85.7998C220.857 85.7917 220.455 85.7008 220.272 85.665C220.641 84.9654 222.087 84.1695 222.826 83.6885L223.401 83.791ZM246.308 79.2363C246.773 79.2443 246.694 79.2487 247.15 79.3594C246.73 79.922 245.127 80.4453 244.383 80.748C244.167 80.7416 243.904 80.6626 243.683 80.6113C244.16 80.0392 245.553 79.5588 246.308 79.2363Z" fill="#EDC43E"/>
</g>
<defs>
<clipPath id="clip0_79_4243">
<rect width="480" height="480" fill="white"/>
</clipPath>
</defs>
</svg>
