<svg width="480" height="480" viewBox="0 0 480 480" fill="none" xmlns="http://www.w3.org/2000/svg">
<g clip-path="url(#clip0_79_8965)">
<path d="M260.597 98.3335C264.705 97.908 269 100.377 273.357 98.399C274.102 98.061 278.962 98.7383 280.12 98.8673C281.082 98.9745 283.897 100.019 285.027 99.8628C286.427 99.0258 288.112 100.011 289.52 100.015C294.842 100.031 298.595 101.863 303.465 103.42C307.262 104.634 309.275 103.894 312.907 106.485C316.957 106.062 326.345 108.436 330.297 109.905C334.022 111.289 338.965 111.993 342.357 113.454C345.535 114.823 350.422 116.836 353.33 118.553C356.352 120.338 359.887 123.077 362.895 125.073C364.8 126.339 367.132 127.799 368.967 129.124C370.687 130.367 372.675 132.587 374.457 133.923C379.032 137.352 383.565 141.016 388.35 144.129C393.66 147.581 399.26 151.325 403.805 155.78C404.737 156.693 407.062 160.125 407.972 161.293C408.985 162.596 411.14 165.559 411.642 166.955C412.692 169.859 413.632 173.852 414.25 176.882C416.745 189.115 413.35 200.697 407.375 211.351C405.81 214.139 404.54 216.879 402.717 219.636C400.012 223.728 396.605 226.763 393.27 230.332C391.212 232.532 389.362 235.038 387.232 237.16C384.902 239.477 382.232 241.213 379.352 242.747C376.225 244.412 373.105 246.51 369.647 247.409C365.847 248.397 361.777 248.815 357.917 249.541C355.762 249.946 353.752 250.903 351.6 251.293L351.207 251.36C348.365 251.868 342.987 246.718 338.52 249.319C333.857 249.024 333.96 248.175 330.64 247.665C327.425 247.141 322.65 247.295 319.59 246.456C309.66 243.731 297.122 241.667 287.815 237.382C282.35 234.868 278.345 232.42 273.13 229.531C270.885 228.289 266.182 226.998 263.707 225.798C260.285 224.466 255.985 221.628 252.65 220.441C249.1 219.178 245.876 215.847 243.498 214.779C238.511 212.539 228.256 206.248 223.276 205.817C212.549 204.889 199.34 210.765 189.615 214.997C187.17 216.208 184.958 217.981 182.65 219.392C176.267 223.298 169.203 227.911 163.402 232.668C160.471 231.951 159.331 231.882 156.306 231.965C155.479 230.236 154.552 228.185 153.558 226.547C153.339 226.161 151.713 225.199 151.679 224.826C151.25 220.117 150.292 216.755 148.549 212.347C146.314 206.696 144.322 200.963 143.305 194.927C142.562 190.518 145.062 186.638 146.516 182.631C147.918 179.084 149.267 174.964 150.862 171.592C155.613 161.547 162.649 153.449 169.045 144.501C173.469 138.651 178.597 133.369 184.503 129.007C187.04 127.133 189.365 124.861 191.983 123.03C198.331 118.591 205.136 114.814 212.037 111.308C215.165 109.719 218.225 107.953 221.412 106.492C225.661 104.646 230.355 103.428 234.786 102.089C236.442 101.588 238.925 102.129 240.666 101.788C244.035 101.022 247.355 100.186 250.777 99.641C254.137 99.1068 257.195 98.8658 260.597 98.3335ZM275.96 215.231C276.482 214.435 277.155 213.469 277.605 212.652C277.692 212.241 277.647 212.349 277.522 211.886C276.742 211.035 276.13 210.499 275.025 210.988C274.072 211.211 273.98 211.52 273.307 212.304L272.722 212.986C274.05 214.143 274.427 214.372 275.96 215.231ZM285.965 223.782C287.132 223.801 287.377 223.989 288.305 223.47C288.405 222.17 286.427 221.28 285.307 221.338C284.8 222.621 283.69 223.43 283.497 224.249C284.217 224.522 285.185 224.052 285.965 223.782ZM223.649 192.474C223.038 193.781 222.769 194.331 221.933 195.5C220.773 196.371 218.032 196.908 217.896 197.188C219.898 197.906 220.694 196.802 222.786 196.14C223.728 195.306 224.464 194.684 225.29 193.717C226.215 193.3 228.066 192.491 228.677 191.732C227.878 191.719 227.237 192.148 226.497 192.514C225.316 192.581 224.815 192.612 223.649 192.474ZM339.495 131.7C340.73 131.345 343.882 128.707 344.515 127.807C344.185 127.703 344.19 127.656 343.872 127.681C342.302 128.747 341.762 129.596 340.365 130.609C339.765 131.044 339.007 130.104 338.167 130.747C338.555 131.402 338.685 131.294 339.495 131.7ZM284.742 136.331C286.265 134.449 286.77 134.319 288.922 133.287C289.677 132.925 289.957 133.021 290.045 132.507L289.65 132.48C287.75 132.889 284.74 134.269 284.425 136.409L284.742 136.331ZM350.637 227.976C351.2 227.556 354.015 224.914 354.615 224.306C354.44 223.966 354.565 224.061 354.312 223.946C352.687 224.914 351.492 226.182 350.167 227.531C350.34 227.94 350.195 227.781 350.637 227.976ZM239.116 205.173L239.492 205.459C240.334 204.924 240.882 204.292 241.583 203.583L241.421 203.274C240.076 203.891 239.667 203.936 238.238 204.062L237.902 204.313C238.213 204.877 238.508 204.906 239.116 205.173ZM391.047 213.452L391.405 213.574C391.07 213.284 390.735 212.997 390.397 212.711C390.815 211.398 392.482 210.996 392.27 210.25L392.017 210.138C391.172 210.828 389.51 211.984 389.28 212.926L389.527 213.309C390.04 213.327 390.54 213.38 391.047 213.452ZM401.19 203.296C400.137 203.711 398.792 204.241 398.167 205.221L398.212 205.597C399.102 205.057 400.605 204.28 401.177 203.498L401.19 203.296ZM303.96 107.197C303.225 107.925 302.537 108.473 302.117 109.402L302.37 109.814C302.987 109.143 303.917 108.288 304.172 107.464L303.96 107.197ZM284.812 205.036C286.162 205.19 288.417 205.128 289.125 203.679L288.972 203.552C287.582 204.016 284.987 204.424 284.675 204.544C284.715 204.71 284.725 204.89 284.812 205.036ZM168.719 203.449C168.099 204.013 167.492 204.59 166.899 205.181C167.049 205.636 166.937 205.476 167.149 205.712C168.103 205.115 168.195 204.971 168.846 204.044L168.904 203.624L168.719 203.449ZM258.127 206.825C259.04 206.429 259.942 206.151 260.615 205.449C260.57 205.304 260.525 205.16 260.48 205.016C259.757 205.402 258.377 206.029 257.922 206.619L258.127 206.825ZM271.735 107.724C271.025 108.189 270.782 108.18 270.435 108.833C271.052 108.896 271.082 108.818 271.675 108.584L272.675 108.468L272.73 108.201L271.735 107.724ZM313.875 164.716L313.142 165.33L313.217 165.571C313.825 165.498 314.275 165.444 314.877 165.324L315.685 165.202L315.657 164.945C314.765 164.685 314.795 164.678 313.875 164.716ZM233.424 158.911C234.121 158.457 234.822 158.011 235.528 157.571L235.536 157.32L235.122 157.237C234.203 157.723 233.727 157.871 233.108 158.667L233.293 158.898L233.424 158.911ZM233.793 198.732C232.934 199.502 231.217 200.608 231.38 201.713C232.289 200.927 233.228 200.238 233.849 199.229L233.793 198.732ZM358.637 245.136C359.242 244.289 359.632 244.036 359.712 243.106C359.017 242.579 355.377 242.524 354.565 242.578L354.842 242.929C354.595 243.747 354.532 243.78 354.085 244.475C354.495 245.885 356.092 245.911 357.35 245.907C357.997 245.588 358.077 245.599 358.637 245.136ZM380.205 165.141L380.4 164.993C381.262 164.343 383.23 163.312 383.645 162.686C383.38 162.461 383.512 162.49 383.287 162.484C382.28 163.074 380.187 164.069 379.892 165.096L380.205 165.141ZM343.715 237.374C344.62 239.82 344.405 238.622 346.837 238.832L346.637 238.398C345.792 238.171 344.237 237.401 343.715 237.374ZM387.505 217.605C388.502 218.766 390.532 218.442 391.852 217.968C391.182 217.33 388.8 217.626 387.505 217.605ZM197.54 192.06C196.194 192.405 194.041 193.055 193.084 194.081L193.248 194.364L193.692 194.298C195.915 192.871 196.236 193.143 198.49 192.248L198.505 192.064L198.315 192.095L198.422 191.904L198.23 192.022C197.752 191.937 197.982 191.919 197.54 192.06Z" fill="#97918A"/>
<path d="M280.515 174.191C279.58 172.694 278.6 171.12 279.863 169.424C281.27 167.534 282.408 162.617 283.553 161.095C289.013 153.853 298.42 147.592 307.8 150.909C311.085 152.069 310.373 155.427 311.763 158.102C310.615 160.725 310.903 162.903 310.423 164.261C308.89 168.16 305.943 174.198 303.423 177.386C297.848 184.438 291.273 184.929 303.78 190.448C308.32 192.45 324.1 193.379 326.01 187.903C326.12 187.577 326.223 187.248 326.318 186.916C325.778 185.41 325.213 183.915 324.618 182.431C325.54 178.725 326.433 176.714 326.295 172.927C329.458 168.7 334.63 162.614 340.223 161.816C346.368 160.939 348.363 163.087 349.723 168.747C347.005 177.708 346.225 182.654 338.75 188.846C339.738 190.627 340.43 191.929 342.53 192.524C344.24 192.57 347.535 193.3 348.19 193.243C356.438 192.524 364.433 187.113 370.25 181.509C372.49 179.35 375.313 176.023 377.9 174.9L378.353 174.952C378.775 175.681 378.58 176.435 378.358 177.247C375.888 186.292 369.445 192.601 361.635 197.232C353.498 202.056 346.708 202.748 337.613 202.751C336.305 201.489 335.42 201.065 333.84 200.172C332.273 199.535 329.433 198.225 328.4 196.95C327.09 197.17 324.655 198.639 323.238 198.975C320.443 199.637 317.065 200.138 314.32 200.88C309.098 202.551 305.27 201.191 300.228 200.246C294.378 199.149 291.723 197.085 286.69 193.907C285.885 192.583 285.333 191.119 284.738 189.684C277.45 193.368 266.643 192.86 258.67 192.507C253.023 192.257 250.22 192.346 245.136 189.277C240.128 186.253 237.187 183.085 235.803 177.266C235.605 175.324 234.675 170.278 235.3 168.499C236.351 166.228 236.199 162.282 237.425 160.366C238.441 158.779 243.939 153.441 245.897 154.677C246.118 155.715 246.056 157.178 245.483 158.11C244.325 158.774 244.26 158.287 242.672 158.587C242.001 159.29 242.239 158.884 242.006 159.892L242.25 160.12C242.821 159.992 243.185 159.851 243.753 159.986L243.714 160.456C243.126 161.101 242.865 161.309 242.519 162.126C242.621 163.006 242.751 163.39 242.396 164.202L241.423 164.118L241.094 164.408L241.22 164.86L242.247 164.773L242.476 165.115C242.219 166.307 241.803 165.312 241.308 166.593C242.055 169.058 242.615 171.974 243.561 174.208C244.776 177.076 249.729 181.763 252.545 182.783C254.355 181.949 254.068 182.538 255.823 183.25C262.488 185.959 269.213 185.011 276.115 184.109C277.815 183.886 279.115 183.137 280.773 182.729C280.915 181.58 279.583 178.495 279.11 177.22C279.91 175.946 280.105 175.681 280.515 174.191Z" fill="#4B4746"/>
<path d="M377.515 303.928C378.655 303.998 379.512 304.633 379.867 305.7C379.715 306.068 379.47 306.815 379.337 307.112C379.025 307.817 380.685 310.019 380.652 310.295C380.445 312.002 380.248 313.972 380.325 315.71C380.334 315.727 381.298 317.078 381.395 317.268C382.552 319.535 380.937 318.933 381.587 322.447C382.48 327.27 383.527 332.023 384.39 336.838C384.732 338.755 384.117 341.968 384.404 343.883C384.789 346.445 385.389 348.603 385.672 351.232C386.054 354.762 386.17 358.025 386.337 361.54C386.492 364.745 387.037 368.36 386.97 371.57C386.882 375.668 386.55 379.983 386.34 384.062C386.17 387.382 386.202 391.265 385.507 394.385C384.562 398.635 380.808 403.992 376.928 405.915C374.23 407.25 365.66 410.99 362.987 411.385C357.413 412.21 346.01 411.542 340.7 410.107C336.11 411.527 331.94 413.755 327.848 414.925C325.135 414.15 325.152 414.623 322.507 414.718C319.047 414.84 314.27 412.612 311.825 410.21C308.968 407.397 308.025 404.587 307.995 400.617C308.1 399.597 308.538 398.495 308.495 397.482C308.358 394.34 294.13 388.75 291.4 386.397C291.272 384.905 291.867 385.46 291.967 384.043C291.587 383.876 291.472 383.828 291.065 383.945C289.081 384.508 280.813 383.56 280.29 381.303C280.865 379.47 282.33 377.795 283.55 376.32C286.857 375.695 290.5 375.117 293.859 374.772C294.652 374.69 296.331 375.12 296.694 375.053C301.214 374.235 306.415 373.085 310.782 371.798C314.105 370.818 318.483 369.928 321.495 368.753C335.298 363.373 344.417 354.267 352.492 342.18C355.73 337.337 359.132 332.84 361.859 327.628C363.184 325.1 364.29 323.2 365.438 320.465C366.985 316.78 368.23 312.41 370.325 309.053C371.245 307.575 373.964 306.925 375.359 306.093C375.847 305.805 377.07 304.42 377.515 303.928ZM148.952 297.018C152.433 297.05 153.841 301.313 155.23 303.985C157.418 308.2 159.594 313.213 162.069 317.268C163.142 318.643 164.496 319.733 165.374 321.263C171.299 331.583 178.696 340.227 188.007 347.612C190.59 349.662 194.219 351.103 196.828 353.093C203.802 358.41 211.272 362.298 219.248 365.86C221.896 367.04 224.475 368.548 227.2 369.71C227.913 370.697 229.048 372.163 229.057 373.415C229.091 378.4 213.336 380.396 209.788 382.146C203.391 385.303 194.737 390.618 190.545 396.315C189.187 398.163 188.882 400.502 187.441 402.242C185.353 404.76 182.505 406.338 180.314 408.678C179.719 408.593 179.417 408.54 178.835 408.713C159.684 414.363 153.052 406.88 141.154 392.73C140.506 393.273 139.853 393.816 139.109 394.226C137.486 395.118 135.61 395.505 133.77 395.468C126.107 395.31 124.372 388.848 120.734 387.83C120.215 387.685 119.938 387.65 119.512 387.285C118.643 383.378 113.597 382.29 112.817 375.303C105.016 367.178 107.519 362.045 108.475 351.715C108.726 350.487 107.203 347.791 107.492 346.771C108.855 341.973 109.97 340.865 108.279 335.75C109.149 332.818 110.096 329.31 110.981 326.38C111.178 325.722 111.001 321.353 111.246 319.87C111.695 317.16 112.7 315.48 113.332 313.021C113.899 310.816 113.864 308.167 114.554 305.765C114.726 305.167 114.948 304.582 115.219 304.022C118.072 298.177 124.125 299.17 129.609 299.218C137.784 299.288 141.003 299.853 148.952 297.018ZM360.448 403.593C360.367 403.696 360.28 403.791 360.187 403.878C360.093 403.965 359.994 404.042 359.887 404.109L359.888 404.11C360.101 403.976 360.286 403.798 360.448 403.593ZM361.221 402.136C361.117 402.396 361.005 402.658 360.879 402.905L361.059 402.525C361.115 402.396 361.169 402.266 361.221 402.136ZM359.825 401.565L359.827 401.564L359.825 401.565ZM317.749 399.435C317.446 399.766 317.184 400.136 316.795 400.65C317.184 400.136 317.446 399.766 317.749 399.435ZM318.952 398.452V398.453V398.452ZM148.72 391.66C148.656 391.749 148.583 391.838 148.504 391.926C148.425 392.014 148.339 392.101 148.248 392.187C148.066 392.359 147.862 392.526 147.65 392.685C147.544 392.764 147.436 392.84 147.327 392.914V392.915C147.87 392.546 148.401 392.104 148.72 391.66ZM369.252 392.395C369.074 392.579 368.894 392.76 368.712 392.941C368.894 392.76 369.074 392.579 369.252 392.395ZM374.189 390.248C374.061 390.358 373.93 390.467 373.798 390.574C373.996 390.413 374.193 390.25 374.378 390.081L374.189 390.248ZM343.86 388.703H343.859H343.86ZM344.34 387.554C344.381 387.423 344.418 387.29 344.448 387.156C344.418 387.29 344.381 387.423 344.34 387.554ZM151.352 385.435C151.292 385.538 151.22 385.644 151.141 385.751C151.22 385.644 151.292 385.538 151.352 385.435ZM373.717 386.922V386.923V386.922ZM151.543 384.862H151.544L151.459 384.758L151.543 384.862ZM373.277 383.236C373.197 383.321 373.127 383.406 373.065 383.491C373.127 383.406 373.197 383.321 373.277 383.236ZM375.667 381.457V381.458V381.457ZM135.775 378.522C135.714 378.527 135.655 378.535 135.598 378.544C135.085 378.628 134.73 378.881 134.444 379.22C134.761 378.843 135.165 378.573 135.776 378.522H135.775ZM131.525 381.123L131.524 381.122L131.525 381.123ZM137.122 378.694L137.124 378.695L137.085 378.33L137.122 378.694ZM135.969 378.515C136.093 378.514 136.224 378.521 136.364 378.538C136.224 378.521 136.093 378.514 135.969 378.515ZM121.084 378.061L121.083 378.059C120.994 378.053 120.905 378.044 120.817 378.029C120.906 378.044 120.995 378.055 121.084 378.061ZM130.559 376.459C130.651 376.729 130.74 376.951 130.807 377.161C130.74 376.951 130.651 376.729 130.559 376.459ZM120.299 377.068H120.3H120.299ZM193.183 377.098H193.182H193.183ZM130.738 375.716H130.739H130.738ZM118.628 375.908H118.629H118.628ZM123.123 375.375L123.202 375.38L123.122 375.374L123.123 375.375ZM124.284 375.263C124.124 375.287 123.972 375.308 123.831 375.326C123.972 375.308 124.124 375.287 124.284 375.263ZM125.765 375.016V375.015V375.016ZM127.687 371.674C127.926 371.733 128.161 371.798 128.38 371.877C128.161 371.798 127.926 371.733 127.687 371.674ZM358.482 371.312L358.481 371.312L358.482 371.312ZM125.797 371.097C125.894 371.149 125.996 371.195 126.103 371.238C125.996 371.195 125.894 371.149 125.797 371.097ZM119.453 370.377H119.454H119.453ZM119.243 369.705C119.455 369.637 119.657 369.576 119.831 369.516L120.404 369.53H120.405L119.831 369.515C119.657 369.575 119.455 369.637 119.243 369.705ZM127.228 369.6C127.213 369.662 127.202 369.723 127.19 369.782C127.233 369.568 127.293 369.334 127.354 369.093L127.228 369.6ZM131.909 369.367H131.908H131.909ZM127.577 368.029V368.03V368.029ZM111.557 366.555V366.554V366.555ZM145.479 365.846H145.48H145.479ZM113.925 365.118C113.582 365.325 113.23 365.517 112.876 365.718C113.23 365.517 113.582 365.325 113.925 365.118ZM146.03 364.991C146.007 365.045 145.98 365.101 145.95 365.157C145.98 365.101 146.007 365.046 146.03 364.992V364.991ZM115.154 364.23C115 364.37 114.841 364.499 114.679 364.619C114.923 364.438 115.159 364.24 115.383 364.013L115.154 364.23ZM360.36 364.476V364.475V364.476ZM145.593 363.202C145.309 363.427 144.995 363.657 144.629 363.905C144.995 363.657 145.309 363.427 145.593 363.202ZM114.983 363.482H114.982H114.983ZM113.831 362.482L113.984 363C114.093 363.069 114.18 363.123 114.257 363.169C114.18 363.124 114.093 363.069 113.985 363L113.831 362.482C113.888 362.38 113.945 362.279 113.999 362.179V362.178C113.945 362.279 113.888 362.38 113.831 362.482ZM146.749 362.182C146.626 362.301 146.504 362.417 146.38 362.531L146.749 362.183C146.873 362.063 146.997 361.939 147.125 361.811L146.749 362.182ZM135.06 362.309H135.061H135.06ZM122.25 357.959H122.251H122.25ZM122.993 357.608H122.992H122.993ZM140.159 357.175V357.176V357.175ZM125.831 352.853H125.832H125.831ZM129.109 351.662V351.663V351.662ZM117.219 346.596C117.274 346.554 117.324 346.514 117.367 346.476L117.365 346.475C117.323 346.513 117.274 346.554 117.219 346.596ZM117.157 346.276C117.183 346.302 117.221 346.336 117.28 346.393C117.221 346.336 117.183 346.302 117.157 346.276ZM117.035 346.215C117.061 346.218 117.079 346.223 117.094 346.229C117.079 346.223 117.061 346.218 117.035 346.215ZM148.513 344.542H148.512H148.513ZM150.901 342.33C150.579 342.725 150.2 343.108 149.793 343.477L150.191 343.104C150.447 342.852 150.686 342.594 150.901 342.33ZM151.459 341.521H151.46H151.459ZM151.902 340.248C151.894 340.321 151.882 340.393 151.867 340.465C151.882 340.393 151.894 340.321 151.902 340.248ZM139.889 340.031C139.973 340.103 140.053 340.18 140.131 340.258C140.053 340.18 139.973 340.103 139.889 340.031ZM163.365 334.948H163.366H163.365ZM163.473 333.127C163.216 333.008 163.042 332.935 162.876 332.848L163.473 333.128L163.69 333.244C163.642 333.22 163.574 333.185 163.473 333.127ZM165.315 330.487V330.486V330.487ZM166.796 329.045C166.602 329.262 166.432 329.446 166.272 329.61L166.522 329.348C166.608 329.254 166.699 329.154 166.796 329.045ZM156.276 315.745H156.277H156.276ZM354.565 242.577C355.377 242.523 359.017 242.58 359.712 243.106C359.632 244.036 359.243 244.289 358.638 245.136C358.078 245.599 357.997 245.588 357.35 245.907C356.092 245.911 354.495 245.884 354.085 244.475C354.533 243.78 354.594 243.746 354.842 242.929L354.565 242.577ZM343.715 237.374C344.238 237.402 345.792 238.171 346.637 238.398L346.837 238.832C344.405 238.622 344.62 239.82 343.715 237.374ZM354.313 223.945C354.565 224.061 354.44 223.966 354.614 224.306C354.015 224.913 351.202 227.555 350.638 227.976C350.195 227.78 350.34 227.939 350.167 227.53C351.492 226.182 352.688 224.914 354.313 223.945ZM285.308 221.338C286.428 221.281 288.405 222.17 288.305 223.47C287.377 223.989 287.132 223.8 285.965 223.781C285.185 224.051 284.217 224.522 283.497 224.249C283.69 223.43 284.8 222.621 285.308 221.338ZM387.505 217.604C388.8 217.626 391.183 217.331 391.853 217.968C390.533 218.442 388.503 218.765 387.505 217.604ZM275.025 210.988C276.13 210.499 276.743 211.035 277.523 211.886C277.647 212.349 277.692 212.241 277.605 212.651C277.155 213.469 276.483 214.435 275.96 215.231C274.428 214.373 274.05 214.143 272.723 212.986L273.308 212.304C273.98 211.52 274.073 211.211 275.025 210.988ZM392.27 210.25C392.482 210.996 390.815 211.398 390.398 212.711C390.735 212.996 391.07 213.284 391.404 213.573L391.047 213.452C390.54 213.381 390.04 213.328 389.527 213.31L389.279 212.926C389.509 211.983 391.172 210.827 392.017 210.138L392.27 210.25ZM260.614 205.448C259.942 206.15 259.04 206.429 258.127 206.825L257.922 206.619C258.377 206.029 259.757 205.402 260.48 205.016C260.525 205.16 260.569 205.304 260.614 205.448ZM168.904 203.624L168.846 204.044C168.195 204.971 168.103 205.115 167.15 205.712C166.937 205.476 167.049 205.636 166.899 205.181C167.492 204.59 168.099 204.013 168.719 203.449L168.904 203.624ZM401.177 203.498C400.604 204.279 399.102 205.057 398.212 205.597L398.167 205.221C398.792 204.241 400.137 203.711 401.19 203.296L401.177 203.498ZM241.583 203.582C240.882 204.291 240.334 204.924 239.492 205.459L239.116 205.173C238.508 204.905 238.213 204.876 237.902 204.312L238.238 204.062C239.666 203.936 240.076 203.891 241.421 203.273L241.583 203.582ZM289.125 203.679C288.418 205.128 286.163 205.19 284.813 205.035C284.725 204.89 284.715 204.709 284.675 204.544C284.989 204.424 287.582 204.016 288.972 203.553L289.125 203.679ZM233.849 199.229C233.228 200.238 232.289 200.927 231.38 201.713C231.217 200.608 232.934 199.502 233.793 198.732L233.849 199.229ZM328.4 196.95C329.125 196.617 329.517 196.261 330.22 196.594C331.13 197.023 332.005 197.222 332.587 198.043L332.627 198.455L331.847 198.379C332.079 198.873 333.207 199.335 333.84 200.172C332.272 199.535 329.432 198.225 328.4 196.95ZM222.785 196.141C220.694 196.802 219.898 197.906 217.896 197.188C218.032 196.908 220.773 196.371 221.933 195.5L222.785 196.141ZM228.677 191.731C228.065 192.49 226.215 193.3 225.29 193.717C224.464 194.684 223.728 195.305 222.785 196.14L221.933 195.5C222.768 194.331 223.039 193.781 223.65 192.474C224.816 192.612 225.316 192.581 226.497 192.514V192.515C227.238 192.148 227.878 191.719 228.677 191.731ZM198.315 192.095L198.505 192.064L198.49 192.248C196.236 193.144 195.914 192.871 193.692 194.298L193.247 194.364L193.084 194.081C194.041 193.055 196.194 192.406 197.54 192.061C197.982 191.92 197.752 191.937 198.23 192.021L198.422 191.903L198.315 192.095ZM338.75 188.847C339.737 190.627 340.43 191.93 342.529 192.524C340.627 193.478 337.958 192.618 338.085 190.243C338.452 189.692 338.57 189.482 338.75 188.847ZM280.515 174.19C281.432 175.755 282.082 179.711 282.05 181.595C282.045 181.901 281.56 182.458 281.355 182.703L280.773 182.729C280.915 181.58 279.582 178.495 279.109 177.22C279.909 175.946 280.105 175.681 280.515 174.19ZM337.342 170.627C337.949 171.018 338.9 171.975 339.462 172.504C339.465 173.78 339.575 174.855 339.688 176.119C338.338 178.084 337.047 180.089 335.819 182.132C334.972 182.406 334.725 182.232 334.117 181.746C333.73 180.913 333.677 180.037 333.819 179.131C334.442 175.128 334.222 173.293 337.342 170.627ZM297.52 159.498C299.295 160.08 300.92 161.263 301.023 163.218C301.118 165.003 300.335 165.577 299.273 166.82C299.428 173.266 297.722 175.163 292.537 178.552C291.922 178.849 292.242 178.767 291.542 178.681C290.945 178.128 290.782 177.633 290.472 176.888L290.305 176.479C290.097 175.975 289.975 175.676 290.082 175.122C290.697 171.944 288.047 169.592 290.284 164.703C291.749 161.5 294.485 160.665 297.52 159.498ZM313.875 164.716C314.795 164.678 314.765 164.684 315.657 164.944L315.685 165.202L314.877 165.323C314.275 165.444 313.825 165.498 313.218 165.571L313.143 165.33L313.875 164.716ZM383.287 162.484C383.512 162.49 383.38 162.461 383.645 162.686C383.23 163.312 381.262 164.343 380.4 164.993L380.205 165.142L379.893 165.096C380.188 164.069 382.28 163.074 383.287 162.484ZM235.536 157.319L235.528 157.571C234.822 158.01 234.121 158.457 233.424 158.911L233.293 158.898L233.109 158.667C233.728 157.872 234.203 157.724 235.122 157.237L235.536 157.319ZM290.045 132.507C289.958 133.02 289.677 132.925 288.922 133.287C286.77 134.319 286.265 134.45 284.742 136.331L284.425 136.408C284.74 134.269 287.75 132.889 289.65 132.48L290.045 132.507ZM343.872 127.681C344.19 127.655 344.185 127.703 344.515 127.808C343.882 128.708 340.73 131.344 339.495 131.7C338.685 131.294 338.555 131.402 338.167 130.747C339.007 130.104 339.764 131.043 340.364 130.608C341.762 129.596 342.302 128.747 343.872 127.681ZM304.173 107.464C303.918 108.288 302.988 109.143 302.37 109.814L302.117 109.401C302.537 108.473 303.225 107.925 303.96 107.197L304.173 107.464ZM272.73 108.201L272.675 108.469L271.675 108.584C271.082 108.818 271.052 108.896 270.435 108.833C270.782 108.18 271.025 108.19 271.734 107.725L272.73 108.201Z" fill="#97918A"/>
</g>
<defs>
<clipPath id="clip0_79_8965">
<rect width="480" height="480" fill="white"/>
</clipPath>
</defs>
</svg>
