<svg width="480" height="480" viewBox="0 0 480 480" fill="none" xmlns="http://www.w3.org/2000/svg">
<g clip-path="url(#clip0_79_3669)">
<path d="M265.595 68.668C268.07 69.6502 271.912 68.7412 274.692 68.7334C279.937 68.7184 283.667 70.5579 288.55 71.9023C290.93 72.4306 293.433 72.7726 295.735 73.5791C296.465 73.8345 297.81 74.8266 298.487 75.2988C299.577 76.0592 300.033 76.3783 301.322 76.8135C313.412 72.9017 332.093 77.3105 343.79 82.0928C349.395 84.3833 358.76 91.6951 362.425 96.4756C363.582 97.9848 364.762 102.279 365.662 104.311L365.755 104.511C365.625 108.806 363.84 108.075 361.14 110.798L361.37 111.04C362.9 110.989 364.508 110.428 365.686 110.664C366.695 111.609 366.64 112.658 366.78 114.077C366.73 116.791 365.755 118.865 364.785 121.376C369.858 124.223 372.805 125.343 376.058 130.347C376.97 131.748 378.108 133.14 378.548 134.861C380.51 142.52 375.145 157.096 371.442 163.538C365.402 173.948 356.555 182.448 345.912 188.065C343.977 189.063 339.402 190.399 338.005 191.321C331.995 195.289 327.318 195.877 320.633 197.898C313.638 200.015 306.43 201.91 299.285 203.541C295.248 204.503 289.59 202.723 285.433 203.23C279.95 203.394 274.995 204.321 269.973 202.021L269.583 202.118C267.121 202.722 264.715 202.079 262.183 201.896C260.008 201.739 257.653 201.637 255.508 201.349C252.118 200.893 248.726 200.068 245.379 199.364C243.879 199.049 242.265 198.895 240.792 198.54C237.175 197.668 233.592 196.509 229.919 195.873C221.896 194.692 215.514 196.417 207.827 198.51C206.446 198.885 204.736 198.38 203.589 198.774C200.873 199.699 198.29 201.031 195.731 202.287C186.635 206.752 178.337 213.113 172.937 221.846C170.65 225.544 167.666 231.769 165.798 235.85C165.122 237.326 165.126 241.06 164.522 242.766C162.529 251.02 159.31 264.46 151.479 268.978C143.708 266.978 138.897 263.752 134.059 257.902C133.036 256.667 127.607 253.857 125.785 252.542C126.034 250.925 126.224 250.075 125.212 248.688C123.795 247.823 123.313 248.34 122.166 249.236C118.338 247.801 118.271 243.908 116.477 243.077C115.758 241.334 115.597 239.082 117.765 238.538L117.752 238.339C116.857 237.991 117.258 237.962 116.507 238.195C115.605 239.207 116.096 239.82 115.321 240.611C114.256 239.606 111.284 235.862 110.823 234.56C110.655 234.082 112.482 231.418 112.434 230.243C111.874 229.52 110.673 229.233 109.641 228.549L109.581 228.137C110.227 227.154 111.239 226.785 112.265 225.859C112.078 225.31 110.93 223.774 110.755 223.628C110.161 223.131 103.848 223.413 102.939 223.495L102.145 223.104C101.988 220.802 102.494 221.473 103.496 219.681L103.606 219.48C104.567 217.625 105.397 217.897 106.425 216.415C105.276 216.647 104.536 217.126 103.5 217.673C103.349 217.558 102.974 217.157 102.826 217.006C102.593 216.615 101.838 215.681 101.464 215.101C104.172 214.233 107.162 212.937 109.205 210.979C106.444 212.362 104.915 213.093 102.021 214.182C101.403 214.017 101.412 214.004 100.86 213.669L100.99 213.058L100.227 213.004C99.7623 212.547 99.3786 212.235 98.8828 211.819C99.7395 212.074 99.3352 212.104 100.138 211.745C100.717 210.986 100.689 211.011 100.981 210.092L100.745 209.854C99.1252 210.379 98.2975 211.538 96.6563 211.481C96.4749 211.294 95.9247 210.518 95.7364 210.266L96.0284 209.741C97.8318 209.108 99.6707 207.849 101.109 206.602L101.121 206.317C96.9388 207.184 98.4297 205.108 93.9991 206.479C89.6096 201.247 88.9706 189.845 90.5303 183.406C90.8853 181.94 91.0555 180.391 91.17 178.884L91.1993 178.467C90.9653 177.966 90.4256 177.149 90.1143 176.646C91.562 171.253 93.4433 170.016 92.3555 165.007C92.126 163.944 96.6318 152.022 97.4395 150.738C100.286 146.214 103.327 139.903 106.405 135.464L107.821 134.983C109.146 136.758 110.724 136.716 111.343 138.014C110.943 138.995 110.115 139.866 110.013 140.738L110.353 140.842C112.955 139.314 110.896 136.736 112.228 135.555C112.974 135.902 114.279 136.806 114.877 136.7C115.859 135.257 116.608 133.044 114.72 132.042C113.515 132.068 113.766 132.161 112.57 132.912C110.756 132.251 110.898 130.209 111.405 128.751C112.492 127.637 113.963 126.091 115.243 125.098C120.169 121.273 127.091 118.262 133.276 117.282C134.836 117.035 137.687 117.636 139.39 117.565C141.598 117.474 143.839 116.961 146.017 117.055C148.883 117.178 155.267 117.973 157.816 117.683C163.272 117.061 169.927 115.472 175.14 113.735C176.807 113.18 179.184 111.83 180.666 111.372C186.237 109.651 190.949 108.329 195.896 105.061C198.286 103.481 200.056 101.796 202.298 100.104C205.435 97.7372 208.514 95.5525 211.566 93.04C214.14 90.9221 216.798 88.1099 219.237 86.1279C224.211 82.0877 232.43 76.6274 238.226 74.0664C243.26 71.8737 248.582 70.409 254.03 69.7178C258.887 69.1433 259.398 69.8348 264.55 68.2432C264.882 68.3839 265.262 68.5365 265.595 68.668ZM151.534 260.103C150.638 258.933 149.981 259.208 148.552 259.218C146.703 260.148 146.056 260.517 144.407 261.747C145.491 261.48 146.383 261.062 147.317 261.332C148.728 261.722 151.442 262.402 151.534 260.103ZM128.511 244.553C127.665 244.882 127.052 244.966 126.524 245.591C127.349 245.88 128.033 245.826 128.908 245.843C129.103 246.435 129.081 246.447 129.095 247.078L129.545 247.373C129.92 246.785 130.277 246.206 130.691 245.645L130.486 245.298L130.869 245.366C130.907 245.401 128.535 244.595 128.511 244.553ZM132.002 240.532C131.456 240.382 131.663 240.389 131.101 240.469C130.303 241.05 129.163 241.41 128.689 241.81L128.928 241.751C129.947 242.442 130.937 243.03 131.596 244.057L132.116 243.786C132.198 242.499 130.716 242.66 130.62 241.441C131.196 240.993 131.388 240.884 132.002 240.532ZM143.072 239.405C142.147 239.137 141.495 239.264 140.524 239.337L140.259 239.77C140.844 240.086 142.161 239.793 142.897 239.7L143.072 239.405ZM145.871 233.781C144.849 234.208 144.604 234.596 143.812 235.422C143.661 236.264 143.862 236.315 143.527 237.245C143.89 238.288 143.607 237.844 144.447 238.605L145.031 238.688C145.618 238.164 145.439 238.489 145.515 237.644C144.568 236.631 144.646 237.001 144.409 235.821C145.093 235.132 145.361 234.85 145.936 234.075L145.871 233.781ZM126.865 233.192C125.712 233.784 123.37 234.724 122.988 235.857L123.34 235.91L123.623 235.727C124.699 235.037 127.132 234.016 127.485 233.438C127.177 233.279 127.192 233.243 126.865 233.192ZM117.954 231.182C117.234 231.885 116.195 233.055 117.439 233.944L117.702 233.86C118.267 232.791 117.241 233.587 118.197 231.444L117.954 231.182ZM151.88 233.619C150.679 232.915 149.728 232.686 148.345 232.819C149.735 233.582 150.323 233.87 151.88 233.619ZM128.34 228.277C127.723 228.137 127.15 227.839 126.623 228.309C125.875 228.976 124.528 229.613 124.424 230.695L124.718 230.87C126.426 229.868 126.209 229.153 128.389 229.111C129.489 229.506 129.832 229.528 131.004 229.654L130.896 229.092L131.509 229.409L131.503 229.325C130.53 228.617 129.538 228.529 128.34 228.277ZM160.777 227.762C159.81 228.504 159.552 228.667 158.369 228.958L158.416 229.088C158.961 228.954 159.267 228.867 159.828 228.809C160.006 229.28 160.012 229.093 159.982 229.35L160.024 230.293L160.395 230.483C161.572 230.081 162.145 229.572 161.69 228.294C161.295 228.033 161.209 227.948 160.777 227.762ZM142.434 227.226C141.632 227.585 140.201 228.264 139.901 229.137L140.087 229.266C140.817 228.862 142.207 228.207 142.654 227.596L142.434 227.226ZM119.44 227.041C116.731 228.095 115.831 226.732 113.779 228.232L113.68 228.571C114.744 228.894 114.877 227.802 116.55 227.941C117.733 228.859 121.384 228.935 122.355 227.74C121.656 227.066 120.425 226.957 119.44 227.041ZM164.75 221.211L164.448 221.581C163.971 221.92 163.117 222.492 162.714 222.856C161.808 223.631 161.374 222.19 159.215 224.369C160.088 224.119 161.344 223.625 162.14 223.929L162.36 224.489C162.112 226.009 161.636 225.638 161.094 226.885L161.26 227.194C163.773 227.141 163.548 224.916 164.238 223.185C164.308 223.016 166.512 222.468 167.072 221.419L166.647 220.948L164.75 221.211ZM145.926 224.31C144.991 224.11 141.737 224.311 140.615 224.376C141.344 225.168 144.714 225.155 145.93 224.686L145.926 224.31ZM118.549 223.425C117.902 223.746 117.303 223.96 116.842 224.5C117.331 224.674 117.089 224.667 117.565 224.547C118.168 224.285 119.045 224.036 119.331 223.574L118.549 223.425ZM144.492 217.445C143.029 217.168 141.143 218.809 140.248 219.868C139.526 220.228 138.678 220.525 138.301 221.19C139.136 221.328 139.957 220.909 140.71 220.507C140.832 220.364 140.957 220.222 141.083 220.082C141.717 219.377 142.108 218.891 142.977 218.843C143.122 219.459 143.182 219.692 143.409 220.279C144.114 219.827 145.094 218.346 144.492 217.445ZM119.711 213.502C119.981 213.928 120.065 213.983 120.517 214.206L120.73 214.749C119.556 215.47 117.286 217.089 117.017 218.493C117.437 218.411 117.292 218.497 117.5 218.338C119.11 216.784 120.102 215.808 121.94 214.516C121.52 213.764 121.154 214.089 120.262 213.283L119.711 213.502ZM136.544 215.162C135.838 215.841 135.463 215.933 135.371 216.683L135.649 216.791L136.867 215.698L136.869 215.298L136.544 215.162ZM113.966 212.993C113.17 213.423 112.546 213.653 112.025 214.38L112.18 214.72L112.434 214.777L112.583 214.637C113.221 214.05 113.495 213.859 114.223 213.394L114.283 213.095L113.966 212.993ZM113.296 211.068C112.09 211.105 111.547 211.536 110.809 212.434C110.067 213.175 109.183 213.799 108.969 214.698C109.829 214.573 111.156 213.397 111.518 212.685C112.291 212.23 112.645 212.053 113.306 211.462L113.296 211.068ZM146.366 202.16C144.543 202.136 143.295 201.864 141.982 203.122C140.461 203.316 137.534 205.722 135.73 206.677C134.508 206.378 133.821 206.014 132.711 205.476C131.372 205.514 130.92 205.478 129.642 205.938L129.367 206.256L129.676 206.367C130.72 206.392 131.642 206.269 132.46 206.831L132.556 207.299C131.721 208.377 130.787 208.629 130.822 209.298C132.979 209.641 132.756 209.021 134.291 207.917C136.452 207.692 140.398 204.599 141.982 203.122C141.976 203.118 146.227 202.695 146.124 202.717L146.366 202.16ZM146.119 208.343C147.538 208.905 148.75 208.89 150.176 208.348L150.071 207.861C148.509 207.934 147.621 208.106 146.093 207.819L146.119 208.343ZM143.031 205.979C141.207 206.573 139.393 206.869 137.858 208.237L137.893 208.46C139.214 208.465 139.236 208.462 140.449 207.953C142.544 207.141 142.417 207.275 144.485 207.552L144.397 206.946C143.933 206.608 143.509 206.3 143.031 205.979ZM179.23 199.289C177.335 199.898 176.399 200.909 175.399 202.535C174.892 203.613 173.897 205.866 173.304 206.768C173.069 207.177 172.862 207.606 172.649 208.028L172.798 208.217C174.057 207.794 174.09 208.237 175.221 208.074C175.799 207.558 176.241 206.224 176.564 205.446C177.259 205.742 177.948 206.053 178.629 206.38C178.402 205.404 177.794 204.451 177.772 203.319C177.758 202.548 176.917 203.267 176.419 202.356C177.445 201.468 178.588 200.556 179.409 199.488L179.23 199.289ZM119.675 200.274C117.719 200.576 116.559 200.598 115.497 202.355C114.184 204.527 113.25 205.662 111.418 207.402L111.526 207.577L112.166 207.313C115.807 205.016 114.472 203.277 117.537 201.539C117.653 201.474 118.89 201.7 119.164 201.753C119.998 201.417 119.959 201.386 120.489 200.706L120.348 200.348L119.675 200.274ZM167.814 202.556C166.925 202.594 166.311 203.168 165.566 203.693C164.433 204.014 163.309 205.122 163.383 206.351L163.719 206.334C164.561 205.366 164.762 204.793 165.83 204.396C166.687 204.027 167.231 203.523 167.845 202.843L167.814 202.556ZM153.321 203.024C152.118 202.415 148.684 202.894 147.769 203.787C145.764 206.022 145.684 203.478 143.963 204.782L143.78 205.634L144.036 205.76C145.3 204.949 145.346 204.987 146.818 205.528C147.461 205.386 147.848 204.86 148.189 204.317C150.057 203.128 151.412 203.46 153.439 203.445L153.321 203.024ZM120.173 204.158C119.587 203.452 118.197 202.744 117.437 203.539C118.086 204.213 118.144 204.016 119.305 204.217C121.464 205.27 121.407 205.438 123.701 204.825C124.784 204.848 125.04 204.81 126.119 204.629L126.195 204.401C125.255 204.012 123.463 204.012 122.559 204.416C121.38 204.704 121.165 204.894 120.173 204.158ZM173.196 203.261C171.977 203.144 168.466 203.541 167.777 204.624L168.116 205.062C170.212 204.168 171.197 203.843 173.368 203.328L173.196 203.261ZM140.818 198.903C139.757 198.648 136.581 200.156 135.473 200.665C134.136 201.333 130.914 201.836 130.592 202.181C132.21 203.038 134.421 201.833 135.992 201.12C137.189 200.784 140.094 199.879 140.818 198.903ZM296.05 200.291C295.215 200.796 295.17 200.867 294.585 201.65L294.545 201.979C295.757 201.917 297.507 201.03 298.64 200.573C299.035 200.737 299.372 200.877 299.652 200.993C300.595 201.247 302.69 200.871 303.067 199.981C302.102 199.348 300.459 200.137 297.822 199.225L296.05 200.291ZM153.118 201.551L153.31 201.893C154.254 200.937 154.863 200.08 155.231 198.778L154.897 198.385L153.118 201.551ZM97.4932 199.721C96.3776 199.95 96.0876 199.902 94.9502 199.73L94.3877 200.181C94.713 201.301 96.8098 201.543 97.8008 201.407C99.2509 201.194 100.66 201.135 102.122 201.05C100.745 200.769 98.5084 200.492 97.4932 199.721ZM172.053 200.48L172.084 200.624L172.439 200.606C173.69 200.739 174.358 200.891 175.597 200.623L175.715 200.386C175.461 200.255 175.256 200.12 174.99 200.053L172.053 200.48ZM168.369 198.437C168.008 198.198 166.855 198.255 166.447 198.329C165.045 198.6 162.667 199.221 161.492 200.013C161.973 200.318 162.303 200.09 163.064 199.944C164.214 199.63 167.411 198.837 168.369 198.437ZM148.335 197.27C147.036 197.477 144.373 198.553 143.463 199.405L143.708 199.617L144.064 199.559C145.737 198.941 147.394 198.203 149.059 197.531C148.672 197.23 148.904 197.338 148.335 197.27ZM174.086 196.39C173.476 196.757 172.703 197.133 172.282 197.674C172.757 197.854 172.501 197.835 173.054 197.658C173.592 197.437 174.873 197.024 175.119 196.643C174.612 196.394 174.641 196.367 174.086 196.39ZM287.365 193.616C286.143 194.188 281.945 195.807 281.442 196.703C282.327 197.028 282.845 196.661 283.545 196.131L284.713 196.033C284.955 196.579 284.845 196.371 284.755 197.116C285.265 197.31 285.078 197.243 285.688 197.171L285.878 197.404C286.388 196.532 287.228 194.711 287.74 194.139L287.365 193.616ZM257.683 195.011C257.29 195.765 256.92 196.406 257.138 197.218C258.133 197.505 258.356 196.64 259.981 196.981C260.787 196.667 260.42 196.906 261 196.082L260.942 195.577C259.642 194.966 259.168 195.505 257.683 195.011ZM185.537 192.96C183.844 192.742 182.15 193.335 180.647 194.094C179.349 195.097 178.175 194.055 176.893 195.133L176.708 195.698C177.922 195.786 180.188 195.579 181.24 194.923L181.521 194.99C182.212 195.161 182.59 195.167 183.058 195.683C183.167 196.44 183.044 196.596 183.478 197.009C184.496 196.515 185.285 196.074 186.26 195.514L186.35 195.047C186.488 194.649 186.808 194.149 187.017 193.681C186.509 193.409 186.058 193.202 185.537 192.96ZM126.706 192.731C125.638 192.695 124.765 193.238 123.76 193.699C121.581 193.09 115.811 194.666 115.083 196.604C117.284 196.945 120.058 192.821 123.593 194.314C124.801 193.955 125.635 193.803 126.663 193.07L126.706 192.731ZM314.053 193.736C313.23 193.236 312.863 193.166 311.865 193.292C310.245 193.876 309.618 194.01 308.325 195.152L308.14 195.594C308.64 196.077 308.343 195.882 309.21 195.958L309.813 195.69C311.708 195.626 312.787 195.835 314.112 194.527C314.292 194.025 314.273 194.284 314.053 193.736ZM105.748 193.759C104.237 194.21 102.492 192.708 101.355 192.988C100.696 193.37 99.1852 194.183 98.6963 194.657C100.553 194.273 101.75 193.555 103.609 194.056C104.607 194.67 106.005 194.91 106.718 193.771C106.297 193.607 106.185 193.628 105.748 193.759ZM326.298 187.809C325.168 188.273 322.127 189.526 321.487 190.45L321.643 190.811L322.47 191.127C321.915 192.423 320.628 192.935 320.245 194.115L320.407 194.434C320.817 194.233 320.83 194.27 321.16 193.978C322.148 193.105 323.118 192.257 324.065 191.34C323.463 190.465 322.916 191.264 322.86 190.455C324.143 189.567 328.043 189.425 328.418 188.402C327.526 187.88 327.363 187.918 326.298 187.809ZM141.609 192.597C143.065 193.059 144.732 193.442 146.096 194.02C145.425 192.985 142.702 192.107 141.484 192.021L141.609 192.597ZM156.503 188.999C156.274 189.521 156.059 190.016 155.803 190.527C155.512 189.432 155.761 189.76 154.957 189.121C153.907 188.881 152.626 188.865 151.569 189.046L151.826 189.698C152.628 189.901 153.539 190.002 154.014 190.616C154.234 191.57 154.267 191.544 154.111 192.488C153.577 192.871 153.121 193.174 152.566 193.529L152.622 193.816C153.5 194.077 155.162 193.898 155.451 192.867C156.285 191.786 157.874 190.213 156.878 188.902L156.503 188.999ZM248.047 191.322C246.272 191.698 243.227 191.95 242.363 193.244L242.41 193.703C242.838 193.778 242.737 193.837 243.07 193.724C245.733 192.306 248.367 193.23 249.009 191.796L248.83 191.358C248.562 191.334 248.298 191.284 248.047 191.322ZM141.39 190.25C140.124 190.85 139.729 190.787 139.027 191.84C138.994 192.516 138.997 192.924 138.83 193.592C140.127 193.03 140.477 191.933 141.446 190.601L141.39 190.25ZM176.631 191.828C175.886 191.658 174.796 191.298 174.14 191.472L173.957 191.854C175.024 192.254 175.663 192.567 176.811 192.482L176.631 191.828ZM116.022 190.363C116.029 191.593 116.354 191.761 117.45 192.479L117.694 192.448L117.829 192.024C117.262 191.276 116.866 190.824 116.022 190.363ZM117.997 186.379C115.753 187.391 115.249 187.118 113.497 187.635C112.978 187.788 109.039 190.532 108.212 191.084L108.127 191.58L108.645 191.92C111.651 191.765 111.038 190.644 112.722 188.718C113.507 187.82 118.722 188.291 118.819 186.769L118.359 186.212L117.997 186.379ZM135.506 187.778C134.29 189.255 132.389 189.042 130.668 191.408L130.72 191.767L131.497 191.626L132.357 191.001C134.274 191.358 135.424 190.023 135.736 188.246L135.506 187.778ZM278.005 189.874C277.085 189.421 274.436 188.981 273.508 189.321C271.716 190.431 269.364 190.054 268.646 190.445C269.128 190.796 269 190.796 269.272 191.325C270.822 191.427 271.128 190.681 273.563 190.856C274.57 190.904 274.698 190.981 275.527 191.561C276.457 191.294 276.33 190.478 278.005 189.874ZM168.784 189.21C167.904 189.656 167.365 189.803 166.849 190.591C167.484 190.68 167.159 190.696 167.827 190.316L168.04 190.224C168.938 189.838 169.336 189.724 170.282 189.488C169.781 189.183 169.377 189.233 168.784 189.21ZM250.175 186.256C249.126 186.46 248.377 187.182 247.495 187.846C245.309 188.516 244.934 188.767 243.139 190.339L243.239 190.488C244.627 190.077 246.47 189.118 247.815 188.438C248.694 187.916 249.497 187.275 250.202 186.534L250.175 186.256ZM163.356 187.754C161.179 188.878 158.803 188.468 158.364 189.195L158.616 189.653C160.545 189.518 161.723 189.428 163.411 188.318L163.591 187.892L163.356 187.754ZM147.323 187.655C146.782 187.353 146.462 187.469 145.825 187.526C145.091 187.897 144.148 188.298 143.591 188.86C144.225 188.996 143.903 188.97 144.606 188.722C145.435 188.465 146.688 188.171 147.323 187.655ZM253.083 186.417C252.411 186.939 251.342 187.6 251.095 188.347C251.392 188.65 251.32 188.646 251.683 188.82C252.565 188.143 252.868 187.995 253.45 187.085L253.463 186.611L253.083 186.417ZM178.329 187.669C177.536 187.83 177.007 187.92 176.236 188.2L176.314 188.521L176.638 188.713C177.678 188.598 177.623 188.617 178.481 188.015L178.473 187.716L178.329 187.669ZM285.89 186.559C285.19 186.166 284.443 186.266 283.615 186.326L283.245 186.773C283.835 187.068 284.715 186.762 285.5 186.626L285.89 186.559ZM273.548 185.339C271.82 185.731 269.887 185.821 268.407 186.321L268.31 186.636L268.515 186.851C270.215 186.402 272.35 186.651 273.683 185.633L273.548 185.339ZM327.115 183.195C326.01 183.793 325.305 184.066 324.485 185.02L324.313 185.643C324.745 186.24 324.47 186.051 325.133 186.269C326.64 185.426 326.973 185.144 327.647 183.558C327.51 183.459 327.255 183.257 327.115 183.195ZM301.945 181.204C299.59 183.309 299.605 183.843 296.655 185.473L296.718 185.818L296.84 185.895C298.38 185.125 301.68 183.242 302.16 181.465L301.945 181.204ZM176.836 183.503C175.561 184.04 174.522 184.293 173.391 184.995C173.839 185.198 174.704 184.835 175.212 184.655L175.544 185.612C176.523 185.449 176.867 184.539 177.335 183.732L177.122 183.491L176.836 183.503ZM321.878 184.188C321.251 184.503 320.383 184.8 320.07 185.308C320.343 185.399 320.525 185.499 320.787 185.498C321.717 185.236 322.098 185.299 322.675 184.716C322.29 184.285 322.45 184.401 321.878 184.188ZM262.415 183.538C261.745 183.869 260.745 184.198 260.49 184.742L260.897 184.985L262.86 183.814L262.853 183.548L262.415 183.538ZM334.8 182.834C336.495 183.558 336.72 183.249 338.633 184.349L341.71 183.55L342.59 182.522L342.518 182.324C339.833 182.258 337.345 181.942 334.643 181.942L334.8 182.834ZM114.489 181.65C114.469 183.628 116.15 184.159 117.804 183.338C118.52 182.774 118.556 182.731 119.135 182.021L119.077 181.648C118.31 181.858 118.075 182.35 117.58 183.002C116.729 183.168 116.348 183.351 115.534 182.949C115.06 182.242 115.229 182.316 115.237 181.275L114.914 181.237L114.489 181.65ZM147.373 181.074C146.331 180.979 145.941 181.51 145.085 182.215L144.334 183.646C145.532 183.125 146.93 182.372 147.373 181.074ZM204.569 178.696C205.777 179.268 206.742 179.513 207.31 180.638C206.372 181.843 203.257 181.412 201.577 182.23L201.744 182.509L202.528 182.606C204.812 182.197 206.599 181.94 208.526 180.562L208.741 180.062C207.967 178.921 205.841 178.622 204.569 178.696ZM229.504 178.866C228.659 179.733 227.795 180.581 226.914 181.41C227.205 181.783 227.021 181.665 227.454 181.783C228.098 181.167 229.987 179.661 230.043 179.151L229.504 178.866ZM338 179.486C337.11 179.919 335.467 180.383 335.192 180.882L335.348 180.97C336.58 180.868 336.875 180.913 337.96 180.398L338.26 179.983C338.205 179.871 338.072 179.564 338 179.486ZM151.743 172.773C150.374 173.778 150.017 174.085 148.328 174.475C147.483 175.665 147.135 176.918 146.773 178.306L147.284 178.331C148.617 178.205 151.331 178.097 152.409 177.524L152.44 177.125L151.745 176.703C151.34 176.045 150.587 175.021 150.542 174.309L150.655 174.201C151.29 174.044 152.749 174.454 153.468 174.608C154.124 174.195 154.131 174.083 154.643 173.488L154.51 173.364C153.909 173.748 153.748 173.972 153.103 174.021C152.674 173.193 152.639 172.8 151.743 172.773ZM326.106 175.875C325.208 176.167 324.01 176.371 323.5 176.983C323.72 177.332 323.653 177.347 323.96 177.524C325.152 177.036 325.395 176.988 326.372 176.197L326.425 175.833L326.106 175.875ZM201.064 175.706C200.361 176.028 199.008 176.527 198.604 177.09C199.047 177.231 198.93 177.215 199.077 177.219C199.871 176.867 200.886 176.544 201.374 175.877L201.064 175.706ZM190.606 174.733C189.305 175.167 188.228 175.459 187.073 176.221L186.925 176.612L187.453 176.826C188.47 176.336 190.308 175.569 191.059 174.841L190.606 174.733ZM99.8614 173.164C98.4787 174.8 97.2871 175.328 95.46 176.437L95.4776 176.625C96.5658 176.34 96.8002 176.118 97.6719 175.827C99.0234 175.179 100.815 175.185 102.307 175.173C101.712 174.728 100.879 174.454 100.176 174.177C100.277 173.883 100.342 173.595 100.41 173.292L100.063 172.921L99.8614 173.164ZM275.38 174.219C274.372 174.821 274.18 174.937 273.375 175.784L273.295 176.32L273.468 176.509C274.018 176.007 275.418 174.921 275.558 174.36L275.38 174.219ZM172.786 174.454C172.153 174.865 171.415 175.243 171.016 175.851C171.445 175.862 171.273 175.918 171.552 175.765C172.202 175.534 173.174 175.297 173.555 174.796C173.136 174.391 173.375 174.53 172.786 174.454ZM135.031 172.1C133.635 170.516 132.128 171.582 131.102 172.955C130.489 173.638 130.513 173.594 130.268 174.478C129.966 174.69 129.699 174.921 129.413 175.155L129.423 175.474C130.437 175.404 131.411 174.814 132.215 174.226C133.387 173.872 133.379 173.576 134.007 172.636L134.709 172.531L135.031 172.1ZM301.553 174.412C300.943 174.107 300.87 174.195 300.165 174.266C299.4 174.468 298.752 174.532 298.225 175.087C298.897 175.278 299.253 175.097 299.93 174.903C300.902 174.774 300.908 174.931 301.553 174.412ZM353.772 174.039C353.098 173.938 353.263 173.931 352.588 173.985L351.553 174.457L351.495 174.694C352.2 174.848 352.398 174.88 353.117 174.925L353.793 174.307L353.772 174.039ZM180.962 170.444C179.483 171.33 176.525 172.095 174.795 172.418L174.877 172.834C175.818 173.46 176.618 173.528 177.731 173.762C178.598 173.496 178.219 173.716 178.875 173.021C181.379 171.798 182.403 173.294 184.475 171.713L184.572 171.34C183.676 170.685 181.934 171.421 180.962 170.444ZM338.17 172.839L336.652 173.354L336.66 173.64L336.987 173.758C337.85 173.574 338.068 173.591 338.74 173L338.558 172.8L338.17 172.839ZM311.458 172.66C310.756 172.338 311.13 172.434 310.265 172.495C309.462 172.8 308.697 172.998 308.107 173.604C308.62 173.689 308.583 173.693 309.053 173.476C309.86 173.281 310.811 173.135 311.458 172.66ZM117.685 169.92C117.106 169.61 116.718 169.756 115.948 169.778C114.978 170.664 112.52 171.986 112.396 173.187L112.917 173.163L113.455 172.547L113.675 172.324C115.149 170.849 115.768 170.764 117.685 169.92ZM320.365 171.865C319.433 172.066 318.495 172.245 317.555 172.403L317.412 172.704L317.723 172.866C319.032 172.756 319.265 172.801 320.412 172.25L320.62 171.869L320.365 171.865ZM155.254 169.99C155.578 171.628 157.092 171.349 158.715 171.634C158.209 170.168 156.737 170.192 155.254 169.99ZM324.53 168.004C323.635 168.706 322.865 169.198 322.24 170.141L322.305 170.582L322.458 170.693C323.275 169.965 323.918 169.361 324.683 168.577C324.658 168.082 324.757 168.252 324.53 168.004ZM216.808 166.146C214.815 167.635 213.387 168.628 211.281 169.969L211.408 170.18L211.808 170.08C213.685 169.509 215.891 167.725 217.412 166.44L217.369 166.218L216.808 166.146ZM272.067 168.261C271.213 168.924 270.867 168.946 270.577 169.784L270.813 170.056C271.542 169.527 271.81 169.41 272.255 168.613L272.067 168.261ZM185.666 168.771C185.754 168.767 185.841 168.759 185.928 168.751L185.834 168.505L185.666 168.771ZM193.632 165.533C192.082 165.763 191.215 166.356 189.809 167.065L186.205 168.313L186.141 168.728C187.44 168.57 188.681 168.081 189.921 167.625C191.332 167.05 191.745 166.855 193.063 166.049L193.215 165.74L193.55 165.646L193.632 165.533ZM344.532 165.893C341.845 167.494 339.765 166.326 338.232 167.06L338.62 167.442C340.905 167.75 342.652 167.831 344.59 166.398L344.63 165.972L344.532 165.893ZM162.301 164.929C161.596 165.511 159.778 166.771 159.709 167.396L159.93 167.473C161.203 166.982 162.122 166.655 162.679 165.324C162.429 164.934 162.587 165.023 162.301 164.929ZM184.963 166.43C184.265 166.118 182.578 166.276 181.805 166.37L181.674 166.819C182.925 166.98 183.527 166.779 184.726 166.729L184.963 166.43ZM277.668 165.3C276.926 164.926 275.95 165.235 275.037 165.38C274.133 165.642 274.113 165.487 273.615 166.079C274.54 166.359 274.568 166.142 275.697 165.809C276.76 165.733 276.718 165.759 277.668 165.3ZM234.023 163.923C233.251 164.336 232.312 164.707 231.896 165.426L232.198 165.75C232.846 165.322 234.009 164.684 234.337 164.051L234.023 163.923ZM301.973 159.647C301.133 160.997 299.828 163.042 299.731 164.636L299.915 164.928L300.095 164.865C300.802 162.588 302.325 161.451 302.695 159.925C302.223 159.629 302.468 159.71 301.973 159.647ZM331.468 162.256C328.52 163.819 327.975 164.324 324.742 164.392L324.646 164.746C327.125 164.728 329.415 164.621 331.325 162.807L331.468 162.256ZM355.975 160.452C353.682 161.948 350.015 162.199 348.702 163.254C348.732 163.67 348.65 163.539 348.787 163.712C351.072 162.621 354.777 162.29 356.17 160.902C356.117 160.52 356.205 160.657 355.975 160.452ZM179.142 160.657C178.389 160.687 177.949 161.214 177.206 161.517L176.786 161.685C175.849 162.344 175.748 162.167 175.526 163.008C176.389 163.436 176.855 162.891 177.478 162.327C178.274 161.711 178.669 161.511 179.142 160.657ZM225.881 160.172C224.995 160.726 222.961 161.899 222.356 162.618C222.727 162.985 222.504 162.874 223.027 162.944C223.777 162.254 226.085 160.884 226.403 160.388C225.997 160.142 226.182 160.17 225.881 160.172ZM261.253 159.5C260.425 159.405 258.518 160.675 257.455 161.103L257.032 161.27L256.107 161.37L255.905 161.922L255.275 161.688L255.412 161.935C256.485 162.208 256.87 161.909 257.787 162.487L257.981 162.626C258.895 162.71 258.898 162.695 259.813 162.525C260.737 161.873 261.917 160.693 261.253 159.5ZM177.844 157.387C175.996 158.244 174.592 159.824 173.509 161.508C173.771 161.951 173.592 161.796 174.023 162.001C175.582 160.219 176.429 158.967 178.507 157.73L178.403 157.493L177.844 157.387ZM132.217 158.229C131.377 158.822 129.104 160.044 128.848 160.587L129.075 160.836C130.33 160.331 131.524 159.722 132.392 158.655C132.34 158.511 132.32 158.342 132.217 158.229ZM208.616 156.449C207.445 157.239 207.102 157.411 206.309 158.612L206.669 159.204C205.665 160.048 205.05 159.291 204.002 160.258L203.91 160.62L204.329 160.729C205.538 160.511 206.155 160.489 207.209 159.847L207.446 159.473C207.131 158.379 207.043 158.841 207.504 158.004L209.313 156.849L209.25 156.556L208.616 156.449ZM287.085 158.236C286.395 158.601 285.183 159.057 284.94 159.621L285.298 159.771C286.093 159.39 286.933 159.119 287.46 158.495C287.338 158.403 287.23 158.276 287.085 158.236ZM363.595 157.458C363.025 158.039 362.438 158.462 362.333 159.222L362.585 159.554C363.132 158.976 363.728 158.521 363.848 157.779L363.595 157.458ZM188.999 156.256C187.941 156.6 187.903 156.431 187.265 157.138C187.983 157.399 188.063 157.194 188.979 156.928C189.644 156.831 190.696 156.796 191.126 156.436C190.34 156.333 189.803 156.247 188.999 156.256ZM336.955 155.197C336.118 155.619 335.42 155.981 334.612 156.452L334.715 156.719L335.106 156.766C336.063 156.284 336.573 156.061 337.583 155.706L337.655 155.396C337.48 155.343 337.12 155.218 336.955 155.197ZM154.475 154.222C153.725 154.61 153.153 154.919 152.435 155.36C152.469 155.803 152.389 155.631 152.596 155.905C153.466 155.455 154.103 155.222 154.724 154.485L154.582 154.235L154.475 154.222ZM266.095 153.563C264.412 153.478 261.292 153.132 259.965 154.006L259.872 154.499C260.152 154.83 261.172 155.087 261.907 155.636C262.962 155.487 263.15 154.796 264.287 154.54C265.382 154.518 265.943 154.306 266.708 153.602L266.527 153.333L266.095 153.563ZM291.442 153.169C290.567 153.869 288.383 154.871 288.138 155.15L288.35 155.616C289.915 155.432 290.802 154.78 291.84 153.6C291.52 153.205 291.677 153.321 291.442 153.169ZM368.405 152.5C367.258 153.426 365.765 153.946 365.22 155.134L365.365 155.485L365.867 155.546C366.722 154.947 368.97 153.553 369.465 152.911C369.08 152.519 369.102 152.549 368.585 152.352L368.405 152.5ZM355.732 152.195C355.662 153.098 355.605 153.428 355.732 154.311L356.067 154.577L356.982 154.188L357.3 153.582C357.084 153.393 355.875 152.291 355.732 152.195ZM330.098 152.217C330.8 153.036 331.002 153.187 331.885 153.82L332.165 153.562L332.13 153.133C331.345 152.476 331.168 152.351 330.098 152.217ZM319.146 146.686C317.471 148.039 315.705 149.751 315.265 151.956L315.485 152.433C315.978 152.219 315.833 152.296 316.298 151.937C316.941 151.751 319.093 150.971 319.396 150.498C318.166 150.247 318.24 150.298 317.06 150.819L316.553 150.452C317.288 149.135 318.248 147.904 319.146 146.686ZM333.955 150.442C333.37 149.738 332.335 149.795 331.51 149.888C330.125 150.442 328.468 150.749 327.508 151.335C329.695 151.557 330.623 150.554 332.415 150.438C333.143 150.61 333.383 150.708 333.955 150.442ZM271.013 149.199C270.048 149.544 269.787 149.556 269.112 150.271L269.322 150.417L269.907 150.224L271.912 149.659L272.021 149.413C271.711 149.342 271.32 149.236 271.013 149.199ZM300.853 147.399C300.073 147.744 299.767 147.692 299.492 148.274C300.495 148.373 300.583 148.333 301.588 148.114L301.805 148.255C302.665 148.831 302.235 148.768 303.077 148.701C302.952 147.752 301.67 147.52 300.853 147.399ZM311.86 144.426C310.918 145.347 309.218 146.898 308.905 148.148L309.192 148.093C310.242 147.04 311.3 145.992 312.362 144.95L312.333 144.571L311.86 144.426ZM172.522 144.163C171.102 144.034 171.204 146.473 167.79 146.468C167.084 146.905 166.879 146.857 166.606 147.479C167.605 147.44 168.02 147.358 169.011 147.168C170.274 147.056 172.389 145.481 172.522 144.163ZM115.06 143.609C114.355 143.951 113.856 144.022 113.566 144.572C113.743 144.651 113.997 144.78 114.173 144.822C114.884 144.32 115.121 144.304 115.461 143.594L115.06 143.609ZM231.099 142.237C230.195 142.644 228.384 143.715 227.98 144.644C228.397 144.654 228.361 144.707 228.722 144.573C229.895 143.393 230.641 143.133 232.145 142.427L232.079 142.229L231.099 142.237ZM373.138 137.116C372.003 137.057 369.602 137.417 368.692 138.071C366.55 139.217 365.5 139.931 364.093 141.99L364.095 142.28L364.161 142.335L364.202 142.26L364.548 142.447L364.322 142.158L364.775 142.332L365.112 142.035C366.097 142.214 366.215 142.415 366.95 142.084C368.285 141.851 368.53 141.696 369.745 141.063C370.573 141.611 375.383 143.197 376.128 142.375C376.03 141.241 376.225 141.715 375.65 140.85C373.738 139.717 371.595 141.531 370.535 140.729C371.218 139.322 373.05 139.32 373.378 137.377L373.138 137.116ZM342.955 138.267C341.783 138.947 339.427 139.617 338.827 140.048C338.752 140.588 338.738 140.558 338.87 141.082L339.12 140.915C340.918 139.747 342.63 139.698 342.955 138.267ZM219.031 138.108C218.226 139.209 217.988 139.328 216.712 139.804C217.004 140.254 217.059 140.315 217.433 140.703C218.455 140.235 218.633 139.655 219.384 138.647L219.364 138.268L219.031 138.108ZM130.224 135.6C129.4 136.6 128.254 139.064 128.787 140.334L129.13 140.562C129.29 138.624 129.577 137.679 130.653 135.981C130.386 135.619 130.547 135.723 130.224 135.6ZM364.928 137.431C363.913 138.244 362.812 139.006 362.067 140.05L362.123 140.408L362.625 140.444C363.72 139.912 365.242 139.289 365.452 137.966C365.155 137.482 365.358 137.605 364.928 137.431ZM211.954 139.087C210.882 138.809 209.667 139.154 208.522 139.259C207.746 139.6 207.298 139.721 206.714 140.343C207.399 140.567 208.593 140.021 209.345 139.759C210.178 139.639 211.388 139.586 211.954 139.087ZM355.022 137.903C354.225 137.799 354.385 137.894 353.51 138.333C352.402 138.297 351.71 138.491 350.822 139.239L351.067 139.564C351.727 139.61 351.955 139.348 352.508 138.962C352.795 138.966 353.203 138.956 353.478 138.991L353.755 139.009C354.345 138.658 354.74 138.519 355.022 137.903ZM238.477 138.405C239.052 138.746 242.644 138.616 244.06 138.791L244.547 138.708C244.111 138.159 240.536 138.104 239.183 137.646L238.477 138.405ZM322.237 134.362C321.042 134.853 317.67 136.196 316.78 136.925L316.76 137.24L316.878 137.347C318.755 136.611 320.782 135.884 322.372 134.624L322.237 134.362ZM128.368 136.414C126.428 135.664 125.006 135.557 122.973 135.869L122.858 136.309C124.82 136.341 126.235 136.466 128.168 136.802L128.368 136.414ZM357.155 131.2C354.848 133.024 354.11 134.507 351.492 135.726L351.232 136.129L351.452 136.344C353.959 135.26 355.342 133.691 357.305 131.785L357.33 131.377L357.155 131.2ZM302.058 133.291C300.758 133.062 297.485 133.195 296.225 133.361C297.437 133.933 300.56 134.153 301.987 134.207L302.577 133.933C302.392 133.575 302.383 133.348 302.058 133.291ZM340.622 131.775C338.855 130.432 338.765 130.815 336.65 131.336L336.545 131.656C337.175 131.799 337.453 131.892 338.093 131.78C340.135 131.425 342.338 134.902 344.585 133.253L344.54 132.627C342.398 130.997 343.93 130.417 340.622 131.775ZM324.481 131.068C323.691 131.272 321.781 131.571 321.343 132.029C321.478 132.523 321.363 132.345 321.593 132.611C322.678 132.288 323.52 132.112 324.475 131.507L324.588 131.126L324.481 131.068ZM159.978 130.328C159.029 130.983 158.949 131.116 158.361 132.114L158.439 132.406L158.631 132.325C159.206 131.857 160.21 131.194 160.401 130.545L159.978 130.328ZM294.29 127.56C293.248 127.642 292.29 128.452 291.595 129.174C290.972 129.879 290.115 130.969 290.435 131.981C291.065 131.583 291.458 130.506 291.833 129.771C292.144 129.358 293.783 128.015 294.29 127.56ZM283.293 127.896C281.613 130.141 277.523 130.187 275.673 131.474C275.945 131.737 275.793 131.69 276.09 131.697C278.92 130.771 280.383 129.657 282.732 130.491C283.622 129.697 283.635 129.309 283.59 128.155L283.293 127.896ZM247.005 128.11C246.468 128.805 246.34 128.885 246.279 129.776C246.576 129.636 246.475 129.741 246.61 129.493L247.728 128.578L247.755 128.284L247.005 128.11ZM337.942 125.236C336.69 125.295 336.362 125.54 335.225 126.08L333.06 126.96C332.088 127.277 331.448 127.406 330.646 128.028C329.856 128.236 328.217 129.075 327.652 129.629C329.17 129.777 329.891 129.403 330.646 128.028C331.988 127.854 332.51 127.805 333.827 127.349C334.39 127.08 334.957 126.819 335.527 126.567C336.31 126.168 337.547 125.767 337.942 125.236ZM131.796 126.252C129.84 127.545 126.606 127.267 125.356 128.511C125.85 128.893 126.356 128.868 126.994 128.939C128.275 127.756 132.422 128.416 132.765 126.814C132.225 126.383 132.437 126.491 131.796 126.252ZM361.978 127.309L361.905 127.571C363.31 127.699 363.745 127.467 364.76 127.502C365.577 127.789 366.323 128.186 367.106 127.914L367.183 127.552C366.255 126.472 365.53 126.494 364.103 126.279L361.978 127.309ZM355.835 126.297C354.773 126.616 353.805 126.776 353.013 127.506C353.67 127.718 354.508 127.362 355.188 127.136C356.26 127.037 357.045 127.603 357.755 127.386L357.78 127.027C357.093 126.375 356.94 126.535 355.835 126.297ZM342.375 125.045C341.43 125.252 339.957 125.486 339.17 125.951C339.307 126.392 339.185 126.247 339.445 126.454C340.273 126.163 342.065 125.667 342.567 125.087L342.375 125.045ZM155.697 124.375C155.119 124.95 154.205 125.625 154.145 126.272L154.663 126.356C155.297 125.763 155.767 125.317 156.346 124.673C156.008 124.334 156.217 124.446 155.697 124.375ZM301.418 120.469C299.733 121.147 299.452 121.189 298.697 122.759L298.805 123.25C299.42 122.969 299.14 123.12 299.603 122.458C300.408 121.672 301.661 121.307 302.708 120.853L302.685 120.62C302.115 120.501 301.992 120.449 301.418 120.469ZM296.718 121.755C295.66 122.384 295.267 122.461 294.055 122.688L293.978 122.948L294.33 123.223C295.335 123.267 296.33 123.09 296.928 122.177L296.718 121.755ZM341.532 118.574C340.057 119.893 339.262 119.788 338.912 121.53C339.04 121.781 339.045 121.883 339.24 122.041C340.038 121.062 341.739 119.529 341.76 118.78L341.532 118.574ZM325.8 119.484C325.15 119.21 325.417 119.275 324.678 119.331C323.468 119.435 321.143 119.333 320.313 120.152C320.585 120.632 320.4 120.414 321.155 120.632L322.202 120.26C323.192 119.958 325.122 120.159 325.8 119.484ZM342.673 120.004C343.353 120.563 344.315 120.254 345.197 120.134L345.41 119.671C344.793 119.368 343.592 119.258 342.845 119.114L342.673 120.004ZM304.747 119.192L304.765 119.4C305.465 119.38 306.268 119.314 306.945 119.438L307.518 119.623L307.537 119.38C306.675 118.876 306.63 118.841 305.685 118.548L304.747 119.192ZM351.867 115.578C351.997 116.01 352.032 116.089 352.01 116.551L350.923 117.693C352.233 118.252 352.618 115.998 356.125 117.595C356.807 117.48 356.935 117.237 357.532 116.763L357.583 116.394C357.131 116.219 357.237 116.156 356.942 116.291C355.967 116.738 354.402 116.303 353.202 116.146C352.995 115.875 352.79 115.6 352.59 115.323L351.742 115.165L351.867 115.578ZM213.322 117.294C213.068 117.317 212.815 117.344 212.562 117.375L212.879 117.755C213.733 117.787 214.247 117.78 215.102 117.729C214.463 117.176 214.407 117.206 213.322 117.294ZM234.411 116.262C233.264 116.119 231.848 116.227 230.69 116.372C231.588 116.811 233.638 116.978 234.509 116.791L234.411 116.262ZM292.372 113.386C291.72 114.434 291.357 114.787 290.497 115.688L289.572 116.321L289.535 116.627C290.558 116.63 291.542 116.465 292.527 116.188C293.187 116.052 292.935 116.142 293.497 115.682C293.562 114.795 293.137 114.311 292.692 113.412L292.372 113.386ZM334.275 113.765C333.118 114.157 330.828 114.852 330.442 116.152L330.688 116.316L331.357 115.767C332.565 114.907 333.843 114.645 335.263 114.252L335.15 113.92L334.275 113.765ZM307.918 109.59C306.638 109.757 306.372 109.737 305.232 110.261L305.188 110.476L305.803 110.499C306.972 110.334 307.403 110.364 308.38 109.771L308.228 109.497L307.918 109.59ZM259.463 108.238C258.488 108.706 257.59 108.955 257.433 110.142L257.65 110.2C258.32 109.639 258.986 109.071 259.646 108.497L259.463 108.238ZM285.5 107.296C283.115 108.113 281.917 107.504 279.6 108.991L279.425 109.414L279.622 109.639C282.427 108.008 283.865 108.881 285.603 107.679C285.565 107.328 285.647 107.431 285.5 107.296ZM205.986 107.404C205.061 108.147 204.628 108.452 203.606 109.054L203.649 109.429L204.13 109.546C204.985 108.964 205.722 108.572 206.305 107.731C206.074 107.431 206.199 107.518 205.986 107.404ZM296.458 103.314C295.368 103.393 294.562 104.34 293.71 105.099C293.205 105.897 292.755 106.541 292.393 107.424C292.89 109.014 294.748 108.399 296.106 108.159L296.315 107.886C295.428 106.986 294.915 107.429 293.705 107.771L293.378 107.489C293.593 106.599 293.7 106.514 294.228 105.801C295.065 105.397 296.107 104.497 296.595 103.662L296.458 103.314ZM331.303 105.415C330.773 106.103 329.697 107.203 329.652 107.883L329.843 108.069C330.42 107.529 331.473 106.653 331.803 105.999C331.548 105.572 331.68 105.66 331.303 105.415ZM211.082 106.241C210.307 106.663 209.751 106.773 209.426 107.41L209.833 107.536L211.263 106.767L211.355 106.385L211.082 106.241ZM356.327 101.974C355.665 102.731 354.983 103.744 354.388 104.575C353.243 106.433 353.135 104.796 353.075 106.051L353.545 106.992C354.3 106.973 355.853 105.965 357.343 105.736C358.063 105.39 358.637 105.181 359.215 104.629C359.012 103.907 357.707 103.964 357.022 103.366C357.022 103.366 356.382 102.086 356.327 101.974ZM339.705 104.408C338.475 104.182 338.083 104.294 336.833 104.484C336.066 104.844 334.305 106.025 333.915 106.747C334.95 107.061 336.288 105.565 336.981 104.868C338.063 104.638 338.72 104.981 339.705 104.408ZM307.723 102.254C306.963 103.065 306.813 103.15 306.428 104.156C306.952 104.148 306.695 104.216 307.16 103.786L307.317 103.651C308.007 103.069 308.233 102.936 309.025 102.514C308.665 102.16 308.398 102.286 307.723 102.254ZM258.91 100.381C257.938 102.616 257.732 101.863 256.68 103.254L257.032 103.795C257.942 102.97 259.242 102.001 259.308 100.756L258.91 100.381ZM283.308 101.521C282.155 102.188 280.987 102.823 279.8 103.424L279.732 103.793C281.305 103.445 282.142 103.181 283.265 102.011C283.285 101.848 283.345 101.68 283.308 101.521ZM230.639 99.4434C231.814 100.061 232.417 99.5602 234.077 100.555L234.394 99.7549C233.756 99.3511 231.81 99.1249 230.888 98.9531L230.639 99.4434ZM244.326 95.2568C243.261 95.839 240.026 97.4284 239.609 98.5195L239.682 98.8008C240.623 98.2083 243.91 96.2777 244.412 95.5664L244.326 95.2568ZM293.26 96.4102C292.197 97.1166 291.455 97.5779 290.495 98.4365L290.53 98.7021L290.853 98.7646C291.662 98.3235 293.392 97.3433 293.89 96.5674C293.625 96.4809 293.522 96.4139 293.26 96.4102ZM340.742 94.5664C340.33 95.6764 340.042 95.7911 340.38 96.5752C341.402 96.9224 343.128 95.9211 344.455 95.6426L345.03 95.7266L345.095 95.4131C342.76 94.3885 342.697 95.0546 340.742 94.5664ZM308.063 89.1543C306.24 89.9978 305.568 91.5741 305.035 93.4551L305.26 93.6611L305.86 93.502C307.518 90.2134 305.335 90.8578 309.327 89.5215C308.793 89.1371 308.807 89.241 308.063 89.1543ZM234.918 88.7109C233.405 89.5879 231.529 90.7744 230.315 92.0283L230.231 92.4834L230.422 92.6816C231.291 92.0289 234.687 89.5323 235.139 88.9453L234.918 88.7109ZM219.522 91.2939C221.478 92.7442 221.548 93.1389 223.728 91.7754L223.585 91.3584C221.846 91.7691 221.274 91.6559 219.522 91.2939ZM292.595 91.0293C293.4 91.8753 294.058 92.3981 295.232 92.4297C296.025 92.1687 296.003 92.1131 296.55 91.5176L296.237 91.3037C294.738 92.0015 293.862 91.2555 292.595 91.0293ZM260.793 88.6348C259.843 88.702 257.83 88.8139 257.223 89.5127L257.765 89.5225C259.12 89.3737 259.863 89.3429 261.165 88.8584L261.26 88.5527L260.793 88.6348ZM241.865 86.8447C241.653 87.7273 241.375 88.4041 241.62 89.2529C242.147 88.6562 242.608 87.8395 243.472 87.834C244.257 87.7772 245.17 87.7816 245.862 87.4629C244.546 87.2722 243.165 87.0985 241.865 86.8447ZM282.992 82.1934C281.947 83.146 279.922 86.0387 279.345 87.3398C279.747 88.0526 279.988 88.2562 280.54 88.8359L280.51 88.415C280.462 87.8388 280.401 87.5788 280.271 87.0195C280.638 85.6201 283.667 83.8115 283.247 82.3623L282.992 82.1934ZM235.437 83.1309C234.206 83.3129 231.106 83.5373 230.466 84.374L230.615 84.708C230.932 84.774 231.315 84.8633 231.637 84.917C232.948 84.3095 234.937 83.9623 235.945 83.2754L235.808 83.1289L235.437 83.1309ZM293.813 78.8945C293.078 79.7348 292.03 80.7346 292.357 81.9648C293.175 82.1601 293.748 81.5138 294.357 80.9766C295.597 80.9751 295.413 81.1793 296.125 80.5586C296.288 79.0183 294.988 78.8923 293.813 78.8945ZM317.833 80.1914C316.723 80.7017 316.312 80.8149 315.43 81.6602L315.643 81.8877L316.083 81.7148C317.095 81.3067 317.853 80.9993 318.835 80.501L318.805 80.2881C318.403 80.2284 318.238 80.18 317.833 80.1914ZM282.308 74.2334C281.628 74.4561 280.942 74.5773 280.487 75.0898L280.646 75.541L280.94 75.5576C281.658 75.2092 282.425 75.0076 282.72 74.418L282.308 74.2334ZM272.68 72.0098C270.835 72.7139 270.247 73.1711 269.282 74.9131C269.332 75.4483 269.215 75.2642 269.49 75.5342C269.958 74.345 270.076 74.3074 271.106 73.6279L272.787 72.5166L272.82 72.1494L272.68 72.0098Z" fill="#EDC43E"/>
<path d="M243.545 147.89C247.927 145.312 254.005 147.373 257.17 143.536C257.548 141.768 254.89 139.377 253.435 138.681C252.963 138.907 252.995 138.901 252.473 138.945C251.908 138.214 252.543 137.768 252.39 137.586C246.666 130.759 246.563 124.722 253.483 118.121C259.205 112.661 259.995 114.19 268.228 114.327C278.138 120.713 274.865 127.022 273.12 136.686C275.458 137.23 282.07 138.794 283.965 138.706C287.898 138.524 299.345 139.017 302.125 136.217L301.533 136.291L301.363 136.122C301.635 135.557 301.72 135.582 302.258 135.221C306.87 136.9 309.92 127.62 311.15 124.446C310.743 122.97 310.425 121.33 310.103 119.82C311.628 118.244 313.148 116.66 314.658 115.068C315.633 114.825 316.71 114.623 317.703 114.415C322.7 119.141 318.035 126.515 315.75 131.173C306.9 149.209 284.58 150.013 267.44 146.516C263.76 148.11 259.925 151.665 256.3 153.393C254.143 154.422 249.954 154.812 247.6 155.722C246.502 156.147 245.167 157.749 244.087 157.881C243.222 157.986 240.924 156.921 240.237 156.962C239.015 157.033 238.527 157.931 236.956 157.786C234.427 156.373 235.525 157.942 233.505 157.936C232.546 157.932 230.258 157.257 229.138 157.282C226.719 157.336 224.05 158.027 221.66 157.663C220.417 157.473 218.214 156.25 216.957 156.031C214.615 155.621 212.759 156.304 210.697 154.891C210.152 154.517 208.96 153.839 208.255 153.788C207.998 153.932 207.674 154.14 207.385 154.229C206.072 154.634 203.273 153.577 201.77 153.42C198.924 153.123 189.607 154.341 187.912 153.43C187.291 153.095 186.076 153.723 185.447 153.946C184.133 154.412 182.294 155.286 180.9 155.316C179.427 155.347 178.09 154.858 176.595 155.086C176.335 155.308 175.943 155.687 175.898 155.927C175.801 156.441 173.015 157.1 172.187 157.308C168.303 158.282 162.81 161.147 159.293 162.95C156.795 164.231 150.06 172.071 148.328 174.475C147.483 175.665 147.135 176.918 146.773 178.306C146.233 179.474 145.453 181.018 145.085 182.215L144.334 183.646C143.895 184.178 143.831 184.371 143.19 184.605C140.427 183.959 141.146 179.537 141.783 177.506C143.471 172.117 147.777 165.544 152.049 161.853C155.403 158.955 159.71 156.254 163.266 153.55C164.268 152.795 167.437 151.799 168.718 151.131C170.789 150.052 173.194 149.057 175.332 148.073C180.799 146.196 185.531 145.274 191.263 144.835C193.579 144.692 196.412 143.935 198.701 144.009C202.861 144.143 207.166 144.122 211.301 144.451C215.017 144.747 218.437 146.736 222.038 147.328C223.393 147.542 225.813 147.196 227.051 147.483C232.98 148.859 237.674 146.21 243.545 147.89Z" fill="#4B4746"/>
<path d="M148.552 259.218C149.981 259.208 150.638 258.933 151.534 260.103C151.442 262.402 148.728 261.722 147.317 261.332C146.383 261.062 145.491 261.48 144.407 261.747C146.056 260.517 146.703 260.148 148.552 259.218ZM122.166 249.236C123.313 248.34 123.795 247.823 125.212 248.688C126.224 250.075 126.034 250.925 125.785 252.542C124.686 251.33 123.592 250.025 122.166 249.236ZM128.51 244.554C128.541 244.598 130.907 245.401 130.869 245.366L130.486 245.298L130.691 245.645C130.277 246.207 129.919 246.785 129.544 247.373L129.094 247.078C129.08 246.447 129.103 246.435 128.908 245.844C128.033 245.827 127.349 245.88 126.524 245.591C126.921 245.121 127.366 244.958 127.921 244.766L128.51 244.554ZM131.101 240.469C131.663 240.389 131.456 240.382 132.002 240.532C131.388 240.884 131.196 240.993 130.62 241.441C130.716 242.66 132.198 242.499 132.116 243.786L131.596 244.057C130.937 243.03 129.947 242.442 128.928 241.751L128.689 241.81C129.163 241.41 130.303 241.05 131.101 240.469ZM102.939 223.495C103.848 223.413 110.161 223.131 110.755 223.628C110.93 223.774 112.078 225.31 112.265 225.859C111.239 226.785 110.227 227.154 109.581 228.137L109.641 228.549C110.673 229.233 111.874 229.52 112.434 230.243C112.482 231.418 110.655 234.082 110.823 234.56C111.284 235.862 114.255 239.606 115.32 240.611C116.096 239.82 115.605 239.207 116.507 238.195C117.258 237.962 116.857 237.991 117.752 238.339L117.765 238.539C115.597 239.083 115.758 241.334 116.477 243.077C112.571 241.81 109.508 232.511 105.686 230.073V230.072C104.98 228.332 104.952 227.442 103.77 225.84C103.387 225.245 103.218 224.447 103.008 223.741L102.939 223.495ZM140.524 239.337C141.495 239.264 142.147 239.137 143.072 239.405L142.896 239.7C142.161 239.793 140.844 240.086 140.259 239.77L140.524 239.337ZM145.936 234.075C145.361 234.85 145.093 235.132 144.409 235.821C144.646 237.001 144.568 236.631 145.515 237.644C145.439 238.489 145.618 238.164 145.031 238.688L144.447 238.605C143.607 237.844 143.891 238.288 143.528 237.245C143.863 236.315 143.661 236.264 143.812 235.422L144.324 234.877C144.775 234.4 145.105 234.101 145.871 233.781L145.936 234.075ZM126.865 233.192C127.192 233.243 127.177 233.279 127.485 233.438C127.131 234.016 124.699 235.037 123.623 235.727L123.34 235.91L122.988 235.857C123.37 234.724 125.712 233.784 126.865 233.192ZM118.197 231.444C117.241 233.587 118.267 232.791 117.702 233.86L117.438 233.944C116.195 233.055 117.234 231.885 117.954 231.182L118.197 231.444ZM148.345 232.819C149.728 232.686 150.679 232.915 151.88 233.619C150.323 233.87 149.735 233.582 148.345 232.819ZM126.623 228.309C127.018 227.957 127.439 228.035 127.885 228.156L128.34 228.277L129.202 228.447C130.032 228.611 130.772 228.794 131.502 229.325L131.509 229.409L130.895 229.092L131.004 229.655C129.978 229.545 129.587 229.513 128.769 229.242L128.389 229.111C126.209 229.153 126.426 229.868 124.718 230.87L124.424 230.695C124.528 229.613 125.875 228.976 126.623 228.309ZM160.777 227.762C161.209 227.948 161.295 228.034 161.69 228.295C162.144 229.573 161.571 230.081 160.394 230.483L160.023 230.293L159.982 229.35C160.012 229.093 160.006 229.28 159.828 228.809C159.266 228.867 158.961 228.954 158.415 229.088L158.369 228.958C159.552 228.667 159.81 228.504 160.777 227.762ZM107.602 229.243C107.46 229.366 107.308 229.477 107.145 229.576C106.981 229.675 106.806 229.762 106.619 229.835V229.836C106.994 229.689 107.318 229.489 107.602 229.243ZM142.654 227.596C142.207 228.207 140.817 228.862 140.087 229.266L139.901 229.137C140.201 228.264 141.632 227.586 142.434 227.227L142.654 227.596ZM119.44 227.041C120.424 226.957 121.655 227.066 122.354 227.74C121.383 228.935 117.732 228.859 116.55 227.941C114.877 227.802 114.744 228.894 113.68 228.571L113.779 228.232C115.831 226.732 116.731 228.095 119.44 227.041ZM167.072 221.419C166.512 222.468 164.308 223.016 164.238 223.185C163.548 224.916 163.773 227.141 161.26 227.194L161.094 226.885C161.635 225.638 162.112 226.009 162.36 224.489L162.14 223.929C161.344 223.625 160.088 224.119 159.215 224.369C161.375 222.189 161.809 223.632 162.715 222.856C163.118 222.492 163.971 221.921 164.448 221.582V221.581L164.75 221.211L166.647 220.948L167.072 221.419ZM140.615 224.376C141.737 224.311 144.991 224.11 145.926 224.31L145.93 224.686C144.714 225.155 141.344 225.169 140.615 224.376ZM119.331 223.574C119.045 224.036 118.168 224.285 117.565 224.547C117.089 224.667 117.331 224.674 116.842 224.5C117.303 223.96 117.902 223.746 118.549 223.425L119.331 223.574ZM100.981 210.092C100.689 211.011 100.717 210.986 100.138 211.745C99.3351 212.104 99.7395 212.074 98.8828 211.819C99.3786 212.235 99.7623 212.547 100.227 213.004L100.99 213.058L100.86 213.669C101.412 214.004 101.403 214.017 102.021 214.182L103.047 213.788C105.316 212.9 106.789 212.191 109.205 210.98C107.162 212.938 104.173 214.233 101.465 215.101H101.464C101.838 215.681 102.593 216.615 102.826 217.006C102.974 217.157 103.349 217.558 103.5 217.673C104.536 217.126 105.276 216.647 106.425 216.415C105.397 217.897 104.567 217.626 103.606 219.48L103.496 219.681C102.493 221.473 101.988 220.802 102.145 223.104C101.773 222.829 101.174 222.646 100.901 222.583C99.3361 222.223 101.326 220.447 99.9668 218.413L99.9658 218.412C98.5138 217.533 97.9619 218.11 97.2285 216.346C97.2898 215.264 97.7068 214.489 98.124 213.479C97.5958 212.619 97.3059 212.267 96.6562 211.482C98.2975 211.539 99.1251 210.379 100.745 209.854L100.981 210.092ZM140.248 219.868C141.143 218.809 143.029 217.168 144.492 217.445C145.094 218.346 144.114 219.827 143.409 220.279C143.182 219.692 143.122 219.459 142.977 218.843C142.108 218.891 141.717 219.377 141.083 220.082C140.957 220.222 140.832 220.364 140.71 220.507C139.957 220.909 139.135 221.328 138.301 221.19C138.678 220.525 139.526 220.228 140.248 219.868ZM120.262 213.283C121.154 214.089 121.519 213.764 121.94 214.516C120.102 215.808 119.11 216.784 117.5 218.338C117.292 218.497 117.437 218.412 117.018 218.493C117.287 217.089 119.555 215.47 120.729 214.749L120.517 214.206C120.065 213.983 119.981 213.929 119.711 213.503L120.262 213.283ZM101.93 216.942V216.943V216.942ZM136.869 215.298L136.867 215.698L135.649 216.791L135.372 216.683C135.464 215.933 135.838 215.841 136.544 215.162L136.869 215.298ZM114.283 213.095L114.223 213.394C113.495 213.859 113.221 214.05 112.583 214.637L112.434 214.777L112.18 214.72L112.025 214.38C112.546 213.653 113.17 213.423 113.966 212.993L114.283 213.095ZM113.306 211.462C112.645 212.053 112.291 212.23 111.518 212.685C111.156 213.397 109.829 214.573 108.969 214.698C109.183 213.799 110.067 213.176 110.809 212.435C111.547 211.537 112.09 211.105 113.296 211.068L113.306 211.462ZM93.999 206.479C98.4296 205.108 96.9387 207.184 101.121 206.317L101.109 206.602C99.6706 207.849 97.8318 209.109 96.0283 209.742L95.7363 210.266C95.3143 208.901 94.8712 207.615 93.999 206.479ZM141.982 203.122C140.398 204.599 136.452 207.692 134.291 207.917C132.756 209.021 132.979 209.641 130.822 209.298C130.787 208.629 131.721 208.378 132.556 207.299L132.46 206.832C131.642 206.27 130.72 206.392 129.676 206.367L129.367 206.257L129.642 205.938C130.92 205.479 131.372 205.514 132.711 205.476C133.821 206.014 134.508 206.378 135.729 206.677C137.534 205.722 140.461 203.316 141.982 203.122ZM146.093 207.819C147.621 208.106 148.509 207.934 150.071 207.861L150.176 208.348C148.75 208.89 147.538 208.905 146.119 208.343L146.093 207.819ZM143.031 205.979C143.509 206.3 143.933 206.608 144.396 206.946L144.484 207.553C142.416 207.276 142.544 207.141 140.449 207.953C139.236 208.462 139.214 208.465 137.893 208.46L137.858 208.237C139.393 206.869 141.207 206.573 143.031 205.979ZM179.409 199.488C178.587 200.556 177.444 201.468 176.418 202.356C176.916 203.267 177.758 202.548 177.772 203.319C177.794 204.451 178.401 205.404 178.628 206.38C177.947 206.053 177.259 205.742 176.563 205.446C176.241 206.224 175.799 207.558 175.221 208.074C174.09 208.237 174.057 207.794 172.798 208.217L172.649 208.028C172.862 207.607 173.068 207.177 173.303 206.769L173.304 206.768C173.897 205.866 174.892 203.613 175.399 202.535L175.586 202.237C176.519 200.784 177.453 199.86 179.229 199.289L179.409 199.488ZM144.716 207.585L144.499 207.647L144.484 207.553C144.559 207.563 144.636 207.575 144.716 207.585ZM120.348 200.348L120.489 200.706C119.959 201.386 119.998 201.417 119.164 201.753C118.89 201.7 117.653 201.474 117.537 201.539C114.471 203.278 115.807 205.016 112.165 207.313L111.526 207.577L111.418 207.402C113.25 205.662 114.184 204.527 115.497 202.355C116.559 200.598 117.719 200.576 119.675 200.274L120.348 200.348ZM174.937 206.677V206.678V206.677ZM167.845 202.843C167.231 203.523 166.687 204.026 165.83 204.395L165.831 204.396C164.763 204.794 164.561 205.367 163.719 206.335L163.383 206.351C163.309 205.122 164.432 204.014 165.566 203.693L166.106 203.299C166.635 202.914 167.147 202.584 167.813 202.556L167.845 202.843ZM148.188 204.317C147.848 204.86 147.461 205.386 146.818 205.528C145.346 204.987 145.3 204.949 144.036 205.76L143.78 205.634L143.963 204.782C145.683 203.478 145.764 206.022 147.769 203.788L148.188 204.317ZM117.437 203.539C118.197 202.744 119.587 203.453 120.173 204.159C121.165 204.895 121.38 204.704 122.559 204.416C123.463 204.012 125.255 204.012 126.195 204.401L126.119 204.629C125.04 204.81 124.784 204.848 123.701 204.825C121.407 205.438 121.464 205.27 119.305 204.217C118.143 204.016 118.086 204.213 117.437 203.539ZM167.777 204.624C168.466 203.541 171.977 203.144 173.196 203.261L173.368 203.328C171.197 203.843 170.212 204.168 168.116 205.062L167.777 204.624ZM147.769 203.787C148.684 202.895 152.118 202.415 153.321 203.024L153.438 203.445C151.412 203.46 150.057 203.128 148.188 204.317L147.769 203.787ZM141.982 203.122C143.295 201.864 144.542 202.136 146.366 202.16L146.124 202.717C146.227 202.695 141.97 203.119 141.982 203.122ZM135.473 200.665C136.581 200.156 139.757 198.648 140.818 198.903C140.094 199.879 137.189 200.784 135.992 201.12C134.421 201.833 132.21 203.038 130.592 202.181C130.914 201.836 134.136 201.333 135.473 200.665ZM297.822 199.225C300.46 200.137 302.102 199.347 303.067 199.981C302.69 200.871 300.595 201.246 299.652 200.992C299.372 200.876 299.035 200.737 298.64 200.573C297.507 201.03 295.757 201.917 294.545 201.979L294.585 201.65C295.17 200.867 295.215 200.796 296.05 200.291L297.822 199.225ZM155.23 198.778C154.863 200.08 154.254 200.937 153.31 201.893L153.118 201.551L154.897 198.385L155.23 198.778ZM97.4932 199.721C98.5084 200.492 100.745 200.769 102.122 201.05C100.66 201.135 99.2501 201.194 97.7998 201.407C96.8086 201.543 94.7129 201.301 94.3877 200.181L94.9492 199.731C96.0869 199.903 96.3774 199.95 97.4932 199.721ZM174.99 200.054C175.256 200.121 175.461 200.255 175.715 200.386L175.597 200.623C174.358 200.891 173.69 200.739 172.438 200.606L172.083 200.624L172.053 200.48L174.99 200.054ZM166.447 198.329C166.855 198.255 168.008 198.198 168.369 198.437C167.411 198.837 164.214 199.63 163.064 199.944C162.303 200.09 161.973 200.319 161.492 200.014C162.667 199.222 165.045 198.6 166.447 198.329ZM148.335 197.27C148.904 197.338 148.672 197.23 149.059 197.532C147.394 198.204 145.737 198.941 144.064 199.559L143.708 199.617L143.463 199.405C144.373 198.553 147.036 197.477 148.335 197.27ZM174.086 196.39C174.641 196.367 174.612 196.394 175.119 196.643C174.873 197.024 173.592 197.437 173.054 197.658C172.501 197.835 172.757 197.855 172.282 197.675C172.703 197.134 173.476 196.757 174.086 196.39ZM287.74 194.139C287.228 194.711 286.387 196.532 285.877 197.404L285.688 197.171C285.078 197.243 285.265 197.31 284.755 197.116C284.845 196.371 284.954 196.579 284.712 196.033L283.545 196.131C282.845 196.661 282.327 197.028 281.442 196.703C281.945 195.807 286.143 194.189 287.365 193.617L287.74 194.139ZM257.683 195.011C259.168 195.505 259.642 194.966 260.942 195.577L261 196.082C260.42 196.906 260.787 196.667 259.98 196.981C258.356 196.64 258.133 197.505 257.138 197.218C256.92 196.406 257.29 195.765 257.683 195.011ZM180.647 194.094C182.15 193.335 183.844 192.742 185.537 192.96C186.058 193.202 186.509 193.409 187.017 193.681C186.808 194.149 186.488 194.649 186.35 195.047L186.259 195.514C185.284 196.074 184.496 196.515 183.478 197.009C183.044 196.596 183.167 196.44 183.058 195.683C182.59 195.167 182.211 195.161 181.52 194.99L181.24 194.923C180.188 195.579 177.922 195.786 176.708 195.698L176.893 195.133C178.175 194.055 179.349 195.097 180.647 194.094ZM115.083 196.604C115.81 194.666 121.581 193.09 123.76 193.699L123.592 194.315C120.057 192.822 117.284 196.945 115.083 196.604ZM311.865 193.292C312.863 193.166 313.23 193.236 314.053 193.736C314.273 194.284 314.292 194.025 314.112 194.527C312.787 195.835 311.707 195.626 309.812 195.69L309.21 195.958C308.343 195.882 308.64 196.077 308.141 195.594L308.325 195.152C309.618 194.01 310.245 193.876 311.865 193.292ZM101.354 192.988C102.492 192.708 104.237 194.21 105.748 193.759C106.185 193.628 106.297 193.607 106.718 193.771C106.005 194.91 104.607 194.67 103.609 194.056C101.75 193.555 100.553 194.273 98.6963 194.657C99.1852 194.183 100.696 193.37 101.354 192.988ZM326.298 187.81C327.363 187.919 327.526 187.88 328.418 188.402C328.043 189.425 324.143 189.567 322.86 190.455C322.915 191.265 323.463 190.465 324.065 191.34C323.118 192.257 322.148 193.105 321.16 193.978C320.83 194.27 320.817 194.233 320.407 194.434L320.245 194.115C320.628 192.935 321.915 192.423 322.47 191.127L321.643 190.811L321.487 190.45C322.127 189.526 325.168 188.274 326.298 187.81ZM126.663 193.07C125.635 193.803 124.802 193.956 123.593 194.315L123.76 193.699C124.765 193.238 125.638 192.695 126.706 192.731L126.663 193.07ZM141.484 192.021C142.702 192.107 145.425 192.985 146.096 194.02C144.732 193.442 143.065 193.059 141.609 192.597L141.484 192.021ZM156.878 188.902C157.874 190.213 156.285 191.786 155.451 192.867C155.162 193.898 153.5 194.077 152.622 193.816L152.566 193.529C153.121 193.174 153.577 192.871 154.111 192.488C154.267 191.544 154.234 191.57 154.014 190.616C153.539 190.002 152.628 189.901 151.826 189.698L151.569 189.046C152.626 188.865 153.907 188.882 154.957 189.122C155.761 189.76 155.512 189.432 155.803 190.527C156.059 190.016 156.274 189.521 156.503 188.999L156.878 188.902ZM248.047 191.322C248.298 191.284 248.562 191.334 248.83 191.358L249.008 191.796C248.366 193.229 245.733 192.306 243.07 193.724C242.737 193.837 242.838 193.778 242.41 193.703L242.363 193.244C243.227 191.95 246.272 191.698 248.047 191.322ZM141.446 190.601C140.477 191.933 140.127 193.03 138.83 193.592C138.997 192.924 138.994 192.516 139.027 191.84C139.729 190.787 140.124 190.85 141.39 190.25L141.446 190.601ZM174.14 191.472C174.796 191.298 175.886 191.658 176.631 191.828L176.811 192.482C175.663 192.567 175.024 192.254 173.957 191.854L174.14 191.472ZM116.021 190.364C116.866 190.825 117.262 191.276 117.829 192.024L117.694 192.448L117.45 192.479C116.354 191.762 116.029 191.593 116.021 190.364ZM118.819 186.769C118.722 188.291 113.507 187.82 112.722 188.718C111.038 190.644 111.651 191.765 108.644 191.92L108.127 191.58L108.212 191.084C109.04 190.532 112.979 187.788 113.497 187.635C115.249 187.118 115.753 187.391 117.997 186.379L118.359 186.212L118.819 186.769ZM135.736 188.246C135.424 190.023 134.274 191.358 132.357 191.001L131.497 191.626L130.72 191.767L130.668 191.408C132.389 189.042 134.29 189.255 135.506 187.778L135.736 188.246ZM273.508 189.321C274.436 188.981 277.085 189.421 278.005 189.874C276.33 190.478 276.457 191.294 275.527 191.561C274.698 190.981 274.57 190.904 273.562 190.856C271.128 190.681 270.822 191.427 269.272 191.325C269 190.796 269.128 190.796 268.646 190.445C269.364 190.054 271.716 190.431 273.508 189.321ZM168.784 189.21C169.377 189.233 169.781 189.183 170.282 189.488C169.336 189.724 168.938 189.838 168.04 190.224L167.827 190.316C167.159 190.696 167.484 190.68 166.849 190.591C167.365 189.803 167.904 189.656 168.784 189.21ZM250.202 186.534C249.497 187.275 248.694 187.917 247.815 188.439C246.47 189.119 244.627 190.077 243.239 190.488L243.139 190.339C244.934 188.767 245.309 188.516 247.495 187.846C248.377 187.182 249.126 186.461 250.175 186.257L250.202 186.534ZM163.591 187.892L163.411 188.318C161.723 189.428 160.545 189.518 158.616 189.653L158.364 189.195C158.803 188.468 161.179 188.878 163.356 187.754L163.591 187.892ZM145.825 187.526C146.462 187.469 146.782 187.353 147.323 187.655C146.688 188.171 145.435 188.465 144.606 188.722C143.902 188.97 144.225 188.996 143.591 188.86C144.148 188.298 145.09 187.897 145.825 187.526ZM253.463 186.611L253.45 187.085C252.868 187.995 252.565 188.143 251.683 188.82C251.32 188.646 251.392 188.65 251.095 188.347C251.342 187.601 252.41 186.939 253.082 186.417L253.463 186.611ZM178.473 187.716L178.48 188.015C177.623 188.617 177.678 188.598 176.638 188.713L176.314 188.521L176.237 188.2C177.008 187.92 177.536 187.831 178.329 187.67L178.473 187.716ZM283.615 186.326C284.443 186.266 285.191 186.165 285.891 186.559L285.5 186.626C284.715 186.762 283.835 187.068 283.245 186.773L283.615 186.326ZM273.683 185.633C272.35 186.651 270.215 186.402 268.515 186.851L268.311 186.636L268.407 186.321C269.887 185.821 271.82 185.731 273.548 185.339L273.683 185.633ZM327.115 183.196C327.255 183.258 327.51 183.459 327.647 183.558C326.972 185.145 326.64 185.427 325.133 186.27C324.47 186.052 324.745 186.24 324.312 185.643L324.485 185.02C325.305 184.066 326.01 183.793 327.115 183.196ZM302.16 181.466C301.68 183.243 298.38 185.125 296.84 185.895L296.718 185.818L296.655 185.473C299.605 183.843 299.59 183.309 301.945 181.204L302.16 181.466ZM177.335 183.732C176.867 184.539 176.523 185.449 175.544 185.612L175.211 184.655C174.703 184.835 173.839 185.197 173.391 184.995C174.522 184.293 175.56 184.04 176.835 183.503L177.122 183.491L177.335 183.732ZM321.878 184.188C322.45 184.401 322.29 184.285 322.675 184.716C322.097 185.299 321.717 185.236 320.787 185.498C320.525 185.499 320.343 185.399 320.07 185.308C320.383 184.8 321.251 184.503 321.878 184.188ZM262.853 183.549L262.86 183.814L260.897 184.985L260.49 184.742C260.746 184.198 261.745 183.869 262.415 183.538L262.853 183.549ZM334.643 181.942C337.345 181.942 339.833 182.258 342.518 182.324L342.59 182.522L341.71 183.55L338.633 184.349C336.72 183.249 336.495 183.558 334.8 182.834L334.643 181.942ZM115.237 181.275C115.229 182.317 115.06 182.242 115.534 182.95C116.348 183.351 116.729 183.168 117.58 183.002L117.803 183.338C116.149 184.159 114.469 183.628 114.489 181.65L114.914 181.237L115.237 181.275ZM147.373 181.075C146.93 182.373 145.532 183.125 144.334 183.646L145.085 182.215C145.941 181.51 146.331 180.98 147.373 181.075ZM119.135 182.021C118.556 182.731 118.52 182.774 117.804 183.338L117.58 183.002C118.075 182.35 118.31 181.858 119.077 181.648L119.135 182.021ZM204.569 178.696C205.841 178.622 207.967 178.921 208.741 180.062L208.526 180.562C206.599 181.94 204.812 182.197 202.528 182.606L201.744 182.509L201.577 182.23C203.257 181.412 206.372 181.843 207.31 180.638C206.742 179.513 205.777 179.268 204.569 178.696ZM230.043 179.151C229.987 179.661 228.098 181.167 227.454 181.783C227.021 181.665 227.205 181.783 226.914 181.41C227.795 180.581 228.659 179.733 229.504 178.866L230.043 179.151ZM338 179.486C338.072 179.564 338.205 179.871 338.26 179.983L337.96 180.398C336.875 180.913 336.58 180.868 335.348 180.97L335.192 180.882C335.467 180.383 337.11 179.919 338 179.486ZM151.743 172.773C152.638 172.8 152.674 173.193 153.103 174.021C153.748 173.972 153.908 173.748 154.509 173.364L154.643 173.488C154.131 174.083 154.124 174.195 153.468 174.608C152.749 174.454 151.29 174.044 150.655 174.201L150.542 174.309C150.586 175.021 151.34 176.045 151.745 176.703L152.44 177.125L152.409 177.524C151.331 178.097 148.617 178.205 147.284 178.331L146.773 178.306C147.135 176.918 147.483 175.665 148.328 174.475C150.017 174.085 150.374 173.778 151.743 172.773ZM326.372 176.198C325.395 176.989 325.152 177.036 323.96 177.524C323.653 177.347 323.72 177.332 323.5 176.983C324.01 176.371 325.208 176.167 326.105 175.875L326.425 175.833L326.372 176.198ZM201.374 175.878C200.886 176.545 199.871 176.868 199.077 177.22C198.93 177.216 199.047 177.231 198.604 177.09C199.008 176.527 200.361 176.029 201.064 175.707L201.374 175.878ZM191.059 174.841C190.308 175.569 188.47 176.336 187.453 176.826L186.925 176.612L187.073 176.221C188.228 175.459 189.305 175.167 190.605 174.733L191.059 174.841ZM100.41 173.292C100.342 173.595 100.277 173.883 100.176 174.177C100.879 174.454 101.712 174.728 102.307 175.173C100.815 175.185 99.0233 175.179 97.6719 175.826C96.8002 176.117 96.5657 176.34 95.4775 176.625L95.46 176.437C97.287 175.328 98.4787 174.8 99.8613 173.164L100.062 172.921L100.41 173.292ZM275.558 174.36C275.418 174.921 274.018 176.007 273.468 176.509L273.295 176.32L273.375 175.784C274.18 174.937 274.373 174.821 275.38 174.22L275.558 174.36ZM172.786 174.454C173.375 174.53 173.135 174.391 173.554 174.796C173.173 175.297 172.201 175.534 171.552 175.765C171.273 175.918 171.445 175.862 171.016 175.851C171.415 175.243 172.153 174.865 172.786 174.454ZM131.299 172.702C132.315 171.46 133.722 170.615 135.031 172.1L134.709 172.532L134.707 172.531L134.007 172.636C133.38 173.576 133.387 173.872 132.216 174.226C131.412 174.815 130.437 175.404 129.423 175.474L129.413 175.156C129.699 174.922 129.966 174.691 130.268 174.478C130.513 173.594 130.489 173.638 131.102 172.955L131.299 172.702ZM300.165 174.266C300.87 174.195 300.943 174.107 301.553 174.412C300.908 174.931 300.902 174.774 299.93 174.903C299.253 175.097 298.898 175.278 298.226 175.087C298.753 174.532 299.4 174.468 300.165 174.266ZM352.588 173.985C353.263 173.931 353.098 173.938 353.772 174.039L353.793 174.307L353.117 174.925C352.398 174.88 352.2 174.848 351.495 174.694L351.553 174.457L352.588 173.985ZM180.962 170.444C181.934 171.421 183.675 170.685 184.571 171.34L184.475 171.713C182.403 173.295 181.379 171.798 178.875 173.021C178.219 173.717 178.598 173.496 177.729 173.762C176.618 173.528 175.818 173.46 174.877 172.834L174.795 172.419C176.525 172.096 179.483 171.33 180.962 170.444ZM338.74 173C338.068 173.591 337.85 173.574 336.987 173.758L336.66 173.64L336.652 173.354L338.17 172.839L338.558 172.801L338.74 173ZM310.265 172.495C311.13 172.434 310.755 172.338 311.457 172.66C310.81 173.134 309.86 173.281 309.053 173.476C308.583 173.693 308.62 173.689 308.107 173.604C308.697 172.998 309.462 172.8 310.265 172.495ZM115.948 169.778C116.718 169.756 117.106 169.61 117.685 169.92C115.768 170.764 115.149 170.849 113.675 172.324L113.455 172.547L112.917 173.163L112.396 173.187C112.52 171.986 114.978 170.664 115.948 169.778ZM320.62 171.869L320.413 172.25C319.266 172.801 319.033 172.757 317.723 172.867L317.413 172.704L317.555 172.403C318.495 172.245 319.433 172.066 320.365 171.865L320.62 171.869ZM155.254 169.991C156.737 170.193 158.209 170.168 158.715 171.634C157.092 171.349 155.579 171.628 155.254 169.991ZM324.53 168.004C324.757 168.252 324.658 168.082 324.683 168.577C323.918 169.361 323.275 169.965 322.457 170.693L322.305 170.582L322.24 170.141C322.865 169.198 323.635 168.706 324.53 168.004ZM217.369 166.218L217.412 166.44C215.891 167.725 213.685 169.509 211.808 170.08L211.408 170.18L211.281 169.969C213.387 168.628 214.815 167.635 216.808 166.146L217.369 166.218ZM272.255 168.613C271.81 169.41 271.542 169.527 270.812 170.056L270.578 169.784C270.868 168.946 271.213 168.924 272.067 168.261L272.255 168.613ZM186.134 168.774L185.943 168.791L185.928 168.751C185.999 168.744 186.07 168.736 186.141 168.728L186.134 168.774ZM185.928 168.751C185.841 168.759 185.753 168.767 185.666 168.771L185.834 168.505L185.928 168.751ZM189.921 167.625C188.681 168.081 187.44 168.57 186.141 168.728L186.205 168.313L189.809 167.065L189.921 167.625ZM193.551 165.646L193.215 165.74L193.062 166.049C191.745 166.855 191.332 167.05 189.921 167.625L189.81 167.065C191.216 166.356 192.082 165.764 193.632 165.534L193.551 165.646ZM344.63 165.972L344.59 166.398C342.652 167.831 340.905 167.75 338.62 167.442L338.232 167.06C339.765 166.326 341.845 167.494 344.532 165.893L344.63 165.972ZM162.301 164.929C162.587 165.023 162.429 164.934 162.679 165.324C162.122 166.655 161.203 166.982 159.93 167.473L159.709 167.396C159.778 166.771 161.596 165.511 162.301 164.929ZM181.805 166.37C182.578 166.276 184.265 166.118 184.963 166.43L184.727 166.729C183.528 166.779 182.925 166.98 181.674 166.819L181.805 166.37ZM275.038 165.38C275.95 165.235 276.926 164.926 277.668 165.3C276.718 165.759 276.76 165.734 275.697 165.81C274.568 166.142 274.54 166.359 273.615 166.079C274.113 165.487 274.132 165.642 275.037 165.38H275.038ZM193.465 165.766L193.551 165.646L193.657 165.616L193.465 165.766ZM234.337 164.052C234.008 164.685 232.846 165.322 232.198 165.75L231.896 165.426C232.312 164.707 233.251 164.336 234.023 163.923L234.337 164.052ZM301.973 159.647C302.467 159.71 302.223 159.629 302.695 159.925C302.325 161.451 300.802 162.588 300.095 164.865L299.915 164.928L299.73 164.636C299.828 163.042 301.133 160.997 301.973 159.647ZM331.325 162.806C329.415 164.62 327.125 164.728 324.646 164.746L324.742 164.392C327.975 164.324 328.52 163.819 331.468 162.256L331.325 162.806ZM355.976 160.452C356.205 160.657 356.117 160.52 356.17 160.902C354.777 162.29 351.073 162.622 348.788 163.712C348.651 163.539 348.733 163.67 348.703 163.253C350.016 162.198 353.683 161.947 355.976 160.452ZM179.142 160.657C178.669 161.511 178.274 161.711 177.478 162.327C176.855 162.891 176.389 163.437 175.526 163.009C175.748 162.168 175.849 162.344 176.786 161.685L177.206 161.517C177.949 161.214 178.389 160.687 179.142 160.657ZM225.881 160.172C226.182 160.17 225.997 160.142 226.403 160.388C226.085 160.884 223.777 162.255 223.027 162.945C222.504 162.875 222.727 162.985 222.356 162.618C222.961 161.899 224.995 160.726 225.881 160.172ZM261.253 159.5C261.917 160.693 260.737 161.873 259.812 162.525C258.898 162.695 258.895 162.71 257.98 162.626L257.787 162.487C256.87 161.909 256.485 162.208 255.412 161.935L255.275 161.688L255.905 161.922L256.107 161.37L257.032 161.27L257.455 161.103C258.518 160.675 260.425 159.405 261.253 159.5ZM178.403 157.493L178.507 157.73C176.429 158.967 175.582 160.219 174.023 162.001C173.592 161.796 173.771 161.951 173.509 161.508C174.592 159.824 175.996 158.244 177.844 157.387L178.403 157.493ZM132.217 158.229C132.32 158.342 132.34 158.512 132.392 158.656C131.524 159.722 130.33 160.331 129.075 160.836L128.848 160.587C129.104 160.044 131.377 158.822 132.217 158.229ZM209.249 156.556L209.312 156.849L207.503 158.004C207.042 158.841 207.131 158.379 207.446 159.473L207.209 159.847C206.155 160.489 205.537 160.511 204.329 160.729L203.91 160.62L204.002 160.258C205.05 159.291 205.665 160.048 206.669 159.204L206.309 158.612C207.102 157.411 207.445 157.239 208.616 156.449L209.249 156.556ZM287.085 158.236C287.23 158.276 287.338 158.403 287.46 158.495C286.933 159.119 286.093 159.391 285.298 159.772L284.94 159.621C285.183 159.057 286.395 158.601 287.085 158.236ZM363.848 157.779C363.728 158.521 363.132 158.977 362.585 159.555L362.333 159.222C362.438 158.462 363.025 158.039 363.595 157.458L363.848 157.779ZM188.999 156.256C189.802 156.247 190.339 156.333 191.125 156.436C190.695 156.796 189.642 156.831 188.978 156.928C188.063 157.194 187.983 157.399 187.265 157.138C187.903 156.431 187.941 156.6 188.999 156.256ZM336.955 155.197C337.12 155.218 337.48 155.343 337.655 155.396L337.583 155.706C336.573 156.061 336.063 156.284 335.105 156.766L334.715 156.719L334.612 156.452C335.42 155.981 336.118 155.619 336.955 155.197ZM154.582 154.235L154.724 154.485C154.103 155.222 153.466 155.455 152.596 155.905C152.389 155.631 152.469 155.803 152.435 155.36C153.153 154.919 153.725 154.61 154.475 154.222L154.582 154.235ZM266.708 153.602C265.943 154.305 265.383 154.518 264.288 154.54H264.287C263.15 154.796 262.962 155.487 261.907 155.636C261.172 155.088 260.153 154.83 259.873 154.499L259.965 154.006C261.292 153.132 264.412 153.478 266.095 153.563L266.527 153.333L266.708 153.602ZM291.442 153.169C291.677 153.321 291.52 153.205 291.84 153.6C290.802 154.78 289.915 155.432 288.35 155.616L288.138 155.15C288.383 154.871 290.567 153.869 291.442 153.169ZM368.585 152.353C369.102 152.549 369.08 152.519 369.465 152.911C368.97 153.553 366.722 154.947 365.867 155.546L365.365 155.485L365.22 155.134C365.765 153.946 367.258 153.427 368.405 152.5L368.585 152.353ZM355.732 152.196C355.876 152.292 357.085 153.395 357.3 153.583L356.982 154.188L356.067 154.577L355.732 154.312C355.605 153.429 355.662 153.098 355.732 152.196ZM330.098 152.218C331.167 152.352 331.345 152.476 332.13 153.133L332.165 153.562L331.885 153.82C331.002 153.187 330.8 153.037 330.098 152.218ZM264.881 153.745H264.882H264.881ZM229.755 151.724C230.023 151.451 230.421 151.351 230.786 151.463C231.152 151.576 231.424 151.883 231.492 152.259C231.561 152.635 231.414 153.018 231.111 153.252C230.685 153.581 230.076 153.524 229.719 153.121C229.362 152.718 229.377 152.108 229.755 151.724ZM319.146 146.686C318.36 147.752 317.526 148.827 316.838 149.962L316.553 150.452L317.06 150.819C318.239 150.298 318.165 150.247 319.395 150.498C319.13 150.912 317.449 151.561 316.603 151.841L316.298 151.937C315.833 152.296 315.978 152.219 315.485 152.433L315.266 151.956C315.706 149.751 317.471 148.039 319.146 146.686ZM331.51 149.888C332.335 149.795 333.37 149.738 333.955 150.442C333.526 150.642 333.283 150.637 332.882 150.549L332.415 150.438C330.623 150.555 329.695 151.557 327.508 151.335C328.468 150.749 330.125 150.442 331.51 149.888ZM271.013 149.199C271.32 149.236 271.711 149.342 272.021 149.413L271.912 149.659L269.907 150.224L269.322 150.417L269.112 150.271C269.787 149.556 270.048 149.544 271.013 149.199ZM300.853 147.399C301.67 147.52 302.952 147.752 303.077 148.701C302.235 148.768 302.665 148.831 301.805 148.255L301.588 148.114C300.583 148.333 300.495 148.373 299.492 148.274C299.767 147.692 300.073 147.744 300.853 147.399ZM312.333 144.571L312.362 144.95C311.3 145.992 310.242 147.041 309.192 148.094L308.905 148.148C309.218 146.898 310.918 145.347 311.86 144.426L312.333 144.571ZM172.522 144.163C172.389 145.481 170.274 147.057 169.011 147.169C168.02 147.359 167.604 147.44 166.606 147.479C166.879 146.857 167.084 146.905 167.79 146.468C171.204 146.473 171.102 144.034 172.522 144.163ZM115.461 143.595C115.121 144.305 114.884 144.32 114.173 144.822C113.997 144.78 113.743 144.651 113.566 144.572C113.856 144.022 114.355 143.951 115.06 143.609L115.461 143.595ZM232.144 142.427C230.64 143.133 229.895 143.394 228.722 144.574C228.361 144.708 228.396 144.654 227.979 144.644C228.384 143.715 230.195 142.644 231.099 142.237L232.079 142.229L232.144 142.427ZM373.138 137.116L373.378 137.377C373.05 139.32 371.218 139.322 370.535 140.729C371.595 141.531 373.738 139.717 375.65 140.85C376.225 141.715 376.03 141.241 376.128 142.375C375.43 143.146 371.159 141.8 369.945 141.178L369.745 141.064C368.53 141.697 368.285 141.851 366.95 142.084C366.215 142.415 366.097 142.214 365.112 142.035L364.775 142.332L364.322 142.158L364.548 142.447L364.202 142.26L364.161 142.335L364.095 142.28L364.093 141.99C365.5 139.931 366.55 139.217 368.692 138.071C369.602 137.417 372.003 137.057 373.138 137.116ZM364.338 142.479L364.053 142.539L364.161 142.335L364.338 142.479ZM366.765 141.78H366.766H366.765ZM342.955 138.267C342.63 139.698 340.918 139.747 339.12 140.915L338.87 141.082C338.738 140.558 338.752 140.588 338.827 140.048C339.427 139.617 341.783 138.947 342.955 138.267ZM111.405 128.751C110.898 130.209 110.756 132.251 112.57 132.912C113.766 132.161 113.515 132.068 114.72 132.042C116.608 133.044 115.859 135.257 114.877 136.7C114.279 136.806 112.974 135.902 112.228 135.555C110.896 136.736 112.955 139.314 110.353 140.842L110.013 140.738C110.115 139.866 110.943 138.995 111.343 138.014C110.724 136.716 109.146 136.759 107.82 134.983L106.405 135.464C107.511 133.71 110.004 130.214 111.405 128.751ZM219.364 138.268L219.383 138.647C218.632 139.655 218.455 140.235 217.433 140.703C217.059 140.315 217.004 140.254 216.712 139.804C217.988 139.328 218.226 139.209 219.031 138.108L219.364 138.268ZM130.224 135.6C130.547 135.723 130.386 135.619 130.653 135.981C129.577 137.679 129.29 138.624 129.13 140.562L128.787 140.334C128.254 139.064 129.4 136.6 130.224 135.6ZM364.928 137.431C365.357 137.605 365.155 137.482 365.452 137.966C365.242 139.289 363.72 139.912 362.625 140.444L362.122 140.408L362.067 140.05C362.812 139.006 363.913 138.244 364.928 137.431ZM208.522 139.259C209.667 139.153 210.882 138.809 211.954 139.087C211.388 139.586 210.178 139.639 209.345 139.759C208.593 140.021 207.399 140.567 206.714 140.343C207.298 139.721 207.746 139.6 208.522 139.259ZM353.51 138.333C354.385 137.894 354.225 137.799 355.022 137.903C354.74 138.519 354.345 138.659 353.755 139.01L353.478 138.992V138.991C353.203 138.956 352.795 138.966 352.508 138.962C351.955 139.348 351.727 139.61 351.067 139.564L350.822 139.239C351.71 138.491 352.402 138.297 353.51 138.333ZM368.875 138.653V138.654V138.653ZM239.183 137.646C240.536 138.104 244.111 138.159 244.547 138.708L244.06 138.791C242.644 138.616 239.052 138.746 238.477 138.405L239.183 137.646ZM322.372 134.624C320.782 135.884 318.755 136.611 316.878 137.347L316.76 137.24L316.78 136.925C317.67 136.196 321.042 134.853 322.237 134.362L322.372 134.624ZM122.973 135.869C125.006 135.557 126.427 135.665 128.368 136.415L128.167 136.802C126.234 136.466 124.82 136.341 122.858 136.309L122.973 135.869ZM357.33 131.377L357.305 131.785C355.342 133.691 353.96 135.26 351.452 136.344L351.232 136.129L351.492 135.726C354.11 134.507 354.848 133.024 357.155 131.2L357.33 131.377ZM296.226 133.361C297.486 133.195 300.758 133.062 302.058 133.291C302.383 133.348 302.392 133.575 302.577 133.933L301.987 134.207C300.56 134.153 297.438 133.933 296.226 133.361ZM336.65 131.336C338.765 130.816 338.855 130.432 340.622 131.775H340.623C343.93 130.417 342.398 130.997 344.54 132.627L344.585 133.253C342.338 134.902 340.135 131.425 338.093 131.78C337.453 131.892 337.175 131.8 336.545 131.657L336.65 131.336ZM261.527 123.869C262.515 125.985 264.385 127.369 265.675 129.673C265.417 130.937 265.298 131.94 265.15 133.208C261.755 132.904 258.068 127.153 257.718 124.062C258.96 123.974 260.277 123.93 261.527 123.869ZM324.588 131.126L324.475 131.507C323.52 132.112 322.678 132.288 321.593 132.611C321.363 132.345 321.478 132.523 321.343 132.029C321.781 131.571 323.691 131.272 324.48 131.068L324.588 131.126ZM160.401 130.545C160.211 131.194 159.206 131.857 158.631 132.325L158.438 132.406L158.361 132.115C158.949 131.117 159.03 130.984 159.978 130.329L160.401 130.545ZM294.29 127.561C293.782 128.017 292.142 129.358 291.832 129.771C291.457 130.506 291.065 131.583 290.435 131.981C290.115 130.969 290.972 129.879 291.595 129.174C292.29 128.452 293.248 127.643 294.29 127.561ZM283.59 128.156C283.635 129.309 283.622 129.698 282.732 130.492C280.382 129.658 278.92 130.772 276.09 131.698C275.792 131.691 275.945 131.737 275.673 131.474C277.523 130.188 281.612 130.141 283.292 127.896L283.59 128.156ZM247.755 128.284L247.728 128.578L246.61 129.493C246.475 129.741 246.576 129.636 246.279 129.776C246.34 128.886 246.468 128.806 247.005 128.111L247.755 128.284ZM330.646 128.028C329.891 129.403 329.17 129.777 327.652 129.629C328.217 129.075 329.856 128.236 330.646 128.028ZM131.796 126.252C132.437 126.491 132.224 126.383 132.765 126.815C132.422 128.416 128.275 127.757 126.994 128.94C126.355 128.868 125.85 128.893 125.355 128.511C126.606 127.267 129.84 127.545 131.796 126.252ZM333.827 127.349C332.51 127.805 331.987 127.854 330.646 128.028C331.448 127.406 332.087 127.277 333.06 126.96L333.827 127.349ZM364.103 126.279C365.53 126.494 366.255 126.472 367.183 127.552L367.105 127.914C366.323 128.186 365.577 127.79 364.76 127.503C363.745 127.468 363.31 127.699 361.905 127.571L361.978 127.309L364.103 126.279ZM355.835 126.297C356.94 126.535 357.093 126.375 357.78 127.027L357.755 127.386C357.045 127.603 356.26 127.037 355.188 127.136C354.508 127.362 353.67 127.718 353.013 127.506C353.805 126.776 354.773 126.616 355.835 126.297ZM335.527 126.567C334.957 126.819 334.39 127.08 333.827 127.349L333.061 126.96L335.225 126.08L335.527 126.567ZM337.942 125.237C337.547 125.767 336.31 126.168 335.527 126.567L335.226 126.08C336.363 125.54 336.69 125.296 337.942 125.237ZM342.567 125.087C342.065 125.667 340.273 126.163 339.445 126.454C339.185 126.247 339.307 126.392 339.17 125.951C339.957 125.486 341.43 125.252 342.375 125.045L342.567 125.087ZM155.697 124.375C156.217 124.446 156.008 124.334 156.346 124.673C155.767 125.317 155.297 125.763 154.663 126.356L154.145 126.272C154.205 125.625 155.119 124.95 155.697 124.375ZM301.418 120.469C301.992 120.449 302.115 120.501 302.685 120.62L302.707 120.853C301.66 121.306 300.407 121.672 299.603 122.458C299.14 123.121 299.42 122.969 298.805 123.25L298.697 122.759C299.452 121.189 299.733 121.147 301.418 120.469ZM296.928 122.177C296.33 123.09 295.335 123.267 294.33 123.223L293.978 122.948L294.055 122.688C295.267 122.461 295.66 122.384 296.718 121.755L296.928 122.177ZM341.76 118.78C341.739 119.529 340.038 121.062 339.24 122.041C339.045 121.883 339.041 121.781 338.913 121.53C339.263 119.788 340.057 119.893 341.532 118.574L341.76 118.78ZM324.678 119.331C325.417 119.275 325.15 119.21 325.8 119.484C325.122 120.159 323.192 119.958 322.202 120.26L321.155 120.632C320.4 120.414 320.585 120.632 320.312 120.152C321.142 119.333 323.468 119.435 324.678 119.331ZM342.845 119.115C343.592 119.259 344.793 119.368 345.41 119.671L345.197 120.134C344.315 120.254 343.353 120.563 342.673 120.004L342.845 119.115ZM305.686 118.548C306.63 118.841 306.675 118.876 307.537 119.38L307.518 119.623L306.945 119.438C306.268 119.315 305.465 119.38 304.765 119.4L304.748 119.192L305.686 118.548ZM352.59 115.323C352.79 115.6 352.995 115.875 353.202 116.146C354.402 116.303 355.967 116.738 356.942 116.291C357.237 116.156 357.13 116.219 357.582 116.394L357.532 116.763C356.935 117.237 356.807 117.48 356.125 117.595C352.618 115.998 352.232 118.252 350.923 117.693L352.01 116.551C352.032 116.089 351.997 116.01 351.867 115.578L351.742 115.165L352.59 115.323ZM213.322 117.294C214.407 117.206 214.463 117.176 215.102 117.729C214.247 117.78 213.733 117.787 212.879 117.755L212.562 117.375C212.815 117.344 213.068 117.317 213.322 117.294ZM230.69 116.372C231.848 116.227 233.264 116.118 234.411 116.262L234.509 116.791C233.638 116.978 231.588 116.811 230.69 116.372ZM292.692 113.412C293.137 114.31 293.563 114.795 293.498 115.682C292.936 116.142 293.187 116.052 292.527 116.188C291.542 116.465 290.558 116.631 289.535 116.628L289.572 116.321L290.497 115.688H290.498C291.358 114.787 291.721 114.434 292.373 113.386L292.692 113.412ZM335.149 113.92L335.263 114.252C333.843 114.645 332.565 114.907 331.357 115.767L330.688 116.316L330.442 116.152C330.828 114.852 333.117 114.157 334.274 113.765L335.149 113.92ZM365.755 104.511C366.535 107.433 367.108 111.054 366.78 114.077C366.64 112.658 366.695 111.609 365.686 110.664C364.508 110.428 362.9 110.989 361.37 111.04L361.141 110.798C363.841 108.075 365.625 108.806 365.755 104.511ZM308.38 109.771C307.403 110.364 306.973 110.335 305.803 110.5L305.188 110.476L305.232 110.261C306.372 109.738 306.638 109.757 307.918 109.59L308.228 109.497L308.38 109.771ZM259.646 108.497C258.986 109.071 258.32 109.639 257.65 110.201L257.433 110.142C257.59 108.955 258.488 108.706 259.463 108.238L259.646 108.497ZM285.5 107.296C285.647 107.431 285.565 107.328 285.603 107.679C283.865 108.881 282.428 108.008 279.623 109.639L279.425 109.414L279.6 108.991C281.917 107.504 283.115 108.113 285.5 107.296ZM205.986 107.404C206.199 107.518 206.074 107.431 206.305 107.731C205.722 108.572 204.985 108.964 204.13 109.546L203.649 109.43L203.606 109.054C204.628 108.452 205.061 108.147 205.986 107.404ZM294.228 105.801C293.7 106.514 293.593 106.599 293.378 107.489L293.705 107.771C294.915 107.429 295.428 106.986 296.315 107.886L296.105 108.159C294.748 108.399 292.89 109.014 292.393 107.424C292.755 106.541 293.205 105.898 293.71 105.1L294.228 105.801ZM331.303 105.415C331.68 105.66 331.548 105.572 331.803 105.999C331.473 106.653 330.42 107.529 329.843 108.069L329.652 107.883C329.698 107.203 330.773 106.103 331.303 105.415ZM211.354 106.385L211.263 106.767L209.833 107.536L209.426 107.41C209.751 106.773 210.307 106.663 211.082 106.241L211.354 106.385ZM357.022 103.366C357.707 103.963 359.012 103.907 359.215 104.629C358.637 105.181 358.063 105.39 357.343 105.736C355.853 105.965 354.3 106.973 353.545 106.992L353.075 106.051C353.135 104.796 353.243 106.433 354.388 104.575C354.983 103.744 355.665 102.731 356.327 101.974C356.382 102.086 357.022 103.366 357.022 103.366ZM337.636 104.36C338.331 104.259 338.783 104.239 339.705 104.408C338.72 104.981 338.063 104.638 336.98 104.868C336.288 105.565 334.95 107.061 333.915 106.748C334.305 106.026 336.066 104.844 336.833 104.484L337.636 104.36ZM296.595 103.662C296.107 104.497 295.065 105.397 294.228 105.801L293.71 105.099C294.562 104.34 295.367 103.393 296.457 103.314L296.595 103.662ZM307.723 102.254C308.398 102.286 308.665 102.16 309.025 102.514C308.233 102.936 308.007 103.069 307.317 103.651L307.16 103.786C306.695 104.216 306.952 104.148 306.428 104.156C306.813 103.15 306.963 103.065 307.723 102.254ZM259.308 100.756C259.242 102.001 257.942 102.969 257.032 103.795L256.68 103.254C257.732 101.863 257.938 102.617 258.91 100.381L259.308 100.756ZM283.308 101.521C283.345 101.68 283.285 101.848 283.265 102.011C282.142 103.181 281.305 103.445 279.732 103.793L279.8 103.424C280.987 102.823 282.155 102.188 283.308 101.521ZM230.888 98.9541C231.81 99.1259 233.756 99.3511 234.394 99.7549L234.077 100.555C232.417 99.5603 231.814 100.062 230.639 99.4443L230.888 98.9541ZM244.412 95.5664C243.91 96.2777 240.623 98.2083 239.682 98.8008L239.609 98.5195C240.026 97.4283 243.262 95.8389 244.326 95.2568L244.412 95.5664ZM293.26 96.4102C293.522 96.4139 293.626 96.4809 293.891 96.5674C293.393 97.3434 291.663 98.3234 290.853 98.7646L290.53 98.7021L290.495 98.4365C291.455 97.5778 292.197 97.1166 293.26 96.4102ZM340.742 94.5664C342.697 95.0546 342.76 94.3885 345.095 95.4131L345.03 95.7266L344.455 95.6426C343.128 95.9211 341.402 96.9224 340.38 96.5752C340.042 95.7911 340.33 95.6764 340.742 94.5664ZM308.062 89.1543C308.807 89.241 308.792 89.1377 309.327 89.5225C305.335 90.8587 307.517 90.2136 305.86 93.502L305.26 93.6611L305.035 93.4551C305.568 91.5741 306.24 89.9978 308.062 89.1543ZM235.139 88.9453C234.687 89.5323 231.291 92.0289 230.422 92.6816L230.23 92.4834L230.315 92.0283C231.529 90.7744 233.405 89.5879 234.918 88.7109L235.139 88.9453ZM219.521 91.2939C221.274 91.6559 221.846 91.7691 223.585 91.3584L223.727 91.7754C221.547 93.1388 221.477 92.7442 219.521 91.2939ZM292.595 91.0293C293.862 91.2555 294.737 92.0016 296.237 91.3037L296.55 91.5176C296.002 92.1132 296.025 92.1687 295.232 92.4297C294.057 92.3982 293.4 91.8753 292.595 91.0293ZM261.165 88.8584C259.863 89.3429 259.12 89.3737 257.765 89.5225L257.223 89.5127C257.83 88.814 259.842 88.702 260.792 88.6348L261.26 88.5527L261.165 88.8584ZM241.865 86.8447C243.165 87.0984 244.546 87.2722 245.862 87.4629C245.17 87.7816 244.257 87.7773 243.472 87.834C242.608 87.8395 242.147 88.6562 241.62 89.2529C241.375 88.4041 241.653 87.7273 241.865 86.8447ZM283.247 82.3623C283.667 83.8115 280.637 85.6201 280.27 87.0195C280.4 87.5788 280.462 87.8388 280.51 88.415L280.54 88.8359C279.988 88.2562 279.747 88.0526 279.345 87.3398C279.922 86.0386 281.947 83.1459 282.992 82.1934L283.247 82.3623ZM235.945 83.2754C234.937 83.9623 232.948 84.3095 231.637 84.917C231.315 84.8633 230.932 84.774 230.615 84.708L230.466 84.374C231.106 83.5373 234.206 83.3129 235.437 83.1309L235.808 83.1289L235.945 83.2754ZM293.812 78.8955C294.987 78.8933 296.287 79.0183 296.125 80.5586C295.413 81.1794 295.597 80.9751 294.357 80.9766C293.748 81.5138 293.175 82.1601 292.357 81.9648C292.03 80.7349 293.078 79.7356 293.812 78.8955ZM317.832 80.1904C318.237 80.1789 318.402 80.2284 318.805 80.2881L318.835 80.501C317.853 80.9994 317.094 81.3066 316.082 81.7148L315.643 81.8877L315.43 81.6602C316.312 80.8149 316.722 80.7006 317.832 80.1904ZM282.72 74.418C282.425 75.0076 281.658 75.2092 280.94 75.5576L280.646 75.541L280.487 75.0898C280.942 74.5773 281.628 74.4561 282.308 74.2334L282.72 74.418ZM272.82 72.1494L272.787 72.5166L271.105 73.6279C270.076 74.3074 269.958 74.3451 269.49 75.5342C269.215 75.2642 269.332 75.4483 269.282 74.9131C270.247 73.1711 270.835 72.7139 272.68 72.0098L272.82 72.1494Z" fill="#EDC43E"/>
</g>
<defs>
<clipPath id="clip0_79_3669">
<rect width="480" height="480" fill="white"/>
</clipPath>
</defs>
</svg>
