<svg width="480" height="480" viewBox="0 0 480 480" fill="none" xmlns="http://www.w3.org/2000/svg">
<g clip-path="url(#clip0_79_5575)">
<path d="M263.678 73.4186C274.483 72.1671 280.85 72.2359 291.743 72.3701C311.218 72.6101 322.405 75.4956 339.138 85.9989C352.79 94.5669 369.165 105.707 378.63 119.227C382.053 124.114 385.598 138.158 386.785 143.994C388.158 152.134 384.973 167.052 381.665 174.52C380.703 176.644 379.475 178.637 378.01 180.451C373.473 186.033 371.083 187.871 369.918 195.302C368.865 202.021 366.465 209.221 364.535 215.754C362.318 223.354 360.103 233.266 355.148 239.653C349.388 241.868 348.575 246.689 342.585 248.269C341.293 248.61 339.765 248.442 338.215 248.689C337.438 248.258 336.37 247.71 335.655 247.224C335.645 245.31 336.688 245.036 336.558 242.873C336.018 241.709 334.838 241.157 333.713 240.424C331.778 240.634 330.78 240.492 329.308 241.699C329.108 242.155 328.875 242.571 328.608 242.99C327.673 241.807 322.495 231.378 321.373 229.188C321.668 227.467 321.705 220.517 321.178 219.08C321.26 218.374 321.238 217.92 321.66 217.358C322.885 217.644 325.768 218.009 326.643 216.943L326.548 216.344C325.575 215.296 325.748 215.585 324.193 215.147C323.293 214.894 322.273 214.647 321.43 214.269C321.245 214.086 320.893 213.715 320.628 213.708C317.425 213.626 314.453 213.207 311.568 211.654C305.268 208.264 298.59 204.761 293.018 200.227C290.613 198.269 288.235 195.791 286.013 193.6C287.238 191.879 287.453 191.375 289.205 190.166C290.118 189.763 290.61 189.636 291.288 188.937C289.64 188.83 288.558 189.641 286.905 189.303C286.498 189.22 286.163 189.523 285.69 189.775C284.048 190.693 284.458 191.383 283.425 191.752C281.748 190.1 280.1 188.794 278.283 187.3C275.673 185.154 273.24 182.764 270.73 180.507C269.245 179.172 267.505 178.011 266.043 176.637C261.855 172.129 256.74 166.603 253.003 161.761C249.121 172.327 244.14 175.921 237.033 183.644C230.548 190.693 227.058 192.368 218.068 195.665C215.322 196.671 213.351 197.081 211.133 199.121C209.809 198.169 209.269 197.677 207.639 197.49C200.861 196.715 195.713 198.21 191.626 191.278C189.492 188.139 189.254 187.037 188.419 183.076C187.944 180.819 189.904 179.406 188.635 178.091C187.806 178.154 180.582 185.509 179.799 186.658C177.019 190.734 174.174 192.251 170.714 195.283C164.755 200.504 158.501 203.873 151.801 208.004C147.724 210.518 142.61 211.314 139.16 214.372C138.583 214.962 138.675 220.613 138.513 221.993C137.602 228.894 136.584 237.339 132.464 243.124C131.217 244.875 129.482 245.687 127.639 246.572C125.875 247.419 124.496 246.102 122.782 245.283L122.624 245.019C119.849 240.471 119.218 241.419 117.162 235.864C113.126 224.962 116.461 215.128 109.005 205.618C107.157 203.262 108.082 203.337 105.339 201.836C102.69 200.386 95.0666 190.675 93.4234 188.118C92.3194 186.383 91.3939 184.541 90.6611 182.62C89.0574 178.382 88.5871 167.619 89.2454 162.979C90.2699 155.757 94.0394 147.705 96.8256 140.987C103.811 125.257 116.665 114.303 130.427 104.625C132.034 103.495 133.738 102.54 135.374 101.499C153.719 89.8161 174.822 84.7194 195.784 79.9974C198.493 79.3869 201.97 79.6359 204.738 79.1641C207.176 78.7086 209.498 77.5151 211.953 77.1654C218.217 76.2729 224.509 75.9826 230.788 75.2731C233.112 75.0106 235.811 75.2506 238.014 74.4926C239.841 73.8636 241.218 73.5031 243.176 73.6451C248.114 73.7449 253.018 73.1329 257.9 72.4969C260.665 72.1366 261.228 72.2939 263.678 73.4186ZM349.038 220.061C350.223 219.716 349.31 219.513 350.865 219.421L351.11 218.851L351.113 219.398L351.253 219.17L351.165 219.46L351.295 219.597L351.413 219.349L350.708 218.225C348.53 218.22 348.155 216.578 346.255 218.417C345.5 219.149 345.155 219.421 344.738 220.411L344.883 220.825C346.268 221.256 347.753 220.582 349.038 220.061ZM350.075 234.695C350.853 234.243 352.378 233.576 352.61 232.924C352.063 232.494 351.395 232.138 351.205 231.6L351.53 231.123L350.898 230.72C349.983 231.79 348.39 233.436 348.608 234.941L349.008 235.145L350.075 234.695ZM364.833 154.79C365.68 153.078 366.543 152.742 367.59 151.125L367.358 150.891C366.62 151.097 366.275 151.292 365.583 151.609C365.058 152.826 364.485 153.817 363.845 154.969L363.638 155.161C362.343 156.35 361.68 156.501 360.44 157.824L360.605 157.964L360.938 157.824C362.545 157.162 362.515 157.15 364.193 157.674C364.983 156.984 364.823 155.808 364.833 154.79ZM112.249 174.636C114.237 172.887 116.489 173.43 118.168 171.877C116.938 172.036 113.658 173.14 111.924 173.525C110.985 173.534 110.56 173.648 109.878 174.378C109.457 174.836 109.075 175.329 108.735 175.851C108.145 176.242 107.426 176.575 107.214 177.189C108.115 177.282 109.151 176.776 110.013 176.415C111.085 175.985 111.667 175.59 112.249 174.636ZM310.06 85.6391C311.543 85.3731 314.588 82.2704 316.74 80.9689L316.84 80.6171L316.63 80.4341C314.89 81.0084 311.653 83.8971 309.933 85.1229C309.923 85.5406 309.855 85.3776 310.06 85.6391ZM347.298 133.469C349.393 131.354 352.733 130.561 353.695 129.312L353.545 129.077C351.815 129.739 347.128 131.375 347.168 133.367L347.298 133.469ZM346.643 169.22C349.43 168.389 350.485 167.756 352.76 165.92L352.78 165.597L352.65 165.5C351.715 165.897 346.875 168.451 346.463 169.152L346.643 169.22ZM341.81 233.41C344.415 233.302 346.165 234.045 347.815 232.876L347.92 232.598L347.573 232.582C345.09 233.011 341.988 232.327 341.038 233.373C341.535 233.573 341.278 233.555 341.81 233.41ZM233.286 89.1384C233.83 87.7806 235.998 83.2764 236.173 82.7331L235.769 82.6569C235.124 83.0841 232.976 87.8421 233.074 88.7711L233.286 89.1384ZM231.465 151.07C230.83 151.812 229.362 152.752 229.131 153.179C230.295 153.374 231.18 152.816 231.829 151.898C232.401 148.901 234.097 149.307 236.706 148.417C234.936 148.281 233.937 148.488 232.183 148.748C231.896 149.487 231.687 150.304 231.465 151.07ZM335.463 235.693C336.325 235.192 338.565 234.033 338.905 233.259C337.79 232.807 335.953 234.789 334.325 235.187C331.82 235.874 330.943 236.641 328.95 238.328C332.4 237.552 332.273 235.924 335.463 235.693ZM113.81 197.335C115.968 196.221 118.168 196.936 118.61 195.589C117.984 195.392 118.295 195.378 117.673 195.518C116.387 195.65 114.433 196.392 113.364 197.127L113.435 197.409L113.81 197.335ZM229.714 170.892C231.238 170.634 234.454 170.136 235.711 169.274L235.638 169.055L235.402 169.08C234.195 169.38 229.729 170.275 229.174 170.897L229.369 171.16L229.714 170.892ZM348.343 190.595L350.543 188.468C351.278 187.831 352.055 187.37 352.278 186.549L351.805 186.539C350.703 187.11 350.65 187.244 349.818 188.215C349.03 189.12 348.675 189.561 347.708 190.297C345.248 190.649 345.523 190.582 343.27 191.779L343.313 192.239C343.048 192.216 348.435 190.558 348.343 190.595ZM298.235 100.855C300.328 100.565 301.513 99.8109 302.85 98.1094L302.743 97.7904L302.525 97.7039C299.79 100.363 300.615 99.2319 297.815 100.632L298.235 100.855ZM275.793 89.6524C274.295 88.7874 271.433 88.9861 269.628 88.8369C270.938 90.3489 273.635 89.2891 275.793 89.6524ZM346.893 149.532C347.655 149.079 348.803 148.602 349.093 147.939L348.88 147.748C348.11 148.044 347.063 148.342 346.515 148.907L346.58 149.324L346.893 149.532ZM92.1401 169.318C92.8359 168.862 94.4496 167.939 94.8139 167.341L94.7069 167.286C93.6466 167.589 92.4871 168.008 91.8656 168.979L92.1401 169.318ZM301.323 94.8819C302.26 94.6141 303.065 94.4711 303.85 93.9044C303.35 93.6449 303.38 93.6736 302.813 93.7276C301.785 94.1496 301.335 94.2231 300.648 95.0394L300.798 95.2241L301.323 94.8819ZM192.107 163.67C192.847 163.164 194.662 162.082 194.988 161.389L194.648 161.231C193.9 161.701 191.753 162.777 191.454 163.227C191.842 163.647 191.617 163.512 192.107 163.67ZM201.812 186.54C202.659 186.269 203.502 185.985 204.34 185.686L204.458 185.371L203.801 185.218C202.994 185.566 202.082 185.886 201.423 186.446L201.63 186.627L201.812 186.54ZM298.638 128.271L298.838 127.992C298.043 127.492 296.643 127.689 295.74 127.859L295.643 128.354C296.823 128.405 297.523 128.219 298.638 128.271ZM348.573 158.759C349.195 158.146 350.26 157.22 350.595 156.478L350.368 156.206C349.655 156.843 348.755 157.502 348.395 158.35L348.573 158.759ZM202.333 180.479C201.521 180.904 200.731 181.151 200.279 181.827L200.636 181.967C201.335 181.637 202.227 181.324 202.647 180.726C202.542 180.644 202.437 180.561 202.333 180.479ZM274.155 105.334C273.34 105.448 272.8 105.434 272.153 105.928C272.573 106.206 272.348 106.153 272.818 106.116C273.75 105.911 274.185 105.903 274.918 105.341C274.425 105.247 274.583 105.204 274.155 105.334ZM206.919 187.534C207.497 187.018 208.377 186.408 208.577 185.78L208.148 185.701C207.564 186.196 206.648 186.86 206.355 187.506C206.759 187.646 206.571 187.656 206.919 187.534ZM303.078 74.9734C301.798 75.5484 300.563 76.2484 299.745 77.4209L299.823 77.7434L300.18 77.9001C300.978 77.0866 303.14 75.5729 303.313 75.0664L303.078 74.9734ZM332.395 88.2209C332.913 87.7709 333.438 87.3276 333.965 86.8914C333.47 86.7909 333.155 86.7364 332.65 86.6819C332.193 87.3904 331.785 87.8761 331.63 88.7014C332.198 88.6121 331.923 88.7114 332.395 88.2209ZM357.215 219.173C356.185 219.874 356.018 219.912 355.423 220.954L355.58 221.397L355.733 221.27C356.353 220.795 357.598 220.002 357.815 219.345L357.215 219.173ZM347.573 213.454C348.463 213.058 349.058 212.898 349.698 212.204C349.443 212.028 349.56 212.038 349.375 212.054C348.56 212.323 347.975 212.528 347.185 212.863L347.223 213.227L347.573 213.454ZM381.73 153.964C381.04 154.445 380.133 154.893 379.853 155.553L380.053 155.8C380.89 155.333 381.358 155.17 381.923 154.428C381.808 154.007 381.913 154.136 381.73 153.964ZM256.523 149.474C255.933 150.022 254.863 150.843 254.668 151.555L254.933 151.964C255.645 151.241 256.393 150.644 256.715 149.716L256.523 149.474ZM261.16 86.7479C262.423 86.3534 263.145 86.1821 264.285 85.4691L264.233 85.1614L263.788 85.2424C262.918 85.5474 261.288 85.9946 260.708 86.5941L261.16 86.7479ZM235.32 104.484C234.549 104.983 232.862 105.922 232.491 106.637L232.498 106.77C233.601 106.296 234.372 106.067 235.236 105.236C235.404 104.711 235.431 104.948 235.32 104.484ZM337.375 210.029C338.195 209.666 338.095 209.381 338.633 208.34C338.565 207.971 338.625 207.965 338.425 207.72C337.803 208.265 337.455 208.561 336.775 209.027L336.675 209.411L337.375 210.029ZM245.405 145.184C244.629 146.034 243.424 147.19 243.439 148.337L243.538 148.401C244.156 147.642 245.622 146.124 245.594 145.368L245.405 145.184ZM333.843 103.676C333.128 104.171 332.588 104.4 332.33 105.203L332.663 105.284C333.053 105.039 333.443 104.8 333.823 104.541C334.478 104.473 335.138 104.549 335.473 104.184C334.69 103.762 334.683 103.795 333.843 103.676ZM255.345 135.268C254.613 135.768 252.478 137.042 252.328 137.691L252.683 137.868C253.725 137.19 254.69 136.656 255.523 135.74L255.505 135.367L255.345 135.268ZM350.668 199.818C349.823 200.098 347.358 200.668 346.898 201.047L347.068 201.384C348.608 201.156 349.768 201.17 350.813 200.018C350.763 199.951 350.715 199.885 350.668 199.818ZM207.422 167.255C205.846 168.005 205.197 168.688 204.937 170.433C205.224 170.828 205.054 170.759 205.327 170.821C205.959 169.039 206.349 168.738 207.583 167.383L207.422 167.255ZM301.18 120.465C300.438 120.869 297.565 122.199 297.393 122.665L297.563 122.907C298.785 122.359 300.245 121.808 301.265 120.986L301.36 120.636L301.18 120.465ZM182.691 173.198C181.502 174.16 180.342 175.001 179.371 176.176C179.396 176.699 179.289 176.531 179.494 176.761C180.574 175.798 181.953 174.633 182.897 173.579L182.691 173.198Z" fill="#FF81B2"/>
<path d="M233.35 117.178C235.312 117.085 236.21 119.652 236.996 121.162C233.968 130.795 231.499 137.262 223.359 144.04C221.224 145.818 220.139 146.852 217.613 148.233C217.455 148.203 217.297 148.175 217.139 148.149C214.693 147.759 214.375 148.182 212.491 149.524C207.658 149.3 205.926 148.407 201.681 145.638C201.228 145.343 201.188 144.381 201.105 143.781L201.057 143.42C200.351 143.653 198.174 146.091 197.352 146.74C195.692 148.24 193.743 149.42 191.988 150.784C186.959 154.693 181.732 156.624 176.061 159.318C171.289 158.299 171.569 159.436 166.734 156.245C166.553 155.281 165.681 151.368 165.158 150.872C163.896 151.331 162.516 152.776 161.369 153.56C157.213 156.4 153.704 159.115 150.268 162.809C147.983 165.266 143.957 167.143 140.963 168.583C136.238 170.855 131.158 172.843 125.872 171.278C124.512 170.898 123.421 167.536 122.8 166.087C123.266 163.174 124.503 156.795 125.914 153.998C131.075 143.768 137.688 133.244 146.237 125.487C147.852 124.021 150.294 123.002 152.139 122.239C154.363 123.164 154.938 123.421 156.516 125.232C155.914 127.309 155.448 128.116 154.398 129.988C150.238 130.105 151.312 128.532 147.524 131.366C145.683 133.244 143.921 135.14 142.288 137.208C141.676 137.983 135.151 147.641 135.174 147.803C135.192 147.931 135.584 148.397 135.579 148.491C135.549 149.025 130.939 155.203 130.44 157.801C130.215 158.977 130.164 160.457 130.939 161.456C131.431 162.092 132.123 162.377 132.902 162.424C137.987 162.731 152.648 151.796 156.75 148.068C160.135 144.992 163.494 141.347 166.292 137.739C169.835 133.17 172.174 126.732 176.476 122.934C177.112 122.373 178.12 121.899 178.992 122.068C179.729 122.212 180.356 122.627 180.75 123.276C183.363 127.587 174.441 138.402 173.524 143.417C173.337 144.439 173.275 145.777 174.01 146.617C174.42 147.086 175.01 147.297 175.609 147.384C179.722 147.977 187.334 144.362 190.69 142.118C192.628 140.822 194.416 139.223 196.224 137.752C197.674 136.573 199.402 135.349 200.515 133.834C202.861 130.639 203.922 124.88 207.243 122.615C208.038 122.073 209.153 122.024 210.065 122.263C210.803 122.457 211.465 122.958 211.819 123.64C212.955 125.824 210.585 129.485 210.032 131.69C209.537 133.667 209.786 135.879 210.902 137.605C211.339 138.282 211.964 138.676 212.757 138.79C214.378 139.023 216.477 137.954 217.895 137.231C230.133 130.991 226.6 122.114 233.092 117.362C233.177 117.3 233.264 117.239 233.35 117.178Z" fill="#4B4746"/>
<path d="M333.713 240.424C334.838 241.157 336.018 241.709 336.558 242.873C336.688 245.036 335.645 245.31 335.655 247.224C333.108 246.161 330.485 245.027 328.607 242.99C328.875 242.571 329.108 242.155 329.308 241.699C330.78 240.492 331.778 240.634 333.713 240.424ZM334.325 235.188C335.953 234.789 337.79 232.807 338.905 233.259C338.565 234.033 336.326 235.192 335.463 235.692C332.273 235.924 332.4 237.552 328.95 238.328C330.943 236.641 331.82 235.874 334.325 235.188ZM351.53 231.123L351.205 231.601C351.395 232.138 352.063 232.494 352.61 232.924C352.378 233.576 350.853 234.243 350.075 234.694L349.008 235.145L348.607 234.941C348.39 233.436 349.982 231.79 350.897 230.72L351.53 231.123ZM347.92 232.598L347.815 232.876C346.166 234.045 344.415 233.302 341.811 233.41C341.278 233.555 341.535 233.573 341.038 233.373C341.988 232.327 345.09 233.011 347.572 232.582L347.92 232.598ZM357.814 219.345C357.597 220.002 356.352 220.795 355.732 221.27L355.58 221.396L355.423 220.954C356.018 219.912 356.185 219.874 357.215 219.173L357.814 219.345ZM346.255 218.417C348.155 216.578 348.53 218.219 350.707 218.225L351.105 218.86L350.865 219.421C349.31 219.513 350.222 219.715 349.037 220.061C347.752 220.581 346.268 221.256 344.883 220.825L344.737 220.411C345.155 219.421 345.5 219.149 346.255 218.417ZM351.412 219.349L351.295 219.597L351.165 219.46L351.253 219.17L351.112 219.398L351.11 218.867L351.412 219.349ZM321.43 214.269C322.272 214.647 323.292 214.894 324.192 215.146C325.747 215.584 325.575 215.295 326.548 216.344L326.643 216.942C325.768 218.009 322.885 217.644 321.66 217.358C321.238 217.92 321.26 218.374 321.178 219.079C320.905 218.053 320.9 218.018 321.082 216.988C321.022 215.69 321.052 215.515 321.43 214.269ZM351.11 218.867L351.105 218.86L351.11 218.851V218.867ZM349.375 212.054C349.56 212.038 349.442 212.028 349.697 212.204C349.057 212.898 348.462 213.058 347.572 213.454L347.223 213.227L347.186 212.863C347.975 212.528 348.56 212.323 349.375 212.054ZM338.425 207.72C338.625 207.965 338.565 207.97 338.633 208.34C338.095 209.381 338.195 209.665 337.375 210.028L336.675 209.41L336.775 209.026C337.455 208.561 337.802 208.265 338.425 207.72ZM350.812 200.019C349.768 201.17 348.607 201.156 347.067 201.384L346.897 201.047C347.358 200.667 349.823 200.097 350.668 199.817C350.715 199.884 350.763 199.952 350.812 200.019ZM117.673 195.518C118.295 195.377 117.984 195.392 118.609 195.589C118.167 196.936 115.968 196.221 113.811 197.335L113.435 197.409L113.364 197.127C114.433 196.392 116.387 195.65 117.673 195.518ZM291.287 188.938C290.61 189.636 290.117 189.762 289.205 190.165V190.166C287.453 191.375 287.238 191.879 286.013 193.601C285.07 192.972 284.32 192.445 283.425 191.752C284.457 191.382 284.048 190.693 285.69 189.774L286.021 189.583C286.334 189.395 286.6 189.24 286.905 189.303C288.557 189.641 289.64 188.831 291.287 188.938ZM343.312 192.239C343.301 192.238 343.3 192.234 343.311 192.227L343.312 192.239ZM352.277 186.549C352.055 187.369 351.277 187.83 350.542 188.467L350.543 188.468L348.343 190.596C348.429 190.561 343.524 192.07 343.311 192.227L343.271 191.778C345.523 190.582 345.248 190.649 347.708 190.297C348.675 189.561 349.03 189.12 349.817 188.215L350.324 187.624C350.742 187.15 350.978 186.967 351.805 186.539L352.277 186.549ZM208.576 185.779C208.377 186.408 207.497 187.018 206.919 187.534C206.57 187.655 206.758 187.646 206.354 187.506C206.648 186.86 207.564 186.196 208.147 185.7L208.576 185.779ZM204.458 185.37L204.34 185.686C203.502 185.985 202.659 186.27 201.812 186.54L201.63 186.627L201.423 186.445C202.082 185.885 202.994 185.566 203.801 185.218L204.458 185.37ZM202.647 180.727C202.227 181.324 201.335 181.637 200.636 181.967L200.278 181.827C200.73 181.151 201.522 180.904 202.333 180.479C202.438 180.561 202.543 180.644 202.647 180.727ZM118.168 171.877C116.49 173.43 114.237 172.887 112.249 174.636V174.637C111.667 175.59 111.085 175.985 110.014 176.415C109.151 176.776 108.114 177.282 107.214 177.188C107.426 176.574 108.145 176.242 108.735 175.851C109.075 175.329 109.457 174.836 109.878 174.378C110.559 173.648 110.985 173.534 111.924 173.525C113.659 173.14 116.939 172.036 118.168 171.877ZM182.896 173.579C181.952 174.633 180.574 175.797 179.494 176.761C179.289 176.531 179.396 176.698 179.37 176.176C180.342 175.001 181.502 174.159 182.69 173.197L182.896 173.579ZM235.711 169.274C234.454 170.136 231.238 170.634 229.714 170.892L229.369 171.16L229.174 170.897C229.729 170.276 234.194 169.379 235.401 169.079L235.638 169.056L235.711 169.274ZM207.583 167.383C206.349 168.738 205.959 169.039 205.327 170.821C205.054 170.759 205.224 170.827 204.938 170.433C205.197 168.688 205.847 168.005 207.422 167.255L207.583 167.383ZM94.8135 167.341C94.4492 167.939 92.8354 168.862 92.1396 169.318L91.8652 168.979C92.4867 168.008 93.6468 167.589 94.707 167.285L94.8135 167.341ZM352.78 165.597L352.76 165.92C350.485 167.756 349.43 168.389 346.643 169.22L346.463 169.151C346.877 168.451 351.716 165.897 352.65 165.5L352.78 165.597ZM194.988 161.389C194.663 162.082 192.846 163.164 192.106 163.67C191.617 163.511 191.842 163.647 191.454 163.227C191.754 162.776 193.9 161.701 194.648 161.231L194.988 161.389ZM350.595 156.479C350.259 157.22 349.195 158.147 348.572 158.759L348.396 158.35C348.756 157.502 349.655 156.842 350.367 156.206L350.595 156.479ZM367.59 151.125C366.542 152.742 365.68 153.077 364.832 154.789V154.79L364.839 155.573C364.843 156.366 364.785 157.157 364.192 157.674C362.515 157.151 362.545 157.162 360.938 157.824L360.604 157.964L360.44 157.824C361.68 156.502 362.343 156.35 363.638 155.161L363.845 154.97L364.312 154.129C364.768 153.307 365.188 152.522 365.582 151.609C366.275 151.292 366.62 151.096 367.357 150.891L367.59 151.125ZM381.73 153.964C381.913 154.136 381.808 154.007 381.923 154.428C381.358 155.17 380.89 155.333 380.053 155.8L379.853 155.553C380.133 154.893 381.041 154.444 381.73 153.964ZM232.184 148.748C233.937 148.487 234.936 148.28 236.706 148.417C234.097 149.307 232.401 148.901 231.829 151.897C231.18 152.815 230.294 153.374 229.131 153.18C229.362 152.752 230.831 151.812 231.465 151.07L231.799 149.898C231.915 149.506 232.04 149.117 232.184 148.748ZM256.715 149.716C256.392 150.644 255.645 151.241 254.933 151.964L254.668 151.555C254.863 150.843 255.932 150.023 256.522 149.475L256.715 149.716ZM349.093 147.938C348.803 148.602 347.655 149.079 346.893 149.532L346.58 149.323L346.516 148.907C347.063 148.342 348.11 148.044 348.88 147.748L349.093 147.938ZM245.594 145.368C245.622 146.124 244.156 147.642 243.538 148.4L243.438 148.337C243.424 147.19 244.629 146.034 245.405 145.184L245.594 145.368ZM255.505 135.367L255.522 135.739C254.69 136.656 253.725 137.191 252.683 137.868L252.327 137.691C252.477 137.042 254.612 135.768 255.345 135.269L255.505 135.367ZM353.695 129.312C352.733 130.56 349.393 131.354 347.298 133.469L347.168 133.367C347.128 131.374 351.815 129.739 353.545 129.077L353.695 129.312ZM295.74 127.859C296.643 127.689 298.043 127.492 298.838 127.992L298.638 128.271C297.523 128.219 296.823 128.405 295.643 128.354L295.74 127.859ZM301.36 120.636L301.265 120.986C300.245 121.808 298.785 122.358 297.562 122.906L297.393 122.665C297.566 122.199 300.437 120.868 301.18 120.465L301.36 120.636ZM235.32 104.483C235.431 104.948 235.404 104.711 235.235 105.236C234.372 106.067 233.6 106.296 232.498 106.77L232.49 106.637C232.861 105.922 234.55 104.983 235.32 104.483ZM274.155 105.334C274.582 105.203 274.426 105.247 274.918 105.341C274.185 105.903 273.75 105.911 272.817 106.116C272.348 106.154 272.572 106.206 272.152 105.928C272.8 105.434 273.34 105.448 274.155 105.334ZM333.843 103.676C334.683 103.795 334.69 103.762 335.473 104.185C335.138 104.549 334.477 104.473 333.822 104.541C333.443 104.8 333.053 105.039 332.663 105.284L332.33 105.203C332.588 104.4 333.128 104.171 333.843 103.676ZM302.742 97.79L302.85 98.1094C301.512 99.8106 300.328 100.565 298.235 100.855L297.815 100.632C300.615 99.2319 299.791 100.363 302.525 97.7041L302.742 97.79ZM302.812 93.7275C303.38 93.6736 303.35 93.645 303.85 93.9043C303.065 94.4709 302.26 94.6141 301.322 94.8818L300.798 95.2236L300.647 95.0391C301.335 94.2229 301.785 94.1495 302.812 93.7275ZM269.628 88.8369C271.433 88.9861 274.295 88.7876 275.792 89.6523C273.635 89.2893 270.938 90.3484 269.628 88.8369ZM236.173 82.7334C235.997 83.278 233.83 87.7812 233.286 89.1387L233.074 88.7705C232.977 87.8405 235.123 83.0862 235.769 82.6572L236.173 82.7334ZM332.649 86.6816C333.154 86.7361 333.47 86.7911 333.965 86.8916C333.437 87.3278 332.912 87.7708 332.395 88.2207C331.922 88.711 332.197 88.6119 331.63 88.7012C331.785 87.876 332.192 87.39 332.649 86.6816ZM264.285 85.4688C263.145 86.1817 262.423 86.3536 261.16 86.748L260.708 86.5938C261.288 85.9945 262.917 85.5471 263.787 85.2422L264.232 85.1611L264.285 85.4688ZM316.84 80.6172L316.74 80.9688C314.588 82.2702 311.542 85.3727 310.06 85.6387C309.855 85.3777 309.923 85.5402 309.933 85.123C311.653 83.8973 314.89 81.0078 316.63 80.4336L316.84 80.6172ZM303.312 75.0664C303.14 75.5731 300.977 77.087 300.18 77.9004L299.822 77.7432L299.745 77.4209C300.563 76.2484 301.798 75.5486 303.078 74.9736L303.312 75.0664Z" fill="#FF81B2"/>
</g>
<defs>
<clipPath id="clip0_79_5575">
<rect width="480" height="480" fill="white"/>
</clipPath>
</defs>
</svg>
