<svg width="480" height="480" viewBox="0 0 480 480" fill="none" xmlns="http://www.w3.org/2000/svg">
<g clip-path="url(#clip0_79_8844)">
<path d="M174.022 108.433C177.641 106.433 181.222 103.812 185.025 102.032C188.129 100.579 191.783 99.6869 194.775 98.0856C196.108 97.3726 198.171 95.7671 199.471 94.8406C202.135 92.9124 205.073 91.3956 208.187 90.3411C212.505 88.8816 217.034 87.6979 221.498 86.7926C224.131 86.2586 226.606 86.7301 229.116 85.6644C230.152 85.2246 232.094 86.0144 233.124 85.9576C234.954 85.8569 236.925 85.4634 238.785 85.4316C240.892 85.3959 243.023 85.2974 245.131 85.3629C246.07 85.3921 248.464 85.9456 249.091 85.9134C252.907 85.7179 257.207 84.7671 261.045 85.1726C262.71 85.3484 265.73 86.5084 267.707 86.9611C270.762 87.6599 274.202 88.1226 277.17 88.8781C283.307 90.4399 288.845 92.9231 294.64 95.2436C301.242 97.8869 306.35 99.9284 312.665 103.131C312.332 104.187 311.875 104.561 311.145 105.367L311.06 105.778C313.237 105.383 313.022 104.32 315.535 104.835C323.08 108.55 329.372 114.746 334.795 121.073C336.84 123.214 339.275 124.666 341.185 126.986C346.162 133.028 350.35 139.92 354.087 146.781C355.472 149.324 356.507 152.773 357.58 155.48C360.83 163.686 363.295 172.226 363.187 181.126C363.13 185.763 362.58 190.498 362.267 195.135C362.222 195.843 362.83 196.666 362.8 197.419C362.312 203.248 364.03 215.539 356.365 217.379C351.645 218.512 348.087 218.527 343.695 220.669C343.005 222.922 341.302 228.728 339.97 230.424C337.775 233.22 331.385 236.811 328.365 238.813C324.81 241.172 320.287 242.877 317.3 245.871C315.672 245.229 313.377 244.593 312.555 242.896C311.657 241.042 312.012 222.793 312.007 219.209C311.205 219.134 308.337 218.867 307.907 218.542C305.577 216.781 294.37 216.021 293.21 214.851C293.192 213.645 295.275 212.006 295.612 210.72C291.915 210.579 291.067 214.972 289.832 214.792C285.047 214.099 280.717 212.879 275.767 213.019C271.335 212.507 266.407 211.632 261.94 211.559C258.057 211.495 254.212 212.454 250.142 211.456C244.342 210.034 238.116 212.419 232.462 211.9C228.917 211.575 221.201 212.595 218.386 211.091C216.627 211.42 214.789 215.786 212.505 213.852C211.297 212.83 206.988 199.658 206.492 197.539C205.378 192.785 205.865 189.126 203.253 184.726L203.154 185.098C202.474 187.754 202.901 189.851 202.553 192.338C201.803 197.483 201.457 202.056 201.666 207.26C201.761 209.612 199.821 215.752 197.983 217.396C196.692 218.55 194.455 217.15 193.176 216.514C190.53 217.781 188.232 217.887 185.273 218.646C184.505 218.211 184.419 218.09 183.823 217.484C180.035 216.156 180.849 221.4 176.679 217.072C173.188 219.971 168.58 221.034 164.142 221.04C161.242 221.045 160.59 217.385 160.225 215.042C159.379 209.621 159.341 204.478 158.007 199.087C157.328 196.341 157.828 190.741 157.65 187.806C157.659 187.652 157.846 187.047 157.881 186.934C158.028 186.558 157.999 186.13 157.844 185.826C157.062 184.289 158.747 181.877 158.542 180.832C157.611 181.522 156.81 183.406 156.307 184.509C155.45 185.686 154.08 188.701 153.345 190.226C151.618 193.808 149.392 197.523 147.9 201.176C145.601 206.804 143.64 213.079 140.733 218.447C140.064 219.681 138.131 221.007 136.973 221.82C136.342 221.728 133.562 221.298 133.117 221.394C127.849 222.537 122.207 222.566 117.092 224.066C115.638 223.261 114.914 222.865 113.368 222.274C111.798 217.379 112.398 215.676 112.916 210.616C113.207 207.772 113.095 204.6 113.402 201.687C115.128 185.335 120.568 169.592 129.306 155.663C131.397 152.346 133.303 148.883 136.144 146.235C137.191 146.493 137.532 146.607 138.591 146.636L138.731 146.271L138.089 145.609C137.337 145.468 137.509 145.594 136.919 145.214C136.944 145.114 136.968 145.015 136.993 144.916C143.337 133.114 160.789 116.205 171.374 110.03C173.989 111.311 173.376 111.008 176.249 110.581L176.373 110.321C175.782 109.692 175.024 109.452 174.223 109.104L174.022 108.433ZM269.097 94.7376C270.96 95.6081 270.2 96.4764 271.085 98.2166C271.697 97.7066 272.842 94.9926 273.25 94.1181C271.662 94.1031 270.347 94.0369 268.777 94.3174C267.97 93.6351 267.535 93.3519 266.632 92.7911C264.992 94.4584 264.66 95.5444 262.805 96.7711C264.815 96.4899 266.827 95.2394 269.097 94.7376ZM256.28 93.9244L256.475 93.9959C257.342 94.3209 257.417 94.3761 258.165 94.9089C258.852 94.2201 258.875 93.4261 258.655 92.5371L258.28 92.2124C258.112 92.2254 257.287 92.2789 257.182 92.3094C255.812 92.7849 254.647 93.0951 253.45 93.9079L253.392 94.1954C254.515 94.3946 255.165 94.1624 256.28 93.9244ZM287.955 182.283C287.352 182.703 285.952 183.553 285.81 184.205C286.722 184.282 286.715 184.233 287.537 183.913C288.235 184.689 287.825 184.475 288.742 184.692C289.907 184.276 291.597 183.65 291.545 182.21C290.617 181.583 288.98 182.055 287.955 182.283ZM298.647 208.313C301.027 206.522 303.142 205.066 305.777 203.636L305.952 203.224C305.822 203.071 305.697 202.868 305.55 202.818C302.682 204.095 300.435 205.335 298.48 207.886L298.415 208.35L298.647 208.313ZM222.445 92.0139C223.242 91.1416 224.162 90.3116 224.556 89.2346L224.438 88.6514C223.817 88.3534 223.821 88.3479 223.147 88.2244C222.336 88.6879 221.864 88.9139 221.173 89.5299C221.164 90.5614 221.792 90.7814 222.445 92.0139ZM239.845 92.1566C240.594 91.5861 241.489 91.0674 241.81 90.2236C241.327 89.4521 240.437 89.4516 239.378 89.1989C239.045 90.0234 238.119 91.9259 238.18 92.6394L238.546 92.7841C239.001 92.5814 239.423 92.4176 239.845 92.1566ZM304.602 153.14L304.887 153.39C305.87 153.145 307.187 151.476 307.055 150.37L306.525 150.065C305.432 151.146 305.397 151.125 303.822 150.712L303.59 150.822C303.845 152.047 304.3 152.157 304.602 153.14ZM217.6 203.153C217.225 203.733 217.257 203.725 217.103 204.41L217.365 204.467C218.325 203.906 218.376 203.774 219.094 202.885L218.983 202.281C217.95 200.895 217.192 199.306 215.301 199.989L214.976 200.487L215.076 200.93C216.5 201.823 217.209 201.159 217.6 203.153ZM203.066 160.717C202.187 161.29 201.407 161.689 200.783 162.519C201.522 162.348 202.257 162.162 202.988 161.959L203.618 162.435C204.306 162.062 204.617 161.591 204.511 160.768C204.724 157.728 205.854 158.095 207.06 155.584L206.675 155.541C204.531 156.598 204.505 158.753 203.066 160.717ZM332.117 190.42L332.067 189.695C331.802 189.621 325.117 189.237 325.1 189.24C325.822 191.97 329.02 189.178 331.482 190.46L332.117 190.42ZM121.35 210.639C121.8 210.432 123.16 209.805 123.488 209.539C124.663 208.584 126.997 208.466 127.769 207.538L127.648 207.337L127.459 207.326C124.324 207.852 123.613 208.402 120.978 210.451L121.148 210.635L121.35 210.639ZM276.642 189.403L276.797 189.222C276.212 188.882 271.93 187.519 271.5 187.506C273.037 190.598 274.685 189.02 276.642 189.403ZM320.785 210.595L321.002 210.819C321.792 210.403 322.525 210.033 323.372 209.731C324.51 209.326 326.48 209.719 327.075 208.591L326.76 208.261C325.33 208.779 324.042 209.197 322.557 209.555C321.907 209.712 319.75 209.947 319.512 210.371C319.92 210.427 320.407 210.463 320.785 210.595ZM189.953 204.089C189.08 204.538 187.175 205.293 186.657 205.872C187.909 206.083 188.968 205.606 190.028 205.02C190.798 203.655 193.033 202.331 194.65 202.336L194.883 201.988C193.719 200.535 190.967 203.131 189.953 204.089ZM122.138 187.233C123.077 186.903 125.238 186.306 125.678 185.631C125.27 185.062 125.531 185.29 124.801 185.013C123.869 185.446 121.98 186.287 121.646 187.258C122.039 187.299 121.878 187.334 122.138 187.233ZM305.637 177.059C306.26 175.746 306.495 176.605 306.877 175.087L306.58 174.626C305.677 174.219 305.587 174.239 304.577 174.163C304.877 175.11 305.165 176.202 305.637 177.059ZM191.738 191.613L192.179 191.169L191.897 190.954C190.801 191.341 190.477 191.634 189.843 192.661C187.481 194.682 188.425 195.157 185.066 195.056L185.301 195.45C187.743 196.416 190.234 193.181 191.738 191.613ZM282.167 166.819L282.362 167C283.075 167.12 285.402 165.404 286.42 164.922L285.57 164.416C284.227 165.117 283.16 165.614 282.167 166.819ZM127.471 195.897C128.148 195.453 128.721 195.191 129.093 194.492L128.768 194.322C127.725 194.615 127.608 194.684 126.759 195.358C125.483 196.656 125.453 196.662 123.913 197.617L123.294 198.009C122.491 198.135 122.143 198.167 121.364 198.457L121.482 198.667C122.632 198.692 122.814 198.671 123.924 198.367C125.285 197.623 126.394 197.018 127.471 195.897ZM205.66 169.675C204.982 170.715 203.592 171.951 203.612 172.739C204.533 172.034 205.229 171.65 205.731 170.621C205.745 170.122 205.803 170.123 205.66 169.675ZM235.41 96.2366C234.562 96.6824 232.732 97.3616 232.382 97.8901L232.566 98.0301C233.762 97.6769 234.376 97.5551 235.432 96.8444L235.614 96.4341L235.41 96.2366ZM136.623 200.184C135.872 201.016 134.434 202.169 134.219 202.895L134.267 203.011C135.257 202.345 136.004 201.966 136.674 200.986C136.704 200.514 136.753 200.608 136.623 200.184ZM136.908 178.317C137.559 177.868 138.319 177.468 138.63 176.776C138.361 176.479 138.499 176.548 138.284 176.468C137.525 176.977 136.691 177.349 136.353 178.066L136.908 178.317ZM292.695 174.023C291.307 173.51 290.615 173.11 289.227 173.47L288.63 173.985L288.605 174.408C291.82 173.847 290.31 174.339 293.077 174.664L292.695 174.023ZM177.481 123.208L178.768 121.785C179.199 121.308 179.538 120.909 179.483 120.22C178.605 121.035 177.93 121.523 177.421 122.601L177.481 123.208ZM244.53 130.566L244.311 130.765C243.047 131.891 242.874 131.977 241.158 131.86C241.318 132.685 241.108 132.383 241.746 132.837C243.287 132.643 243.887 132.016 245.009 130.95C245.818 130.251 246.16 130.011 246.776 129.16L246.657 128.906C245.676 129.25 245.262 129.82 244.53 130.566ZM228.433 107.507C229.277 107.053 230.365 106.603 230.889 105.85L230.897 105.541C229.941 105.963 229.034 106.228 228.4 107.014L228.433 107.507ZM320.722 181.536C321.437 181.187 322.067 180.877 322.76 180.487L322.735 180.163L322.232 179.953C321.237 180.527 321.032 180.582 320.317 181.441L320.472 181.642L320.722 181.536ZM258.292 129.504L260.037 128.629L260.02 128.349L259.12 128.183C258.28 128.753 258.1 128.803 257.602 129.644L257.85 129.732L258.292 129.504ZM343.81 169.989L342.8 170.461L342.82 170.677L344.04 170.832L344.947 170.295L344.935 170.069L343.81 169.989ZM330.697 144.367C329.987 145.039 329.632 145.254 329.302 146.136C329.607 146.415 329.45 146.379 329.72 146.385C330.13 145.878 330.95 145.041 331.025 144.507L330.697 144.367ZM272.925 190.711C272.135 191.306 269.595 192.916 269.405 193.498L269.545 193.779C270.55 193.155 272.397 192.088 273.187 191.316L273.2 190.929L272.925 190.711ZM302.682 164.018C302.062 164.423 300.925 165.02 300.682 165.641L300.89 165.774C301.692 165.345 302.33 165.116 302.847 164.382C302.792 164.261 302.737 164.14 302.682 164.018ZM158.364 170.44C157.804 171.588 157.627 171.487 157.721 172.563L158.045 172.896C158.27 172.18 158.849 171.042 158.364 170.44ZM137.937 159.001C136.831 159.373 136.612 159.423 135.714 160.15L135.709 160.398L135.89 160.405C136.712 160.104 137.45 159.827 138.258 159.488L138.249 159.177L137.937 159.001ZM190.28 135.093C189.181 135.684 188.295 136.075 187.394 136.941L187.335 137.867L187.475 137.929L187.768 137.634C188.743 136.656 189.223 136.186 190.569 135.707C191.732 135.267 192.007 135.246 192.857 134.401L192.831 134.085C191.903 134.05 191.119 134.628 190.28 135.093ZM285.975 98.2106C285.302 98.8501 283.867 99.9644 283.722 100.686L283.912 100.822C284.772 100.276 285.852 99.5226 286.202 98.5249L285.975 98.2106ZM318.702 159.308C317.455 159.562 316.737 159.638 315.59 160.215L315.38 160.556L315.482 160.64C316.527 160.422 317.982 160.218 318.86 159.702L318.83 159.391L318.702 159.308ZM274.022 200.366C273.132 200.481 272.1 200.535 271.317 200.932C271.505 201.313 271.36 201.198 271.712 201.323C272.62 201.274 273.522 201.301 274.35 200.945L274.397 200.614L274.022 200.366ZM302.46 187.265C301.537 187.652 301.59 187.463 301.11 188.154C301.687 188.342 301.702 188.274 302.31 188.121C303.417 188.032 303.427 188.218 304.132 187.649C303.62 187.209 303.237 187.268 302.46 187.265ZM316.697 142.949C315.895 143.592 314.737 144.575 314.395 145.579L314.7 145.822C315.302 145.164 316.755 143.82 316.872 143.126L316.697 142.949ZM207.168 108.669C206.108 109.517 205.489 109.96 204.618 111.032L204.605 111.426L204.919 111.314C205.772 110.62 207.332 109.675 207.656 108.923L207.168 108.669ZM287.945 193.366C287.367 194.732 286.602 196.34 286.327 197.756L286.552 197.913L286.747 197.877C287.157 197.019 288.41 194.275 288.205 193.464L287.945 193.366ZM274.527 116.752C273.105 117.91 271.712 118.858 270.9 120.51L271.107 120.757C271.82 120.038 274.497 117.606 274.682 116.932L274.527 116.752ZM143.801 205.001C143.058 205.261 140.753 205.895 140.507 206.312L141.01 206.869C142.299 206.79 143.246 206.341 144.1 205.355L143.999 205.066L143.801 205.001Z" fill="#97918A"/>
<path d="M204.959 139.945C199.132 146.439 195.987 154.08 192.865 162.134C192.184 163.89 191.037 164.292 190.93 165.869C190.777 168.108 190.228 169.403 189.576 171.485C190.074 171.524 190.052 170.917 191.004 170.752C191.2 171.252 191.198 171.004 191.028 171.497L190.772 171.661C183.646 176.317 189.681 184.95 184.523 187.678C183.857 187.469 183.537 186.947 183.214 186.359C182.629 185.296 182.222 184.223 182.164 183.007C181.961 178.806 185.045 168.558 186.437 164.23C188.868 156.674 197.625 132.708 204.005 129.595C205.177 129.023 206.821 129.342 207.983 129.775C210.068 130.552 212.146 133.535 212.95 135.55C213.963 138.086 214.515 140.975 215.226 143.621C216.762 149.335 218.317 154.976 219.672 160.742C220.216 163.053 220.441 165.438 221.018 167.741C221.855 171.074 223.638 174.058 224.61 177.336C227.136 170.088 232.966 148.241 239.889 144.717C241.488 143.903 243.223 143.891 244.906 144.464C247.346 145.294 253.658 153.342 255.328 155.769C257.585 159.048 259.515 162.641 261.91 165.81C263.16 167.464 264.84 168.692 266.2 170.237C267.06 171.212 267.835 172.542 268.858 173.316C269.655 173.919 270.913 174.299 271.86 174.616C274.088 167.279 276.665 153.942 282.87 149.113C287.765 148.483 289.563 149.692 292.565 153.692C294.015 155.623 294.92 158.023 296.245 160.043C297.663 162.751 303.76 171.764 304.578 174.163C304.878 175.11 305.165 176.202 305.638 177.059L305.76 177.32C308.965 184.047 311.115 183.252 311.028 191.755C306.24 190.388 306.705 189.353 303.46 186.625C298.315 182.296 296.818 180.139 293.078 174.664L292.695 174.023C291.268 168.384 289.178 169.413 286.42 164.922L285.57 164.416C284.228 165.117 283.16 165.614 282.168 166.819L281.95 164.974C281.038 169.266 279.855 173.496 278.408 177.638C277.843 179.26 276.398 182.567 276.11 183.902L272.2 186.726C270.32 186.793 268.77 186.8 266.89 186.745C261.958 181.316 258.198 183.151 255.06 174.687C253.395 173.05 251.105 169.116 249.817 166.995C249.134 166.168 248.1 165.118 247.567 164.231C246.434 162.346 245.95 161.117 244.44 159.469L243.966 158.953C242.487 158.462 241.263 157.952 239.828 157.353C236.626 160.789 231.495 181.149 230.311 186.541C228.313 188.469 226.986 189.823 224.647 191.36C219.707 189.712 218.323 190.002 218.214 184.096C213.698 181.976 216.028 182.415 215.441 178.717C214.811 174.742 211.8 169.977 212.111 165.881C212.233 164.605 212.44 164.548 212.053 163.255C211.44 162.504 211.104 162.25 210.354 161.617C210.195 158.739 209.696 153.693 208.699 151.091C206.805 146.148 205.865 145.267 204.959 139.945Z" fill="#4B4746"/>
<path d="M333.4 296.665C334.445 296.568 334.968 297.242 335.945 297.022C340.25 296.055 341.528 301.577 341.83 304.792C342.078 307.432 342.405 310.225 342.933 312.87C343.728 316.85 346.028 320.897 346.253 324.947C346.32 328.982 348.68 332.435 350.245 336.093C355.603 348.945 363.138 360.367 371.365 371.51C374.348 375.112 377.497 377.323 377.787 382.383C378.315 391.558 375.802 394.365 367.505 397.617C365.01 398.912 361.513 399.278 359.043 400.405C353.271 403.04 349.47 405.313 342.963 406.048C340.15 404.843 337.47 402.378 334.997 400.463C334.665 403.81 334.075 409.372 330.553 410.515C325.488 412.157 318.905 413.365 313.695 414.27C312.45 414.622 308.5 415.065 307.335 415.032C303.502 414.922 303.7 402.207 303.438 399.26C303.328 398.037 304.593 391.396 304.088 390.715L303.515 390.987C302.929 390.703 299.605 386.198 298.385 385.07C295.652 382.288 292.993 380.187 289.7 378.14C283.523 374.297 273.897 374.608 267.93 370.803C267.512 368.86 266.272 363.81 265.46 362.35C265.965 360.939 266.887 358.052 267.912 357.104C272.295 353.06 278.035 351.748 283.12 349.455C287.435 347.203 291.965 345.235 296.188 342.808C301.025 340.098 304.497 334.91 308.362 331.362C314.05 326.142 316.818 322.675 320.183 315.782C321.418 313.257 324.185 309.537 325.745 306.955C327.56 303.95 330.613 298.503 333.4 296.665ZM325.047 404.247H325.048L324.968 404.013L325.047 404.247ZM368.242 394.487H368.243H368.242ZM361.662 391.229V391.23V391.229ZM338.265 365.581H338.266H338.265ZM339.447 362.457V362.458V362.457ZM314.113 358.416C314.074 358.438 314.035 358.462 313.997 358.486C314.074 358.437 314.153 358.392 314.235 358.354L314.113 358.416ZM331.226 338.475H331.225H331.226ZM334.365 324.354V324.355V324.354ZM327.075 208.591C326.48 209.718 324.511 209.326 323.373 209.73C322.526 210.033 321.793 210.403 321.003 210.818L320.785 210.596C320.408 210.463 319.92 210.427 319.513 210.371C319.75 209.946 321.907 209.713 322.558 209.556C324.043 209.198 325.33 208.779 326.76 208.261L327.075 208.591ZM127.648 207.337L127.769 207.538C126.997 208.465 124.663 208.584 123.488 209.538C123.16 209.805 121.8 210.431 121.35 210.639L121.147 210.635L120.978 210.451C123.613 208.402 124.324 207.852 127.459 207.326L127.648 207.337ZM305.55 202.818C305.697 202.868 305.822 203.07 305.952 203.224L305.777 203.637C303.143 205.067 301.027 206.522 298.647 208.313L298.415 208.35L298.48 207.886C300.435 205.335 302.683 204.095 305.55 202.818ZM143.999 205.066L144.101 205.355C143.247 206.341 142.299 206.79 141.011 206.869L140.508 206.312C140.754 205.895 143.058 205.261 143.802 205.001L143.999 205.066ZM189.953 204.089C190.968 203.13 193.72 200.535 194.883 201.988L194.65 202.336C193.033 202.331 190.799 203.655 190.028 205.021C188.968 205.606 187.909 206.083 186.657 205.872C187.176 205.293 189.081 204.537 189.953 204.089ZM215.302 199.989C217.192 199.306 217.95 200.895 218.983 202.28L219.095 202.885C218.377 203.774 218.325 203.906 217.365 204.467L217.104 204.409C217.258 203.725 217.225 203.732 217.6 203.152C217.209 201.159 216.5 201.823 215.076 200.93L214.977 200.487L215.302 199.989ZM136.624 200.184C136.754 200.607 136.705 200.514 136.675 200.986C136.005 201.966 135.258 202.345 134.268 203.011L134.22 202.895C134.436 202.169 135.873 201.016 136.624 200.184ZM274.397 200.614L274.35 200.945C273.522 201.301 272.619 201.274 271.712 201.322C271.36 201.197 271.505 201.313 271.317 200.932C272.1 200.534 273.132 200.481 274.022 200.365L274.397 200.614ZM123.924 198.367C122.815 198.671 122.632 198.692 121.482 198.667L121.364 198.457C122.143 198.167 122.492 198.135 123.295 198.009L123.924 198.367ZM129.094 194.491C128.722 195.191 128.149 195.453 127.472 195.897C126.394 197.018 125.286 197.623 123.925 198.367L123.295 198.009L123.914 197.617C125.453 196.662 125.483 196.656 126.76 195.357C127.609 194.684 127.726 194.615 128.768 194.322L129.094 194.491ZM288.205 193.464C288.41 194.275 287.158 197.02 286.748 197.877L286.553 197.913L286.328 197.756C286.603 196.34 287.368 194.732 287.945 193.366L288.205 193.464ZM192.179 191.169L191.738 191.613C190.235 193.181 187.743 196.415 185.301 195.449L185.066 195.056C188.426 195.156 187.481 194.682 189.843 192.66C190.477 191.634 190.801 191.34 191.897 190.954L192.179 191.169ZM273.2 190.929L273.188 191.315C272.398 192.088 270.55 193.154 269.545 193.778L269.405 193.497C269.597 192.915 272.135 191.305 272.925 190.711L273.2 190.929ZM325.101 189.24C325.168 189.239 331.8 189.621 332.067 189.695L332.117 190.42L331.482 190.46C329.02 189.179 325.823 191.97 325.101 189.24ZM271.5 187.506C271.93 187.519 276.213 188.882 276.798 189.222L276.643 189.403C274.685 189.02 273.038 190.597 271.5 187.506ZM302.46 187.265C303.237 187.268 303.62 187.209 304.133 187.649C303.428 188.218 303.417 188.032 302.31 188.121C301.703 188.274 301.687 188.342 301.11 188.153C301.59 187.463 301.538 187.652 302.46 187.265ZM124.801 185.014C125.531 185.29 125.271 185.061 125.679 185.631C125.239 186.306 123.078 186.902 122.139 187.232C121.879 187.334 122.039 187.299 121.646 187.258C121.981 186.287 123.869 185.446 124.801 185.014ZM158.542 180.832C158.747 181.877 157.063 184.289 157.845 185.826C158 186.13 158.029 186.558 157.882 186.934C157.619 185.708 157.197 185.542 156.308 184.509C156.81 183.406 157.611 181.522 158.542 180.832ZM288.818 182.087C289.755 181.887 290.849 181.74 291.545 182.21C291.597 183.65 289.907 184.276 288.742 184.692C287.825 184.476 288.235 184.688 287.538 183.912H287.537C286.715 184.232 286.722 184.282 285.811 184.205C285.953 183.553 287.353 182.702 287.955 182.283L288.818 182.087ZM322.735 180.163L322.76 180.486C322.067 180.876 321.438 181.187 320.723 181.536L320.473 181.642L320.317 181.441C321.032 180.582 321.238 180.528 322.232 179.953L322.735 180.163ZM138.284 176.468C138.5 176.548 138.362 176.479 138.631 176.776C138.319 177.468 137.559 177.868 136.908 178.317L136.354 178.065C136.692 177.349 137.526 176.977 138.284 176.468ZM304.578 174.163C305.588 174.239 305.678 174.219 306.58 174.626L306.878 175.087C306.495 176.604 306.26 175.746 305.638 177.059C305.165 176.202 304.878 175.11 304.578 174.163ZM249.817 166.995C251.898 168.628 255.9 171.502 255.061 174.687C253.396 173.049 251.105 169.116 249.817 166.995ZM289.228 173.47C290.615 173.11 291.308 173.511 292.695 174.023L293.077 174.663C290.31 174.339 291.82 173.848 288.605 174.408L288.63 173.984L289.228 173.47ZM158.364 170.439C158.849 171.041 158.271 172.18 158.046 172.896L157.722 172.563C157.627 171.487 157.804 171.588 158.364 170.439ZM205.661 169.676C205.804 170.122 205.745 170.122 205.731 170.621C205.229 171.65 204.534 172.035 203.612 172.739C203.592 171.952 204.983 170.715 205.661 169.676ZM344.935 170.069L344.947 170.295L344.04 170.832L342.82 170.677L342.8 170.461L343.81 169.989L344.935 170.069ZM284.303 162.806C285.093 163.19 285.16 163.375 285.67 164.071L285.57 164.416L286.42 164.922C285.402 165.403 283.075 167.119 282.362 167L282.168 166.818L281.95 164.975C282.38 163.443 282.65 162.829 284.303 162.806ZM302.848 164.382C302.33 165.116 301.693 165.345 300.891 165.774L300.683 165.641C300.925 165.02 302.063 164.423 302.683 164.019C302.738 164.14 302.793 164.261 302.848 164.382ZM207.061 155.584C205.855 158.095 204.725 157.728 204.512 160.768L204.526 160.918C204.577 161.65 204.263 162.086 203.618 162.436L202.988 161.959C202.258 162.161 201.523 162.348 200.784 162.519C201.408 161.689 202.187 161.289 203.066 160.717L203.32 160.347C204.517 158.488 204.665 156.532 206.676 155.541L207.061 155.584ZM318.83 159.392L318.86 159.702C317.983 160.219 316.527 160.422 315.482 160.64L315.38 160.556L315.59 160.215C316.737 159.638 317.455 159.562 318.702 159.308L318.83 159.392ZM138.249 159.177L138.258 159.487C137.451 159.827 136.713 160.104 135.891 160.404L135.71 160.397L135.715 160.15C136.613 159.424 136.832 159.373 137.938 159.001L138.249 159.177ZM241.043 156.03C242.814 156.069 243.816 157.225 243.966 158.953C242.487 158.462 241.263 157.952 239.828 157.353C240.424 156.343 240.158 156.445 241.043 156.03ZM307.055 150.37C307.187 151.476 305.87 153.145 304.888 153.39L304.603 153.14C304.3 152.157 303.845 152.046 303.59 150.821L303.822 150.712C305.397 151.125 305.432 151.146 306.524 150.065L307.055 150.37ZM331.025 144.507C330.95 145.041 330.131 145.877 329.721 146.385C329.451 146.379 329.608 146.415 329.303 146.136C329.633 145.254 329.988 145.039 330.698 144.367L331.025 144.507ZM316.872 143.126C316.755 143.82 315.303 145.163 314.7 145.821L314.396 145.578C314.738 144.575 315.895 143.593 316.697 142.949L316.872 143.126ZM289.976 140.106C291.528 140.766 290.83 143.187 289.657 144.137C288.765 143.436 289.052 143.86 288.66 142.895C288.728 141.851 289.398 141.032 289.976 140.106ZM192.857 134.401C192.008 135.247 191.733 135.267 190.569 135.707C189.224 136.186 188.744 136.657 187.769 137.634L187.476 137.929L187.336 137.866L187.395 136.941C188.296 136.075 189.181 135.684 190.28 135.093C191.12 134.628 191.904 134.05 192.832 134.085L192.857 134.401ZM246.776 129.16C246.16 130.011 245.818 130.25 245.009 130.948L245.01 130.949C243.888 132.016 243.287 132.643 241.746 132.837C241.109 132.383 241.319 132.685 241.159 131.859C242.875 131.976 243.048 131.891 244.312 130.765L244.53 130.566L245.033 130.04C245.504 129.549 245.922 129.164 246.657 128.906L246.776 129.16ZM260.021 128.349L260.037 128.629L258.293 129.504L257.85 129.731L257.603 129.645C258.1 128.803 258.28 128.753 259.12 128.183L260.021 128.349ZM179.483 120.22C179.538 120.909 179.2 121.308 178.769 121.785L177.481 123.207L177.422 122.601C177.931 121.522 178.605 121.035 179.483 120.22ZM274.683 116.932C274.497 117.606 271.82 120.038 271.107 120.757L270.9 120.51C271.713 118.858 273.105 117.91 274.527 116.752L274.683 116.932ZM207.656 108.923C207.332 109.675 205.773 110.62 204.92 111.314L204.605 111.426L204.619 111.032C205.49 109.96 206.109 109.517 207.169 108.669L207.656 108.923ZM174.224 109.104C175.025 109.452 175.783 109.692 176.373 110.321L176.25 110.581C173.377 111.008 173.989 111.31 171.375 110.029C172.233 109.455 173.075 108.824 174.022 108.434L174.224 109.104ZM230.89 105.85C230.365 106.602 229.277 107.054 228.434 107.507L228.4 107.015C229.034 106.228 229.941 105.963 230.897 105.541L230.89 105.85ZM315.535 104.835C313.023 104.32 313.238 105.383 311.061 105.778L311.146 105.367C311.875 104.561 312.333 104.187 312.665 103.131L315.535 104.835ZM286.203 98.5244C285.853 99.522 284.773 100.276 283.913 100.821L283.723 100.686C283.868 99.9638 285.303 98.8503 285.976 98.2109L286.203 98.5244ZM266.633 92.791C267.535 93.3517 267.97 93.6352 268.777 94.3174C270.347 94.0369 271.663 94.1032 273.25 94.1182C272.842 94.9927 271.697 97.7068 271.085 98.2168C270.255 96.5854 270.871 95.7204 269.417 94.9014L269.098 94.7373C266.828 95.239 264.816 96.4901 262.806 96.7715C264.661 95.5448 264.993 94.4582 266.633 92.791ZM235.614 96.4336L235.433 96.8438C234.377 97.5545 233.763 97.6771 232.566 98.0303L232.383 97.8896C232.733 97.3612 234.562 96.682 235.41 96.2363L235.614 96.4336ZM258.655 92.5371C258.875 93.4261 258.853 94.2205 258.165 94.9092C257.418 94.3764 257.342 94.3211 256.475 93.9961L256.28 93.9238C255.165 94.1618 254.515 94.3946 253.393 94.1953L253.45 93.9082C254.648 93.0955 255.813 92.7851 257.183 92.3096C257.288 92.2791 258.113 92.2249 258.28 92.2119L258.655 92.5371ZM239.379 89.1992C240.437 89.4519 241.327 89.4522 241.811 90.2236C241.49 91.0673 240.594 91.5858 239.846 92.1562C239.423 92.4173 239.001 92.5814 238.547 92.7842L238.181 92.6396C238.12 91.9262 239.046 90.0239 239.379 89.1992ZM223.147 88.2246C223.822 88.348 223.817 88.3536 224.438 88.6514L224.557 89.2344C224.162 90.3113 223.243 91.1415 222.445 92.0137C221.792 90.7812 221.164 90.5608 221.173 89.5293C221.864 88.9134 222.337 88.6881 223.147 88.2246Z" fill="#97918A"/>
</g>
<defs>
<clipPath id="clip0_79_8844">
<rect width="480" height="480" fill="white"/>
</clipPath>
</defs>
</svg>
