<svg width="480" height="480" viewBox="0 0 480 480" fill="none" xmlns="http://www.w3.org/2000/svg">
<g clip-path="url(#clip0_64_603)">
<path fill-rule="evenodd" clip-rule="evenodd" d="M234.125 110.603C241.555 108.252 248.194 108.212 255.872 108.654C261.399 108.973 266.824 111.58 272.524 110.946C273.824 110.802 277.671 112.698 279.387 112.924C293.362 114.765 306.602 117.635 318.062 126.365C319.642 127.566 321.949 127.959 323.869 129.538L324.354 130.693L323.87 129.539C325.292 130.224 328.072 131.837 329.337 132.334L329.634 132.419C332.729 133.398 336.509 137.576 338.677 139.778C340.279 141.406 343.194 142.948 344.587 144.699C348.877 150.092 351.389 156.535 355.489 162.109V162.476C355.509 165.787 357.924 167.936 359.592 170.693C360.777 172.386 361.504 174.915 362.609 176.552C368.007 184.527 371.132 191.374 373.114 200.792C374.157 205.741 375.397 206.725 375.792 212.379C376.284 219.483 376.927 226.177 376.257 233.357C376.084 236.88 375.04 241.175 374.64 244.701C374.237 248.258 374.857 252.402 374 255.886C371.955 264.194 369.684 272.095 366.127 279.907C365.462 281.369 364.262 284.927 363.54 286.099C361.172 289.892 359.157 293.839 356.675 297.559C355.797 298.874 355.167 301.512 354.144 302.697C351.212 306.092 348.312 309.552 345.43 312.992C344.372 314.252 342.44 315.307 341.335 316.567C339.432 318.572 337.167 321.802 335.217 323.649C328.904 329.632 321.749 335.8 314.274 340.25C312.017 341.595 307.549 342.727 304.979 343.594C300.817 344.999 296.981 345.75 292.722 346.675C290.912 347.07 289.027 348.352 286.425 348.907C283.247 349.589 278.932 348.979 276.177 349.994C275.287 350.324 274.974 353.125 274.891 354.21C274.627 357.725 276.894 366.547 274.507 368.952L274.349 369.109V369.392C269.024 371.492 252.564 370.017 246.492 369.444C241.979 369.299 237.126 369.117 232.667 368.639C231.621 368.527 223.808 366.237 223.348 365.864C222.686 361.479 223.279 352.487 223.794 347.857C218.522 347.12 215.663 344.909 211.105 343.297C209.77 342.822 208.277 342.65 206.901 342.3C202.183 341.092 201.959 338.244 198.62 335.779C196.446 334.174 193.301 333.769 190.979 332.247C189.626 331.359 188.951 329.619 187.68 328.614C186.551 327.724 185.054 327.412 183.891 326.567C178.767 322.845 169.889 315.642 166.806 310.242C166.273 310.433 166.049 310.457 165.655 310.467L165.187 310.477C162.414 316.805 156.369 320.365 151.227 324.844C145.21 329.462 138.075 330.097 130.971 328.804C116.016 326.079 106.312 317.634 101.171 303.469C98.6838 296.617 98.5426 284.845 101.401 278.17C103.851 272.45 108.783 264.712 113.751 260.889C120.899 255.749 130.045 250.81 139.131 252.032C138.174 247.56 137.517 241.658 137.276 237.109C137.099 233.75 137.744 229.688 137.505 226.252C135.599 198.897 146.39 171.432 163.082 150.111C165.596 146.9 168.409 144.186 171.336 141.355C180.36 130.322 193.535 124.542 205.728 117.772C207.847 116.947 210 116.121 212.184 115.485C218.38 113.683 224.496 111.923 230.818 110.602C231.752 110.373 233.265 110.875 234.125 110.603ZM288.787 340.344L288.659 341.017L289.239 341.8V341.799L288.66 341.016L288.787 340.344ZM289.382 339.8C289.258 339.889 289.139 339.988 289.025 340.096C289.091 340.035 289.157 339.975 289.225 339.92C289.277 339.878 289.329 339.838 289.383 339.8H289.382ZM165.223 308.423C165.24 308.582 165.253 308.741 165.262 308.903C165.253 308.741 165.24 308.581 165.223 308.422V308.423ZM252.016 308.331C252.059 308.311 252.1 308.29 252.137 308.267L252.135 308.266C252.098 308.289 252.058 308.311 252.016 308.331ZM187.53 305.19C187.545 305.24 187.575 305.267 187.651 305.344C187.595 305.287 187.564 305.257 187.545 305.226C187.538 305.215 187.534 305.203 187.53 305.19ZM286.496 303.214C286.41 303.27 286.324 303.327 286.239 303.386H286.24C286.409 303.268 286.582 303.156 286.758 303.05L286.496 303.214ZM287.569 302.606H287.57H287.569ZM250.192 301.354C250.041 301.426 249.898 301.493 249.763 301.552C249.648 301.566 249.541 301.578 249.439 301.588C249.541 301.578 249.649 301.567 249.764 301.552L250.112 301.394C250.139 301.382 250.165 301.367 250.192 301.354ZM250.572 301.17C250.808 301.053 251.058 300.927 251.314 300.795H251.313C251.057 300.927 250.808 301.053 250.572 301.17ZM267.559 293.77C267.543 293.778 267.527 293.786 267.512 293.794C267.527 293.786 267.543 293.778 267.559 293.77ZM301.49 289.667L301.782 289.84L301.491 289.667C301.395 289.608 301.301 289.547 301.209 289.484C301.301 289.547 301.394 289.608 301.49 289.667ZM301.031 281.397C301.151 281.493 301.265 281.6 301.369 281.724L301.364 282.292L301.365 282.291L301.37 281.724C301.318 281.662 301.263 281.604 301.207 281.55C301.151 281.495 301.092 281.445 301.032 281.397C300.972 281.349 300.909 281.305 300.846 281.262L301.031 281.397ZM287.938 281.301C287.896 281.395 287.865 281.49 287.849 281.582L288.222 281.802V281.801L287.849 281.582C287.857 281.536 287.87 281.489 287.885 281.442C287.9 281.395 287.918 281.348 287.939 281.301H287.938ZM345.805 272.226C345.673 272.222 345.589 272.224 345.53 272.224C345.589 272.224 345.673 272.223 345.805 272.227C345.993 272.184 346.171 272.145 346.343 272.107C346.171 272.145 345.993 272.183 345.805 272.226ZM345.343 272.182C345.359 272.193 345.373 272.2 345.386 272.206C345.373 272.2 345.359 272.193 345.343 272.182ZM345.097 272.01C345.214 272.089 345.28 272.139 345.325 272.171C345.28 272.139 345.214 272.088 345.098 272.01H345.097ZM154.893 261.368C154.922 261.394 154.952 261.417 154.981 261.438C154.922 261.395 154.864 261.344 154.807 261.282L154.893 261.368ZM326.212 260.437L326.215 260.652L327.529 261.022V261.021L326.215 260.652L326.212 260.436V260.437ZM340.195 255.941C340.115 255.987 340.033 256.036 339.949 256.09H339.95C340.034 256.036 340.116 255.986 340.195 255.941ZM340.667 255.709C340.522 255.769 340.373 255.841 340.216 255.929C340.373 255.841 340.522 255.769 340.667 255.709ZM340.881 255.629C340.818 255.65 340.754 255.673 340.69 255.699C340.754 255.673 340.818 255.65 340.881 255.629ZM331.871 255.52C331.79 255.557 331.71 255.595 331.632 255.634C331.711 255.595 331.79 255.557 331.871 255.52ZM341.046 255.58C341 255.593 340.953 255.605 340.907 255.62C340.953 255.605 341 255.593 341.046 255.58ZM341.251 255.525C341.234 255.529 341.217 255.534 341.2 255.538C341.276 255.52 341.351 255.504 341.428 255.491L341.251 255.525ZM343.064 255.349H343.065L344.275 255.182L344.274 255.181L343.064 255.349ZM164.954 247.181C164.873 247.23 164.792 247.279 164.71 247.33C164.792 247.279 164.873 247.23 164.954 247.181ZM165.512 246.856C165.374 246.934 165.23 247.017 165.084 247.103C165.23 247.017 165.374 246.934 165.512 246.856ZM184.894 230.429C184.94 230.438 184.988 230.445 185.038 230.45H185.039C184.989 230.445 184.941 230.438 184.894 230.429ZM184.75 230.394C184.783 230.405 184.819 230.413 184.855 230.421C184.819 230.413 184.783 230.405 184.75 230.394ZM184.609 230.341C184.646 230.359 184.686 230.375 184.728 230.388C184.686 230.375 184.646 230.359 184.609 230.341L184.923 229.849H184.922L184.609 230.341ZM213.317 228.473C213.231 228.482 213.156 228.49 213.092 228.499C213.156 228.49 213.231 228.483 213.317 228.474C213.492 228.424 213.689 228.371 213.895 228.315L213.317 228.473ZM213.28 227.823C212.976 227.928 212.682 228.088 212.197 228.398H212.198C212.683 228.088 212.977 227.928 213.28 227.823ZM186.13 222.386L186.162 222.381L186.494 222.589L186.162 222.38C186.151 222.382 186.14 222.384 186.13 222.386ZM324.079 216.63L324.5 216.821V216.82L324.08 216.63C324.096 216.594 324.114 216.56 324.136 216.527L324.079 216.63ZM179.171 213.144C179.179 213.187 179.187 213.229 179.197 213.271C179.187 213.229 179.178 213.187 179.171 213.144ZM179.145 212.984C179.15 213.016 179.155 213.046 179.16 213.077C179.153 213.03 179.145 212.983 179.14 212.934L179.145 212.984ZM179.088 212.379C179.084 212.338 179.081 212.296 179.077 212.254C179.066 212.139 179.054 212.016 179.038 211.885H179.037C179.06 212.065 179.075 212.229 179.088 212.379ZM204.483 208.103C204.537 208.151 204.595 208.196 204.654 208.237L204.484 208.103C204.612 208.095 204.752 208.087 204.9 208.082C204.752 208.087 204.611 208.095 204.483 208.103ZM168.58 192.528C168.42 192.721 168.325 192.952 168.2 193.407H168.201C168.292 193.075 168.367 192.863 168.463 192.697C168.498 192.636 168.537 192.58 168.58 192.528ZM168.658 192.442C168.64 192.461 168.621 192.479 168.604 192.499C168.621 192.479 168.64 192.461 168.658 192.442ZM168.849 192.268C168.827 192.286 168.806 192.305 168.786 192.322C168.835 192.28 168.889 192.236 168.948 192.189C168.913 192.217 168.88 192.243 168.849 192.268ZM330.148 186.019C330.149 186.038 330.152 186.053 330.157 186.068C330.152 186.053 330.149 186.037 330.148 186.018V186.019ZM277.757 172.756H277.758C277.934 172.738 278.07 172.72 278.183 172.707H278.182C278.069 172.72 277.933 172.738 277.757 172.756ZM342.881 169.317V169.318V169.317ZM303.777 168.851C303.565 168.934 303.359 169.022 303.171 169.114C303.234 169.083 303.299 169.053 303.365 169.023C303.498 168.964 303.637 168.907 303.778 168.851H303.777ZM342.637 168.264C342.545 168.42 342.471 168.545 342.398 168.661C342.471 168.545 342.546 168.42 342.638 168.264H342.637ZM343.67 168.785V168.786V168.785ZM305.364 168.288C305.157 168.365 304.902 168.451 304.628 168.545C304.902 168.451 305.158 168.365 305.365 168.288L305.51 168.269L305.364 168.288ZM310.182 168.447H310.182C310.215 168.404 310.251 168.361 310.29 168.319H310.289C310.25 168.361 310.214 168.404 310.182 168.447ZM262.611 148.748C262.274 148.888 262.087 149.016 261.739 149.493C261.797 149.515 261.853 149.532 261.909 149.546C261.854 149.532 261.797 149.515 261.74 149.493C262.088 149.016 262.275 148.888 262.612 148.748H262.611ZM263.449 148.405C263.323 148.462 263.211 148.509 263.109 148.551L263.45 148.405L263.639 148.192C263.58 148.256 263.517 148.326 263.449 148.405ZM264.882 147.261C264.71 147.368 264.569 147.454 264.445 147.532C264.569 147.454 264.711 147.368 264.883 147.261H264.882ZM281.633 144.961C281.642 144.956 281.65 144.951 281.659 144.946C281.65 144.951 281.642 144.956 281.633 144.961ZM311.975 135.206C312.039 135.221 312.104 135.238 312.169 135.257L311.976 135.206C311.913 135.191 311.85 135.178 311.788 135.167L311.975 135.206ZM310.75 134.915C310.933 134.974 311.147 135.038 311.432 135.126H311.432C311.148 135.038 310.933 134.974 310.75 134.915ZM323.301 131.911C322.538 132.643 321.585 133.56 320.962 135.117C321.086 134.806 321.225 134.52 321.372 134.257C321.445 134.125 321.521 133.998 321.599 133.877C322.141 133.027 322.767 132.424 323.301 131.911ZM310.502 134.827C310.564 134.851 310.629 134.874 310.698 134.897C310.629 134.874 310.564 134.851 310.502 134.827ZM310.251 134.72C310.314 134.75 310.375 134.777 310.438 134.803C310.375 134.777 310.314 134.75 310.251 134.72ZM309.489 134.265C309.693 134.402 309.856 134.506 310.001 134.59C309.929 134.548 309.852 134.501 309.768 134.448C309.684 134.394 309.592 134.334 309.49 134.265H309.489ZM327.919 132.225C328.078 132.246 328.267 132.266 328.457 132.283C328.267 132.266 328.078 132.246 327.919 132.225Z" fill="#EDC183"/>
<path fill-rule="evenodd" clip-rule="evenodd" d="M219.089 365.133C220.574 365.438 222.307 366.295 223.348 365.865C223.807 366.238 231.62 368.527 232.667 368.64C237.126 369.117 241.979 369.3 246.493 369.445C252.565 370.018 269.024 371.492 274.349 369.393V369.11C278.342 369.24 280.932 369.947 284.495 370.47C295.275 372.05 301.537 375.983 307.39 385.362C310.194 389.86 313.172 394.2 312.689 400.112C312.514 402.517 312.547 406.91 311.269 408.902C308.629 412.947 306.357 418.355 303.072 421.805C299.312 425.755 294.912 425.317 290.015 425.527C280.255 425.942 270.629 425.12 260.859 425.367C258.559 425.425 255.277 424.53 252.88 424.522C247.678 425.457 243.882 425.875 238.565 425.463C234.977 425.185 233.364 425.99 229.654 424.308C227.23 424.82 220.57 425.292 218.307 424.562C213.224 422.923 211.347 423.79 206.223 424.305C201.497 424.779 196.948 424.383 192.281 423.711L190.273 423.407C188.925 423.192 186.907 421.558 185.703 420.708C181.356 417.348 177.984 414.97 179.479 409.255C179.565 408.927 179.324 406.777 179.384 406.077C180.881 388.39 194.796 379.683 208.567 371.378C212.537 368.961 214.686 367.195 219.089 365.133ZM219.627 419.787V419.788V419.787ZM279.759 420.76C279.655 420.835 279.569 420.893 279.504 420.934C279.569 420.893 279.655 420.835 279.759 420.76ZM248.447 419.777H248.448H248.447ZM189.242 417.115C188.863 417.527 188.477 417.919 188.087 418.308C188.477 417.919 188.863 417.527 189.242 417.115ZM299.873 418.807H299.874H299.873ZM264.152 418.221C263.867 418.322 263.578 418.415 263.332 418.51C263.579 418.415 263.867 418.322 264.152 418.221ZM262.632 418.41H262.633H262.632ZM265.082 417.801C265.057 417.817 265.032 417.832 265.006 417.848C265.073 417.807 265.136 417.766 265.193 417.722L265.082 417.801ZM193.808 416.438L193.807 416.438L193.808 416.438ZM246.608 414.283H246.609H246.608ZM219.108 412.742H219.109H219.108ZM217.062 409.809C217.115 409.811 217.167 409.812 217.219 409.812C217.167 409.812 217.115 409.811 217.062 409.809ZM213.944 409.073H213.945H213.944ZM213.808 409.557V409.558L213.907 409.495L213.808 409.557ZM214.627 409.463C214.551 409.461 214.474 409.46 214.395 409.462C214.474 409.46 214.551 409.461 214.627 409.463ZM216.572 408.147H216.571C216.233 408.183 215.927 408.226 215.643 408.285C215.927 408.226 216.234 408.183 216.572 408.147ZM288.777 390.338C288.824 390.407 288.875 390.468 288.929 390.522C288.875 390.468 288.824 390.406 288.777 390.337V390.338ZM194.042 386.495V386.496V386.495ZM194.511 385.052C193.892 385.448 193.309 385.845 192.807 386.361C192.919 386.246 193.035 386.138 193.154 386.033C193.571 385.668 194.031 385.36 194.512 385.052H194.511ZM198.33 382.675V382.676V382.675ZM232.26 379.568V379.567V379.568ZM217.694 372.958C217.807 372.958 217.902 372.96 217.982 372.964C217.902 372.96 217.807 372.957 217.694 372.957C217.615 372.942 217.538 372.929 217.463 372.919C217.538 372.929 217.615 372.943 217.694 372.958ZM218.844 372.718C218.651 372.874 218.569 372.947 218.493 372.977C218.569 372.947 218.651 372.874 218.844 372.718Z" fill="#4B4746"/>
</g>
<defs>
<clipPath id="clip0_64_603">
<rect width="480" height="480" fill="white"/>
</clipPath>
</defs>
</svg>
