<svg width="480" height="480" viewBox="0 0 480 480" fill="none" xmlns="http://www.w3.org/2000/svg">
<g clip-path="url(#clip0_64_356)">
<path fill-rule="evenodd" clip-rule="evenodd" d="M255.098 137.738C263.708 136.906 272.381 137.194 281.033 137.253C286.863 137.292 293.244 138.846 298.971 139.862C303.706 140.702 308.465 141.071 313.005 142.813C326.202 148.065 338.385 155.669 349.96 163.832C350.56 164.255 351.625 165.286 352.112 165.834C355.39 169.518 360.18 172.638 362.608 176.937C364.913 181.026 367.883 184.207 370.51 188.032C371.042 188.823 371.505 191.125 372.005 192.138C379.695 207.83 384.808 224.659 387.143 241.978C387.323 243.307 386.523 244.77 386.745 245.829C387.708 250.397 388.775 253.77 388.49 258.562C388.178 264.352 386.366 269.793 385.078 275.347C383.656 281.48 382.53 287.36 380.245 293.303C377.508 300.525 374.86 307.773 371.593 314.78C370.18 317.662 368.05 320.377 366.603 323.212C364.055 328.202 361.38 334.077 358.03 338.612C354.835 342.937 350.49 347.22 347.273 351.655C346.54 352.665 344.458 353.682 343.533 354.67C338.706 359.66 334.141 363.64 327.981 366.992C325.043 368.589 322.213 371.527 318.923 372.742C309.423 376.972 298.363 379.034 288.021 379.805C285.351 380.005 281.635 378.905 279.758 380.807C278.188 381.977 275.595 380.769 274.17 379.787C268.64 381.352 266.378 381.125 260.651 380.982C259.918 380.962 257.703 381.25 256.651 381.277C256.376 381.135 247.746 380.24 247.283 380.335C239.938 381.842 233.123 375.882 226.623 375.747L227.446 373.047C222.886 372.899 221.718 371.752 218.102 368.987C212.013 370.032 209.206 366.519 203.977 364.327C199.777 363.577 193.061 356.822 190.001 355.755C182.216 353.037 183.2 352.335 178.4 345.655C177.832 344.865 174.719 342.962 173.695 341.832C164.398 331.572 154.455 319.777 150.135 306.43C149.219 303.585 148.863 300.772 147.915 297.945C146.305 297.285 145.924 298.747 144.49 299.484C141.03 301.267 135.806 302.114 131.978 302.769C130.338 303.052 127.726 302.545 126.152 302.63C120.56 302.887 112.51 301.497 107.57 298.782C103.956 296.795 99.1999 293.242 95.7141 290.934C89.4863 286.809 84.688 277.182 83.9348 269.917C82.8811 259.524 83.9962 249.027 87.2101 239.089C89.9951 230.212 93.8254 225.051 99.5988 217.817C102.267 214.474 106.205 212.344 109.782 210.115C111.087 209.302 112.693 208.774 114.069 208.085C118.978 204.796 122.15 205.475 127.468 205.036C136.146 204.319 144.322 204.795 152.168 209.046C153.683 209.866 155.183 211.097 156.6 212.312L157.986 213.507L158.159 213.536C158.998 213.711 159.42 214.34 160.164 214.923H160.165C161.185 211.709 162.629 208.647 163.816 205.627C167.829 195.408 172.817 186.43 181.033 178.951C182.519 177.265 183.869 175.346 185.441 173.744C186.545 172.699 188.296 172.032 189.3 170.905C195.69 163.733 202.389 157.682 210.674 152.523C222.508 145.291 237.179 141.065 250.523 137.448C251.738 137.119 253.71 137.872 255.098 137.738ZM270.754 372.221V372.221V372.221ZM218.82 367.033H218.82H218.82ZM220.689 365.858H220.69H220.689ZM295.295 355.508V355.507V355.508ZM274.182 352.331H274.183H274.182ZM276.313 351.638H276.314H276.313ZM313.169 348C313.097 348.056 313.024 348.105 312.95 348.147C313.024 348.105 313.097 348.056 313.169 348ZM193.353 340.477H193.354H193.353ZM296.517 324.052H296.518H296.517ZM308.957 323.345H308.958H308.957ZM224.201 321.492H224.202H224.201ZM298.742 322.817H298.743H298.742ZM234.674 318.442H234.675H234.674ZM343.22 318.175C343 318.201 342.795 318.222 342.602 318.236C342.795 318.222 343 318.201 343.221 318.175C343.03 318.097 342.846 318.027 342.669 317.963L343.22 318.175ZM341.656 317.66H341.657H341.656ZM236.978 316.91H236.979H236.978ZM286.367 312.529C285.972 312.754 285.591 312.947 285.38 313.072C285.591 312.947 285.972 312.754 286.367 312.529ZM287.741 311.361H287.742L287.75 311.303L287.741 311.361ZM312.569 301.18H312.568H312.569ZM115.268 292.872V292.873V292.872ZM274.398 286.859V286.86V286.859ZM192.793 285.343H192.794L191.612 285.197H191.611L192.793 285.343ZM219.043 283.565H219.044H219.043ZM218.707 282.929V282.93V282.929ZM178.874 281.645H178.875H178.874ZM223.746 281.388V281.389V281.388ZM238.306 280.444H238.305H238.306ZM287.397 277.702V277.701V277.702ZM287.604 277.708V277.709V277.708ZM287.839 277.067H287.84H287.839ZM223.007 269.034C222.911 269.083 222.818 269.135 222.728 269.189C222.818 269.135 222.911 269.083 223.007 269.034ZM118.832 267.492C118.88 267.495 118.927 267.497 118.976 267.498C118.927 267.497 118.88 267.495 118.832 267.492ZM119.422 267.467V267.468V267.467ZM208.678 258.45H208.679H208.678ZM118.872 253.17C118.443 253.618 117.778 254.225 117.13 254.847C116.807 255.158 116.488 255.473 116.205 255.773C116.017 255.973 115.844 256.167 115.697 256.348C116.504 255.348 118.086 253.991 118.872 253.17ZM119.33 252.577C119.314 252.63 119.273 252.698 119.212 252.78C119.273 252.698 119.314 252.63 119.33 252.577ZM141.21 248.065H141.211H141.21ZM142.101 247.16C141.979 247.243 141.864 247.331 141.755 247.425C141.864 247.331 141.979 247.243 142.101 247.16ZM283.618 247.311C283.369 247.386 283.111 247.456 282.845 247.523L282.846 247.524C283.112 247.457 283.369 247.386 283.618 247.311ZM143.077 246.615H143.078H143.077ZM288.272 244.576C288.305 244.604 288.322 244.622 288.33 244.645C288.322 244.622 288.305 244.604 288.272 244.576ZM165.845 231.55H165.846H165.845ZM154.705 222.885V222.886V222.885ZM275.595 219.848L275.665 220.116L275.596 219.848L275.373 219.846L275.595 219.848ZM130.999 217.892V217.891V217.892ZM283.811 209.857C283.713 209.923 283.615 210.012 283.487 210.149C283.615 210.012 283.713 209.923 283.811 209.857ZM371.412 206.328H371.413H371.412ZM192.116 193.764V193.765V193.764ZM341.137 186.169H341.138H341.137ZM342.838 184.755C343.074 184.638 343.299 184.531 343.49 184.432C343.299 184.531 343.074 184.638 342.838 184.755ZM206.851 173.954V173.955V173.954ZM275.532 166.24H275.533H275.532ZM238.797 153.402C238.627 153.494 238.467 153.604 238.308 153.726C238.467 153.604 238.627 153.494 238.797 153.402ZM239.504 153.154C239.557 153.145 239.613 153.137 239.669 153.131C239.613 153.137 239.558 153.145 239.504 153.154ZM279.695 147.495V147.496L279.845 147.681H279.846L279.695 147.495Z" fill="#EDC183"/>
<path fill-rule="evenodd" clip-rule="evenodd" d="M226.623 375.747C233.123 375.882 239.937 381.842 247.282 380.335C247.74 380.24 256.366 381.134 256.65 381.277C257.702 381.25 259.918 380.962 260.651 380.982C262.082 381.018 263.298 381.059 264.401 381.076C265.229 381.089 265.994 381.088 266.741 381.062C266.991 381.053 267.238 381.041 267.484 381.025L268.225 380.97C269.957 380.814 271.751 380.472 274.17 379.787C274.615 380.094 275.175 380.424 275.781 380.695C276.145 380.858 276.526 381 276.909 381.104C277.932 381.383 278.973 381.393 279.758 380.808L281.018 381.605C291.71 383.89 302.263 385.345 308.445 395.468C309.031 396.428 310.282 398.8 309.957 399.902C308.747 404.005 311.342 408.248 307.98 412.025C303.842 416.675 298.777 420.748 293.71 424.311C292.072 425.405 285.122 425.333 281.845 426.705C280.572 426.19 278.852 425.435 277.587 425.015C276.467 425.292 275.349 425.578 274.234 425.873C270.207 424.526 264.84 424.735 261.027 426.585C259.675 425.92 258.61 425.462 257.21 424.902C249.084 427.015 242.505 425.855 234.26 425.907C233.187 425.915 231.542 426.38 230.415 426.345C229.181 426.305 227.707 425.748 226.495 425.646C224.349 425.466 221.997 425.892 219.834 425.897C217.309 425.905 214.926 425.625 212.417 425.593C209.18 425.973 206.231 427.067 202.913 426.853C200.854 426.718 199.494 425.888 197.645 425.513C193.909 424.755 190.405 424.618 187.068 422.513C184.405 420.83 182.522 419.295 180.677 416.725L180.637 416.605C180.31 415.643 180.292 415.495 180.452 414.492L180.739 412.685C180.16 410.045 182.29 406.07 183.363 403.638C186.43 396.685 194.072 390.04 200.401 386.125C202.567 384.788 204.879 383.785 207.109 382.57C208.529 381.798 209.7 380.545 211.204 379.955C213.553 379.035 216.237 378.075 218.703 377.545C220.61 377.132 222.757 377.238 224.599 376.633C225.282 376.41 225.943 376.012 226.623 375.747ZM211.461 420.396H211.462L212.045 419.715L211.461 420.396ZM205.908 418.819C205.427 419.128 205.011 419.486 204.705 419.925H204.706C204.783 419.815 204.866 419.71 204.955 419.61C205.045 419.51 205.14 419.416 205.241 419.324C205.343 419.233 205.449 419.145 205.561 419.062C205.616 419.02 205.673 418.979 205.731 418.938C205.905 418.818 206.089 418.704 206.281 418.597L205.908 418.819ZM271.382 416.104H271.383H271.382ZM273.575 415.202V415.203V415.202ZM185.11 412.09H185.111H185.11ZM297.545 405.14C297.518 405.166 297.487 405.195 297.451 405.224C297.486 405.195 297.518 405.167 297.545 405.141C297.631 405.055 297.711 404.973 297.787 404.893L297.545 405.14ZM210.851 405.517C211.099 405.588 211.35 405.646 211.605 405.688C211.52 405.674 211.436 405.658 211.352 405.641C211.184 405.605 211.017 405.564 210.852 405.517H210.851ZM298.938 405.276C299.084 405.314 299.137 405.333 299.25 405.402C299.137 405.333 299.084 405.314 298.938 405.276ZM209.644 405.058H209.645H209.644ZM199.557 401.647C198.453 402.139 196.996 402.859 196.626 403.473H196.627C196.689 403.371 196.78 403.266 196.896 403.159C197.703 402.413 199.662 401.597 200.489 401.245L199.557 401.647ZM300.693 402.202C300.581 402.259 300.477 402.315 300.379 402.37C300.477 402.315 300.581 402.26 300.693 402.203L300.85 402.357L300.693 402.202ZM283.289 401.587C283.518 401.707 283.73 401.814 283.96 401.901C283.73 401.814 283.518 401.707 283.289 401.587ZM211.326 400.728V400.729V400.728ZM197.901 397.133L197.988 397.367L197.901 397.133H197.901ZM208.93 395.348H208.931L208.712 394.822L208.93 395.348ZM302.628 392.979L302.627 392.98L302.628 392.979ZM297.484 391.095H297.485H297.484ZM221.47 383.037H221.471H221.47Z" fill="#4B4746"/>
</g>
<defs>
<clipPath id="clip0_64_356">
<rect width="480" height="480" fill="white"/>
</clipPath>
</defs>
</svg>
