<svg width="480" height="480" viewBox="0 0 480 480" fill="none" xmlns="http://www.w3.org/2000/svg">
<g clip-path="url(#clip0_79_10995)">
<path d="M234.125 110.603C241.555 108.252 248.194 108.212 255.872 108.654C261.399 108.973 266.824 111.58 272.524 110.946C273.824 110.802 277.671 112.698 279.387 112.924C293.362 114.765 306.602 117.635 318.062 126.365C319.642 127.566 321.949 127.96 323.869 129.538L324.354 130.693L323.87 129.539C325.204 130.181 327.73 131.639 329.083 132.228L329.337 132.334C332.484 133.126 336.439 137.505 338.677 139.778C340.279 141.406 343.194 142.948 344.587 144.699C348.877 150.092 351.389 156.535 355.489 162.109V162.476C355.509 165.787 357.924 167.936 359.592 170.693C360.777 172.386 361.504 174.915 362.609 176.552C368.007 184.527 371.132 191.374 373.114 200.792C374.157 205.741 375.397 206.725 375.792 212.379C376.284 219.483 376.927 226.177 376.257 233.357C376.084 236.88 375.04 241.175 374.639 244.701C374.237 248.258 374.857 252.402 374 255.886C371.955 264.194 369.684 272.095 366.127 279.907C365.462 281.369 364.262 284.927 363.54 286.099C361.172 289.892 359.157 293.839 356.675 297.559C355.797 298.874 355.167 301.512 354.144 302.697C351.212 306.092 348.312 309.552 345.43 312.992C344.372 314.252 342.44 315.307 341.335 316.567C339.432 318.572 337.167 321.802 335.217 323.649C328.904 329.632 321.749 335.8 314.274 340.25C312.017 341.595 307.549 342.727 304.979 343.595C300.817 344.999 296.981 345.75 292.722 346.675C290.912 347.07 289.027 348.352 286.425 348.907C283.247 349.589 278.932 348.979 276.177 349.994C275.287 350.324 274.974 353.125 274.891 354.21C274.627 357.725 276.894 366.547 274.507 368.952L274.349 369.109V369.392C269.024 371.492 252.564 370.017 246.492 369.444C241.978 369.299 237.126 369.117 232.667 368.639C231.621 368.527 223.807 366.237 223.348 365.864C222.686 361.479 223.279 352.487 223.794 347.857C218.522 347.12 215.663 344.909 211.105 343.297C209.77 342.822 208.277 342.65 206.901 342.3C202.183 341.092 201.959 338.244 198.62 335.779C196.446 334.174 193.301 333.769 190.979 332.247C189.626 331.359 188.951 329.619 187.68 328.614C186.551 327.724 185.054 327.412 183.891 326.567C178.767 322.845 169.889 315.642 166.806 310.242C166.273 310.433 166.049 310.457 165.655 310.467L165.187 310.477C162.414 316.805 156.369 320.365 151.227 324.845C145.209 329.462 138.075 330.097 130.971 328.804C116.016 326.079 106.312 317.634 101.171 303.47C98.6838 296.617 98.5426 284.845 101.401 278.17C103.851 272.45 108.783 264.712 113.751 260.889C120.899 255.749 130.045 250.81 139.131 252.032C138.174 247.56 137.517 241.658 137.276 237.109C137.099 233.75 137.744 229.688 137.505 226.252C135.599 198.897 146.39 171.432 163.082 150.111C165.596 146.9 168.409 144.186 171.336 141.355C180.36 130.322 193.535 124.542 205.728 117.772C207.847 116.947 209.999 116.121 212.184 115.485C218.38 113.683 224.496 111.923 230.818 110.602C231.752 110.373 233.265 110.875 234.125 110.603ZM288.787 340.345L288.659 341.017L289.239 341.8V341.799L288.66 341.016L288.787 340.345ZM165.223 308.423C165.24 308.582 165.253 308.741 165.262 308.903C165.253 308.741 165.24 308.581 165.223 308.422V308.423ZM252.015 308.331C252.059 308.311 252.099 308.29 252.137 308.267L252.135 308.266C252.098 308.289 252.058 308.311 252.015 308.331ZM187.545 305.226C187.564 305.258 187.595 305.287 187.651 305.344C187.595 305.288 187.564 305.257 187.545 305.226ZM187.53 305.19C187.534 305.203 187.537 305.214 187.544 305.224C187.538 305.214 187.534 305.203 187.53 305.19ZM287.57 302.607C287.109 302.833 286.663 303.09 286.239 303.386H286.24C286.663 303.091 287.109 302.833 287.57 302.607ZM250.192 301.354C250.041 301.426 249.898 301.493 249.763 301.552C249.648 301.566 249.541 301.578 249.439 301.588C249.541 301.578 249.649 301.567 249.764 301.552L250.112 301.394C250.139 301.382 250.165 301.367 250.192 301.354ZM250.572 301.17C250.808 301.053 251.058 300.927 251.314 300.795H251.313C251.057 300.927 250.808 301.053 250.572 301.17ZM267.559 293.77C267.543 293.778 267.527 293.786 267.512 293.794C267.527 293.786 267.543 293.778 267.559 293.77ZM301.49 289.667L301.782 289.84L301.491 289.667C301.395 289.608 301.301 289.547 301.209 289.484C301.3 289.547 301.394 289.608 301.49 289.667ZM301.031 281.397C301.151 281.493 301.265 281.6 301.369 281.724L301.364 282.292L301.365 282.291L301.37 281.724C301.318 281.662 301.263 281.604 301.207 281.55C301.151 281.495 301.092 281.445 301.032 281.397C300.972 281.349 300.909 281.305 300.846 281.262L301.031 281.397ZM287.938 281.301C287.896 281.395 287.865 281.49 287.849 281.582L288.222 281.802V281.801L287.849 281.582C287.857 281.536 287.87 281.489 287.885 281.442C287.9 281.395 287.918 281.348 287.939 281.301H287.938ZM276.976 276.716H276.977C277.048 276.694 277.118 276.675 277.188 276.659H277.187C277.117 276.675 277.047 276.694 276.976 276.716ZM345.805 272.226C345.673 272.222 345.589 272.224 345.53 272.224C345.501 272.225 345.478 272.225 345.459 272.224C345.517 272.228 345.608 272.221 345.805 272.227C345.993 272.184 346.171 272.145 346.343 272.107C346.171 272.145 345.993 272.183 345.805 272.226ZM345.341 272.181C345.36 272.194 345.375 272.202 345.39 272.209C345.375 272.202 345.36 272.194 345.341 272.181ZM345.097 272.01C345.219 272.092 345.285 272.143 345.331 272.175C345.285 272.143 345.219 272.092 345.098 272.01H345.097ZM326.212 260.437L326.215 260.652L327.529 261.022V261.021L326.215 260.652L326.212 260.436V260.437ZM347.181 257.887V257.888C347.3 257.818 347.415 257.744 347.526 257.671C347.415 257.744 347.3 257.817 347.181 257.887ZM347.554 257.652C347.644 257.592 347.732 257.532 347.817 257.47C347.732 257.532 347.644 257.592 347.554 257.652ZM347.898 257.411C347.993 257.34 348.085 257.27 348.172 257.197C348.085 257.27 347.993 257.34 347.898 257.411ZM340.421 255.821C340.271 255.895 340.115 255.984 339.949 256.09H339.95C340.116 255.984 340.271 255.895 340.421 255.821ZM340.677 255.705C340.604 255.735 340.53 255.768 340.454 255.804C340.53 255.768 340.604 255.735 340.677 255.705ZM340.882 255.629C340.814 255.652 340.746 255.677 340.677 255.705C340.746 255.677 340.814 255.652 340.882 255.629ZM332.289 255.336C332.065 255.431 331.843 255.528 331.629 255.635C331.843 255.529 332.065 255.431 332.29 255.336H332.289ZM341.046 255.58C341 255.593 340.953 255.605 340.907 255.62C340.953 255.605 341 255.593 341.046 255.58ZM341.251 255.525C341.234 255.529 341.217 255.534 341.2 255.538C341.276 255.52 341.351 255.504 341.428 255.491L341.251 255.525ZM343.064 255.349H343.065L344.275 255.182L344.274 255.181L343.064 255.349ZM164.931 247.196C164.847 247.246 164.763 247.297 164.679 247.349C164.763 247.297 164.847 247.246 164.931 247.196ZM184.891 230.428C184.938 230.437 184.987 230.445 185.038 230.45H185.039C184.988 230.445 184.939 230.437 184.891 230.428ZM184.743 230.393C184.781 230.405 184.821 230.415 184.863 230.424C184.821 230.415 184.781 230.405 184.743 230.393ZM184.609 230.341C184.646 230.36 184.687 230.375 184.73 230.389C184.687 230.375 184.646 230.36 184.609 230.341L184.923 229.849H184.922L184.609 230.341ZM213.317 228.473C213.231 228.482 213.156 228.49 213.092 228.499C213.156 228.49 213.231 228.483 213.317 228.474C213.492 228.424 213.689 228.371 213.895 228.315L213.317 228.473ZM213.28 227.823C212.976 227.928 212.682 228.088 212.197 228.398H212.198C212.586 228.15 212.852 227.998 213.098 227.893C213.16 227.867 213.22 227.844 213.281 227.823H213.28ZM186.13 222.386L186.035 222.409L186.162 222.381L186.494 222.589L186.162 222.38C186.151 222.382 186.14 222.384 186.13 222.386ZM324.079 216.63L324.5 216.821V216.82L324.08 216.63C324.096 216.594 324.114 216.56 324.136 216.527L324.079 216.63ZM179.171 213.144C179.178 213.186 179.188 213.228 179.197 213.269C179.188 213.228 179.178 213.186 179.171 213.144ZM179.145 212.984C179.149 213.016 179.155 213.046 179.16 213.077C179.153 213.03 179.145 212.983 179.139 212.934L179.145 212.984ZM208.871 212.448C208.9 212.431 208.928 212.415 208.955 212.398C208.928 212.415 208.9 212.431 208.871 212.448ZM179.088 212.379C179.084 212.338 179.081 212.296 179.077 212.254C179.066 212.139 179.054 212.016 179.038 211.885H179.037C179.06 212.065 179.075 212.229 179.088 212.379ZM204.483 208.103C204.537 208.151 204.595 208.196 204.654 208.237L204.484 208.103C204.612 208.095 204.752 208.087 204.9 208.082C204.752 208.087 204.611 208.095 204.483 208.103ZM168.66 192.439C168.449 192.654 168.344 192.881 168.2 193.407H168.201C168.292 193.076 168.367 192.863 168.463 192.697C168.519 192.6 168.582 192.519 168.66 192.439ZM168.848 192.268C168.827 192.286 168.806 192.305 168.786 192.322C168.835 192.28 168.889 192.236 168.948 192.189C168.913 192.217 168.88 192.243 168.848 192.268ZM254.721 188.585V188.586C254.76 188.581 254.816 188.571 254.909 188.558V188.557C254.816 188.57 254.76 188.58 254.721 188.585ZM277.757 172.756H277.758C277.934 172.738 278.07 172.72 278.183 172.707H278.182C278.069 172.72 277.933 172.738 277.757 172.756ZM342.881 169.317V169.318V169.317ZM303.777 168.851C303.636 168.906 303.498 168.964 303.365 169.023C303.498 168.964 303.637 168.907 303.778 168.851H303.777ZM343.67 168.785C343.624 168.804 343.581 168.825 343.539 168.846C343.622 168.804 343.714 168.765 343.812 168.73L343.67 168.785ZM305.364 168.288C305.157 168.365 304.902 168.451 304.628 168.545C304.902 168.451 305.158 168.365 305.365 168.288L305.51 168.269L305.364 168.288ZM310.181 168.447H310.182C310.215 168.404 310.251 168.361 310.29 168.319H310.289C310.25 168.361 310.214 168.404 310.181 168.447ZM330.449 165.751C330.522 165.768 330.595 165.784 330.668 165.798C330.595 165.784 330.523 165.768 330.45 165.751H330.449ZM262.611 148.748C262.274 148.888 262.087 149.016 261.739 149.493C261.797 149.515 261.853 149.533 261.909 149.547C261.853 149.533 261.797 149.515 261.74 149.493C262.088 149.016 262.275 148.888 262.612 148.748H262.611ZM263.449 148.405C263.323 148.462 263.211 148.509 263.109 148.551L263.45 148.405L263.639 148.192C263.58 148.256 263.517 148.326 263.449 148.405ZM281.643 144.956C281.646 144.954 281.649 144.953 281.652 144.951C281.649 144.953 281.646 144.954 281.643 144.956ZM311.975 135.206C312.039 135.221 312.104 135.238 312.169 135.257L311.976 135.206C311.913 135.191 311.85 135.178 311.788 135.167L311.975 135.206ZM310.79 134.928C310.964 134.983 311.168 135.045 311.431 135.126H311.432C311.168 135.045 310.964 134.983 310.79 134.928ZM322.578 132.633C321.997 133.251 321.398 134.027 320.962 135.117C321.024 134.961 321.091 134.812 321.159 134.669C321.433 134.095 321.751 133.617 322.08 133.205C322.244 132.999 322.412 132.809 322.578 132.633ZM310.544 134.844C310.583 134.858 310.623 134.872 310.664 134.886C310.622 134.872 310.583 134.858 310.544 134.844ZM309.489 134.265C309.906 134.546 310.154 134.687 310.425 134.798C310.353 134.768 310.282 134.738 310.21 134.702C310.077 134.636 309.937 134.555 309.768 134.448C309.684 134.394 309.592 134.334 309.49 134.265H309.489ZM323.301 131.911C323.237 131.972 323.174 132.036 323.108 132.099C323.332 131.882 323.543 131.682 323.731 131.49L323.301 131.911Z" fill="#F3BAB1"/>
<path d="M219.089 365.133C220.574 365.438 222.307 366.295 223.348 365.865C223.807 366.238 231.62 368.527 232.667 368.64C237.126 369.117 241.979 369.3 246.493 369.445C252.565 370.018 269.024 371.492 274.349 369.393V369.11C278.342 369.24 280.932 369.947 284.495 370.47C295.275 372.05 301.537 375.983 307.39 385.362C310.194 389.86 313.172 394.2 312.689 400.112C312.514 402.517 312.547 406.91 311.269 408.902C308.629 412.947 306.357 418.355 303.072 421.805C299.312 425.755 294.912 425.317 290.015 425.527C280.255 425.942 270.629 425.12 260.859 425.367C258.559 425.425 255.277 424.53 252.88 424.522C247.678 425.457 243.882 425.875 238.565 425.463C234.977 425.185 233.364 425.99 229.654 424.308C227.23 424.82 220.57 425.292 218.307 424.562C213.224 422.923 211.347 423.79 206.223 424.305C201.497 424.779 196.948 424.383 192.281 423.711L190.273 423.407C188.925 423.192 186.907 421.558 185.703 420.708C181.356 417.348 177.984 414.97 179.479 409.255C179.565 408.927 179.324 406.777 179.384 406.077C180.881 388.39 194.796 379.683 208.567 371.378C212.537 368.961 214.686 367.195 219.089 365.133ZM219.627 419.787V419.788V419.787ZM279.759 420.76C279.655 420.835 279.569 420.893 279.504 420.934C279.569 420.893 279.655 420.835 279.759 420.76ZM248.447 419.777H248.448H248.447ZM189.242 417.115C188.863 417.527 188.477 417.919 188.087 418.308C188.477 417.919 188.863 417.527 189.242 417.115ZM299.873 418.807H299.874H299.873ZM264.152 418.221C263.867 418.322 263.578 418.415 263.332 418.51C263.579 418.415 263.867 418.322 264.152 418.221ZM262.632 418.41H262.633H262.632ZM265.082 417.801C265.057 417.817 265.032 417.832 265.006 417.848C265.073 417.807 265.136 417.766 265.193 417.722L265.082 417.801ZM246.608 414.283H246.609H246.608ZM219.108 412.742H219.109H219.108ZM217.062 409.809C217.115 409.811 217.167 409.812 217.219 409.812C217.167 409.812 217.115 409.811 217.062 409.809ZM213.944 409.073H213.945H213.944ZM213.808 409.557V409.558L213.907 409.495L213.808 409.557ZM214.627 409.463C214.551 409.461 214.474 409.46 214.395 409.462C214.474 409.46 214.551 409.461 214.627 409.463ZM216.572 408.147H216.571C216.233 408.183 215.927 408.226 215.643 408.285C215.927 408.226 216.234 408.183 216.572 408.147ZM288.777 390.338C288.824 390.407 288.875 390.468 288.929 390.522C288.875 390.468 288.824 390.406 288.777 390.337V390.338ZM194.042 386.495V386.496V386.495ZM193.154 386.033C193.035 386.138 192.919 386.246 192.807 386.361C192.919 386.246 193.035 386.138 193.154 386.033ZM232.26 379.568V379.567V379.568ZM217.694 372.958C217.807 372.958 217.902 372.96 217.982 372.964C217.902 372.96 217.807 372.957 217.694 372.957C217.615 372.942 217.538 372.929 217.463 372.919C217.538 372.929 217.615 372.943 217.694 372.958ZM218.844 372.718C218.651 372.874 218.569 372.947 218.493 372.977C218.569 372.947 218.651 372.874 218.844 372.718Z" fill="#4B4746"/>
</g>
<defs>
<clipPath id="clip0_79_10995">
<rect width="480" height="480" fill="white"/>
</clipPath>
</defs>
</svg>
