<svg width="480" height="480" viewBox="0 0 480 480" fill="none" xmlns="http://www.w3.org/2000/svg">
<g clip-path="url(#clip0_79_10861)">
<path d="M225.421 100.61C226.854 100.259 230.886 101.111 232.614 100.943C238.539 100.369 243.998 100.923 249.865 101.648C254.012 102.112 258.65 101.241 262.845 101.717C265.1 101.972 266.81 102.566 268.975 103.177C271.015 103.808 274.455 103.698 276.353 104.36C281.658 106.21 287.645 107.348 292.91 108.903C297.095 110.139 301.735 112.929 305.82 114.48C311.848 116.768 316.6 119.684 321.62 123.646C325.053 126.307 328.898 127.433 330.5 132.297C331.005 133.7 331.425 133.249 332.41 133.722C335.225 135.077 339.518 139.577 341.213 142.135C343.843 146.1 346.195 149.806 348.808 153.736C350.328 156.022 351.123 159.252 352.183 161.78C353.913 166.777 357.19 173.014 358.223 178.074C359.298 183.341 359.392 188.1 361.192 193.386C362.07 195.959 361.463 203.655 361.735 206.695C361.903 208.548 360.11 215.38 359.515 217.464C363.845 215.536 371.618 212.457 376.218 213.015C381.288 213.631 389.165 215.694 393.732 218.133C394.39 218.484 400.11 223.449 400.832 224.246C406.162 230.134 407.04 237.606 406.57 245.273C406.348 248.9 404.96 252.76 403.76 256.227C402.36 260.28 400.512 265.185 398.272 268.823C396.61 271.518 393.99 273.648 391.58 275.68C390.638 276.473 388.075 279.255 387.33 279.748C384.263 281.775 379.765 285.152 376.58 286.727C374.543 287.737 371.2 288.808 368.843 289.868C366.588 290.88 363.123 292.323 360.758 293.131C358.555 293.881 352.51 293.701 350.225 294.983C349.842 295.197 349.13 298.013 348.893 298.668C346.745 304.61 343.737 310.783 341.022 316.485C339.78 319.098 337.57 321.873 336.242 324.193C330.697 333.895 324.315 341.055 315.713 348.12C312.46 350.792 308.755 353.716 305.29 356.211C304.582 356.721 302.069 357.27 301.064 357.865C299.814 358.61 298.085 359.868 296.785 360.483C292.94 362.301 287.659 364.36 283.439 364.953C282.641 365.065 279.245 364.783 278.325 364.713C278.308 366.208 278.277 367.56 278.189 369.055L277.979 369.398C275.4 369.718 271.813 369.273 269.155 369.15C269.035 369.143 268.105 369.743 267.91 369.898C267.455 370.856 264.973 372.475 263.86 373.42L263.859 373.421C263.946 373.005 264.035 372.633 264.106 372.272C264.225 371.671 264.293 371.098 264.212 370.4C264.1 370.213 264.013 370.075 263.933 369.969C263.853 369.862 263.78 369.786 263.698 369.721C263.533 369.592 263.329 369.51 262.947 369.325C261.445 369.837 259.622 369.83 258.045 369.788C254.435 369.69 251.01 370.33 247.446 370.73C246.718 370.813 245.642 370.2 244.97 369.883C242.023 371.075 242.63 371.158 239.489 371.618L238.539 371.815C238.132 371.903 237.746 371.991 237.723 372.012C236.812 373.006 236.387 374.511 235.192 374.461C235.146 374.459 235.099 374.455 235.051 374.448C234.809 374.415 234.537 374.322 234.227 374.153C233.923 373.453 233.961 373.815 234.192 373.023C234.872 372.271 235.786 372.133 236.767 372.163L236.616 372.328L236.903 372.163C236.35 372.136 235.832 372.104 235.313 372.019C235.21 372.002 235.106 371.983 235.002 371.962C234.794 371.918 234.584 371.864 234.371 371.798C232.467 371.73 231.942 372.978 229.095 371.935C228.932 371.875 224.512 372.458 223.775 372.483C217.633 372.676 212.142 370.512 206.25 369.267C204.945 368.995 201.921 370.088 200.604 369.301C199.932 367.081 199.884 365.172 199.812 362.865C195.329 361.513 191.328 360.651 186.86 358.568C173.696 352.431 161.662 343.635 151.085 333.73C150.387 333.077 145.672 327.759 145.385 327.135C143.243 322.498 139.728 320.648 136.573 316.855C133.674 313.528 132.351 309.766 130.366 305.961C128.31 302.018 126.7 299.113 125.21 294.903C117.611 295.431 105.613 293.543 99.168 289.703C92.3542 285.64 83.0063 281.04 78.8818 274.043C77.979 272.51 75.2463 268.875 74.7353 267.708C73.6524 265.235 73.6332 260.188 73.0732 257.4C71.9505 244.284 76.76 230.758 84.9268 220.606C88.6694 215.954 94.9345 213.021 100.525 211.797C102.134 211.445 103.073 210.571 104.878 210.488C107.204 210.381 109.213 210.721 111.506 210.942C116.711 210.949 119.522 210.848 124.459 212.839C124.411 204.406 127.343 194.185 130.091 186.219C131.251 183.443 131.795 178.795 133.039 176.22C135.029 172.103 136.629 166.042 138.657 162.202C142.268 155.365 146.566 146.638 151.436 140.66C156.09 134.946 162.699 128.944 168.421 124.276C170.925 122.062 173.252 119.873 176.13 118.1C188.051 110.777 201.521 105.591 215.06 102.166C217.995 101.423 222.309 101.372 225.421 100.61ZM248.381 344.846C248.32 344.872 248.259 344.898 248.199 344.929C248.259 344.898 248.32 344.872 248.381 344.846ZM263.157 339.175V339.176V339.175ZM264.136 338.724C264.042 338.776 263.937 338.823 263.818 338.875C263.937 338.823 264.042 338.776 264.136 338.724ZM291.927 321.671H291.928H291.927ZM293.551 319.875V319.874V319.875ZM293.91 318.385H293.911L293.77 318.341L293.91 318.385ZM236.069 304.343H236.07H236.069ZM224.503 300.138H224.504H224.503ZM214.861 297.628C214.948 297.648 215.031 297.663 215.11 297.672C215.031 297.663 214.948 297.648 214.862 297.628H214.861ZM137.164 296.228C137.124 296.258 137.086 296.291 137.049 296.327C137.086 296.291 137.124 296.258 137.164 296.228ZM138.201 295.837H138.202H138.201ZM182.81 291.07H182.811H182.81ZM184.433 291.357V291.358V291.357ZM260.659 284.782C260.757 284.785 260.855 284.781 260.958 284.769C260.855 284.781 260.757 284.785 260.659 284.782ZM289.979 281.086C289.893 281.112 289.813 281.141 289.739 281.173C289.886 281.11 290.061 281.058 290.254 281.013L289.979 281.086ZM292.217 280.687C291.896 280.749 291.55 280.797 291.212 280.846L291.89 280.745C292.001 280.727 292.11 280.708 292.217 280.687ZM293.52 280.124H293.521H293.52ZM306.222 279.06C306.292 279.119 306.378 279.163 306.627 279.31V279.309C306.378 279.162 306.292 279.119 306.222 279.06ZM382.396 276.546C382.355 276.621 382.319 276.698 382.289 276.778C382.319 276.698 382.355 276.621 382.396 276.546ZM383.481 276.311C383.406 276.433 383.315 276.548 383.215 276.66C383.315 276.548 383.406 276.433 383.481 276.311ZM120.118 274.28V274.281V274.28ZM123.245 273.338C123.074 273.407 122.902 273.472 122.73 273.534C122.902 273.472 123.075 273.407 123.246 273.338L123.374 273.075L123.245 273.338ZM248.454 272.443L248.945 272.631C249.336 272.608 249.622 272.602 249.874 272.579C249.622 272.602 249.336 272.607 248.945 272.63L248.454 272.442V272.443ZM95.3477 269.403V269.402V269.403ZM291.54 269.148V269.147V269.148ZM262.822 267.671V267.672V267.671ZM262.797 267.253L263.013 267.485L262.798 267.253L262.53 267.243L262.797 267.253ZM296.853 266.397V266.398V266.397ZM115.174 265.886V265.885V265.886ZM187.988 265.535H187.989H187.988ZM87.2158 260.028C87.5049 260.153 87.6713 260.223 87.8418 260.28C87.6713 260.223 87.5049 260.152 87.2158 260.027V260.028ZM306.279 254.824V254.823V254.824ZM306.942 254.36C306.91 254.395 306.877 254.428 306.844 254.46C306.877 254.428 306.91 254.395 306.942 254.36L306.758 254.015H306.757L306.942 254.36ZM185.964 253.806H185.965H185.964ZM117.646 250.543H117.646H117.646ZM95.6963 248.057L95.4082 248.098L95.6963 248.058C95.9254 247.906 96.3929 247.607 96.9687 247.238C96.3931 247.607 95.9255 247.905 95.6963 248.057ZM352.082 245.918L352.765 245.943V245.942L352.083 245.918H352.082ZM98.5342 245.347C98.3484 245.465 98.1654 245.586 97.9834 245.709C98.1654 245.586 98.3484 245.465 98.5342 245.347ZM356.453 244.459C356.194 244.585 355.922 244.711 355.646 244.833C355.371 244.955 355.092 245.073 354.818 245.185V245.186C355.365 244.962 355.935 244.712 356.453 244.459ZM328.02 242.754V242.755V242.754ZM276.725 235.265V235.264V235.265ZM367.325 235.067V235.066V235.067ZM89.543 232.744C89.5823 232.748 89.6216 232.75 89.6611 232.75C89.6216 232.75 89.5823 232.748 89.543 232.744ZM88.9424 232.571C89.0667 232.621 89.1869 232.666 89.3057 232.698C89.1869 232.666 89.0667 232.621 88.9424 232.571ZM344.274 230.036H344.275L343.91 229.844L344.274 230.036ZM97.7187 228.501H97.7197H97.7187ZM118.129 220.924C118.105 220.948 118.082 220.975 118.06 221.004C118.082 220.975 118.105 220.948 118.129 220.924ZM240.124 214.585H240.123H240.124ZM301.368 206.475C301.245 206.515 301.12 206.545 300.98 206.562C301.12 206.545 301.245 206.515 301.368 206.475ZM303.426 205.871V205.872V205.871ZM306.869 198.043C306.838 198.111 306.802 198.178 306.761 198.243C306.719 198.308 306.673 198.371 306.622 198.433C306.266 198.866 305.69 199.224 305.082 199.527C305.865 199.138 306.592 198.657 306.869 198.043ZM222.223 186.344C222.263 186.407 222.279 186.427 222.322 186.437C222.279 186.427 222.263 186.406 222.223 186.344ZM199.249 186.166H199.25H199.249ZM342.62 177.053C342.552 177.19 342.475 177.325 342.389 177.459C342.346 177.526 342.3 177.592 342.252 177.659V177.66C342.397 177.46 342.518 177.258 342.62 177.053ZM343.161 174.533C343.142 174.886 343.115 175.217 343.07 175.531L343.126 175.048C343.141 174.882 343.152 174.711 343.162 174.534L343.161 174.533ZM306.816 172.332C306.866 172.347 306.894 172.353 306.924 172.351C306.894 172.353 306.866 172.347 306.816 172.332ZM238.69 171.639C238.249 171.691 237.882 171.745 237.542 171.763C237.883 171.745 238.251 171.692 238.692 171.64L238.69 171.639ZM281.382 166.876L281.383 166.877L281.382 166.876ZM241.702 159.084H241.703H241.702ZM228.935 154.437C228.775 154.542 228.603 154.654 228.42 154.787C228.695 154.588 228.945 154.435 229.164 154.284L228.935 154.437ZM229.795 153.686C229.726 153.792 229.647 153.884 229.56 153.969C229.647 153.884 229.726 153.792 229.795 153.686ZM229.972 153.327C229.939 153.418 229.902 153.501 229.86 153.577L229.92 153.458C229.938 153.416 229.955 153.372 229.972 153.327ZM308.562 152.644C308.502 152.703 308.438 152.758 308.369 152.809C308.438 152.758 308.502 152.703 308.562 152.644ZM294.601 145.061C294.554 145.165 294.518 145.274 294.492 145.389C294.518 145.274 294.554 145.165 294.601 145.061ZM304.104 140.316V140.318V140.316ZM256.247 132.802C256.452 132.674 256.635 132.572 256.8 132.48C256.635 132.572 256.452 132.674 256.247 132.802ZM282.336 132.601V132.6V132.601ZM281.074 132.133C281.219 132.168 281.369 132.211 281.528 132.265C281.369 132.211 281.219 132.168 281.074 132.133ZM282.584 132.041C282.692 132.115 282.791 132.196 282.881 132.283C282.791 132.196 282.692 132.115 282.584 132.041ZM279.21 131.878V131.877V131.878ZM257.882 131.477H257.883L257.742 131.301L257.882 131.477ZM239.833 121.289V121.288V121.289Z" fill="#F3BAB1"/>
<path d="M278.19 369.055C278.475 369.452 278.535 369.672 279.17 369.662C289.815 369.72 296.22 376.442 302.665 383.805C310.11 392.307 313.115 396.015 310.99 408.027C309.858 414.437 304.093 419.628 298.138 422.04C296.18 422.833 296.013 421.583 293.085 423.245C290.103 422.76 288.228 423.685 285.49 423.638C279.468 423.538 275.448 421.97 269.558 424.088C268.643 423.715 267.557 423.313 266.715 422.83C259.218 425.495 255.44 423.947 247.811 424.09C244.59 424.147 240.738 425.062 237.41 425.277C232.446 425.595 227.777 425.44 222.826 425.16C221.277 425.073 219.045 425.762 217.429 425.822C208.398 426.507 199.243 426.733 190.238 425.628C187.248 425.263 184.225 425.788 181.16 425.075C175.778 423.84 171.753 421.285 169.778 415.942C164.82 402.527 175.136 390.65 184.374 382.225C188.103 378.825 191.265 374.802 195.239 371.685C196.931 370.357 198.733 370.122 200.604 369.3C201.921 370.087 204.945 368.995 206.25 369.268C212.142 370.513 217.633 372.675 223.775 372.482C224.512 372.457 228.932 371.875 229.095 371.935C231.943 372.977 232.467 371.73 234.371 371.798C235.224 372.065 236.018 372.12 236.903 372.162L236.616 372.327L236.767 372.162C235.786 372.132 234.872 372.27 234.192 373.022C233.961 373.815 233.923 373.453 234.227 374.152C236.217 375.232 236.602 373.235 237.723 372.013C237.763 371.97 239.272 371.66 239.489 371.617C242.63 371.157 242.023 371.075 244.971 369.883C245.643 370.2 246.718 370.812 247.446 370.729C251.01 370.329 254.435 369.69 258.045 369.787C259.622 369.83 261.445 369.838 262.947 369.325C263.71 369.695 263.765 369.653 264.213 370.4C264.343 371.518 264.09 372.313 263.86 373.42C264.973 372.475 267.455 370.855 267.91 369.897C268.105 369.742 269.035 369.143 269.155 369.15C271.813 369.273 275.401 369.717 277.981 369.397L278.19 369.055ZM181.885 423.294C181.613 423.392 181.323 423.462 180.986 423.513C181.323 423.462 181.613 423.392 181.885 423.294ZM179.045 422.118C179.043 422.148 179.044 422.174 179.05 422.198C179.039 422.149 179.045 422.098 179.062 422.009L179.045 422.118ZM183.864 422.108V422.109V422.108ZM182.193 421.9V421.901V421.9ZM186.737 419.1C185.885 419.672 184.978 420.277 184.124 420.835C183.486 421.252 183.033 421.547 182.642 421.731L182.885 421.607C182.969 421.562 183.056 421.511 183.148 421.456C183.241 421.401 183.337 421.342 183.44 421.277C183.643 421.149 183.869 421.002 184.124 420.835C184.978 420.278 185.885 419.673 186.737 419.101L187.269 419.4L186.737 419.1ZM178.67 418.282H178.671H178.67ZM282.316 417.266H282.317H282.316ZM177.499 417.718H177.5H177.499ZM275.016 417.716V417.717V417.716ZM247.901 416.72H247.902H247.901ZM177.469 416.985H177.47H177.469ZM197.524 415.645C197.244 415.828 197.034 415.957 196.864 416.077C197.034 415.957 197.244 415.828 197.524 415.646V415.645ZM198.303 416.005H198.304H198.303ZM267.482 414.952V414.953V414.952ZM251.079 412.549V412.55V412.549ZM252.474 412.558C252.308 412.661 252.124 412.755 251.939 412.842C252.124 412.755 252.308 412.661 252.474 412.558ZM252.26 411.577V411.578V411.577ZM179.894 410.606C180.254 410.861 180.638 411.145 180.997 411.416C180.459 411.009 179.864 410.574 179.376 410.25L179.894 410.606ZM281.306 403.33C281.125 403.343 280.945 403.349 280.765 403.348C280.945 403.349 281.125 403.343 281.306 403.33ZM281.238 402.901C281.395 402.964 281.54 403.039 281.668 403.127C281.7 403.149 281.731 403.172 281.761 403.196C281.79 403.22 281.818 403.244 281.846 403.27H281.848C281.682 403.116 281.474 402.996 281.238 402.901ZM278.704 402.574V402.575C278.897 402.575 279.094 402.577 279.292 402.583C279.49 402.589 279.69 402.6 279.886 402.617C279.494 402.582 279.09 402.574 278.704 402.574ZM285.871 401.451C285.722 401.518 285.565 401.603 285.395 401.71L285.405 402.117L285.396 401.71C285.566 401.603 285.722 401.518 285.871 401.451ZM298.204 401.033C298.01 401.101 297.789 401.185 297.513 401.28L297.43 401.825H297.431L297.513 401.28C297.788 401.185 298.01 401.101 298.204 401.033ZM281.51 397.747C280.933 398.009 280.288 398.213 279.846 398.574C279.948 398.491 280.06 398.416 280.181 398.347C280.341 398.254 280.515 398.172 280.694 398.094C280.963 397.977 281.245 397.869 281.511 397.748L281.914 397.872H281.915L281.51 397.747ZM192.253 387.338H192.252H192.253ZM193.04 386.066H193.041H193.04ZM193.697 385.464H193.698H193.697Z" fill="#4B4746"/>
</g>
<defs>
<clipPath id="clip0_79_10861">
<rect width="480" height="480" fill="white"/>
</clipPath>
</defs>
</svg>
