<svg width="480" height="480" viewBox="0 0 480 480" fill="none" xmlns="http://www.w3.org/2000/svg">
<g clip-path="url(#clip0_64_179)">
<path fill-rule="evenodd" clip-rule="evenodd" d="M231.522 118.262C237.743 117.803 245.003 120.92 251.228 121.173C261.625 121.977 271.338 125.891 280.458 130.715C282.431 132.025 286.23 133.456 287.938 135.005C292.983 139.583 297.842 143.701 303.327 147.77C307.495 150.862 310.996 156.032 315.008 159.298C316.096 160.183 317.377 162.169 318.385 163.251C321.175 167.208 324.146 171.114 326.883 175.109C329.95 180.523 333.396 188.621 335.378 194.541C336.073 196.611 336.345 200.088 336.965 202.211C338.883 208.778 339.631 216.087 338.793 222.958C347.723 216.935 352.213 214.235 363.343 216.693C369.143 217.974 376.001 220.974 379.276 226.108C385.318 235.579 387.287 245.695 384.56 256.538C381.775 268.965 375.138 281.432 363.848 288.085C358.853 291.03 354.94 292.373 349.965 295.761C345.76 295.706 344.598 296.233 340.646 297.52C339.231 297.715 337.428 297.043 336.071 297.03C335.731 297.028 330.694 297.786 330.8 297.636C329.758 299.036 329.298 302.453 328.433 303.775C325.25 307.713 323.405 313.273 320.765 317.208C317.402 322.223 310.857 328.807 306.617 333.005C301.645 337.927 296.628 343.73 290.668 347.123C285.248 350.208 279.44 352.658 273.905 355.52C271.756 356.6 269.36 357.165 267.223 358.362C266.553 359.402 268.175 364.032 268.108 366.08C266.875 366.765 260.814 369.101 260.755 369.147C255.59 373.397 251.008 373.265 244.93 375.262C244.826 376.745 244.846 377.115 243.659 378.065L243.005 377.448L243.137 376.971C243.205 376.714 243.229 376.546 243.176 376.294C243.149 376.168 243.104 376.02 243.033 375.83L239.33 376.887C235.89 375.695 235.14 376.685 232.141 376.41C229.075 376.127 223.683 375.042 220.853 374C219.196 374.707 217.119 377.055 215.899 375.472C214.904 373.18 215.546 367.747 215.635 365.005C215.442 364.68 215.306 364.378 214.828 364.36C209.699 364.163 204.929 363.965 200.233 361.788C198.478 362.24 196.634 362.755 194.796 362.442C187.615 361.222 183.169 360.125 176.743 356.713C169.733 352.988 162.185 349.965 156.138 344.485C154.299 342.818 151.661 341.48 149.956 339.533C146.12 335.483 143.54 330.44 139.576 326.442C139.002 325.865 137.759 324.457 137.305 323.812C132.926 317.587 129.445 310.607 126.99 303.402C125.866 300.147 123.753 296.843 122.556 293.565C121.242 289.843 119.711 285.807 118.927 281.965C118.206 279.112 118.321 275.383 117.689 272.628C115.885 264.76 115.94 257.72 116.931 249.758C117.251 247.189 116.054 243.896 116.541 241.032C117.083 237.849 117.704 234.587 118.284 231.4C120.081 217.257 122.508 204.028 128.015 190.813C129.077 188.263 132.2 183.551 133.729 181.013C143.835 164.243 155.956 151.048 171.318 138.893C176.59 135.219 183.913 130.702 189.916 128.47C195.963 126.222 202.8 124.946 209.028 122.486C215.425 119.96 224.694 118.767 231.522 118.262ZM261.569 362.659L261.571 362.66C261.535 362.592 261.497 362.529 261.459 362.468C261.497 362.528 261.533 362.592 261.569 362.659ZM260.482 361.547H260.481H260.482ZM204.842 356.021C204.772 356.089 204.729 356.133 204.721 356.147C204.972 356.186 205.169 356.207 205.337 356.21C205.169 356.207 204.972 356.186 204.721 356.147C204.729 356.133 204.772 356.089 204.843 356.021H204.842ZM209.048 355.292C208.882 355.324 208.708 355.356 208.531 355.387C208.884 355.324 209.229 355.259 209.515 355.196L209.048 355.292ZM231.527 354.925C231.389 355.001 231.243 355.083 231.082 355.156C231.029 355.18 230.974 355.203 230.917 355.225H230.918C231.144 355.137 231.343 355.026 231.527 354.925ZM202.132 354.692L202.031 354.95H202.032L202.132 354.692ZM206.967 354.06H206.968H206.967ZM232.284 354.635C232.244 354.635 232.204 354.64 232.163 354.647L232.284 354.636C232.56 354.602 232.81 354.573 233.04 354.548L232.284 354.635ZM236.477 354.499L237.235 354.565C236.701 354.516 236.265 354.479 235.88 354.455C236.065 354.466 236.263 354.481 236.477 354.499ZM209.652 354.215L209.654 354.216L209.647 354.193L209.652 354.215ZM176.227 352.493C176.335 352.435 176.444 352.381 176.552 352.331C176.444 352.381 176.336 352.435 176.227 352.493L175.716 352.669L175.717 352.67L176.227 352.493ZM178.68 351.658H178.679H178.68ZM176.721 351.541L176.72 351.542L176.721 351.541ZM179.994 350.747C180.053 350.75 180.131 350.755 180.243 350.755L180.414 351.07C180.365 351.107 180.313 351.141 180.257 351.174C180.313 351.141 180.366 351.107 180.415 351.07L180.243 350.755C180.131 350.755 180.053 350.75 179.994 350.747ZM196.509 347.898H196.508H196.509ZM261.587 346.87H261.588L260.96 346.695L261.587 346.87ZM273.132 340.392C273.03 340.448 272.92 340.498 272.805 340.541C272.573 340.627 272.316 340.689 272.041 340.729C271.973 340.739 271.903 340.748 271.832 340.756H271.833C272.328 340.703 272.774 340.589 273.133 340.392H273.132ZM214.698 339.47V339.47V339.47ZM192.438 336.63C192.31 336.779 192.187 336.932 192.072 337.089C192.187 336.932 192.31 336.779 192.438 336.63ZM266.771 336.573L267.253 336.97L267.252 336.97L266.771 336.572V336.573ZM268.979 336.5C268.81 336.61 268.672 336.687 268.539 336.744C268.672 336.687 268.81 336.61 268.979 336.5ZM260.137 324.891C259.973 324.99 259.79 325.08 259.602 325.165C259.319 325.292 259.025 325.408 258.77 325.529L258.771 325.53C259.197 325.329 259.728 325.138 260.137 324.891ZM260.69 324.37H260.691L260.335 324.195L260.69 324.37ZM200.968 322.805H200.969H200.968ZM199.927 322.777L199.926 322.778L199.927 322.777ZM304.598 320.56C304.813 320.334 305.057 320.096 305.291 319.847C305.057 320.096 304.812 320.333 304.597 320.559L304.598 320.56ZM306.217 318.522H306.218L306.173 318.213H306.172L306.217 318.522ZM243.467 318.405H243.466H243.467ZM245.95 318.102C245.89 318.041 245.837 317.989 245.789 317.944C245.837 317.989 245.89 318.041 245.95 318.102C245.871 318.154 245.8 318.196 245.735 318.229C245.637 318.279 245.552 318.311 245.471 318.329C245.39 318.347 245.312 318.35 245.228 318.344C245.452 318.36 245.633 318.308 245.95 318.102ZM139.043 317.053H139.044H139.043ZM293.743 316.81V316.811V316.81ZM296.787 315.795V315.794V315.795ZM299.225 315.395L299.611 315.405L299.226 315.395H299.225ZM175.005 312.257C174.907 312.367 174.815 312.486 174.727 312.612C174.815 312.486 174.907 312.367 175.005 312.257ZM302.35 312.717C302.279 312.734 302.209 312.747 302.138 312.753C302.209 312.747 302.279 312.734 302.35 312.717ZM175.861 311.642H175.862H175.861ZM191.05 311.605H191.051H191.05ZM138.364 310.842C138.29 310.972 138.219 311.101 138.15 311.228C138.219 311.101 138.29 310.972 138.364 310.843V310.842ZM246.592 311.583H246.591H246.592ZM303.552 311.171C303.551 311.266 303.542 311.363 303.529 311.461C303.542 311.363 303.551 311.266 303.552 311.171ZM246.59 310.428H246.591H246.59ZM139.665 308.783H139.666H139.665ZM289.448 307.8C289.359 307.857 289.268 307.912 289.177 307.966C289.268 307.912 289.359 307.857 289.448 307.8ZM139.357 294.118C139.519 294.14 139.681 294.154 139.854 294.154C139.681 294.154 139.519 294.14 139.357 294.118ZM137.987 293.258L137.821 293.663L137.878 293.785H137.879L137.821 293.663L137.988 293.258C138.05 293.226 138.114 293.196 138.179 293.167L137.987 293.258ZM138.578 293.009V293.01V293.009ZM289.424 292.733H289.425H289.424ZM266.37 286.705L266.485 286.977C266.362 287.077 266.232 287.165 266.095 287.242C265.958 287.319 265.814 287.384 265.665 287.44C265.591 287.468 265.515 287.494 265.439 287.517C265.286 287.564 265.129 287.603 264.969 287.635C265.529 287.525 266.058 287.327 266.486 286.977L266.37 286.705ZM315.817 287.527H315.818H315.817ZM174.405 287.475H174.406H174.405ZM316.583 287.35C316.681 287.269 316.788 287.163 316.904 287.039C316.788 287.163 316.68 287.269 316.582 287.35H316.583ZM271.275 286.272L271.337 286.602L270.148 287.29C270.031 287.348 269.962 287.378 269.901 287.393L269.966 287.373C270.013 287.355 270.07 287.329 270.148 287.29L271.338 286.602L271.276 286.272H271.275ZM317.946 285.678C317.848 285.826 317.748 285.973 317.647 286.114C317.748 285.973 317.848 285.826 317.946 285.678ZM318.27 283.821C318.167 283.866 318.069 283.915 317.974 283.966V283.967C318.069 283.916 318.167 283.867 318.27 283.822V283.821ZM123.278 282.717C123.65 282.582 124.016 282.485 124.371 282.404C124.016 282.485 123.65 282.582 123.278 282.717ZM127.517 280.923C127.511 281.08 127.462 281.189 127.411 281.41C127.293 281.506 127.169 281.591 127.039 281.665C127.169 281.591 127.294 281.507 127.412 281.41C127.463 281.189 127.512 281.08 127.518 280.923L127.508 280.743L127.517 280.923ZM161.043 280.652V280.653V280.652ZM217.626 276.915C217.556 277.366 217.299 277.79 216.965 278.178C216.822 278.345 216.665 278.505 216.502 278.657C216.177 278.961 215.83 279.236 215.53 279.474L215.531 279.475C216.331 278.838 217.466 277.945 217.627 276.915L217.405 276.685H217.404L217.626 276.915ZM301.827 279.122H301.828H301.827ZM302.365 278.645H302.364H302.365ZM193.304 276.465L193.174 276.812C192.362 277.22 191.664 277.514 190.825 277.864L190.826 277.865C191.665 277.515 192.362 277.22 193.174 276.812L193.305 276.465L193.042 276.243H193.041L193.304 276.465ZM124.515 271.553C124.127 271.913 123.653 272.2 123.147 272.51L122.713 272.46L123.147 272.511C123.716 272.162 124.245 271.842 124.656 271.415L124.515 271.553ZM125.299 270.376C125.25 270.516 125.194 270.647 125.129 270.769C125.226 270.586 125.306 270.384 125.366 270.158L125.299 270.376ZM241.724 270.296C241.517 270.49 241.306 270.703 241.082 270.933C241.306 270.703 241.517 270.49 241.724 270.296ZM317.449 270.419H317.45H317.449ZM186.01 270.637C186.831 269.97 187.351 269.433 187.771 268.909C187.631 269.084 187.479 269.259 187.31 269.441C186.97 269.805 186.556 270.192 186.009 270.637L186.01 270.637ZM243.592 269.672C244.626 268.963 245.589 268.307 245.589 268.307H245.587C245.556 268.328 244.609 268.974 243.592 269.672ZM319.542 268.593V268.852H319.543V268.593L319.383 268.511L319.542 268.593ZM190.872 265.321H190.873H190.872ZM191.231 265.194H191.23H191.231ZM191.26 264.549H191.259H191.26ZM380.672 260.302C380.416 260.557 380.207 260.607 379.716 260.823C380.208 260.607 380.416 260.557 380.672 260.302ZM256.102 260.739C256.058 260.762 256.015 260.786 255.972 260.812L256.102 260.74C256.146 260.717 256.19 260.696 256.235 260.677L256.102 260.739ZM124.562 259.605H124.561H124.562ZM319.357 255.049H319.358H319.357ZM183.42 249.351H183.419H183.42ZM354.127 248.858C353.959 249.044 353.762 249.225 353.544 249.401L353.855 249.134C353.952 249.043 354.043 248.951 354.127 248.858ZM354.654 247.966C354.64 248.019 354.622 248.072 354.602 248.124H354.603C354.623 248.072 354.641 248.019 354.655 247.966H354.654ZM282.452 239.54C282.224 239.665 281.987 239.797 281.758 239.936C281.987 239.797 282.224 239.665 282.452 239.54ZM283.776 239.557H283.775H283.776ZM286.127 237.82H286.128H286.127ZM349.727 236.615C349.677 236.681 349.613 236.745 349.536 236.806C349.613 236.745 349.677 236.681 349.727 236.615ZM178.983 230.796C178.5 231.193 177.379 231.879 176.67 232.614C176.611 232.675 176.555 232.737 176.502 232.799H176.503C177.189 231.995 178.46 231.226 178.983 230.796ZM179.208 230.555C179.2 230.575 179.186 230.597 179.166 230.622L179.209 230.555L178.747 230.428H178.746L179.208 230.555ZM301.033 226.289V226.288V226.289ZM186.285 226.119H186.286L186.036 226.072L186.285 226.119ZM306.172 224.536C306.128 224.63 306.076 224.723 306.019 224.816C306.076 224.723 306.128 224.63 306.172 224.536ZM305.903 223.642C306.056 223.751 306.176 223.918 306.313 224.145L306.198 223.965C306.105 223.827 306.012 223.72 305.903 223.642ZM305.684 223.535H305.683H305.684ZM189.865 220.541C189.808 220.632 189.746 220.713 189.68 220.787C189.614 220.861 189.544 220.926 189.47 220.986C189.433 221.016 189.395 221.045 189.357 221.072C189.163 221.207 188.948 221.308 188.716 221.398C189.18 221.217 189.578 220.995 189.866 220.541H189.865ZM191.338 207.847C191.026 208.055 190.664 208.265 190.274 208.47C190.664 208.265 191.026 208.055 191.338 207.847ZM273.695 206.974H273.696H273.695ZM243.861 206.018H243.862H243.861ZM275.375 206.154C275.482 206.091 275.582 206.026 275.674 205.96C275.582 206.026 275.482 206.091 275.375 206.154ZM274.72 205.715V205.716V205.715ZM241.673 195.963H241.672H241.673ZM204.001 192.97V192.97V192.97ZM315.508 187.784H315.507H315.508ZM316.324 187.461H316.325H316.324ZM246.923 184.773C246.73 184.979 246.5 185.171 246.248 185.348H246.249C246.501 185.171 246.731 184.979 246.924 184.773L246.839 184.558H246.838L246.923 184.773ZM204.261 184.22H204.262H204.261ZM205.675 182.964H205.676H205.675ZM228.691 180.991C228.619 181.027 228.546 181.062 228.473 181.095C228.62 181.029 228.764 180.956 228.904 180.878L228.691 180.991ZM230.156 179.768C230.015 179.976 229.854 180.159 229.678 180.322H229.679C229.855 180.159 230.015 179.976 230.156 179.768ZM175.599 179.285C175.481 179.446 175.351 179.598 175.208 179.74C175.351 179.598 175.481 179.446 175.599 179.285ZM313.656 177.808C313.6 177.893 313.535 177.975 313.463 178.057C313.427 178.099 313.39 178.14 313.351 178.18C313.196 178.342 313.019 178.5 312.836 178.654C313.156 178.385 313.458 178.103 313.656 177.808ZM255.695 177.524C255.567 177.717 255.456 177.858 255.346 177.968C255.271 178.042 255.195 178.101 255.116 178.154C255.311 178.022 255.481 177.848 255.696 177.524H255.695ZM177.303 175.596C177.254 175.692 177.207 175.789 177.162 175.887C176.846 176.569 176.609 177.283 176.324 177.952C176.649 177.188 176.914 176.363 177.304 175.596H177.303ZM272.204 169.013C271.975 169.34 271.794 169.657 271.651 169.975C271.507 170.293 271.402 170.612 271.324 170.941C271.228 171.352 271.174 171.78 271.144 172.243C271.223 171.039 271.46 170.075 272.204 169.013ZM262.276 171.438H262.275H262.276ZM170.889 167.13C170.774 167.258 170.639 167.4 170.477 167.558C170.639 167.399 170.774 167.258 170.889 167.13ZM236.571 167.134V167.135V167.134ZM295.294 167.095V167.094V167.095ZM296.193 166.421C296.121 166.503 296.038 166.582 295.945 166.659L296.077 166.542C296.119 166.502 296.157 166.462 296.193 166.421ZM172.003 164.862L172.224 165.226H172.225L172.452 165.463H172.453L172.225 165.226L172.004 164.861L171.709 164.79H171.708L172.003 164.862ZM187.577 163.975C187.539 164.05 187.493 164.119 187.44 164.183C187.386 164.247 187.326 164.306 187.26 164.361C187.194 164.416 187.122 164.467 187.046 164.515C186.97 164.564 186.889 164.609 186.805 164.652C186.468 164.825 186.077 164.967 185.709 165.142L185.632 165.257L185.71 165.142C186.446 164.792 187.273 164.574 187.578 163.975L187.072 163.646H187.071L187.577 163.975ZM298.521 164.668L298.52 164.667L298.521 164.668ZM299.523 163.844C299.444 163.866 299.367 163.89 299.291 163.914C299.517 163.841 299.761 163.778 300.011 163.721L299.523 163.844ZM191.866 161.2C191.446 161.379 191.077 161.562 190.79 161.765H190.791C190.849 161.725 190.909 161.685 190.973 161.645C191.227 161.489 191.53 161.343 191.866 161.2ZM196.034 159.517H196.035H196.034ZM197.678 158.422H197.679H197.678ZM179.133 150.643H179.134H179.133ZM178.949 149.489C179.069 149.636 179.123 149.732 179.165 149.838C179.207 149.944 179.237 150.061 179.306 150.252H179.307C179.168 149.87 179.189 149.783 178.949 149.489ZM195.511 146.75H195.512H195.511ZM282.595 145.885V145.884V145.885ZM284.372 145.339L284.195 145.839H284.196L284.372 145.339ZM219.723 143.592C219.921 143.593 220.09 143.602 220.258 143.619C220.594 143.654 220.926 143.726 221.487 143.858C222.374 143.939 223.948 144.029 224.776 144.166C224.445 144.246 224.144 144.313 223.865 144.367C223.726 144.394 223.592 144.417 223.463 144.437C223.205 144.478 222.965 144.505 222.738 144.519L222.406 144.531C223.056 144.527 223.786 144.406 224.777 144.166C223.949 144.029 222.376 143.939 221.488 143.858C220.647 143.66 220.319 143.596 219.723 143.592ZM197.161 141.786H197.162H197.161ZM198.038 141.028C198.495 140.676 198.764 140.514 199.007 140.159C198.926 140.277 198.842 140.374 198.749 140.464C198.703 140.508 198.654 140.552 198.603 140.595C198.448 140.723 198.266 140.851 198.037 141.027L198.038 141.028ZM237.595 140.84H237.596H237.595ZM194.045 131.965H194.046H194.045ZM198.944 131.456C198.862 131.517 198.777 131.574 198.688 131.626C198.777 131.574 198.862 131.517 198.944 131.456ZM197.509 131.054C196.939 131.141 196.302 131.273 195.687 131.378C196.302 131.273 196.939 131.141 197.509 131.054ZM199.269 131.15H199.27H199.269Z" fill="#EDC183"/>
<path fill-rule="evenodd" clip-rule="evenodd" d="M271.386 367.438C275.628 366.118 282.436 368.588 286.096 370.75C292.431 374.493 301.41 384.602 303.705 391.527C304.908 395.082 302.908 398.993 304.003 402.5C304.118 402.875 304.348 404.29 304.203 404.638C302.458 408.86 300.885 415.905 297.652 418.987C293.997 422.47 290.092 423.848 285.268 422.463C283.655 423.133 282.595 423.713 281.062 424.558C276.44 424.22 273.003 424.321 268.508 425.873C267.635 425.011 267.22 424.253 266.013 424.315C263.425 424.448 261.323 426.11 258.685 425.298C258.283 425.193 257.162 425.037 256.701 424.962L256.7 424.963C254.356 426.27 253.875 424.79 252.011 425.077C249.381 425.484 243.146 425.117 240.797 425.573L240.582 425.62C239.496 425.68 237.44 425.94 236.574 425.53C235.446 425.548 234.808 425.802 233.73 426.09C231.304 426.74 229.665 425.965 227.365 425.23C228.178 424.401 230.144 424.395 229.932 423.062C229.946 423.151 229.949 423.234 229.945 423.312C229.943 423.351 229.939 423.388 229.933 423.425C229.863 423.824 229.545 424.073 229.143 424.279C228.851 424.429 228.515 424.556 228.197 424.701C227.88 424.846 227.581 425.009 227.364 425.23C226.454 425.038 225.942 425.053 225.013 425.365L224.396 425.592C221.411 426.641 219.777 426.436 216.536 426.4C212.59 426.358 213.087 427.752 209.657 425.098C207.695 425.568 205.674 425.978 203.82 426.763C201.948 426.158 200.494 425.737 198.741 424.808L195.694 426.163C193.779 425.881 192.005 425.25 190.095 424.897C185.04 423.967 180.211 422.315 175.311 420.775C174.746 418.188 173.383 413.392 173.941 411.015C176.781 398.93 180.41 393.937 190.454 386.75C193.018 384.915 195.568 382.997 198.254 381.345C201.156 379.56 211.634 374.62 214.788 375.407C215.132 375.495 215.337 375.582 215.699 375.527C215.767 375.517 215.832 375.493 215.898 375.473C217.119 377.055 219.195 374.707 220.852 374C223.683 375.042 229.076 376.128 232.142 376.41C235.14 376.685 235.89 375.695 239.33 376.888L243.033 375.83C243.313 376.59 243.213 376.665 243.005 377.447L243.66 378.065C244.847 377.115 244.826 376.745 244.93 375.263C251.008 373.265 255.59 373.397 260.755 369.147C260.81 369.102 266.874 366.765 268.107 366.08L271.386 367.438ZM222.294 425.042C222.19 425.054 222.087 425.065 221.984 425.072C222.19 425.057 222.399 425.032 222.604 425L222.294 425.042ZM223.721 424.771C223.486 424.828 223.206 424.892 222.908 424.947L223.2 424.891C223.389 424.851 223.565 424.809 223.721 424.771ZM237.62 423.723H237.621H237.62ZM229.43 422.454H229.431H229.43ZM261.577 421.964V421.965V421.964ZM262.402 421.092H262.403L262.708 420.798L262.402 421.092ZM244.694 417.866C244.141 418.189 243.604 418.542 243.065 418.922C242.796 419.112 242.526 419.31 242.254 419.514C241.981 419.717 241.706 419.927 241.426 420.145C241.383 420.085 241.352 420.035 241.327 419.988C241.352 420.035 241.383 420.086 241.426 420.146C242.547 419.277 243.587 418.513 244.694 417.866ZM210.238 418.229C209.876 418.321 209.623 418.386 209.428 418.422V418.423C209.623 418.387 209.876 418.322 210.238 418.23V418.229ZM208.773 418.387V418.386V418.387ZM258.837 416.18C258.994 416.272 259.195 416.414 259.31 416.487C259.294 416.581 259.276 416.666 259.253 416.744C259.185 416.977 259.082 417.146 258.945 417.311C258.854 417.42 258.747 417.528 258.625 417.65C258.503 417.773 258.365 417.911 258.212 418.082C258.085 418.099 258.063 418.104 258.02 418.092C258.063 418.104 258.085 418.1 258.213 418.083C258.825 417.398 259.19 417.24 259.31 416.487C259.158 416.39 258.85 416.17 258.7 416.107L258.837 416.18ZM277.721 417.407H277.72L277.475 417.748H277.476L277.721 417.407ZM246.887 416.793C246.418 416.979 245.971 417.183 245.54 417.403L245.977 417.189C246.271 417.05 246.574 416.917 246.887 416.793ZM248.619 416L248.368 416.287L248.369 416.288L248.62 416C248.578 415.945 248.505 415.844 248.432 415.748L248.619 416ZM230.336 414.254C230.212 414.383 230.088 414.523 229.967 414.676C230.088 414.523 230.212 414.383 230.336 414.254ZM225.369 411.53C225.052 412.355 224.794 412.698 224.348 413.202L224.557 412.961C224.882 412.57 225.105 412.218 225.37 411.53H225.369ZM258.939 411.447C258.461 411.473 257.998 411.518 257.696 411.549C257.998 411.518 258.461 411.473 258.939 411.447ZM263.685 411.39C263.567 411.452 263.441 411.508 263.301 411.558L263.502 411.479C263.566 411.451 263.627 411.421 263.685 411.39ZM265.57 409.379C265.525 409.493 265.464 409.631 265.38 409.817C265.09 410.124 264.855 410.387 264.641 410.611L264.642 410.612C264.856 410.388 265.09 410.124 265.38 409.817C265.464 409.631 265.526 409.494 265.571 409.38L265.57 409.379ZM260.354 409.826H260.353H260.354ZM265.7 408.765C265.696 408.827 265.692 408.882 265.686 408.934C265.704 408.779 265.709 408.59 265.723 408.28L265.7 408.765ZM242.21 407.53L242.207 407.87L240.902 408.838C240.77 408.885 240.716 408.909 240.676 408.918C240.716 408.909 240.771 408.885 240.903 408.838L242.207 407.87L242.211 407.53H242.21ZM264.708 407.632H264.709H264.708ZM187.752 400.845C188.496 401.787 188.845 404.061 188.009 404.941L188.01 404.942C188.846 404.062 188.497 401.787 187.753 400.845L187.368 400.735H187.367L187.752 400.845ZM211.661 403.367H211.66H211.661ZM289.277 402.375H289.278H289.277ZM213.525 400.917C213.416 401.184 213.301 401.425 213.181 401.645C213.301 401.425 213.416 401.185 213.525 400.918V400.917ZM277.631 396.287H277.63H277.631ZM278.68 395.851H278.679H278.68ZM208.722 390.558C207.891 391.485 206.502 392.586 205.155 392.619C206.502 392.586 207.892 391.486 208.723 390.558L208.65 390.305L208.722 390.558ZM204.358 392.503C204.451 392.534 204.545 392.558 204.64 392.576C204.545 392.558 204.451 392.534 204.358 392.503ZM203.536 392.147C203.573 392.16 203.61 392.174 203.646 392.188C203.552 392.152 203.456 392.12 203.357 392.092L203.536 392.147ZM205.244 391.759C205.456 391.786 205.677 391.812 205.908 391.837V391.838C205.446 391.788 205.026 391.731 204.628 391.675L205.244 391.759ZM202.278 391.392C202.515 391.408 202.743 391.429 202.968 391.453C202.743 391.429 202.515 391.408 202.278 391.392ZM289.051 390.166C288.881 390.295 288.687 390.42 288.491 390.54C288.687 390.42 288.881 390.295 289.051 390.166ZM289.577 389.567C289.541 389.669 289.474 389.77 289.383 389.87H289.384C289.475 389.77 289.542 389.669 289.578 389.567H289.577ZM198.95 386.212C198.724 386.301 198.507 386.397 198.306 386.507L198.307 386.508C198.508 386.398 198.724 386.301 198.95 386.212ZM202.498 384.965C202.427 385.014 202.35 385.059 202.268 385.104C202.185 385.148 202.097 385.189 202.005 385.229L202.006 385.23C202.19 385.15 202.356 385.062 202.498 384.965ZM202.95 384.442C202.937 384.477 202.921 384.51 202.903 384.542C202.85 384.639 202.779 384.728 202.692 384.81L202.774 384.726C202.85 384.639 202.91 384.545 202.951 384.442L202.778 384.271L202.95 384.442ZM215.131 381.77C214.631 381.802 214.203 381.828 213.775 381.841C214.203 381.828 214.631 381.802 215.131 381.77ZM214.343 381.229C214.404 381.235 214.466 381.241 214.527 381.249C214.466 381.241 214.404 381.235 214.343 381.229ZM277.127 379.298L277.053 380.615C276.785 380.848 276.955 380.767 276.51 380.77L276.511 380.771C276.955 380.768 276.785 380.848 277.053 380.615L277.128 379.298H277.127ZM244.734 379.189H244.733H244.734ZM279.16 378.854C279.033 378.914 278.904 378.968 278.77 379.015C278.637 379.061 278.5 379.101 278.356 379.135C278.213 379.169 278.063 379.198 277.905 379.222L278.137 379.183C278.512 379.111 278.842 379.005 279.16 378.854ZM244.178 378.901H244.179H244.178ZM280.622 377.532L280.532 377.902C280.389 378.026 280.252 378.14 280.119 378.244C279.986 378.348 279.858 378.442 279.73 378.527C279.985 378.357 280.247 378.151 280.533 377.902L280.623 377.532L280.05 377.138L280.622 377.532ZM275.907 371.63H275.908H275.907Z" fill="#4B4746"/>
</g>
<defs>
<clipPath id="clip0_64_179">
<rect width="480" height="480" fill="white"/>
</clipPath>
</defs>
</svg>
