<svg width="480" height="480" viewBox="0 0 480 480" fill="none" xmlns="http://www.w3.org/2000/svg">
<g clip-path="url(#clip0_79_11357)">
<path d="M231.522 118.263C237.743 117.803 245.003 120.921 251.228 121.173C261.625 121.978 271.338 125.892 280.457 130.715C282.43 132.026 286.23 133.457 287.938 135.005C292.983 139.583 297.843 143.701 303.328 147.77C307.495 150.862 310.996 156.032 315.008 159.298C316.096 160.183 317.378 162.168 318.385 163.25C321.175 167.208 324.146 171.113 326.883 175.109C329.951 180.523 333.396 188.622 335.378 194.541C336.073 196.611 336.345 200.089 336.965 202.211C338.883 208.779 339.63 216.087 338.792 222.957C347.722 216.935 352.213 214.236 363.343 216.694C369.143 217.974 376.001 220.974 379.276 226.109C385.318 235.58 387.287 245.694 384.56 256.537C381.775 268.965 375.138 281.433 363.848 288.085C358.853 291.03 354.94 292.373 349.965 295.76C345.76 295.705 344.597 296.232 340.645 297.52C339.23 297.715 337.428 297.043 336.071 297.031C335.731 297.028 330.685 297.788 330.8 297.635C329.758 299.035 329.298 302.452 328.433 303.775C325.251 307.712 323.405 313.272 320.765 317.207C317.403 322.222 310.858 328.808 306.618 333.005C301.645 337.928 296.627 343.73 290.667 347.122C285.248 350.207 279.441 352.657 273.906 355.52C271.756 356.6 269.361 357.165 267.223 358.363C266.553 359.403 268.175 364.033 268.108 366.08C266.875 366.765 260.81 369.103 260.755 369.148C255.59 373.398 251.008 373.266 244.93 375.263C244.827 376.745 244.846 377.115 243.66 378.065L243.005 377.448C243.083 377.154 243.146 376.96 243.179 376.792C243.212 376.624 243.216 376.483 243.176 376.293C243.149 376.167 243.104 376.02 243.034 375.83L239.331 376.888C235.891 375.695 235.14 376.685 232.141 376.41C229.075 376.128 223.682 375.043 220.852 374C219.195 374.708 217.12 377.055 215.899 375.473C214.904 373.18 215.547 367.748 215.635 365.005C215.442 364.68 215.306 364.378 214.829 364.361C209.699 364.163 204.929 363.965 200.233 361.787C198.479 362.24 196.634 362.755 194.796 362.443C187.615 361.223 183.17 360.125 176.744 356.712C169.733 352.987 162.186 349.966 156.138 344.486C154.299 342.818 151.661 341.48 149.956 339.533C146.12 335.483 143.54 330.44 139.577 326.443C139.002 325.865 137.759 324.458 137.305 323.813C132.926 317.588 129.445 310.608 126.99 303.403C125.865 300.148 123.753 296.842 122.556 293.565C121.242 289.842 119.711 285.807 118.927 281.965C118.206 279.113 118.321 275.382 117.689 272.627C115.885 264.76 115.94 257.72 116.931 249.757C117.251 247.188 116.054 243.896 116.541 241.032C117.083 237.849 117.704 234.587 118.285 231.401C120.081 217.257 122.508 204.029 128.015 190.814C129.078 188.264 132.2 183.55 133.729 181.013C143.836 164.243 155.956 151.049 171.318 138.894C176.591 135.22 183.913 130.702 189.916 128.47C195.964 126.222 202.8 124.946 209.028 122.487C215.425 119.96 224.695 118.767 231.522 118.263ZM261.569 362.659L261.571 362.66L261.569 362.659ZM204.842 356.022C204.772 356.09 204.729 356.134 204.721 356.148C204.973 356.186 205.17 356.207 205.337 356.209C205.254 356.208 205.162 356.203 205.061 356.193C204.959 356.182 204.847 356.167 204.721 356.148C204.729 356.134 204.772 356.09 204.843 356.022H204.842ZM230.743 355.287C230.622 355.325 230.494 355.354 230.357 355.372L230.556 355.337C230.62 355.323 230.682 355.306 230.743 355.287ZM231.527 354.925C231.389 355.001 231.243 355.083 231.083 355.156C231.243 355.083 231.389 355.001 231.527 354.925ZM234.237 354.443C233.704 354.472 233.112 354.536 232.285 354.635L233.04 354.548C233.5 354.498 233.882 354.463 234.237 354.443ZM236.199 353.727C236.481 353.794 236.765 353.912 237.066 354.102C236.765 353.912 236.481 353.794 236.199 353.727ZM176.227 352.492C176.336 352.435 176.444 352.381 176.552 352.33C176.444 352.381 176.336 352.435 176.227 352.492L175.716 352.669L175.717 352.67L176.227 352.492ZM179.816 350.752C179.903 350.73 179.971 350.755 180.244 350.755L180.414 351.071H180.415L180.244 350.755C179.971 350.755 179.903 350.73 179.816 350.752ZM187.768 351.044C187.706 351.128 187.637 351.211 187.562 351.291C187.637 351.211 187.706 351.128 187.768 351.044ZM197.788 348.449H197.789H197.788ZM261.587 346.87L261.51 347.22L261.588 346.87L260.96 346.696L261.587 346.87ZM273.132 340.393C273.03 340.449 272.92 340.498 272.804 340.541C272.688 340.584 272.566 340.621 272.439 340.653C272.375 340.668 272.311 340.683 272.245 340.696C272.046 340.734 271.836 340.76 271.618 340.775L271.833 340.756C272.328 340.704 272.775 340.589 273.133 340.393L273.105 340.16L273.132 340.393ZM271.63 340.404C271.704 340.406 271.778 340.407 271.851 340.406C271.778 340.407 271.704 340.406 271.63 340.404ZM215.077 338.895C214.914 338.954 214.774 339.015 214.662 339.076C214.774 339.015 214.914 338.954 215.077 338.895ZM217.345 338.241H217.346H217.345ZM192.072 337.089H192.073H192.072ZM270.284 328.033C270.422 328.034 270.559 328.035 270.697 328.042C270.417 328.028 270.144 328.033 269.846 328.03L270.284 328.033ZM260.69 324.37H260.691H260.69ZM197.45 324.242H197.451H197.45ZM197.856 323.596V323.597V323.596ZM305.931 319.072C305.752 319.34 305.526 319.599 305.291 319.848C305.057 320.096 304.813 320.333 304.597 320.559L304.598 320.56C305.065 320.07 305.664 319.525 306.017 318.937L305.931 319.072ZM306.217 318.523H306.218L306.173 318.212H306.172L306.217 318.523ZM245.228 318.343C245.312 318.349 245.39 318.346 245.471 318.328C245.39 318.346 245.312 318.349 245.228 318.343ZM294.94 316.509C294.703 316.586 294.464 316.655 294.224 316.712C294.464 316.655 294.703 316.586 294.94 316.509ZM175.005 312.257C174.466 312.863 174.096 313.741 173.74 314.443L173.875 314.632L173.741 314.443C173.87 314.188 174.002 313.909 174.142 313.629C174.318 313.279 174.507 312.925 174.727 312.612C174.815 312.486 174.907 312.367 175.005 312.257ZM190.855 311.967C190.752 312.106 190.615 312.261 190.459 312.424C190.356 312.533 190.244 312.645 190.127 312.758C189.664 313.211 189.135 313.681 188.819 314.024L188.82 314.025C189.333 313.468 190.407 312.57 190.855 311.967ZM303.015 312.392C302.895 312.48 302.778 312.552 302.661 312.608C302.778 312.552 302.895 312.48 303.015 312.392ZM303.539 311.39H303.54H303.539ZM246.592 311.582H246.591H246.592ZM246.591 310.428H246.59H246.591ZM303.49 310.53H303.491H303.49ZM290.372 308.115H290.372H290.372ZM294.063 307.205C293.765 307.345 293.474 307.467 293.2 307.601C293.474 307.467 293.765 307.345 294.063 307.205ZM304.382 306.778C304.368 306.827 304.341 306.87 304.304 306.91C304.341 306.87 304.368 306.826 304.382 306.777V306.778ZM304.37 306.541C304.384 306.588 304.392 306.63 304.394 306.669C304.392 306.63 304.384 306.588 304.37 306.541ZM137.676 302.02H137.677H137.676ZM253.098 302.141H253.097H253.098ZM319.339 299.101C319.564 299.203 319.755 299.308 319.93 299.42C319.755 299.308 319.565 299.202 319.34 299.101L318.975 298.95L319.339 299.101ZM203.272 298.956H203.271H203.272ZM162.421 295.783C162.338 295.844 162.252 295.907 162.163 295.97C162.341 295.844 162.507 295.721 162.664 295.598L162.421 295.783ZM291.992 293.962C291.952 293.993 291.912 294.021 291.872 294.048C291.992 293.968 292.11 293.87 292.239 293.754L291.992 293.962ZM138.179 293.166C138.114 293.195 138.05 293.226 137.987 293.258H137.988C138.114 293.195 138.243 293.137 138.376 293.084L138.179 293.166ZM290.633 293.385C290.181 293.138 290.004 292.936 289.719 292.817C289.89 292.888 290.022 292.99 290.198 293.113C290.315 293.195 290.452 293.286 290.632 293.385H290.633ZM141.798 289.446H141.799H141.798ZM177.469 288.942C177.43 289.061 177.381 289.197 177.314 289.366C177.414 289.112 177.476 288.934 177.52 288.773L177.469 288.942ZM265.44 287.518H265.439H265.44ZM316.309 287.442C316.135 287.49 315.974 287.517 315.817 287.528C315.974 287.517 316.135 287.49 316.309 287.442ZM269.486 287.425C269.579 287.418 269.648 287.415 269.704 287.413C269.648 287.415 269.579 287.417 269.486 287.424V287.425ZM271.275 286.273L271.337 286.603H271.338L271.276 286.273H271.275ZM266.37 286.705L266.485 286.978H266.486L266.371 286.705L266.303 286.688L266.37 286.705ZM317.267 286.616C317.142 286.771 317.02 286.914 316.905 287.038C317.02 286.914 317.142 286.771 317.267 286.616ZM172.039 286.495H172.038H172.039ZM316.747 284.889C316.462 285.154 316.184 285.432 315.877 285.701C316.184 285.432 316.462 285.154 316.747 284.889ZM318.909 283.776C318.892 283.842 318.872 283.912 318.846 283.987L318.91 283.776C318.926 283.709 318.937 283.647 318.943 283.59L318.909 283.776ZM123.277 282.717H123.278H123.277ZM126.342 281.961C126.145 282.024 125.939 282.077 125.726 282.124C126.046 282.053 126.349 281.971 126.631 281.859L126.342 281.961ZM298.886 280.998H298.887H298.886ZM127.413 281.41H127.412H127.413ZM162.414 281.043V281.042V281.043ZM217.626 276.915C217.606 277.044 217.571 277.171 217.523 277.295C217.451 277.481 217.35 277.662 217.23 277.837C217.15 277.954 217.061 278.067 216.965 278.178C217.299 277.79 217.557 277.366 217.627 276.915L217.406 276.685H217.405L217.626 276.915ZM302.009 278.464C302.041 278.467 302.06 278.47 302.081 278.48C302.122 278.499 302.173 278.541 302.365 278.645C302.331 278.687 302.287 278.733 302.235 278.783C302.13 278.883 301.992 278.998 301.828 279.121C302.074 278.935 302.264 278.772 302.366 278.645C302.079 278.489 302.107 278.472 302.01 278.464L301.855 278.455L302.009 278.464ZM193.304 276.465L193.174 276.813C192.362 277.22 191.664 277.515 190.826 277.865L190.827 277.866C191.665 277.516 192.362 277.22 193.174 276.813L193.305 276.465L193.041 276.242L193.304 276.465ZM124.208 271.811C123.994 271.976 123.762 272.128 123.519 272.281C123.762 272.128 123.994 271.976 124.208 271.811ZM124.789 271.268C124.746 271.318 124.702 271.367 124.657 271.414L124.789 271.268C124.832 271.218 124.873 271.166 124.913 271.113L124.789 271.268ZM125.299 270.376C125.226 270.587 125.134 270.775 125.026 270.947L125.129 270.769C125.194 270.647 125.25 270.516 125.299 270.376ZM317.45 270.419H317.451H317.45ZM241.851 270.179C241.736 270.284 241.62 270.394 241.502 270.509C241.62 270.394 241.736 270.284 241.851 270.179ZM187.31 269.442C187.48 269.26 187.631 269.083 187.771 268.908C187.631 269.083 187.48 269.26 187.31 269.442ZM242.208 269.865V269.866V269.865ZM245.587 268.308H245.589H245.587ZM243.734 268.894C243.64 268.936 243.548 268.981 243.458 269.027C243.638 268.935 243.825 268.85 244.023 268.772L243.734 268.894ZM190.872 265.321H190.873H190.872ZM191.231 265.194H191.23H191.231ZM191.26 264.548H191.259H191.26ZM138 261.76C137.866 261.859 137.742 261.965 137.632 262.086C137.742 261.965 137.866 261.859 138 261.76ZM272.229 261.932H272.23L271.25 261.587L272.229 261.932ZM257.462 260.968H257.463H257.462ZM380.192 260.62V260.619V260.62ZM136.813 251.852V251.853V251.852ZM351.262 250.998H351.261H351.262ZM182.69 249.988H182.691H182.69ZM183.73 248.94C183.677 249.034 183.612 249.126 183.538 249.217C183.612 249.126 183.677 249.034 183.73 248.94ZM354.127 248.859H354.128H354.127ZM354.655 247.966C354.64 248.019 354.622 248.072 354.602 248.123C354.562 248.227 354.512 248.328 354.453 248.427L354.535 248.278C354.585 248.176 354.626 248.073 354.656 247.966L354.453 247.722L354.655 247.966ZM281.388 241.59C281.706 241.286 282.118 240.888 282.543 240.512C282.118 240.888 281.705 241.285 281.387 241.589L281.388 241.59ZM283.776 239.557C284.024 239.446 284.251 239.335 284.464 239.218C284.251 239.335 284.023 239.446 283.775 239.557H283.776ZM286.127 237.821L285.717 238.316L286.128 237.821H286.127ZM349.727 236.616C349.677 236.681 349.613 236.745 349.537 236.806C349.613 236.745 349.677 236.681 349.727 236.616ZM177.263 232.075C177.051 232.25 176.848 232.431 176.67 232.615C176.611 232.676 176.555 232.737 176.502 232.799H176.503C176.82 232.428 177.261 232.065 177.696 231.739L177.263 232.075ZM178.983 230.796H178.984H178.983ZM179.208 230.556H179.209H179.208ZM187.282 227.838H187.283H187.282ZM189.055 226.397C189.096 226.403 189.138 226.411 189.18 226.421C189.131 226.478 189.079 226.533 189.026 226.587C189.079 226.533 189.131 226.478 189.18 226.421C189.138 226.411 189.096 226.403 189.055 226.397ZM288.066 225.638H288.065H288.066ZM241.938 225.671V225.672V225.671ZM242.534 225.215V225.216V225.215ZM305.954 224.921H305.955H305.954ZM305.683 223.534C305.792 223.568 305.883 223.621 305.966 223.693C305.883 223.621 305.792 223.568 305.683 223.534ZM188.716 221.398C188.948 221.307 189.164 221.207 189.357 221.072C189.164 221.207 188.948 221.307 188.716 221.398ZM286.52 221.216V221.217V221.216ZM176.074 220.36L175.932 220.585L176.522 220.917V220.916L175.932 220.585L176.075 220.36H176.074ZM189.866 220.54H189.867L189.697 220.158L189.866 220.54ZM178.257 220.562V220.563V220.562ZM191.01 208.056C190.781 208.195 190.533 208.333 190.273 208.47C190.533 208.333 190.781 208.195 191.01 208.056ZM273.696 206.974H273.695H273.696ZM190.636 200.781L190.651 201.137H190.652L190.636 200.781ZM241.672 195.962V195.963V195.962ZM204.347 192.672V192.673V192.672ZM315.906 187.741C315.708 187.767 315.507 187.788 315.308 187.797L315.508 187.784C315.641 187.774 315.774 187.758 315.906 187.741ZM314.194 187.66L314.193 187.659L314.194 187.66ZM242.31 184.827C242.408 184.939 242.518 185.038 242.633 185.136C242.518 185.038 242.408 184.939 242.31 184.827ZM246.608 185.072C246.551 185.119 246.493 185.166 246.433 185.212C246.553 185.12 246.667 185.025 246.772 184.925L246.608 185.072ZM245.868 184.85C245.724 184.913 245.59 184.984 245.455 185.064C245.59 184.984 245.724 184.913 245.868 184.85ZM246.923 184.774L246.924 184.773L246.839 184.559H246.838L246.923 184.774ZM204.261 184.22H204.262H204.261ZM230.008 179.967H230.009H230.008ZM175.924 178.78C175.726 179.131 175.495 179.456 175.208 179.741C175.137 179.811 175.061 179.878 174.983 179.944L174.984 179.946C175.378 179.617 175.677 179.219 175.924 178.781V178.78ZM312.031 179.324L312.03 179.323L312.031 179.324ZM313.847 177.421C313.821 177.509 313.782 177.595 313.735 177.681C313.711 177.724 313.685 177.766 313.657 177.808H313.658C313.742 177.682 313.808 177.553 313.848 177.421H313.847ZM255.695 177.525H255.696L255.515 177.274L255.695 177.525ZM177.303 175.596C177.108 175.98 176.945 176.378 176.789 176.776H176.79C176.946 176.378 177.108 175.98 177.303 175.596ZM271.118 172.817L270.842 172.927L270.843 172.928L271.118 172.817C271.124 172.619 271.132 172.428 271.144 172.242C271.132 172.428 271.124 172.619 271.118 172.817ZM271.193 171.703C271.224 171.441 271.266 171.188 271.325 170.941C271.266 171.188 271.224 171.441 271.193 171.703ZM264.484 169.647H264.483H264.484ZM171.077 167.679L171.076 167.678L171.077 167.679ZM296.077 166.542H296.078H296.077ZM172.003 164.862L172.224 165.227H172.225L172.453 165.462C172.644 165.506 172.878 165.533 173.139 165.547C173.052 165.542 172.968 165.536 172.888 165.529C172.727 165.513 172.581 165.492 172.454 165.462L172.225 165.227L172.004 164.862L171.708 164.79L172.003 164.862ZM187.578 163.976C187.539 164.051 187.493 164.12 187.44 164.184C187.387 164.248 187.326 164.307 187.26 164.362C187.194 164.417 187.123 164.468 187.046 164.516C186.97 164.564 186.889 164.609 186.805 164.653C186.468 164.826 186.077 164.968 185.709 165.143L185.632 165.257L185.71 165.143C186.447 164.793 187.273 164.574 187.579 163.976H187.578ZM174.992 164.689V164.69V164.689ZM299.072 163.991C299.001 164.017 298.932 164.044 298.866 164.074C298.932 164.044 299.001 164.017 299.072 163.991ZM300.517 163.616C300.179 163.682 299.838 163.755 299.523 163.844C299.838 163.755 300.179 163.682 300.517 163.616ZM196.035 159.518C194.137 160.497 191.882 160.994 190.791 161.765C190.964 161.643 191.165 161.528 191.389 161.417C191.688 161.269 192.028 161.128 192.395 160.987C192.945 160.774 193.556 160.562 194.178 160.325C194.801 160.088 195.436 159.827 196.036 159.518H196.035ZM197.678 158.421H197.679H197.678ZM178.727 151.125C178.854 151.015 178.966 150.894 179.063 150.753C178.917 150.965 178.736 151.129 178.526 151.286L178.727 151.125ZM179.027 149.591C179.095 149.685 179.134 149.758 179.165 149.837C179.208 149.943 179.237 150.06 179.306 150.251H179.307C179.169 149.87 179.189 149.783 178.949 149.489L179.027 149.591ZM299.641 149.424H299.642H299.641ZM299.842 148.382H299.843L299.468 148.145H299.467L299.842 148.382ZM197.019 146.275H197.018H197.019ZM284.195 145.838L284.196 145.839L284.195 145.838ZM221.488 143.859H221.487C222.264 143.93 223.565 144.006 224.433 144.116C224.557 144.132 224.672 144.149 224.776 144.166C224.259 144.292 223.813 144.383 223.413 144.444C223.813 144.383 224.26 144.292 224.777 144.166H224.776C223.948 144.029 222.376 143.94 221.488 143.859ZM227.275 142.867L227.273 142.868L227.275 142.867ZM195.803 142.539H195.804H195.803ZM237.372 141.696V141.695V141.696ZM198.039 141.029C198.496 140.677 198.764 140.515 199.007 140.159C198.764 140.515 198.495 140.676 198.039 141.028V141.029ZM194.045 131.965H194.046H194.045ZM199.122 131.06H199.121H199.122ZM238.259 126.447C237.939 126.629 237.606 126.793 237.175 127.016V127.017C237.607 126.794 237.939 126.629 238.259 126.447Z" fill="#C77242"/>
<path d="M271.386 367.438C275.628 366.118 282.436 368.588 286.096 370.75C292.431 374.493 301.41 384.602 303.705 391.527C304.908 395.082 302.908 398.993 304.003 402.5C304.118 402.875 304.348 404.29 304.203 404.638C302.458 408.86 300.885 415.905 297.652 418.987C293.997 422.47 290.092 423.848 285.268 422.463C283.655 423.133 282.595 423.713 281.062 424.558C276.44 424.22 273.003 424.321 268.508 425.873C267.635 425.011 267.22 424.253 266.013 424.315C263.425 424.448 261.323 426.11 258.685 425.298C258.283 425.193 257.162 425.037 256.701 424.962L256.7 424.963C254.356 426.27 253.875 424.79 252.011 425.077C249.381 425.484 243.146 425.117 240.797 425.573L240.582 425.62C239.496 425.68 237.44 425.94 236.574 425.53C235.446 425.548 234.808 425.802 233.73 426.09C231.304 426.74 229.665 425.965 227.365 425.23C228.178 424.401 230.144 424.395 229.932 423.062C229.946 423.151 229.949 423.234 229.945 423.312C229.943 423.351 229.939 423.388 229.933 423.425C229.863 423.824 229.545 424.073 229.143 424.279C228.851 424.429 228.515 424.556 228.197 424.701C227.88 424.846 227.581 425.009 227.364 425.23C226.454 425.038 225.942 425.053 225.013 425.365L224.396 425.592C221.411 426.641 219.777 426.436 216.536 426.4C212.59 426.358 213.087 427.752 209.657 425.098C207.695 425.568 205.674 425.978 203.82 426.763C201.948 426.158 200.494 425.737 198.741 424.808L195.694 426.163C193.779 425.881 192.005 425.25 190.095 424.897C185.04 423.967 180.211 422.315 175.311 420.775C174.746 418.188 173.383 413.392 173.941 411.015C176.781 398.93 180.41 393.937 190.454 386.75C193.018 384.915 195.568 382.997 198.254 381.345C201.156 379.56 211.634 374.62 214.788 375.407C215.132 375.495 215.337 375.582 215.699 375.527C215.767 375.517 215.832 375.493 215.898 375.473C217.119 377.055 219.195 374.707 220.852 374C223.683 375.042 229.076 376.128 232.142 376.41C235.14 376.685 235.89 375.695 239.33 376.888L243.033 375.83C243.313 376.59 243.213 376.665 243.005 377.447L243.66 378.065C244.847 377.115 244.826 376.745 244.93 375.263C251.008 373.265 255.59 373.397 260.755 369.147C260.81 369.102 266.874 366.765 268.107 366.08L271.386 367.438ZM222.294 425.042C222.19 425.054 222.087 425.065 221.984 425.072C222.19 425.057 222.399 425.032 222.604 425L222.294 425.042ZM223.721 424.771C223.486 424.828 223.206 424.892 222.908 424.947L223.2 424.891C223.389 424.851 223.565 424.809 223.721 424.771ZM237.62 423.723H237.621H237.62ZM229.43 422.454H229.431H229.43ZM261.577 421.964V421.965V421.964ZM262.402 421.092H262.403L262.708 420.798L262.402 421.092ZM244.694 417.866C244.141 418.189 243.604 418.542 243.065 418.922C242.796 419.112 242.527 419.31 242.254 419.514C241.981 419.717 241.706 419.927 241.426 420.145C241.383 420.085 241.352 420.035 241.327 419.988C241.352 420.035 241.383 420.086 241.426 420.146C242.547 419.277 243.587 418.513 244.694 417.866ZM210.238 418.229C209.876 418.321 209.623 418.386 209.428 418.422V418.423C209.623 418.387 209.876 418.322 210.238 418.23V418.229ZM208.773 418.387V418.386V418.387ZM258.837 416.18C258.994 416.272 259.195 416.414 259.31 416.487C259.294 416.581 259.276 416.666 259.253 416.744C259.185 416.977 259.082 417.146 258.945 417.311C258.854 417.42 258.747 417.528 258.625 417.65C258.503 417.773 258.365 417.911 258.212 418.082C258.085 418.099 258.063 418.104 258.02 418.092C258.063 418.104 258.085 418.1 258.213 418.083C258.825 417.398 259.19 417.24 259.31 416.487C259.158 416.39 258.85 416.17 258.7 416.107L258.837 416.18ZM277.721 417.407H277.72L277.475 417.748H277.476L277.721 417.407ZM246.887 416.793C246.418 416.979 245.971 417.183 245.54 417.403L245.977 417.189C246.271 417.05 246.574 416.917 246.887 416.793ZM248.619 416L248.368 416.287L248.369 416.288L248.62 416C248.578 415.945 248.505 415.844 248.432 415.748L248.619 416ZM230.336 414.254C230.212 414.383 230.088 414.523 229.967 414.676C230.088 414.523 230.212 414.383 230.336 414.254ZM225.369 411.53C225.052 412.355 224.794 412.698 224.348 413.202L224.557 412.961C224.882 412.57 225.105 412.218 225.37 411.53H225.369ZM258.939 411.447C258.461 411.473 257.998 411.518 257.696 411.549C257.998 411.518 258.461 411.473 258.939 411.447ZM263.685 411.39C263.567 411.452 263.441 411.508 263.301 411.558L263.502 411.479C263.566 411.451 263.627 411.421 263.685 411.39ZM265.57 409.379C265.525 409.493 265.464 409.631 265.38 409.817C265.09 410.124 264.855 410.387 264.641 410.611L264.642 410.612C264.856 410.388 265.09 410.124 265.38 409.817C265.464 409.631 265.526 409.494 265.571 409.38L265.57 409.379ZM260.354 409.826H260.353H260.354ZM265.7 408.765C265.696 408.827 265.692 408.882 265.686 408.934C265.704 408.779 265.709 408.59 265.723 408.28L265.7 408.765ZM242.21 407.53L242.207 407.87L240.902 408.838C240.77 408.885 240.716 408.909 240.676 408.918C240.716 408.909 240.771 408.885 240.903 408.838L242.207 407.87L242.211 407.53H242.21ZM264.708 407.632H264.709H264.708ZM187.752 400.845C188.496 401.787 188.845 404.061 188.009 404.941L188.01 404.942C188.846 404.062 188.497 401.787 187.753 400.845L187.368 400.735H187.367L187.752 400.845ZM211.661 403.367H211.66H211.661ZM289.277 402.375H289.278H289.277ZM213.525 400.917C213.416 401.184 213.301 401.425 213.181 401.645C213.301 401.425 213.416 401.185 213.525 400.918V400.917ZM277.631 396.287H277.63H277.631ZM278.68 395.851H278.679H278.68ZM208.722 390.558C207.891 391.485 206.502 392.586 205.155 392.619C206.502 392.586 207.892 391.486 208.723 390.558L208.65 390.305L208.722 390.558ZM204.358 392.503C204.451 392.534 204.545 392.558 204.64 392.576C204.545 392.558 204.451 392.534 204.358 392.503ZM203.536 392.147C203.573 392.16 203.61 392.174 203.646 392.188C203.552 392.152 203.456 392.12 203.357 392.092L203.536 392.147ZM205.244 391.759C205.456 391.786 205.677 391.812 205.908 391.837V391.838C205.446 391.788 205.026 391.731 204.628 391.675L205.244 391.759ZM202.278 391.392C202.515 391.408 202.743 391.429 202.968 391.453C202.743 391.429 202.515 391.408 202.278 391.392ZM289.051 390.166C288.881 390.295 288.687 390.42 288.491 390.54C288.687 390.42 288.881 390.295 289.051 390.166ZM289.577 389.567C289.541 389.669 289.474 389.77 289.383 389.87H289.384C289.475 389.77 289.542 389.669 289.578 389.567H289.577ZM198.95 386.212C198.724 386.301 198.507 386.397 198.306 386.507L198.307 386.508C198.508 386.398 198.724 386.301 198.95 386.212ZM202.498 384.965C202.427 385.014 202.35 385.059 202.268 385.104C202.185 385.148 202.097 385.189 202.005 385.229L202.006 385.23C202.19 385.15 202.356 385.062 202.498 384.965ZM202.95 384.442C202.937 384.477 202.921 384.51 202.903 384.542C202.85 384.639 202.779 384.728 202.692 384.81L202.774 384.726C202.85 384.639 202.91 384.545 202.951 384.442L202.778 384.271L202.95 384.442ZM215.131 381.77C214.631 381.802 214.203 381.828 213.775 381.841C214.203 381.828 214.631 381.802 215.131 381.77ZM214.343 381.229C214.404 381.235 214.466 381.241 214.527 381.249C214.466 381.241 214.404 381.235 214.343 381.229ZM277.127 379.298L277.053 380.615C276.785 380.848 276.955 380.767 276.51 380.77L276.511 380.771C276.955 380.768 276.785 380.848 277.053 380.615L277.128 379.298H277.127ZM244.734 379.189H244.733H244.734ZM279.16 378.854C279.033 378.914 278.904 378.968 278.77 379.015C278.637 379.061 278.5 379.101 278.356 379.135C278.213 379.169 278.063 379.198 277.905 379.222L278.137 379.183C278.512 379.111 278.842 379.005 279.16 378.854ZM244.178 378.901H244.179H244.178ZM280.622 377.532L280.532 377.902C280.389 378.026 280.252 378.14 280.119 378.244C279.986 378.348 279.858 378.442 279.73 378.527C279.985 378.357 280.247 378.151 280.533 377.902L280.623 377.532L280.05 377.138L280.622 377.532ZM275.907 371.63H275.908H275.907Z" fill="#4B4746"/>
</g>
<defs>
<clipPath id="clip0_79_11357">
<rect width="480" height="480" fill="white"/>
</clipPath>
</defs>
</svg>
