<svg width="480" height="480" viewBox="0 0 480 480" fill="none" xmlns="http://www.w3.org/2000/svg">
<g clip-path="url(#clip0_79_12929)">
<path d="M231.522 118.263C237.743 117.803 245.003 120.92 251.228 121.172C261.625 121.977 271.338 125.892 280.457 130.715C282.43 132.026 286.23 133.457 287.938 135.005C292.983 139.583 297.843 143.701 303.328 147.77C307.495 150.862 310.996 156.032 315.008 159.298C316.096 160.183 317.378 162.168 318.385 163.25C321.175 167.208 324.146 171.113 326.883 175.109C329.951 180.523 333.395 188.621 335.377 194.54C336.072 196.61 336.345 200.088 336.965 202.21C338.883 208.778 339.63 216.087 338.792 222.957C347.722 216.935 352.213 214.235 363.343 216.693C369.143 217.973 376 220.974 379.275 226.109C385.317 235.58 387.288 245.694 384.56 256.537C381.775 268.965 375.138 281.433 363.848 288.085C358.853 291.03 354.94 292.373 349.965 295.76C345.76 295.705 344.597 296.232 340.645 297.52C339.23 297.715 337.428 297.042 336.071 297.03C335.731 297.027 330.69 297.787 330.8 297.635C329.758 299.035 329.298 302.452 328.433 303.775C325.251 307.712 323.405 313.272 320.765 317.207C317.403 322.222 310.858 328.808 306.618 333.005C301.645 337.928 296.627 343.73 290.667 347.122C285.248 350.207 279.441 352.657 273.906 355.52C271.756 356.6 269.361 357.165 267.223 358.363C266.553 359.403 268.175 364.032 268.108 366.079C266.875 366.764 260.81 369.103 260.755 369.148C255.59 373.398 251.007 373.265 244.929 375.262C244.826 376.745 244.847 377.115 243.66 378.065L243.005 377.448C243.109 377.056 243.186 376.842 243.203 376.63C243.211 376.524 243.203 376.419 243.176 376.293C243.149 376.167 243.104 376.019 243.034 375.829L239.331 376.887C235.891 375.695 235.14 376.684 232.141 376.409C229.075 376.127 223.682 375.042 220.852 373.999C219.195 374.707 217.119 377.054 215.898 375.472C214.903 373.179 215.547 367.748 215.635 365.005C215.442 364.68 215.306 364.377 214.828 364.36C209.699 364.162 204.929 363.965 200.233 361.787C198.479 362.24 196.634 362.755 194.795 362.443C187.614 361.223 183.169 360.125 176.743 356.712C169.732 352.987 162.186 349.965 156.138 344.485C154.299 342.817 151.661 341.48 149.957 339.533C146.12 335.483 143.54 330.44 139.577 326.443C139.002 325.865 137.759 324.457 137.305 323.812C132.926 317.587 129.445 310.607 126.99 303.403C125.865 300.148 123.753 296.842 122.556 293.565C121.242 289.842 119.711 285.807 118.927 281.965C118.206 279.113 118.321 275.382 117.689 272.627C115.885 264.76 115.94 257.72 116.931 249.757C117.251 247.188 116.055 243.896 116.541 241.032C117.083 237.849 117.704 234.587 118.285 231.401C120.081 217.257 122.508 204.029 128.015 190.814C129.078 188.264 132.2 183.55 133.729 181.013C143.836 164.243 155.956 151.048 171.318 138.893C176.591 135.219 183.913 130.702 189.916 128.47C195.964 126.222 202.8 124.945 209.028 122.486C215.425 119.959 224.695 118.767 231.522 118.263ZM261.569 362.658L261.571 362.659C261.535 362.592 261.498 362.528 261.459 362.467L261.569 362.658ZM260.795 361.746C260.896 361.82 260.991 361.901 261.082 361.991C261.128 362.037 261.172 362.084 261.215 362.134H261.216C261.087 361.984 260.946 361.857 260.795 361.746ZM205.777 356.159V356.16V356.159ZM209.515 355.196C208.657 355.386 207.273 355.591 206.727 355.709C206.511 355.825 206.341 355.92 206.191 355.994C206.341 355.92 206.511 355.826 206.727 355.71C207.273 355.592 208.657 355.386 209.515 355.196ZM231.918 354.724C231.794 354.777 231.665 354.848 231.528 354.924C231.665 354.848 231.794 354.777 231.918 354.724ZM232.164 354.647V354.648V354.647ZM234.237 354.442C233.882 354.462 233.5 354.497 233.04 354.547L233.678 354.484C233.875 354.466 234.059 354.452 234.237 354.442ZM176.875 352.19C177.943 351.755 178.94 351.636 179.673 351.413C179.38 351.502 179.045 351.575 178.679 351.658C178.496 351.699 178.306 351.742 178.11 351.792C177.718 351.892 177.302 352.016 176.875 352.19ZM180.415 351.07H180.415H180.415ZM187.987 350.653H187.988H187.987ZM198.065 348.608L198.063 348.607L198.065 348.608ZM259.34 348.377C259.724 348.184 260.08 348.002 260.433 347.815C260.08 348.002 259.724 348.184 259.34 348.377L259.177 348.583L259.178 348.585L259.34 348.377ZM273.132 340.392C273.03 340.448 272.92 340.498 272.804 340.541C272.688 340.584 272.566 340.621 272.439 340.653C272.694 340.59 272.928 340.504 273.133 340.392H273.132ZM271.179 340.371C271.331 340.388 271.481 340.399 271.629 340.404C271.481 340.399 271.331 340.388 271.179 340.371ZM214.514 339.17L214.515 339.169L214.514 339.17ZM267.041 339.453H267.042H267.041ZM217.938 338.692C217.594 338.805 217.236 338.909 216.888 339.005C217.236 338.909 217.594 338.805 217.938 338.692ZM217.345 338.24H217.346H217.345ZM191.759 337.566H191.76H191.759ZM193.56 335.435C193.24 335.771 192.821 336.181 192.438 336.629C192.821 336.181 193.24 335.771 193.56 335.435ZM269.257 336.307H269.258H269.257ZM218.381 333.255H218.382H218.381ZM272.95 327.88H272.951H272.95ZM275.176 328.16H275.177H275.176ZM268.537 327.931L268.536 327.93L268.537 327.931ZM272.172 327.587H272.173H272.172ZM285.881 323.727H285.882H285.881ZM230.097 323.033C229.928 323.14 229.762 323.233 229.6 323.317C229.762 323.233 229.928 323.14 230.097 323.033ZM306.217 318.522C306.2 318.569 306.181 318.615 306.161 318.661H306.162C306.182 318.615 306.201 318.569 306.218 318.523L306.217 318.522ZM138.17 318.217H138.171H138.17ZM245.472 318.328H245.471H245.472ZM244.616 318.236C244.76 318.263 244.88 318.288 244.984 318.308C244.88 318.288 244.76 318.263 244.616 318.236ZM138.47 317.693C138.405 317.78 138.346 317.868 138.295 317.955C138.346 317.868 138.405 317.78 138.47 317.693ZM293.744 316.811H293.743H293.744ZM296.788 315.795V315.794V315.795ZM173.74 314.443L173.875 314.632V314.631L173.741 314.443H173.74ZM174.294 314.389L174.293 314.39L174.294 314.389ZM190.741 312.112C190.575 312.31 190.359 312.531 190.127 312.757C189.779 313.097 189.395 313.447 189.091 313.745C188.99 313.845 188.898 313.938 188.819 314.024L188.82 314.025C189.294 313.511 190.245 312.706 190.741 312.112ZM287.504 313.431V313.432V313.431ZM175.156 312.099C175 312.249 174.859 312.424 174.727 312.612C174.815 312.486 174.907 312.367 175.005 312.257C175.054 312.202 175.105 312.149 175.157 312.099H175.156ZM302.661 312.607C302.778 312.551 302.895 312.479 303.015 312.391C302.895 312.479 302.778 312.551 302.661 312.607ZM246.592 311.582H246.591H246.592ZM303.49 310.53C303.518 310.67 303.538 310.812 303.547 310.954C303.538 310.812 303.518 310.67 303.49 310.53ZM246.591 310.427H246.59H246.591ZM139.052 309.7H139.053H139.052ZM302.802 308.537L303.157 309.46C303.213 309.607 303.266 309.751 303.314 309.894C303.169 309.466 302.979 309.025 302.803 308.537C302.816 308.487 302.829 308.439 302.843 308.393L302.802 308.537ZM289.528 308.609H289.529H289.528ZM139.944 308.426H139.945H139.944ZM292.432 308.068V308.067V308.068ZM304.393 306.725H304.392H304.393ZM254.473 300.815C254.306 300.991 254.13 301.17 253.948 301.349C253.674 301.617 253.388 301.885 253.097 302.14H253.098C253.776 301.546 254.432 300.881 254.947 300.299L254.473 300.815ZM138.979 301.034H138.98H138.979ZM319.339 299.101C319.564 299.203 319.755 299.307 319.93 299.419C320.018 299.476 320.102 299.534 320.184 299.595C320.349 299.717 320.507 299.849 320.678 299.996C320.251 299.628 319.901 299.355 319.339 299.101ZM319.995 300.199C320.131 300.241 320.272 300.278 320.434 300.315C320.272 300.278 320.131 300.241 319.995 300.199ZM163.175 294.11H163.176H163.175ZM291.357 294.269H291.358H291.357ZM291.992 293.962H291.993H291.992ZM289.671 293.629C289.713 293.67 289.756 293.711 289.804 293.753C289.756 293.711 289.713 293.67 289.671 293.629ZM290.633 293.385C290.091 293.089 289.944 292.857 289.533 292.755C289.807 292.823 289.963 292.949 290.198 293.113C290.315 293.195 290.452 293.286 290.632 293.385C290.926 293.545 291.113 293.596 291.246 293.58C291.213 293.584 291.177 293.584 291.136 293.579C291.014 293.564 290.854 293.505 290.633 293.385ZM138.376 293.083V293.084V293.083ZM289.01 292.7C289.08 292.817 289.142 292.919 289.199 293.009C289.142 292.919 289.08 292.817 289.01 292.7ZM142.045 289.138H142.044H142.045ZM264.483 287.708H264.482H264.483ZM142.725 287.374H142.726H142.725ZM266.37 286.704L266.485 286.977C266.424 287.027 266.361 287.074 266.295 287.118H266.296C266.361 287.075 266.424 287.027 266.485 286.977L266.371 286.704H266.37ZM317.082 286.839H317.082H317.082ZM172.43 286.613H172.429H172.43ZM177.705 286.614L177.704 286.615L177.705 286.614ZM318.643 284.471L318.644 284.47L318.643 284.471ZM317.7 284.126V284.127V284.126ZM318.909 283.776H318.91H318.909ZM122.525 283.041C122.778 282.913 123.029 282.807 123.277 282.717C123.029 282.807 122.778 282.913 122.525 283.041ZM127.412 281.409C127.333 281.474 127.252 281.533 127.167 281.587C127.252 281.533 127.334 281.474 127.413 281.409H127.412ZM217.626 276.915C217.586 277.173 217.485 277.421 217.343 277.659C217.272 277.779 217.191 277.895 217.103 278.009C216.926 278.237 216.719 278.453 216.502 278.657C217.045 278.149 217.526 277.558 217.627 276.914L217.406 276.685H217.405L217.626 276.915ZM302.366 278.645C302.27 278.593 302.208 278.557 302.166 278.531C302.208 278.557 302.269 278.593 302.365 278.645C302.263 278.772 302.075 278.936 301.829 279.121C302.075 278.936 302.264 278.772 302.366 278.645ZM193.304 276.465L193.174 276.812C192.362 277.219 191.664 277.514 190.826 277.864L190.827 277.865C191.665 277.515 192.362 277.219 193.174 276.812L193.305 276.465L193.041 276.242L193.304 276.465ZM124.208 271.811C123.995 271.976 123.762 272.127 123.519 272.28C123.762 272.127 123.995 271.976 124.208 271.811ZM124.789 271.268H124.79H124.789ZM257.59 271.334L257.332 271.108L257.59 271.335L258.058 271.042L257.59 271.334ZM125.299 270.375C125.275 270.445 125.249 270.513 125.22 270.578L125.3 270.375C125.325 270.305 125.347 270.233 125.367 270.158L125.299 270.375ZM187.31 269.442C187.14 269.624 186.952 269.811 186.738 270.009L187.041 269.719C187.136 269.625 187.225 269.532 187.31 269.442ZM318.56 269.478H318.561H318.56ZM187.973 268.647C187.843 268.821 187.705 268.995 187.552 269.172L187.772 268.908C187.842 268.821 187.908 268.734 187.973 268.647ZM189.38 266.609H189.381H189.38ZM190.557 265.395H190.558H190.557ZM190.873 265.321C191.004 265.297 191.123 265.271 191.23 265.194C191.176 265.232 191.12 265.258 191.06 265.277C191 265.296 190.938 265.309 190.873 265.321H190.873ZM191.076 264.466C191.122 264.467 191.152 264.474 191.191 264.498C191.152 264.474 191.123 264.467 191.076 264.466ZM272.229 261.932H272.23L271.25 261.587L272.229 261.932ZM120.969 260.958H120.97H120.969ZM256.946 260.478C256.795 260.504 256.65 260.536 256.509 260.577L256.652 260.539C256.748 260.516 256.846 260.495 256.946 260.478ZM349.54 252.592C349.585 252.531 349.63 252.471 349.678 252.412C349.631 252.471 349.584 252.53 349.54 252.591L349.54 252.592ZM136.552 252.074V252.073V252.074ZM352.453 250.186C352.062 250.448 351.656 250.716 351.262 250.998C351.656 250.716 352.062 250.448 352.453 250.186ZM147.742 250.465H147.743H147.742ZM182.69 249.987C182.373 250.227 182.045 250.448 181.783 250.647L181.784 250.648C182.046 250.449 182.373 250.227 182.69 249.987ZM183.538 249.216H183.539H183.538ZM354.128 248.858H354.127H354.128ZM183.849 248.655H183.85L183.696 248.529L183.849 248.655ZM354.655 247.965C354.64 248.018 354.622 248.071 354.602 248.123H354.603C354.623 248.071 354.641 248.018 354.656 247.965H354.655ZM292.339 247.416C292.511 247.469 292.682 247.533 292.854 247.613C292.682 247.533 292.511 247.469 292.339 247.416ZM291.826 247.294H291.825H291.826ZM281.388 241.589C281.705 241.285 282.118 240.888 282.543 240.512C282.118 240.888 281.705 241.284 281.387 241.588L281.388 241.589ZM285.902 238.165V238.166L286.18 237.893L285.902 238.165ZM349.122 237.067C348.912 237.176 348.676 237.279 348.438 237.373C348.676 237.279 348.912 237.176 349.122 237.067ZM349.79 236.514C349.773 236.548 349.752 236.582 349.727 236.616C349.677 236.681 349.613 236.745 349.537 236.806C349.652 236.714 349.74 236.617 349.79 236.514L349.103 236.405H349.102L349.79 236.514ZM177.695 231.738C177.332 232.009 176.966 232.307 176.67 232.614C176.611 232.675 176.555 232.737 176.502 232.799H176.503C176.925 232.304 177.569 231.823 178.123 231.425L177.695 231.738ZM179.208 230.555C179.184 230.614 179.104 230.696 178.984 230.795C179.104 230.696 179.185 230.614 179.209 230.555H179.208ZM286.786 225.786H286.787H286.786ZM286.852 225.283C286.918 225.293 286.985 225.304 287.051 225.318C286.919 225.291 286.786 225.271 286.654 225.256L286.852 225.283ZM304.179 223.901V223.902V223.901ZM305.834 223.599H305.835H305.834ZM286.376 221.3V221.301V221.3ZM189.866 220.54C189.837 220.586 189.807 220.628 189.776 220.669C189.714 220.751 189.649 220.825 189.579 220.892C189.684 220.792 189.78 220.677 189.867 220.54H189.866ZM176.074 220.359L175.931 220.584L176.522 220.917V220.916L175.932 220.584L176.075 220.359H176.074ZM188.185 209.459C187.335 209.832 186.515 210.169 185.897 210.44H185.898C186.516 210.169 187.335 209.832 188.185 209.459ZM190.273 208.47C190.143 208.539 190.01 208.607 189.874 208.675C190.146 208.539 190.408 208.401 190.654 208.263L190.273 208.47ZM273.696 206.974C273.979 206.833 274.335 206.679 274.69 206.511C274.335 206.679 273.978 206.833 273.695 206.974H273.696ZM246.604 203.028H246.605H246.604ZM198.145 203.114H198.146H198.145ZM242.067 195.556H242.066H242.067ZM242.375 194.98C242.364 195.022 242.351 195.064 242.335 195.105L242.376 194.98C242.388 194.937 242.397 194.894 242.405 194.849L242.375 194.98ZM316.152 187.394C316.326 187.454 316.496 187.533 316.66 187.632C316.308 187.682 315.907 187.751 315.507 187.783V187.784C315.907 187.752 316.309 187.682 316.661 187.632C316.497 187.533 316.327 187.454 316.152 187.394ZM314.362 187.716C314.477 187.748 314.599 187.77 314.724 187.783C314.599 187.77 314.477 187.748 314.362 187.716ZM243.335 185.803H243.336H243.335ZM246.923 184.773C246.73 184.979 246.501 185.171 246.248 185.348C246.501 185.171 246.731 184.979 246.924 184.773H246.923ZM203.555 185.243H203.556H203.555ZM230.156 179.768H230.157H230.156ZM175.599 179.284C175.658 179.204 175.715 179.123 175.769 179.038V179.037C175.715 179.122 175.658 179.204 175.599 179.284ZM312.031 179.323L312.03 179.322L312.031 179.323ZM254.809 178.33L254.808 178.329L254.809 178.33ZM313.847 177.421C313.821 177.509 313.783 177.596 313.736 177.681C313.783 177.596 313.822 177.509 313.848 177.421L313.618 177.192L313.847 177.421ZM255.695 177.525H255.696H255.695ZM262.275 171.438H262.276H262.275ZM262.845 171.105H262.846H262.845ZM271.326 170.941H271.325H271.326ZM263.778 170.208H263.779H263.778ZM271.766 169.737H271.765H271.766ZM264.813 169.446C264.705 169.505 264.596 169.572 264.484 169.647C264.596 169.572 264.705 169.505 264.813 169.446ZM267.624 168.651V168.65V168.651ZM172.124 166.333C172.098 166.204 172.08 166.102 172.071 166.012C172.08 166.101 172.097 166.204 172.123 166.333C172.004 166.585 171.933 166.757 171.879 166.883L172.124 166.333ZM172.224 165.226H172.225H172.224ZM187.578 163.976C187.559 164.013 187.537 164.049 187.514 164.083C187.399 164.256 187.237 164.395 187.046 164.515C186.665 164.756 186.169 164.923 185.709 165.142H185.71C186.447 164.792 187.273 164.574 187.579 163.976L187.073 163.646H187.072L187.578 163.976ZM174.748 164.699C174.429 164.717 174.123 164.759 173.806 164.822C174.123 164.759 174.429 164.717 174.748 164.699ZM298.866 164.074C298.734 164.132 298.614 164.195 298.508 164.265C298.614 164.195 298.734 164.132 298.866 164.074ZM301.166 163.972H301.167H301.166ZM190.367 162.154L190.632 162.742L190.368 162.154H190.367ZM191.621 161.307C191.461 161.379 191.311 161.454 191.172 161.53C191.311 161.454 191.461 161.379 191.621 161.307ZM195.733 159.668C195.428 159.815 195.116 159.951 194.803 160.078C195.116 159.951 195.428 159.815 195.733 159.668ZM270.164 160.746H270.165H270.164ZM297.204 157.715H297.205H297.204ZM267.198 151.332V151.331V151.332ZM179.197 150.523C179.176 150.564 179.156 150.605 179.133 150.643C179.111 150.681 179.087 150.718 179.063 150.753H179.064C179.137 150.647 179.201 150.529 179.255 150.393L179.197 150.523ZM179.027 149.59C179.072 149.653 179.105 149.707 179.131 149.759C179.105 149.707 179.073 149.653 179.028 149.59L178.949 149.489L179.027 149.59ZM299.842 148.381H299.843L299.468 148.144H299.467L299.842 148.381ZM196.762 146.701H196.761H196.762ZM195.866 146.232C196.164 146.229 196.46 146.235 196.742 146.252C196.836 146.258 196.928 146.265 197.018 146.274H197.019C196.658 146.239 196.264 146.228 195.866 146.232ZM284.195 145.838C283.855 146.007 283.702 146.107 283.584 146.146C283.702 146.107 283.856 146.007 284.196 145.838H284.195ZM219.008 143.604C219.583 143.587 219.922 143.584 220.258 143.618C220.594 143.653 220.927 143.726 221.487 143.858C222.264 143.929 223.565 144.006 224.433 144.116C224.557 144.132 224.672 144.148 224.776 144.165C224.281 144.286 223.851 144.376 223.463 144.437L223.867 144.366C224.145 144.313 224.446 144.245 224.776 144.165C223.948 144.028 222.376 143.939 221.488 143.858C220.367 143.593 220.158 143.569 219.008 143.604ZM198.039 141.028C198.496 140.676 198.764 140.514 199.007 140.158C198.764 140.514 198.495 140.675 198.038 141.027L198.039 141.028ZM194.967 132.281C195.218 132.325 195.479 132.345 195.743 132.348C195.568 132.346 195.393 132.337 195.222 132.318C195.136 132.308 195.052 132.295 194.968 132.281H194.967ZM193.669 131.686H193.67H193.669ZM199.121 131.059C199.177 131.084 199.227 131.114 199.269 131.15C199.227 131.114 199.177 131.084 199.121 131.059ZM198.705 130.969C198.623 130.963 198.536 130.961 198.445 130.962C198.536 130.961 198.623 130.963 198.705 130.969ZM227.574 128.254H227.575H227.574ZM237.174 127.016H237.175H237.174Z" fill="#EBC2AA"/>
<path d="M271.386 367.438C275.628 366.118 282.436 368.588 286.096 370.75C292.431 374.493 301.41 384.602 303.705 391.527C304.908 395.082 302.908 398.993 304.003 402.5C304.118 402.875 304.348 404.29 304.203 404.638C302.458 408.86 300.885 415.905 297.652 418.987C293.997 422.47 290.092 423.848 285.268 422.463C283.655 423.133 282.595 423.713 281.062 424.558C276.44 424.22 273.003 424.321 268.508 425.873C267.635 425.011 267.22 424.253 266.013 424.315C263.425 424.448 261.323 426.11 258.685 425.298C258.283 425.193 257.162 425.037 256.701 424.962L256.7 424.963C254.356 426.27 253.875 424.79 252.011 425.077C249.381 425.484 243.146 425.117 240.797 425.573L240.582 425.62C239.496 425.68 237.44 425.94 236.574 425.53C235.446 425.548 234.808 425.802 233.73 426.09C231.304 426.74 229.665 425.965 227.365 425.23C228.178 424.401 230.144 424.395 229.932 423.062C229.946 423.151 229.949 423.234 229.945 423.312C229.943 423.351 229.939 423.388 229.933 423.425C229.863 423.824 229.545 424.073 229.143 424.279C228.851 424.429 228.515 424.556 228.197 424.701C227.88 424.846 227.581 425.009 227.364 425.23C226.454 425.038 225.942 425.053 225.013 425.365L224.396 425.592C221.411 426.641 219.777 426.436 216.536 426.4C212.59 426.358 213.087 427.752 209.657 425.098C207.695 425.568 205.674 425.978 203.82 426.763C201.948 426.158 200.494 425.737 198.741 424.808L195.694 426.163C193.779 425.881 192.005 425.25 190.095 424.897C185.04 423.967 180.211 422.315 175.311 420.775C174.746 418.188 173.383 413.392 173.941 411.015C176.781 398.93 180.41 393.937 190.454 386.75C193.018 384.915 195.568 382.997 198.254 381.345C201.156 379.56 211.634 374.62 214.788 375.407C215.132 375.495 215.337 375.582 215.699 375.527C215.767 375.517 215.832 375.493 215.898 375.473C217.119 377.055 219.195 374.707 220.852 374C223.683 375.042 229.076 376.128 232.142 376.41C235.14 376.685 235.89 375.695 239.33 376.888L243.033 375.83C243.313 376.59 243.213 376.665 243.005 377.447L243.66 378.065C244.847 377.115 244.826 376.745 244.93 375.263C251.008 373.265 255.59 373.397 260.755 369.147C260.81 369.102 266.874 366.765 268.107 366.08L271.386 367.438ZM222.294 425.042C222.19 425.054 222.087 425.065 221.984 425.072C222.19 425.057 222.399 425.032 222.604 425L222.294 425.042ZM223.721 424.771C223.486 424.828 223.206 424.892 222.908 424.947L223.2 424.891C223.389 424.851 223.565 424.809 223.721 424.771ZM237.62 423.723H237.621H237.62ZM229.43 422.454H229.431H229.43ZM261.577 421.964V421.965V421.964ZM262.402 421.092H262.403L262.708 420.798L262.402 421.092ZM244.694 417.866C244.141 418.189 243.604 418.542 243.065 418.922C242.796 419.112 242.527 419.31 242.254 419.514C241.981 419.717 241.706 419.927 241.426 420.145C241.383 420.085 241.352 420.035 241.327 419.988C241.352 420.035 241.383 420.086 241.426 420.146C242.547 419.277 243.587 418.513 244.694 417.866ZM210.238 418.229C209.876 418.321 209.623 418.386 209.428 418.422V418.423C209.623 418.387 209.876 418.322 210.238 418.23V418.229ZM208.773 418.387V418.386V418.387ZM258.837 416.18C258.994 416.272 259.195 416.414 259.31 416.487C259.294 416.581 259.276 416.666 259.253 416.744C259.185 416.977 259.082 417.146 258.945 417.311C258.854 417.42 258.747 417.528 258.625 417.65C258.503 417.773 258.365 417.911 258.212 418.082C258.085 418.099 258.063 418.104 258.02 418.092C258.063 418.104 258.085 418.1 258.213 418.083C258.825 417.398 259.19 417.24 259.31 416.487C259.158 416.39 258.85 416.17 258.7 416.107L258.837 416.18ZM277.721 417.407H277.72L277.475 417.748H277.476L277.721 417.407ZM246.887 416.793C246.418 416.979 245.971 417.183 245.54 417.403L245.977 417.189C246.271 417.05 246.574 416.917 246.887 416.793ZM248.619 416L248.368 416.287L248.369 416.288L248.62 416C248.578 415.945 248.505 415.844 248.432 415.748L248.619 416ZM230.336 414.254C230.212 414.383 230.088 414.523 229.967 414.676C230.088 414.523 230.212 414.383 230.336 414.254ZM225.369 411.53C225.052 412.355 224.794 412.698 224.348 413.202L224.557 412.961C224.882 412.57 225.105 412.218 225.37 411.53H225.369ZM258.939 411.447C258.461 411.473 257.998 411.518 257.696 411.549C257.998 411.518 258.461 411.473 258.939 411.447ZM263.685 411.39C263.567 411.452 263.441 411.508 263.301 411.558L263.502 411.479C263.566 411.451 263.627 411.421 263.685 411.39ZM265.57 409.379C265.525 409.493 265.464 409.631 265.38 409.817C265.09 410.124 264.855 410.387 264.641 410.611L264.642 410.612C264.856 410.388 265.09 410.124 265.38 409.817C265.464 409.631 265.526 409.494 265.571 409.38L265.57 409.379ZM260.354 409.826H260.353H260.354ZM265.7 408.765C265.696 408.827 265.692 408.882 265.686 408.934C265.704 408.779 265.709 408.59 265.723 408.28L265.7 408.765ZM242.21 407.53L242.207 407.87L240.902 408.838C240.77 408.885 240.716 408.909 240.676 408.918C240.716 408.909 240.771 408.885 240.903 408.838L242.207 407.87L242.211 407.53H242.21ZM264.708 407.632H264.709H264.708ZM187.752 400.845C188.496 401.787 188.845 404.061 188.009 404.941L188.01 404.942C188.846 404.062 188.497 401.787 187.753 400.845L187.368 400.735H187.367L187.752 400.845ZM211.661 403.367H211.66H211.661ZM289.277 402.375H289.278H289.277ZM213.525 400.917C213.416 401.184 213.301 401.425 213.181 401.645C213.301 401.425 213.416 401.185 213.525 400.918V400.917ZM277.631 396.287H277.63H277.631ZM278.68 395.851H278.679H278.68ZM208.722 390.558C207.891 391.485 206.502 392.586 205.155 392.619C206.502 392.586 207.892 391.486 208.723 390.558L208.65 390.305L208.722 390.558ZM204.358 392.503C204.451 392.534 204.545 392.558 204.64 392.576C204.545 392.558 204.451 392.534 204.358 392.503ZM203.536 392.147C203.573 392.16 203.61 392.174 203.646 392.188C203.552 392.152 203.456 392.12 203.357 392.092L203.536 392.147ZM205.244 391.759C205.456 391.786 205.677 391.812 205.908 391.837V391.838C205.446 391.788 205.026 391.731 204.628 391.675L205.244 391.759ZM202.278 391.392C202.515 391.408 202.743 391.429 202.968 391.453C202.743 391.429 202.515 391.408 202.278 391.392ZM289.051 390.166C288.881 390.295 288.687 390.42 288.491 390.54C288.687 390.42 288.881 390.295 289.051 390.166ZM289.577 389.567C289.541 389.669 289.474 389.77 289.383 389.87H289.384C289.475 389.77 289.542 389.669 289.578 389.567H289.577ZM198.95 386.212C198.724 386.301 198.507 386.397 198.306 386.507L198.307 386.508C198.508 386.398 198.724 386.301 198.95 386.212ZM202.498 384.965C202.427 385.014 202.35 385.059 202.268 385.104C202.185 385.148 202.097 385.189 202.005 385.229L202.006 385.23C202.19 385.15 202.356 385.062 202.498 384.965ZM202.95 384.442C202.937 384.477 202.921 384.51 202.903 384.542C202.85 384.639 202.779 384.728 202.692 384.81L202.774 384.726C202.85 384.639 202.91 384.545 202.951 384.442L202.778 384.271L202.95 384.442ZM215.131 381.77C214.631 381.802 214.203 381.828 213.775 381.841C214.203 381.828 214.631 381.802 215.131 381.77ZM214.343 381.229C214.404 381.235 214.466 381.241 214.527 381.249C214.466 381.241 214.404 381.235 214.343 381.229ZM277.127 379.298L277.053 380.615C276.785 380.848 276.955 380.767 276.51 380.77L276.511 380.771C276.955 380.768 276.785 380.848 277.053 380.615L277.128 379.298H277.127ZM244.734 379.189H244.733H244.734ZM279.16 378.854C279.033 378.914 278.904 378.968 278.77 379.015C278.637 379.061 278.5 379.101 278.356 379.135C278.213 379.169 278.063 379.198 277.905 379.222L278.137 379.183C278.512 379.111 278.842 379.005 279.16 378.854ZM244.178 378.901H244.179H244.178ZM280.622 377.532L280.532 377.902C280.389 378.026 280.252 378.14 280.119 378.244C279.986 378.348 279.858 378.442 279.73 378.527C279.985 378.357 280.247 378.151 280.533 377.902L280.623 377.532L280.05 377.138L280.622 377.532ZM275.907 371.63H275.908H275.907Z" fill="#4B4746"/>
</g>
<defs>
<clipPath id="clip0_79_12929">
<rect width="480" height="480" fill="white"/>
</clipPath>
</defs>
</svg>
