<svg width="480" height="480" viewBox="0 0 480 480" fill="none" xmlns="http://www.w3.org/2000/svg">
<g clip-path="url(#clip0_79_12143)">
<path d="M231.521 118.262C237.742 117.803 245.002 120.92 251.227 121.173C261.624 121.977 271.337 125.891 280.457 130.715C282.43 132.025 286.229 133.456 287.937 135.005C292.982 139.583 297.843 143.7 303.328 147.769C307.495 150.861 310.995 156.032 315.007 159.298C316.095 160.183 317.378 162.168 318.385 163.25C321.175 167.208 324.145 171.114 326.882 175.109C329.95 180.523 333.395 188.621 335.377 194.541C336.072 196.611 336.345 200.088 336.965 202.211C338.883 208.778 339.63 216.087 338.792 222.958C347.722 216.935 352.212 214.235 363.342 216.693C369.142 217.974 376 220.974 379.275 226.108C385.317 235.579 387.288 245.695 384.56 256.538C381.775 268.965 375.137 281.432 363.847 288.085C358.852 291.03 354.94 292.372 349.965 295.76C345.76 295.705 344.597 296.233 340.645 297.52C339.23 297.715 337.427 297.043 336.07 297.03C335.729 297.028 330.685 297.787 330.8 297.635C329.758 299.035 329.297 302.453 328.432 303.775C325.25 307.713 323.405 313.273 320.765 317.208C317.403 322.223 310.858 328.807 306.618 333.005C301.645 337.927 296.627 343.73 290.667 347.123C285.247 350.208 279.44 352.658 273.905 355.52C271.755 356.6 269.36 357.165 267.222 358.362C266.552 359.402 268.174 364.032 268.107 366.08C266.876 366.764 260.834 369.093 260.755 369.147C255.59 373.397 251.007 373.265 244.929 375.262C244.826 376.745 244.846 377.115 243.659 378.065L243.004 377.447C243.082 377.154 243.146 376.96 243.179 376.792C243.235 376.512 243.208 376.305 243.033 375.83L239.331 376.887C235.891 375.695 235.14 376.685 232.141 376.41C229.075 376.127 223.682 375.042 220.852 374C219.195 374.707 217.119 377.055 215.898 375.472C214.903 373.18 215.546 367.747 215.634 365.005C215.442 364.68 215.306 364.378 214.828 364.36C209.698 364.163 204.928 363.965 200.232 361.788C198.478 362.24 196.634 362.755 194.795 362.442C187.614 361.222 183.169 360.125 176.743 356.713C169.732 352.988 162.186 349.965 156.138 344.485C154.299 342.818 151.66 341.48 149.956 339.532C146.119 335.482 143.539 330.44 139.576 326.442C139.001 325.865 137.758 324.457 137.304 323.812C132.925 317.587 129.445 310.607 126.99 303.402C125.865 300.147 123.752 296.843 122.555 293.565C121.241 289.843 119.71 285.807 118.926 281.965C118.205 279.112 118.321 275.383 117.689 272.628C115.885 264.76 115.94 257.72 116.931 249.758C117.251 247.189 116.053 243.896 116.54 241.031C117.082 237.848 117.703 234.587 118.284 231.4C120.08 217.257 122.508 204.028 128.015 190.813C129.078 188.263 132.2 183.551 133.729 181.013C143.836 164.243 155.956 151.048 171.318 138.893C176.59 135.219 183.912 130.702 189.915 128.471C195.963 126.222 202.799 124.946 209.027 122.486C215.424 119.96 224.694 118.767 231.521 118.262ZM260.861 362.537L260.86 362.536L260.861 362.537ZM260.641 361.642H260.642H260.641ZM259.771 361.236C259.898 361.282 260.021 361.329 260.139 361.381L259.772 361.236L258.962 360.97L259.771 361.236ZM235.987 353.685C236.128 353.707 236.269 353.74 236.411 353.787C236.269 353.74 236.128 353.707 235.987 353.685ZM175.733 351.992V351.993V351.992ZM177.811 351.873H177.812H177.811ZM187.192 351.639V351.638V351.639ZM180.244 350.755H180.243L180.415 351.07C180.365 351.107 180.312 351.141 180.256 351.174C180.2 351.206 180.142 351.236 180.08 351.264H180.081C180.205 351.208 180.316 351.144 180.415 351.07L180.244 350.755ZM259.339 348.378H259.34H259.339ZM260.324 347.049C260.153 347.146 260.015 347.232 259.888 347.329C260.015 347.232 260.153 347.146 260.324 347.049ZM272.625 340.601C272.504 340.638 272.376 340.67 272.244 340.695C272.443 340.657 272.63 340.606 272.804 340.541L272.625 340.601ZM268.673 339.806C269.008 339.898 269.354 339.994 269.703 340.083C269.354 339.994 269.008 339.898 268.673 339.806ZM218.088 338.018C217.596 338.175 217.091 338.312 216.617 338.44C217.091 338.312 217.596 338.175 218.088 338.018ZM272.446 327.666C272.535 327.695 272.622 327.727 272.706 327.762C272.79 327.798 272.871 327.837 272.95 327.88L272.142 328.327V328.328L272.95 327.88C272.793 327.794 272.625 327.724 272.447 327.666H272.446ZM305.521 319.596C305.446 319.681 305.37 319.765 305.291 319.847C305.448 319.682 305.6 319.511 305.738 319.337L305.521 319.596ZM306.017 318.936H306.016H306.017ZM245.168 317.618H245.169L244.759 317.543L245.168 317.618ZM287.406 313.544V313.545V313.544ZM174.861 312.429C174.768 312.547 174.681 312.673 174.598 312.804C174.681 312.673 174.768 312.547 174.861 312.429ZM302.836 312.512H302.837H302.836ZM137.779 311.95H137.78H137.779ZM303.38 312.075C303.496 311.758 303.547 311.46 303.551 311.171C303.549 311.315 303.535 311.462 303.507 311.612C303.493 311.687 303.476 311.763 303.455 311.841C303.433 311.918 303.408 311.996 303.379 312.075C303.318 312.136 303.256 312.193 303.196 312.246L303.38 312.075ZM191.049 311.605H191.05H191.049ZM246.621 311.005H246.622H246.621ZM139.481 309.048C139.218 309.432 138.898 309.934 138.591 310.452C138.898 309.934 139.218 309.432 139.481 309.048ZM248.206 308.548L248.257 308.828C248.094 308.97 247.946 309.102 247.805 309.229H247.806C247.947 309.102 248.095 308.97 248.258 308.828L248.207 308.548H248.206ZM140.024 308.352C139.986 308.375 139.915 308.453 139.822 308.573C139.915 308.453 139.986 308.375 140.024 308.352ZM292.101 308.384V308.385V308.384ZM294.384 307.368L294.385 307.367L294.384 307.368ZM304.364 306.825H304.363H304.364ZM304.386 306.608H304.387H304.386ZM255.349 299.825C255.107 300.123 254.808 300.463 254.473 300.815L254.947 300.3C255.094 300.133 255.229 299.974 255.35 299.825H255.349ZM318.974 298.95C319.238 299.05 319.458 299.151 319.654 299.257C319.458 299.151 319.238 299.05 318.975 298.95H318.974ZM189.703 299.379L189.704 299.38L190.485 299.203V299.202L189.703 299.379ZM188.273 297.409C188.48 297.58 188.692 297.755 188.914 297.92C188.692 297.755 188.48 297.58 188.273 297.409ZM160.999 295.987H161H160.999ZM163.572 293.63H163.573H163.572ZM292.844 293.202C292.602 293.415 292.41 293.599 292.238 293.754H292.239C292.411 293.6 292.603 293.415 292.845 293.203L292.844 293.202ZM141.376 292.515C140.817 292.564 140.221 292.622 139.64 292.732C140.221 292.622 140.817 292.564 141.376 292.515ZM178.405 286.623H178.404L177.682 287.843C177.656 288.019 177.636 288.16 177.618 288.283C177.636 288.16 177.656 288.019 177.682 287.843L178.405 286.623ZM269.901 287.393L269.9 287.392L269.901 287.393ZM171.821 286.456V286.457V286.456ZM318.36 285.009H318.359H318.36ZM318.941 283.59C318.929 283.704 318.896 283.838 318.845 283.987C318.896 283.838 318.931 283.704 318.943 283.59H318.941ZM127.412 281.41C127.446 281.262 127.478 281.165 127.498 281.069C127.478 281.165 127.446 281.262 127.412 281.41C127.293 281.507 127.168 281.591 127.038 281.665C126.82 281.788 126.588 281.883 126.341 281.962C125.356 282.276 124.157 282.326 122.902 282.865C122.651 282.973 122.397 283.1 122.143 283.253H122.144C124.178 282.03 126.148 282.442 127.412 281.41ZM297.872 281.6L297.639 281.624L297.64 281.625L297.873 281.6H297.872ZM298.905 280.274C298.695 280.415 298.492 280.559 298.297 280.701C298.492 280.559 298.695 280.415 298.905 280.274ZM302.166 278.531C302.208 278.557 302.269 278.594 302.365 278.645C302.173 278.541 302.122 278.498 302.081 278.479L302.166 278.531ZM216.964 278.179C216.917 278.234 216.868 278.289 216.818 278.343L216.965 278.179C217.013 278.123 217.059 278.066 217.103 278.01L216.964 278.179ZM193.304 276.465L193.173 276.812C192.767 277.016 192.39 277.192 192.009 277.36C192.39 277.192 192.768 277.016 193.174 276.812L193.304 276.465L193.041 276.242H193.04L193.304 276.465ZM216.83 277.36C216.713 277.499 216.593 277.646 216.473 277.796C216.593 277.646 216.713 277.499 216.83 277.36ZM217.626 276.915C217.586 277.172 217.485 277.422 217.343 277.66L217.442 277.479C217.532 277.297 217.596 277.108 217.626 276.915L217.405 276.685H217.404L217.626 276.915ZM316.158 274.008H316.157H316.158ZM125.366 270.157C125.325 270.308 125.276 270.448 125.219 270.579C125.134 270.775 125.03 270.951 124.912 271.112C124.833 271.219 124.747 271.32 124.656 271.415C124.564 271.51 124.467 271.599 124.365 271.684C124.007 271.985 123.589 272.237 123.146 272.509L123.147 272.51C124.159 271.89 125.044 271.362 125.367 270.157H125.366ZM317.123 271.522H317.124H317.123ZM241.142 271.373H241.141H241.142ZM186.395 270.314H186.396H186.395ZM242.208 269.865C242.086 269.967 241.963 270.075 241.839 270.188C241.963 270.075 242.086 269.967 242.208 269.865ZM187.551 269.173H187.552H187.551ZM189.946 265.862H189.945C189.839 265.996 189.74 266.125 189.646 266.249C189.364 266.622 189.132 266.955 188.924 267.262C188.647 267.67 188.413 268.033 188.164 268.385H188.165C188.663 267.681 189.101 266.932 189.946 265.862ZM191.147 265.243C191.119 265.257 191.09 265.268 191.06 265.277C191.12 265.258 191.176 265.233 191.23 265.194L191.147 265.243ZM191.259 264.549C191.314 264.592 191.39 264.657 191.514 264.753C191.494 264.811 191.472 264.863 191.45 264.909H191.451C191.473 264.863 191.495 264.811 191.515 264.753C191.328 264.608 191.249 264.534 191.191 264.498L191.259 264.549ZM273.017 263.162C273.184 263.223 273.358 263.276 273.546 263.321C273.358 263.276 273.184 263.223 273.017 263.162ZM137.612 262.565C137.722 262.597 137.734 262.609 137.785 262.602C137.734 262.609 137.722 262.597 137.612 262.565ZM379.385 260.975L379.384 260.974L379.385 260.975ZM120.956 260.302C120.829 260.426 120.699 260.58 120.563 260.768C120.699 260.58 120.829 260.426 120.956 260.302ZM134.701 252.027H134.702H134.701ZM351.659 250.721C351.392 250.903 351.127 251.09 350.873 251.286C350.745 251.384 350.621 251.485 350.499 251.588C350.318 251.742 350.145 251.901 349.984 252.068L350.149 251.904C350.599 251.471 351.126 251.085 351.659 250.721ZM182.372 250.221C182.582 250.069 182.799 249.909 183 249.741C182.799 249.909 182.582 250.069 182.372 250.221ZM183.849 248.655C183.81 248.799 183.738 248.941 183.641 249.079H183.642C183.738 248.941 183.811 248.799 183.85 248.655L183.696 248.529H183.695L183.849 248.655ZM293.112 247.744C292.998 247.757 292.856 247.77 292.692 247.782H292.693C292.857 247.77 292.999 247.757 293.113 247.744H293.112ZM291.045 247.225H291.046H291.045ZM255.424 246.098H255.425H255.424ZM284.774 239.038H284.773H284.774ZM349.412 236.896C349.061 237.133 348.547 237.334 348.081 237.511C347.849 237.599 347.628 237.68 347.447 237.758L347.448 237.759C348.039 237.508 349.037 237.205 349.536 236.806L349.412 236.896ZM176.43 233.196L176.431 233.198L176.502 232.799L176.43 233.196ZM179.165 230.622C179.105 230.696 178.995 230.79 178.849 230.901C178.461 231.197 177.828 231.612 177.262 232.076C177.121 232.192 176.984 232.311 176.856 232.431C177.69 231.646 178.905 230.941 179.165 230.622ZM288.065 225.637H288.063H288.065ZM305.82 225.109H305.821H305.82ZM286.653 225.257H286.654H286.653ZM302.788 224.355V224.356V224.355ZM305.902 223.642C305.814 223.58 305.716 223.537 305.597 223.512C305.716 223.537 305.814 223.58 305.902 223.642ZM243.531 223.141H243.532H243.531ZM187.818 221.721L187.817 221.72L187.818 221.721ZM189.679 220.787H189.68H189.679ZM274.336 206.675C274.105 206.78 273.883 206.88 273.695 206.974L273.492 207.17L273.493 207.171L273.695 206.974C273.883 206.881 274.105 206.78 274.336 206.675ZM273.886 206.326V206.327V206.326ZM241.446 196.163C241.291 196.298 241.129 196.437 240.971 196.588L240.972 196.589C241.13 196.438 241.291 196.298 241.446 196.163ZM241.881 195.762C241.98 195.66 242.07 195.557 242.147 195.449C242.07 195.557 241.98 195.66 241.881 195.762ZM242.404 194.848H242.405L241.898 194.722H241.897L242.404 194.848ZM244.482 185.687L243.907 185.892L244.482 185.688C244.723 185.533 244.923 185.398 245.104 185.28L244.482 185.687ZM204.472 183.981C204.327 184.132 204.195 184.294 204.05 184.495C204.195 184.294 204.327 184.132 204.472 183.981ZM177.031 176.18C176.735 176.87 176.499 177.581 176.199 178.235C176.07 178.515 175.93 178.785 175.768 179.038C175.66 179.206 175.543 179.368 175.414 179.519C176.193 178.609 176.523 177.363 177.031 176.18ZM271.118 172.817L271.117 172.816L271.118 172.817ZM263.203 170.802H263.202H263.203ZM271.65 169.975C271.578 170.134 271.517 170.294 271.463 170.454C271.544 170.213 271.643 169.976 271.765 169.737L271.65 169.975ZM265.286 169.225C265.491 169.145 265.69 169.086 265.885 169.039C265.69 169.086 265.491 169.145 265.286 169.225ZM272.385 168.767H272.384H272.385ZM267.947 167.795L268.237 168.376H268.238L267.948 167.795H267.947ZM171.878 166.884C171.825 167.009 171.788 167.088 171.741 167.155C171.789 167.088 171.825 167.009 171.878 166.884ZM172.067 165.771H172.068H172.067ZM172.453 165.463C172.58 165.492 172.726 165.514 172.887 165.529C172.726 165.514 172.58 165.492 172.453 165.463ZM173.318 164.93H173.319H173.318ZM187.354 164.275C187.294 164.334 187.229 164.39 187.158 164.441C187.265 164.364 187.36 164.279 187.44 164.183L187.354 164.275ZM301.932 163.616C301.663 163.757 301.412 163.875 301.166 163.972C301.412 163.875 301.663 163.757 301.932 163.616ZM302.053 163.554H302.055L301.937 163.34L302.053 163.554ZM195.424 159.811H195.425H195.424ZM178.987 150.855C178.908 150.954 178.82 151.042 178.725 151.125C178.82 151.042 178.908 150.954 178.987 150.855ZM266.221 151.275C266.043 151.28 265.856 151.295 265.657 151.324C265.856 151.295 266.043 151.28 266.221 151.275ZM178.948 149.489C179.188 149.783 179.167 149.87 179.305 150.251C179.273 150.35 179.237 150.44 179.197 150.523H179.198C179.238 150.44 179.274 150.349 179.306 150.251C179.168 149.87 179.189 149.783 178.949 149.489H178.948ZM299.356 149.771C299.223 149.911 299.081 150.035 298.926 150.159C299.081 150.035 299.223 149.911 299.356 149.771ZM299.907 148.984C299.878 149.04 299.849 149.093 299.82 149.143C299.761 149.245 299.702 149.338 299.641 149.425L299.732 149.29C299.791 149.197 299.85 149.095 299.908 148.984H299.907ZM193.738 147.026V147.027V147.026ZM196.456 146.721C196.762 146.706 197.063 146.681 197.366 146.624C197.063 146.681 196.762 146.706 196.456 146.721ZM284.195 145.839C283.968 145.952 283.824 146.033 283.718 146.087C283.824 146.033 283.968 145.952 284.195 145.839L284.372 145.338L284.195 145.839ZM224.775 144.166C224.28 144.286 223.85 144.377 223.462 144.437C223.721 144.397 223.998 144.343 224.301 144.276L224.776 144.166H224.775ZM219.722 143.592C219.921 143.593 220.09 143.601 220.258 143.619L220.002 143.599C219.914 143.595 219.822 143.592 219.722 143.592ZM198.882 140.322C198.797 140.422 198.706 140.509 198.603 140.595C198.706 140.509 198.797 140.422 198.882 140.322ZM194.721 132.229C194.802 132.249 194.884 132.266 194.967 132.281C194.884 132.266 194.802 132.249 194.721 132.229ZM193.848 131.837H193.849H193.848ZM198.931 131.001V131V131.001ZM238.259 126.446H238.258H238.259Z" fill="#A86750"/>
<path d="M271.386 367.438C275.628 366.118 282.436 368.588 286.096 370.75C292.431 374.493 301.41 384.602 303.705 391.527C304.908 395.082 302.908 398.993 304.003 402.5C304.118 402.875 304.348 404.29 304.203 404.638C302.458 408.86 300.885 415.905 297.652 418.987C293.997 422.47 290.092 423.848 285.268 422.463C283.655 423.133 282.595 423.713 281.062 424.558C276.44 424.22 273.003 424.321 268.508 425.873C267.635 425.011 267.22 424.253 266.013 424.315C263.425 424.448 261.323 426.11 258.685 425.298C258.283 425.193 257.162 425.037 256.701 424.962L256.7 424.963C254.356 426.27 253.875 424.79 252.011 425.077C249.381 425.484 243.146 425.117 240.797 425.573L240.582 425.62C239.496 425.68 237.44 425.94 236.574 425.53C235.446 425.548 234.808 425.802 233.73 426.09C231.304 426.74 229.665 425.965 227.365 425.23C228.178 424.401 230.144 424.395 229.932 423.062C229.946 423.151 229.949 423.234 229.945 423.312C229.943 423.351 229.939 423.388 229.933 423.425C229.863 423.824 229.545 424.073 229.143 424.279C228.851 424.429 228.515 424.556 228.197 424.701C227.88 424.846 227.581 425.009 227.364 425.23C226.454 425.038 225.942 425.053 225.013 425.365L224.396 425.592C221.411 426.641 219.777 426.436 216.536 426.4C212.59 426.358 213.087 427.752 209.657 425.098C207.695 425.568 205.674 425.978 203.82 426.763C201.948 426.158 200.494 425.737 198.741 424.808L195.694 426.163C193.779 425.881 192.005 425.25 190.095 424.897C185.04 423.967 180.211 422.315 175.311 420.775C174.746 418.188 173.383 413.392 173.941 411.015C176.781 398.93 180.41 393.937 190.454 386.75C193.018 384.915 195.568 382.997 198.254 381.345C201.156 379.56 211.634 374.62 214.788 375.407C215.132 375.495 215.337 375.582 215.699 375.527C215.767 375.517 215.832 375.493 215.898 375.473C217.119 377.055 219.195 374.707 220.852 374C223.683 375.042 229.076 376.128 232.142 376.41C235.14 376.685 235.89 375.695 239.33 376.888L243.033 375.83C243.313 376.59 243.213 376.665 243.005 377.447L243.66 378.065C244.847 377.115 244.826 376.745 244.93 375.263C251.008 373.265 255.59 373.397 260.755 369.147C260.81 369.102 266.874 366.765 268.107 366.08L271.386 367.438ZM222.294 425.042C222.19 425.054 222.087 425.065 221.984 425.072C222.19 425.057 222.399 425.032 222.604 425L222.294 425.042ZM223.721 424.771C223.486 424.828 223.206 424.892 222.908 424.947L223.2 424.891C223.389 424.851 223.565 424.809 223.721 424.771ZM237.62 423.723H237.621H237.62ZM229.43 422.454H229.431H229.43ZM261.577 421.964V421.965V421.964ZM262.402 421.092H262.403L262.708 420.798L262.402 421.092ZM244.694 417.866C244.141 418.189 243.604 418.542 243.065 418.922C242.796 419.112 242.527 419.31 242.254 419.514C241.981 419.717 241.706 419.927 241.426 420.145C241.383 420.085 241.352 420.035 241.327 419.988C241.352 420.035 241.383 420.086 241.426 420.146C242.547 419.277 243.587 418.513 244.694 417.866ZM210.238 418.229C209.876 418.321 209.623 418.386 209.428 418.422V418.423C209.623 418.387 209.876 418.322 210.238 418.23V418.229ZM208.773 418.387V418.386V418.387ZM258.837 416.18C258.994 416.272 259.195 416.414 259.31 416.487C259.294 416.581 259.276 416.666 259.253 416.744C259.185 416.977 259.082 417.146 258.945 417.311C258.854 417.42 258.747 417.528 258.625 417.65C258.503 417.773 258.365 417.911 258.212 418.082C258.085 418.099 258.063 418.104 258.02 418.092C258.063 418.104 258.085 418.1 258.213 418.083C258.825 417.398 259.19 417.24 259.31 416.487C259.158 416.39 258.85 416.17 258.7 416.107L258.837 416.18ZM277.721 417.407H277.72L277.475 417.748H277.476L277.721 417.407ZM246.887 416.793C246.418 416.979 245.971 417.183 245.54 417.403L245.977 417.189C246.271 417.05 246.574 416.917 246.887 416.793ZM248.619 416L248.368 416.287L248.369 416.288L248.62 416C248.578 415.945 248.505 415.844 248.432 415.748L248.619 416ZM230.336 414.254C230.212 414.383 230.088 414.523 229.967 414.676C230.088 414.523 230.212 414.383 230.336 414.254ZM225.369 411.53C225.052 412.355 224.794 412.698 224.348 413.202L224.557 412.961C224.882 412.57 225.105 412.218 225.37 411.53H225.369ZM258.939 411.447C258.461 411.473 257.998 411.518 257.696 411.549C257.998 411.518 258.461 411.473 258.939 411.447ZM263.685 411.39C263.567 411.452 263.441 411.508 263.301 411.558L263.502 411.479C263.566 411.451 263.627 411.421 263.685 411.39ZM265.57 409.379C265.525 409.493 265.464 409.631 265.38 409.817C265.09 410.124 264.855 410.387 264.641 410.611L264.642 410.612C264.856 410.388 265.09 410.124 265.38 409.817C265.464 409.631 265.526 409.494 265.571 409.38L265.57 409.379ZM260.354 409.826H260.353H260.354ZM265.7 408.765C265.696 408.827 265.692 408.882 265.686 408.934C265.704 408.779 265.709 408.59 265.723 408.28L265.7 408.765ZM242.21 407.53L242.207 407.87L240.902 408.838C240.77 408.885 240.716 408.909 240.676 408.918C240.716 408.909 240.771 408.885 240.903 408.838L242.207 407.87L242.211 407.53H242.21ZM264.708 407.632H264.709H264.708ZM187.752 400.845C188.496 401.787 188.845 404.061 188.009 404.941L188.01 404.942C188.846 404.062 188.497 401.787 187.753 400.845L187.368 400.735H187.367L187.752 400.845ZM211.661 403.367H211.66H211.661ZM289.277 402.375H289.278H289.277ZM213.525 400.917C213.416 401.184 213.301 401.425 213.181 401.645C213.301 401.425 213.416 401.185 213.525 400.918V400.917ZM277.631 396.287H277.63H277.631ZM278.68 395.851H278.679H278.68ZM208.722 390.558C207.891 391.485 206.502 392.586 205.155 392.619C206.502 392.586 207.892 391.486 208.723 390.558L208.65 390.305L208.722 390.558ZM204.358 392.503C204.451 392.534 204.545 392.558 204.64 392.576C204.545 392.558 204.451 392.534 204.358 392.503ZM203.536 392.147C203.573 392.16 203.61 392.174 203.646 392.188C203.552 392.152 203.456 392.12 203.357 392.092L203.536 392.147ZM205.244 391.759C205.456 391.786 205.677 391.812 205.908 391.837V391.838C205.446 391.788 205.026 391.731 204.628 391.675L205.244 391.759ZM202.278 391.392C202.515 391.408 202.743 391.429 202.968 391.453C202.743 391.429 202.515 391.408 202.278 391.392ZM289.051 390.166C288.881 390.295 288.687 390.42 288.491 390.54C288.687 390.42 288.881 390.295 289.051 390.166ZM289.577 389.567C289.541 389.669 289.474 389.77 289.383 389.87H289.384C289.475 389.77 289.542 389.669 289.578 389.567H289.577ZM198.95 386.212C198.724 386.301 198.507 386.397 198.306 386.507L198.307 386.508C198.508 386.398 198.724 386.301 198.95 386.212ZM202.498 384.965C202.427 385.014 202.35 385.059 202.268 385.104C202.185 385.148 202.097 385.189 202.005 385.229L202.006 385.23C202.19 385.15 202.356 385.062 202.498 384.965ZM202.95 384.442C202.937 384.477 202.921 384.51 202.903 384.542C202.85 384.639 202.779 384.728 202.692 384.81L202.774 384.726C202.85 384.639 202.91 384.545 202.951 384.442L202.778 384.271L202.95 384.442ZM215.131 381.77C214.631 381.802 214.203 381.828 213.775 381.841C214.203 381.828 214.631 381.802 215.131 381.77ZM214.343 381.229C214.404 381.235 214.466 381.241 214.527 381.249C214.466 381.241 214.404 381.235 214.343 381.229ZM277.127 379.298L277.053 380.615C276.785 380.848 276.955 380.767 276.51 380.77L276.511 380.771C276.955 380.768 276.785 380.848 277.053 380.615L277.128 379.298H277.127ZM244.734 379.189H244.733H244.734ZM279.16 378.854C279.033 378.914 278.904 378.968 278.77 379.015C278.637 379.061 278.5 379.101 278.356 379.135C278.213 379.169 278.063 379.198 277.905 379.222L278.137 379.183C278.512 379.111 278.842 379.005 279.16 378.854ZM244.178 378.901H244.179H244.178ZM280.622 377.532L280.532 377.902C280.389 378.026 280.252 378.14 280.119 378.244C279.986 378.348 279.858 378.442 279.73 378.527C279.985 378.357 280.247 378.151 280.533 377.902L280.623 377.532L280.05 377.138L280.622 377.532ZM275.907 371.63H275.908H275.907Z" fill="#4B4746"/>
</g>
<defs>
<clipPath id="clip0_79_12143">
<rect width="480" height="480" fill="white"/>
</clipPath>
</defs>
</svg>
