<svg width="480" height="480" viewBox="0 0 480 480" fill="none" xmlns="http://www.w3.org/2000/svg">
<g clip-path="url(#clip0_64_469)">
<path fill-rule="evenodd" clip-rule="evenodd" d="M225.421 100.61C226.855 100.259 230.887 101.11 232.615 100.943C238.539 100.368 243.997 100.922 249.865 101.648C254.012 102.112 258.65 101.24 262.845 101.716C265.1 101.971 266.81 102.566 268.975 103.178C271.015 103.809 274.454 103.698 276.352 104.36C281.657 106.21 287.645 107.348 292.91 108.903C297.095 110.139 301.735 112.93 305.82 114.481C311.847 116.769 316.6 119.683 321.62 123.646C325.052 126.307 328.897 127.432 330.499 132.296C331.004 133.7 331.425 133.248 332.41 133.722C335.225 135.076 339.517 139.576 341.212 142.134C343.842 146.099 346.195 149.806 348.807 153.736C350.327 156.022 351.122 159.252 352.182 161.78C353.912 166.777 357.19 173.014 358.222 178.073C359.297 183.34 359.393 188.101 361.193 193.387C362.07 195.96 361.462 203.654 361.735 206.694C361.902 208.547 360.11 215.38 359.515 217.464C363.845 215.536 371.617 212.456 376.217 213.015C381.287 213.631 389.165 215.695 393.733 218.133C394.392 218.486 400.113 223.45 400.832 224.246C406.162 230.134 407.04 237.605 406.57 245.273C406.347 248.9 404.96 252.76 403.76 256.228C402.36 260.28 400.513 265.185 398.273 268.822C396.61 271.517 393.99 273.647 391.58 275.68C390.637 276.473 388.074 279.255 387.33 279.747C384.262 281.775 379.764 285.153 376.58 286.728C374.542 287.738 371.2 288.807 368.842 289.867C366.587 290.88 363.122 292.323 360.757 293.13C358.555 293.88 352.51 293.7 350.225 294.983C349.843 295.195 349.13 298.012 348.892 298.667C346.745 304.609 343.738 310.782 341.023 316.485C339.78 319.097 337.57 321.873 336.243 324.193C330.698 333.895 324.315 341.055 315.712 348.12C312.46 350.793 308.754 353.715 305.289 356.21C304.582 356.72 302.07 357.27 301.065 357.865C299.815 358.61 298.085 359.868 296.785 360.483C292.94 362.3 287.66 364.36 283.44 364.952C282.642 365.065 279.245 364.782 278.325 364.712C278.307 366.207 278.277 367.56 278.19 369.055L277.98 369.398C275.4 369.718 271.812 369.272 269.155 369.15C269.034 369.143 268.104 369.743 267.91 369.898C267.454 370.855 264.972 372.475 263.86 373.42L264.03 372.638C264.178 371.957 264.29 371.348 264.232 370.606C264.227 370.538 264.22 370.469 264.212 370.4C264.045 370.119 263.931 369.951 263.816 369.829C263.739 369.748 263.661 369.688 263.565 369.631C263.42 369.545 263.234 369.464 262.948 369.325C261.445 369.838 259.623 369.83 258.045 369.787C254.435 369.69 251.01 370.33 247.446 370.73C246.718 370.812 245.643 370.2 244.97 369.883C242.023 371.075 242.63 371.157 239.49 371.617L238.539 371.815C238.334 371.859 238.134 371.903 237.984 371.939C237.833 371.974 237.732 372.002 237.722 372.013C237.302 372.471 236.985 373.039 236.649 373.512C236.537 373.67 236.421 373.816 236.3 373.945C235.815 374.463 235.222 374.692 234.227 374.152C233.923 373.453 233.961 373.815 234.193 373.023C234.872 372.27 235.786 372.132 236.766 372.162L236.617 372.327L236.903 372.162C236.018 372.12 235.224 372.065 234.371 371.797C232.467 371.73 231.942 372.977 229.094 371.935C228.927 371.876 224.513 372.457 223.776 372.483C217.634 372.675 212.143 370.513 206.25 369.268C204.945 368.995 201.922 370.087 200.604 369.3C199.933 367.08 199.884 365.173 199.812 362.865C195.329 361.513 191.328 360.65 186.861 358.568C173.696 352.43 161.663 343.635 151.085 333.73C150.387 333.077 145.672 327.758 145.385 327.135C143.243 322.497 139.728 320.647 136.573 316.855C133.673 313.527 132.352 309.765 130.367 305.96C128.311 302.018 126.701 299.112 125.21 294.902C117.611 295.43 105.614 293.542 99.1684 289.702C92.3547 285.64 83.0067 281.04 78.8823 274.042C77.9794 272.509 75.2468 268.875 74.7358 267.707C73.6529 265.235 73.6327 260.187 73.0727 257.4C71.9501 244.283 76.7605 230.757 84.9272 220.606C88.67 215.954 94.935 213.021 100.526 211.796C102.134 211.444 103.073 210.571 104.878 210.487C107.204 210.38 109.214 210.722 111.506 210.943C116.711 210.949 119.522 210.848 124.459 212.839C124.411 204.406 127.343 194.184 130.091 186.218C131.251 183.442 131.795 178.794 133.039 176.22C135.029 172.103 136.63 166.041 138.658 162.201C142.268 155.364 146.565 146.637 151.435 140.659C156.09 134.945 162.698 128.943 168.42 124.276C170.924 122.062 173.253 119.872 176.13 118.1C188.051 110.777 201.522 105.591 215.06 102.165C217.995 101.423 222.31 101.372 225.421 100.61ZM247.637 345.367C247.776 345.408 247.862 345.436 247.923 345.452C247.863 345.436 247.777 345.408 247.638 345.367C247.675 345.328 247.712 345.29 247.749 345.255C247.712 345.29 247.675 345.327 247.637 345.367ZM248.548 345.257V345.258V345.257ZM289.862 343.995L289.897 344.305H289.898L289.863 343.995L289.225 343.813L289.862 343.995ZM262.894 338.972C262.877 339.006 262.862 339.042 262.847 339.08H262.848C262.863 339.042 262.878 339.006 262.895 338.972H262.894ZM264.511 338.405C264.469 338.462 264.424 338.511 264.376 338.555C264.424 338.511 264.469 338.462 264.511 338.405ZM221.396 326.196H221.397H221.396ZM232.372 323.285L232.373 323.284L232.372 323.285ZM233.339 322.747C233.379 322.693 233.414 322.638 233.446 322.579V322.578C233.414 322.637 233.379 322.692 233.339 322.747ZM233.996 305.13C234.139 305.277 234.171 305.34 234.204 305.366L234.141 305.293C234.111 305.256 234.067 305.203 233.996 305.13ZM235.259 304.891V304.89V304.891ZM153.222 302.919C153.164 302.976 153.106 303.039 153.046 303.11C153.166 302.967 153.28 302.857 153.398 302.766L153.222 302.919ZM222.194 301.297C221.028 301.805 219.777 302.316 219.344 302.51C219.777 302.316 221.028 301.805 222.194 301.297ZM224.453 300.184H224.454H224.453ZM214.988 297.653H214.989H214.988ZM137.517 296.043C137.42 296.08 137.33 296.121 137.247 296.173C137.33 296.121 137.42 296.08 137.517 296.043ZM249.914 294.781C249.521 294.948 249.126 295.121 248.742 295.302C249.126 295.121 249.521 294.948 249.914 294.781ZM253.982 292.5H253.983H253.982ZM182.234 291.99C182.486 291.945 182.69 291.905 182.868 291.866C182.69 291.905 182.486 291.944 182.234 291.989L182.097 291.723L182.234 291.99ZM185.095 291.19C185.01 291.245 184.957 291.278 184.908 291.296C184.957 291.278 185.01 291.245 185.095 291.19ZM287.445 282.945C287.622 282.791 287.792 282.641 287.959 282.496C287.792 282.641 287.622 282.79 287.445 282.944L287.135 282.827L287.445 282.945ZM289.98 281.086H289.979H289.98ZM292.528 280.62H292.529H292.528ZM306.11 278.944H306.111H306.11ZM309.205 277.895H309.206H309.205ZM95.9897 269.557C95.7776 269.674 95.5727 269.783 95.393 269.887V269.888C95.5728 269.784 95.7775 269.674 95.9897 269.557ZM290.775 268.74L290.8 269.258L291.164 269.375L290.8 269.257L290.775 268.739V268.74ZM96.0453 268.762C95.9802 268.804 95.9171 268.848 95.8559 268.894C95.9171 268.848 95.9802 268.804 96.0453 268.762ZM260.885 268.677V268.678V268.677ZM262.033 268.159V268.16V268.159ZM190.485 264.685H190.486H190.485ZM278.093 257.599V257.598V257.599ZM304.88 255.258L304.879 255.257L304.88 255.258ZM306.942 254.36C306.845 254.465 306.742 254.553 306.631 254.629V254.63C306.742 254.554 306.846 254.465 306.943 254.36H306.942ZM112.593 253.438L112.376 253.832L112.594 253.438H112.593ZM289.239 250.73C288.951 250.86 288.651 250.979 288.387 251.105C288.651 250.979 288.951 250.86 289.239 250.73ZM289.9 250.373V250.374V250.373ZM303.705 250.006H303.706H303.705ZM328.294 249.367H328.295H328.294ZM234.77 247.738H234.771H234.77ZM352.08 245.672H352.081H352.08ZM238.018 240.45H238.019H238.018ZM367.325 235.067C367.202 235.123 367.127 235.161 367.075 235.187V235.188C367.127 235.162 367.202 235.123 367.325 235.067ZM278.45 233.407C278.075 233.646 277.819 233.807 277.611 233.967C277.819 233.807 278.075 233.646 278.45 233.407ZM97.6547 228.439C97.6755 228.46 97.6969 228.481 97.7192 228.5C97.697 228.481 97.6755 228.46 97.6547 228.439ZM239.026 226.376H239.027H239.026ZM240.682 214.425C240.503 214.49 240.315 214.54 240.123 214.584L240.408 214.513C240.501 214.487 240.592 214.457 240.682 214.425ZM241.162 213.666H241.163L241.011 213.606L241.162 213.666ZM305.831 199.105C305.753 199.155 305.673 199.205 305.591 199.253C305.509 199.301 305.425 199.347 305.339 199.393C305.169 199.484 304.994 199.57 304.819 199.652C304.293 199.899 303.762 200.108 303.345 200.291V200.292C304.11 199.955 305.256 199.534 306.058 198.949L305.831 199.105ZM306.761 198.242C306.678 198.372 306.575 198.496 306.456 198.613C306.575 198.496 306.678 198.372 306.761 198.242ZM199.967 184.617C199.84 184.842 199.717 185.066 199.604 185.293L199.781 184.954C199.842 184.842 199.904 184.73 199.967 184.617ZM278.45 182.956H278.451H278.45ZM276.749 183.213H276.75H276.749ZM337.41 182.181H337.411H337.41ZM292.205 178.06H292.206H292.205ZM342.715 176.848H342.716H342.715ZM306.58 172.258H306.581H306.58ZM308.729 171.771C308.479 171.881 308.207 171.968 307.937 172.048C308.207 171.968 308.479 171.881 308.729 171.771ZM210.314 171.68V171.679V171.68ZM315.187 163.155H315.188H315.187ZM307.13 153.51V153.511V153.51ZM308.369 152.809V152.81V152.809ZM195.982 146.021C195.958 146.066 195.937 146.112 195.915 146.158C195.958 146.065 196.005 145.975 196.057 145.889L195.982 146.021ZM199.472 144.414V144.415V144.414ZM282.044 132.468V132.467V132.468ZM257.241 132.219H257.242H257.241ZM279.209 131.877C279.6 131.929 279.921 131.958 280.217 131.991C279.921 131.958 279.6 131.929 279.209 131.877ZM279.798 131.3H279.799H279.798ZM239.595 121.523V121.524V121.523Z" fill="#EDC183"/>
<path fill-rule="evenodd" clip-rule="evenodd" d="M278.19 369.055C278.475 369.452 278.535 369.672 279.17 369.662C289.815 369.72 296.22 376.442 302.665 383.805C310.11 392.307 313.115 396.015 310.99 408.027C309.858 414.437 304.093 419.628 298.138 422.04C296.18 422.833 296.013 421.583 293.085 423.245C290.103 422.76 288.228 423.685 285.49 423.638C279.468 423.538 275.448 421.97 269.558 424.088C268.643 423.715 267.557 423.313 266.715 422.83C259.218 425.495 255.44 423.947 247.811 424.09C244.59 424.147 240.738 425.062 237.41 425.277C232.446 425.595 227.777 425.44 222.826 425.16C221.277 425.073 219.045 425.762 217.429 425.822C208.398 426.507 199.243 426.733 190.238 425.628C187.248 425.263 184.225 425.788 181.16 425.075C175.778 423.84 171.753 421.285 169.778 415.942C164.82 402.527 175.136 390.65 184.374 382.225C188.103 378.825 191.265 374.802 195.239 371.685C196.931 370.357 198.733 370.122 200.604 369.3C201.921 370.087 204.945 368.995 206.25 369.268C212.142 370.513 217.633 372.675 223.775 372.482C224.512 372.457 228.932 371.875 229.095 371.935C231.943 372.977 232.467 371.73 234.371 371.798C235.224 372.065 236.018 372.12 236.903 372.162L236.616 372.327L236.767 372.162C235.786 372.132 234.872 372.27 234.192 373.022C233.961 373.815 233.923 373.453 234.227 374.152C236.217 375.232 236.602 373.235 237.723 372.013C237.763 371.97 239.272 371.66 239.489 371.617C242.63 371.157 242.023 371.075 244.971 369.883C245.643 370.2 246.718 370.812 247.446 370.729C251.01 370.329 254.435 369.69 258.045 369.787C259.622 369.83 261.445 369.838 262.947 369.325C263.71 369.695 263.765 369.653 264.213 370.4C264.343 371.518 264.09 372.313 263.86 373.42C264.973 372.475 267.455 370.855 267.91 369.897C268.105 369.742 269.035 369.143 269.155 369.15C271.813 369.273 275.401 369.717 277.981 369.397L278.19 369.055ZM181.885 423.294C181.613 423.392 181.323 423.462 180.986 423.513C181.323 423.462 181.613 423.392 181.885 423.294ZM179.045 422.118C179.043 422.148 179.044 422.174 179.05 422.198C179.039 422.149 179.045 422.098 179.062 422.009L179.045 422.118ZM183.864 422.108V422.109V422.108ZM182.193 421.9V421.901V421.9ZM186.737 419.1C185.885 419.672 184.978 420.277 184.124 420.835C183.486 421.252 183.033 421.547 182.642 421.731L182.885 421.607C182.969 421.562 183.056 421.511 183.148 421.456C183.241 421.401 183.337 421.342 183.44 421.277C183.643 421.149 183.869 421.002 184.124 420.835C184.978 420.278 185.885 419.673 186.737 419.101L187.269 419.4L186.737 419.1ZM178.67 418.282H178.671H178.67ZM282.316 417.266H282.317H282.316ZM177.499 417.718H177.5H177.499ZM247.901 416.72H247.902H247.901ZM177.469 416.985H177.47H177.469ZM197.524 415.645C197.244 415.828 197.034 415.957 196.864 416.077C197.034 415.957 197.244 415.828 197.524 415.646V415.645ZM198.303 416.005H198.304H198.303ZM267.482 414.952V414.953V414.952ZM251.079 412.549V412.55V412.549ZM252.474 412.558C252.308 412.661 252.124 412.755 251.939 412.842C252.124 412.755 252.308 412.661 252.474 412.558ZM252.26 411.577V411.578V411.577ZM179.894 410.606C180.254 410.861 180.638 411.145 180.997 411.416C180.459 411.009 179.864 410.574 179.376 410.25L179.894 410.606ZM281.306 403.33C281.125 403.343 280.944 403.348 280.764 403.347C280.944 403.348 281.125 403.343 281.306 403.33ZM281.238 402.901C281.395 402.964 281.54 403.039 281.668 403.127C281.732 403.171 281.791 403.219 281.846 403.27H281.848C281.682 403.116 281.474 402.996 281.238 402.901ZM279.886 402.617C279.69 402.6 279.49 402.589 279.292 402.583C279.49 402.589 279.69 402.6 279.886 402.617ZM285.871 401.451C285.722 401.518 285.565 401.603 285.395 401.71L285.405 402.117L285.396 401.71C285.566 401.603 285.722 401.518 285.871 401.451ZM298.204 401.033C298.01 401.101 297.789 401.185 297.513 401.28L297.43 401.825H297.431L297.513 401.28C297.788 401.185 298.01 401.101 298.204 401.033ZM281.51 397.747C280.933 398.009 280.288 398.213 279.846 398.574C279.948 398.491 280.06 398.416 280.181 398.347C280.341 398.254 280.515 398.172 280.694 398.094C280.963 397.977 281.245 397.869 281.511 397.748L281.914 397.872H281.915L281.51 397.747ZM193.04 386.066H193.041H193.04Z" fill="#4B4746"/>
</g>
<defs>
<clipPath id="clip0_64_469">
<rect width="480" height="480" fill="white"/>
</clipPath>
</defs>
</svg>
