<svg width="30" height="30" viewBox="0 0 30 30" fill="none" xmlns="http://www.w3.org/2000/svg">
<path d="M13.3915 0.0627979C13.2455 -0.0209506 13.0657 -0.020839 12.9198 0.0630906L1.0053 6.91543C0.692394 7.09539 0.690093 7.54442 1.00114 7.72755L12.9156 14.7423C13.0636 14.8295 13.2475 14.8296 13.3957 14.7426L25.3445 7.72785C25.6562 7.54485 25.6539 7.09497 25.3404 6.91514L13.3915 0.0627979Z" fill="#ED4E01"/>
<path d="M0.710495 8.33374L12.6479 15.2595C12.7944 15.3445 12.8846 15.5015 12.8846 15.6715L12.8843 29.5237C12.8843 29.8899 12.4897 30.1187 12.1741 29.9356L0.236691 23.0096C0.0902206 22.9246 -3.46036e-06 22.7676 0 22.5977L0.00028208 8.74568C0.000289537 8.37949 0.394855 8.15064 0.710495 8.33374Z" fill="#ED4E01"/>
<path d="M24.947 21.6772C24.947 21.9507 24.8017 22.2036 24.5655 22.3415L16.2103 27.219C15.6975 27.5184 15.0533 27.1485 15.0533 26.5547L15.0531 16.7842C15.0531 16.5107 15.1983 16.2578 15.4345 16.1199L23.7897 11.2425C24.3025 10.9431 24.9468 11.313 24.9468 11.9068L24.947 21.6772ZM13.6541 16.3426V29.5279C13.6541 29.8852 14.0308 30.1106 14.3391 29.9444L14.3538 29.9362L25.5769 23.3654C26.25 22.9808 26.3462 22.6924 26.3459 22.1188L26.3459 8.93378C26.3459 8.57084 25.9572 8.344 25.6462 8.52548L14.4231 15.0001C14.0385 15.2885 13.6539 15.577 13.6541 16.3426Z" fill="#ED4E01"/>
<path d="M25.9616 10.58L15.2113 28.4616L14.2308 27.8817L24.981 10.0001L25.9616 10.58Z" fill="#ED4E01"/>
</svg>
