<svg preserveAspectRatio="none" width="100%" height="100%" overflow="visible" style="display: block;" viewBox="0 0 22 16" fill="none" xmlns="http://www.w3.org/2000/svg">
<g id="Group 39528">
<path id="Vector" d="M11.1556 0C12.02 0.322271 12.1823 0.570147 12.7222 1.30284C13.4117 2.18127 13.4117 2.18127 14.4977 2.46291C15.5985 2.27479 16.6018 1.97377 17.6505 1.58728C18.4463 1.39969 18.9431 1.468 19.7197 1.71333C20.2767 2.28444 20.2767 2.28444 20.3094 2.84216C20.1489 4.40278 19.8389 5.33627 18.8842 6.56776C19.2706 7.46904 19.7208 8.05226 20.416 8.72727C21.922 10.1962 21.922 10.1962 22 11.3151C21.9478 11.9933 21.9478 11.9933 21.6693 12.2789C19.6252 12.4842 17.7537 12.0892 15.7858 11.565C15.5194 11.4969 15.253 11.4288 14.9786 11.3586C14.3301 11.1924 13.6825 11.0232 13.0355 10.8511C12.967 11.0499 12.8984 11.2486 12.8278 11.4534C12.425 12.4053 11.9151 13.2054 11.3471 14.0636C11.1486 14.3654 10.95 14.6673 10.7455 14.9782C10.2505 15.7055 10.2505 15.7055 9.97197 15.9911C9.50793 16.0027 9.04346 16.0033 8.57943 15.9911C7.87744 14.5188 7.57338 13.1759 7.36096 11.5516C7.156 10.7268 7.05747 10.4467 6.35137 9.99442C5.61035 9.90825 4.9174 9.8613 4.17554 9.85164C2.65666 9.83155 1.54337 9.73042 0.224215 8.8522C-0.0542918 7.99554 -0.0542918 7.99554 0.119775 7.28165C0.596494 6.39295 1.02074 6.17029 1.89526 5.7111C2.62369 5.52809 2.62369 5.52809 3.39332 5.4155C3.67281 5.36673 3.95231 5.31796 4.24027 5.26771C4.82366 5.17068 5.40833 5.08143 5.99399 5C6.84458 4.84352 7.53104 4.68821 8.30093 4.28332C8.89533 3.3807 9.14048 2.47008 9.41495 1.42777C9.82768 0.437382 10.0371 0 11.1556 0Z" fill="var(--fill-0, #DFBB3C)"/>
<path id="Vector_2" d="M11.1556 0C12.02 0.322271 12.1823 0.570147 12.7222 1.30284C13.4117 2.18127 13.4117 2.18127 14.4977 2.46291C15.5985 2.27479 16.6018 1.97377 17.6505 1.58728C18.4463 1.39969 18.9431 1.468 19.7197 1.71333C20.2767 2.28444 20.2767 2.28444 20.3094 2.84216C20.1489 4.40278 19.8389 5.33627 18.8842 6.56776C19.2706 7.46904 19.7208 8.05226 20.416 8.72727C21.922 10.1962 21.922 10.1962 22 11.3151C21.9478 11.9933 21.9478 11.9933 21.6693 12.2789C19.6252 12.4842 17.7537 12.0892 15.7858 11.565C15.5194 11.4969 15.253 11.4288 14.9786 11.3586C14.3301 11.1924 13.6825 11.0232 13.0355 10.8511C12.967 11.0499 12.8984 11.2486 12.8278 11.4534C12.425 12.4053 11.9151 13.2054 11.3471 14.0636C11.1486 14.3654 10.95 14.6673 10.7455 14.9782C10.2505 15.7055 10.2505 15.7055 9.97197 15.9911C9.50793 16.0027 9.04346 16.0033 8.57943 15.9911C7.87744 14.5188 7.57338 13.1759 7.36096 11.5516C7.156 10.7268 7.05747 10.4467 6.35137 9.99442C5.61035 9.90825 4.9174 9.8613 4.17554 9.85164C2.65666 9.83155 1.54337 9.73042 0.224215 8.8522C-0.0542918 7.99554 -0.0542918 7.99554 0.119775 7.28165C0.596494 6.39295 1.02074 6.17029 1.89526 5.7111C2.62369 5.52809 2.62369 5.52809 3.39332 5.4155C3.67281 5.36673 3.95231 5.31796 4.24027 5.26771C4.82366 5.17068 5.40833 5.08143 5.99399 5C6.84458 4.84352 7.53104 4.68821 8.30093 4.28332C8.89533 3.3807 9.14048 2.47008 9.41495 1.42777C9.82768 0.437382 10.0371 0 11.1556 0ZM10.8075 2.56999C10.7343 2.84938 10.7343 2.84938 10.6595 3.13441C10.2729 4.21817 9.91928 5.12152 8.91166 5.72894C7.6328 6.31784 6.30393 6.7402 4.95884 7.13887C4.95884 7.2331 4.95884 7.32734 4.95884 7.42443C5.12363 7.44909 5.28841 7.47375 5.45819 7.49916C6.52991 7.69455 7.33822 7.91332 8.26611 8.5131C9.18337 9.9238 9.40339 11.4841 9.69346 13.1355C10.5212 12.3353 11.146 11.6212 11.73 10.6191C12.0804 10.1071 12.0804 10.1071 12.4785 9.70887C14.0598 9.43407 15.2812 9.84958 16.7834 10.3558C17.85 10.6716 18.8935 10.7597 19.9982 10.8511C19.7435 10.5412 19.4881 10.232 19.2323 9.92303C19.0812 9.73898 18.93 9.55493 18.7743 9.36531C18.3161 8.81304 18.3161 8.81304 17.6483 8.28109C17.2132 7.70998 17.2132 7.70998 17.2306 6.71054C17.4816 5.74945 17.724 5.31615 18.3272 4.56888C18.4307 4.19105 18.5251 3.81032 18.6057 3.42666C18.3526 3.4885 18.3526 3.4885 18.0944 3.55159C13.8772 4.50949 13.8772 4.50949 12.509 3.67763C12.1106 3.32767 11.7355 2.95033 11.3645 2.56999C11.1807 2.56999 10.9969 2.56999 10.8075 2.56999Z" fill="var(--fill-0, #2D1909)"/>
</g>
</svg>
