<svg preserveAspectRatio="xMidYMid meet" width="100%" height="100%" overflow="visible" style="display: block;" viewBox="0 0 1423.95 502.676" fill="none" xmlns="http://www.w3.org/2000/svg">
<g id="Group 39527" opacity="0.08">
<path id="Vector" d="M227.416 51.1544C227.724 51.3024 228.031 51.4505 228.348 51.603C227.447 53.7619 226.759 55.0367 224.899 56.4895C222.559 58.3789 221.266 60.7409 219.816 63.3436C219.553 63.8001 219.29 64.2567 219.019 64.727C217.168 67.9701 216.335 70.2671 216.314 74.0746C216.302 75.1122 216.302 75.1122 216.289 76.1708C216.241 77.9995 216.241 77.9995 217.618 79.1223C218.073 78.6534 218.528 78.1845 218.997 77.7014C220.986 75.751 222.226 74.7535 224.995 74.6728C227.182 74.7229 227.684 74.885 229.54 76.2432C230.779 77.9924 231.328 78.7844 231.328 80.917C230.732 83.123 230.732 83.123 229.54 85.1047C225.932 86.9537 222.126 86.1801 218.214 85.703C216.693 90.7439 217.094 96.4269 219.274 101.178C220.327 103.022 221.527 104.501 222.983 106.043C223.518 105.34 223.518 105.34 224.063 104.622C225.438 102.968 226.381 101.967 228.55 101.655C232.628 101.593 232.628 101.593 234.719 102.716C235.929 105.087 235.531 107.104 234.905 109.633C234.309 111.091 234.309 111.091 233.117 112.026C231.348 112.571 229.577 112.93 227.752 113.222C230.75 115.82 233.333 117.186 237.163 118.174C238.855 118.729 239.797 119.586 240.866 120.999C238.148 122.743 235.761 122.066 232.721 121.535C229.037 120.543 226.529 118.548 223.84 115.914C222.799 114.098 222.792 112.892 222.983 110.829C222.626 110.673 222.268 110.518 221.9 110.357C218.158 108.274 216.098 103.552 214.582 99.7196C213.431 95.348 213.54 90.5502 214.442 86.1376C214.789 84.5444 214.789 84.5444 214.065 83.4128C213.787 83.1321 213.509 82.8514 213.222 82.5622C210.39 79.5847 210.872 76.4708 210.936 72.5743C211.225 64.762 216.409 58.6488 221.791 53.3978C223.569 52.0049 225.073 50.9132 227.416 51.1544ZM221.567 79.384C221.051 79.8899 220.535 80.3958 220.003 80.917C221.741 82.1037 222.461 82.1061 224.622 81.8892C225.581 81.7041 225.581 81.7041 226.56 81.5153C226.756 80.5282 226.953 79.541 227.156 78.524C224.683 77.7558 223.519 77.7237 221.567 79.384ZM227.752 105.445C227.555 106.63 227.358 107.814 227.156 109.034C228.894 109.184 228.894 109.184 230.732 109.034C232.09 107.35 232.09 107.35 231.924 105.445C230.547 105.445 229.17 105.445 227.752 105.445Z" fill="var(--fill-0, #2D1909)"/>
<path id="Vector_2" d="M1381.81 209.337C1386.35 209.454 1388.24 209.928 1391.46 214.627C1392.24 216.188 1393 217.771 1393.74 219.373C1394.14 220.18 1394.54 220.987 1394.95 221.818C1395.92 223.797 1396.86 225.801 1397.81 227.81C1401.39 226.948 1404.43 225.536 1407.74 223.458C1411.59 221.231 1414.6 219.685 1418.81 220.705C1420.74 222.392 1420.74 222.392 1421.81 224.968C1421.34 232.349 1418.82 235.568 1415.3 240.648C1413.4 243.609 1413.4 243.609 1413.81 249.124C1415.22 251.456 1415.22 251.456 1417.12 253.387C1422.33 259.381 1422.33 259.381 1423.81 263.334C1423.99 267.952 1423.99 267.952 1423.81 271.859C1420.03 273.882 1417.85 272.573 1414.18 270.527C1408.49 267.636 1403.78 267.059 1397.81 267.597C1397.54 269.307 1397.27 271.018 1397 272.781C1396.64 275.02 1396.29 277.259 1395.93 279.497C1395.76 280.625 1395.58 281.754 1395.4 282.916C1395.23 283.997 1395.05 285.078 1394.88 286.191C1394.72 287.188 1394.56 288.185 1394.4 289.213C1393.81 291.753 1393.81 291.753 1391.81 294.595C1389.37 294.684 1389.37 294.684 1386.81 293.174C1383.8 285.855 1383.24 278.781 1382.81 270.439C1381.78 271.464 1380.76 272.49 1379.7 273.547C1378.34 274.88 1376.98 276.212 1375.62 277.543C1374.94 278.221 1374.27 278.899 1373.58 279.597C1367.34 285.649 1367.34 285.649 1362.81 284.648C1361.55 280.455 1361.79 279.001 1363.02 274.679C1363.59 273.163 1364.16 271.646 1364.74 270.083C1365.31 268.552 1365.87 267.021 1366.46 265.443C1366.9 264.278 1367.35 263.113 1367.81 261.913C1366.97 261.638 1366.14 261.363 1365.29 261.08C1364.2 260.71 1363.11 260.34 1361.99 259.959C1360.37 259.415 1360.37 259.415 1358.72 258.86C1355.81 257.65 1355.81 257.65 1352.81 254.808C1352.74 251.611 1352.74 251.611 1353.81 247.703C1359.32 242.4 1365.3 241.185 1371.81 240.598C1372.14 242.474 1372.47 244.35 1372.81 246.282C1370.33 248.392 1370.33 248.392 1367.81 250.545C1369.23 251.161 1369.23 251.161 1370.68 251.788C1373.81 253.387 1373.81 253.387 1375.81 256.229C1375.43 260.581 1375.43 260.581 1374.81 264.755C1374.81 265.224 1374.81 265.693 1374.81 266.176C1375.86 265.238 1376.91 264.3 1377.99 263.334C1381.42 260.278 1382.3 260.492 1386.81 260.492C1387.8 266.119 1388.79 271.746 1389.81 277.543C1390.24 275.287 1390.67 273.03 1391.12 270.705C1392.81 261.868 1392.81 261.868 1395.81 259.071C1398.87 258.655 1398.87 258.655 1402.37 258.804C1404.1 258.862 1404.1 258.862 1405.87 258.921C1406.84 258.97 1407.81 259.02 1408.81 259.071C1409.47 259.071 1410.13 259.071 1410.81 259.071C1409.84 258.104 1408.87 257.137 1407.87 256.14C1405.05 252.857 1404.82 252.05 1403.93 246.637C1403.81 242.019 1403.81 242.019 1403.81 240.598C1402.61 240.979 1401.41 241.36 1400.18 241.753C1397.65 242.218 1396.29 242.378 1394.01 240.682C1391.46 237.684 1389.64 234.555 1387.81 230.652C1386.82 233.465 1385.83 236.279 1384.81 239.177C1383.82 239.177 1382.83 239.177 1381.81 239.177C1380.67 235.939 1380.68 234.108 1380.67 230.513C1380.67 228.805 1380.67 228.805 1380.67 227.063C1380.67 225.874 1380.68 224.684 1380.68 223.458C1380.67 221.665 1380.67 221.665 1380.67 219.836C1380.68 210.938 1380.68 210.938 1381.81 209.337Z" fill="var(--fill-0, #2D1909)"/>
<path id="Vector_3" d="M40.0551 278.964C43.1586 280.568 43.7414 281.801 45.6801 285.447C48.1555 289.818 48.1555 289.818 52.0551 291.22C56.0077 290.284 59.6098 288.786 63.3754 286.863C66.2328 285.929 68.0164 286.269 70.8051 287.49C72.8051 290.332 72.8051 290.332 72.9222 293.107C72.346 300.873 71.233 305.518 67.8051 311.646C69.1924 316.131 70.809 319.033 73.3051 322.392C78.7127 329.702 78.7127 329.702 78.9926 335.27C78.8051 338.644 78.8051 338.644 77.8051 340.065C70.4655 341.087 63.746 339.122 56.6801 336.513C55.7236 336.174 54.7671 335.835 53.7816 335.486C51.4533 334.659 49.1281 333.817 46.8051 332.961C46.5589 333.95 46.3126 334.939 46.059 335.958C44.613 340.695 42.782 344.676 40.7426 348.946C40.0297 350.448 39.3169 351.95 38.5824 353.498C36.8051 357.117 36.8051 357.117 35.8051 358.538C34.1389 358.596 32.4712 358.599 30.8051 358.538C28.2845 351.212 27.1928 344.529 26.4301 336.446C25.6941 332.342 25.3404 330.948 22.8051 328.698C20.1444 328.269 17.6563 328.035 14.9926 327.987C9.53894 327.887 5.54159 327.384 0.805061 323.014C-0.194939 318.751 -0.194939 318.751 0.430061 315.199C2.14175 310.776 3.66504 309.668 6.80506 307.383C9.42054 306.473 9.42054 306.473 12.184 305.912C13.1875 305.67 14.191 305.427 15.225 305.177C17.3197 304.694 19.419 304.25 21.5219 303.845C24.576 303.066 27.0407 302.293 29.8051 300.279C31.9393 295.787 32.8195 291.256 33.8051 286.069C35.287 281.141 36.039 278.964 40.0551 278.964ZM38.8051 291.753C38.5421 293.143 38.5421 293.143 38.2738 294.561C36.8856 299.954 35.6159 304.45 31.9979 307.472C27.4061 310.403 22.6347 312.504 17.8051 314.488C17.8051 314.957 17.8051 315.426 17.8051 315.909C18.3967 316.032 18.9884 316.155 19.598 316.281C23.4461 317.253 26.3484 318.342 29.6801 321.327C32.9735 328.346 33.7636 336.11 34.8051 344.328C37.7771 340.346 40.0205 336.793 42.1176 331.806C43.3754 329.258 43.3754 329.258 44.8051 327.277C50.4828 325.909 54.8683 327.977 60.2621 330.496C64.0915 332.068 67.8385 332.506 71.8051 332.961C70.8906 331.419 69.9734 329.88 69.0551 328.343C68.5124 327.427 67.9697 326.511 67.4105 325.567C65.7654 322.819 65.7654 322.819 63.3676 320.172C61.8051 317.33 61.8051 317.33 61.8676 312.357C62.7691 307.574 63.6393 305.418 65.8051 301.7C66.1768 299.819 66.5158 297.925 66.8051 296.016C65.8963 296.323 65.8963 296.323 64.9691 296.637C49.8272 301.404 49.8272 301.404 44.9144 297.265C43.484 295.523 42.137 293.645 40.8051 291.753C40.1451 291.753 39.4851 291.753 38.8051 291.753Z" fill="var(--fill-0, #2D1909)"/>
<path id="Vector_4" d="M1129.8 382.694C1131.12 382.694 1132.44 382.694 1133.8 382.694C1132.87 394.859 1130.26 405.562 1126.74 416.708C1124.11 425.197 1122.57 433.177 1121.8 442.374C1122.46 442.374 1123.12 442.374 1123.8 442.374C1124.59 441.261 1125.37 440.147 1126.18 439C1129.77 433.895 1132.35 432.02 1137.43 431.984C1138.21 431.96 1138.98 431.936 1139.78 431.912C1140.45 432.082 1141.12 432.252 1141.8 432.428C1143.8 436.691 1143.8 436.691 1143.68 440.687C1142.39 447.387 1140.31 451.955 1136.55 456.406C1132.79 458.598 1129.86 458.298 1125.8 458.005C1125.45 467.38 1125.76 475.775 1130.28 483.149C1133.9 487.818 1137.69 490.85 1142.2 493.451C1143.8 494.95 1143.8 494.95 1144.59 497.87C1144.66 498.782 1144.73 499.694 1144.8 500.634C1143.8 502.055 1143.8 502.055 1140.87 502.676C1135.34 502.515 1130.99 498.334 1126.8 493.529C1120.54 483.113 1118.52 474.28 1119.13 460.758C1119.06 456.401 1119.06 456.401 1116.86 453.182C1114.24 448.466 1113.98 444.355 1113.8 438.556C1113.77 437.54 1113.74 436.524 1113.7 435.478C1113.55 426.414 1114.86 420.403 1117.8 412.534C1118.45 410.648 1119.08 408.759 1119.72 406.867C1126.11 387.994 1126.11 387.994 1129.8 382.694ZM1130.8 442.374C1128.38 446.118 1128.38 446.118 1127.8 450.9C1131.83 450.501 1133.55 449.787 1136.68 446.016C1139.02 442.798 1139.02 442.798 1138.8 439.533C1134.99 439.533 1133.85 439.583 1130.8 442.374Z" fill="var(--fill-0, #2D1909)"/>
<path id="Vector_5" d="M1291.81 0.456287C1296.53 3.08899 1301.6 6.03112 1304.81 11.824C1305.65 21.0075 1305.65 21.0075 1303.82 25.7283C1301.56 29.772 1299.32 33.1324 1295.81 34.5593C1289.32 35.3024 1285.45 33.9937 1280.06 28.5202C1278.02 24.4725 1277.38 20.9819 1276.81 16.0868C1278.08 10.3519 1279.42 5.64387 1282.81 1.87725C1285.83 -0.271828 1288.54 -0.315075 1291.81 0.456287ZM1287.06 11.824C1285.15 16.1653 1285.42 19.6241 1285.81 24.6126C1289.08 27.7157 1290.01 28.2257 1293.81 27.4545C1296.68 24.851 1298.44 23.1912 1299.62 18.5735C1299.68 17.7529 1299.74 16.9323 1299.81 16.0868C1293.51 11.1734 1293.51 11.1734 1287.06 11.824Z" fill="var(--fill-0, #2D1909)"/>
<path id="Vector_6" d="M200.012 467.807C201.93 469.373 201.93 469.373 204.805 472.215C205.666 487.494 205.666 487.494 202.43 492.996C198.173 498.469 195.17 498.26 189.578 498.208C185.57 497.606 183.782 495.893 180.805 492.108C179.198 487.54 179.332 482.853 179.805 477.898C183.962 466.507 191.494 462.88 200.012 467.807ZM188.805 475.057C188.475 478.808 188.145 482.559 187.805 486.424C190.523 489.183 192.102 490.71 195.493 490.598C197.892 489.533 197.892 489.533 199.18 486.779C199.943 482.874 199.561 480.343 198.805 476.477C195.37 475.59 192.314 475.057 188.805 475.057Z" fill="var(--fill-0, #2D1909)"/>
</g>
</svg>
