<svg width="480" height="480" viewBox="0 0 480 480" fill="none" xmlns="http://www.w3.org/2000/svg">
<g clip-path="url(#clip0_64_3024)">
<path fill-rule="evenodd" clip-rule="evenodd" d="M243.264 309.293C245.726 311.799 242.496 322.862 240.824 325.572C239.7 327.395 238.173 329.17 237.062 330.878C232.289 338.24 226.53 340.84 218.511 343.287C212.007 345.272 213.593 344.9 206.979 344.122C199.631 343.26 197.803 342.372 191.645 338.64C190.824 338.155 190.018 337.568 189.232 337.021C189.3 336.061 190.309 328.823 191.981 329.37C198.923 331.663 205.846 335.798 213.457 334.678C216.461 334.13 221.044 333.63 223.72 332.195C227.96 329.925 233.216 325.12 235.547 320.91C237.735 316.96 239.252 312.55 242.405 309.327L242.643 309.088L243.264 309.293ZM179.495 246.1C181.623 246.31 182.517 247.898 183.699 249.465C182.782 252.388 184.377 264.962 184.809 268.8C184.838 269.06 185.829 271.778 186.01 272.348C186.07 272.363 186.13 272.375 186.189 272.39L186.486 272.468C189.154 273.128 195.133 276.002 196.786 277.975C197.13 279.512 194.874 283.652 193.569 284.268C193.158 284.078 192.781 283.848 192.399 283.603C190.024 283.532 182.463 282.478 181.035 283.31C179.519 284.192 178.496 285.8 178.074 287.478C177.408 290.128 178.039 293.263 179.543 295.525C185.172 304 196.2 295.923 202.782 297.183C203.22 297.825 203.063 298.693 203.028 299.513C202.542 301.193 201.595 302.787 200.368 304.045C188.348 316.38 175.901 314.892 169.325 298.282L169.397 297.99C170.527 293.088 169.533 289.827 171.646 284.76C172.651 282.35 177.934 275.4 177.975 274.372C178.38 264.132 173.164 255.627 179.495 246.1ZM231.065 247.094C238.044 246.724 243.46 246.947 250.282 248.835C253.337 249.68 254.417 251.442 255.765 253.997C255.47 255.467 255.17 257.397 254.475 258.67C253.017 259.572 246.045 257.51 243.875 257.405C242.712 257.35 241.386 257.358 240.225 257.343C240.034 258.395 241.401 261.14 241.366 261.982C241.176 266.55 240.834 271.873 238.809 275.99C237.315 279.025 234.03 283.085 231.003 284.13C229.293 284.3 228.368 284.307 226.643 284.265C220.633 280.657 222.741 278.43 222.178 272.353C222.102 271.54 221.536 270.005 221.242 269.183C222.491 266.483 226.676 258.387 228.358 256.335C222.693 256.29 217.182 257.332 211.558 257.367C211.357 257.222 211.156 257.08 210.955 256.935C209.79 254.692 213.904 250.15 215.571 248.803C219.354 248.7 227.131 247.622 231.065 247.094ZM140.868 247.562C142.707 247.56 144.843 248.554 146.921 248.675C152.162 248.981 174.204 249.999 168.926 259.94C167.651 262.34 164.609 260.95 163.313 261.525C160.03 262.978 161.754 270.04 160.427 272.883C159.441 275.108 158.262 276.95 157.142 279.022C155.337 282.135 153.666 282.995 150.407 284.09L147.406 283.192C145.468 280.755 144.736 277.36 143.52 274.282C144.064 271.975 144.04 269.722 144.393 267.41C144.893 264.135 146.171 260.917 147.312 257.81C144.437 256.882 142.142 256.705 139.248 256.16C133.701 255.118 137.527 249.009 140.868 247.562ZM354.402 239.227C355.405 239.237 357.27 239.804 357.075 241.001C355.79 248.887 345.635 252.328 340.915 258.503C343.615 258.93 345.618 259.177 348.49 259.207C354.46 259.272 359.817 258.448 365.185 261.765C365.955 262.24 366.042 262.71 366.162 263.447C365.485 265.567 362.97 266.555 361.225 267.673C358.092 269.68 354.945 269.992 351.313 270.055C349.003 270.132 346.62 270.16 344.308 270.095C336.605 269.88 328.95 271.273 323.06 265.348C327.397 257.265 332.56 254.185 339.928 249.266C343.875 246.63 350.177 240.832 354.402 239.227ZM239.107 198.077C245.422 198.64 249.108 198.673 253.942 203.371C256.542 205.899 256.797 206.912 257.545 210.489C257.87 212.05 259.685 214.796 259.46 216.595C258.923 220.63 259.645 226.121 256.758 229.396C255.093 231.285 253.496 226.385 253.19 225.759C252.07 223.458 251.195 219.948 249.79 217.949C248.175 215.654 246.416 214.549 245.071 211.858C241.659 209.781 240.078 209.619 237.079 207.926C234.901 208.68 232.666 209.386 230.61 210.42C229.561 211.036 228.758 211.51 227.867 212.367C223.533 216.613 221.037 222.388 220.913 228.454C222.266 230.31 222.821 232.169 220.886 234.074C219.046 235.886 216.992 235.595 214.577 235.538L214.525 235.245C212.785 224.908 215.464 217.432 221.493 209.233C226.171 202.872 231.298 199.371 239.107 198.077ZM162.695 200.065C170.644 199.364 175.763 204.231 177.79 211.634C178.871 215.582 178.031 231.077 174.162 232.621C172.481 231.553 171.296 226.388 171.058 224.518C170.266 218.288 168.82 212.894 162.985 209.505C157.812 208.216 148.085 213.893 148.521 219.144C149.574 219.836 150.537 220.215 150.736 221.498C149.971 223.132 148.003 225.129 146.339 225.8C144.894 226.387 143.177 224.494 142.987 223.186C142.098 217.052 146.351 210.761 150.188 206.424C153.683 202.473 157.807 201.271 162.695 200.065Z" fill="#4B4746"/>
</g>
<defs>
<clipPath id="clip0_64_3024">
<rect width="480" height="480" fill="white"/>
</clipPath>
</defs>
</svg>
