<svg width="480" height="480" viewBox="0 0 480 480" fill="none" xmlns="http://www.w3.org/2000/svg">
<g clip-path="url(#clip0_64_3060)">
<path fill-rule="evenodd" clip-rule="evenodd" d="M249.903 304.947C250.852 305.117 250.441 304.922 251.176 305.582C251.673 306.849 250.853 309.715 250.343 311.04C248.528 315.76 243.948 320.875 240.139 324.147C238.828 325.275 237.367 325.787 236.215 326.602C234.553 327.779 235.128 328.102 232.774 329.079C229.408 330.479 225.65 332.504 222.092 333.417C213.488 335.619 202.994 335.014 194.425 332.614C192.999 332.214 189.263 329.687 187.67 328.92C186.179 328.202 185.088 327.802 183.555 327.234L181.109 325.692C181.148 323.367 181.457 318.597 183.506 317.17C184.98 317.083 189.241 321.447 191.233 321.67C194.73 322.062 198.453 323.434 201.815 323.912C211.179 325.242 219.546 324.152 228.089 319.894C232.416 318.634 235.06 315.469 238.51 313.387C242.554 310.942 246.129 307.055 249.903 304.947ZM187.1 254.939C191.809 255.127 188.543 259.182 189.094 261.845C189.586 264.227 190.527 266.599 190.953 269.007C191.522 271.702 191.206 274.322 191.767 277.014C192.597 280.992 194.42 284.925 194.277 289.085C194.282 288.937 196.385 293.781 196.604 294.439C196.113 295.869 196.037 296.502 195.822 297.962C190.903 297.494 189.72 298.262 184.776 296.372C182.174 294.662 177.578 292.037 175.676 290.087C174.351 287.332 176.74 280.798 178.655 278.95C180.012 277.64 183.538 279.73 185.269 280.42C185.023 276.047 184.032 272.335 184.171 267.63C184.327 262.33 183.189 259.444 187.1 254.939ZM154.583 245.511C162.206 245.563 164.469 262.508 164.827 268.065C165.198 273.818 164.95 281.857 159.057 284.8C154.24 283.492 151.384 276.792 150.058 272.474C147.734 264.902 148.267 254.702 151.9 247.639C152.412 246.644 153.637 246.013 154.583 245.511ZM240.201 236.236C240.759 236.259 241.304 236.411 241.793 236.681C249.314 240.773 250.322 262.045 248.164 269.55C247.503 271.847 245.372 275.557 244.169 277.722C242.675 278.32 241.56 278.697 239.954 278.835C238.317 278.337 237.921 278.27 236.43 277.385C234.79 274.344 230.248 264.522 230.757 261.227C232.135 252.31 231.374 241.233 240.201 236.236ZM334.303 242.911C336.283 240.657 340.408 234.536 343.763 235.564C344.89 236.455 344.77 237.279 344.99 238.762C343.755 240.939 342.36 243.02 340.815 244.989C339.305 246.889 332.292 254.222 331.801 255.999C335.048 256.014 340.366 255.88 343.35 256.532C345.443 256.485 351.914 258.472 352.763 260.592C352.57 262.229 351.493 263.39 350.493 264.692C347.903 265.157 343.85 266.887 341.602 267.189C336.795 267.834 320.996 267.824 318.06 264.182C317.453 262.283 320.967 256.218 322.255 255.09C326.695 251.21 330.405 247.341 334.303 242.911ZM144.569 218.298C153.271 219.679 162.28 218.599 168.961 225.632C171.961 228.79 172.028 230.284 172 233.952C166.658 234.767 163.081 232.944 158.073 231.858C155.157 231.648 150.582 230.729 147.804 229.855C144.038 231.181 141.794 230.465 138.362 231.044C129.966 232.46 126.894 234.228 130.668 223.208C134.868 219.709 138.392 219.221 143.605 218.329C143.816 218.319 144.401 218.271 144.569 218.298ZM248.219 209.314C257.973 208.818 263.44 209.157 272.472 212.861C276.79 214.67 280.218 218.111 282.006 222.436C281.608 223.467 281.061 224.644 280.613 225.672C278.891 224.855 275.423 224.36 273.403 223.677C262.811 220.095 251.685 218.428 240.45 220.203C238.59 220.724 236.727 221.014 234.663 221.617C230.552 222.818 226.447 224.357 222.379 225.537C222.189 225.462 221.997 225.391 221.805 225.324C218.37 224.16 214.876 232.631 212.308 231.697C211.972 231.345 211.445 230.715 211.437 230.24C211.186 215.241 239.755 211.064 248.219 209.314Z" fill="#4B4746"/>
</g>
<defs>
<clipPath id="clip0_64_3060">
<rect width="480" height="480" fill="white"/>
</clipPath>
</defs>
</svg>
