<svg width="480" height="480" viewBox="0 0 480 480" fill="none" xmlns="http://www.w3.org/2000/svg">
<g clip-path="url(#clip0_64_3252)">
<path fill-rule="evenodd" clip-rule="evenodd" d="M204.161 294.855C205.38 295.41 206.333 297.608 206.976 298.823C206.835 299.133 206.363 300.154 206.339 300.422C205.098 314.695 221.933 324.453 233.018 327.268C231.701 329.035 230.958 331.628 228.783 331.911C223.19 333.141 214.773 333.098 210.434 328.911C203.801 322.513 200.379 314.203 199.538 305.13C199.244 301.95 202.166 297.112 204.161 294.855ZM312.085 249.869C316.077 250.437 314.617 259.674 314.482 262.624C313.672 280.559 310.132 298.807 302.947 315.325C301.787 317.992 298.83 321.874 296.958 324.179C295.253 326.279 291.015 328.989 288.44 329.727C286.331 330.329 284.238 329.922 281.855 330.817C276.463 328.209 276.807 328.847 271.532 327.509C268.647 324.682 264.775 319.594 269.357 315.974C273.932 312.364 280.62 317.897 285.745 317.902C288.383 318.254 292.72 317.785 294.705 315.462C300.043 309.225 300.953 298.699 303.723 291.022C304.38 289.197 304.062 285.95 304.51 284.047C305.717 278.89 306.54 273.852 307.165 268.607C307.655 261.839 306.365 255.037 312.085 249.869ZM346.755 277.002C349.98 276.89 350.922 277.192 352.89 279.705C354.197 287.037 346.685 307.219 339.15 309.78C331.983 311.435 333.087 301.777 334.085 297.617C336.072 289.322 338.84 281.29 346.755 277.002ZM255.76 262.35C262.91 261.86 261.482 262.903 262.032 268.578C263.007 278.672 258.175 291.225 249.586 296.96C246.674 297.438 244.222 291.37 243.158 289.163C243.806 280.815 248.038 266.7 255.76 262.35ZM121.428 240.952C124.534 241.202 127.227 243.77 129.953 245.139C134.88 247.612 139.744 250.24 144.789 252.467C147.787 253.787 149.254 256.737 146.911 259.422C145.439 261.182 144.561 262.185 142.59 263.36C140.483 264.617 133.57 266.247 132.465 268.147C132.719 269.147 134.02 269.662 134.899 270.075C138.938 271.977 141.471 275.53 145.169 277.93C143.55 281.105 143.521 282.315 139.745 281.823C130.678 281.033 122.734 277.093 114.941 272.578C115.434 270.698 116.38 268.422 117.462 266.815C120.051 262.972 127.578 260.282 131.869 258.65C128.771 256.42 118.299 252.96 116.773 248.465C116.378 247.298 120.278 242.053 121.428 240.952ZM346.672 248.499C352.442 248.119 358.502 251.651 364.537 251.394C365.845 251.441 369.69 252.86 370.12 253.945C371.597 257.682 366.414 264.162 363.729 266.387C362.947 267.037 359.948 266.444 359.053 266.202C357.97 265.854 356.722 266.194 355.46 265.897C350.63 264.582 344.377 264.329 339.777 262.581C334.4 260.539 333.693 258.264 337.343 254.554C341.152 250.682 341.895 250.404 346.672 248.499ZM233.619 232.261C242.684 232.27 249.437 232.094 258.375 233.602C265.722 234.842 266.535 234.049 272.978 238.948C272.133 242.425 270.133 247.832 267.562 250.475C266.955 251.1 266.142 251.013 265.295 251.01C261.172 250.435 259.032 249.292 255.18 248.036C253.627 247.579 251.555 247.879 250.015 247.602C246.108 246.901 244.075 246.475 240.146 247.28C237.844 245.202 222.003 250.932 228.833 239.026C230.259 236.54 231.325 234.066 233.619 232.261Z" fill="#4B4746"/>
</g>
<defs>
<clipPath id="clip0_64_3252">
<rect width="480" height="480" fill="white"/>
</clipPath>
</defs>
</svg>
