<svg width="480" height="480" viewBox="0 0 480 480" fill="none" xmlns="http://www.w3.org/2000/svg">
<g clip-path="url(#clip0_64_3784)">
<path fill-rule="evenodd" clip-rule="evenodd" d="M342.18 295.368C343.174 295.303 344.387 295.278 345.167 295.897C346.522 298.097 343.467 304.028 341.88 305.093C336.397 308.77 331.095 312.565 326.545 317.495C331.397 316.975 336.713 316.122 341.4 317.91C342.585 318.36 344.24 318.525 344.965 319.59C345.497 322.452 342.055 324.905 339.718 325.905C339.53 325.983 337.692 325.385 337.25 325.543C336.295 325.888 335.572 326.733 334.59 326.958C328.45 327.72 321.5 327.671 315.51 328.993C313.337 328.101 312.882 327.988 310.602 328.285L308.798 329.522C307.325 328.357 306.625 327.85 306.24 326C305.54 323.455 308.205 318.33 310.495 317.067C314.38 314.927 318.31 312.482 321.923 309.777C322.971 308.995 326.72 307.487 326.335 305.96C325.075 305.472 324.365 306.038 323.357 306.743C320.272 306.153 310.529 306.555 309.354 303.36C309.274 301.943 311.995 297.253 313.285 297.075C320.59 296.075 327.887 297.06 335.184 296.008C337.424 295.685 339.92 295.558 342.18 295.368ZM244.468 298.389C248.121 298.205 246.433 303.015 246.094 304.932C245.248 309.705 243.43 313.682 239.869 317.037C238.649 318.184 237.54 319.497 236.121 320.46C234.208 321.587 232.132 321.664 230.615 323.514C229.82 324.517 228.464 324.725 227.4 325.232C224.217 326.747 220.988 326.85 217.895 328.42C214.374 326.462 211.483 327.882 207.6 327.5C201.546 326.902 195.92 323.764 190.568 321.029C189.482 320.474 186.792 317.747 185.678 316.957C184.49 316.112 183.546 315.687 182.357 314.809C181.174 313.287 180.172 311.45 179.248 309.763C180.381 306.898 181.108 304.817 183.335 302.639C184.607 303.272 185.885 303.942 186.909 304.925C196.147 313.807 209.998 318.542 222.62 315.417C225.994 314.579 233.072 311.585 235.418 308.862C238.512 305.27 240.936 301.792 244.468 298.389ZM209.388 203.678C213.668 204.104 212.029 208.767 210.889 211.326C209.027 215.504 205.696 219.179 203.35 223.107C201.897 225.541 200.825 228.28 199.456 230.768C197.754 233.804 195.255 236.833 193.671 239.996C189.81 247.707 185.844 255.927 183.003 264.072C182.713 264.904 182.786 265.912 182.903 266.764C183.517 271.219 191.627 273.143 195.293 273.035C198.65 272.937 207.127 269.46 210.517 271.617C212.172 274.612 205.559 280.513 203.646 282.213C201.815 283.595 198.537 285.002 196.378 286.01C192.891 285.437 187.302 286.235 183.539 285.593C181.542 285.25 181.043 283.582 179.664 282.447C178.265 281.292 176.408 280.93 175.416 279.303C173.568 276.06 173.972 268.093 174.967 264.583C179.069 250.263 187.779 237.4 195.051 224.494C198.166 218.965 204.358 206.885 209.388 203.678ZM237.566 226.769C238.196 226.671 240.896 226.78 241.701 226.805C251.017 227.112 260.168 229.357 268.57 233.395C273.383 235.759 278.685 239.861 280.375 245.191C280.972 247.08 280.813 251.85 278.413 252.583C276.723 252.303 271.762 248.491 270.022 247.311C267.12 245.343 262.73 243.318 260.15 241.139C257.913 247.029 256.5 250.77 253.575 256.37C249.856 262.335 246.129 270.177 239.334 272.849C233.296 275.222 231.692 268.449 232.679 263.872C234.246 256.595 238.225 250.285 241.994 243.977C243.503 241.485 245.44 239.319 246.878 236.64L246.665 236.506C244.079 236.583 243.762 235.964 241.497 234.772C237.657 237.18 239.114 233.629 235.421 235.176C234.321 235.095 233.168 234.294 232.156 233.726C233.866 230.799 235.047 229.001 237.566 226.769ZM157.53 199.705C163.421 200.079 171.963 200.097 176.884 203.57C183.503 208.243 189.416 212.457 182.917 220.617C179.84 219.106 173.827 214.388 171.572 213.676C171.017 214.188 169.05 221.181 168.621 222.581C166.935 228.077 165.014 233.228 161.91 238.106C157.772 244.909 157.195 244.828 151.152 249.622L147.479 248.764C147.371 248.402 147.267 248.037 147.166 247.673C144.749 238.888 151.539 224.974 155.53 216.936C156.691 214.6 159.072 211.591 160.457 209.133L160.585 208.899C155.567 207.221 151.718 208.625 146.659 208.368C145.575 208.313 144.944 206.41 145.36 205.658C146.562 203.49 148.602 200.753 150.91 199.733C153.182 200.499 155.309 199.564 157.53 199.705ZM267.93 190.348C269.242 190.114 272.153 191.351 273.633 191.632C285.013 193.784 295.263 198.277 304.338 205.502C308.603 208.898 307.493 211.429 304.32 215.071C302.245 217.415 297.633 222.447 294.338 219.503C287.585 212.215 275.902 207.827 266.21 206.64C261.995 206.124 254.385 207.235 253.13 201.355C253.397 200.682 253.585 200.365 254.037 199.814C258.919 193.902 260.135 191.379 267.93 190.348ZM155.158 160.066C160.158 159.517 170.176 161.39 175.298 162.667C177.299 163.166 183.752 166.914 185.814 167.933C187.668 168.967 190.075 169.508 191.715 170.85C198.892 176.729 196.924 178.499 192.175 185.095C190.646 187.217 190.043 187.826 187.564 188.202C180.769 188.608 179.659 184.174 174.677 181.419C169.854 178.752 163.8 176.37 158.914 173.437C157.919 172.84 154.846 172.299 153.339 171.824C151.667 171.297 148.36 171.49 146.733 170.53C144.416 168.08 149.179 163.236 150.897 161.87C152.787 160.367 153.323 160.297 155.158 160.066Z" fill="#4B4746"/>
</g>
<defs>
<clipPath id="clip0_64_3784">
<rect width="480" height="480" fill="white"/>
</clipPath>
</defs>
</svg>
