<svg width="480" height="480" viewBox="0 0 480 480" fill="none" xmlns="http://www.w3.org/2000/svg">
<g clip-path="url(#clip0_64_3821)">
<path fill-rule="evenodd" clip-rule="evenodd" d="M243.174 312.182C243.658 312.365 243.539 312.355 243.951 312.753C244.057 313.115 244.237 313.775 244.131 314.182C242.846 318.077 238.632 322.435 235.661 325.275C234.149 326.72 230.955 329.022 229.314 330.39C227.642 331.44 222.973 331.937 221.693 333.25C219.844 335.142 218.536 332.97 217.264 333.425C213.359 334.82 210.65 334.005 206.739 333.367C200.72 332.387 197.459 330.142 193.206 325.942C191.982 324.555 191.551 323.135 192.106 321.588C194.816 314.035 194.673 316.087 199.163 319.955C201.226 321.732 206.392 323.44 209.017 324.593C212.587 323.883 214.603 324.702 217.71 324.144C226.709 322.529 235.416 316.85 243.174 312.182ZM328.003 295.582C330.098 295.462 334.31 295.077 335.052 297.635C334.525 303.182 316.598 304.862 314.086 308.107C314.026 308.555 313.893 308.995 314.493 309.22C321.123 311.715 326.047 312.02 329.905 318.609C328.965 320.202 327.035 322.89 325.788 324.192C323.705 323.637 322.785 323.772 320.69 323.992C316.573 323.075 310.445 320.88 306.698 318.862C303.663 317.227 300.908 315.55 297.895 314.742C294.458 313.817 300.271 304.175 303.273 303.057C310.928 300.213 319.753 296.844 328.003 295.582ZM203.992 207.901C206.065 207.906 206.212 209.626 205.792 211.238C203.997 218.115 199.951 224.383 197.186 230.888C193.853 238.731 190.751 246.393 185.749 253.375C184.35 255.325 180.474 257.819 178.412 259.189C178.319 259.709 178.293 259.86 178.117 260.357C174.658 260.167 173.478 260.035 169.842 260.075C167.963 261.46 164.672 263.862 165.587 266.58C166.706 269.908 171.989 275.537 174.904 277.335C180.082 280.53 186.899 282.017 192.741 279.977C194.457 279.4 198.713 279.097 200.276 280.099C202.064 283.412 194.813 289.471 192.172 290.864C186.788 292.337 183.602 294.407 177.131 293.05C175.611 292.622 172.512 291.709 171.314 290.654C167.29 287.117 161.606 283.809 158.644 279.407C152.344 270.042 160.546 255.632 168.673 250.277C171.677 248.297 176.505 247.298 180.109 248.228C186.532 242.249 191.435 227.848 195.875 219.859C199.067 214.115 198.669 212.53 203.992 207.901ZM241.294 220.258C248.871 219.302 256.955 221.723 263.39 225.693C265.295 226.868 267.33 227.942 269.23 229.355C270.185 230.066 271.985 230.729 273.055 231.691C276.355 234.654 277.15 238.657 278.538 242.639C279.095 244.246 276.87 247.356 275.95 248.707C274.732 247.548 270.056 244.213 268.648 244.07L268.403 244.442C268.218 244.065 268.2 243.873 267.838 243.646C265.947 242.467 256.985 234.949 255.74 235.006C254.003 235.084 252.355 233.425 250.756 232.735C250.761 235.141 250.885 237.011 251.4 239.386C250.015 242.391 249.697 245.93 248.597 248.893C245.962 255.992 238.623 269.87 231.797 272.965C226.861 271.712 223.131 268.519 221.033 263.847C221.231 261.262 221.282 259.032 221.342 256.444C221.479 250.624 224.483 241.788 227.545 236.95C228.979 234.683 231.981 231.811 233.958 229.949C232.473 230.23 230.69 230.71 229.282 230.335C228.15 229.494 227.412 228.267 228.359 226.913C230.306 224.132 233.806 221.53 237.092 220.554C238.388 220.169 239.958 220.414 241.294 220.258ZM144.95 197.91C150.593 188.031 168.291 191.945 176.757 195.416C182.551 197.791 186.359 202.645 188.319 208.366C188.285 208.568 188.247 208.768 188.206 208.969C187.953 210.189 187.566 212.599 186.46 213.111C184.834 213.864 183.923 213.006 182.613 212.641L182.271 212.549C181.488 211.262 180.763 211.662 179.446 210.912C176.671 209.333 174.094 207.438 171.256 205.973C168.357 204.425 165.072 203.596 162.645 201.487C166.511 212.029 158.719 232.031 151.621 240.54C150.703 241.639 148.33 243.318 147.137 244.337C145.967 244.493 144.408 244.557 143.511 245.269C141.701 245.122 140.394 245.079 138.576 245.083C134.855 240.096 134.281 238.716 134.722 232.312C135.4 222.479 138.005 214.033 144.117 206.193C145.512 204.404 147.829 202.703 148.92 200.951L148.798 200.683C147.163 201.389 146.032 201.908 144.718 200.085C144.486 199.292 144.527 198.65 144.95 197.91ZM266.62 237.104V237.103V237.104ZM265.623 235.852V235.851L265.328 235.626L265.623 235.852ZM250.685 193.324C252.371 193.028 262.069 193.572 263.772 193.975C276.597 197.02 293.565 204.486 291.975 220.443C291.77 222.518 289.93 223.458 288.465 224.385C286.247 221.284 284.847 220.472 282.173 217.835C280.178 215.445 278.537 213.703 275.947 211.74C272.762 209.329 268.502 207.334 264.9 205.535C264.243 205.207 261.422 204.84 260.535 204.605C256.232 203.466 251.385 202.544 246.926 202.467C244.436 202.424 240.066 203.15 237.483 203.51C236.612 202.919 236.118 202.709 235.622 201.824C235.746 199.624 241.561 195.024 243.727 194.487C245.726 193.991 248.562 193.703 250.685 193.324ZM163.982 166.561C169.173 166.529 172.663 166.636 177.862 167.817C187.489 170.004 196.909 176.66 196.715 187.47C196.692 188.783 194.831 190.119 193.851 190.83C192.011 189.747 188.471 188.014 187.092 186.679C185.887 185.428 183.986 184.53 182.631 183.331C176.3 177.726 168.076 176.237 159.894 175.724C158.835 175.658 155.303 177.188 153.755 177.316C151.457 176.15 151.711 174.695 152.831 172.674C155.341 168.144 159.323 167.689 163.982 166.561Z" fill="#4B4746"/>
<path fill-rule="evenodd" clip-rule="evenodd" d="M250.755 232.736C252.355 233.426 254.003 235.084 255.74 235.006C256.986 234.95 265.948 242.468 267.838 243.647C268.2 243.874 268.217 244.066 268.402 244.443C267.86 246.895 267.19 251.233 266.32 253.548C263.778 260.308 257.452 269 251.567 273.275C249.698 274.633 244.129 276.148 241.26 277.643C238.083 276.333 234.417 275.107 231.797 272.965C238.623 269.87 245.961 255.992 248.597 248.894C249.697 245.93 250.015 242.392 251.4 239.387C250.885 237.012 250.76 235.142 250.755 232.736ZM162.646 201.487C165.072 203.596 168.357 204.425 171.256 205.974C174.093 207.439 176.671 209.333 179.446 210.912C180.764 211.662 181.487 211.262 182.271 212.549L182.188 212.856C181.404 215.813 181.335 218.754 180.438 221.724C177.284 232.178 167.826 242.907 158.481 248.358L158.167 248.539C156.076 248.159 154.322 248.657 152.271 248.855C149.492 249.124 145.774 246.842 143.511 245.27C144.408 244.557 145.966 244.493 147.137 244.337C148.33 243.318 150.704 241.64 151.621 240.54C158.719 232.031 166.511 212.029 162.646 201.487Z" fill="#FEFEFE"/>
</g>
<defs>
<clipPath id="clip0_64_3821">
<rect width="480" height="480" fill="white"/>
</clipPath>
</defs>
</svg>
