<svg width="480" height="480" viewBox="0 0 480 480" fill="none" xmlns="http://www.w3.org/2000/svg">
<g clip-path="url(#clip0_64_3595)">
<path fill-rule="evenodd" clip-rule="evenodd" d="M255.805 301.88C258.953 302.728 259.953 307.58 261.978 310.05C263.518 311.927 264.365 312.533 266.16 313.97C271.285 318.077 275.565 316.92 281.67 316.643C284.095 316.53 286.646 316.898 289.25 316.691C291.241 316.53 294.808 315.945 296.667 316.183C297.075 316.953 297.09 319.245 296.78 319.898C295.79 321.988 292.925 323.32 291.057 324.197C290.56 324.597 290.052 324.987 289.538 325.367C283.428 329.847 278.952 329.427 271.557 328.662C263.052 327.782 257.01 320.965 253.235 313.848C251.355 310.303 252.485 304.097 255.805 301.88ZM149.18 282.258C150.884 282.615 151.57 283.136 151.733 284.923C152.213 290.198 147.565 293.25 144.684 296.99C140.857 301.955 137.374 307.147 133.34 311.885L130.426 310.66C130.934 305.778 132.65 302.465 135.274 298.415C135.668 297.558 136.049 296.695 136.417 295.827C133.219 296.497 119.546 299.435 117.667 296.752C117.243 294.69 118.978 291.185 119.808 289.223C122.437 288.803 124.832 289.327 127.469 288.81C130.125 288.44 132.774 287.145 135.332 286.58C140.212 285.505 144.497 283.845 149.18 282.258ZM290.592 223.674C295.192 223.694 294.413 228.908 294.738 232.43C295.245 237.927 298.54 250.788 305.145 252.303C313.107 254.128 324.057 258.903 325.578 268.18C326.673 274.867 325.572 284.64 321.65 290.388C319.642 293.183 315.977 297.38 312.245 297.98C311.745 298.06 311.245 298.128 310.743 298.183C309.653 298.3 309.393 298.19 308.545 297.508C306.583 293.715 314.618 288.555 316.185 285.782C321.632 276.148 315.4 269.685 306.078 267.077C303.14 266.255 300.045 266.002 297.012 265.31C292.855 260.395 290.698 256.978 289.425 250.32C288.7 246.534 289.695 246.867 287.778 243.365C288.193 239.9 287.313 234.484 286.295 231.087C287.15 228.309 288.837 225.942 290.592 223.674ZM246.731 247.207C252.692 247.166 254.643 255.143 255.823 259.673C258.19 268.768 257.124 280.383 248.774 286.173C246.717 287.23 245.384 286.763 244.167 284.865C239.37 277.393 238.277 270.27 239.897 261.675C240.893 256.385 242.086 250.685 246.731 247.207ZM343.56 224.802C346.1 225.045 347.898 226.16 349.036 228.538C351.866 234.447 350.445 243.571 349.038 249.625C348.288 252.85 344.25 260.28 341.467 261.813C338.95 262.198 337.99 261.89 335.85 260.745C333.79 248.957 333.603 239.538 339.536 228.423C340.596 226.438 341.448 225.371 343.56 224.802ZM240.05 222.352C247.004 221.764 254.01 226.018 257.368 231.991C258.885 234.803 255.703 237.275 253.135 237.226C246.228 237.092 239.147 233.6 232.28 233.635C227.685 233.658 221.391 235.656 217.002 237.091C214.048 239.009 207.074 245.431 203.842 244.963C202.09 243.517 204.38 238.947 205.629 237.529C211.8 230.524 219.932 224.798 229.343 223.375C232.738 222.862 236.573 222.73 240.05 222.352ZM348.565 197.354C351.265 197.216 354.482 197.373 356.892 198.62C360.475 200.473 360.985 202.731 362.148 206.132C361.908 206.704 360.838 209.022 360.538 209.218C356.055 212.133 345.752 208.477 340.285 209.362C330.89 210.884 329.462 211.556 323.948 218.361C322.525 220.631 322.155 225.549 319.757 225.805C310.748 226.766 320.621 211.581 322.45 209.576C327.742 203.769 331.998 199.313 340.028 198.091C342.808 197.668 345.835 197.602 348.565 197.354Z" fill="#4B4746"/>
</g>
<defs>
<clipPath id="clip0_64_3595">
<rect width="480" height="480" fill="white"/>
</clipPath>
</defs>
</svg>
