<svg width="480" height="480" viewBox="0 0 480 480" fill="none" xmlns="http://www.w3.org/2000/svg">
<g clip-path="url(#clip0_64_3551)">
<path fill-rule="evenodd" clip-rule="evenodd" d="M227.84 282.182C233.372 281.942 230.765 285.098 231.163 288.828C231.307 290.188 231.437 291.25 232.019 292.497C235.768 300.532 241.108 305.885 249.24 309.483C255.65 312.47 257.27 313.032 264.385 311.99C267.193 311.577 271.477 312.092 274.62 311.43C276.242 311.088 279.102 310.697 279.792 312.582C279.357 315.127 276.325 316.933 274.265 318.438C271.24 320.508 265.045 324.197 261.297 323.467C254.765 322.192 247.26 322.125 241.839 317.85C234.382 311.973 226.847 304.125 225.132 294.443C224.345 290.16 225.321 285.737 227.84 282.182ZM156.171 282.845C157.319 282.7 158.847 283.427 159.11 284.52C161.195 293.21 150.869 298.847 145.303 303.247C141.726 306.075 140.292 308.125 136.039 309.945C134.795 310.477 133.278 310.995 132.71 309.63C132.934 305.75 134.629 302.895 136.897 299.908C137.856 298.49 138.629 297.643 139.774 296.358C129.352 293.333 116.971 301.108 123.191 285.618C126.957 285.548 130.745 285.645 134.49 285.55C136.432 285.443 138.464 284.852 140.383 284.707C145.709 284.307 150.888 283.625 156.171 282.845ZM291.757 208.38C295.587 208.79 294.822 220.307 295.012 222.86C295.377 227.78 296.44 232.82 297.358 237.667C297.508 238.461 298.86 241.29 299.243 242.164C301.24 241.395 302.85 240.076 305.038 239.504C308.055 238.777 311.108 240.289 313.925 241.005C327.503 244.462 331.337 257.28 324.31 268.865C321.335 273.767 317.46 276.667 313.118 280.31C312.468 280.702 311.652 280.778 310.962 281.023C307.43 282.278 302.295 286.875 298.483 283.172C295.33 274.817 295.865 269.477 306.315 272.74C307.802 271.87 309.183 271.585 310.5 270.805C312.9 269.385 315.42 267.544 317.72 265.932C318.71 263.792 319.085 262.359 319.435 260.057C316.373 258.647 314.01 255.945 310.792 254.773C309.392 254.263 303.644 253.148 302.746 253.568C296.446 256.515 293.743 263.14 290.265 252.403C288.998 248.485 289.533 244.874 290.01 240.838L288.3 238.658L288.975 233.744C287.543 231.014 288.085 230.02 287.802 227.161C287.107 220.101 285.88 213.711 291.757 208.38ZM251.22 225.842C260.705 224.013 259.1 231.447 253.121 234.938C256.888 242.435 257.585 252.587 253.578 260.182C251.745 263.655 249.483 265.875 245.724 267.262C243.593 268.05 240.671 264.62 238.624 263.497L238.286 263.313C237.566 261.105 237.383 260.032 237.159 257.762C236.845 254.92 235.79 252.878 235.625 250.983C235.253 246.701 235.931 241.456 236.037 237.157C231.589 237.871 226.353 240.244 221.901 239.241C218.976 238.581 222.929 231.08 224.626 230.747C228.55 229.979 232.271 229.062 236.276 228.709C238.024 228.556 240.459 227.547 242.262 227.306C245.335 226.677 248.113 226.251 251.22 225.842ZM341.249 210.976C346.299 211.384 343.76 215.743 342.235 218.288C346.92 226.802 348.632 239.976 340.717 247.377C339.185 248.81 337.263 249.977 335.608 251.49C331.518 249.129 327.9 249.727 328.27 243.804C327.942 242.626 327.098 241.791 327.005 241.023C326.488 236.803 326.545 232.481 326.578 228.235C326.588 226.899 327.415 224.466 326.565 223.617C323.875 223.321 319.83 226.038 316.88 223.773C316.093 221.851 320.005 217.73 321.613 216.761C322.693 216.111 325.885 215.899 327.225 215.411C331.63 213.803 337.127 213.011 341.249 210.976ZM238.871 186.353C239.676 186.338 240.481 186.411 241.27 186.571C247.156 187.799 250.33 190.42 253.498 195.339C253.563 197.543 253.897 202.193 253.249 203.969C249.572 214.047 244.8 201.99 241.385 199.39C239.489 197.947 236.642 197.233 234.694 196.449C231.417 197.207 228.589 196.905 225.707 199.151C223.595 200.798 221.97 202.543 220.178 204.528C216.308 209.018 215.978 210.928 213.664 216.352C213.173 217.505 212.433 219.267 211.243 219.704C206.082 218.829 210.796 208.35 212.07 205.858C216.255 197.667 223.301 190.903 231.715 187.194C232.985 186.634 237.333 186.458 238.871 186.353ZM331.908 174.879C333.778 174.257 341.166 177.321 342.272 178.692C345.837 183.112 343.652 191.341 340.24 195.041C337.63 193.012 333.618 188.315 331.538 185.67C324.85 184.427 325.373 183.843 318.863 187.207C316.778 188.389 315.937 190.144 316.83 192.437L317.552 194.322C316.912 195.235 316.385 196.097 315.807 197.044L312.538 198.744C310.858 197.675 310.123 196.998 309.005 195.413C309.305 184.86 316.248 177.109 326.595 175.14C328.24 174.827 330.085 175.204 331.908 174.879Z" fill="#4B4746"/>
</g>
<defs>
<clipPath id="clip0_64_3551">
<rect width="480" height="480" fill="white"/>
</clipPath>
</defs>
</svg>
