<svg width="480" height="480" viewBox="0 0 480 480" fill="none" xmlns="http://www.w3.org/2000/svg">
<g clip-path="url(#clip0_64_3731)">
<path fill-rule="evenodd" clip-rule="evenodd" d="M249.659 303.652C250.34 304.11 250.633 304.585 250.53 305.463C249.869 311.08 246.253 316.847 243.073 321.447C242.223 322.675 239.74 324.097 238.688 325.3C236.13 328.565 234.722 329.638 231.367 331.865C225.08 336.038 219.013 337.545 211.515 337.563C205.725 337.578 198.022 334.167 193.249 330.925C191.328 329.52 189.735 327.802 188.008 326.152C186.089 324.682 188.298 318.681 189.685 317.495C190.733 317.325 195.358 322.608 196.895 323.525C215.637 334.72 229.154 326.152 242.544 312.107C244.83 309.707 247.084 305.445 249.659 303.652ZM327.04 292.295C327.802 292.22 328.768 292.56 329.058 293.348C332.475 302.668 313.468 302.945 312.258 306.745C313.16 309.12 323.526 309.39 327.038 312.478C335.278 319.722 321.481 319.3 316.993 318.92C311.943 318.385 303.123 314.877 298.31 312.92C292.168 310.417 300.658 303.455 303.296 302.4C310.078 299.69 320.19 293.745 327.04 292.295ZM196.354 215.991C196.77 216.031 197.175 216.033 197.542 216.255C198.065 216.571 198.361 217.001 198.46 217.604C198.833 219.881 189.515 258.507 188.255 262.8C187.918 263.98 187.399 265.098 186.718 266.115C183.476 270.892 178.814 269.045 175.807 273.8C173.81 276.957 174.893 280.175 175.717 283.49C176.89 284.413 179.54 286.69 180.827 287.145C183.85 288.217 188.581 287.898 191.643 287.428C195.184 286.885 203.222 283.731 206.317 284.793C208.368 287.223 200.632 293.723 198.851 295.218L198.688 295.343C197.919 295.915 197.261 296.49 196.377 296.883C185.975 301.623 172.509 302.052 167.312 289.755C163.42 280.542 169.289 268.127 177.235 262.895C178.024 262.375 180.412 261.727 181.483 261.242C181.517 260.674 181.488 258.387 181.52 258.255C182.74 253.255 184.565 248.264 185.924 243.28C186.594 240.822 186.91 238.36 187.531 236.016C188.561 232.129 189.641 228.268 190.619 224.371C191.52 220.782 193.026 217.901 196.354 215.991ZM242.571 225.867C247.482 225.768 255.21 228.54 259.553 230.81C262.125 232.291 262.258 233.219 264.71 235.205C268.187 238.024 272.473 250.563 265.655 251.57C264.413 251.753 262.885 249.026 262.125 247.754C261.8 248.081 261.645 249.491 261.535 250.075C261.71 246.919 261.988 244.05 257.976 244.421C257.633 243.737 256.953 242.385 256.408 241.912C254.233 240.023 249.579 237.302 247.073 236.026C249.515 244.378 247.64 255.928 243.548 263.548C240.815 268.635 238.278 270.66 233.708 273.96C232.723 274.025 231.652 274.03 230.719 274.308C230.053 274.19 227.77 272.943 227.197 272.398C224.949 270.258 224.145 266.905 223.968 263.89C223.521 256.3 225.482 247.199 228.763 240.376C229.852 238.11 232.047 235.573 233.726 233.756C230.194 234.704 226.423 235.084 222.906 236.327C221.888 236.687 220.838 237.396 220.009 237.384C217.726 235.595 221.472 231.965 222.905 230.597C227.556 226.155 236.361 225.993 242.571 225.867ZM144.143 212.313C152.371 209.574 160.961 210.682 168.892 213.9C176.335 216.922 179.85 222.719 176.883 230.567C176.653 231.175 176.219 231.227 175.652 231.402C174.038 231.07 173.025 229.431 172.079 228.118L171.716 229.562C171.112 231.258 171.837 234.301 171.406 235.948C170.258 240.342 169.468 245.645 167.25 249.64C163.396 256.58 155.944 264.2 147.41 260.335C145.891 260.323 143.638 259.492 142.412 258.6C138.393 255.675 139.153 250.885 139.08 246.58C138.92 237.081 141.699 226.99 147.532 219.395C146.219 219.524 143.952 219.681 142.754 220.135C141.064 220.775 137.966 224.101 135.987 222.347C135.668 221.253 136.736 219.113 137.136 218.008C138.135 215.245 141.43 213.323 144.143 212.313ZM267.141 188.348C272.758 187.511 281.401 189.652 284.601 194.71C288.093 200.227 286.303 207.89 280.883 211.399C280.13 209.64 279.98 208.464 279.473 206.672C276.24 195.291 263.083 195.492 254.263 198.095C251.743 199.353 247.888 203.288 245.128 205.303C244.709 208.163 244.641 208.279 243.175 210.777C242.331 212.215 242.985 214.51 240.74 215.603C237.745 215.764 237.48 212.691 238.164 210.495C242.545 196.44 252.946 189.347 267.141 188.348ZM178.444 162.576C182.27 162.219 191.272 164.749 191.739 169.361C192.376 175.664 192.057 182.427 189.486 188.297C188.235 191.155 185.716 197.967 182.093 198.553C178.337 196.01 189.385 171.487 177.115 172.331C173.576 172.575 169.974 172.594 166.559 173.753C162.329 175.011 157.389 179.866 155.153 183.622C152.932 187.354 152.835 193.154 149.59 196.407C149.223 196.774 147.797 196.424 147.378 196.217C146.442 195.167 146.816 193.998 146.916 192.691C147.304 187.618 149.02 183.669 151.726 179.464C158.88 168.345 165.937 165.032 178.444 162.576Z" fill="#4B4746"/>
<path d="M247.073 236.026C249.579 237.302 254.232 240.023 256.407 241.912C256.952 242.385 257.632 243.737 257.975 244.421C261.987 244.05 261.71 246.919 261.535 250.075C261.018 260.21 254.61 274.248 243.274 276.468C241.482 276.82 240.92 276.527 238.92 277.21C235.625 276.26 233.746 275.98 230.719 274.308C231.652 274.03 232.723 274.025 233.708 273.96C238.278 270.66 240.815 268.635 243.548 263.548C247.64 255.928 249.515 244.378 247.073 236.026ZM159.253 220.959C163.206 222.813 170.964 224.239 171.716 229.562C171.112 231.258 171.837 234.301 171.406 235.948C170.258 240.341 169.469 245.645 167.25 249.64C163.396 256.58 155.944 264.2 147.41 260.335C158.694 254.85 162.07 231.685 159.253 220.959Z" fill="#FEFEFE"/>
</g>
<defs>
<clipPath id="clip0_64_3731">
<rect width="480" height="480" fill="white"/>
</clipPath>
</defs>
</svg>
