<svg width="480" height="480" viewBox="0 0 480 480" fill="none" xmlns="http://www.w3.org/2000/svg">
<g clip-path="url(#clip0_64_3115)">
<path fill-rule="evenodd" clip-rule="evenodd" d="M272.117 312.085C273.36 312.707 273.878 313.53 273.603 315.01C270.938 329.34 256.32 340.552 243.014 344.56C241.327 345.067 233.862 344.557 231.985 344.152L231.531 344.05C229.725 343.662 228.928 343.113 227.301 342.205C224.502 340.398 222.475 335.355 225.809 333.622C227.643 333.485 233.351 334.477 234.981 335.372C238.388 334.262 240.869 334.965 244.444 333.938C253.775 331.255 258.15 326.478 264.532 319.803C267.042 317.213 269.572 314.64 272.117 312.085ZM193.911 243.316C194.277 243.469 194.656 243.653 194.982 243.879C196.747 245.103 197.867 250.557 198.31 252.59C198.967 255.607 200.814 279.941 200.325 282.867C199.865 285.622 198.469 288.09 196.955 290.397C194.255 294.517 192.101 294.352 187.84 295.39C185.391 295.985 184.157 298.26 182.994 300.272C185.948 307.877 185.64 307 193.208 311.235C195.204 311.103 207.815 311.77 208.873 312.945C211.229 315.563 204.337 320.693 202.244 322.03C200.558 322.995 196.542 324.073 194.611 324.562C191.904 323.99 184.666 321.468 182.162 320.12C173.015 315.19 176.398 308.947 174.565 301.479C177.29 293.045 180.71 286.06 189.498 283.155C190.927 282.683 192.376 281.935 193.639 281.112L193.995 280.88C193.562 277.177 193.22 273.467 192.967 269.747C192.858 267.89 192.923 265.847 192.779 264.05C192.138 256.075 189.001 250.445 193.911 243.316ZM153.704 238.616C159.51 237.777 166.277 241.288 169.353 246.096C170.658 248.136 172.85 253.842 170.314 255.715C169.677 256.185 165.338 254.538 164.172 254.23C165.729 259.463 166.061 259.828 166.475 265.565C167.387 275.203 166.965 285.16 162.953 294.125C161.524 297.317 157.47 299.728 154.076 297.695C150.412 295.5 149.268 291.35 148.249 287.44C145.899 278.541 147.134 268.628 148.689 259.615C149.368 255.678 151.049 252.155 153.505 249.016C149.042 250.775 143.526 250.447 139.254 252.817C137.12 254 134.393 259.94 131.842 259.655C131.156 259.06 130.994 258.54 130.987 257.622C130.894 245.297 142.975 238.991 153.704 238.616ZM244.507 230.837C250.259 230.314 257.948 231.182 263.278 233.551C266.657 235.053 268.27 237.929 269.512 241.247C270.457 243.768 269.587 245.123 268.488 247.374C263.943 245.379 262.022 246.512 257.805 242.565C256.05 242.248 255.55 242.172 253.917 241.48C254.597 243.198 255.444 245.18 255.892 246.955C258.082 255.627 259.167 264.765 258.135 273.675C257.398 280.047 256.737 298.997 245.882 292.032C242.482 289.575 239.709 284.518 239.18 280.433C237.407 266.73 237.278 253.035 242.216 240.139C238.267 242.25 233.555 242.896 229.704 245.939C227.501 247.681 226.691 249.083 224.729 250.95C224.562 251.107 224.166 250.85 223.969 250.763C223.044 249.543 222.967 247.811 223.228 246.346C224.232 240.69 229.346 235.578 234.482 233.386C237.653 232.032 241.171 231.595 244.507 230.837ZM346.153 243.438C347.403 243.368 348.53 243.549 349.497 244.403C351.922 246.481 349.327 249.083 347.707 250.758C343.475 255.128 340.297 260.642 335.457 264.385C334.262 265.307 332.938 266.272 332.255 267.604C332.283 267.747 332.31 267.89 332.337 268.03C336.475 269.46 343.385 269.742 347.358 271.072C349.617 271.827 351.01 273.102 351.86 273.92L352.12 274.175C350.215 281.212 347.258 278.73 342.513 280.647C334.81 281.647 326.287 279.657 320.077 274.939C317.656 273.102 322.438 266.312 323.71 264.397C325.253 262.682 327.531 261.55 329.321 260.14C335.553 255.237 340.403 248.593 346.153 243.438ZM148.104 212.808C156.317 212.604 167.429 217.058 171.727 224.373C171.681 226.995 172.494 230.739 170.58 232.711C167.316 234.161 161.178 229.921 158.966 227.571C153.849 227.3 151.259 224.511 146.094 225.267C144.458 225.506 141.508 225.33 139.761 225.297C138.435 225.572 131.893 228.389 130.828 229.235C129.052 230.278 124.265 238.212 122.941 238.387C117.03 239.16 122.401 229.361 123.316 228.001C126.525 223.231 131.9 218.283 136.902 215.74C138.444 214.956 146.214 213.218 148.104 212.808ZM254.005 201.061C264.378 202.221 276.005 201.51 278.068 214.69C278.303 216.179 276.27 217.886 275.292 218.856C271.19 216.503 263.269 214.932 258.579 213.404C256.116 212.602 245.974 213.038 243.186 213.473L242.786 213.277C239.699 211.746 238.148 213.624 234.641 214.275L234.311 214.335C228.897 215.799 224.085 218.05 220.626 222.55C219.317 224.252 218.195 225.225 216.537 226.559C212.256 223.345 214.725 219.51 217.544 215.805C227.034 203.331 239.124 202.581 253.48 201.101C253.655 201.087 253.83 201.074 254.005 201.061Z" fill="#4B4746"/>
</g>
<defs>
<clipPath id="clip0_64_3115">
<rect width="480" height="480" fill="white"/>
</clipPath>
</defs>
</svg>
