<svg width="480" height="480" viewBox="0 0 480 480" fill="none" xmlns="http://www.w3.org/2000/svg">
<g clip-path="url(#clip0_64_3673)">
<path fill-rule="evenodd" clip-rule="evenodd" d="M235.877 244.486C234.99 247.731 233.803 253.622 234.241 256.947C234.888 261.867 237.491 266.637 238.129 271.755C238.59 272.118 240.624 273.565 240.829 273.805C244.09 277.645 244.074 277.533 248.883 278.397C243.836 282.43 242.514 282.737 236.096 282.572C218.184 282.107 207.217 273.412 212.866 254.54C215.788 249.987 221.659 248.444 226.318 246.517C226.865 246.29 228.755 245.045 229.343 244.666C232.442 244.519 232.167 244.978 235.877 244.486ZM331.532 216.271C331.049 216.936 330.198 218.083 330.065 218.846C329.008 224.902 330.295 233.956 330.927 240.02C335.187 243.198 334.482 249.485 340.929 254.252C337.854 257.507 327.995 257.907 324.147 255.817C319.197 253.132 312.598 246.859 310.387 241.524C309.975 240.529 310.164 238.373 309.987 237.269C309.312 232.211 309.005 231.096 311.367 226.514C312.537 223.584 317.505 220.498 320.32 219.303C323.945 217.763 327.682 217.669 331.532 216.271Z" fill="#FEFEFE"/>
<path fill-rule="evenodd" clip-rule="evenodd" d="M212.251 287.734C214.497 288.179 214.894 288.658 216.306 290.392C217.206 298.33 230.875 312.015 238.464 314.527C244.76 316.61 250.832 316.665 257.354 319.875C256.977 320.797 256.62 321.73 256.282 322.665C254.767 323.64 254.08 324.129 252.715 325.297C250.845 326.794 248.825 326.527 246.604 326.76C239.759 327.467 235.259 323.11 229.444 320.47C227.648 319.655 225.616 318.15 224.144 316.817C220.06 313.077 211.541 300.672 209.889 295.475C210.617 293.092 210.457 289.322 212.251 287.734ZM148.96 285.305C152.632 285.062 155.604 284.42 155.598 288.96C155.591 293.265 150.351 300.595 147.189 303.602C144.301 306.35 138.739 312.19 134.543 312.605C133.845 312.528 133.768 312.188 133.467 311.69C133.148 308.43 137.358 302.942 139.189 300.255L141.083 297.92C136.539 297.872 131.933 298.675 127.272 298.59C122.574 298.502 120.16 298.902 117.437 294.312C119.961 289.59 117.8 285.912 124.897 287.662C129.751 288.859 136.971 288.545 141.875 287.522C143.904 287.1 146.618 285.832 148.96 285.305ZM283.702 212.337C284.832 212.641 285.897 214.538 286.189 215.609C286.107 215.797 286.025 215.986 285.95 216.178C284.888 218.944 290.412 234.774 291.85 238.267C293.28 241.743 295.065 245.105 296.582 248.551C298.622 253.18 303.732 259.287 308.265 261.675C309.55 262.355 311.137 262.78 312.505 263.315C313.635 261.298 318.094 253.873 319.984 259.777C321.977 266 318.31 271.975 315.522 277.375C314.282 279.602 312.215 283.745 309.582 284.27C306.527 283.125 308.432 276.423 308.935 273.99C301.22 269.868 294.877 261.552 291.06 253.845C290.045 251.8 287.99 249.407 287.185 247.324C283.9 238.807 281.207 229.985 279.96 220.93C279.64 218.52 281.975 214.108 283.702 212.337ZM234.654 233.521C239.913 233.258 252.224 230.862 253.479 237.737C253.587 238.231 252.552 240.477 252.27 241.11C257.275 249.778 261.122 260.56 257.402 270.42C255.807 274.65 253.562 277.43 248.883 278.397C244.074 277.532 244.09 277.644 240.829 273.805C240.625 273.565 238.589 272.117 238.128 271.755C237.49 266.637 234.888 261.867 234.241 256.947C233.804 253.622 234.99 247.731 235.877 244.486C232.167 244.978 232.442 244.519 229.344 244.666C228.755 245.045 226.864 246.29 226.317 246.516C221.659 248.444 215.787 249.987 212.865 254.54C207.4 256.115 206.532 268.434 202.601 267.352C199.765 264.697 202.243 258.15 203.307 254.897C204.251 252.525 207.071 248.276 208.833 246.631C210.583 244.997 215.062 241.341 217.066 240.254C220.318 238.489 231.396 233.685 234.654 233.521ZM340.225 205.294C344.765 207.284 347.783 206.792 350.888 210.303C353.008 221.659 348.288 216.052 346.603 217.35C347.34 218.412 348.492 218.798 349.225 219.929C353.827 227.044 355.145 235.931 353.655 244.187C353.038 247.61 351.928 251.672 349.78 254.354C346.96 255.442 344.675 256.587 341.853 254.83L340.93 254.252C334.483 249.485 335.188 243.198 330.928 240.019C330.295 233.956 329.008 224.902 330.065 218.846C330.198 218.083 331.05 216.936 331.532 216.27C327.682 217.669 323.945 217.762 320.32 219.303C317.505 220.498 312.537 223.584 311.367 226.514L310.878 226.456C308.33 228.706 308.162 235.122 303.22 232.769C302.692 231.489 304.165 227.458 304.742 226.146C308.65 217.252 315.732 212.042 324.487 208.389C329.152 206.441 334.832 206.35 340.225 205.294ZM230.157 205.652C233.987 205.255 239.775 206.245 242.322 209.423C243.102 210.388 243.442 211.637 243.259 212.865C242.696 216.497 237.5 214.634 235.508 214.503C233.953 214.666 231.937 215.907 230.415 215.349C228.683 214.713 227.106 216.257 225.498 216.588C218.926 217.762 214.966 219.913 209.673 223.582C202.963 228.232 199.507 232.248 194.452 238.528C192.929 240.377 190.488 245.575 187.807 244.84C187.636 244.544 187.46 244.196 187.464 243.841C187.591 230.874 199.625 222.059 208.782 214.663C210.755 213.07 213.972 211.967 216.232 210.783C220.901 208.338 224.821 206.19 230.157 205.652ZM343.88 175.575C344.67 175.48 347.068 175.989 347.87 176.317C351.1 177.637 355.602 179.643 351.925 183.298C350.187 183.505 347.95 184.219 346.31 184.232C332.277 184.349 318.333 187.626 307.74 197.831C306.235 199.212 305.324 201.938 302.382 201.407C300.595 199.884 303.427 195.638 304.475 194.096C311.21 184.179 322.897 178.619 334.422 176.55C337.449 176.006 340.487 176.362 343.537 175.656L343.88 175.575Z" fill="#4B4746"/>
</g>
<defs>
<clipPath id="clip0_64_3673">
<rect width="480" height="480" fill="white"/>
</clipPath>
</defs>
</svg>
