<svg width="480" height="480" viewBox="0 0 480 480" fill="none" xmlns="http://www.w3.org/2000/svg">
<g clip-path="url(#clip0_64_3516)">
<path fill-rule="evenodd" clip-rule="evenodd" d="M284.37 323.873C285.27 323.913 286.16 324.087 287.05 324.237C288.312 325.52 288.615 325.955 289.608 327.47C286.208 340.237 274.047 335.47 264.822 337.353C263.992 336.843 257.165 336.105 255.782 335.973L253.172 336.548C251.587 335.958 250.499 335.248 249.051 334.383C249.743 331.013 250.94 325.555 255.212 325.615C262.114 325.713 268.907 325.19 275.762 324.338C278.472 324 281.593 324.061 284.37 323.873ZM230.063 212.909C230.679 213.067 231.746 213.5 231.858 214.155C232.723 219.202 230.801 224.616 230.262 229.554C229.976 232.172 230.014 234.548 229.775 236.892C228.574 248.618 228.648 260.68 230.447 272.33C230.734 272.907 230.342 275.166 230.53 275.582C233.996 283.202 237.396 285.97 245.303 287.695C247.873 286.66 249.82 285.27 252.633 284.515C263.347 281.647 257.06 292.337 253.718 296.322C252.913 296.885 249.078 298.405 247.924 298.883C245.44 297.958 242.712 297.923 240.207 298.79C236.719 297.383 234.844 298.395 231.351 294.525C224.094 286.49 222.148 271.985 221.496 261.442C221.312 258.815 222.466 254.455 222.197 252.008C221.507 245.714 222.478 241.18 223.139 235.133C223.972 227.513 223.747 218.537 230.063 212.909ZM188.993 247.847C192.115 248.659 209.947 245.957 203.553 253.487C200.79 256.742 197.008 257.805 192.934 257.923C192.797 261.91 193.296 261.205 194.384 264.89C194.987 267.785 194.344 272.305 192.949 274.902C190.552 279.367 188.335 283.655 182.823 280.78C180.363 278.828 180.451 276.705 176.438 273.91C176.06 270.835 176.444 268.2 176.43 265.183C176.418 262.56 178.249 261.295 178.58 259.112C176.974 257.773 167.595 260.717 167.304 256.975C167.544 255 170.341 251.145 172.159 250.397C176.773 248.503 183.835 248.449 188.891 247.871C188.925 247.863 188.959 247.854 188.993 247.847ZM103.898 235.327C107.396 235.409 108.447 235.768 111.642 237.419C115.706 239.519 119.967 243.458 121.319 248.001C123.934 256.783 120.759 267.037 115.411 274.18C114.207 275.787 111.964 275.83 111.215 277.542C110.966 278.112 110.862 278.283 110.33 278.58C107.714 278.14 106.305 279.615 102.781 278.07C98.5576 276.218 96.9756 272.207 95.3546 268.207C95.734 266.735 96.0341 265.66 96.5343 264.223C103.045 248.758 111.109 256.647 114.005 254.564L114.034 253.899C113.142 251.947 111.166 249.984 109.517 248.593C106.559 246.096 101.941 245.938 98.9796 243.948C98.0123 244.388 95.9262 244.956 95.3204 245.461C91.7134 248.464 93.537 248.726 89.0538 251.002C88.4613 250.737 87.7142 250.397 87.1427 250.095C84.3827 248.874 87.9032 243.415 89.0597 241.841C90.0387 240.508 92.3344 237.915 93.8829 237.264C96.8453 236.019 100.715 235.767 103.898 235.327ZM372.895 235.533C376.362 234.968 380.69 236.774 382.858 239.571C382.275 241.156 381.812 242.004 381.322 243.733C379.632 244.968 379.007 245.224 377.112 245.968L375.99 245.777C374.425 245.512 374.215 245.381 372.817 244.708C366.205 245.859 364.423 249.052 362.235 254.885C367.208 253.62 376.885 250.95 378.125 258.835C378.98 264.277 376.82 268.303 373.648 272.513C371.607 274.765 366.885 277.995 363.805 278.08C359.985 278.185 357.075 275.95 354.478 273.548C353.828 270.285 352.092 264.004 350.997 260.837C357.065 250.402 360.54 240.282 372.895 235.533ZM301.574 241.596C302.564 241.276 305.756 241.353 305.927 242.848C306.414 247.128 300.39 250.552 296.907 251.38C296.842 253.027 297.14 254.82 297.345 256.478C298.047 262.173 297.565 268.088 293.752 272.7C288.52 279.027 281.9 274.824 281.295 267.56C280.648 258.423 279.85 261.84 282.523 252.035C278.873 252.37 276.77 252.525 273.212 253.508C271.81 253.15 270.877 253.137 270.135 251.973C270.272 243.875 281.443 244.216 286.87 242.869C291.835 241.637 297.089 242.572 301.574 241.596ZM114.885 262.979C113.863 262.65 113.104 262.21 112.19 262.41C108.265 262.73 105.22 263.13 101.749 265.457C103.132 267.304 103.736 267.995 106.013 268.895C111.451 271.705 112.97 267.719 114.885 262.979ZM364.808 262.303C363.728 262.535 362.75 262.587 362.01 263.337C361.345 265.694 365.118 267.067 366.86 267.895C367.071 267.994 367.837 267.657 368.045 267.567C369.308 267.07 370.47 266.612 371.082 265.35C370.854 263.145 367.363 263.032 365.485 262.175L364.808 262.303ZM187.139 219.501C189.418 219.272 194.514 219.876 194.091 222.978C193.711 225.761 188.281 229.11 186.138 230.614C181.822 230.749 174.072 232.065 169.493 232.659C166.862 232.897 164.299 233.006 162.613 230.592C162.56 229.132 165.221 223.443 166.28 223.406C174.189 223.133 179.729 222.436 187.139 219.501ZM280.195 215.121C286.063 215.614 291.89 216.479 297.648 217.708C299.355 218.077 301.52 218.697 302.505 220.22C302.557 222.832 299.827 226.269 297.072 226.355C296.347 226.378 295.773 226.486 295.063 226.611C289.225 226.753 283.928 225.78 278.348 224.297C276.438 223.788 273.808 223.655 272.648 221.863C272.8 220.412 274.305 218.197 275.303 217.099C276.923 215.316 277.998 215.246 280.195 215.121Z" fill="#4B4746"/>
</g>
<defs>
<clipPath id="clip0_64_3516">
<rect width="480" height="480" fill="white"/>
</clipPath>
</defs>
</svg>
