<svg width="480" height="480" viewBox="0 0 480 480" fill="none" xmlns="http://www.w3.org/2000/svg">
<g clip-path="url(#clip0_64_3417)">
<path fill-rule="evenodd" clip-rule="evenodd" d="M281.7 308.848C282.235 308.928 282.14 308.942 282.653 309.19C283.473 310.295 284.372 312.48 284.39 313.627C284.595 326.23 272.352 339.2 259.832 340.113C259.137 340.163 257.397 341.84 256.257 341.792C254.952 341.735 253.897 341.408 252.618 341.288C246.717 341.605 239.086 340.122 234.424 336.212C232.121 334.577 232.015 334.06 231.08 331.46C231.705 328.943 232.278 328.015 233.634 325.845C242.28 330.348 248.168 331.622 257.967 331.172C265.18 330.742 273.17 325.508 276.453 319.095C278.315 315.458 278.875 311.956 281.7 308.848ZM233.645 234.854C235.023 234.945 235.649 235.865 235.863 237.157C237.072 244.468 239.449 255.377 238.511 262.762C238.217 265.122 237.466 267.402 236.301 269.477C235.076 271.625 231.274 276.545 228.985 277.813C228 278.357 224.855 276.858 224.301 279.36C222.329 288.267 232.999 294.405 240.659 293.15C243.663 292.67 248.522 288.615 251.243 289.307C254.535 292.297 248.593 300.107 246.468 302.392C239.332 309.05 228.931 306.928 221.756 301.51C212.683 294.66 213.993 279.308 219.915 270.908C222.489 267.258 224.488 266.665 228.689 266.102C234.884 259.927 223.935 244.988 233.645 234.854ZM190.242 239.266C193.719 239.178 196.169 239.933 197.504 243.495C201.017 252.86 198.475 276.627 189.481 282.06C188.49 282.478 187.404 282.745 186.364 283.038C184.633 282.025 183.934 281.277 182.725 279.785C182.487 277.635 182.189 275.21 181.728 273.085C179.786 264.13 181.713 244.64 190.242 239.266ZM292.267 236.455C296.14 236.236 297.872 239.401 298.647 242.691C301.424 254.478 300.709 267.473 294.022 277.885C292.257 280.635 291.025 281.43 287.945 282.068C287.477 282.05 286.957 282.025 286.497 281.957C284.415 281.637 282.56 280.465 281.377 278.722C275.498 269.949 282.515 245.679 289.64 238.411C290.265 237.774 291.497 236.963 292.267 236.455ZM102.5 240.964C104.749 241.126 106.98 243.167 108.996 244.282C112.323 246.12 115.507 248.131 118.983 249.684C122.171 251.108 129.691 251.985 131.896 254.68C132.199 255.823 132.086 256.16 131.824 257.328C129.817 266.275 119.944 268.578 112.44 272.996C110.745 274.065 108.425 275.022 106.561 275.86C105.769 275.125 104.138 273.8 104.484 272.672C105.204 270.322 108.527 265.027 110.653 263.792C112.922 262.475 114.536 261.968 116.778 260.39C110.732 258.55 102.635 253.835 97.8774 249.796C96.1613 248.339 100.971 242.043 102.5 240.964ZM375.945 237.262C378.932 237.126 379.245 237.492 381.063 239.791C378.575 243.542 376.975 243.368 373.422 245.794C371.662 246.996 369.76 248.765 367.97 250.007C365.845 251.482 363.728 252.522 361.733 254.205C360.995 258.479 376.779 258.572 377.67 262.58C378.263 265.242 374.005 268.422 372.19 268.917C370.75 269.23 369.23 269.632 367.79 269.985C364.44 268.11 360.807 267.347 357.252 265.962C347.408 262.127 350.463 255.747 356.122 249.671C358.207 247.434 360.998 246.312 363.358 244.574C367.705 241.367 370.715 238.979 375.945 237.262ZM187.784 206.303C191.753 206.194 199.098 208.56 202.459 210.546C208.151 213.909 213.951 221.551 209.671 228.126C207.992 230.705 201.444 226.003 199.667 225.106C195.04 223.225 189.289 219.439 184.522 218.799C181.6 218.407 176.519 219.51 173.716 220.144C173.019 220.388 172.333 220.661 171.659 220.96C166.553 223.26 160.72 228.145 158.641 233.537C157.179 234.095 154.469 232.867 153.235 231.999C154.428 229.269 155.423 226.152 157.021 223.762C162.731 215.224 172.421 207.341 183.08 207.103C184.609 207.069 186.259 206.659 187.784 206.303ZM299.036 205.101C304.423 204.499 317.65 208.485 319.792 214.489C320.615 216.8 320.658 222.103 320.505 224.632C320.475 225.103 319.306 227.181 318.978 227.765C313.266 225.822 309.738 223.703 305.853 219.245C300.833 218.066 300.232 219.064 294.877 217.187C291.34 218.185 291.275 217.048 288.69 217.577C277.255 219.328 277.355 220.839 269.672 228.969C268.66 228.442 267.658 227.897 266.665 227.332C268.138 216.053 283.888 203.928 295.143 205.466C295.998 205.583 298.148 205.217 299.036 205.101Z" fill="#4B4746"/>
</g>
<defs>
<clipPath id="clip0_64_3417">
<rect width="480" height="480" fill="white"/>
</clipPath>
</defs>
</svg>
