<svg width="480" height="480" viewBox="0 0 480 480" fill="none" xmlns="http://www.w3.org/2000/svg">
<g clip-path="url(#clip0_64_3476)">
<path fill-rule="evenodd" clip-rule="evenodd" d="M292.805 318.88C293.644 321.56 293.612 324.083 292.37 326.632C289.07 333.045 285.247 341.283 278.229 344.238C275.554 345.365 272.09 345.738 269.835 346.823C264.132 346.268 255.809 345.013 251.224 341.366C249.179 338.981 248.419 335.343 249.663 332.238C250.247 330.776 253.602 333.027 254.617 333.48C259.252 335.555 264.34 336.781 269.452 336.473C279.982 336.018 286.2 325.288 292.305 318.43L292.805 318.88ZM232.633 231.766C233.722 232.326 234.653 233.282 234.987 234.47C236.777 240.834 239.183 266.145 237.944 272.378C237.189 276.178 234.925 280.328 233.118 283.743C229.871 285.52 225.8 286.473 224.38 289.87C223.656 291.605 223.302 292.655 222.28 294.28L222.067 294.615L222.945 297.065C230.605 303.865 234.723 303.308 243.842 304.425C248.166 304.955 240.956 314.357 238.828 315.128C237.216 315.39 234.949 316.2 233.336 316.717C230.464 314.41 229.07 315.635 226.162 314.467C224.666 313.522 220.648 311.67 219.53 310.488C214.445 305.1 213.222 300.382 215.375 293.597C218.059 285.14 220.221 282.152 225.758 275.87C226.317 275.772 228.258 275.483 228.514 274.965C229.762 272.428 230.554 266.763 230.716 263.898C230.91 262.173 230.189 259.73 230.362 258.128C231.36 248.871 225.946 239.852 232.303 231.629C232.413 231.675 232.527 231.712 232.633 231.766ZM300.187 232.188C302.372 232.254 304.593 232.824 306.763 233.107C308.885 233.384 311.053 233.463 313.163 233.828C316.415 234.39 320.44 236.318 322.325 239.134C322.858 239.932 323.182 240.889 322.925 241.845C322.69 242.71 322.062 243.386 321.26 243.763C319.652 244.517 318.617 244.469 316.995 243.908L316.692 243.8C318.085 259.19 313.435 287.553 293.78 289.435C289.875 289.808 283.602 289.083 280.352 286.658C278.56 286.71 275.668 287.155 274.093 286.043C267.828 281.615 266.705 273.388 265.87 266.628C264.558 256.015 266.495 252.065 271.482 243.299C269.22 243.644 265.968 245.343 263.913 244.142C263.608 243.598 263.485 243.317 263.567 242.683C263.86 240.433 266.062 237.509 267.852 236.179C271.295 233.622 295.36 232.043 300.187 232.188ZM163.301 236.295C177.267 232.149 193.45 230.754 207.528 235.045C209.053 235.509 213.091 238.155 213.663 239.816C214.324 241.693 213.183 243.701 212.395 245.379C211.205 245.735 209.581 246.119 208.67 246.922C209.072 248.477 209.912 252.102 209.753 253.632C208.945 261.362 207.715 270.418 203.817 277.212C201.718 280.872 195.309 286.563 191.606 288.648C186.131 288.243 185.118 290.443 179.007 288.336C165.727 289.798 160.782 274.416 161.823 263.843C162.199 260.031 162.393 256.513 163.173 252.738C163.441 251.435 165.223 247.219 164.998 246.607C164.62 246.731 163.875 246.984 163.505 246.899C161.372 246.41 158.886 248.47 157.197 246.556C156.564 243.753 160.518 237.121 163.301 236.295ZM97.0204 245.001C105.979 244.537 110.928 247.429 118.912 250.898C122.61 252.505 128.945 253.001 127.389 259.13C126.933 260.925 125.494 263.313 124.162 264.658C118.72 268.863 112.236 272.498 106.131 275.708C104.333 277.195 103.752 277.71 101.691 278.797C99.8903 278.362 98.9335 278.675 97.2342 278.283C95.1033 275.585 99.9066 268.828 102.535 267.581C106.131 265.873 109.832 263.783 112.886 261.22C107.13 255.958 101.007 257.665 95.035 253.513C92.957 252.071 94.9649 246.576 97.0204 245.001ZM378.968 242.541C381.822 242.432 381.307 245.521 381.335 247.498C378.762 250.912 374.01 253.177 370.322 255.285C368.477 256.34 364.885 257.435 364.655 259.775C365.863 260.765 374.312 260.97 376.777 262.015C379.902 263.343 380.265 264.462 381.833 267.397C377.268 273.04 374.647 272.667 367.96 272.655C364.205 271.672 360.628 270.772 356.798 270.132C353.703 269.615 349.178 267.968 347.445 265.171C347.113 263.358 348.27 262.097 349.128 260.547C352.195 255.005 354.865 254.255 360.263 251.755C361.08 251.378 362.875 249.779 363.995 249.342C364.887 248.994 367.485 248.566 368.128 248.189C372.36 245.702 374.063 243.78 378.968 242.541ZM296.09 204.598C298.36 204.394 308.383 206.138 310.698 207.358C315.1 209.677 317.086 211.458 318.743 216.078C317.078 223.906 312.75 221.658 307.623 218.391C299.53 213.236 294.185 213.467 284.73 214.538C282.983 214.971 275.949 216.332 274.878 216.934C272.205 218.441 267.835 221.551 265.142 223.35C264.765 223.579 264.095 223.472 263.753 223.24C261.79 221.907 263.397 219.741 264.12 218.484C266.47 214.118 269.553 212.37 273.49 209.908C281.09 205.157 287.355 205.044 296.09 204.598ZM182.024 204.14C183.842 203.896 190.05 204.285 191.701 204.78C199.241 207.039 201.584 208.958 205.581 215.052C203.881 223.548 199.499 219.947 193.827 217.865C187.73 215.626 182.97 214.307 176.433 214.85C171.972 215.764 167.486 216.274 163.246 217.96C160.297 219.132 157.611 222.753 154.878 222.391C151.289 219.672 160.402 211.9 162.561 210.44C169.055 206.051 174.292 204.759 182.024 204.14Z" fill="#4B4746"/>
<path fill-rule="evenodd" clip-rule="evenodd" d="M289.665 241.305C292.585 242.005 296.905 242.586 300.065 242.577C300.778 242.575 301.681 241.24 302.855 241.353C304.828 244.123 313.527 242.562 316.692 243.801C318.085 259.19 313.435 287.553 293.78 289.436C289.875 289.808 283.603 289.082 280.353 286.657C285.812 283.28 290.948 272.237 292.365 266.107C294.638 256.28 294.897 249.935 289.665 241.305ZM189.369 243.406C192.482 245.027 192.34 245.781 196.405 245.516C196.451 245.514 199.316 245.943 199.355 245.95C201.049 246.398 207.714 246.201 208.67 246.922C209.072 248.476 209.913 252.103 209.753 253.633C208.945 261.363 207.715 270.418 203.817 277.213C201.717 280.873 195.309 286.562 191.606 288.647C186.131 288.242 185.117 290.442 179.006 288.335C179.158 287.077 182.552 282.16 183.321 280.412C186.805 272.492 189.035 262.258 188.233 253.57C187.993 250.96 186.822 247.465 186.445 244.695C187.252 244.726 187.52 244.794 188.273 244.476C188.629 243.965 188.791 243.588 189.369 243.406Z" fill="#FEFEFE"/>
</g>
<defs>
<clipPath id="clip0_64_3476">
<rect width="480" height="480" fill="white"/>
</clipPath>
</defs>
</svg>
