<svg width="480" height="480" viewBox="0 0 480 480" fill="none" xmlns="http://www.w3.org/2000/svg">
<g clip-path="url(#clip0_64_3295)">
<path fill-rule="evenodd" clip-rule="evenodd" d="M217.181 286.395C220.859 287.898 218.183 292.867 217.109 295.342C218.557 300.51 220.427 308.87 223.58 313.18C227.448 318.27 232.095 322.457 237.573 325.757C239.885 327.15 240.849 328.382 243.628 328.775C245.705 330.895 242.844 333.41 240.063 333.48C238.15 333.39 234.681 333.49 232.944 333.275C227.497 332.515 222.263 328.034 218.96 324.004C213.588 317.452 211.133 309.137 211.323 300.777C211.351 299.542 210.671 298.497 210.805 297.225C211.299 292.542 213.521 289.255 217.181 286.395ZM308.445 246.594C309.2 247.479 309.543 248.599 309.985 249.699C306.783 256.342 303.582 262.438 302.287 269.715C301.97 271.5 300.87 273.88 300.133 275.539C300.633 278.217 300.093 279.587 300.87 282.582C303.768 285.512 306.73 286.32 310.228 288.155C313.408 289.82 316.63 293.507 317.612 296.972C318.042 298.492 318.063 300.042 318.115 301.607C318.27 306.107 317.745 309.095 315.55 313.073C311.9 319.69 306.359 323.852 299.087 325.905C293.612 327.452 289.63 327.87 284.593 325.01C282.178 323.415 280.023 320.4 281.598 317.802C286.425 309.86 302.403 323.065 306.36 312.26C306.985 310.555 307.522 305.49 306.465 303.99C304.005 300.5 296.512 295.852 292.4 294.722C290.975 291.95 290.037 289.74 288.952 286.872C289.69 284.305 290.308 281.702 290.803 279.077C291.003 277.968 291.657 273.456 291.942 272.805C293.842 267.99 297.277 262.892 299.27 258.249C302.267 251.265 302.103 250.975 308.015 246.442L308.445 246.594ZM326.023 259.382C337.045 258.255 348.435 259.599 358.957 263.117C360.142 263.512 361.662 264.845 362.675 265.582C367.17 268.855 369.085 270.337 371.77 275.379C371.142 278.652 371.07 282.662 370.545 285.195C369.02 292.525 362.79 302.5 357.685 307.94C356.127 309.6 353.049 312.064 351.154 313.522C347.274 313.982 342.672 313.157 339.65 310.535C333.147 294.87 341.682 283.102 351.984 271.962C349.165 271.187 348.077 270.537 345.614 268.927C342.112 270.527 341.902 268.282 340.125 268.535L339.612 269.339L339.247 269.377C338.76 268.682 338.46 268.292 337.907 267.65C337.11 267.445 337.514 267.419 336.672 267.897C336.257 267.634 335.887 267.329 335.512 267.009C334.392 267.319 335.494 267.46 334.609 268.472C334.02 268.167 334.167 268.059 333.88 267.19L333.38 267.042C332.328 267.567 332.25 267.711 331.245 267.242C328.808 265.029 322.747 266.842 321.319 263.907C321.39 262.646 324.97 259.49 326.023 259.382ZM222.027 229.46C236.788 228.132 252.498 229.727 266.567 234.463C268.207 235.015 273.287 239.826 274.85 241.158C277.272 243.222 273.505 248.388 272.082 250.355C275.65 261.85 257.43 281.185 247.543 286.05C246.832 286.4 243.955 286.254 242.986 286.204L242.745 286.004C241.205 284.714 239.862 282.539 238.366 282.397L237.635 282.84C226.914 280.765 218.615 272.48 216.603 261.77C214.906 252.74 218.757 245.184 223.461 237.811L222.861 237.57C220.652 238.594 215.194 239.378 213.76 236.632C214.01 234.115 219.59 229.68 222.027 229.46ZM131.369 242.502C134.829 242.396 135.587 243.219 138.663 244.039C143.794 245.368 148.675 247.231 153.66 248.994C157.149 250.229 162.089 250.35 164.71 253.265C165.424 255.355 163.896 257.2 162.741 258.783C159.51 263.21 154.771 264.533 149.762 265.92C147.978 266.45 145.058 268.157 143.267 268.36C139.458 268.787 139.215 268.313 135.604 270.037C131.37 272.095 131.06 270.443 125.678 274.005C124.794 273.71 123.082 273.252 123.069 272.118C122.957 262.098 134.114 260.997 141.613 259.917C142.106 259.844 143.846 259.01 144.397 258.755C138.938 254.66 134.095 254.865 128.658 251.48C127.97 251.05 126.654 249.291 126.091 248.554C127.649 246.695 129.669 244.142 131.369 242.502ZM347.731 221.549C359.485 220.444 371.865 225.294 380.3 233.454C386.81 239.752 387.568 244.122 381.188 250.985C380.115 250.007 379.008 249.066 377.87 248.166C372.725 244.283 370.98 238.486 365.508 235.315C364.626 234.803 363.405 233.506 362.66 232.739L361.747 232.591C357.41 231.901 352.847 229.675 348.305 229.381C347.037 229.299 344.765 228.901 343.622 228.931C341.972 228.975 340.792 230.099 338.742 229.66C337.925 229.037 338.18 229.424 337.888 228.5C338.435 224.404 344.366 222.415 347.731 221.549ZM237.649 189.594C239.591 189.399 241.662 189.893 243.115 189.788C251.682 189.175 255.777 190.742 263.247 194.731C266.96 196.794 269.6 200.685 271.06 204.575C271.674 206.221 269.942 208.845 268.404 209.195C267.331 208.872 255.232 203.378 254.65 202.874C254.532 202.772 254.42 202.663 254.305 202.557C252.837 200.529 251.092 201.741 249.207 201.065C242.263 198.573 237.025 197.056 229.621 198.765C226.134 199.57 221.885 201.525 218.313 201.395C217.755 201.375 217.523 200.732 217.352 200.324C217.466 199.581 217.564 199.202 218.022 198.584C223.054 191.794 230.032 190.744 237.649 189.594Z" fill="#4B4746"/>
<path fill-rule="evenodd" clip-rule="evenodd" d="M335.513 267.009C335.888 267.329 336.258 267.634 336.673 267.897C337.515 267.42 337.11 267.445 337.907 267.65C338.46 268.292 338.76 268.682 339.247 269.377L339.612 269.339L340.125 268.535C341.902 268.282 342.113 270.527 345.615 268.927C348.077 270.537 349.165 271.187 351.985 271.962C341.683 283.102 333.147 294.87 339.649 310.535C333.652 308.86 330.88 306.094 325.88 302.464C325.422 302.132 324.545 300.642 324.317 300.08C321.407 292.862 323.74 282.907 325.975 275.749C326.662 273.792 329.195 268.114 331.245 267.242C332.25 267.712 332.328 267.567 333.38 267.042L333.88 267.19C334.167 268.06 334.02 268.167 334.61 268.472C335.495 267.46 334.393 267.319 335.513 267.009ZM223.461 237.81C224.57 236.976 225.658 237.547 226.609 238.284C226.889 237.925 227.031 237.748 227.42 237.51C232.099 237.181 238.427 239.314 243.342 239.545C245.606 239.652 246.103 240.542 248.972 240.235C246.384 243.438 243.389 247.043 241.554 250.874C237.967 258.362 236.133 268.607 236.79 276.879C236.896 278.222 238.35 280.17 238.576 281.575C238.234 282.002 237.918 282.369 237.635 282.839C226.914 280.764 218.615 272.48 216.602 261.77C214.906 252.74 218.757 245.184 223.461 237.81Z" fill="#FEFEFE"/>
</g>
<defs>
<clipPath id="clip0_64_3295">
<rect width="480" height="480" fill="white"/>
</clipPath>
</defs>
</svg>
