<svg width="480" height="480" viewBox="0 0 480 480" fill="none" xmlns="http://www.w3.org/2000/svg">
<g clip-path="url(#clip0_64_3696)">
<path fill-rule="evenodd" clip-rule="evenodd" d="M241.594 288.165C244.71 289.127 250.682 297.592 253.979 298.96C257.987 300.622 263.198 302.728 267.37 303.793C271.48 304.84 275.878 305.372 279.695 307.232C281.04 309.464 277.323 311.887 275.633 312.8C270.905 314.627 266.605 315.372 261.687 313.49C260.648 313.093 259.747 312.02 258.955 311.775C257.77 311.405 256.452 311.275 255.197 310.852C253.26 310.2 252.292 308.21 250.937 307.15C250.247 306.608 247.768 305.358 246.885 304.843C242.419 302.243 240.905 300.088 238.749 295.618C239.145 292.15 239.216 290.81 241.594 288.165ZM129.738 277.305C140.512 276.735 150.217 282.81 150.202 294.828C150.193 302.148 143.519 314.022 135.067 313.045C131.22 312.6 129.586 310.963 127.113 308.213C124.089 303.92 126.96 294.393 130.982 291.453C131.933 290.758 134.418 289.558 135.031 288.798L134.727 288.373C130.241 286.288 123.066 285.74 119.266 290.538C118.848 291.065 119.023 291.25 118.364 291.53C117.652 291.218 116.998 290.982 116.268 290.718C116.085 290.5 115.656 290.11 115.663 289.815C115.805 283.73 124.18 278.301 129.738 277.305ZM140.331 295.02C137.436 296.233 135.058 297.115 132.805 299.395C133.261 300.578 133.699 301.71 134.205 302.875L136.561 303.027L139.952 303.588C141.312 302.178 142.492 300.602 143.467 298.902C142.924 296.285 143.221 295.108 140.331 295.02ZM291.797 190.817C296.912 194.476 298.508 200.826 301.428 206.135C309.523 220.853 317.382 237.213 315.545 254.48C315.39 255.85 315.71 258.283 315.367 259.52C313.655 265.68 311.587 272.352 307.774 277.51C303.657 283.187 298.32 285.335 291.468 285.375C289.345 285.387 286.842 286.64 284.742 284.955C282.452 283.117 283.817 278.06 285.417 276.177C286.244 275.202 288.305 275.33 289.445 275.17C303.77 273.23 307.253 272.247 308.285 256.55C308.617 251.495 307.104 246.933 306.921 242.676L306.907 242.265L306.819 241.972C306.367 240.537 305.74 239.483 305.503 237.913L305.502 237.912C304.579 233.206 303.884 232.058 301.837 227.638C300.224 224.154 299.102 220.483 297.13 217.071C296.067 211.693 293.587 209.101 291.332 204.141C289.4 199.887 286.24 198.806 289.572 193.876C290.29 192.839 291.032 191.818 291.797 190.817ZM235.934 224.876C241.763 223.857 247.831 221.099 253.758 222.784C256.463 223.553 257.747 224.883 258.935 227.198C258.062 229.72 257.257 231.317 255.082 232.882H255.083C259.663 237.607 261.08 245.011 260.305 251.3C259.53 257.592 258.827 263.389 254.077 268.032C251.725 270.332 247.432 270.772 244.316 270.947C232.398 274.01 221.592 267.99 216.674 256.777C215.403 253.879 216.233 246.019 217.637 243.245L217.134 243.223C214.576 245.259 212.835 251.657 208.684 248.344C208.214 247.23 208.625 246.715 208.867 245.449C210.069 239.922 215.807 235.884 219.951 232.619C223.738 229.636 225.071 228.204 229.897 227.473C231.586 226.996 234.372 225.148 235.934 224.876ZM321.048 213.652C326.768 207.908 349.88 203.316 354.952 211.327C354.242 213.176 352.902 215.515 351.777 217.143C356.55 223.951 355.965 237.215 352.94 244.734C351.14 249.207 345.853 253.925 340.673 252.918C339.76 252.888 338.055 253.797 337.13 254.215C325.96 251.17 320.285 242.672 320.08 231.193C320.028 228.258 322.128 221.282 324.205 219.254C322.435 217.63 320.51 221.551 317.782 221.051C316.143 219.179 319.67 215.034 321.048 213.652ZM306.785 238.212C306.817 238.364 306.859 238.515 306.907 238.665C306.859 238.515 306.817 238.364 306.785 238.212ZM306.05 236.278H306.051H306.05ZM229.177 236.228H229.178H229.177ZM306.136 235.92H306.137H306.136ZM235.872 233.694H235.873H235.872ZM240.258 229.8C240.149 229.945 240.025 230.097 239.893 230.255C240.025 230.097 240.149 229.945 240.258 229.8ZM240.531 229.023V229.022V229.023ZM250.168 193.857C251.224 193.655 256.608 196.013 255.913 197.468C252.488 204.769 239.964 204.846 233.436 207.161C228.169 209.029 221.768 211.784 217.711 215.398C216.779 216.086 215.686 216.645 214.668 217.211C213.813 216.73 212.824 216.317 212.328 215.511C211.515 207.043 237.132 196.977 243.488 194.674C244.265 194.392 249.021 193.996 250.168 193.857ZM323.925 180.265C329.09 180.086 332.135 180.991 337.035 182.088C339.078 182.545 340.945 182.65 343.223 183.242C344.375 184.632 344.853 185.869 345.53 187.5C344.605 189.21 343.795 191.069 342.473 192.437C341.565 192.713 341.892 192.652 340.777 192.128C337.215 193.61 336.238 191.635 332.803 190.613C329.728 189.698 321.46 189.577 319.143 187.586C318.46 185.302 322.035 181.33 323.925 180.265Z" fill="#4B4746"/>
<path fill-rule="evenodd" clip-rule="evenodd" d="M236.416 233.932C236.317 235.376 232.842 239.556 232.814 242.473C232.753 248.729 232.33 254.075 235.03 259.95C235.835 261.7 237.421 263.828 237.649 265.745C238.187 266.445 240.825 267.21 241.896 268.22C242.897 269.162 243.454 269.895 244.316 270.947C232.398 274.01 221.592 267.99 216.674 256.777C215.403 253.88 216.233 246.02 217.637 243.245C218.608 240.89 222.266 239.983 224.399 238.814C226.52 237.653 228.598 236.419 230.818 235.468C232.431 234.777 234.403 234.557 235.872 233.694L236.416 233.932ZM333.468 216.364C333.756 216.378 335.149 216.671 335.502 216.75C334.429 218.835 331.912 224.681 331.73 226.887C331.08 234.685 330.275 247.971 338.785 252.138C339.398 252.433 340.03 252.693 340.673 252.918C339.76 252.888 338.055 253.797 337.13 254.215C325.96 251.17 320.285 242.673 320.08 231.193C320.028 228.259 322.128 221.281 324.205 219.253C325.279 218.353 331.768 216.281 333.468 216.364Z" fill="#FEFEFE"/>
</g>
<defs>
<clipPath id="clip0_64_3696">
<rect width="480" height="480" fill="white"/>
</clipPath>
</defs>
</svg>
