<svg width="480" height="480" viewBox="0 0 480 480" fill="none" xmlns="http://www.w3.org/2000/svg">
<g clip-path="url(#clip0_64_3209)">
<path fill-rule="evenodd" clip-rule="evenodd" d="M233.64 295.413C235.014 295.51 235.466 295.618 235.662 297.113C235.908 298.995 235.65 300.998 235.717 302.876C235.893 307.848 236.575 313.241 239.461 317.438C246.325 327.578 251.935 330.421 264.018 331.648C266.895 331.938 269.442 331.561 272.144 332.166L272.525 332.253C272.258 332.847 271.977 333.432 271.68 334.012C270.207 336.822 267.912 337.38 265.162 338.243C261.645 339.908 259.8 340.28 256.062 340.505C246.493 341.075 236.668 332.207 233.146 324.035C229.434 315.42 226.044 302.705 233.64 295.413ZM306.205 243.003C307.127 243.32 307.19 243.389 307.607 244.075C308.2 251.028 303.92 259.093 304.115 266.255C304.198 269.313 304.573 271.096 303.168 273.836C303.748 277.003 304.055 279.553 304.78 282.807C308.848 285.947 313.468 286.387 317.338 290.842C319.418 293.237 320.957 294.333 320.902 298.143C320.837 302.518 318.477 307.121 315.535 310.148C313.165 312.588 305.792 316.865 302.555 316.575C296.925 316.072 293.703 316.97 289.65 312.708C288.553 311.118 287.927 310.033 288.902 308.19C293.067 300.33 301.986 310.013 308.328 307.605C309.148 307.537 311.405 305.648 311.468 304.783C312.128 295.943 301.975 292.945 295.335 290.743C294.44 290.448 294.285 290.115 294.088 289.668C294.448 288.58 295.723 287.54 296.601 286.675C295.066 278.81 296.885 270.035 297.58 262.195C298.055 256.857 299.993 244.484 306.205 243.003ZM329.385 256.642C332.992 254.195 344.564 254.436 348.582 255.318C353.924 256.493 360.117 259.285 363.144 264.108C363.354 264.438 363.555 264.77 363.75 265.11C363.487 269.665 363.275 272.705 358.19 273.586C357.765 274.253 357.312 275.79 357.13 276.59C355.165 285.268 352.662 295.995 343.05 299.095C340.465 299.928 337.558 297.937 335.775 296.235C327.058 297.1 324.147 288.595 324.492 281.618C324.892 273.563 325.055 270.63 329.04 263.41C327.27 263.557 325.247 264.168 324.692 262.05C325.1 259.955 327.767 257.74 329.385 256.642ZM252.702 237.579C259.992 238.098 266.463 239.833 272.32 244.432C275.798 247.162 275.685 251.567 272.942 254.83C271.792 256.197 270.257 257.213 269.085 258.515C269.07 263.09 268.095 265.605 266.305 269.712C261.635 280.435 257.112 282.643 246.042 281.43L245.128 281.658C242.354 282.375 239.511 280.55 237.127 279.26C230.892 275.89 229.938 270.618 229.624 264.198C229.289 257.348 230.656 253.943 233.964 248.06L233.649 248.153C230.673 249.013 228.161 247.173 230.249 244.501C232.939 241.057 236.824 238.52 241.252 238.237C243.494 238.064 245.977 238.256 248.275 238.235C249.602 238.324 251.435 237.489 252.702 237.579ZM120.558 238.41C123.341 238.986 146.451 252.525 149.607 255.39C150.243 256.733 149.827 258.583 149.47 259.978C148.038 265.568 140.441 268.298 135.516 269.733C132.848 270.51 130.53 270.458 127.98 271.898L127.63 272.097C119.508 273.597 116.733 269.778 123.766 264.505C125.879 262.92 135.139 260.773 138.126 260.305C131.625 254.065 124.13 251.78 117.328 246.286C114.544 244.036 118.657 239.842 120.558 238.41ZM357.263 218.336C364.425 218.476 370.177 218.614 372.125 227.121C372.81 230.106 368.175 239.278 365.295 239.522C364.037 238.576 363.88 235.959 363.455 234.245C362.883 231.895 361.35 229.895 359.232 228.73C356.952 227.473 353.847 227.145 351.345 227.88L351.053 227.969C348.088 228.545 343.923 230.035 341.33 231.63C339.485 232.765 337.205 236.055 335.328 236.428C333.913 235.891 332.638 236.302 332.12 235.273C332.205 234.025 333.092 232.601 333.862 231.622C339.495 224.45 348.49 219.804 357.263 218.336ZM269.145 207.368C277.675 207.178 288.535 210.155 283.215 221.201C281.975 223.775 279.345 228.374 277.793 223.078C276.065 217.197 274.628 216.313 268.683 215.514C261.96 214.611 256.708 216.235 250.368 218.303C246.381 219.125 242.557 221.538 239.047 223.538C237.496 224.421 233.45 228.007 232.102 225.588C232.042 222.574 236.608 217.674 239.08 216.249C247.137 211.604 259.993 207.59 269.145 207.368Z" fill="#4B4746"/>
<path fill-rule="evenodd" clip-rule="evenodd" d="M329.04 263.41C334.788 260.947 341.217 263.458 347.555 263.56C341.03 268.783 337.912 275.47 336.047 283.627C335.04 288.04 335.74 291.867 335.775 296.235C327.057 297.1 324.147 288.595 324.492 281.618C324.892 273.563 325.055 270.63 329.04 263.41ZM233.964 248.06C235.848 246.068 250.76 246.845 253.987 247.113C252.705 248.465 249.639 251.593 248.723 252.998C245.755 257.553 245.473 263.375 243.213 268.84C244.985 274.427 241.061 274.268 244.704 279.03C245.21 279.69 245.339 280.658 246.041 281.43L245.128 281.658C242.354 282.375 239.511 280.55 237.126 279.26C230.892 275.89 229.938 270.618 229.624 264.198C229.289 257.348 230.656 253.943 233.964 248.06Z" fill="#FEFEFE"/>
</g>
<defs>
<clipPath id="clip0_64_3209">
<rect width="480" height="480" fill="white"/>
</clipPath>
</defs>
</svg>
