<svg width="480" height="480" viewBox="0 0 480 480" fill="none" xmlns="http://www.w3.org/2000/svg">
<g clip-path="url(#clip0_64_3870)">
<path fill-rule="evenodd" clip-rule="evenodd" d="M248.584 309.978C248.877 310.07 248.697 309.985 249.036 310.37C249.177 311.7 248.967 312.868 248.809 314.197C245.49 318.8 240.033 324.2 234.837 326.695C233.399 327.46 230.862 327.938 229.496 328.601C226.236 330.186 226.343 330.9 222.682 330.218C222.243 330.135 219.152 331.38 218.252 331.523C212.929 332.365 207.249 331.34 202.315 329.242C200.091 328.245 196.904 326.203 194.801 324.923C193.975 323.776 193.662 322.73 193.158 321.413C193.261 321.006 193.372 320.603 193.494 320.203C195.967 311.748 198.211 317.835 204.055 319.875C221.655 326.013 233.342 317.005 248.584 309.978ZM330.627 288.277C332.48 288.45 335.307 289.643 336.31 291.277C337.5 293.222 337.282 296.563 335.207 297.853C333.067 298.293 330.33 296.615 328.382 295.62C325.297 297.853 321.733 303.283 320.113 306.813C326.163 306.038 333.378 305.91 333.121 314.228C332.958 319.483 330.327 323.961 326.582 327.538C321.15 332.985 319.055 330.47 313.09 331.59C312.248 331.192 311.38 330.74 310.545 330.322C310.245 328.775 309.838 327.28 309.39 325.822C306.098 315.102 320.37 290.825 330.627 288.277ZM325.978 318.718C323.448 316.628 322.79 315.761 319.483 316.061L319.122 316.098C318.29 316.403 317.298 316.735 316.493 317.07L314.955 319.9C316.26 321.086 318.422 323.547 320.025 323.55C320.375 323.357 320.8 323.141 321.135 322.936C323.375 321.481 324.63 321.018 325.978 318.718ZM186.311 233.609C188.613 228.518 200.891 202.781 206.438 203.448C206.797 203.896 206.957 204.039 206.95 204.65C206.908 208.139 200.609 217.362 198.771 220.874C196.099 225.981 193.324 231.243 191.001 236.513C187.421 244.636 183.035 266.603 184.486 275.41C184.837 277.54 185.626 279.47 186.945 281.188C188.718 283.495 190.772 284.58 193.41 285.692C195.523 285.36 197.747 285.298 199.858 285.04C201.845 284.8 205.257 283.545 206.967 284.598C209.341 286.06 205.469 290.693 204.366 291.851C201.642 294.708 197.668 295.882 193.823 295.835C189.529 295.935 184.969 295.38 181.817 292.205C177.535 287.895 176.456 280.833 176.827 275.018C177.159 269.818 176.825 259.503 178.898 255.208C178.925 255.218 178.951 255.225 178.977 255.232C178.951 255.225 178.925 255.218 178.898 255.208C179.337 253.288 179.797 251.496 180.586 249.686L180.943 248.65C182.692 243.504 183.967 238.794 186.311 233.609ZM240.91 222.067C245.666 221.941 253.875 223.23 258.215 224.824C262.498 226.398 268.95 229.373 270.693 233.552C272.115 236.965 273.257 240.383 271.547 244.004C268.067 251.215 264.502 243.148 263.007 242.443C262.777 242.162 261.697 239.076 261.485 238.494C254.217 234.651 253.535 235.641 245.778 233.834C245.651 233.799 245.542 233.764 245.446 233.733V233.734C245.542 233.765 245.651 233.799 245.778 233.834C245.475 235.471 245.964 235.667 245.502 237.527L245.398 237.922C246.647 240.434 243.943 252.396 242.959 255.258C240.992 260.98 238.098 267.408 232.702 270.673C231.971 271.113 230.762 271.053 229.917 271.098L229.724 271.106C217.263 267.378 225.464 240.671 228.692 232.298C227.644 231.828 227.53 231.791 226.663 231.067C225.634 228.519 231.072 224.057 232.926 222.678C235.497 222.792 238.241 222.138 240.91 222.067ZM147.916 213.274C153.627 211.087 157.044 210.667 163.092 210.93C170.083 211.233 180.177 212.038 177.113 222.136C176.77 223.265 175.342 224.586 174.186 224.894L173.875 225.433C174.052 227.804 174.242 230.713 173.818 233.11C172.632 239.813 168.463 248.532 164.122 253.816C160.875 257.768 154.796 260.498 149.941 261.65C146.71 260.576 146.528 260.512 144.183 258.135C142.626 257.645 141.735 255.878 141.042 254.495C136.972 246.372 138.431 236.88 140.612 228.442C141.03 226.836 141.822 225.182 142.339 223.635C142.787 222.294 140.771 221.378 141.84 219.46C143.366 216.794 144.949 214.41 147.916 213.274ZM244.104 233.706V233.707V233.706ZM232.684 233.52V233.521V233.52ZM250.943 189.342C259.885 189.827 274.072 198.984 280.812 204.829L281.712 207.453C280.775 209.821 278.324 212.703 275.562 212.464C271.597 212.845 271.715 211.275 268.837 209.428C265.915 207.859 263.952 205.804 261.368 203.9C258.583 201.849 254.152 200.347 251.315 198.004C250.092 196.995 245.739 197.984 244.559 195.558C244.617 193.275 248.538 189.627 250.943 189.342ZM176.453 184.283C178.131 184.07 180.455 184.425 182.145 184.65C183.044 185.556 184.208 186.684 184.26 188.196C184.286 188.96 183.211 189.649 182.288 190.28C179.503 192.165 176.505 193.77 173.552 195.376C172.924 195.306 170.966 194.703 170.428 194.924C166.392 196.581 162.379 197.575 158.175 198.65C157.615 198.793 155.789 199.758 155.081 200.07C153.41 200.601 152.096 200.889 150.378 201.261C149.393 200.938 148.689 200.801 147.898 200.13C147.704 199.648 147.522 199.327 147.837 198.737C151.351 192.176 156.191 190.82 162.831 188.705C164.239 188.257 167.072 186.914 168.648 186.308L171.387 186.958C173.279 185.825 174.439 185.146 176.453 184.283Z" fill="#4B4746"/>
<path fill-rule="evenodd" clip-rule="evenodd" d="M244.104 233.707C244.86 233.389 244.762 233.549 245.778 233.834C253.535 235.64 254.218 234.651 261.485 238.494C261.698 239.075 262.778 242.161 263.008 242.443C261.468 255.905 255.372 270.13 241.378 273.71C240.435 273.95 239.287 274.748 238.245 274.631C234.913 274.148 232.396 272.478 229.725 271.105L229.918 271.097C230.763 271.052 231.971 271.112 232.701 270.673C238.097 267.408 240.991 260.98 242.959 255.257C243.942 252.395 246.647 240.433 245.397 237.922L244.503 236.177C243.991 235.171 243.787 234.695 244.104 233.707ZM160.548 218.915C164.891 219.271 170.105 221.559 173.415 224.323C173.565 224.71 173.709 225.052 173.876 225.432C174.053 227.804 174.243 230.713 173.818 233.11C172.633 239.812 168.464 248.531 164.123 253.815C160.875 257.768 154.797 260.498 149.941 261.65C146.711 260.575 146.529 260.512 144.184 258.134C146.682 257.162 148.163 257.49 150.394 255.935C155.969 252.045 158.543 239.711 159.351 233.483C159.825 229.289 159.179 225.274 158.854 221.119C158.799 220.418 159.83 218.856 160.548 218.915Z" fill="#FEFEFE"/>
</g>
<defs>
<clipPath id="clip0_64_3870">
<rect width="480" height="480" fill="white"/>
</clipPath>
</defs>
</svg>
