<svg width="480" height="480" viewBox="0 0 480 480" fill="none" xmlns="http://www.w3.org/2000/svg">
<g clip-path="url(#clip0_64_3071)">
<path fill-rule="evenodd" clip-rule="evenodd" d="M262.26 302.415C265.057 305.348 263.842 308.817 263.125 312.38C262.873 313.632 261.57 318.581 260.775 319.64C257.55 323.945 253.636 328.86 249.255 331.94C242.353 336.79 236.998 338.035 228.656 338.045C226.746 338.047 223.714 338.905 221.784 338.6C219.696 338.27 217.408 337.592 215.309 337.122L212.883 336.518C213.072 335.115 214.1 328.738 215.127 328.622C218.723 328.225 225.621 328.478 229.101 328.173C233.387 327.798 242.651 324.768 246.16 322.688C252.488 319.08 255.438 313.91 258.561 307.595C259.308 306.085 260.967 303.55 262.26 302.415ZM191.977 232.84C198.543 235.343 197.936 252.867 198.563 258.93C198.788 263.937 199.588 267.606 198.291 272.538C195.297 284.242 177.24 278.333 187.22 294.955C189.377 298.363 194.448 301.195 198.5 301.293C202.415 301.385 207.879 299.445 211.857 300.348C214.488 302.503 208.169 308.994 206.728 311.095C205.582 312.697 201.459 313.931 199.448 314.663C196.662 313.468 195.634 313.683 192.652 313.23C185.884 312.203 182.726 307.133 178.093 302.745C177.018 301.728 176.541 290.859 176.65 288.873C176.968 283.093 179.375 276.065 183.948 272.25C186.317 270.273 189.233 268.727 191.52 266.55L191.772 266.305C190.541 260.95 191.888 254.625 191.094 249.552C189.834 241.503 187.965 240.927 191.977 232.84ZM157.429 241.041C162.797 241.889 163.017 247.942 163.803 252.149C165.48 261.127 166.427 270.972 163.714 279.837C162.97 282.267 160.014 289.907 156.637 288.582C156.15 288.302 155.669 288.012 155.195 287.71C151.745 285.487 148.824 279.422 148.018 275.447C146.499 267.952 147.836 242.935 157.429 241.041ZM241.177 233.098C246.232 233.428 247.041 237.618 248.786 241.401C252.583 249.633 251.3 259.383 250.14 268.085C249.735 271.127 246.329 276.724 244.368 278.992L242.053 279.803C237.228 280.353 234.156 275.588 233.462 271.378C231.593 260.035 230.326 247.048 236.453 236.737C237.358 235.215 239.383 233.429 241.177 233.098ZM344.505 236.801C352.217 236.557 349.078 241.865 345.243 244.984C340.616 248.749 334.148 252.59 329.91 256.645L329.678 256.87C331.42 257.478 337.105 258.843 338.968 259.075C342.813 259.408 346.343 258.527 349.803 260.827C351.79 262.147 351.21 264.517 349.7 266.002C347.38 268.277 343.793 269.674 340.556 269.979C334.071 269.744 325.01 267.832 318.718 267.787C316.605 266.39 316.205 266.025 314.99 263.805C316.83 256.805 321.175 253.475 326.825 249.688C331.828 246.336 338.93 238.758 344.505 236.801ZM151.337 212.377C153.751 212.501 158.741 214.491 161.039 215.588C162.596 216.331 164.383 217.948 165.661 218.782C171.594 222.653 171.292 225.259 173.357 231.501C174.406 234.669 174.109 235.447 172.585 238.344C169.925 237.132 166.453 235.278 163.958 233.779C162.459 232.879 160.419 230.172 158.774 229.086C157.342 228.14 155.874 228.161 154.418 227.398C153.76 227.054 152.16 225.449 151.582 225.48C148.911 225.629 146.395 225.592 143.748 225.449C140.827 226.136 141.202 227.297 138.096 225.835C135.009 227.208 132.54 228.705 129.872 230.746C127.211 232.782 125.84 239.872 121.908 237.622C121.589 237.209 121.238 236.711 121.283 236.165C122.473 221.842 138.92 212.865 151.337 212.377ZM252.273 200.591C257.518 200.794 264.798 202.593 268.985 205.863C273.618 209.479 273.955 213.082 274.753 218.407C273.94 220.349 273.593 220.877 272.16 222.301C267.155 220.302 266.358 219.55 261.963 217.263C255.208 213.667 247.418 212.513 239.909 213.994C239.106 214.159 237.648 214.866 236.613 215.192C235.733 215.069 235.36 214.572 234.688 213.959C232.934 214.755 231.172 215.525 229.312 216.021C222.801 217.711 219.595 223.867 215.846 228.482C214.996 229.528 212.319 230.49 211.248 228.818C210.969 226.29 213.374 220.98 214.79 218.814C219.886 211.026 221.806 208.799 230.526 205.104C234.63 202.966 238.233 202.032 242.772 201.301C245.712 200.828 249.596 201.256 252.273 200.591Z" fill="#4B4746"/>
</g>
<defs>
<clipPath id="clip0_64_3071">
<rect width="480" height="480" fill="white"/>
</clipPath>
</defs>
</svg>
