<svg width="480" height="480" viewBox="0 0 480 480" fill="none" xmlns="http://www.w3.org/2000/svg">
<g clip-path="url(#clip0_64_3585)">
<path fill-rule="evenodd" clip-rule="evenodd" d="M247.439 296.326C248.686 296.546 250.101 296.87 251.293 297.225C262.655 300.605 275.073 300.653 286.748 298.911C289.359 298.521 300.803 295.85 302.583 296.533C302.878 297.51 302.583 298.58 302.413 299.627C301.501 300.642 297.012 303.91 295.492 305.113C292.807 307.005 289.193 307.896 286.123 309.138C285.268 309.361 281.038 311.61 280.433 311.555C276.883 311.23 269.318 311.955 266.138 311.46C259.015 310.05 249.925 309.428 244.026 304.983C242.812 304.068 245.862 297.331 247.439 296.326ZM152.8 276.303C153.837 276.368 154.372 276.451 155.174 277.036C159.294 283.158 143.141 293.221 139.916 297.393C138.471 299.263 132.225 304.383 129.816 304.058L129.539 303.63C129.572 299.9 133.834 294.443 136.265 291.77L138.364 289.685C137.386 289.478 136.37 289.267 135.351 289.235C131.901 289.12 119.154 293.243 117.59 289.113C117.898 286.828 120.134 283.041 122.591 282.581C129.709 281.256 137.035 281.136 144.016 279.013C147.011 278.103 149.712 276.928 152.8 276.303ZM287.97 213.901C292.562 214.199 291.482 222.324 292.52 225.809C294.245 231.591 296.35 237.399 298.327 243.104C299.795 247.332 304.23 252.835 307.405 255.918C308.866 255.4 313.23 253.923 313.457 256.1C314.022 261.458 308.82 276.218 306.518 280.435C305.615 281.695 305.95 282.525 304.27 282.945C303.357 282.669 301.205 279.945 299.285 278.733L298.99 278.55C299.825 276.148 301.792 269.533 301.2 267.265C300.255 263.648 296.013 258.715 294.195 255.37C292.725 252.66 290.45 247.759 289.48 244.886C288.398 241.396 287.97 237.689 287.21 234.136C285.9 228.02 282.53 219.065 287.97 213.901ZM234.722 237.271C240.437 237.002 242.695 240.468 244.455 245.261C247.253 252.93 248.479 260.553 247.378 268.703C246.535 274.942 247.012 275.48 241.081 277.485C237.927 278.39 238.451 276.5 236.818 275.115C230.947 270.13 229.13 267.27 228.833 259.39C228.588 252.878 228.019 241.072 234.722 237.271ZM328.758 214.024C332.427 214.003 334.11 215.822 335.46 219.018C337.97 224.954 344.135 251.016 333.44 252.182C326.058 251.457 325.502 244.691 322.457 239.239C322.777 237.198 322.247 235.259 322.225 233.252C322.155 226.978 322.325 217.186 328.758 214.024ZM240.635 208.508C243.683 208.202 249.307 209.325 251.612 211.351C252.087 211.769 252.455 212.329 252.396 212.99C252.381 213.148 252.338 213.303 252.298 213.456C252.203 213.812 251.963 214.181 251.743 214.472C250.156 216.584 237.243 218.334 234.126 218.965C220.685 221.689 209.435 226.371 198.161 234.188C195.94 235.728 193.666 237.211 191.67 239.044C189.667 240.651 186.541 243.269 183.927 242.992C183.05 242.399 183.389 242.785 182.971 241.714C183.224 240.204 185.355 235.916 186.365 234.701C190.912 229.238 195.972 225.925 202.131 222.576C204.386 221.332 206.848 219.239 209.181 218.263C216.012 215.405 222.974 212.468 230.031 210.215C232.688 209.368 236.73 209.013 239.524 208.655C239.893 208.592 240.263 208.544 240.635 208.508ZM339.237 178.588C341.237 178.414 343.853 179.295 346.016 179.214C347.446 179.161 349.263 179.372 350.062 180.676C350.107 182.199 349.075 183.093 348.095 184.253C346.43 184.776 344.365 185 342.66 185.539C339.898 186.411 337.155 187.404 334.348 188.141C332.985 188.499 332.59 189.675 331.388 189.826C331.083 189.664 330 189.084 329.715 189.216C325.562 191.145 321.423 192.312 317.035 193.541C314.995 194.112 312.215 195.381 310.155 196.204C307.045 197.564 305.113 200.343 302.053 199.956C299.753 198.323 304.563 192.266 306.11 191.345C316.258 185.301 327.425 180.136 339.237 178.588Z" fill="#4B4746"/>
</g>
<defs>
<clipPath id="clip0_64_3585">
<rect width="480" height="480" fill="white"/>
</clipPath>
</defs>
</svg>
