<svg width="480" height="480" viewBox="0 0 480 480" fill="none" xmlns="http://www.w3.org/2000/svg">
<g clip-path="url(#clip0_64_3640)">
<path fill-rule="evenodd" clip-rule="evenodd" d="M248.692 296.2C249.066 296.253 250.43 296.433 250.588 296.633C253.028 299.733 254.488 303.156 257.5 305.823C260.367 308.361 262.232 308.92 265.327 310.398C273.43 314.268 280.467 313.238 289.125 312.548C290.44 312.443 292.15 312.373 293.21 313.308C293.945 315.6 289.987 317.803 288.385 318.795C280.395 323.908 271.402 324.498 262.725 320.328C257.267 317.706 252.25 311.635 248.638 306.941C247.98 306.083 247.009 303.011 246.646 301.903C247.052 299.981 247.299 297.5 248.692 296.2ZM153.224 278.346C154.059 278.216 155.454 277.948 155.943 278.768C157.378 280.913 156.452 286.286 154.764 288.381C150.659 293.473 144.411 297.933 139.394 302.173C137.489 303.783 133.91 305.683 131.436 305.445C130.823 305.385 130.686 304.986 130.477 304.538C130.55 301.628 133.714 297.79 135.55 295.678C136.778 294.005 139.394 292.583 141.625 289.758C137.565 290.165 134.778 290.776 130.365 290.373C127.949 290.156 125.819 289.691 123.465 289.516C123.5 288.013 123.887 283.076 124.919 282.408C128.25 280.256 138.246 280.703 141.801 280.158C146.348 279.458 149.13 278.803 153.224 278.346ZM292.803 220.877C295.898 221.659 295.148 224.865 295.745 227.252C297.988 236.193 294.203 248.933 306.72 251.353C310.955 252.238 320.242 256.471 322.692 259.948C329.242 269.248 325.935 286.083 316.088 292.08C312.443 294.3 311.383 295.743 307.163 295.035C306.126 294.713 304.515 294.488 303.585 293.931C303.182 293.691 302.755 292.883 302.848 292.405C303.358 289.835 308.093 286.723 310.12 285.433C311.565 284.515 314.47 283.371 315.312 282.341C316.447 280.953 318.78 277.52 318.625 275.83C317.545 264.158 301.81 266.868 295.607 260.155C293.855 258.398 293.066 256.038 292.078 253.898C289.136 247.512 288.86 240.669 289.438 233.772C289.58 232.101 289.235 230.041 289.365 228.273C289.588 225.284 290.58 222.895 292.803 220.877ZM247.354 233.354C250.237 233.031 257.625 233.552 260.138 235.243C262.667 236.949 262.88 238.642 263.468 241.32C262.425 244.49 262.65 245.205 259.22 245.702C259.85 249.194 260.828 253.103 260.723 256.636C260.475 264.966 259.252 272.233 253.425 278.316C251.193 278.516 249.626 279.05 247.968 277.261C241.85 270.656 241.034 264.153 241.663 255.561C241.811 251.273 242.294 247.895 243.548 243.798C241.98 243.818 239.911 243.743 238.407 244.193C233.129 245.763 228.544 247.941 224.371 251.588C222.585 253.151 218.301 257.895 215.828 256.568C214.488 254.28 216.86 249.41 218.537 247.531C224.735 240.591 238.258 234.157 247.354 233.354ZM343.188 212.087C348.017 212.174 352.998 213.361 356.263 217.203C357.485 218.639 358.587 221.716 356.617 223.041C355.015 224.12 353.29 223.524 351.567 223.13C352.107 224.822 352.635 226.535 353.188 228.222C356.152 237.261 356.595 255.875 345.745 260.115C340.578 258.905 338.14 254.463 337.32 249.562C336.315 241.009 336.93 230.384 340.133 222.361C337.47 222.834 334.255 223.564 331.957 225.076C329.137 226.931 325.435 231.801 321.742 231.809C319.775 230.45 324.03 223.548 325.14 222.242C329.182 217.487 337.055 213.093 343.188 212.087ZM233.264 203.605C237.476 203.2 245.397 203.257 249.227 204.855C252.705 206.306 257.04 210.833 258.455 214.292C258.255 215.241 257.668 218.497 257.093 218.873C254.958 220.27 246.315 218.397 244.251 217.955C241.023 217.264 238.174 215.599 235.062 215.849C226.298 216.553 216.809 219.699 210.8 226.192C204.028 233.458 208.256 236.411 205.783 242.576C203.003 244.032 203.502 244.371 200.41 243.314C199.451 239.669 199.272 237.463 200.289 233.66C202.814 224.219 208.239 215.17 216.116 209.248C217.828 207.965 219.96 207.482 221.831 206.668C226.027 204.843 228.651 203.956 233.264 203.605ZM339.431 178.824C346.753 177.695 358.913 181.134 364.253 186.341C365.243 192.141 367.07 193.136 362.423 197.665C354.755 194.767 345.51 188.84 336.938 189.605C332.08 189.783 325.56 193.11 322.793 197.162C321.848 198.546 320.843 201.859 319.811 202.546C312.666 203.285 317.315 194.366 319.26 191.484C321.722 187.831 326.383 182.478 330.633 180.808C332.775 179.965 337.116 179.246 339.431 178.824Z" fill="#4B4746"/>
</g>
<defs>
<clipPath id="clip0_64_3640">
<rect width="480" height="480" fill="white"/>
</clipPath>
</defs>
</svg>
