<svg width="480" height="480" viewBox="0 0 480 480" fill="none" xmlns="http://www.w3.org/2000/svg">
<g clip-path="url(#clip0_64_3357)">
<path fill-rule="evenodd" clip-rule="evenodd" d="M287.633 302.892C290.085 302.928 289.988 305.355 290.898 307.062C292.383 309.847 291.43 313.575 290.81 316.48C289.14 324.323 285.452 331.435 279.707 337.062C277.425 339.297 274.54 340.923 272.295 343.218L272.055 343.465C267.537 344.387 264.675 345.64 259.855 345.618C256.337 345.6 254.294 346.259 250.605 345.344C244.321 343.787 239.308 341.185 233.608 338.328C228.098 336.405 228.202 333.575 231.447 329.203C232.021 328.43 233.01 327.907 233.991 328.102C236.621 328.502 239.363 330.442 241.831 331.112C247.516 332.655 256.7 335.677 262.445 335.205C274.13 334.245 282.245 324.24 284.905 313.482C285.945 309.28 284.368 306.667 287.633 302.892ZM229.637 237.866C231.104 238.032 232.311 239.501 232.696 240.854C235.888 252.065 237.121 264.125 240.863 275.135C237.754 279.752 239.387 281.158 233.652 284.525C230.4 283.213 227.829 283.317 224.668 282.16C221.936 282.882 214.791 283.685 217.46 288.735C219.14 291.915 221.848 294.785 224.565 297.072C227.836 300.159 230.3 300.5 234.326 301.34C240.101 302.547 243.217 302 248.765 300.482C250.907 299.897 257.862 297.13 259.697 297.822L259.905 298.395C259.6 300.528 257.145 303.11 255.657 304.58C254.685 305.527 252.865 306.445 251.71 307.295C246.882 310.832 240.975 312.635 234.995 312.272C233.929 312.207 232.349 312.813 231.199 312.61C229.77 312.368 228.194 311.53 226.857 311.048C221.031 308.95 217.879 307.012 213.967 302.072C211.658 299.154 208.943 291.925 209.546 288.347C210.243 284.212 212.905 279.25 216.402 276.732C221.195 273.282 225.465 273.282 231.005 274.067L230.937 273.847C230.093 270.965 230.044 268.2 229.579 265.24C229.001 261.562 226.956 257.28 227.749 253.602L227.634 253.368C226.68 251.336 226.83 250.363 226.306 248.96C224.123 243.11 226.093 241.946 229.637 237.866ZM291.295 239.532C292.915 239.53 293.135 239.7 294.64 240.278C294.872 240.557 295.098 240.843 295.313 241.135C297.677 244.414 296.892 261.75 296.117 266.312C295.53 269.767 292.087 274.795 289.832 277.565C289.659 277.774 289.257 277.527 289.045 277.45C287.615 277.01 285.05 276.874 284.072 276.219C283.703 275.587 283.625 275.005 283.76 274.245C284.065 272.527 282.513 269.535 282.455 267.977C282.285 263.34 282.582 256.11 283.617 251.727C284.412 248.349 288.413 241.19 291.295 239.532ZM196.366 239.367C199.184 239.056 200.084 240.088 200.967 242.861C203.769 251.665 201.285 273.447 191.321 276.887C189.302 277.027 187.028 276.952 187.024 274.437C186.937 272.912 186.526 271.274 186.363 269.76C185.475 261.517 185.353 254.89 189.344 247.309C191.111 243.954 192.356 240.871 196.366 239.367ZM380.6 238.209C381.8 238.207 382.518 238.354 383.428 239.131C383.943 240.557 383.107 242.725 382.527 244.116C380.21 249.681 370.212 253.495 364.97 255.588C369.172 256.925 374.16 257.489 378.4 258.844C380.588 259.542 382.991 260.755 385.088 261.753C382.695 266.793 383.737 267.297 377.348 267.607C377.03 267.867 376.755 268.08 376.423 268.32L375.485 268.083C370.708 267.86 360.005 264.725 355.505 262.86C345.047 258.525 360.018 250.468 363.195 248.551L380.6 238.209ZM92.3946 239.447C96.4655 239.746 102.31 243.674 106.046 245.154C112.316 247.639 117.29 250.413 121.862 255.56C119.288 262.285 113.41 264.155 106.937 265.637C102.012 266.785 90.1965 268.59 96.3145 258.575C97.1768 257.162 103.223 256.783 105.083 256.645C102.897 253.84 102.013 254.558 99.1006 253.055C92.2477 249.518 83.2085 247.404 92.3946 239.447ZM189.87 208.348C196.696 207.504 205.298 211.138 209.042 216.551C212.213 221.134 207.125 225.645 201.95 220.905C199.84 218.973 188.574 217.342 185.67 217.885C184.428 218.117 182.063 218.531 180.732 218.516C178.766 217.937 177.293 219.773 175.301 220.978C168.273 225.189 171.496 224.585 168.578 231.511C167.946 232.788 167.202 234.152 165.792 234.604C164.728 235.031 162.127 233.385 162.316 232.252C164.848 217.069 175.191 210.118 189.87 208.348ZM301.508 207.572C304.043 207.214 311.85 208.371 314.213 209.841C320.18 213.551 321.01 216.278 322.755 222.43C321.705 224.907 321.215 225.46 319.368 227.359C316.271 224.852 312.991 222.582 309.556 220.566C308.513 219.949 307.688 219.598 306.61 219.102C305.723 218.693 304.53 217.785 303.652 217.226C299.992 218.156 293.843 215.283 288.62 219.193C286.24 220.864 281.893 222.78 280.458 225.351C279.048 228.174 278.557 231.582 275.322 232.958C274.357 233.82 271.261 231.43 271.402 230.682C272.437 225.173 275.735 221.499 279.607 217.892C286.312 211.646 292.703 209.152 301.508 207.572Z" fill="#4B4746"/>
</g>
<defs>
<clipPath id="clip0_64_3357">
<rect width="480" height="480" fill="white"/>
</clipPath>
</defs>
</svg>
