<svg width="480" height="480" viewBox="0 0 480 480" fill="none" xmlns="http://www.w3.org/2000/svg">
<g clip-path="url(#clip0_64_3721)">
<path fill-rule="evenodd" clip-rule="evenodd" d="M245.61 299.863C245.836 299.888 246.354 300.015 246.596 300.07C247.31 300.672 247.518 301.81 247.553 302.725C247.988 314.012 244.368 321.06 237.278 329.425C232.621 334.92 232.123 335.043 225.027 337.645C224.079 337.907 221.101 339.242 220.235 339.09C216.065 338.353 211.797 338.46 207.624 338.057C205.698 337.87 203.922 336.467 202.157 335.9C200.464 335.355 198.95 335.038 197.274 334.515C192.744 332.873 189.505 330.472 186.083 327.243C185.048 326.26 184.739 325.985 183.918 324.778C183.725 322.65 183.168 318.262 185.751 317.582C187.305 318.15 188.696 321.212 189.729 321.792C196.16 325.367 204.174 328.113 211.349 329.368C217.199 330.393 224.987 327.827 228.917 323.41C229.959 322.24 232.487 321.295 233.613 319.927C238.25 314.3 240.709 305.642 245.362 300.15L245.61 299.863ZM336.362 295.658C335.68 298.582 335.08 301.242 334.292 304.164C333.007 303.897 331.782 303.622 330.492 303.95C325.562 305.202 321.192 307.535 316.215 308.818C318.182 310.293 319.305 310.445 321.657 310.85C324.005 311.255 327.91 314.83 328.835 316.94C332.9 326.207 319.867 325.083 314.69 323.073C313.515 322.6 311.95 322.52 310.835 322.02C306.895 320.253 298.645 318.173 296.36 314.563C295.28 312.858 296.637 306.36 297.279 304.49C300.957 300.72 307.373 300.422 312.12 298.927C319.078 296.74 325.615 296.093 332.832 295.363L336.362 295.658ZM197.613 218.101C199.551 218.34 199.851 221.003 200.452 222.705C199.272 226.796 198.228 229.696 196.629 233.613C195.913 235.62 195.623 237.996 194.949 239.981C192.34 247.675 190.884 255.82 188.393 263.488C186.974 267.85 181.855 264.072 177.672 266.042C171.31 269.037 169.886 273.54 172.629 280.012C173.741 282.587 175.956 284.767 178.532 285.66C186.268 288.235 195.734 281.788 202.364 278.345C203.208 277.923 206.145 276.665 206.919 277.323C210.051 279.98 204.099 287.32 202.797 289.395C201.026 291.695 199.345 293.235 196.955 294.913C191.71 298.568 185.202 299.93 178.932 298.682C174.554 297.852 173.342 296.657 171.003 293.225L167.885 292.414C165.286 289.337 164.873 286.805 163.943 283.012C163.375 280.7 163.24 278.88 163.684 276.53C165.512 266.847 171.756 254.2 183.612 256.365C185.188 249.863 186.911 244.121 188.964 237.762C191.253 230.673 191.82 223.598 197.613 218.101ZM224.425 230.337C230.116 230.305 232.673 230.353 238.374 231.475C244.473 232.676 252.11 233.213 257.103 237.537C260.775 240.716 256.81 247.169 252.255 246.965C250.143 246.947 248.558 247.419 246.246 247.219C246.206 256.947 245.23 259.893 241.604 268.568C240.572 271.522 240.435 272.623 238.378 275.06C236.778 275.55 233.043 276.547 231.655 276.002C221.348 271.96 230.91 247.769 232.758 241.935C230.677 241.502 221.427 238.06 220.606 236.28C220.493 234.216 222.236 231.072 224.425 230.337ZM146.61 214.791C156.047 214.699 169.027 217.228 177.233 222.089C181.114 224.389 178.602 226.837 176.702 229.3C171.782 229.931 169.491 230.382 164.582 229.388C164.167 237.124 163.398 243.459 160.851 250.805C160.278 252.788 159.084 258.048 157.404 258.595C155.991 259.058 151.694 260.432 150.453 259.895C142.457 256.422 145.601 242.663 147.464 236.295C148.237 233.655 150.609 228.513 151.796 225.791C147.928 224.839 140.611 224.685 143.43 219.263C144.361 217.472 144.596 215.677 146.61 214.791ZM273.41 189.83C288.405 189.452 293.077 197.035 286.997 210.547C285.825 213.149 282.11 218.739 278.755 217.769C278.715 214.866 279.957 211.729 279.867 208.653C279.585 199.008 272.68 197.948 265.032 200.522C262.685 201.364 260.53 202.754 258.383 203.532C251.91 205.874 251.63 210.968 247.677 215.723L247.418 216.029C246.604 215.828 243.976 215.548 243.625 215.268C241.265 213.384 245.469 205.897 246.629 204.506C253.108 196.736 263.495 191.195 273.41 189.83ZM177.349 163.365C179.767 162.893 184.192 164.07 186.134 165.486C194.916 171.887 189.174 187.351 184.067 194.4C182.888 196.026 179.228 200.489 177.338 198.259C176.375 194.618 180.2 184.685 181.735 180.91C181.076 178.875 180.425 176.708 179.609 174.743C178.429 174.272 177.256 173.783 176.091 173.278C173.301 174.202 171.297 175.223 168.634 176.244C164.035 178.811 158.247 186.254 154.285 190.05C152.674 191.595 149.302 197.507 146.82 197.161C142.765 191.703 165.591 168.981 170.365 166.315C172.698 165.013 174.888 164.319 177.349 163.365Z" fill="#4B4746"/>
</g>
<defs>
<clipPath id="clip0_64_3721">
<rect width="480" height="480" fill="white"/>
</clipPath>
</defs>
</svg>
