<svg width="480" height="480" viewBox="0 0 480 480" fill="none" xmlns="http://www.w3.org/2000/svg">
<g clip-path="url(#clip0_64_3541)">
<path fill-rule="evenodd" clip-rule="evenodd" d="M235.7 278.678C236.316 278.903 236.786 278.947 237.107 279.59C239.885 285.145 239.945 292.505 243.367 297.665C248.609 305.375 255.99 310.63 265.608 310.415C268.165 310.36 272.095 310.155 274.452 310.722L274.784 310.805C277.629 309.593 288.658 307.41 290.5 309.508C290.718 311.765 286.895 314.608 285.167 315.623C283.707 316.376 278.359 319.15 276.949 319.498C272.202 320.67 267.349 321.117 262.417 320.825C255.347 320.407 250.285 317.867 244.631 313.642C243.955 313.137 243.552 311.53 242.817 310.855C242.333 310.41 241.007 309.595 240.71 309.163C239.272 307.058 238.579 304.175 237.588 301.803C236.895 300 235.365 298.35 234.499 296.682C232.362 292.562 231.717 281.733 235.7 278.678ZM154.488 280.368C156.75 282.031 155.136 287.138 154.263 289.373C148.617 293.213 145.055 296.887 140.043 301.307C137.985 303.122 132.888 305.27 130.297 306.485C130.665 302.505 130.811 301.747 133.276 298.54C134.673 296.383 135.462 294.778 137.264 292.908C133.312 291.071 126.044 293.037 124.752 290.355C124.639 289.055 125.981 284.778 127.559 284.488C135.985 282.926 145.035 282.265 153.341 280.29L154.488 280.368ZM294.848 213.901C295.503 214.035 296.712 214.488 296.895 214.972C298.55 219.37 300.835 239.657 300.785 243.075C303.555 243.007 306.608 242.318 309.255 242.203C312.235 242.03 320.249 243.044 322.672 244.401C337.019 252.435 319.99 277.578 309.702 281.458C306.207 282.775 298.823 282.062 302.565 276.073L302.752 275.775C304.162 274.78 306.073 274.038 307.598 272.843C314.093 267.76 316.475 265.195 320.817 258.503C319 256.373 317.517 255.35 315.225 253.725C309.8 253.963 302.357 254.52 297.525 257.015C295.262 258.183 292.579 262.31 289.77 261.65C287.307 259.098 293.043 249.837 293.79 246.813C294.507 245.075 293.074 243.144 293.047 241.607C292.902 233.61 288.753 220.344 294.848 213.901ZM249.306 226.504C254.002 226.33 255.428 234.252 255.803 237.74C256.605 245.262 257.237 258.857 249.205 262.8C242.708 260.712 244.975 258.282 243.57 252.852C241.59 245.194 240.302 230.414 249.306 226.504ZM338.515 211.271C344.235 211.447 344.264 217.918 344.199 222.298C344.082 230.144 342.505 239.292 335.787 244.14C329.992 245.083 331.242 235.994 330.494 232.762C329.077 226.64 332.667 214.342 338.515 211.271ZM245.653 191.338C247.947 191.33 252.459 192.107 254.672 192.808C261.984 195.126 263.627 199.014 266.947 205.212C266.267 208.567 266.097 211.019 262.302 208.836C256.684 205.604 250.254 202.862 243.772 202.18C241.135 201.903 240.157 203.055 237.334 202.056L236.888 201.894C232.063 203.841 228.658 205.159 224.362 208.307C221.627 210.538 218.103 214.827 217.517 218.487C217.247 220.169 217.84 225.336 215.497 225.91C213.314 226.37 211.669 225.734 211.466 223.326C210.644 213.572 217.505 203.663 225.14 198.299C232.564 193.083 236.95 192.588 245.653 191.338ZM335.405 176.311C342.228 175.73 357.397 181.476 354.447 191.349C353.644 194.042 331.133 183.588 327.91 187.249C327.835 187.285 327.763 187.321 327.688 187.357C319.485 190.964 320.935 190.814 316.545 198.403L312.483 197.944C312.428 194.103 313.082 190.916 315.317 187.746C320.767 180.008 326.49 178.082 335.405 176.311Z" fill="#4B4746"/>
</g>
<defs>
<clipPath id="clip0_64_3541">
<rect width="480" height="480" fill="white"/>
</clipPath>
</defs>
</svg>
