<svg width="480" height="480" viewBox="0 0 480 480" fill="none" xmlns="http://www.w3.org/2000/svg">
<g clip-path="url(#clip0_64_3222)">
<path fill-rule="evenodd" clip-rule="evenodd" d="M218.74 314.45C223.427 315.622 221.217 318.825 223.684 322.267C227.417 327.472 230.355 332.094 236.339 335.004C238.307 335.962 241.799 338.025 243.522 339.307C244.411 341.827 240.677 345.133 238.745 346.278C238.338 346.518 235.298 347.597 234.666 347.829C231.954 346.327 229.02 345.16 226.917 342.827C223.303 338.825 215.232 326.624 215.537 321.602C215.7 318.917 216.719 316.257 218.74 314.45ZM294.102 245.172C297.352 245.294 298.745 251.342 299.783 253.832C303.468 262.695 306.405 271.73 308.172 281.195C309.485 287.78 312.273 297.305 311.465 303.887C310.295 313.442 306.067 327.168 296.587 331.46C295.245 332.068 294.188 332.945 293.033 333.869C290.965 333.717 289.107 334 287.075 334.315C282.215 331.655 279.112 334.137 274.4 331.975L269.905 329.65C269.355 328.292 268.507 325.144 267.982 323.539C268.187 322.652 268.625 320.47 269.288 319.957C273.88 316.405 280.84 319.95 285.615 320.738C287.897 321.115 291.247 320.79 293.53 320.835C295.307 320.87 297.367 320.19 298.49 318.77C302.582 313.592 301.814 304.657 301.629 298.392C301.597 297.334 300.583 293.573 300.373 292.3C299.988 289.963 299.882 288.235 299.717 285.94C297.285 283.35 297.51 279.289 296.552 275.869C294.252 267.65 291.828 259.305 289.623 251.077C289.255 249.703 293.055 246.132 294.102 245.172ZM339.253 271.044C343.41 270.902 345.217 271.882 344.57 276.494C344.062 280.472 342.682 284.375 341.669 288.202C339.725 295.56 337.508 298.308 331.658 302.827C331.238 303.22 331.255 303.162 330.735 303.45C329.523 303.342 328.443 302.74 327.31 302.23C326.585 297.475 327.127 292.957 328.379 288.317C329.74 283.279 334.585 273.657 339.253 271.044ZM262.858 258.052C263.595 258.18 263.673 258.257 264.328 258.579C269.058 264.197 260.233 289.542 252.505 291.64C251.233 291.985 250.598 291.929 249.336 291.789C247.361 290.912 247.155 289.99 246.161 288.033C247.86 280.035 248.944 270.52 253.597 263.72C255.99 260.228 258.963 259.222 262.858 258.052ZM124.333 233.301C125.996 233.151 128.146 233.425 129.686 233.933C143.609 238.523 151.485 252.785 144.623 266.59C140.898 274.082 140.039 275.695 132.715 279.895C122.85 278.265 118.001 276.309 120.006 264.807C122.598 255.897 129.56 252.985 138.311 251.877C134.501 247.443 129.613 242.658 123.436 242.874C120.578 242.974 116.67 244.862 115.29 247.393C112.699 252.142 114.288 252.135 108.476 251.993C108.36 242.876 115.473 234.783 124.333 233.301ZM139.824 262.445C138.713 261.592 137.67 261.903 136.305 262.073C134.381 262.667 133.205 261.93 131.69 262.215C126.311 263.238 122.413 266.787 129.185 269.852L129.879 270.164C130.735 270.432 131.749 270.72 132.567 271.057C134.934 269.789 141.234 265.797 139.824 262.445ZM347.132 230.254C352.21 230.468 361.99 238.001 365.967 241.475C367.212 243.079 371.863 247.501 371.47 249.482C371.048 251.61 368.273 258.611 365.88 258.482C362.048 257.537 361.758 257.647 359.398 254.504C357.378 251.817 354.705 248.685 352.24 246.405C350.247 244.562 348.38 243.205 346.453 241.146C342.905 240.206 342.46 239.651 340.515 236.628C342.225 233.353 343.663 231.567 347.132 230.254ZM269.17 212.855C271.241 212.632 277.378 213.811 279.43 214.524C282.672 215.651 285.422 219.882 282.05 222.632C280.338 224.028 279.128 224.209 277.01 224.871L274.672 224.019C273.515 224.56 272.277 225.081 271.102 225.596C265.45 224.195 257.158 225.295 251.278 225.648C250.088 225.719 241.28 227.678 240.299 228.048C236.694 229.295 236.435 229.557 233.428 232.009C232.23 232.077 228.029 232.513 228.232 230.307C228.715 225.063 237.361 219.031 241.731 217.202C249.964 213.756 260.32 213.468 269.17 212.855Z" fill="#4B4746"/>
</g>
<defs>
<clipPath id="clip0_64_3222">
<rect width="480" height="480" fill="white"/>
</clipPath>
</defs>
</svg>
