<svg width="480" height="480" viewBox="0 0 480 480" fill="none" xmlns="http://www.w3.org/2000/svg">
<g clip-path="url(#clip0_64_3242)">
<path fill-rule="evenodd" clip-rule="evenodd" d="M224.315 297.086C225.746 299.153 226.694 307.201 227.402 309.933C228.14 312.778 229.256 314.121 230.556 316.51C235.737 326.033 244.496 324.788 252.412 329.478C251.542 333.673 250.955 333.893 246.814 334.978C244.869 335.693 239.672 335.853 237.654 335.506C233.31 334.758 227.935 330.966 225.299 327.381C222.589 323.696 222.983 321.793 221.7 317.741C221.019 315.916 219.326 313.678 219.223 311.693C218.973 306.886 218.954 299.823 223.322 296.701L224.315 297.086ZM300.43 246.412C301.112 246.674 302.819 247.449 302.877 248.328C303.272 254.543 298.582 268.178 299.635 273.768C301.162 275.508 305.215 274.268 307.97 276.01C322.65 285.29 314.39 309.168 302.015 316.638C300.974 317.266 294.677 318.978 293.295 319.39C293.045 319.19 292.109 318.462 291.86 318.446C288.37 318.211 285.343 317.146 282.07 315.853C280.045 314.938 279.758 314.323 279.33 312.173C279.02 310.622 278.413 306.148 279.535 305.006C282.478 302.221 287.58 306.98 290.495 307.708C294.913 308.808 301.15 309.686 304.272 305.613C306.765 302.368 306.49 298.046 306.195 294.211C305.98 291.398 304.735 289.733 302.65 288.076C298.7 287.216 296.923 287.088 292.41 285.85C287.19 280.045 293.23 265.915 294.737 259.14C295.175 257.178 294.932 254.593 295.702 252.748C296.675 250.423 298.675 248.21 300.43 246.412ZM349.377 259.043C351.429 260.29 352.598 261.708 352.61 264.208C352.665 275.748 347.653 287.016 341.12 296.318C340.77 296.816 340.333 296.763 339.848 296.743C337.145 295.623 334.867 295.988 333.167 293.081C328.44 284.988 338.752 262.707 345.287 259.058C346.522 258.976 348.112 259.033 349.377 259.043ZM256.562 239.282C258.015 239.072 259.703 239.223 261.186 239.291C266.122 242.336 265.878 248.393 264.968 253.35C263.318 262.343 258.832 276.998 249.313 280.435C245.563 282.088 242.308 274.893 240.935 272.39C241.475 266.151 241.117 264.283 243.141 258.208C246.345 248.595 249.123 245.408 256.562 239.282ZM124.724 241.194C129.349 240.925 139.145 244.691 144.078 245.841C148.092 246.776 152.6 247.1 156.438 248.581C157.012 248.803 157.583 249.108 157.789 249.722C158.468 251.748 157.762 254.643 156.843 256.466C155.806 258.523 154.278 260.416 152.523 261.903C151.05 263.151 134.348 273.502 132.919 273.985C130.765 274.905 124.675 277.411 123.324 274.586C123.529 265.756 141.334 259.953 142.473 257.456C140.619 256.191 134.189 255.895 131.644 254.85C126.972 252.933 123.503 251.783 120.418 247.58C121.578 245.079 122.765 243.138 124.724 241.194ZM350.518 227.351C353.292 227.145 356.083 227.36 358.795 227.989C369.36 230.352 371.41 235.272 376.732 243.739C375.65 246.509 373.987 255.389 370.905 255.95C369.048 255.46 368.993 253.825 367.995 252.61C365.93 250.095 366.897 246.593 364.933 244.359C357.953 239.397 347.479 235.734 339.024 238.852C336.774 239.683 333.002 244.187 331.479 241.688C331.347 239.631 333.222 236.724 334.604 235.111C337.452 231.788 343.07 229.295 347.138 227.747C347.609 227.568 349.923 227.395 350.518 227.351ZM247.986 206.909C252.381 206.075 264.7 209.617 268.585 212.608C272.657 215.746 273.608 219.899 274.516 224.651C273.906 226.377 273.473 227.023 272.503 228.596L269.495 228.832C265.97 224.942 256.803 220.904 251.678 219.239C250.913 218.99 243.763 217.979 242.523 217.909C241.847 217.962 238.308 218.094 237.859 218.22C232.945 219.652 228.637 222.889 224.229 225.406C222.674 226.294 219.671 230.073 217.903 229.712C215.898 227.296 219.839 221.27 221.57 219.265C226.427 213.643 231.321 211.049 238.324 209.023C242.641 207.775 243.209 207.179 247.986 206.909Z" fill="#4B4746"/>
</g>
<defs>
<clipPath id="clip0_64_3242">
<rect width="480" height="480" fill="white"/>
</clipPath>
</defs>
</svg>
