<svg width="480" height="480" viewBox="0 0 480 480" fill="none" xmlns="http://www.w3.org/2000/svg">
<g clip-path="url(#clip0_64_3764)">
<path fill-rule="evenodd" clip-rule="evenodd" d="M228.016 302.882C234.386 303.885 225.81 316.937 223.579 319.24C215.473 327.615 204.581 330.915 193.394 327.06C191.1 326.27 186.951 323.08 185.139 321.455C184.177 320.077 183.662 318.035 183.192 316.413C184.195 314.225 186.288 310.168 189.318 311.749C193.056 313.702 198.219 318.627 202.626 318.69C209.511 318.79 217.459 315.707 221.816 310.243C223.794 307.848 225.696 304.75 228.016 302.882ZM331.505 297.767C333.31 298.04 334.677 298.683 336.365 299.358C333.697 308.235 324.66 306.46 318.675 311.6C319.715 312.435 321.075 313.175 322.233 314.085C324.283 315.7 326.08 317.377 327.997 319.142C327.147 320.572 326.593 321.495 325.585 322.81C321.783 323.37 318.437 324.12 314.704 323.038C314.137 323.065 313.789 323.088 313.24 322.88C308.292 321.018 302.835 320.197 300.15 315.325C303.825 306.175 312.756 305.558 320.853 302.47C324.638 301.025 328.053 299.98 331.505 297.767ZM206.141 211.969C207.027 211.946 207.236 211.869 207.813 212.464C208.598 216.184 200.12 231.647 198.068 235.989C194.699 243.114 189.839 253.631 183.279 258.206C181.815 259.226 174.954 258.425 171.489 259.8L171.153 259.935C169.757 261.385 168.757 263.566 167.953 265.388C169.481 267.553 168.769 267.828 169.238 269.047C171.741 274.792 179.478 275.895 184.817 277.257C187.007 277.815 190.278 279.36 192.104 280.462C191.847 281.107 191.401 282.143 190.981 282.67C189.47 284.558 184.214 287.62 181.938 288.023C180.258 288.57 177.995 288.73 176.199 288.927C174.643 288.175 174.775 288.117 173.07 288.467L172.726 288.542C171.907 288.322 171.853 288.292 171.254 287.69L169.54 285.965C168.537 285.818 166.181 285.545 165.402 285.125C164.487 283.805 163.338 282.075 162.321 280.873C160.362 278.558 159.644 278.402 158.836 275.498C160.072 270.925 157.34 267.42 159.619 263.047C160.778 260.823 162.081 258.977 163.426 256.99C166.989 251.732 170.982 248.473 177.414 247.708C178.972 247.459 182.908 247.254 184.052 246.847C184.726 246.267 185.041 245.507 185.356 244.662C186.291 242.156 188.382 240.355 189.732 238.036C190.446 236.911 190.48 234.998 191.136 233.908C194.891 227.668 198.148 220.921 202.509 215.093C203.479 213.797 204.789 212.795 206.141 211.969ZM246.895 238.297C262.177 237.17 248.969 258.803 245.545 264.545C243.943 267.233 237.508 273.241 234.636 274.371C233.832 274.623 232.487 275.002 231.711 274.507C227.955 272.09 227.548 271.412 228.703 267.083C230.496 260.353 233.285 252.405 237.145 246.618C239.02 243.807 244.037 240.028 246.895 238.297ZM162.568 209.548C168.532 210.64 166.69 213.279 167.077 218.542C167.207 220.313 165.639 224.251 165.057 225.989C162.701 233.027 160.083 240.271 154.163 245.144C152.86 246.231 150.549 247.993 148.822 247.876C146.92 248.025 144.9 248.475 143.653 246.773C143.239 245.508 143.925 245.13 143.873 244.225C143.491 237.561 146.33 231.289 149.092 225.353C151.782 219.574 156.396 212.134 162.568 209.548ZM250.127 210.322C255.272 209.703 267.103 210.852 271.76 213.745C272.823 214.405 274.35 215.911 275.485 216.776C276.79 217.778 278.347 218.666 279.645 219.656C285.782 224.344 294.105 234.846 287.65 242.397C286.882 243.294 285.667 243.821 284.515 243.871C281.553 242.848 279.799 239.771 277.874 237.299C274.059 233.122 270.537 230.34 266.664 225.889L263.132 225.832C262.26 225.256 258.938 222.363 258.17 222.166C252.505 220.823 245.885 220.59 240.097 221.034C238.09 221.187 235.14 224.303 233.269 221.589C233.168 220.613 233.474 219.932 234.09 219.167C238.561 213.618 243.388 211.397 250.127 210.322ZM158.127 178.556C158.949 178.457 159.866 178.824 160.675 178.797C168.404 178.546 174.698 182.486 180.39 187.376C183.039 189.768 185.312 193.763 185.588 197.296C185.801 200.027 182.409 208.067 179.406 208.122C177.328 207.362 175.063 201.9 173.764 199.696C172.836 198.286 171.134 196.707 169.766 195.731C164.93 192.281 159.402 187.692 153.054 188.595C152.158 188.723 150.068 188.969 149.333 189.374C146.913 190.712 145.175 192.909 142.037 191.672C140.888 190.466 141.623 189.33 142.408 188.069C146.346 181.735 151.122 180.033 158.127 178.556Z" fill="#4B4746"/>
</g>
<defs>
<clipPath id="clip0_64_3764">
<rect width="480" height="480" fill="white"/>
</clipPath>
</defs>
</svg>
