<svg width="480" height="480" viewBox="0 0 480 480" fill="none" xmlns="http://www.w3.org/2000/svg">
<g clip-path="url(#clip0_64_3332)">
<path fill-rule="evenodd" clip-rule="evenodd" d="M223.662 330.973C227.971 330.958 232.676 332.7 236.77 333.897C240.458 335.277 246.227 334.358 248.238 338.275C250.132 341.968 247.227 345.112 243.936 346.532C243.35 346.935 243.233 346.98 242.575 347.268C238.199 346.63 226.961 343.442 222.229 341.772C221.523 341.525 219.376 338.825 219.432 337.75C219.55 335.475 222.134 332.495 223.662 330.973ZM240.884 341.737H240.883H240.884ZM239.862 341.629V341.628V341.629ZM239.803 340.844H239.802H239.803ZM296.982 242.437C301.004 243.312 303.633 249.729 305.095 253.13C310.64 266.032 315.885 279.695 318.363 293.562C319.32 300.297 318.327 305.587 315.249 311.527C311.959 317.875 310.632 318.792 304.95 322.545C301.542 322.415 295.884 323.392 292.54 322.527C288.752 321.55 283.419 319.6 280.004 317.718C279.149 317.195 277.24 316.217 277.198 315.357C277.07 312.835 280.025 307.8 281.425 306.045C283.98 306.575 286.503 307.255 288.98 308.08C293.762 309.678 302.362 313.78 306.847 311.7C309.34 310.545 309.374 309.147 308.544 307.497C308.619 307.65 309.959 304.49 310.124 304.072C308.955 300.267 309.265 295.69 308.1 291.45C304.935 279.955 299.975 269.26 296.53 257.888C296.335 257.245 295.168 255.545 294.72 254.96C290.348 249.242 291.385 246.196 296.982 242.437ZM335.707 266.263C340.02 265.783 344.948 267.585 349.435 268.317C352.723 268.857 364.672 270.295 361.802 276.272C360.625 278.722 358.097 279.793 355.507 280.308C354.732 279.988 353.888 279.58 353.113 279.23C352.848 285.898 351.67 291.67 346.925 296.572C344.865 298.565 342.295 300.597 339.318 300.79C331.568 301.293 335.092 291.44 336.155 287.205C336.93 284.113 337.923 280.75 339.255 277.87C339.458 277.435 340.58 276.428 340.962 276.08C338.367 275.8 332.85 275.31 330.885 273.723C328.145 271.508 334.195 267.425 335.707 266.263ZM238.092 245.529C240.362 245.792 243.161 245.527 245.268 245.891C253.377 247.289 264.245 246.622 271.432 250.66C272.03 251.633 272.552 252.572 272.632 253.702C271.937 255.24 268.395 258.722 266.528 258.402C265.185 258.172 264.713 258.523 263.505 259.093L263.095 259.287C261.095 266.767 261.07 272.551 255.658 278.646C252.275 281.838 249.457 283.307 245.191 280.64C241.081 272.755 243.456 261.365 249.473 255.09L249.195 255.053C246.553 254.665 246.203 254.468 244.022 252.945C242.793 253.605 241.732 253.976 240.437 254.458C236.214 252.428 235.273 254.897 231.836 253.335C229.497 252.27 232.241 249.145 233.339 248.196C235.156 246.628 235.675 246.011 238.092 245.529ZM119.48 236.49C123.554 236.729 129.391 236.721 133.173 238.259C141.947 241.827 147.821 249.07 146.29 258.982C144.017 273.687 130.466 291.852 116.993 274.053C115.637 271.158 117.54 267.758 118.878 264.848C121.586 258.96 127.358 256.225 133.125 254.122C133.986 253.807 134.967 254.019 135.674 253.247C134.683 250.98 124.701 245.277 122.071 245.055C121.034 245.019 119.714 246.923 118.846 246.881C117.39 246.811 116.503 246.562 115.268 247.478C113.606 248.71 112.08 250.371 110.657 251.793C109.865 251.45 108.553 251.012 108.087 250.372C107.902 248.454 109.459 246.001 110.294 244.311C112.238 240.381 115.859 238.589 119.48 236.49ZM138.561 262.397C132.925 263.375 127.971 263.338 123.807 267.543C125.213 268.84 125.953 269.445 127.511 270.555C128.915 271.415 129.9 272.26 131.171 273.298C138.2 268.535 136.594 269.478 138.745 262.62L138.561 262.397ZM346.017 241.46C347.527 241.388 355.565 245.75 357.525 246.478C362.175 248.205 364.842 249.325 368.165 253.077C366.235 255.547 365.02 256.88 361.93 257.803C360.305 257.995 357.522 257.83 355.802 257.782C350.019 253.377 331.55 249.076 346.017 241.46ZM236.114 220.066C239.794 220.305 244.835 221.853 248.63 222.436C253.205 223.137 258.072 223.65 262.62 224.506C263.88 224.743 265.91 226.31 266.935 227.178C265.828 229.425 264.965 230.526 263.033 232.088L260.198 232.291C251.648 234.179 244.56 230.096 237.271 230.878C233.792 228.725 227.607 228.105 231.523 223.653C233.301 221.632 233.323 221.083 236.114 220.066Z" fill="#4B4746"/>
</g>
<defs>
<clipPath id="clip0_64_3332">
<rect width="480" height="480" fill="white"/>
</clipPath>
</defs>
</svg>
