<svg width="480" height="480" viewBox="0 0 480 480" fill="none" xmlns="http://www.w3.org/2000/svg">
<g clip-path="url(#clip0_64_3650)">
<path fill-rule="evenodd" clip-rule="evenodd" d="M243.565 284.668C246.43 284.916 250.042 292.631 251.735 295.061C253.68 297.853 256.242 299.762 257.807 301.385C262.012 305.747 276.694 305.133 278.46 306.78C279.422 309.655 275.937 312.39 273.865 313.883C269.435 316.218 268.065 316.698 263.048 315.883C257.233 314.938 254.645 312.863 250.575 308.731C249.438 307.573 247.18 305.42 246.311 303.973C243.186 298.778 239.773 294.945 241.118 288.515C241.537 286.51 241.969 285.713 243.565 284.668ZM149.779 273.61C151.989 273.63 155.243 273.922 157.293 274.742C157.993 285.282 153.37 286.38 145.573 291.405C142.204 293.575 135.915 301.898 131.488 301.45C129.46 300.163 130.745 297.063 131.376 295.15C133.884 289.488 136.378 289.232 139.003 284.825C135.007 283.97 125.881 284.753 124.205 283.503C123.368 281.573 124.717 275.715 126.704 274.92C129.255 273.903 132.818 274.677 135.491 274.435C140.246 274.007 145.007 273.823 149.779 273.61ZM292.967 217.985C294.267 218.124 295.622 218.4 295.937 220.104C296.675 224.112 295.93 228.738 296.68 232.745C297.595 237.618 299.102 243.619 301.802 247.797C304.222 251.543 310.137 250.733 313.92 251.255C318.075 251.832 322.665 253.07 325.293 256.588C328.425 260.671 329.423 270.08 328.9 275.013C327.773 281.535 322.718 287.482 317.635 291.447C315.683 292.97 306.533 294.625 304.003 294.11C300.988 292.62 298.052 290.433 300.464 286.705C304.279 280.803 313.888 285.402 318.385 279.88C319.783 278.165 320.1 276.487 319.94 274.3C319.613 269.905 318.918 267.883 315.685 265.018C313.005 264.333 309.98 264.388 307.305 264.263C303.345 264.078 296.79 261.835 294.31 258.7C290.893 254.38 289.878 244.363 289.493 238.886C289.373 237.392 288.777 235.748 288.652 234.279C288.162 228.53 287.912 221.914 292.967 217.985ZM225.749 232.133C236.047 227.864 251.673 224.034 262.555 227.222C269.022 229.116 264.587 233.347 262.682 235.967C264.812 239.307 265.965 242.595 266.08 246.581C266.35 255.992 262.747 274.317 249.89 272.423C249.399 272.725 247.932 273.64 247.418 273.745C237.574 275.753 217.904 269.783 214.85 259.308C213.723 255.36 214.211 251.128 216.206 247.542C211.831 247.882 212.366 254.558 206.883 253.481C205.23 252.12 206.955 248.619 207.751 246.68C210.063 240.702 220.033 234.502 225.749 232.133ZM322.765 211.306C332.42 206.389 344.5 204.286 355.187 206.645C356.837 207.011 362.215 209.474 361.392 212.048C360.927 213.504 359.13 213.8 359.4 215.961C359.96 216.602 360.212 216.868 360.839 217.44C361.247 218.882 362.442 223.977 362.495 225.4C362.757 232.548 360.825 240.633 357.295 246.898C355.56 249.976 352.784 253.303 349.237 254.398C347.612 254.897 346.08 253.273 344.335 253.123C333.802 256.775 323.545 249.729 319.852 239.59C317.957 234.382 318.81 227.398 320.942 222.308C318.937 222.606 315.664 226.642 312.607 225.231C310.045 220.96 319.448 212.995 322.765 211.306ZM233.25 195.604C235.857 195.363 237.528 195.599 240.092 195.952C246.032 196.77 253.219 198.873 248.066 205.981C239.583 206.494 230.598 206.44 222.294 208.068C219.652 208.586 213.884 211.418 211.182 212.606C208.559 213.807 202.709 218.42 199.894 218.257C199.537 217.872 199.389 217.771 199.355 217.222C199.19 214.593 201.24 211.042 202.936 209.123C208.733 202.565 224.65 196.173 233.25 195.604ZM349.43 171.602C354.722 171.109 355.147 172.827 357.71 176.882C356.3 178.319 355.86 178.877 354.705 180.534C352.567 180.979 349.487 181.8 347.275 181.942C345.955 182.027 343.783 181.152 342.463 181.359C333.978 182.698 322.645 183.696 315.493 188.533C313.843 189.533 311.492 190.98 309.527 190.6C307.848 189.234 309.994 186.136 311.112 184.851C317.659 177.332 328.24 173.397 337.945 172.213C341.625 171.764 345.49 172.086 349.107 171.643L349.43 171.602Z" fill="#4B4746"/>
<path fill-rule="evenodd" clip-rule="evenodd" d="M241.593 238.364C239.71 242.583 238.843 246.915 238.847 251.583C238.848 252.838 238.735 256.195 239.313 257.617C239.811 258.837 241.451 260.585 241.512 261.897C241.607 263.957 241.433 263.938 242.853 265.272C243.165 265.56 243.479 265.847 243.795 266.13C244.066 267.095 244.306 268.045 244.678 268.975C246.685 269.802 248.904 270.423 249.891 272.423C249.399 272.725 247.932 273.64 247.418 273.745C237.574 275.753 217.905 269.782 214.851 259.308C213.724 255.36 214.211 251.128 216.206 247.542C225.158 241.104 230.624 239.901 241.593 238.364ZM331.505 217.556C334.777 216.773 336.333 215.903 339.52 217.281C336.748 226.545 334.937 236.792 339.567 245.961C340.92 248.64 343.993 251.533 344.623 252.923L344.335 253.123C333.803 256.775 323.545 249.729 319.852 239.59C317.958 234.382 318.81 227.398 320.942 222.308C324.115 219.107 327.27 218.568 331.505 217.556Z" fill="#FEFEFE"/>
</g>
<defs>
<clipPath id="clip0_64_3650">
<rect width="480" height="480" fill="white"/>
</clipPath>
</defs>
</svg>
