<svg width="480" height="480" viewBox="0 0 480 480" fill="none" xmlns="http://www.w3.org/2000/svg">
<g clip-path="url(#clip0_64_3189)">
<path fill-rule="evenodd" clip-rule="evenodd" d="M240.516 294.082C242.859 295.277 244.52 296.96 244.255 299.753C244.085 302.05 244.941 304.36 245.33 306.582C246.209 311.322 247.138 315.31 250.175 319.207C251.71 321.177 253.038 323.48 255.08 325.072C264.21 332.187 276.197 333.752 287.425 333.3C288.337 333.262 289.027 333.727 289.585 334.362C290.005 337.195 284.213 339.862 282.083 340.75C279.736 341.595 275.81 343.517 273.525 343.808C266.713 344.668 257.91 343.135 252.468 338.713C250.06 336.758 248.644 335.187 246.621 332.915C246.019 332.125 243.693 330.548 243.34 329.673C240.95 323.745 236.713 316.8 236.081 310.477C235.282 302.48 235.859 299.914 240.516 294.082ZM314.625 250.162C315.675 250.16 315.985 250.237 316.87 250.729C318.738 252.894 315.6 274.315 316.365 280.17C319.788 283.765 326.013 287.662 325.785 293.51C325.62 297.765 322.192 304.115 319.127 307.098C313.265 312.802 307.38 313.867 299.532 313.872C295.995 311.772 294.162 309.345 292.625 305.492C292.443 304.775 292.295 304.125 292.314 303.428C293.752 296.735 310.307 303.377 313.93 299.21C317.372 295.25 305.765 290.852 303.125 290.3C301.292 289.915 296.582 290.95 295.149 289.702C295.079 289.382 295.033 289.21 295.053 288.87C295.51 281.955 300.267 277.495 307.497 278.082C310.262 268.085 306.803 258.099 314.625 250.162ZM352.487 257.519C353.707 258.129 354.003 258.562 354.928 259.545C356.02 267.925 350.328 285.855 341.643 289.075C336.28 288.85 337.888 286.76 337.4 282.803C336.293 273.805 342.357 260.633 351.68 257.545C351.777 257.522 352.367 257.522 352.487 257.519ZM265.393 247.491C272.165 247.881 269.408 257.268 268.48 261.178C266.853 268.028 263.825 275.468 256.59 277.87C255.669 277.948 253.075 278.09 252.67 276.885C250.895 272.052 251.573 263.302 253.998 258.777C255.721 255.565 262.295 249.34 265.393 247.491ZM126.149 239.224C132.011 238.861 149.38 253.005 154.969 256.678C157.586 258.398 151.258 265.423 149.52 266.718C146.657 266.945 144.206 267.612 141.195 267.81C133.817 267.26 129.901 269.68 124.092 264.372C127.284 258.862 129.052 259.94 134.325 256.513C133.06 255.465 131.662 254.3 130.289 253.41C126.259 250.798 123.357 250.445 121.698 245.518C122.938 242.699 123.789 241.227 126.149 239.224ZM359.833 227.073C370.898 226.975 370.242 237.902 367.045 245.368C362.655 242.891 362.181 242.514 359.498 238.239C358.003 237.716 356.012 237.368 354.425 237.041C351.13 238.159 346.51 240.295 343.643 242.344C341.48 244.122 336.032 250.36 333.312 248.601C331.848 246.356 334.313 243.356 335.548 241.533C341.325 233.001 349.808 228.657 359.833 227.073ZM264.122 212.322C271.242 211.66 279.203 215.465 281.54 222.445C282.805 226.221 281.777 237.145 277.63 239.027C276.027 238.546 272.862 232.385 271.819 230.654C264.539 218.55 255.067 223.25 245.394 229.023C243.264 229.954 237.667 236.637 237.646 239.397C237.609 241.95 239.847 244.9 236.36 246.124C234.496 246.779 233.688 248.893 231.513 247.629C231.131 247.122 230.873 246.701 230.811 246.056C230.188 239.641 230.985 236.066 234.637 230.923C242.962 219.194 250.145 214.593 264.122 212.322Z" fill="#4B4746"/>
</g>
<defs>
<clipPath id="clip0_64_3189">
<rect width="480" height="480" fill="white"/>
</clipPath>
</defs>
</svg>
