<svg width="480" height="480" viewBox="0 0 480 480" fill="none" xmlns="http://www.w3.org/2000/svg">
<g clip-path="url(#clip0_64_3125)">
<path fill-rule="evenodd" clip-rule="evenodd" d="M270.732 309.853C271.655 310.023 271.328 309.793 271.84 310.42C272.432 313.212 270.387 317.925 269.532 320.405C266.37 329.46 260.047 336.33 251.522 340.567C246.741 343.555 244.089 344.583 238.476 345.003C231.847 345.498 229.539 346.015 223.029 343.396C221.711 342.616 220.436 341.75 219.365 340.652C219.848 338.682 219.885 336.077 221.199 334.617C223.769 333.392 231.398 335.193 234.615 335.271C239.12 335.381 245.677 333.875 249.832 332.105C259.163 328.128 263.407 316.328 270.732 309.853ZM193.132 242.858C195.05 243.863 195.791 247.197 195.811 249.229C195.92 260.44 196.447 272.135 195.34 283.263C195.045 286.223 191.893 292.981 188.404 292.891C187.292 292.863 186.038 293.02 184.901 293.095C183.949 294.085 180.559 297.26 180.857 298.487C181.037 299.225 184.132 303.336 184.779 303.745C189.461 306.688 200.783 307.363 205.647 307.578C207.672 309.883 200.629 315.908 199.132 317.155C194.485 320.74 189.948 318.838 184.967 319.16C181.183 315.605 175.654 313.617 173.946 308.902C170.519 299.438 173.751 288.023 182.43 282.538C188.1 282.151 188.332 282.65 189.33 276.878C190.945 267.538 189.147 258.383 189.994 249.04C190.168 247.124 191.958 244.352 193.132 242.858ZM158.289 238.406C161.04 239.186 162.304 239.057 165.023 239.368C167.848 239.691 172.08 242.101 174.587 243.556C175.366 243.987 177.785 245.951 177.58 247.004C176.766 251.165 174.828 250.42 171.552 250.202C170.853 250.157 170.453 250.318 170.115 250.728C176.577 262.09 169.22 285.075 158.412 292.405C155.018 294.705 147.168 295.92 143.235 294.143C140.922 294.695 140.534 294.89 138.127 295.032C135.339 293.17 130.762 288 129.765 285.048C127.101 277.16 128.798 261.325 132.114 254.013C130.966 254.018 129.769 254.14 128.742 253.715C127.849 252.015 131.18 245.411 132.833 244.626C135.508 243.573 140.301 240.887 143.121 240.692C146.118 240.485 151.784 239.404 154.429 240.053C155.805 239.403 156.867 238.948 158.289 238.406ZM262.228 231.384C269.465 230.52 278.117 232.828 281.555 239.79C282.42 241.537 281.322 243.39 280.439 244.986C278.23 245.073 276.944 244.698 274.752 244.668C273.05 244.645 271.525 244.978 269.885 244.743C269.427 244.678 269.537 244.759 268.965 245.038C267.343 244.933 265.113 243.97 264.138 243.98C259.85 244.024 258.615 245.252 254.268 243.161C251.84 244.403 249.143 245.047 246.51 245.998L246.509 245.999C249.23 252.846 251.027 261.508 249.016 268.79C248.311 275.335 247.288 279.37 243.708 285.172C242.252 287.532 241.085 287.298 240.447 289.968C240.276 290.033 240.105 290.098 239.934 290.165C232.246 290.978 223.948 285.193 222.824 277.383C221.697 269.545 220.43 255.929 224.902 249.131L224.65 249.286C223.881 249.753 219.339 252.347 219.075 250.105C218.362 244.037 226.186 238.028 231.176 236.179C236.431 234.232 242.031 233.618 247.485 232.601C251.325 231.868 254.708 232.227 258.585 232.214C259.875 232.082 260.928 231.539 262.228 231.384ZM346.152 247.217C347.095 247.217 347.23 247.172 347.805 247.67C349.8 253.807 340.563 259.793 337.12 263.878C336.473 264.648 335.83 266.022 335.372 266.947C341.6 269.382 345.655 267.877 352.242 273.64C351.05 276.595 350.37 278.54 347.122 280.04C346.052 280.535 343.15 280.72 342.022 280.255C327.505 274.337 311.413 278.593 333.442 258.565C337.355 255.01 341.615 249.942 346.152 247.217ZM138.479 212.536C139.367 212.441 147.284 213.429 148.247 213.697C157.6 216.306 165.92 219.958 171.262 228.253C171.08 229.758 171.261 232.502 170.419 233.614C167.885 234.28 158.225 230.666 155.74 229.377C153.728 228.333 151.683 227.811 149.533 227.074C147.233 226.389 143.231 225.144 140.999 224.644C137.365 223.829 128.563 224.798 125.804 227.758C124.583 229.068 123.409 231.569 121.855 232.504C120.925 233.063 119.974 233.456 118.894 233.206C117.068 231.445 119.617 226.345 120.624 224.435C122.697 220.505 127.731 216.599 131.644 214.666C133.231 213.882 136.706 213.047 138.479 212.536ZM255.021 202.288C263.85 201.988 273.128 205.754 278.325 213.078C278.993 214.021 279.231 215.297 278.926 216.43C278.576 217.739 277.645 218.094 276.545 218.731C271.088 217.055 265.425 214.609 260.223 213.19C245.737 209.239 231.968 215.186 219.672 222.375C217.702 223.527 213.817 227.754 211.903 227.46C210.357 226.163 211.763 223.954 212.481 222.464C214.078 218.84 217.196 216.774 219.915 214.342C225.97 208.925 231.933 206.293 239.771 204.46C242.406 203.843 244.994 202.866 247.865 202.49C249.466 202.23 250.13 202.24 251.763 202.451C251.679 202.515 251.594 202.576 251.51 202.634C251.426 202.692 251.342 202.747 251.258 202.799H251.259C251.427 202.695 251.595 202.578 251.763 202.451C252.71 202.236 254.018 202.322 255.021 202.288ZM249.517 203.348C249.679 203.355 249.843 203.343 250.008 203.313C249.843 203.343 249.679 203.355 249.517 203.348Z" fill="#4B4746"/>
<path fill-rule="evenodd" clip-rule="evenodd" d="M150.788 249.411C152.341 249.895 152.561 249.974 153.934 250.897C154.8 250.787 155.541 250.547 156.499 250.397C158.503 250.085 160.712 250.112 162.747 250.02C163.062 250.242 163.324 250.43 163.534 250.58C166.544 250.57 166.522 248.403 170.115 250.728C176.576 262.09 169.221 285.075 158.413 292.405C155.019 294.705 147.168 295.92 143.235 294.143C146.402 291.34 148.003 288.12 149.576 284.223C150.206 282.705 150.707 281.14 151.075 279.537C151.49 277.666 152.956 266.673 152.316 265.058C150.168 259.638 151.955 255.4 147.478 250.577C148.51 250.287 149.759 249.787 150.788 249.411ZM254.268 243.161C258.615 245.252 259.85 244.024 264.138 243.979C265.113 243.97 267.343 244.933 268.965 245.038C271.95 248.421 273.31 252.695 272.87 257.275C271.78 268.588 270.329 279.135 261.27 287.072C256.115 291.585 255.01 291.797 248.036 291.635C245.238 291.57 242.724 290.198 240.447 289.968C241.084 287.298 242.252 287.533 243.708 285.173C247.289 279.37 248.311 275.335 249.016 268.79C248.278 265.825 250.29 262.12 248.452 257.713L248 257.5V257C247 254 247 252 246.5 249L246.211 247.437C246.036 246.798 246.208 246.771 246.51 245.998C249.143 245.047 251.84 244.403 254.268 243.161Z" fill="#FEFEFE"/>
</g>
<defs>
<clipPath id="clip0_64_3125">
<rect width="480" height="480" fill="white"/>
</clipPath>
</defs>
</svg>
