<svg width="480" height="480" viewBox="0 0 480 480" fill="none" xmlns="http://www.w3.org/2000/svg">
<g clip-path="url(#clip0_64_3151)">
<path fill-rule="evenodd" clip-rule="evenodd" d="M275.862 289.345C277.582 289.692 277.867 291.387 277.982 292.88C278.507 299.725 275.42 305.67 272.05 311.373C271.227 312.765 269.442 314.25 268.497 315.635C266.125 318.992 262.925 322.41 259.84 325.128C257.307 327.358 255.125 327.763 252.563 330.8L252.332 331.075C248.308 331.843 245.231 334.823 241.284 335.723C237.274 336.638 233.854 337.048 229.765 336.535C229.247 336.54 228.758 336.47 228.242 336.418C227.707 336.02 227.341 335.877 227.263 335.157C226.135 324.78 231.719 327.157 239.162 325.915C240.055 325.765 243.046 324.395 244.166 323.902C254.71 319.127 263.563 311.275 269.563 301.378C271.735 297.77 273.19 293.357 275.675 289.625L275.862 289.345ZM193.896 259.598C195.105 260.94 194.98 265.468 195.563 267.473C197.539 274.253 198.816 281.028 199.857 287.998C200.93 292.555 201.594 295.28 201.213 300.01C201.015 302.465 206.277 304.748 205.148 308.75C204.759 310.13 205.461 311.04 203.993 312.415C202.958 312.562 202.658 312.168 201.5 311.735C198.985 312.85 198.893 312.215 196.483 311.048C194.86 310.263 193.247 309.39 191.648 308.553C189.134 306.915 181.57 301.023 181.312 297.87C181.167 296.105 182.876 288.143 184.211 287.16C187.056 286.943 191.157 289.288 193.356 291.043C192.98 288.16 192.684 285.295 192.154 282.433C191.107 276.775 190.985 271.562 189.316 266.022C190.114 263.383 190.651 260.98 192.756 259.115L193.896 259.598ZM159.472 247.031C162.879 246.092 168.929 246.891 172.257 247.996C177.905 249.767 178.709 253.265 180.977 258.058C178.881 265.885 179.169 261.15 175.6 261.753C178.417 270.368 178.331 280.098 174.146 288.263C172.402 291.593 169.388 294.075 165.787 295.15C165.209 295.33 161.296 295.988 160.509 296.083C158.488 296.301 156.187 299.845 152.786 297.612C141.077 289.927 144.245 274.378 147.059 262.963C147.479 261.255 148.668 259.328 149.621 257.883C146.031 259.718 142.536 261.907 140.339 265.327C139.427 266.745 138.256 268.588 137.053 269.708C133.715 267.95 134.149 267.025 135.242 263.697C138.543 253.655 150.261 249.571 159.472 247.031ZM255.347 233.592C260.857 233.979 268.187 235.113 272.689 238.456C275.799 240.766 276.549 244.507 277.114 248.06C277.304 249.26 277.157 250.775 276.355 251.75C274.355 252.497 272.352 250.305 270.439 249.693C269.132 249.275 267.829 248.872 266.529 248.426L266.205 248.527C265.648 248.006 265.084 247.585 264.484 247.118L264.483 247.117C262.488 246.117 258.302 244.109 255.37 244.6C254.595 244.729 255.76 244.959 254.487 245.338C253.062 243.683 244.718 242.737 243.052 244.745C242.998 244.501 242.96 244.349 242.937 244.241C242.96 244.349 242.998 244.501 243.052 244.745C244.306 247.64 246.533 251.434 247.472 253.962C250.227 261.387 250.385 271.775 247.265 279.138C244.482 285.705 244.598 282.724 240.992 286.377C239.79 286.61 237.639 287.995 236.481 288.675C223.021 282.622 222.669 262.872 226.288 250.819C224.908 251.849 223.804 252.805 222.504 253.935L220.865 260.729C219.559 260.662 218.127 260.727 216.996 260.167C214.931 257.667 218.022 251.118 219.744 248.756C225.339 241.11 233.744 236.001 243.107 234.556C244.383 234.364 247.194 234.262 248.646 234.227C250.292 234.186 254.069 233.502 255.347 233.592ZM355.936 239.568C356.678 239.537 356.868 239.462 357.548 239.757C360.546 244.506 344.362 257.375 341.21 260.437L341.263 260.808C341.768 260.88 344.481 260.195 345.815 259.947C349.121 259.332 363.485 259.435 364.865 262.67C366.433 266.337 355.252 268.31 353.373 269.035C353.011 269.175 351.38 269.88 350.62 270.178C342.233 270.88 336.307 272.245 327.572 272.255C324.2 269.825 324.705 267.727 326.595 264.285C328.85 260.178 334.7 256.54 338.35 253.437C342.297 250.082 351.276 241.009 355.936 239.568ZM242.993 243.748H242.994H242.993ZM243.669 242.767C243.546 242.853 243.433 242.944 243.329 243.039C243.484 242.897 243.662 242.764 243.861 242.641L243.669 242.767ZM259.13 242.569C259.739 242.751 260.311 242.954 260.834 243.172C260.118 242.874 259.309 242.605 258.439 242.375L259.13 242.569ZM249.966 241.376C247.819 241.417 245.871 241.708 244.52 242.299C244.997 242.09 245.548 241.919 246.156 241.783C246.258 241.76 246.36 241.738 246.465 241.718C246.883 241.635 247.325 241.567 247.785 241.515C248.246 241.462 248.725 241.425 249.218 241.401C249.71 241.378 250.217 241.368 250.731 241.372L249.966 241.376ZM142.641 222.851C143.47 222.675 143.891 222.992 145.012 222.907C151.402 222.425 167.772 224.723 169.979 231.429C171.921 237.333 152.796 232.608 150.354 232.218C148.957 231.995 144.987 232.2 142.563 232.239C140.642 232.333 139.063 232.399 137.177 232.724C135.269 233.052 132.729 233.875 130.883 233.947C130.027 233.541 130.131 233.348 129.518 232.388C128.678 233.262 127.533 234.629 126.506 235.136C124.561 234.05 125.742 235.362 124.407 235.901L123.682 234.593C122.856 234.734 122.7 235.475 121.706 236.377C116.899 237.787 119.991 231.157 121.286 229.742C125.382 225.267 136.891 223.337 142.641 222.851ZM255.25 202.834C262.053 202.356 276.61 202.885 280.155 209.885C280.115 211.321 279.085 212.054 278.06 213.026C271.93 213.495 267.845 212.336 261.827 211.973C258.81 211.791 255.68 212.852 252.3 212.685C246.849 212.414 239.779 214.894 234.425 216.317C233.641 216.77 233.174 217.076 232.3 217.246C226.973 218.284 222.406 221.737 217.768 224.339C217.447 224.519 216.282 224.484 215.861 224.471C213.819 223.363 216.304 218.756 217.295 217.548C222.389 211.336 232.636 207.926 240.107 205.47C244.047 204.174 251.255 203.42 255.25 202.834Z" fill="#4B4746"/>
<path fill-rule="evenodd" clip-rule="evenodd" d="M154.564 256.375C159.457 256.88 162.895 256.147 167.613 258.072C170.716 259.337 172.703 259.672 175.6 261.752C178.417 270.367 178.331 280.098 174.146 288.263C172.402 291.592 169.388 294.074 165.787 295.149C165.209 295.329 161.297 295.987 160.509 296.082C160.241 295.337 160.974 294.112 161.322 293.099C162.418 289.972 163.152 286.729 163.508 283.434C164.167 277.174 159.889 265.972 157.223 259.955C156.883 259.187 155.171 257.115 154.564 256.375ZM243.182 243.184C246.165 240.002 259.933 241.34 263.24 244.631C264.223 245.608 264.133 245.917 264.485 247.118C265.085 247.585 265.648 248.006 266.205 248.527C269.275 256.3 268.587 258.222 267.18 266.104C265.842 273.587 263.651 276.497 260.016 283.059C257.328 284.634 254.448 285.715 251.453 286.54C249.435 287.095 247.526 287.16 245.785 288.12C244.251 287.442 242.613 286.557 240.993 286.377C244.598 282.725 244.482 285.704 247.265 279.138C250.385 271.775 250.228 261.387 247.473 253.962C246.534 251.434 244.306 247.64 243.052 244.745C242.838 243.767 242.857 244.268 243.182 243.184Z" fill="#FEFEFE"/>
</g>
<defs>
<clipPath id="clip0_64_3151">
<rect width="480" height="480" fill="white"/>
</clipPath>
</defs>
</svg>
