<svg width="480" height="480" viewBox="0 0 480 480" fill="none" xmlns="http://www.w3.org/2000/svg">
<g clip-path="url(#clip0_64_3199)">
<path fill-rule="evenodd" clip-rule="evenodd" d="M235.875 300.68C237.359 300.458 238.389 301.307 238.527 302.772C238.648 304.049 237.639 306.375 237.715 307.36C237.943 310.317 238.518 313.495 239.035 316.435C239.099 316.773 240.762 320.14 240.91 320.49C242.772 324.89 244.864 327.87 248.772 330.69C249.919 331.517 252.813 333.968 254.083 334.453C261.893 337.445 271.283 336.007 279.458 335.647C281.863 335.542 285.278 335.022 287.258 335.967C289.3 338.557 281.856 342.049 280.065 342.825C274.218 345.132 270.088 346.382 263.646 346.355C262.308 346.35 252.98 345.318 252.365 344.97C251.405 344.423 250.215 342.59 249.372 341.743C248.189 341.548 246.813 341.42 245.604 341.28C245.538 341.23 245.472 341.177 245.406 341.127L245.084 340.868C243.306 339.45 237.789 333.715 236.863 331.727C233.149 323.752 226.115 306.528 235.875 300.68ZM307.71 249.227C308.822 249.226 309.135 249.148 310.125 249.573C312.295 251.967 310.09 266.32 310.933 270.255C311.235 271.676 310.713 276.21 311.103 278.345C311.422 280.09 311.22 283.618 311.383 285.605C312.39 286.975 315.918 286.72 317.138 287.312C322.038 289.607 327.148 294.295 329.258 299.387C332.218 306.532 324.985 315.025 318.646 317.555C311.961 320.228 304.34 321.482 297.46 318.967C294.553 317.905 292.853 316.13 291.718 313.38L290.618 309.73C290.946 308.92 292.193 305.78 293.378 305.988C301.118 307.425 307.928 309.895 315.891 308.635C321.355 307.768 317.985 301.82 315.675 299.988C311.1 296.363 304.166 293.94 298.391 293.552C296.166 293.402 295.367 293.01 293.397 291.943C294.34 289.963 295.033 288.813 296.601 287.283C298.286 285.635 301.625 285.075 302.128 282.78C302.585 280.685 301.845 277.875 300.853 276.017C301.83 272.205 302.53 270.1 302.973 266.198L302.067 264.528C302.967 261.755 303.062 258.728 302.607 255.868C303.807 252.968 305.308 251.25 307.71 249.227ZM336.558 260.83C341.54 261.14 346.958 260.243 351.83 261.108C354.865 261.648 364.665 261.908 365.857 264.953C365.547 267.955 359.237 269.137 358.782 270.82C356.547 279.057 355.93 285.872 349.843 292.522C338.045 304.644 333.22 289.727 336.832 280.002C338.425 275.712 338.27 273.272 341.237 269.36C338.697 269.002 330.965 268.367 329.737 266.19C329.802 264.305 334.65 261.222 336.558 260.83ZM244.133 245.861C245.167 245.755 246.452 245.858 247.504 245.879C255.527 246.04 263.435 247.648 271.39 248.562C272.155 248.649 273.842 249.656 274.42 250.142C280.202 255.007 275.373 255.355 272.143 258.858C269.133 268.175 266.51 272.542 258.893 279.172C254.843 282.425 254.165 282.593 249.04 282.328C246.747 280.21 245.121 277.342 244.008 274.455C244.919 270.652 244.931 267.227 245.456 263.762C245.714 262.062 249.33 256.533 250.452 254.545C249.045 254.86 248.011 255.235 246.652 255.707C242.915 253.875 239.437 255.682 236.134 253.207C233.96 251.577 238.655 247.012 239.844 245.993L244.133 245.861ZM123.968 243.529C125.867 243.906 127.229 245.084 128.922 245.986C137.133 250.603 145.397 255.17 153.58 259.837C154.587 260.412 157.077 262.08 157.036 263.249C156.918 266.574 152.447 270.133 150.029 271.828C146.489 269.473 141.854 271.298 137.593 271.828C135.848 272.04 122.928 275.042 122.894 272.828C122.775 265.08 130.954 264.238 136.65 262.88C134.486 260.625 128.579 256.988 125.796 254.988C123.691 253.473 120.495 252.225 118.91 250.05C118.318 247.882 122.084 244.236 123.968 243.529ZM355.71 227.099C358.432 226.943 362.205 226.774 364.598 228.248C369.273 230.665 366.675 239.757 364.245 243.143C359.343 249.973 358.875 244.629 358.845 240.301C356.75 238.367 356.418 236.928 354.638 234.957C351.273 235.093 350.54 234.578 347.61 236.217C346.428 236.798 344.9 237.753 343.885 238.636C341.59 240.626 339.698 243.706 336.646 244.54C335.048 244.976 333.553 243.308 333.415 241.834C333.12 238.705 336.595 236.626 338.605 234.795C343.645 230.205 348.918 227.787 355.71 227.099ZM270.513 208.353C283.885 207.73 290.415 212.715 285.521 227.073C284.866 228.998 283.425 231.418 281.527 232.268C277.828 232.086 276.837 223.617 276.67 220.863C275.17 220.054 272.698 218.129 271.133 217.821C267.19 217.045 255.44 218.108 252.313 219.99C248.268 222.746 246.301 221.544 243.441 226.807C244.267 227.461 244.944 227.877 245.466 228.782C246.059 232.832 236.607 236.76 236.101 231.517C235.871 229.137 237.362 223.986 238.945 222.185C245.711 214.49 254.5 210.597 264.402 208.654C265.565 208.412 268.778 208.534 270.513 208.353Z" fill="#4B4746"/>
</g>
<defs>
<clipPath id="clip0_64_3199">
<rect width="480" height="480" fill="white"/>
</clipPath>
</defs>
</svg>
