<svg width="480" height="480" viewBox="0 0 480 480" fill="none" xmlns="http://www.w3.org/2000/svg">
<g clip-path="url(#clip0_64_3262)">
<path fill-rule="evenodd" clip-rule="evenodd" d="M200.309 299.642C202.462 300.057 202.042 305.372 202.635 307.332C203.352 309.7 203.561 313.087 204.473 315.397C206.783 321.249 212.204 325.985 217.354 329.345C219.045 330.667 222.04 331.663 223.604 332.983C226.226 335.2 224.98 338.117 221.562 338.275C213.435 338.81 208.492 336.49 203.233 330.042C201.796 328.28 201.367 326.595 200.34 324.703C197.35 319.193 195.782 313.357 196.446 307.052C196.727 304.31 198.001 301.364 200.309 299.642ZM313.522 254.456C314.31 254.404 315.142 254.267 315.807 254.692C316.4 255.072 316.92 255.989 316.972 256.689C317.302 261.256 316.889 266.279 316.492 270.852C316.269 273.437 316.5 275.734 316.342 278.227C316.215 280.217 315.59 282.582 315.397 284.554C314.22 296.569 311.968 308.795 307.395 320.007C304.738 326.517 302.575 327.565 299.257 332.575L299.065 332.865C294.535 334.36 289.402 336.264 284.589 336.232C283.607 336.294 281.982 335.304 281.132 335.254C276.247 334.954 273.778 334.089 269.663 331.242C263.435 325.787 264.602 318.139 273.892 320.594C282.017 322.744 287.285 323.687 295.69 323.91C305.147 316.74 305.874 299.074 307.589 288.264C307.742 287.372 307.34 285.79 307.498 284.962C308.033 281.29 309.652 276.809 309.884 273.162C310.427 264.672 307.1 262.021 313.522 254.456ZM345.748 271.285C352.79 271.51 360.97 273.027 366.097 278.245C369.617 281.824 370.217 287.927 366.32 291.445C363.92 293.607 361.13 286.348 358.535 286.47C358.037 286.493 358.175 286.625 357.767 286.972C357.007 289.567 356.152 293.852 355.67 296.347C353.84 305.777 351.693 310.688 344.975 317.328C343.298 318.965 336.747 318.367 334.424 318.24C333.775 317.415 333.322 316.602 332.785 315.704C332.682 306.78 336.784 297.992 340.679 289.97C341.939 287.38 345.037 284.427 345.982 281.922C346.082 281.652 345.832 281.525 345.588 281.283C344.12 281.1 342.105 280.36 340.873 280.49C338.393 280.75 335.207 283.162 332.634 282.209C330.853 280.317 333.185 276.128 334.56 274.488C337.028 271.538 341.438 271.575 344.998 271.355C345.257 271.317 345.465 271.277 345.748 271.285ZM246.654 243.359C247.712 243.173 254.114 243.705 255.625 243.813C264.365 244.438 273.465 246.145 279.525 253.062C281.52 255.339 282.155 260.467 279.735 262.374C276.937 262.759 270.672 256.74 267.192 256.802C266.314 256.819 263.603 255.315 262.703 254.828C265.203 265.758 257.41 284.43 250.123 292.485C247.956 294.79 243.154 296.807 240.653 294.102C239.029 292.342 238.208 289.984 238.383 287.597C238.536 285.35 239.943 281.539 240.731 279.307C243.912 270.29 247.539 260.012 254.873 253.52C248.807 252.077 241.258 252.118 234.988 252.59C234.671 252.615 231.612 254.189 231.124 254.419C226.279 252.957 232.283 246.64 234.205 244.975C238.937 244.055 241.885 243.769 246.654 243.359ZM122.503 243.515C126.76 244.11 133.44 249.849 137.781 251.794C139.878 252.732 147.159 257.615 147.64 259.825C148.391 263.27 145.406 268.392 143.532 271.174C140.765 272.334 138.032 272.705 135.381 273.722C135.282 274.789 136.312 275.222 137.209 275.732C142.416 278.692 143.028 279.602 144.953 285.044C143.518 289.537 143.243 289.767 138.726 288.822C136.108 288.274 134.526 288.189 131.896 287.254C128.518 285.809 123.502 284.011 119.871 282.684C111.794 279.737 108.998 278.889 113.134 269.9C115.399 264.98 123.304 265.419 127.778 264.509C129.943 264.069 132.137 263.594 134.417 262.974C132.264 261.289 128.829 258.812 126.476 257.317C124.525 256.272 119.108 255.342 118.212 253.124C117.045 250.244 119.955 244.953 122.503 243.515ZM340.653 238.751C349.405 238.847 370.24 242.737 374.668 250.544C373.565 253.802 373.432 255.982 372.507 259.152C372.017 260.832 371.19 261.422 369.693 262.067C364.078 261.327 357.68 258.84 352.046 257.395C347.388 256.202 342.483 254.122 337.523 254.025C336.593 252.307 335.96 250.107 335.325 248.227C336.295 245.504 338.33 240.542 340.653 238.751ZM238.04 215.08C244.5 214.574 251.835 216.494 258.405 217.526C263.115 218.265 282.66 221.944 278.475 230.143C276.715 233.59 274.672 236.25 270.857 237.397C268.697 237.495 266.197 236.081 264.075 235.527C260.83 234.679 242.444 230.359 240.858 230.737C240.464 230.831 240.144 230.922 239.73 230.826C238.019 230.429 231.269 227.454 230.508 226.068C229.921 222.559 234.336 216.005 238.04 215.08Z" fill="#4B4746"/>
</g>
<defs>
<clipPath id="clip0_64_3262">
<rect width="480" height="480" fill="white"/>
</clipPath>
</defs>
</svg>
