<svg width="480" height="480" viewBox="0 0 480 480" fill="none" xmlns="http://www.w3.org/2000/svg">
<g clip-path="url(#clip0_64_3141)">
<path fill-rule="evenodd" clip-rule="evenodd" d="M275.964 289.335C278.791 290.115 277.085 296.939 276.637 298.904C275.33 304.147 272.642 308.567 270.557 313.625C269.232 316.84 263.482 322.159 261.079 324.849C259.822 326.257 256.967 327.872 255.584 329.312C252.087 332.957 248.81 335.82 243.715 336.902C241.316 337.445 238.21 340.074 235.714 340.752C223.802 343.979 208.272 342.564 197.283 336.934C193.91 334.897 194.261 331.53 193.278 327.625C199.734 325.1 203.546 328.547 209.038 329.33C221.926 331.165 236.054 330.912 246.368 322C248.075 320.525 251.894 319.305 253.785 317.785C254.719 317.032 255.472 315.359 256.44 314.519C264.957 307.242 269.804 298.467 275.964 289.335ZM190.704 256.192C193.566 257.072 193.776 262.202 194.31 264.734C196.236 273.872 196.164 283.275 197.891 292.407C198.322 294.687 201.471 298.777 202.799 300.76C202.107 304.162 200.961 305.897 197.105 305.689C194.455 305.544 192.44 304.714 190.225 303.287C187.89 302.102 182.604 298.064 180.804 296.109C179.376 294.556 180.941 286.248 183.158 284.87C185.105 284.622 188.405 286.157 190.368 286.902C188.071 279.007 190.074 271.659 187.087 263.479C187.569 261.019 188.581 257.652 190.704 256.192ZM155.905 250.585C158.781 250.342 164.23 250.725 166.881 251.84C171.226 253.667 171.962 255.604 173.648 259.462C173.474 260.169 173.282 260.987 173.034 261.665C171.914 264.73 167.496 262.942 165.474 261.984C165.71 263.692 166.686 266.676 166.785 268.052C167.24 274.444 168.091 281.452 165.721 287.529C164.188 291.462 163.63 292.822 159.961 294.58C157.314 293.022 156.606 292.552 155.56 289.677C154.66 287.332 152.555 284.607 151.062 282.51C150.991 278.47 150.123 275.472 150.234 270.66C150.303 267.65 150.961 263.88 150.93 261.727C149.809 260.202 136.332 265.704 134.013 265.172L133.723 264.595C133.717 259.502 139.475 253.604 144.473 252.827C146.016 252.587 148.303 252.74 149.719 252.347C152.134 251.677 153.249 250.825 155.905 250.585ZM249.109 241.86C249.582 241.812 252.499 241.949 253.15 242.145C258.407 243.766 265.795 243.694 269.525 248.211C271.05 250.057 268.635 254.085 266.855 255.005C263.315 256.832 259.735 253.615 256.255 253.013C253.005 252.45 249.512 252.627 246.325 251.787C245.468 252.767 247.209 260.146 247.155 262.417C247.07 265.927 247.13 268.802 246.554 272.277C245.207 280.407 245.242 282.205 238.614 287.205C237.679 287.195 237.692 287.005 236.746 286.465L230.868 282.8C226.531 271.625 226.28 264.434 228.784 252.904C227.184 253.874 217.831 257.84 216.248 257.407C215.004 255.749 216.802 252.062 218.018 250.785C223.899 244.607 233.494 243.67 241.47 242.104C243.111 241.782 246.863 242.124 249.109 241.86ZM346.91 241.505C348.089 241.412 348.41 241.312 349.302 242.131C351.134 246.915 343.562 252.04 341.102 255.514C339.654 257.559 334.313 260.609 333.983 262.762C337.973 263.491 346.322 262.817 350.579 263.904C352.979 264.519 354.605 265.702 356.823 266.665C356.653 267.05 356.255 267.917 356.065 268.277C354.625 270.995 348.955 272.437 346.065 273.309C345.157 273.574 334.902 273.68 333.155 273.572C331.047 273.442 323.092 273.734 321.91 271.824C321.377 270.964 320.825 270.406 321.037 269.257C322.305 262.402 328.14 258.735 332.76 254.272C335.288 251.832 337.34 249.415 339.875 247.147C342.108 245.15 344.6 243.303 346.91 241.505ZM145.259 223.858C147.034 223.78 149.101 224.049 150.902 224.047C158.751 224.037 168.794 225.169 173.693 232.309C172.68 235.691 171.957 237.605 168.25 235.93C165.808 234.827 161.31 235.936 158.618 235.705C156.478 235.521 154.515 234.798 152.309 234.491C146.745 233.708 137.62 234.448 131.81 234.424C130.285 234.417 126.558 237.554 124.421 236.281C123.539 234.574 124.648 229.9 126.038 228.744C130.041 225.415 140.338 224.162 145.259 223.858ZM254.132 207.607C255.915 207.46 257.817 207.592 259.61 207.621C264.075 207.693 268.132 208.917 271.95 211.192C274.47 212.696 277.202 217.296 273.387 218.885C273.235 218.941 267.352 218.092 266.69 218.025C264.17 217.659 261.235 218.063 258.755 217.788C251.595 216.992 244.88 217.057 237.762 218.339C234.471 218.932 231.639 220.125 228.299 220.526C227.852 220.665 228.022 220.587 227.666 220.775C225.813 221.757 212.59 226.699 211.168 226.491C210.524 226.397 210.485 226.23 210.147 225.726C210.554 220.502 214.358 217.557 218.823 216.141C220.52 215.603 222.785 213.982 224.667 213.27C234.41 209.588 243.798 208.298 254.132 207.607Z" fill="#4B4746"/>
</g>
<defs>
<clipPath id="clip0_64_3141">
<rect width="480" height="480" fill="white"/>
</clipPath>
</defs>
</svg>
