<svg width="480" height="480" viewBox="0 0 480 480" fill="none" xmlns="http://www.w3.org/2000/svg">
<g clip-path="url(#clip0_64_3091)">
<path fill-rule="evenodd" clip-rule="evenodd" d="M274.065 295.106C276.739 296.879 276.155 300.373 275.585 303.153C275.12 305.421 273.373 310.469 271.75 312.214C269.313 314.829 266.627 317.471 264.202 320.143C262.542 321.906 259.679 322.818 258.399 325.223C257.144 327.583 254.992 327.931 252.747 328.763C251.742 329.151 250.275 330.608 249.357 330.988C243.261 333.508 234.257 334.718 228.586 330.513C224.369 328.041 226.307 324.483 227.946 320.861C229.057 321.299 235.848 323.445 236.673 323.528C239.658 323.823 248.92 321.38 251.348 319.783C254.792 317.518 253.92 316.238 258.867 315.361C260.962 312.689 263.337 310.226 265.532 307.629C268.695 303.891 270.465 298.406 274.065 295.106ZM202.787 223.859C203.723 224.616 203.868 225.626 203.997 226.769C204.107 227.741 204.072 228.769 203.996 229.743C203.818 232.034 201.724 234.8 200.892 237.009C200.034 239.288 199.519 241.694 198.687 243.984C196.017 251.326 184.011 281.523 189.363 287.94C191.067 289.983 196.142 290.206 198.639 290.348C202.669 290.578 209.234 288.998 212.345 292.153C212.92 292.735 213.257 293.466 213.232 294.291C213.178 296.038 211.759 297.588 210.511 298.668C207.227 301.513 202.558 302.103 198.558 303.448C196.366 302.82 194.393 303.131 192.096 302.786C187.581 302.111 185.377 298.743 181.8 296.638C180.807 294.135 180.315 292.232 180.187 289.608L180.166 289.073C180.088 286.726 180.249 284.49 180.424 282.158L181.025 279.253C182.412 272.563 183.758 266.442 186.52 259.893C188.955 254.116 190.272 247.345 192.88 241.589C194.269 238.522 198.582 223.27 202.787 223.859ZM240.382 228.352C248.549 227.831 261.66 228.856 267.638 235.251C269.285 237.015 274.015 244.497 271.292 247.208C270.537 247.95 269.143 246.891 268.715 246.254C266.005 242.226 259.337 242.841 256.277 240.503C258.272 251.468 255.02 263.72 251.185 274.015C249.9 277.465 248.114 280.446 246.299 283.635C244.253 286.995 242.081 287.943 238.673 289.376C233.808 287.671 233.849 284.138 233.688 279.758C233.632 277.021 232.891 273.633 233.441 270.916C235.803 259.268 238.866 246.125 248.626 238.508C246.371 238.392 238.684 238.12 236.318 238.581C230.161 239.78 225.701 240.79 231.068 232.087C232.643 229.533 237.166 228.637 240.382 228.352ZM180.995 288.338C180.964 288.402 180.932 288.466 180.899 288.528C180.892 288.54 180.876 288.557 180.855 288.578C180.876 288.557 180.892 288.54 180.899 288.528C180.932 288.466 180.964 288.402 180.995 288.338ZM181.238 287.74L181.239 287.741L181.238 287.74ZM181.415 287.109C181.526 286.607 181.575 286.085 181.567 285.569C181.575 286.085 181.526 286.607 181.415 287.109ZM361.282 244.577C368.63 244.365 361.327 254.231 359.572 257.256C356.832 258.353 348.248 269.588 347.825 271.671C348.294 271.9 350.668 270.743 351.42 270.478C354.43 269.408 358.627 268.846 361.717 269.618C363.692 270.11 362.405 273.018 361.765 274.01C360.08 276.63 357.97 277.755 355.325 279.132C354.055 279.885 352.222 282.136 350.94 282.723C347.205 284.436 342.245 285.548 338.202 286.555C336.092 287.303 334.957 287.113 332.855 286.423C330.37 285.61 331.847 282.678 332.337 281.18C333.857 276.563 336.27 273.458 339.492 269.888C340.97 268.253 342.49 265.975 343.92 264.18C345.205 262.568 346.714 260.793 347.569 258.876C344.29 260.663 345.842 259.42 343.337 259.845C335.705 261.143 331.875 259.803 336.462 251.718C338.002 249.468 341.287 250.768 343.38 250.57C348.852 250.057 356.335 245.226 361.282 244.577ZM181.141 283.339C181.173 283.42 181.204 283.502 181.233 283.587C181.204 283.502 181.174 283.42 181.141 283.339ZM180.653 282.442C180.671 282.467 180.688 282.492 180.705 282.517C180.653 282.441 180.599 282.366 180.542 282.296L180.653 282.442ZM154 219.359C155.687 219.139 157.873 219.389 159.566 219.452C165.745 219.682 171.068 220.466 176.557 223.571C178.592 224.723 180.577 226.535 181.047 228.92C181.869 233.089 180.5 235.363 178.433 238.565C174.219 233.741 174.362 233.745 168.542 231.043C169.445 242.583 166.173 261.279 159.47 270.883C158.183 272.881 157.374 272.9 155.124 273.583C150.855 271.843 148.253 270.068 147.86 265.328C146.991 254.84 151.719 236.856 158.066 228.7C153.486 226.863 153.255 227.832 148.597 227.597C146.988 228.974 144.137 231.234 142.075 229.82C140.884 227.695 142.483 224.874 143.911 223.229C147.059 219.604 149.592 219.677 154 219.359ZM247.738 193.578C251.84 193.535 255.998 193.847 259.995 193.802C268.345 193.709 276.713 194.211 284.808 196.38C287.943 197.22 291.967 199.286 289.649 202.917C287.52 206.697 285.977 209.349 281.75 210.974C277.163 212.032 269.003 210.592 264.103 210.195C257.198 209.85 247.704 210.709 241.248 208.374C238.257 207.291 244.416 194.728 247.738 193.578ZM143.441 184.316C144.571 184.253 146.234 184.666 147.432 184.75C152.358 185.092 156.931 186.03 161.763 186.947C167.778 188.008 175.757 188.183 181.103 191.152C183.575 192.527 179.88 200.26 178.04 201.705C175.962 203.336 176.547 204.158 173.507 204.319C165.104 202.81 158.259 200.638 149.533 200.726C145.78 200.736 135.226 199.499 135.17 194.165C135.109 188.333 138.137 184.968 143.441 184.316Z" fill="#4B4746"/>
</g>
<defs>
<clipPath id="clip0_64_3091">
<rect width="480" height="480" fill="white"/>
</clipPath>
</defs>
</svg>
