<svg width="480" height="480" viewBox="0 0 480 480" fill="none" xmlns="http://www.w3.org/2000/svg">
<g clip-path="url(#clip0_64_3272)">
<path fill-rule="evenodd" clip-rule="evenodd" d="M197.878 290.38C202.299 290.677 200.516 295.703 201.331 298.875C202.417 303.1 204.132 307.305 206.545 310.955C207.559 312.49 209.096 313.937 210.223 315.407C215.234 322.917 224.021 324.697 231.096 329.545C231.512 331.89 228.675 333.173 226.812 333.853C225.826 334.207 223.102 334.482 222.07 334.5C216.871 334.6 213.242 332.602 209.351 329.372C208.599 328.747 205.869 326.918 205.265 326.232C201.844 322.347 197.73 315.107 195.728 310.425C194.99 308.702 193.612 302.224 193.638 300.423C193.691 296.635 195.263 293.05 197.878 290.38ZM312.354 251.442C313.644 251.537 314.745 251.965 314.732 253.412C314.182 253.707 314.487 253.607 313.66 253.415C313.34 253.958 313.977 255.513 313.667 256.393C313.045 258.16 313.402 260.168 313.314 262.04C312.864 271.722 313.55 281.47 312.76 291.143C312.565 293.525 311.463 296.555 311.03 298.978C310.488 302.018 309.91 305.215 308.817 308.098C306.442 314.658 300.94 321.305 294.487 324.12L293.643 323.782C290.133 324.927 286.892 325.187 283.232 324.85C280.865 324.63 279.035 324.237 276.705 324.72L276.354 324.795C275.552 324.49 274.732 324.12 273.942 323.777C270.915 322.337 270.39 322.172 269.192 319.07C269.797 316.773 270.248 315.683 271.45 313.683C279.743 310.235 283.59 314.69 291.518 314.143C294.012 313.97 295.86 313.202 298.175 312.337C305.065 304.077 304.913 282.362 305.875 271.612C306 270.23 305.785 267.64 305.765 266.155C305.69 260.295 306.835 254.56 312.354 251.442ZM331.438 270.912C333.907 269.885 336.77 270.875 339.272 271.357C341.022 271.697 344.072 271.947 345.612 272.35C349.62 273.397 355.405 275.573 359.16 277.035C361.073 277.781 369.33 283.035 370.695 284.415C370.9 285.872 371.06 286.975 371.112 288.447C368.492 293.292 368.59 296.695 366.715 301.417C363.33 309.944 356.385 320.243 347.025 322.888C342.013 324.305 341.553 321.355 337.543 319.572C332.436 317.772 328.543 315.532 324.758 311.505C322.228 308.812 320.198 303.827 320.525 300.192C320.988 295.07 326.993 283.377 330.86 280.17L330.572 279.638C329.11 279.398 327.035 279.63 326.282 278.372C325.952 277.825 325.888 276.823 326.178 276.285C327.07 274.635 329.715 271.63 331.438 270.912ZM217.004 245.883C217.114 241.971 224.607 239.674 227.946 240.13C240.854 241.894 252.62 242.07 264.772 247.357C273.19 251.02 281.65 251.915 279.19 264.253C277.465 272.325 273.203 282.396 266.771 287.801C264.816 289.446 256.435 294.018 253.93 294.183C248.559 294.535 245.386 297.157 241.994 291.263C235.318 290.668 226.152 283.516 221.77 278.556C220.714 277.361 218.789 271.855 217.78 269.955L217.591 269.603C218.664 260.663 219.109 256.448 225.489 249.003C224.15 247.912 218.363 248.881 217.004 245.883ZM122.141 237.932C124.709 237.901 137.087 244.298 139.43 245.93C144.438 249.419 150.502 251.41 146.033 257.885C142.208 263.425 139.379 263.07 133.466 264.357C133.503 266.392 141.153 270.91 142.984 272.94C143.463 280.932 139.158 281.432 133.073 278.107C130.342 276.837 127.684 275.987 124.924 274.867C123.81 274.412 122.427 272.873 121.104 272.29C117.318 270.615 112.543 269.905 110.165 266.325C111.188 264.27 114.808 257.801 117.019 257.753C119.949 257.693 123.381 256.958 126.484 256.013C127.476 255.71 130.049 256.66 131.217 255.725C131.842 252.557 119.427 248.332 117.573 244.804C117.201 244.098 117.156 243.265 117.45 242.523C118.028 241.031 120.647 238.613 122.141 237.932ZM343.875 227.821C346.223 227.492 354.008 228.93 356.503 229.653C357.941 230.07 360.963 231.623 362.893 232.171C367.39 233.41 371.452 233.667 375.755 235.616C378.49 236.855 381.234 240.804 379.27 243.619C378.027 245.397 371.673 248.754 369.503 249.079C366.288 250.412 360.091 246.401 356.98 245.869C349.458 244.584 342.385 243.318 335.768 239.165C328.263 234.455 339.44 228.38 343.875 227.821ZM234.389 206.258C240.883 207.894 248.951 208.753 255.598 210.518C260.823 211.893 266.115 213.302 271.062 215.468C273.448 216.512 279.147 217.581 277.657 221.247C276.187 224.865 269.792 228.161 266.39 229.649C262.885 230.668 259.247 227.443 255.854 226.479C248.218 224.308 240.373 222.228 232.593 220.65C215.455 217.174 225.736 211.373 234.389 206.258Z" fill="#4B4746"/>
<path fill-rule="evenodd" clip-rule="evenodd" d="M331.242 280.506C333.02 278.971 335.302 279.378 337.487 279.498C338.365 279.546 338.332 280.296 338.46 281.038C338.773 281.241 346.606 283.582 347.702 283.955C343.155 290.665 337.852 299.616 335.72 307.391C335.073 309.758 337.555 316.166 337.543 319.573C332.436 317.773 328.543 315.533 324.758 311.506C322.228 308.814 320.198 303.828 320.525 300.193C320.988 295.071 326.993 283.378 330.86 280.17L331.242 280.506ZM225.74 248.581C230.193 247.652 246.811 251.457 251.037 253.532C249.636 254.967 246.342 258.382 245.479 260.045C242.925 264.96 240.063 272.408 240.289 278C240.409 280.955 241.558 282.301 241.712 284.208C241.96 287.28 241.182 287.818 241.993 291.263C235.317 290.668 226.152 283.515 221.77 278.555C220.713 277.359 218.789 271.855 217.78 269.955L217.591 269.603C218.664 260.663 219.109 256.447 225.489 249.002L225.74 248.581Z" fill="#FEFEFE"/>
</g>
<defs>
<clipPath id="clip0_64_3272">
<rect width="480" height="480" fill="white"/>
</clipPath>
</defs>
</svg>
