<svg width="480" height="480" viewBox="0 0 480 480" fill="none" xmlns="http://www.w3.org/2000/svg">
<g clip-path="url(#clip0_79_4209)">
<path d="M231.218 80.3373C235.087 79.8693 240.8 81.6318 244.516 81.6693C263.9 81.8651 280.768 92.5738 299.595 95.8658C304.415 96.7088 311.208 101.451 316.15 103.207C320.295 104.937 323.888 109.296 327.058 111.727C333.26 116.484 337.42 121.595 342.065 127.834C342.883 128.934 345.213 130.557 345.833 131.657C349.368 137.919 353.04 143.72 357.338 149.469C358.325 150.798 359.258 156.093 360.05 157.965C363.498 166.13 366.855 181.404 362.5 189.573C363.545 192.92 362.238 201.64 361.36 205.183C359.18 213.977 354.695 223.337 350.048 231.084C348.04 234.432 345.705 237.584 343.68 240.926C342.14 243.469 340.968 246.219 339.348 248.714C338.045 250.72 336.305 252.515 334.698 254.283C333.623 255.47 332.42 256.935 331 257.72C329.87 258.343 328.4 258.45 327.173 258.08C325.025 257.433 323.088 254.438 322.07 252.505C321.515 251.45 321.223 250.283 321.348 249.086C321.493 247.685 322.163 246.244 322.555 244.881C323.42 241.881 324.205 238.714 324.433 235.6C324.693 232.027 323.73 228.082 324.863 224.709C324.68 224.323 323.643 221.866 323.555 221.742C320.385 217.338 311.85 213.371 307.683 210.234C303.015 206.719 301.563 202.704 295.76 200.85L295.06 200.676C288.4 198.954 284.07 195.201 278.678 191.342C276.513 189.792 274.443 188.597 272.35 186.83C271.26 185.909 269.843 183.924 268.96 183.297C265.213 180.629 261.298 178.341 257.683 175.429C256.023 174.092 255.108 172.689 253.673 171.366C252.24 170.047 250.01 168.753 248.559 167.366C244.766 163.741 240.988 159.993 237.449 156.121C236.18 154.733 233.483 152.799 232.707 151.365C231.386 148.922 229.215 147.367 227.338 145.241C225.33 142.966 223.376 140.929 221.686 138.35C221.145 137.524 220.606 136.919 219.852 136.279C217.258 137.929 214.792 138.748 212.269 140.253C208.682 142.393 205.327 145.383 201.628 147.35C197.479 149.556 193.007 151.208 188.79 153.267C184.519 155.709 180.375 158.361 176.068 160.742C174.58 161.691 172.723 161.72 171.229 162.592C161.393 168.334 151.846 173.155 140.17 170.933C136.533 170.225 135.54 165.669 136.708 162.617C138.309 158.434 139.381 153.454 141.444 149.491C150.341 132.392 160.55 117.246 174.879 104.213C176.949 102.331 179.067 99.6606 181.625 98.4546C183.716 97.4686 185.138 96.1606 186.912 94.7343C188.567 93.5481 190.373 92.2151 192.121 91.1931C199.03 87.1553 206.361 83.8513 214.242 82.2886C216.673 81.8066 219.321 81.0761 221.76 80.4768C224.539 81.4708 228.237 80.6923 231.218 80.3373ZM184.607 151.632C186.081 151.055 189.631 149.878 189.313 148.037C188.643 147.59 188.692 147.566 187.905 147.478C186.71 148.288 184.228 149.799 183.692 151.11L183.854 151.453C184.044 151.505 184.435 151.636 184.607 151.632ZM355.935 159.418L356.125 158.887C355.123 157.627 355.523 156.955 353.558 156.266L353.38 156.206C352.798 156.894 352.723 156.886 352.54 157.794C353.03 159.311 354.523 159.292 355.935 159.418ZM270.7 156.621C270.323 159.964 270.253 158.066 268.233 159.653C268.17 159.703 266.135 163.127 265.948 163.472C267.28 163.535 268.94 163.118 270.125 162.522L270.318 162.133C269.068 161.766 268.895 162.63 267.81 162.068C267.798 160.133 269.168 159.705 270.69 159.227L270.7 156.621ZM349.733 165.974C351.728 165.945 353.158 165.818 354.865 164.612L355.128 164.158C354.823 163.816 354.938 163.839 354.565 163.706C352.793 164.815 349.7 165.422 349.46 165.916L349.733 165.974ZM336.55 215.65C338.763 214.767 340.88 214.818 342.898 213.988C342.718 213.953 342.193 213.838 342.03 213.827C340.56 214.038 336.55 214.287 335.788 215.548L335.893 215.862C336.188 215.793 336.318 215.802 336.55 215.65ZM232.593 132.009C233.992 131.481 235.955 130.624 237.082 129.639L237.051 129.323L236.969 129.26C235.997 129.687 232.841 130.952 232.372 131.633L232.593 132.009ZM209.372 126.984C211.018 126.442 211.995 126.035 213.057 124.625C213.079 124.093 213.161 124.292 212.961 123.988C211.624 125.256 209.551 126.023 209.162 126.73L209.372 126.984ZM332.12 152.41L332.61 151.597C331.925 150.917 330.57 150.191 329.633 150.141L329.825 150.378C330.6 151.35 330.855 151.757 331.458 152.839C331.978 152.689 331.755 152.829 332.12 152.41ZM241.472 138.28C242.404 138.579 243.25 138.908 244.16 138.541C243.672 138.048 242.511 138.012 241.746 137.905C240.606 137.532 237.807 137.657 236.498 137.694L236.332 137.862L236.232 137.871C238.311 138.274 239.326 138.261 241.472 138.28ZM309.123 120.462C308.21 120.639 306.383 120.739 305.958 121.165L306.243 121.324C307.47 121.327 308.523 121.505 309.395 120.652L309.305 120.377L309.123 120.462ZM342.56 190.644C343.388 190.386 345.1 189.983 345.618 189.419C345.28 189.337 345.1 189.277 344.753 189.243C343.445 189.595 343.015 189.664 341.86 190.411L341.905 190.737L342.56 190.644ZM283.36 136.257C282.54 136.897 281.688 137.684 281.34 138.692L281.44 139.185C282.11 138.476 283.355 137.244 283.36 136.257ZM241.83 107.381C240.83 107.108 238.754 106.73 237.731 106.827C239.166 107.766 240.159 107.684 241.83 107.381ZM215.688 113.498C214.856 113.917 213.727 114.364 213.173 115.059L213.376 115.329C214.24 114.91 215.253 114.532 215.862 113.825L215.688 113.498ZM235.799 117.717C236.504 117.507 237.416 117.382 237.784 116.899C237.453 116.723 237.319 116.635 236.967 116.507C236.359 116.842 235.48 117.21 235.153 117.732L235.799 117.717ZM339.62 178.966C340.705 177.697 342.69 176.594 342.91 175.887L342.58 175.729C341.22 176.509 340.083 177.222 339.31 178.661L339.448 178.96L339.62 178.966ZM303.365 140.18C303.978 139.797 304.918 139.323 305.235 138.737C304.95 138.406 305.11 138.482 304.818 138.408C304.105 138.967 303.345 139.385 303.028 140.138L303.365 140.18ZM326.753 189.988C325.92 190.527 323.858 191.69 323.533 192.456C324.958 192.087 325.72 191.666 326.713 190.587L326.753 189.988ZM194.219 134.257C193.154 134.843 191.856 135.472 190.965 136.259C191.022 136.372 191.079 136.485 191.136 136.598C192.251 136.031 193.412 135.53 194.345 134.717C194.275 134.298 194.365 134.43 194.219 134.257ZM301.398 149.277C300.625 149.53 300.44 149.486 299.873 150C300.008 150.019 301.785 150.239 301.793 150.241C302.645 150.427 302.658 150.588 303.3 150.302C302.748 149.539 302.33 149.439 301.398 149.277ZM258.978 144.516C257.938 144.882 255.765 145.847 254.998 146.606L255.005 146.771C256.455 146.395 257.66 145.926 258.863 145.011L258.978 144.516ZM272.863 143.934C272.3 144.287 269.665 145.809 269.545 146.191L270.015 146.247C270.975 145.783 272.645 145.074 273.37 144.394L273.28 144.066L272.863 143.934ZM339.39 195.98C338.318 196.394 335.938 197.116 335.305 197.778L335.495 198.059L336.05 197.836C336.935 197.432 339.648 196.806 340.05 196.416C339.683 195.971 339.91 196.105 339.39 195.98Z" fill="#EDC43E"/>
<path d="M270.868 154.38C276.308 146.54 285.16 141.119 292.39 135.144C293.005 134.637 293.02 134.341 292.995 133.641C291.895 132.781 277.815 132.852 275.308 133.256C271.645 133.847 267.118 132.722 263.783 134.079C262.905 134.435 262.5 135.055 261.29 135.077C260.938 134.92 259.548 134.305 259.228 134.288C256.228 134.129 251.865 137.292 249.683 134.145C249.598 132.066 253.498 127.842 255.31 127.401C266.33 124.724 278.093 124.211 289.38 123.043C292.283 122.742 294.948 124.08 297.518 123.276C300.805 122.551 304.835 125.411 306.268 128.11C306.123 129.051 305.87 130.747 305.48 131.575C303.393 136.015 297.36 141.309 293.485 144.29C289.52 147.34 286.535 148.311 283.55 152.895C286.473 152.752 289.248 152.596 292.17 152.808C293.433 152.9 295.34 153.726 296.368 153.661C303.71 153.199 311.093 152.475 318.443 153.244C321.61 153.575 325.49 153.675 328.178 155.535C328.955 156.077 329.22 159.09 329.263 160.018C323.455 171.396 321.28 169.603 313.393 177.798C316.763 177.689 319.065 178.115 322.343 178.733C327.435 176.291 327.645 178.804 332.008 179.034C335.35 179.209 343.585 178.724 346.293 180.782C347.613 184.874 338.438 185.231 336.053 185.622C335.073 185.783 333.548 187.338 332.505 187.242C331.893 186.663 331.908 186.423 330.978 186.463C327.865 186.596 325.218 187.43 322.29 188.467C320.798 188.996 318.898 186.613 317.875 187.681C317.795 187.794 317.08 188.367 317 188.367C314.888 188.361 312.073 188.582 310.03 188.504C308.505 188.446 307.36 188.269 305.88 188.26C304.325 186.944 301.568 184.829 301.625 182.701C301.833 175.223 312.495 169.163 316.628 164.428C312.48 164.228 308.888 164.098 304.725 164.489C303.07 164.647 299.59 163.13 298.225 163.851C295.395 165.345 293.188 163.627 290.8 163.927C285.708 164.566 274.213 163.961 270.69 159.227L270.7 156.621L270.868 154.38Z" fill="#4B4746"/>
<path d="M297.545 344.418C298.702 344.438 298.865 344.477 299.873 345.005C301.348 345.78 304.08 345.495 305.86 345.7C309.075 346 312.315 346.553 315.555 346.583C321.173 346.635 326.818 346.428 332.445 346.533C333.21 346.548 334.212 345.918 335.215 345.78L335.482 346.022C335.907 348.422 332.21 353.844 330.855 355.799C333.69 359.794 336.26 366.332 336.107 371.267C340.23 368.175 342.7 369.16 347.49 368.74C348.55 368.77 350.627 368.373 351.607 368.592C354.97 369.357 366.535 369.355 368.345 372.18C370.095 374.918 366.492 382.265 364.758 384.75C363.31 386.827 360.34 389.205 358.557 391.15C352.577 397.515 347.377 403.605 340.335 408.84C335.287 412.595 330.89 416.485 325.338 419.713C315.735 417.698 323.107 393.143 324.62 387.225C317.81 388.003 312.468 389.755 306.47 384.86C303.591 382.51 303.485 379.103 303.267 375.72C294.645 372.99 284.31 374.823 275.535 374.765C272.182 374.743 256.109 374.31 253.948 373.21C253.678 372.827 253.198 372.238 253.37 371.69C253.96 369.835 255.067 366.597 256.567 365.424C259.914 362.807 262.75 364.31 265.147 364.243C268.09 364.163 272.893 363.22 275.958 363.173C277.306 363.15 285.589 362.705 285.78 362.458C287.717 359.908 291.753 353.098 293.93 350.105C295.483 347.973 295.062 346.75 297.545 344.418ZM122.345 334.485C126.846 336.253 132.982 341.865 137.541 344.392C141.976 346.85 145.531 345.808 149.585 347.203C154.003 348.723 158.337 352.782 163.134 353.907C166.62 354.727 170.083 355.26 173.615 355.83C175.7 356.005 178.536 357.262 180.574 357.285C184.85 357.335 200.77 356.713 202.427 361.29C201.759 366.78 200.681 369.592 195.129 371.415C195.07 371.362 195.012 371.307 194.953 371.255C194.667 371.005 194.258 370.603 193.881 370.508C192.091 370.065 187.257 372.182 185.112 372.46C182.516 372.797 179.652 372.383 177.034 372.32C173.547 372.238 169.979 372.387 166.509 372.137C164.705 372.005 162.921 371.62 161.115 371.512C156.452 371.24 151.228 371.11 146.558 371.467C146.217 371.492 144.893 371.569 144.664 371.742C143.958 372.277 142.069 375.814 141.273 376.822C135.737 383.832 127.069 384.02 124.616 386.852C123.666 388.602 121.521 392.685 120.104 394.525C117.136 398.383 108.686 415.572 102.196 412.429C98.5681 410.672 94.3943 401.74 93.031 397.873C92.531 396.455 90.82 394.69 90.4138 393.163C88.223 381.015 79.9671 373.43 87.3884 360.795C87.763 360.157 89.0775 358.412 89.8669 358.509C95.7824 359.242 101.645 364.033 106.552 367.31C117.135 373.455 113.496 359.948 124.829 356.883C122.216 353.213 118.102 348.442 117.981 343.807C117.885 340.11 119.086 336.568 122.345 334.485ZM150.134 359.424V359.425V359.424ZM342.03 213.827C342.192 213.837 342.717 213.952 342.897 213.988C340.88 214.818 338.763 214.767 336.55 215.65C336.318 215.802 336.187 215.792 335.892 215.862L335.788 215.549C336.55 214.287 340.56 214.038 342.03 213.827ZM339.39 195.98C339.91 196.105 339.682 195.972 340.05 196.417C339.645 196.806 336.934 197.432 336.05 197.836L335.495 198.059L335.305 197.778C335.938 197.116 338.318 196.393 339.39 195.98ZM326.713 190.587C325.72 191.665 324.958 192.087 323.533 192.456C323.858 191.69 325.92 190.527 326.753 189.988L326.713 190.587ZM344.753 189.243C345.1 189.277 345.28 189.336 345.617 189.419C345.099 189.983 343.388 190.385 342.56 190.643L341.905 190.737L341.86 190.411C343.015 189.663 343.445 189.594 344.753 189.243ZM342.91 175.886C342.69 176.594 340.705 177.698 339.62 178.966L339.448 178.96L339.31 178.661C340.083 177.222 341.22 176.509 342.58 175.729L342.91 175.886ZM354.565 163.707C354.937 163.839 354.823 163.816 355.128 164.158L354.865 164.612C353.158 165.818 351.727 165.945 349.732 165.974L349.46 165.916C349.7 165.421 352.793 164.816 354.565 163.707ZM270.69 159.227C269.168 159.705 267.798 160.133 267.81 162.068C268.895 162.63 269.068 161.766 270.317 162.133L270.125 162.522C268.94 163.118 267.28 163.535 265.948 163.471C266.136 163.126 268.164 159.713 268.232 159.653C270.252 158.066 270.322 159.964 270.7 156.621L270.69 159.227ZM353.557 156.266C355.522 156.955 355.122 157.627 356.125 158.887L355.935 159.419C354.523 159.292 353.03 159.311 352.54 157.794C352.722 156.886 352.797 156.893 353.38 156.206L353.557 156.266ZM329.633 150.141C330.57 150.191 331.925 150.917 332.61 151.596L332.12 152.41C331.755 152.829 331.978 152.69 331.458 152.84C330.855 151.757 330.6 151.351 329.825 150.379L329.633 150.141ZM187.904 147.478C188.691 147.566 188.643 147.589 189.312 148.037C189.631 149.878 186.081 151.055 184.607 151.633C184.435 151.636 184.043 151.505 183.853 151.453L183.691 151.109C184.227 149.799 186.709 148.288 187.904 147.478ZM301.397 149.277C302.33 149.439 302.748 149.538 303.3 150.301C302.658 150.588 302.645 150.427 301.793 150.241C301.784 150.238 300.01 150.019 299.873 150.001C300.44 149.486 300.625 149.529 301.397 149.277ZM258.863 145.011C257.66 145.926 256.455 146.395 255.005 146.771L254.998 146.606C255.765 145.847 257.937 144.883 258.977 144.516L258.863 145.011ZM273.28 144.066L273.37 144.394C272.645 145.074 270.975 145.783 270.015 146.248L269.545 146.191C269.665 145.809 272.299 144.288 272.862 143.934L273.28 144.066ZM304.818 138.408C305.11 138.482 304.95 138.406 305.235 138.737C304.918 139.323 303.977 139.798 303.365 140.18L303.028 140.137C303.346 139.385 304.106 138.968 304.818 138.408ZM283.36 136.258C283.355 137.244 282.11 138.476 281.44 139.185L281.341 138.691C281.688 137.684 282.54 136.898 283.36 136.258ZM236.498 137.693C237.806 137.656 240.605 137.532 241.746 137.905C242.511 138.011 243.672 138.048 244.16 138.542C243.249 138.908 242.404 138.579 241.472 138.28C239.326 138.261 238.311 138.273 236.232 137.871L236.332 137.862L236.498 137.693ZM194.218 134.257C194.364 134.429 194.275 134.298 194.345 134.716C193.412 135.529 192.251 136.03 191.135 136.597C191.079 136.485 191.022 136.372 190.966 136.259C191.856 135.472 193.154 134.842 194.218 134.257ZM237.051 129.323L237.082 129.638C235.955 130.623 233.992 131.481 232.593 132.009L232.373 131.633C232.843 130.952 235.998 129.687 236.969 129.26L237.051 129.323ZM212.961 123.988C213.161 124.292 213.079 124.094 213.057 124.626C211.995 126.035 211.018 126.442 209.372 126.984L209.162 126.73C209.551 126.022 211.624 125.256 212.961 123.988ZM309.395 120.652C308.523 121.505 307.47 121.327 306.243 121.324L305.958 121.165C306.383 120.739 308.21 120.639 309.123 120.462L309.305 120.377L309.395 120.652ZM236.967 116.508C237.319 116.635 237.454 116.723 237.784 116.899C237.416 117.382 236.504 117.507 235.799 117.716L235.153 117.732C235.481 117.21 236.359 116.842 236.967 116.508ZM215.862 113.825C215.253 114.532 214.239 114.91 213.376 115.329L213.174 115.059C213.728 114.364 214.856 113.917 215.687 113.499L215.862 113.825ZM237.731 106.827C238.754 106.731 240.83 107.108 241.83 107.382C240.158 107.684 239.166 107.766 237.731 106.827Z" fill="#EDC43E"/>
</g>
<defs>
<clipPath id="clip0_79_4209">
<rect width="480" height="480" fill="white"/>
</clipPath>
</defs>
</svg>
