<svg width="480" height="480" viewBox="0 0 480 480" fill="none" xmlns="http://www.w3.org/2000/svg">
<g clip-path="url(#clip0_64_1698)">
<path d="M149.301 233.764C148.643 232.785 143.738 225.464 143.435 224.681C141.207 218.933 136.835 207.054 136.415 200.969C136.03 195.408 134.882 193.687 133.9 188.516C133.258 186.685 134.114 179.315 133.626 177.936C131.667 172.397 134.362 168.214 132.99 162.786C131.547 157.082 133.349 151.935 134.148 146.472C134.784 142.122 135.194 138.585 136.713 134.364C139.405 122.977 142.437 115.686 152.264 108.836C165.046 99.901 178.667 91.952 193.136 86.0202C195.733 84.9555 205.872 82.0057 209.132 82.0677C210.858 82.809 212.069 81.0765 213.378 80.8025C219.538 79.513 227.644 80.0435 233.737 78.7145C240.523 77.2345 244.643 77.4212 251.4 77.1125C257.505 76.8335 261.485 77.2225 267.512 77.748L282.195 78.924C286.325 79.2745 291.027 79.2765 295.082 79.8997C301.74 80.923 308.312 82.851 314.835 84.4822C316.922 85.004 319.13 85.235 321.122 85.7272C325.437 86.793 330.182 88.2505 334.392 89.6822C338.647 91.1287 340.837 94.491 342.545 98.494C340.95 104.28 341.567 105.082 336.857 110.012C339.355 110.292 340.667 110.266 343.302 110.707C347.587 111.424 349.807 112.625 353.557 113.711C360.547 115.733 366.342 117.292 372.712 121.059C374.625 122.189 375.995 123.532 377.83 124.651C381.55 126.672 384.875 128.633 388.265 131.162C392.385 134.234 395.565 140.203 399.12 143.215C399.31 144.838 398.695 145.12 397.527 146.213C397.342 147.07 397.32 146.651 397.662 147.509C399.237 148.543 401.59 147.22 402.132 148.014C404.562 151.57 402.525 151.914 407.17 153.996C410.507 158.034 410.435 160.149 411.955 164.928C412.565 166.847 414.475 168.906 415.142 171.072C417.3 178.038 419.795 186 420.395 193.249C420.455 193.972 420.55 200.968 420.522 201.018C418.702 204.433 420.112 207.372 419.577 210.55C418.257 218.414 414.995 227.723 408.53 232.86C404.117 236.352 402.075 236.749 397.535 238.828C393.96 237.114 384.605 238.512 380.105 237.64C376.52 236.945 372.412 234.507 369.257 235.367C366.557 235.991 363.562 234.008 360.967 233.378C359.692 233.067 358.25 233.314 356.975 232.905C341.375 227.906 326.187 222.933 311.71 215.137C308.742 213.54 305.872 211.601 302.947 209.919C300.245 208.512 297.975 208.004 295.105 206.331C293.175 210.175 290.75 213.915 286.595 215.617C285.577 216.196 283.232 215.131 282.515 215.242C279.425 215.722 276.915 214.868 274.04 214.449C269.62 213.804 267.035 212.816 263.257 210.399C262.585 209.969 260.865 209.971 260.095 209.54C254.03 206.502 248.69 202.62 243.757 197.967C242.235 196.532 240.358 194.597 238.694 193.391C237.862 196.325 237.81 198.975 236.367 201.569C237.148 204.248 236.983 204.867 236.275 207.561C234.705 213.532 231.17 217.212 225.18 218.941C219.917 220.382 214.174 219.521 209.265 217.262C208.604 216.958 206.125 216.07 205.716 215.719C202.417 212.884 200.256 209.363 196.509 206.869C194.946 205.829 194.293 202.783 191.543 203.145C190.161 204.543 189.718 208.582 189.023 210.647C188.366 212.603 186.864 215.492 186.338 217.204C184.77 222.3 183.443 225.432 181.074 230.131C178.575 235.089 177.477 235.169 173.588 239.098C172.558 240.139 171.537 242.525 170.711 243.651C170.171 243.499 169.894 243.387 169.372 243.172C164.168 244.798 158.956 244.699 155.014 240.642C154.123 239.726 152.781 238.81 152 237.87C152.626 236.766 154.261 235.825 154.565 234.807C153.966 234.011 153.895 233.897 153.826 232.906C154.545 232.404 155.316 232.056 155.594 231.359C154.3 231.162 153.164 232.299 152.322 233.16C151.042 234.158 150.735 234.796 149.301 233.764ZM298.837 157.461C301.297 154.372 299.275 153.629 301.862 152.022C302.242 151.785 302.355 151.656 302.66 151.332L302.585 150.95L300.86 150.695C299.442 154.363 299.53 154.559 297.18 157.769C297.705 157.989 298.12 157.691 298.837 157.461ZM349.227 222.834C348.465 223.318 348.11 223.581 347.275 223.895C346.695 223.793 346.445 223.75 345.86 223.727L345.712 224.184C347.13 226.535 349.995 225.863 350.627 224.15C350.357 223.79 350.087 223.474 349.8 223.13C350.09 222.219 350.897 221.94 351.685 220.889L351.357 220.79C350.302 221.156 349.73 221.883 349.227 222.834ZM212.159 89.2205L212.112 88.8582C210.088 88.7802 206.207 88.411 204.411 88.529L204.623 89.2997C206.168 89.9652 210.695 89.9242 212.159 89.2205ZM216.573 206.1C217.544 205.572 223.173 202.926 223.343 202.639L222.929 202.567C219.47 203.295 218.897 203.597 216.089 205.883L215.992 206.151C216.112 206.144 216.478 206.135 216.573 206.1ZM412.187 208.484C413.49 207.601 416.32 205.846 417.222 204.677C416.75 204.367 417.007 204.463 416.457 204.384C414.897 205.486 412.88 206.811 411.555 208.126L411.525 208.453L412.187 208.484ZM180.998 217.689C181.993 217.389 183.008 217.181 183.653 216.361L183.361 216.139C182.095 216.114 181.178 216.595 179.984 217.061C177.914 217.726 177.067 217.749 176.675 220.053L176.879 220.286C178.762 219.257 178.874 218.234 180.998 217.689ZM267.102 87.6465C268.475 87.2137 272.862 86.2592 273.63 85.81L273.687 85.36L273.195 85.277C271.992 85.6192 267.35 86.6517 266.777 87.1192L266.727 87.5192L267.102 87.6465ZM283.18 190.823C284.527 189.761 286.31 188.175 287.342 186.821L287.235 186.455L286.4 186.366C286.122 186.667 283.01 190.317 282.72 190.703C283.052 190.882 282.895 190.869 283.18 190.823ZM217.833 85.7442C219.1 85.3615 223.868 84.037 224.578 83.3562C224.437 83.3367 224.29 83.2812 224.152 83.3172C222.491 83.652 219.002 84.4942 217.573 85.3175L217.449 85.6785L217.833 85.7442ZM195.181 189.482C195.919 189.654 197.333 189.643 198.142 189.664L198.47 189.064C198.742 189.283 198.655 189.161 198.774 189.396C197.691 188.357 194.989 188.365 193.688 189.079C192.122 189.664 189.243 190.561 188.102 191.625C190.005 191.183 194.08 189.566 195.181 189.482ZM165.722 107.497C167.082 106.896 169.55 105.581 170.595 104.581L170.691 104.117C168.928 104.965 167.138 105.76 165.705 107.119L165.722 107.497ZM193.453 107.532C194.275 107.207 195.618 106.765 196.245 106.222L196.207 105.866L195.84 105.722C194.963 106.156 193.495 106.661 193.145 107.362L193.453 107.532ZM378.35 161.29C379.172 160.848 380.56 160.197 381.167 159.568L381 159.271L380.852 159.231C379.742 159.831 379.087 160.145 378.1 160.969L378.07 161.361L378.35 161.29ZM193.337 99.4467C194.22 99.0167 194.999 98.7385 195.651 98.024L195.507 97.7617L195.199 97.723C194.441 98.0957 193.676 98.4522 192.904 98.7925L192.839 99.1222L193.337 99.4467ZM177.824 195.643C179.112 195.347 179.964 195.216 181.14 194.571L181.17 194.256L180.457 194.222C179.839 194.481 177.733 195.243 177.46 195.633L177.824 195.643ZM167.309 150.836L166.97 150.706C166.039 152.106 164.312 152.689 163.857 153.562C165.616 154.028 166.7 152.161 167.309 150.836ZM142.671 167.806C141.597 168.377 140.651 168.754 139.888 169.677C139.873 170.064 139.843 170.152 139.909 170.53C140.414 170.073 142.597 168.253 142.671 167.806ZM205.865 157.745C206.54 157.315 208.138 156.453 208.397 155.823L207.902 155.706C207.095 156.235 205.926 156.88 205.411 157.639L205.865 157.745ZM219.472 193.679C220.79 192.488 222.403 190.748 223.957 190.101C225.171 189.804 225.965 189.629 227.105 189.122C225.975 188.976 224.574 189.382 223.256 189.523C221.191 190.398 220.633 191.769 219.472 193.679ZM229.921 198.043C230.6 197.407 231.634 196.577 231.982 195.771L231.751 195.455C231.086 196.047 230.04 196.858 229.657 197.607L229.921 198.043ZM235.951 94.3887L236.125 94.7162C237.197 94.8437 237.338 94.8002 238.426 94.633L238.117 94.2512C237.145 94.2135 236.921 94.2415 235.951 94.3887ZM163.319 236.894C164.585 236.53 166.369 236.117 167.204 235.092L167.052 234.875C166.273 235.182 163.482 236.113 163.062 236.496L163.319 236.894ZM216.254 193.332L216.178 193.66C217.127 194.04 217.855 194.002 218.872 194.055L218.823 193.619C217.908 193.297 217.23 193.353 216.254 193.332ZM286.722 199.025C287.527 198.622 288.565 198.183 289.2 197.58L288.97 197.204L286.64 198.511L286.565 198.862L286.722 199.025ZM327.545 98.476C326.135 97.7122 325.477 97.3805 323.862 97.326C324.92 98.144 326.222 98.4755 327.545 98.476ZM338.877 126.783C338.04 127.087 337.125 127.273 336.585 127.872C336.945 128.249 336.747 128.144 337.13 128.265C337.847 127.921 338.957 127.529 339.33 126.894L338.877 126.783ZM398.245 199.749C397.372 200.211 396.637 200.49 396.037 201.256L395.997 201.787C396.955 201.191 397.777 200.909 398.247 200.038L398.245 199.749ZM342.787 141.397C341.73 142.004 341.422 142.097 340.672 143.011L340.812 143.293L341.087 143.121C341.87 142.659 342.835 142.248 343.267 141.551L342.787 141.397ZM268.675 103.972C267.922 104.422 267.59 104.436 267.28 105.086C268.097 105.125 268.187 105.02 268.937 104.713C269.88 104.69 269.98 104.86 270.552 104.39C269.987 103.914 269.422 103.951 268.675 103.972ZM210.421 105.324C209.551 105.488 207.056 105.643 206.812 105.936L207.067 106.356C208.215 106.465 209.694 106.245 210.646 105.578L210.421 105.324ZM386.762 213.803C386.057 214.06 385.902 213.98 385.502 214.477C386.625 214.644 386.907 214.565 388.06 214.425C388.882 214.538 388.585 214.663 389.097 214.307C388.375 213.62 387.682 213.738 386.762 213.803ZM180.548 145.859C179.661 146.698 178.838 147.363 178.226 148.411L178.424 148.665L178.722 148.557C179.398 147.946 180.739 146.883 181.062 146.123L180.548 145.859ZM389.45 207.026C388.225 207.685 387.23 208.061 386.745 209.368C386.97 209.856 386.855 209.711 387.217 210.091C388.115 208.774 388.51 208.283 389.597 207.12L389.45 207.026ZM287.307 82.7462C288.3 82.5172 290.137 82.2155 290.877 81.6555C290.6 81.3477 290.742 81.4107 290.525 81.3427C289.43 81.4467 287.527 81.621 286.807 82.4957C287.067 82.794 286.902 82.7072 287.307 82.7462ZM219.68 180.172C219.071 180.695 217.788 181.637 217.578 182.312L218.098 182.327C218.869 181.968 219.97 181.61 220.345 180.917C220.056 180.314 220.26 180.563 219.68 180.172ZM165.593 199.41C164.826 200.205 164.442 200.456 164.139 201.472C164.302 202.299 164.128 201.947 164.658 202.579L164.743 202.375C165.171 201.376 166.088 200.246 166.05 199.577L165.593 199.41ZM155.176 223.138C153.844 223.277 151.654 223.523 150.605 224.395L150.737 224.626L151.065 224.63C152.063 224.369 154.925 223.743 155.582 223.237C155.239 223.113 155.378 223.105 155.176 223.138ZM412.725 191.376C413.117 193.046 413.04 192.73 411.99 194.531C412.512 194.602 412.287 194.632 412.665 194.525C413.542 193.783 414.005 193.634 414.355 192.659C414.032 191.916 413.472 191.762 412.725 191.376ZM302.012 103.935C301.075 104.865 298.74 106.639 299.707 107.967C300.172 108.124 300.485 108.292 300.952 108.274C298.957 105.736 302.582 105.414 302.307 104.04L302.012 103.935Z" fill="#E88033"/>
<path d="M277.83 131.646C278.647 131.028 280.89 129.236 281.85 129.225C283.873 129.203 285.515 130.26 287.515 129.337L287.92 129.48C287.305 130.425 287.255 130.187 287.26 131.13C288.393 133.286 291.098 134.828 291.913 136.681C291.98 136.832 291.343 137.601 291.12 137.878C291.07 138.921 293.745 141.777 294.258 143.16C297.043 150.669 296.997 160.926 290.738 166.74C289.88 167.538 285.145 170.546 284.06 170.337C282.173 169.974 280.268 169.73 278.208 169.693C276.595 167.937 269.568 165.004 266.89 163.072C264.363 170.821 263.2 171.07 255.783 172.994C251.693 171.108 246.906 168.016 243.569 165.08C241.578 163.329 241.204 161.728 238.177 160.739C237.692 160.581 235.779 158.524 235.261 157.979C232.303 165.778 228.93 175.493 220.652 179.329C219.175 180.014 212.873 180.817 210.591 181.306C208.418 180.72 205.277 178.508 203.34 177.269C199.875 175.054 198.217 171.218 196.587 167.566C195.71 166.202 194.926 165.975 193.489 165.325C192.551 166.067 190.786 169.047 189.685 170.334C187.344 173.143 184.723 175.445 182.733 178.564C181.755 180.096 178.292 179.695 176.737 180.324C175.83 180.691 175.418 181.402 174.389 181.543C172.349 180.56 169.012 180.755 167.944 179.638C164.804 176.354 163.816 169.064 163.963 164.86C164.082 161.463 167.798 153.034 167.309 150.836L166.97 150.706C167.022 150.649 167.074 150.592 167.126 150.534L167.349 150.276C168.447 149.027 169.672 145.823 170.333 144.208C172.697 138.43 174.737 134.222 179.218 129.831C180.162 130.433 181.402 130.979 181.484 132.172C180.59 132.726 180.191 132.735 180.018 133.78C180.745 134.183 181.26 133.69 182.534 133.922C182.508 134.861 181.678 134.865 181.628 135.159C180.888 139.45 182.239 138.858 177.614 140.832C177.281 142.213 175.583 146.006 175.136 147.663C175.062 147.937 174.189 147.792 173.832 148.811C173.945 148.953 174.056 149.096 174.164 149.241C175.776 151.393 172.613 152.018 172.36 153.755C172.487 153.841 173.332 154.409 173.308 154.52C172.234 159.486 171.133 162.528 171.367 167.765C171.934 168.561 172.634 169.393 173.251 170.164C174.116 170.256 175.012 170.379 175.881 170.365C178.003 170.331 180.317 168.834 181.964 167.604C195.016 157.859 188.984 147.73 197.031 139.226C198.926 139.935 199.583 140.255 201.223 141.386C201.791 148.73 200.378 155.253 205.889 162.02C206.956 163.33 209.253 164.194 209.614 165.132C209.462 165.795 209.399 165.907 209.428 166.576C211.454 167.235 216.514 169.037 218.328 169.204C220.89 168.253 223.544 165.458 225.468 163.486C225.651 161.777 226.066 160.564 226.554 158.93C227.675 155.175 227.602 152.971 227.185 149.135C226.843 148.084 225.138 147.611 224.174 147.224C225.057 146.333 225.938 145.167 226.735 144.179C228.479 140.617 229.211 138.16 232.608 136.018C236.824 139.411 240.014 144.2 244.048 147.689C248.007 151.114 254.208 158.125 259.155 159.638L259.633 159.502C259.585 158.54 259.443 158.526 258.838 157.647C258.85 151.346 255.95 146.49 259.385 140.42C262.118 135.586 263.955 134.323 267.328 140.795C267.458 141.576 266.933 143.664 267.393 144.304C270.382 148.454 274.308 152.228 277.873 155.928C278.035 156.097 287.043 157.666 287.648 157.338C287.895 155.512 285.808 149.867 284.618 148.37C282.878 148.27 283.16 149.137 282.09 149.038L281.905 148.652C282.588 147.643 283.16 148.242 283.713 147.194C281.888 142.496 276.838 140.34 276.76 135.1C276.745 134 277.403 132.656 277.83 131.646Z" fill="#4B4746"/>
<path fill-rule="evenodd" clip-rule="evenodd" d="M155.594 231.358C155.315 232.056 154.545 232.403 153.826 232.905C153.895 233.896 153.966 234.011 154.565 234.807C154.261 235.825 152.626 236.766 151.999 237.87C151.229 236.886 150.02 234.882 149.301 233.764C150.735 234.795 151.042 234.158 152.322 233.16C153.164 232.299 154.3 231.162 155.594 231.358ZM167.204 235.092C166.369 236.117 164.585 236.53 163.319 236.895L163.062 236.496C163.483 236.113 166.273 235.182 167.052 234.875L167.204 235.092ZM351.685 220.89C350.898 221.941 350.09 222.219 349.8 223.13C350.088 223.474 350.358 223.79 350.627 224.149C349.995 225.863 347.13 226.535 345.712 224.184L345.86 223.727C346.445 223.75 346.695 223.793 347.275 223.895L346.87 224.379L346.972 224.772H346.973L346.871 224.379L347.275 223.895C348.11 223.581 348.465 223.317 349.227 222.834C349.73 221.882 350.303 221.155 351.358 220.789L351.685 220.89ZM155.176 223.138C155.378 223.105 155.24 223.113 155.582 223.237C154.925 223.743 152.063 224.37 151.065 224.63L150.737 224.627L150.605 224.395C151.654 223.523 153.844 223.276 155.176 223.138ZM180.998 217.688C178.874 218.233 178.762 219.256 176.879 220.285L176.675 220.053C177.068 217.749 177.914 217.726 179.984 217.062L180.998 217.688ZM183.653 216.361C183.008 217.181 181.993 217.389 180.999 217.688L179.984 217.062C181.178 216.595 182.096 216.114 183.362 216.139L183.653 216.361ZM386.762 213.804C387.682 213.738 388.375 213.621 389.097 214.308C388.585 214.663 388.882 214.538 388.06 214.425C386.908 214.565 386.625 214.644 385.502 214.478C385.902 213.981 386.057 214.06 386.762 213.804ZM389.598 207.12C388.511 208.284 388.115 208.774 387.217 210.091C386.855 209.711 386.97 209.856 386.746 209.368C387.231 208.062 388.226 207.684 389.451 207.025L389.598 207.12ZM416.457 204.385C417.007 204.463 416.75 204.367 417.222 204.678C416.319 205.846 413.489 207.601 412.187 208.484L411.525 208.453L411.555 208.126C412.88 206.811 414.897 205.486 416.457 204.385ZM223.343 202.639C223.173 202.926 217.543 205.571 216.573 206.1C216.477 206.134 216.113 206.144 215.993 206.151L216.088 205.883C218.897 203.597 219.47 203.295 222.929 202.567L223.343 202.639ZM166.05 199.577C166.088 200.247 165.171 201.376 164.744 202.375L164.658 202.579C164.128 201.947 164.302 202.299 164.139 201.473C164.442 200.456 164.826 200.205 165.592 199.41L166.05 199.577ZM398.248 200.038C397.777 200.909 396.955 201.191 395.998 201.787L396.038 201.256C396.638 200.49 397.373 200.211 398.246 199.749L398.248 200.038ZM289.2 197.58C288.565 198.183 287.527 198.622 286.722 199.025L286.565 198.862L286.64 198.512L288.97 197.204L289.2 197.58ZM231.982 195.771C231.634 196.577 230.6 197.407 229.921 198.043L229.657 197.607C230.04 196.859 231.086 196.048 231.751 195.455L231.982 195.771ZM181.17 194.257L181.14 194.571C179.964 195.216 179.113 195.347 177.825 195.643L177.46 195.634C177.734 195.243 179.839 194.481 180.457 194.222L181.17 194.257ZM412.725 191.376C413.473 191.762 414.032 191.917 414.355 192.659C414.005 193.634 413.543 193.783 412.665 194.524C412.288 194.632 412.512 194.602 411.99 194.531C413.04 192.73 413.117 193.046 412.725 191.376ZM216.254 193.332C217.231 193.353 217.909 193.297 218.824 193.619L218.872 194.055C217.855 194.002 217.128 194.04 216.178 193.66L216.254 193.332ZM223.256 189.522C224.574 189.382 225.975 188.976 227.105 189.122C225.965 189.629 225.17 189.804 223.957 190.102C222.403 190.748 220.79 192.489 219.472 193.68C220.633 191.769 221.192 190.398 223.256 189.522ZM193.688 189.079C194.868 188.432 197.199 188.364 198.431 189.132L198.142 189.665C197.434 189.646 196.263 189.652 195.487 189.539L195.181 189.482C194.08 189.566 190.005 191.183 188.102 191.625C189.244 190.561 192.122 189.664 193.688 189.079ZM287.235 186.455L287.343 186.82C286.311 188.174 284.528 189.761 283.18 190.823C282.895 190.869 283.053 190.881 282.72 190.703C283.011 190.316 286.121 186.668 286.4 186.366L287.235 186.455ZM198.469 189.064C198.742 189.283 198.655 189.161 198.774 189.396C198.673 189.299 198.558 189.211 198.431 189.132L198.469 189.064ZM219.68 180.173C220.26 180.563 220.056 180.314 220.345 180.917C219.97 181.61 218.869 181.968 218.098 182.327L217.579 182.312C217.788 181.637 219.071 180.696 219.68 180.173ZM142.671 167.807C142.597 168.254 140.415 170.072 139.909 170.529C139.843 170.152 139.872 170.064 139.887 169.678C140.651 168.754 141.597 168.377 142.671 167.807ZM194.839 163.556C196.701 163.495 196.865 166.192 196.586 167.566C195.71 166.202 194.926 165.975 193.489 165.325C193.951 164.452 194.046 164.07 194.839 163.556ZM380.999 159.271L381.167 159.568C380.56 160.197 379.173 160.849 378.35 161.29L378.07 161.361L378.1 160.97C379.088 160.146 379.742 159.831 380.852 159.231L380.999 159.271ZM302.585 150.95L302.661 151.332C302.356 151.656 302.243 151.786 301.863 152.022C299.275 153.63 301.297 154.372 298.837 157.461C298.12 157.691 297.705 157.989 297.18 157.77C299.53 154.559 299.442 154.363 300.86 150.695L302.585 150.95ZM208.398 155.823C208.139 156.453 206.54 157.315 205.866 157.745L205.412 157.639C205.927 156.881 207.096 156.235 207.903 155.707L208.398 155.823ZM399.121 143.216C402.39 145.579 403.788 150.008 407.17 153.996C402.525 151.914 404.562 151.57 402.132 148.014C401.589 147.221 399.237 148.543 397.663 147.509C397.32 146.651 397.343 147.07 397.528 146.214C398.695 145.12 399.31 144.838 399.121 143.216ZM167.309 150.836C166.7 152.161 165.616 154.027 163.858 153.562C164.313 152.689 166.039 152.106 166.97 150.707L167.309 150.836ZM226.735 144.179C227.544 145.722 227.306 147.419 227.185 149.135C226.843 148.084 225.138 147.611 224.174 147.224C225.057 146.333 225.938 145.167 226.735 144.179ZM181.062 146.123C180.739 146.883 179.398 147.946 178.722 148.557L178.424 148.665L178.226 148.411C178.839 147.363 179.661 146.698 180.547 145.858L181.062 146.123ZM343.267 141.551C342.835 142.247 341.87 142.659 341.087 143.121L340.812 143.293L340.672 143.011C341.422 142.097 341.73 142.004 342.788 141.397L343.267 141.551ZM339.33 126.895C338.957 127.529 337.848 127.921 337.13 128.265C336.748 128.144 336.945 128.249 336.585 127.872C337.125 127.274 338.04 127.087 338.877 126.783L339.33 126.895ZM302.307 104.04C302.582 105.415 298.958 105.736 300.953 108.274C300.485 108.293 300.172 108.125 299.708 107.968C298.74 106.64 301.075 104.866 302.012 103.936L302.307 104.04ZM196.207 105.866L196.245 106.223C195.618 106.765 194.275 107.207 193.454 107.532L193.146 107.361C193.496 106.661 194.963 106.156 195.84 105.722L196.207 105.866ZM170.595 104.581C169.55 105.581 167.082 106.896 165.722 107.497L165.706 107.119C167.138 105.76 168.929 104.965 170.691 104.117L170.595 104.581ZM210.646 105.578C209.694 106.245 208.215 106.465 207.067 106.356L206.812 105.937C207.056 105.643 209.551 105.488 210.421 105.324L210.646 105.578ZM268.675 103.973C269.423 103.952 269.987 103.914 270.552 104.391C269.98 104.86 269.879 104.69 268.937 104.713C268.187 105.02 268.097 105.125 267.28 105.086C267.59 104.436 267.923 104.423 268.675 103.973ZM195.507 97.7617L195.651 98.0244C195 98.7387 194.22 99.0163 193.337 99.4463L192.839 99.1221L192.905 98.793C193.677 98.4527 194.442 98.0954 195.199 97.7227L195.507 97.7617ZM323.863 97.3262C325.477 97.3807 326.135 97.7121 327.544 98.4756C326.222 98.475 324.92 98.1439 323.863 97.3262ZM238.118 94.251L238.426 94.6328C237.339 94.8 237.197 94.8433 236.125 94.7158L235.951 94.3887C236.921 94.2414 237.145 94.2132 238.118 94.251ZM204.412 88.5293C206.207 88.4113 210.088 88.7804 212.113 88.8584L212.159 89.2207C210.695 89.9243 206.168 89.9652 204.624 89.2998L204.412 88.5293ZM273.688 85.3604L273.63 85.8096C272.863 86.2588 268.476 87.2137 267.103 87.6465L266.728 87.5195L266.778 87.1191C267.351 86.6516 271.992 85.6197 273.195 85.2773L273.688 85.3604ZM224.152 83.3174C224.29 83.2814 224.437 83.3369 224.579 83.3564C223.868 84.0372 219.1 85.3614 217.833 85.7441L217.45 85.6787L217.573 85.3174C219.002 84.4942 222.491 83.6522 224.152 83.3174ZM290.525 81.3428C290.742 81.4108 290.6 81.3478 290.877 81.6553C290.137 82.2152 288.301 82.5171 287.308 82.7461C286.903 82.7071 287.068 82.7939 286.808 82.4961C287.528 81.6214 289.43 81.4468 290.525 81.3428Z" fill="#E88033"/>
</g>
<defs>
<clipPath id="clip0_64_1698">
<rect width="480" height="480" fill="white"/>
</clipPath>
</defs>
</svg>
