<svg width="480" height="480" viewBox="0 0 480 480" fill="none" xmlns="http://www.w3.org/2000/svg">
<g clip-path="url(#clip0_64_2024)">
<path d="M248.034 81.3675C248.499 81.2115 258.413 82.6237 259.713 82.792C265.738 83.5722 271.733 83.1892 277.633 84.859C279.403 85.3602 281.178 86.1282 282.975 86.5617C284.568 86.9345 286.563 86.7092 288.163 87.1862C294.97 89.754 301.765 92.9712 308.375 96.0022C310.4 96.9092 313.073 96.6202 314.928 97.902C321.04 102.123 326.69 106.985 332.663 111.402C333.905 112.32 335.328 113.311 336.445 114.362C338.22 116.031 339.603 118.499 341.36 120.165C343.205 121.916 345.445 123.353 347.165 125.279C348.365 126.607 349.178 128.583 350.348 129.974C353.98 133.102 356.675 136.915 359.593 140.691C360.518 141.888 361.15 143.645 361.945 144.976C369.003 156.789 371.485 170.388 371.213 184.014C371.16 186.666 371.825 189.661 371.703 192.375C371.383 199.324 368.525 206.325 365.14 212.334C363.153 215.162 361.035 217.625 359.223 220.593C356.013 225.855 351.2 230.828 344.93 231.964C338.15 233.193 332.193 230.715 325.948 228.547C320.323 226.595 316.885 222.386 313.693 217.596C312.92 216.435 311.11 215.264 310.288 213.927C308.343 210.767 306.288 207.587 304.628 204.269C303.603 201.994 303.035 199.152 301.978 196.933C298.318 189.269 296.155 181.889 294.705 173.49C292.528 176.796 286.953 182.715 283.585 185.005C283.17 185.287 281.905 185.58 281.37 185.699C278.483 188.768 276.293 192.667 272.198 194.015C270.113 197.546 267.74 198.073 264.208 200.032C262.415 201.458 259.773 203.602 257.69 204.529C256.918 204.895 254.09 204.652 253.535 205.279C250.683 208.496 248.365 209.827 244.317 211.133C244.304 211.137 243.948 210.538 243.31 210.499C241.999 212.284 237.139 213.659 234.871 214.77C232.607 215.88 229.319 217.596 226.973 218.336C223.866 219.317 219.937 219.701 216.744 220.585C215.433 220.834 212.139 222.806 211.035 222.841C205.528 222.702 201.084 225.166 196.386 226.487C195.286 226.796 185.787 227.072 184.358 227.101C180.233 227.187 174.687 226.741 170.591 226.18C167.265 225.725 164.905 224.355 161.733 223.691C160.058 223.405 155.449 227.911 153.697 229.005C150.382 231.076 146.139 232.336 142.178 232.605C138.151 232.888 131.29 229.359 128.169 226.849C126.467 225.48 125.251 222.449 124.272 220.735C120.893 214.819 120.364 210.362 120.299 203.598C120.246 198.173 121.44 190.11 122.552 184.755C123.148 181.89 124.699 177.634 125.516 174.678C126.589 171.484 127.244 167.665 128.62 164.598C130.719 159.919 133.43 155.448 135.594 150.777C136.311 149.23 137.273 147.131 138.131 145.702C144.05 135.845 149.947 126.126 158.257 118.059C173.001 103.523 191.259 89.0785 211.924 84.7342C217.041 83.6585 220.967 85.8455 226.05 83.291C228.119 82.2517 236.919 82.2537 239.343 82.909C242.574 80.9837 244.227 81.6232 248.034 81.3675ZM264.078 92.3802C266.035 91.1317 267.805 91.5702 269.1 90.6097L269.095 90.304L268.68 90.2757C267.473 90.5395 264.205 91.0827 263.503 91.9832C263.81 92.378 263.615 92.2507 264.078 92.3802ZM351.833 172.763C353.823 172.125 355.788 171.59 357.46 170.304L357.488 170.074L357.298 169.995C355.265 170.852 352.17 171.41 351.57 172.827L351.833 172.763ZM276.828 94.2695C279.415 93.5835 282.365 94.1527 283.208 93.1615L282.918 93.1287C281.528 93.1552 277.958 93.0645 276.818 93.639L276.475 94.151L276.663 94.372L276.828 94.2695ZM240.964 108.504C240.365 109.104 238.579 110.724 238.431 111.392L238.585 111.493C239.677 110.701 240.649 110.059 241.121 108.773L240.964 108.504ZM354.888 152.132C353.988 152.263 353.22 152.284 352.478 152.791L352.318 153.287L352.6 153.729C353.178 153.344 354.995 152.404 355.09 152.1L354.888 152.132ZM224.941 95.4962C225.768 95.0165 226.589 94.5282 227.405 94.0312L227.379 93.762L226.796 93.6992C225.685 94.3202 225.378 94.413 224.56 95.3407L224.657 95.6535L224.941 95.4962ZM346.563 222.379C347.193 221.205 347.94 220.563 347.695 219.712C346.935 220.438 346.643 220.615 346.235 221.546C346.268 222.224 346.12 221.972 346.563 222.379ZM222.645 123.237C223.388 122.664 223.847 122.336 224.642 121.841L224.719 121.56L224.224 121.371C223.15 121.987 223.022 122.004 222.327 122.982L222.377 123.37L222.645 123.237ZM207.638 150.17C208.27 149.793 209.234 149.384 209.453 148.83C209.187 148.755 209.029 148.68 208.766 148.679C208.103 149.153 207.373 149.544 207.002 150.206C207.495 150.265 207.286 150.306 207.638 150.17ZM166.422 186.839C167.311 186.356 168.113 186.051 168.67 185.24L168.748 184.741C167.882 185.251 166.621 185.751 166.362 186.519L166.422 186.839ZM263.835 193.72C263.03 194.188 262.14 194.595 261.598 195.329L261.738 195.636L261.9 195.639C262.79 195.219 263.585 194.957 264.208 194.224L264.13 193.825L263.835 193.72ZM265.42 101.898C264.92 102.305 262.643 104.242 263.995 104.918L264.118 104.679C264.683 103.6 264.93 103.289 265.7 102.345C265.515 101.952 265.633 102.082 265.42 101.898ZM260.415 98.252C259.233 98.5895 258.055 98.9427 256.883 99.3117L257.193 99.574L258.053 99.4852C259.63 99.206 260.105 99.17 261.55 98.4517L261.588 98.2305C260.988 98.1412 260.993 98.1027 260.415 98.252ZM199.58 111.917C198.748 112.759 196.883 114.497 196.712 115.63C197.032 116.019 196.842 115.941 197.213 115.988C198.133 114.336 198.652 113.764 199.894 112.315L199.796 111.994L199.58 111.917ZM333.91 199.027C332.995 199.275 328.76 200.233 328.428 200.71C328.795 200.983 328.63 200.947 328.863 200.976C330.125 200.646 333.52 199.916 334.265 199.098L333.91 199.027ZM171.856 170.232C170.495 171.08 169.893 171.425 168.424 172.074C168.351 172.723 168.473 172.815 168.726 173.442C169.432 172.747 172.35 170.679 172.376 170.295L171.856 170.232ZM357.763 185.019C360.013 186.284 362.615 186.654 365.03 185.617C364.535 185.315 364.788 185.362 364.298 185.404C362.2 185.584 359.883 185.244 357.763 185.019Z" fill="#E88033"/>
<path d="M201.675 125.657C199.937 126.769 198.043 128.221 196.21 129.238C185.085 135.412 175.585 144.658 167.028 153.971C164.928 156.927 164.599 159.268 161.244 161.259C160.31 161.813 158.155 167.017 157.052 168.374C153.861 172.299 151.417 176.269 148.891 180.511C146.361 184.76 142.299 189.138 139.495 193.3C139.053 193.864 138.057 193.089 137.703 192.67C136.761 188.746 141.981 180.938 144.01 177.638C148.907 169.733 154.149 162.046 159.72 154.6C171.479 138.907 180.176 129.192 197.105 118.749C201.247 116.194 205.254 113.309 210.091 112.116C210.926 111.91 211.975 111.766 212.758 112.215C213.27 112.508 213.545 112.841 213.715 113.405C215.255 118.513 202.762 140.338 200.126 146.167C198.667 149.395 197.861 152.935 196.635 156.259C194.813 161.195 190.139 171.104 189.709 175.995C189.674 176.399 189.633 176.801 189.603 177.205L190.358 177.778C194.076 174.258 197.12 168.331 201.014 164.509C203.812 161.222 206.116 157.333 209.535 154.623C216.055 149.454 221.809 143.62 228.88 139.102C230.93 137.792 232.669 135.886 234.878 134.637C236.503 134.635 239.974 134.268 241.201 135.529C244.806 139.233 234.778 169.624 234.514 175.808L234.496 176.267L249.148 163.99C252.793 160.921 256.26 157.461 260.468 155.144C262.51 154.02 267.525 150.068 269.613 150.565C271.038 152.634 266.45 157.006 265.195 158.666C263.48 160.936 261.768 163.332 259.948 165.508C257.588 168.515 254.42 170.933 251.813 173.597C248.697 176.779 246.695 179.423 243.027 182.088C237.596 186.035 234.252 190.925 226.819 189.926C222.225 182.486 225.678 179.047 226.81 171.717C227.724 165.802 231.967 155.632 232.09 150.434C231.381 150.142 230.669 149.857 229.955 149.578C225.513 152.44 224.881 152.784 221.783 156.852L221.452 156.902C220.118 157.115 218.879 157.448 218.188 158.698C217.02 161.121 214.214 162.472 212.708 164.431C210.348 167.5 207.169 170.033 204.769 172.94C201.703 176.656 198.792 180.226 195.359 183.65C192.92 186.148 191.491 190.224 189.154 192.631C188.333 193.476 183.963 197.432 183.146 197.454C179.814 197.18 178.188 193.477 178.481 190.634C179.062 185.008 180.571 179.816 182.02 174.469C185.917 160.096 192.42 147.218 198.219 133.616C199.349 130.966 200.674 128.38 201.675 125.657Z" fill="#4B4746"/>
<path fill-rule="evenodd" clip-rule="evenodd" d="M128.154 295.612C133.625 294.25 133.786 303.74 136.147 307.473C138.256 310.805 139.702 314.432 142.111 317.675C146.346 325.25 149.181 331.157 156.111 336.982C159.118 339.907 164.009 342.035 166.95 344.745C169.742 347.555 174.859 350.788 177.531 353.365C182.6 358.25 186.245 359.665 192.958 360.853C200.757 362.235 206.164 366.37 200.008 373.747C199.147 374.78 196.807 378.617 194.72 378.715C192.274 378.039 187.945 380.913 186.311 380.146L186.161 380.06C182.558 379.952 181.892 380.317 178.356 379.697L177.609 379.56C175.891 379.42 174.729 380.042 173.067 380.255C172.312 379.832 170.376 378.78 169.811 378.572C169.009 378.277 161.49 377.025 161.257 377.4C158.479 381.858 156.541 386.78 152.5 390.638C148.46 394.493 142.674 392.918 138.458 395.897C135.137 399.86 132.274 411.315 127.766 414.28C126.828 414.345 124.041 414.59 123.369 414.353C117.673 412.34 112.534 408.637 107.822 404.965C105.909 403.547 103.896 402.67 102.111 401.03C99.4357 398.478 95.6853 395.09 95.1084 391.258C94.9209 390.013 96.4706 387.348 96.9873 386.143C99.0106 381.415 100.855 378.95 105.927 377.335C108.416 374.395 110.052 373.987 111.813 370.662C111.198 361.352 115.422 354.078 121.351 347.32C122.154 346.403 122.968 345.495 123.792 344.598C121.754 338.043 118.141 327.97 118.438 321.385C119.169 316.005 120.141 312.47 119.42 307.05C118.886 303.037 124.315 296.567 128.154 295.612ZM354.385 293.54C355.127 293.443 357.052 293.155 357.272 294.125C359.512 304.018 359.578 315.988 358.766 326.093C358.503 329.353 355.923 336.917 354.933 340.295C360.585 339.835 364.223 341.295 367.522 346.062C371.145 351.295 370.668 356.965 369.513 362.902C373.745 366.747 377.615 369.05 382.11 372.468C383.785 388.85 372.39 395.215 360.245 402.978C359.44 403.493 352.624 405.462 351.453 405.655C350.446 405.223 349.263 404.795 348.23 404.39C346.001 400.357 345.757 392.555 345.42 387.84C345.318 386.408 345.922 384.95 345.567 383.525L345.228 383.41C343.505 384.773 342.42 385.617 340.563 386.755C335.513 386.735 333.64 387.073 328.968 384.973L328.79 384.867C324.335 382.152 322.388 379.25 321.035 374.205C319.038 375.85 318.702 375.348 316.367 376.03C313.42 376.893 310.543 378.08 307.445 378.43C306.56 378.53 305.487 378.055 304.51 378.04L303.7 378.86C298.505 380.09 295.18 378.972 290.063 378.582C284.395 378.15 280.002 377.717 277.487 371.555C276.678 369.347 277.358 366.435 278.272 364.345C279.053 362.562 282.513 362.68 283.875 362.185C285.98 361.422 287.747 361.253 289.862 360.825C297.485 359.345 303.698 354.502 309.815 350.145C316.103 345.667 320.643 343.212 325.48 336.872C328.685 332.675 332.283 329.017 334.646 324.05C335.775 321.675 336.71 319.335 337.7 316.905C341.083 310.975 342.531 304.032 346.123 298.367C347.588 296.095 349.195 295.117 351.88 294.88C353.222 294.76 353.397 294.467 354.385 293.54ZM358.827 384.558H358.828H358.827ZM361.413 382.375H361.414H361.413ZM179.005 379.3H179.006H179.005ZM187.085 375.946C186.333 376.186 185.514 376.432 184.685 376.696C185.514 376.432 186.333 376.186 187.085 375.946ZM178.383 366.768H178.384H178.383ZM181.826 366.176C181.85 366.252 181.877 366.326 181.911 366.397C181.877 366.326 181.85 366.252 181.826 366.176ZM181.688 364.612H181.687H181.688ZM184.612 363.537H184.613H184.612ZM185.097 362.118C184.967 362.14 184.836 362.17 184.702 362.206L184.901 362.157C184.967 362.142 185.032 362.129 185.097 362.118ZM347.695 219.712C347.94 220.563 347.193 221.205 346.563 222.38C346.12 221.973 346.268 222.224 346.235 221.546C346.643 220.615 346.935 220.438 347.695 219.712ZM334.265 199.099C333.519 199.916 330.125 200.647 328.862 200.977C328.63 200.947 328.795 200.983 328.428 200.711C328.76 200.233 332.995 199.275 333.91 199.027L334.265 199.099ZM264.13 193.825L264.207 194.225C263.585 194.957 262.79 195.22 261.9 195.64L261.737 195.636L261.598 195.329C262.14 194.596 263.03 194.188 263.835 193.72L264.13 193.825ZM168.67 185.24C168.113 186.051 167.311 186.356 166.422 186.839L166.362 186.52C166.621 185.752 167.883 185.252 168.748 184.741L168.67 185.24ZM357.763 185.02C359.883 185.245 362.2 185.584 364.298 185.404C364.787 185.362 364.535 185.315 365.03 185.617C362.615 186.654 360.013 186.284 357.763 185.02ZM190.358 177.778C189.316 179.213 188.784 181.607 187.605 182.091L187.234 181.771C187.218 180.792 188.972 177.939 189.604 177.205L190.358 177.778ZM172.376 170.295C172.349 170.68 169.431 172.748 168.726 173.442C168.473 172.816 168.352 172.722 168.425 172.073C169.893 171.425 170.496 171.081 171.855 170.232L172.376 170.295ZM357.487 170.074L357.46 170.304C355.788 171.59 353.823 172.126 351.833 172.764L351.57 172.827C352.17 171.411 355.265 170.852 357.298 169.995L357.487 170.074ZM355.09 152.101C354.993 152.406 353.177 153.344 352.6 153.729L352.317 153.287L352.478 152.791C353.22 152.284 353.988 152.263 354.888 152.132L355.09 152.101ZM232.451 147.643C232.962 148.309 232.357 149.67 232.09 150.435C231.381 150.143 230.669 149.857 229.955 149.578C231.074 148.98 231.282 148.18 232.451 147.643ZM208.766 148.679C209.028 148.679 209.187 148.755 209.452 148.83C209.234 149.384 208.27 149.793 207.638 150.171C207.286 150.306 207.494 150.265 207.002 150.206C207.373 149.544 208.102 149.152 208.766 148.679ZM224.719 121.561L224.642 121.841C223.847 122.336 223.388 122.665 222.645 123.237L222.377 123.37L222.326 122.982C223.022 122.005 223.15 121.987 224.225 121.371L224.719 121.561ZM199.796 111.994L199.895 112.315C198.652 113.764 198.133 114.336 197.213 115.987C196.842 115.941 197.032 116.019 196.712 115.63C196.882 114.497 198.748 112.759 199.58 111.918L199.796 111.994ZM241.121 108.773C240.649 110.059 239.677 110.701 238.585 111.493L238.431 111.393C238.578 110.725 240.365 109.104 240.964 108.504L241.121 108.773ZM265.42 101.897C265.632 102.082 265.515 101.952 265.7 102.345C264.93 103.288 264.682 103.601 264.117 104.68L263.995 104.918C262.643 104.242 264.92 102.305 265.42 101.897ZM260.415 98.252C260.993 98.1027 260.988 98.1412 261.588 98.2305L261.55 98.4521C260.105 99.1702 259.63 99.2061 258.053 99.4854L257.192 99.5742L256.883 99.3115C258.055 98.9426 259.233 98.5894 260.415 98.252ZM227.379 93.7617L227.405 94.0312C226.589 94.5282 225.768 95.0164 224.941 95.4961L224.657 95.6533L224.561 95.3408C225.378 94.4131 225.685 94.3202 226.796 93.6992L227.379 93.7617ZM283.208 93.1611C282.366 94.1523 279.416 93.5837 276.828 94.2695L276.663 94.3721L276.476 94.1514L276.817 93.6387C277.957 93.0642 281.528 93.1554 282.918 93.1289L283.208 93.1611ZM269.095 90.3037L269.1 90.6094C267.805 91.5698 266.035 91.1314 264.077 92.3799C263.615 92.2506 263.81 92.3776 263.503 91.9834C264.206 91.083 267.472 90.5392 268.68 90.2754L269.095 90.3037Z" fill="#E88033"/>
</g>
<defs>
<clipPath id="clip0_64_2024">
<rect width="480" height="480" fill="white"/>
</clipPath>
</defs>
</svg>
