<svg width="480" height="480" viewBox="0 0 480 480" fill="none" xmlns="http://www.w3.org/2000/svg">
<g clip-path="url(#clip0_64_2259)">
<path fill-rule="evenodd" clip-rule="evenodd" d="M265.595 68.668C268.07 69.6501 271.913 68.7411 274.693 68.7334C279.938 68.7185 283.668 70.5579 288.55 71.9023C290.93 72.4306 293.432 72.7726 295.735 73.5791C296.465 73.8344 297.81 74.8266 298.488 75.2988C299.578 76.0593 300.033 76.3782 301.323 76.8135C313.413 72.9019 332.093 77.3106 343.79 82.0928C349.396 84.3835 358.76 91.6952 362.425 96.4756C363.583 97.9848 364.763 102.279 365.663 104.311L365.755 104.511C365.625 108.806 363.84 108.075 361.14 110.798L361.37 111.04C362.9 110.989 364.508 110.428 365.685 110.664C366.695 111.609 366.64 112.658 366.78 114.077C366.73 116.791 365.755 118.865 364.785 121.376C369.857 124.223 372.805 125.344 376.057 130.347C376.97 131.748 378.107 133.14 378.547 134.861C380.51 142.52 375.145 157.096 371.443 163.538C365.403 173.948 356.555 182.448 345.913 188.065C343.978 189.063 339.403 190.399 338.005 191.321C331.995 195.289 327.317 195.877 320.632 197.898C313.637 200.015 306.43 201.91 299.285 203.541C295.247 204.503 289.589 202.723 285.432 203.23C279.95 203.394 274.994 204.321 269.972 202.021L269.582 202.118C267.12 202.722 264.715 202.079 262.182 201.896C260.007 201.739 257.652 201.637 255.507 201.349C252.118 200.893 248.726 200.067 245.379 199.364C243.879 199.049 242.265 198.895 240.791 198.54C237.174 197.668 233.591 196.509 229.918 195.873C221.896 194.692 215.514 196.417 207.828 198.51C206.447 198.885 204.737 198.381 203.589 198.774C200.873 199.699 198.29 201.031 195.73 202.287C186.634 206.752 178.337 213.113 172.937 221.846C170.65 225.544 167.666 231.769 165.798 235.85C165.122 237.326 165.126 241.06 164.523 242.766C162.53 251.02 159.31 264.46 151.478 268.978C143.708 266.978 138.897 263.752 134.058 257.902C133.035 256.667 127.607 253.857 125.786 252.542C126.035 250.925 126.224 250.075 125.212 248.688C123.796 247.823 123.314 248.34 122.166 249.236C118.338 247.801 118.27 243.908 116.476 243.077C115.757 241.334 115.597 239.082 117.765 238.538L117.752 238.339C116.857 237.991 117.258 237.962 116.507 238.195C115.606 239.207 116.096 239.82 115.321 240.611C114.255 239.606 111.284 235.862 110.824 234.56C110.655 234.083 112.482 231.418 112.434 230.243C111.874 229.52 110.674 229.233 109.641 228.549L109.581 228.137C110.226 227.153 111.239 226.785 112.265 225.859C112.078 225.31 110.931 223.775 110.755 223.628C110.163 223.131 103.85 223.413 102.94 223.495L102.144 223.104C101.987 220.802 102.494 221.473 103.497 219.681L103.606 219.48C104.567 217.625 105.397 217.897 106.424 216.415C105.276 216.647 104.536 217.126 103.5 217.673C103.35 217.558 102.975 217.157 102.827 217.006C102.594 216.615 101.839 215.681 101.464 215.101C104.172 214.233 107.162 212.937 109.205 210.979C106.444 212.362 104.915 213.093 102.021 214.182C101.404 214.017 101.412 214.004 100.861 213.669L100.99 213.058L100.227 213.004C99.7628 212.547 99.3789 212.235 98.8833 211.819C99.7395 212.074 99.3355 212.104 100.138 211.745C100.717 210.987 100.689 211.011 100.982 210.092L100.745 209.854C99.1248 210.379 98.2978 211.538 96.6567 211.481C96.4756 211.294 95.9254 210.518 95.7368 210.266L96.0288 209.741C97.8322 209.108 99.6712 207.848 101.11 206.602L101.122 206.317C96.9388 207.185 98.4295 205.108 93.9985 206.479C89.6093 201.246 88.9701 189.845 90.5298 183.406C90.8848 181.94 91.0549 180.391 91.1694 178.884L91.1997 178.467C90.9657 177.966 90.425 177.149 90.1137 176.646C91.5615 171.253 93.4437 170.016 92.3559 165.007C92.1262 163.945 96.6312 152.022 97.4389 150.738C100.286 146.214 103.328 139.903 106.406 135.464L107.821 134.983C109.146 136.758 110.724 136.716 111.342 138.014C110.942 138.995 110.114 139.866 110.012 140.738L110.353 140.842C112.955 139.314 110.897 136.736 112.228 135.555C112.975 135.902 114.28 136.806 114.877 136.7C115.859 135.257 116.608 133.044 114.72 132.042C113.515 132.068 113.766 132.162 112.571 132.912C110.756 132.251 110.897 130.209 111.405 128.751C112.491 127.637 113.963 126.091 115.243 125.098C120.168 121.273 127.09 118.262 133.276 117.282C134.835 117.035 137.688 117.636 139.39 117.565C141.599 117.474 143.838 116.961 146.016 117.055C148.882 117.178 155.268 117.973 157.817 117.683C163.272 117.061 169.928 115.472 175.14 113.735C176.807 113.18 179.185 111.83 180.666 111.372C186.238 109.651 190.95 108.329 195.896 105.061C198.287 103.481 200.057 101.796 202.298 100.104C205.435 97.7374 208.513 95.5524 211.566 93.04C214.14 90.922 216.798 88.1099 219.238 86.1279C224.211 82.0877 232.429 76.6275 238.225 74.0664C243.26 71.8737 248.581 70.409 254.03 69.7178C258.887 69.1433 259.398 69.8349 264.55 68.2432C264.883 68.3839 265.263 68.5365 265.595 68.668ZM151.535 260.103C150.638 258.933 149.98 259.208 148.551 259.218C146.702 260.148 146.055 260.517 144.407 261.747C145.491 261.48 146.382 261.062 147.317 261.332C148.727 261.722 151.443 262.402 151.535 260.103ZM128.51 244.553C127.665 244.882 127.053 244.966 126.525 245.591C127.349 245.88 128.034 245.826 128.909 245.843C129.104 246.435 129.08 246.447 129.094 247.078L129.544 247.373C129.92 246.785 130.277 246.206 130.691 245.645L130.487 245.298L130.869 245.366C130.909 245.402 128.524 244.592 128.51 244.553ZM132.002 240.532C131.456 240.382 131.663 240.389 131.101 240.469C130.303 241.05 129.163 241.41 128.689 241.81L128.928 241.751C129.948 242.442 130.937 243.03 131.595 244.057L132.117 243.786C132.199 242.499 130.717 242.66 130.621 241.441C131.197 240.993 131.388 240.884 132.002 240.532ZM143.073 239.405C142.148 239.137 141.495 239.264 140.525 239.337L140.258 239.77C140.844 240.086 142.161 239.793 142.897 239.7L143.073 239.405ZM145.872 233.781C144.849 234.208 144.604 234.596 143.812 235.422C143.661 236.264 143.863 236.315 143.528 237.245C143.89 238.288 143.607 237.844 144.447 238.605L145.032 238.688C145.618 238.164 145.439 238.489 145.514 237.644C144.568 236.631 144.645 237.001 144.409 235.821C145.093 235.132 145.361 234.85 145.936 234.075L145.872 233.781ZM126.866 233.192C125.713 233.784 123.369 234.724 122.988 235.857L123.34 235.91L123.624 235.727C124.699 235.037 127.132 234.016 127.486 233.438C127.177 233.279 127.193 233.243 126.866 233.192ZM117.954 231.182C117.234 231.885 116.195 233.055 117.439 233.944L117.702 233.86C118.267 232.791 117.241 233.587 118.198 231.444L117.954 231.182ZM151.88 233.619C150.679 232.915 149.727 232.686 148.344 232.819C149.735 233.582 150.323 233.87 151.88 233.619ZM128.339 228.277C127.722 228.137 127.15 227.839 126.624 228.309C125.875 228.976 124.529 229.613 124.424 230.695L124.717 230.87C126.426 229.868 126.209 229.153 128.389 229.111C129.489 229.505 129.832 229.528 131.004 229.654L130.895 229.092L131.509 229.409L131.502 229.325C130.529 228.617 129.537 228.529 128.339 228.277ZM160.778 227.762C159.811 228.504 159.552 228.667 158.37 228.958L158.415 229.088C158.961 228.954 159.266 228.867 159.828 228.809C160.006 229.281 160.011 229.093 159.982 229.35L160.024 230.293L160.394 230.483C161.572 230.081 162.145 229.572 161.691 228.294C161.296 228.033 161.21 227.948 160.778 227.762ZM142.434 227.226C141.632 227.585 140.2 228.264 139.901 229.137L140.087 229.266C140.817 228.862 142.207 228.207 142.655 227.596L142.434 227.226ZM119.44 227.041C116.73 228.095 115.831 226.731 113.779 228.232L113.68 228.571C114.745 228.894 114.877 227.803 116.549 227.941C117.732 228.859 121.383 228.935 122.354 227.74C121.655 227.066 120.424 226.957 119.44 227.041ZM164.75 221.211L164.448 221.581C163.971 221.92 163.117 222.492 162.714 222.856C161.808 223.631 161.374 222.189 159.214 224.369C160.087 224.119 161.344 223.625 162.139 223.929L162.36 224.489C162.112 226.009 161.636 225.638 161.094 226.885L161.26 227.194C163.773 227.141 163.548 224.916 164.239 223.185C164.309 223.015 166.511 222.467 167.072 221.419L166.648 220.948L164.75 221.211ZM145.926 224.31C144.991 224.11 141.736 224.311 140.615 224.376C141.343 225.169 144.715 225.155 145.93 224.686L145.926 224.31ZM118.548 223.425C117.902 223.746 117.303 223.961 116.842 224.5C117.33 224.674 117.089 224.667 117.565 224.547C118.168 224.285 119.044 224.036 119.331 223.574L118.548 223.425ZM144.492 217.445C143.029 217.168 141.144 218.809 140.249 219.868C139.526 220.228 138.678 220.525 138.3 221.19C139.135 221.328 139.958 220.91 140.71 220.507C140.833 220.364 140.957 220.222 141.082 220.082C141.716 219.377 142.108 218.891 142.976 218.843C143.122 219.459 143.182 219.692 143.409 220.279C144.113 219.827 145.094 218.347 144.492 217.445ZM119.711 213.502C119.982 213.928 120.065 213.983 120.517 214.206L120.729 214.749C119.555 215.47 117.287 217.089 117.017 218.493C117.437 218.411 117.292 218.497 117.5 218.338C119.11 216.784 120.102 215.808 121.941 214.516C121.52 213.764 121.154 214.09 120.261 213.283L119.711 213.502ZM136.543 215.162C135.838 215.841 135.464 215.934 135.372 216.683L135.649 216.791L136.868 215.698L136.87 215.298L136.543 215.162ZM113.965 212.993C113.17 213.423 112.546 213.653 112.026 214.38L112.18 214.72L112.433 214.777L112.583 214.637C113.222 214.05 113.496 213.859 114.223 213.394L114.284 213.095L113.965 212.993ZM113.296 211.068C112.09 211.105 111.546 211.536 110.808 212.434C110.066 213.175 109.183 213.799 108.968 214.698C109.829 214.574 111.157 213.397 111.518 212.685C112.291 212.23 112.645 212.053 113.305 211.462L113.296 211.068ZM146.367 202.16C144.543 202.136 143.296 201.864 141.983 203.122C140.461 203.316 137.533 205.723 135.729 206.677C134.508 206.378 133.821 206.014 132.711 205.476C131.373 205.514 130.92 205.478 129.642 205.938L129.367 206.256L129.675 206.367C130.719 206.392 131.641 206.27 132.459 206.831L132.556 207.299C131.722 208.378 130.788 208.629 130.823 209.298C132.979 209.64 132.756 209.021 134.29 207.917C136.452 207.692 140.399 204.599 141.983 203.122C141.942 203.122 146.218 202.696 146.124 202.717L146.367 202.16ZM146.12 208.343C147.538 208.905 148.75 208.89 150.176 208.348L150.072 207.861C148.509 207.934 147.621 208.105 146.093 207.819L146.12 208.343ZM143.032 205.979C141.207 206.573 139.393 206.869 137.859 208.237L137.892 208.46C139.214 208.465 139.236 208.462 140.45 207.953C142.545 207.141 142.417 207.275 144.485 207.552L144.397 206.946C143.934 206.608 143.509 206.3 143.032 205.979ZM179.229 199.289C177.335 199.898 176.399 200.909 175.4 202.535C174.893 203.613 173.897 205.866 173.303 206.768C173.068 207.177 172.863 207.606 172.65 208.028L172.797 208.217C174.056 207.794 174.09 208.237 175.221 208.074C175.8 207.558 176.242 206.224 176.564 205.446C177.259 205.742 177.947 206.053 178.628 206.38C178.402 205.404 177.794 204.451 177.772 203.319C177.757 202.548 176.917 203.267 176.418 202.356C177.444 201.468 178.588 200.556 179.41 199.488L179.229 199.289ZM119.674 200.274C117.719 200.576 116.56 200.599 115.498 202.355C114.185 204.527 113.251 205.662 111.418 207.402L111.527 207.577L112.165 207.313C115.807 205.016 114.472 203.278 117.538 201.539C117.654 201.474 118.891 201.7 119.165 201.753C119.998 201.418 119.959 201.386 120.49 200.706L120.347 200.348L119.674 200.274ZM167.814 202.556C166.925 202.594 166.311 203.168 165.567 203.693C164.433 204.014 163.31 205.122 163.383 206.351L163.718 206.334C164.56 205.366 164.762 204.793 165.831 204.396C166.688 204.027 167.232 203.523 167.845 202.843L167.814 202.556ZM153.322 203.024C152.119 202.415 148.685 202.895 147.769 203.787C145.764 206.022 145.683 203.478 143.962 204.782L143.781 205.634L144.036 205.76C145.3 204.949 145.347 204.987 146.819 205.528C147.462 205.386 147.847 204.86 148.188 204.317C150.057 203.128 151.412 203.46 153.438 203.445L153.322 203.024ZM120.173 204.158C119.588 203.452 118.196 202.744 117.436 203.539C118.085 204.213 118.144 204.016 119.305 204.217C121.464 205.27 121.408 205.438 123.702 204.825C124.785 204.848 125.04 204.81 126.12 204.629L126.195 204.401C125.255 204.012 123.463 204.012 122.559 204.416C121.381 204.704 121.166 204.894 120.173 204.158ZM173.197 203.261C171.978 203.144 168.465 203.541 167.777 204.624L168.116 205.062C170.211 204.168 171.197 203.843 173.369 203.328L173.197 203.261ZM140.819 198.903C139.757 198.648 136.58 200.156 135.472 200.665C134.136 201.333 130.914 201.836 130.591 202.181C132.209 203.039 134.42 201.833 135.992 201.12C137.189 200.784 140.095 199.879 140.819 198.903ZM296.05 200.291C295.215 200.796 295.17 200.867 294.585 201.65L294.545 201.979C295.758 201.917 297.508 201.03 298.64 200.573C299.035 200.737 299.373 200.877 299.653 200.993C300.595 201.247 302.69 200.871 303.068 199.981C302.103 199.347 300.46 200.137 297.823 199.225L296.05 200.291ZM153.118 201.551L153.31 201.893C154.255 200.937 154.863 200.08 155.23 198.778L154.898 198.385L153.118 201.551ZM97.4936 199.721C96.3776 199.95 96.0874 199.902 94.9497 199.73L94.3881 200.181C94.7134 201.301 96.8092 201.543 97.8003 201.407C99.2505 201.194 100.661 201.135 102.123 201.05C100.746 200.769 98.5089 200.492 97.4936 199.721ZM172.053 200.48L172.083 200.624L172.438 200.606C173.69 200.739 174.358 200.89 175.596 200.623L175.715 200.386C175.461 200.255 175.256 200.12 174.991 200.053L172.053 200.48ZM168.37 198.437C168.008 198.198 166.855 198.255 166.448 198.329C165.046 198.6 162.667 199.221 161.493 200.013C161.973 200.318 162.303 200.09 163.064 199.944C164.213 199.63 167.412 198.837 168.37 198.437ZM148.335 197.27C147.037 197.477 144.372 198.553 143.462 199.405L143.708 199.617L144.065 199.559C145.738 198.941 147.393 198.203 149.058 197.531C148.672 197.23 148.904 197.338 148.335 197.27ZM174.085 196.39C173.476 196.756 172.704 197.133 172.283 197.674C172.757 197.854 172.501 197.835 173.054 197.658C173.592 197.437 174.872 197.023 175.119 196.643C174.612 196.394 174.64 196.367 174.085 196.39ZM287.365 193.616C286.142 194.188 281.945 195.807 281.443 196.703C282.328 197.027 282.845 196.661 283.545 196.131L284.712 196.033C284.955 196.579 284.845 196.371 284.755 197.116C285.265 197.31 285.078 197.243 285.688 197.171L285.877 197.404C286.387 196.532 287.227 194.712 287.74 194.139L287.365 193.616ZM257.682 195.011C257.29 195.765 256.92 196.406 257.137 197.218C258.132 197.506 258.355 196.64 259.98 196.981C260.787 196.666 260.421 196.907 261 196.082L260.943 195.577C259.643 194.966 259.167 195.505 257.682 195.011ZM185.537 192.96C183.844 192.743 182.151 193.335 180.648 194.094C179.35 195.097 178.175 194.056 176.893 195.133L176.707 195.698C177.922 195.786 180.188 195.579 181.241 194.923L181.52 194.99C182.211 195.161 182.589 195.167 183.057 195.683C183.167 196.44 183.045 196.596 183.478 197.009C184.496 196.515 185.284 196.074 186.259 195.514L186.35 195.047C186.489 194.649 186.808 194.149 187.017 193.681C186.509 193.409 186.058 193.202 185.537 192.96ZM126.706 192.731C125.638 192.695 124.765 193.238 123.76 193.699C121.581 193.09 115.81 194.666 115.082 196.604C117.283 196.945 120.057 192.821 123.592 194.314C124.801 193.955 125.636 193.803 126.664 193.07L126.706 192.731ZM314.052 193.736C313.23 193.236 312.862 193.166 311.865 193.292C310.245 193.876 309.617 194.01 308.325 195.152L308.14 195.594C308.64 196.077 308.343 195.882 309.21 195.958L309.813 195.69C311.708 195.626 312.788 195.835 314.113 194.527C314.293 194.025 314.272 194.284 314.052 193.736ZM105.748 193.759C104.237 194.21 102.492 192.708 101.354 192.988C100.695 193.37 99.1845 194.183 98.6958 194.657C100.553 194.273 101.75 193.555 103.609 194.056C104.607 194.67 106.005 194.91 106.718 193.771C106.297 193.607 106.184 193.628 105.748 193.759ZM326.297 187.809C325.167 188.273 322.128 189.526 321.488 190.45L321.642 190.811L322.47 191.127C321.915 192.423 320.627 192.935 320.245 194.115L320.408 194.434C320.818 194.233 320.83 194.27 321.16 193.978C322.147 193.105 323.118 192.257 324.065 191.34C323.463 190.465 322.915 191.264 322.86 190.455C324.142 189.567 328.042 189.425 328.417 188.402C327.525 187.88 327.362 187.918 326.297 187.809ZM141.61 192.597C143.066 193.059 144.732 193.442 146.096 194.02C145.425 192.985 142.701 192.107 141.484 192.021L141.61 192.597ZM156.502 188.999C156.273 189.521 156.059 190.016 155.802 190.527C155.512 189.432 155.762 189.76 154.957 189.121C153.907 188.881 152.625 188.865 151.569 189.046L151.827 189.698C152.628 189.901 153.539 190.002 154.014 190.616C154.234 191.57 154.267 191.544 154.111 192.488C153.576 192.871 153.121 193.174 152.566 193.529L152.623 193.816C153.5 194.077 155.162 193.898 155.451 192.867C156.284 191.786 157.874 190.213 156.878 188.902L156.502 188.999ZM248.046 191.322C246.272 191.698 243.228 191.95 242.364 193.244L242.411 193.703C242.838 193.778 242.737 193.837 243.07 193.724C245.733 192.306 248.366 193.229 249.008 191.796L248.831 191.358C248.562 191.334 248.298 191.284 248.046 191.322ZM141.389 190.25C140.123 190.85 139.729 190.787 139.027 191.84C138.993 192.516 138.997 192.924 138.831 193.592C140.127 193.03 140.477 191.932 141.446 190.601L141.389 190.25ZM176.63 191.828C175.886 191.658 174.796 191.298 174.14 191.472L173.957 191.854C175.024 192.254 175.663 192.567 176.811 192.482L176.63 191.828ZM116.021 190.363C116.029 191.593 116.354 191.761 117.451 192.479L117.694 192.448L117.83 192.024C117.262 191.276 116.866 190.824 116.021 190.363ZM117.997 186.379C115.752 187.391 115.249 187.118 113.498 187.635C112.979 187.788 109.041 190.532 108.212 191.084L108.126 191.58L108.644 191.92C111.651 191.765 111.038 190.644 112.722 188.718C113.507 187.82 118.722 188.291 118.819 186.769L118.36 186.212L117.997 186.379ZM135.505 187.778C134.29 189.255 132.388 189.042 130.667 191.408L130.72 191.767L131.497 191.626L132.357 191.001C134.273 191.358 135.425 190.023 135.737 188.246L135.505 187.778ZM278.005 189.874C277.085 189.421 274.435 188.98 273.507 189.321C271.715 190.432 269.362 190.054 268.645 190.445C269.127 190.796 269 190.795 269.273 191.325C270.823 191.427 271.128 190.681 273.563 190.856C274.57 190.904 274.698 190.981 275.528 191.561C276.458 191.294 276.331 190.478 278.005 189.874ZM168.785 189.21C167.904 189.656 167.365 189.803 166.849 190.591C167.484 190.68 167.159 190.696 167.827 190.316L168.04 190.224C168.938 189.838 169.336 189.724 170.282 189.488C169.78 189.183 169.377 189.233 168.785 189.21ZM250.175 186.256C249.126 186.46 248.378 187.182 247.496 187.846C245.309 188.516 244.934 188.767 243.138 190.339L243.24 190.488C244.627 190.076 246.47 189.118 247.815 188.438C248.694 187.916 249.497 187.275 250.203 186.534L250.175 186.256ZM163.356 187.754C161.179 188.878 158.802 188.468 158.364 189.195L158.617 189.653C160.546 189.518 161.723 189.428 163.411 188.318L163.591 187.892L163.356 187.754ZM147.323 187.655C146.782 187.353 146.462 187.469 145.826 187.526C145.091 187.897 144.149 188.298 143.591 188.86C144.225 188.996 143.902 188.97 144.606 188.722C145.434 188.465 146.687 188.171 147.323 187.655ZM253.082 186.417C252.41 186.939 251.343 187.601 251.095 188.347C251.393 188.65 251.32 188.646 251.682 188.82C252.565 188.143 252.867 187.995 253.45 187.085L253.462 186.611L253.082 186.417ZM178.329 187.669C177.536 187.83 177.007 187.92 176.237 188.2L176.315 188.521L176.637 188.713C177.678 188.598 177.623 188.617 178.481 188.015L178.473 187.716L178.329 187.669ZM285.89 186.559C285.19 186.165 284.442 186.266 283.615 186.326L283.245 186.773C283.835 187.068 284.715 186.762 285.5 186.626L285.89 186.559ZM273.547 185.339C271.82 185.731 269.888 185.821 268.408 186.321L268.31 186.636L268.515 186.851C270.215 186.402 272.35 186.651 273.682 185.633L273.547 185.339ZM327.115 183.195C326.01 183.793 325.305 184.066 324.485 185.02L324.313 185.643C324.745 186.239 324.47 186.051 325.132 186.269C326.64 185.426 326.973 185.145 327.648 183.558C327.51 183.459 327.255 183.257 327.115 183.195ZM301.945 181.204C299.59 183.309 299.605 183.843 296.655 185.473L296.717 185.818L296.84 185.895C298.38 185.125 301.68 183.242 302.16 181.465L301.945 181.204ZM176.835 183.503C175.56 184.04 174.523 184.293 173.391 184.995C173.84 185.197 174.704 184.835 175.211 184.655L175.543 185.612C176.522 185.449 176.867 184.539 177.334 183.732L177.123 183.491L176.835 183.503ZM321.877 184.188C321.25 184.503 320.382 184.8 320.07 185.308C320.342 185.399 320.525 185.499 320.788 185.498C321.718 185.236 322.098 185.299 322.675 184.716C322.29 184.285 322.45 184.401 321.877 184.188ZM262.415 183.538C261.746 183.869 260.745 184.198 260.49 184.742L260.898 184.985L262.86 183.814L262.853 183.548L262.415 183.538ZM334.8 182.834C336.495 183.558 336.72 183.249 338.632 184.349L341.71 183.55L342.59 182.522L342.517 182.324C339.832 182.258 337.344 181.942 334.642 181.942L334.8 182.834ZM114.49 181.65C114.469 183.628 116.149 184.159 117.803 183.338C118.52 182.773 118.556 182.731 119.135 182.021L119.077 181.648C118.31 181.858 118.075 182.35 117.581 183.002C116.729 183.168 116.347 183.351 115.534 182.949C115.06 182.242 115.229 182.316 115.238 181.275L114.914 181.237L114.49 181.65ZM147.373 181.074C146.331 180.979 145.94 181.51 145.084 182.215L144.333 183.646C145.532 183.125 146.929 182.372 147.373 181.074ZM204.569 178.696C205.776 179.268 206.742 179.512 207.31 180.638C206.373 181.843 203.256 181.412 201.577 182.23L201.745 182.509L202.528 182.606C204.812 182.197 206.599 181.94 208.526 180.562L208.742 180.062C207.968 178.921 205.84 178.622 204.569 178.696ZM229.503 178.866C228.659 179.732 227.796 180.581 226.915 181.41C227.205 181.783 227.021 181.665 227.455 181.783C228.098 181.167 229.987 179.661 230.043 179.151L229.503 178.866ZM338 179.486C337.11 179.919 335.468 180.383 335.193 180.882L335.347 180.97C336.58 180.868 336.875 180.913 337.96 180.398L338.26 179.983C338.205 179.871 338.073 179.564 338 179.486ZM151.743 172.773C150.374 173.778 150.017 174.085 148.329 174.475C147.484 175.665 147.134 176.917 146.773 178.306L147.285 178.331C148.617 178.205 151.331 178.097 152.41 177.524L152.441 177.125L151.746 176.703C151.341 176.045 150.587 175.021 150.542 174.309L150.655 174.201C151.289 174.044 152.749 174.454 153.468 174.608C154.125 174.196 154.131 174.083 154.643 173.488L154.509 173.364C153.908 173.748 153.749 173.972 153.103 174.021C152.674 173.193 152.638 172.8 151.743 172.773ZM326.105 175.875C325.208 176.167 324.01 176.371 323.5 176.983C323.72 177.332 323.653 177.347 323.96 177.524C325.153 177.036 325.395 176.988 326.373 176.197L326.425 175.833L326.105 175.875ZM201.064 175.706C200.36 176.028 199.008 176.527 198.604 177.09C199.047 177.231 198.93 177.216 199.077 177.219C199.87 176.867 200.885 176.544 201.374 175.877L201.064 175.706ZM190.605 174.733C189.305 175.167 188.228 175.458 187.073 176.221L186.925 176.612L187.454 176.826C188.47 176.336 190.308 175.569 191.059 174.841L190.605 174.733ZM99.8618 173.164C98.479 174.801 97.2867 175.328 95.4594 176.437L95.478 176.625C96.5656 176.34 96.8002 176.118 97.6714 175.827C99.0229 175.179 100.816 175.185 102.307 175.173C101.713 174.728 100.878 174.454 100.175 174.177C100.276 173.883 100.343 173.595 100.411 173.292L100.063 172.921L99.8618 173.164ZM275.38 174.219C274.373 174.82 274.18 174.937 273.375 175.784L273.295 176.32L273.467 176.509C274.017 176.007 275.417 174.921 275.557 174.36L275.38 174.219ZM172.786 174.454C172.153 174.865 171.414 175.243 171.015 175.851C171.445 175.862 171.273 175.918 171.552 175.765C172.202 175.534 173.173 175.297 173.554 174.796C173.136 174.391 173.375 174.53 172.786 174.454ZM135.031 172.1C133.634 170.517 132.127 171.582 131.101 172.955C130.489 173.638 130.512 173.594 130.267 174.478C129.965 174.691 129.699 174.921 129.413 175.155L129.422 175.474C130.436 175.404 131.411 174.815 132.215 174.226C133.387 173.872 133.38 173.576 134.007 172.636L134.709 172.531L135.031 172.1ZM301.552 174.412C300.943 174.107 300.87 174.195 300.165 174.266C299.401 174.468 298.753 174.532 298.225 175.087C298.898 175.278 299.253 175.097 299.93 174.903C300.902 174.774 300.908 174.93 301.552 174.412ZM353.773 174.039C353.098 173.938 353.262 173.931 352.587 173.985L351.552 174.457L351.495 174.694C352.2 174.848 352.398 174.88 353.118 174.925L353.792 174.307L353.773 174.039ZM180.961 170.444C179.483 171.33 176.525 172.095 174.794 172.418L174.877 172.834C175.819 173.46 176.618 173.528 177.73 173.762C178.598 173.496 178.22 173.717 178.875 173.021C181.379 171.798 182.404 173.295 184.475 171.713L184.572 171.34C183.676 170.685 181.933 171.421 180.961 170.444ZM338.17 172.839L336.653 173.354L336.66 173.64L336.988 173.758C337.85 173.574 338.067 173.59 338.74 173L338.557 172.8L338.17 172.839ZM311.457 172.66C310.755 172.338 311.13 172.434 310.265 172.495C309.463 172.8 308.698 172.998 308.108 173.604C308.62 173.689 308.583 173.692 309.052 173.476C309.86 173.281 310.81 173.135 311.457 172.66ZM117.685 169.92C117.106 169.61 116.717 169.756 115.948 169.778C114.977 170.664 112.52 171.986 112.396 173.187L112.917 173.163L113.456 172.547L113.675 172.324C115.15 170.849 115.769 170.764 117.685 169.92ZM320.365 171.865C319.432 172.066 318.495 172.245 317.555 172.403L317.413 172.704L317.722 172.866C319.032 172.756 319.265 172.801 320.413 172.25L320.62 171.869L320.365 171.865ZM155.254 169.99C155.579 171.628 157.091 171.349 158.714 171.634C158.208 170.169 156.738 170.192 155.254 169.99ZM324.53 168.004C323.635 168.706 322.865 169.198 322.24 170.141L322.305 170.582L322.457 170.693C323.275 169.965 323.917 169.361 324.682 168.577C324.657 168.082 324.757 168.253 324.53 168.004ZM216.808 166.146C214.815 167.636 213.386 168.628 211.281 169.969L211.409 170.18L211.808 170.08C213.686 169.509 215.89 167.725 217.412 166.44L217.37 166.218L216.808 166.146ZM272.068 168.261C271.213 168.924 270.868 168.946 270.578 169.784L270.813 170.056C271.543 169.527 271.81 169.41 272.255 168.613L272.068 168.261ZM185.666 168.771C185.754 168.767 185.841 168.759 185.928 168.751L185.834 168.505L185.666 168.771ZM193.631 165.533C192.081 165.763 191.215 166.356 189.809 167.065L186.206 168.313L186.141 168.728C187.44 168.57 188.682 168.081 189.921 167.625C191.332 167.05 191.746 166.855 193.063 166.049L193.214 165.74L193.549 165.646L193.631 165.533ZM344.533 165.893C341.845 167.494 339.765 166.326 338.233 167.06L338.62 167.442C340.905 167.75 342.653 167.831 344.59 166.398L344.63 165.972L344.533 165.893ZM162.3 164.929C161.596 165.511 159.778 166.771 159.708 167.396L159.929 167.473C161.203 166.982 162.122 166.655 162.679 165.324C162.429 164.934 162.587 165.023 162.3 164.929ZM184.963 166.43C184.265 166.118 182.578 166.276 181.805 166.37L181.674 166.819C182.925 166.98 183.527 166.779 184.726 166.729L184.963 166.43ZM277.667 165.3C276.925 164.926 275.95 165.235 275.038 165.38C274.133 165.643 274.112 165.487 273.615 166.079C274.54 166.359 274.568 166.142 275.698 165.809C276.76 165.733 276.718 165.759 277.667 165.3ZM234.023 163.923C233.25 164.336 232.312 164.707 231.896 165.426L232.199 165.75C232.846 165.322 234.009 164.684 234.337 164.051L234.023 163.923ZM301.972 159.647C301.132 160.997 299.827 163.042 299.73 164.636L299.915 164.928L300.095 164.865C300.803 162.588 302.325 161.451 302.695 159.925C302.223 159.629 302.467 159.71 301.972 159.647ZM331.467 162.256C328.52 163.819 327.975 164.324 324.743 164.392L324.645 164.746C327.125 164.728 329.415 164.62 331.325 162.807L331.467 162.256ZM355.975 160.452C353.683 161.948 350.015 162.199 348.703 163.254C348.733 163.67 348.65 163.539 348.788 163.712C351.073 162.621 354.778 162.29 356.17 160.902C356.118 160.52 356.205 160.657 355.975 160.452ZM179.141 160.657C178.388 160.687 177.948 161.214 177.206 161.517L176.786 161.685C175.849 162.344 175.748 162.167 175.527 163.008C176.39 163.436 176.855 162.891 177.478 162.327C178.274 161.711 178.668 161.511 179.141 160.657ZM225.881 160.172C224.996 160.726 222.96 161.899 222.356 162.618C222.727 162.985 222.504 162.874 223.028 162.944C223.777 162.254 226.085 160.884 226.403 160.388C225.996 160.143 226.183 160.17 225.881 160.172ZM261.252 159.5C260.425 159.405 258.517 160.675 257.455 161.103L257.033 161.27L256.108 161.37L255.905 161.922L255.275 161.688L255.413 161.935C256.485 162.208 256.87 161.909 257.788 162.487L257.98 162.626C258.895 162.71 258.898 162.695 259.813 162.525C260.738 161.873 261.917 160.693 261.252 159.5ZM177.843 157.387C175.995 158.244 174.591 159.824 173.508 161.508C173.771 161.952 173.592 161.795 174.024 162.001C175.582 160.219 176.429 158.967 178.506 157.73L178.404 157.493L177.843 157.387ZM132.216 158.229C131.376 158.822 129.104 160.044 128.847 160.587L129.075 160.836C130.33 160.331 131.524 159.722 132.391 158.655C132.339 158.511 132.32 158.342 132.216 158.229ZM208.617 156.449C207.445 157.239 207.102 157.411 206.308 158.612L206.668 159.204C205.664 160.048 205.05 159.291 204.002 160.258L203.91 160.62L204.329 160.729C205.537 160.511 206.154 160.489 207.208 159.847L207.447 159.473C207.131 158.379 207.042 158.841 207.503 158.004L209.312 156.849L209.249 156.556L208.617 156.449ZM287.085 158.236C286.395 158.601 285.182 159.057 284.94 159.621L285.297 159.771C286.092 159.39 286.933 159.119 287.46 158.495C287.338 158.403 287.23 158.276 287.085 158.236ZM363.595 157.458C363.025 158.039 362.438 158.462 362.332 159.222L362.585 159.554C363.133 158.977 363.727 158.521 363.847 157.779L363.595 157.458ZM188.999 156.256C187.941 156.6 187.904 156.431 187.265 157.138C187.984 157.398 188.063 157.194 188.978 156.928C189.643 156.831 190.695 156.796 191.125 156.436C190.339 156.333 189.803 156.247 188.999 156.256ZM336.955 155.197C336.117 155.619 335.42 155.981 334.613 156.452L334.715 156.719L335.105 156.766C336.062 156.284 336.572 156.061 337.582 155.706L337.655 155.396C337.48 155.343 337.119 155.218 336.955 155.197ZM154.474 154.222C153.725 154.61 153.153 154.919 152.435 155.36C152.469 155.803 152.389 155.631 152.595 155.905C153.465 155.455 154.104 155.223 154.724 154.485L154.582 154.235L154.474 154.222ZM266.095 153.563C264.413 153.478 261.293 153.133 259.965 154.006L259.873 154.499C260.153 154.83 261.173 155.087 261.908 155.636C262.963 155.487 263.15 154.796 264.288 154.54C265.383 154.518 265.943 154.305 266.707 153.602L266.528 153.333L266.095 153.563ZM291.443 153.169C290.568 153.869 288.382 154.871 288.137 155.15L288.35 155.616C289.915 155.432 290.803 154.78 291.84 153.6C291.52 153.205 291.678 153.321 291.443 153.169ZM368.405 152.5C367.257 153.426 365.765 153.946 365.22 155.134L365.365 155.485L365.868 155.546C366.723 154.947 368.97 153.553 369.465 152.911C369.08 152.519 369.103 152.548 368.585 152.352L368.405 152.5ZM355.733 152.195C355.663 153.098 355.605 153.428 355.733 154.311L356.068 154.577L356.983 154.188L357.3 153.582C357.085 153.393 355.876 152.291 355.733 152.195ZM330.097 152.217C330.8 153.036 331.003 153.187 331.885 153.82L332.165 153.562L332.13 153.133C331.345 152.476 331.167 152.351 330.097 152.217ZM319.145 146.686C317.47 148.039 315.705 149.751 315.265 151.956L315.485 152.433C315.977 152.219 315.833 152.296 316.297 151.937C316.94 151.751 319.092 150.971 319.395 150.498C318.165 150.247 318.24 150.298 317.06 150.819L316.552 150.452C317.287 149.135 318.248 147.904 319.145 146.686ZM333.955 150.442C333.37 149.738 332.335 149.795 331.51 149.888C330.125 150.442 328.467 150.749 327.507 151.335C329.695 151.557 330.623 150.554 332.415 150.438C333.142 150.61 333.383 150.708 333.955 150.442ZM271.012 149.199C270.048 149.544 269.788 149.556 269.113 150.271L269.323 150.417L269.908 150.224L271.913 149.659L272.02 149.413C271.71 149.342 271.32 149.236 271.012 149.199ZM300.853 147.399C300.073 147.744 299.768 147.692 299.493 148.274C300.495 148.373 300.582 148.333 301.587 148.114L301.805 148.255C302.665 148.831 302.235 148.768 303.078 148.701C302.952 147.753 301.67 147.52 300.853 147.399ZM311.86 144.426C310.917 145.347 309.217 146.899 308.905 148.148L309.193 148.093C310.243 147.04 311.3 145.992 312.363 144.95L312.332 144.571L311.86 144.426ZM172.523 144.163C171.102 144.033 171.205 146.473 167.79 146.468C167.084 146.905 166.878 146.857 166.606 147.479C167.604 147.44 168.02 147.358 169.011 147.168C170.274 147.056 172.389 145.481 172.523 144.163ZM115.06 143.609C114.355 143.952 113.855 144.021 113.566 144.572C113.743 144.651 113.997 144.781 114.173 144.822C114.885 144.32 115.122 144.304 115.461 143.594L115.06 143.609ZM231.098 142.237C230.194 142.645 228.383 143.715 227.979 144.644C228.396 144.654 228.361 144.707 228.722 144.573C229.895 143.393 230.64 143.133 232.144 142.427L232.079 142.229L231.098 142.237ZM373.137 137.116C372.002 137.058 369.603 137.417 368.693 138.071C366.55 139.218 365.5 139.931 364.092 141.99L364.095 142.28L364.162 142.335L364.203 142.26L364.547 142.447L364.323 142.158L364.775 142.332L365.113 142.035C366.097 142.214 366.215 142.415 366.95 142.084C368.285 141.851 368.53 141.696 369.745 141.063C370.572 141.611 375.382 143.197 376.127 142.375C376.03 141.241 376.225 141.716 375.65 140.85C373.737 139.717 371.595 141.532 370.535 140.729C371.217 139.322 373.05 139.32 373.377 137.377L373.137 137.116ZM342.955 138.267C341.782 138.947 339.428 139.617 338.828 140.048C338.753 140.588 338.737 140.558 338.87 141.082L339.12 140.915C340.917 139.747 342.629 139.698 342.955 138.267ZM219.032 138.108C218.227 139.209 217.988 139.328 216.712 139.804C217.004 140.254 217.059 140.315 217.433 140.703C218.456 140.235 218.632 139.655 219.383 138.647L219.365 138.268L219.032 138.108ZM130.223 135.6C129.4 136.6 128.254 139.064 128.788 140.334L129.13 140.562C129.29 138.624 129.578 137.679 130.654 135.981C130.387 135.619 130.547 135.723 130.223 135.6ZM364.927 137.431C363.912 138.244 362.813 139.006 362.068 140.05L362.123 140.408L362.625 140.444C363.72 139.912 365.243 139.289 365.453 137.966C365.155 137.482 365.357 137.605 364.927 137.431ZM211.955 139.087C210.882 138.809 209.667 139.154 208.522 139.259C207.745 139.6 207.297 139.721 206.713 140.343C207.398 140.568 208.593 140.021 209.345 139.759C210.178 139.639 211.389 139.586 211.955 139.087ZM355.023 137.903C354.225 137.799 354.385 137.894 353.51 138.333C352.403 138.297 351.71 138.491 350.823 139.239L351.068 139.564C351.728 139.61 351.955 139.348 352.507 138.962C352.795 138.966 353.203 138.956 353.478 138.991L353.755 139.009C354.345 138.658 354.74 138.518 355.023 137.903ZM238.476 138.405C239.051 138.746 242.645 138.616 244.06 138.791L244.547 138.708C244.112 138.159 240.537 138.104 239.183 137.646L238.476 138.405ZM322.238 134.362C321.043 134.853 317.67 136.196 316.78 136.925L316.76 137.24L316.877 137.347C318.755 136.61 320.783 135.884 322.373 134.624L322.238 134.362ZM128.369 136.414C126.428 135.664 125.006 135.557 122.973 135.869L122.859 136.309C124.82 136.341 126.235 136.466 128.167 136.802L128.369 136.414ZM357.155 131.2C354.847 133.024 354.11 134.507 351.493 135.726L351.233 136.129L351.453 136.344C353.96 135.26 355.343 133.691 357.305 131.785L357.331 131.377L357.155 131.2ZM302.057 133.291C300.757 133.062 297.485 133.195 296.225 133.361C297.438 133.933 300.56 134.153 301.988 134.207L302.578 133.933C302.393 133.575 302.382 133.348 302.057 133.291ZM340.623 131.775C338.855 130.431 338.765 130.815 336.65 131.336L336.545 131.656C337.175 131.799 337.453 131.891 338.092 131.78C340.135 131.424 342.338 134.902 344.585 133.253L344.54 132.627C342.398 130.997 343.93 130.417 340.623 131.775ZM324.48 131.068C323.69 131.272 321.78 131.571 321.342 132.029C321.477 132.522 321.362 132.346 321.592 132.611C322.677 132.288 323.52 132.113 324.475 131.507L324.587 131.126L324.48 131.068ZM159.978 130.328C159.03 130.983 158.948 131.116 158.361 132.114L158.439 132.406L158.63 132.325C159.205 131.857 160.211 131.194 160.402 130.545L159.978 130.328ZM294.29 127.56C293.248 127.642 292.29 128.452 291.595 129.174C290.973 129.879 290.115 130.969 290.435 131.981C291.065 131.583 291.457 130.506 291.832 129.771C292.143 129.358 293.783 128.016 294.29 127.56ZM283.292 127.896C281.612 130.141 277.522 130.187 275.672 131.474C275.945 131.737 275.793 131.69 276.09 131.697C278.92 130.771 280.383 129.657 282.733 130.491C283.622 129.697 283.635 129.309 283.59 128.155L283.292 127.896ZM247.005 128.11C246.468 128.805 246.341 128.885 246.28 129.776C246.576 129.637 246.476 129.741 246.611 129.493L247.728 128.578L247.754 128.284L247.005 128.11ZM337.943 125.236C336.69 125.295 336.363 125.54 335.225 126.08L333.06 126.96C332.088 127.277 331.447 127.406 330.645 128.028C329.855 128.236 328.218 129.075 327.653 129.629C329.17 129.777 329.89 129.402 330.645 128.028C331.987 127.854 332.51 127.805 333.828 127.349C334.39 127.08 334.958 126.819 335.528 126.567C336.31 126.168 337.548 125.767 337.943 125.236ZM131.796 126.252C129.84 127.545 126.605 127.267 125.355 128.511C125.849 128.893 126.356 128.867 126.995 128.939C128.276 127.756 132.422 128.416 132.764 126.814C132.225 126.383 132.437 126.491 131.796 126.252ZM361.978 127.309L361.905 127.571C363.31 127.699 363.745 127.467 364.76 127.502C365.578 127.789 366.322 128.186 367.105 127.914L367.182 127.552C366.255 126.472 365.53 126.493 364.103 126.279L361.978 127.309ZM355.835 126.297C354.773 126.616 353.805 126.776 353.012 127.506C353.67 127.718 354.508 127.362 355.188 127.136C356.26 127.037 357.045 127.603 357.755 127.386L357.78 127.027C357.092 126.375 356.94 126.534 355.835 126.297ZM342.375 125.045C341.431 125.252 339.958 125.486 339.17 125.951C339.308 126.392 339.185 126.247 339.445 126.454C340.272 126.163 342.065 125.667 342.568 125.087L342.375 125.045ZM155.698 124.375C155.119 124.95 154.206 125.625 154.145 126.272L154.664 126.356C155.297 125.763 155.767 125.317 156.346 124.673C156.008 124.334 156.217 124.446 155.698 124.375ZM301.417 120.469C299.733 121.147 299.453 121.189 298.698 122.759L298.805 123.25C299.42 122.969 299.141 123.121 299.603 122.458C300.408 121.672 301.66 121.307 302.707 120.853L302.685 120.62C302.115 120.501 301.992 120.449 301.417 120.469ZM296.717 121.755C295.66 122.384 295.267 122.461 294.055 122.688L293.978 122.948L294.33 123.223C295.335 123.267 296.33 123.09 296.927 122.177L296.717 121.755ZM341.533 118.574C340.058 119.893 339.263 119.788 338.913 121.53C339.04 121.781 339.045 121.883 339.24 122.041C340.037 121.062 341.74 119.529 341.76 118.78L341.533 118.574ZM325.8 119.484C325.15 119.21 325.417 119.275 324.677 119.331C323.467 119.435 321.143 119.333 320.313 120.152C320.585 120.632 320.4 120.414 321.155 120.632L322.203 120.26C323.193 119.958 325.123 120.159 325.8 119.484ZM342.672 120.004C343.352 120.564 344.315 120.254 345.198 120.134L345.41 119.671C344.792 119.368 343.593 119.258 342.845 119.114L342.672 120.004ZM304.748 119.192L304.765 119.4C305.465 119.38 306.267 119.314 306.945 119.438L307.517 119.623L307.538 119.38C306.675 118.876 306.63 118.841 305.685 118.548L304.748 119.192ZM351.868 115.578C351.998 116.01 352.033 116.089 352.01 116.551L350.922 117.693C352.232 118.253 352.618 115.998 356.125 117.595C356.808 117.48 356.935 117.237 357.533 116.763L357.582 116.394C357.13 116.219 357.237 116.156 356.943 116.291C355.968 116.738 354.403 116.303 353.203 116.146C352.995 115.875 352.79 115.6 352.59 115.323L351.743 115.165L351.868 115.578ZM213.323 117.294C213.068 117.317 212.814 117.344 212.561 117.375L212.879 117.755C213.733 117.787 214.248 117.78 215.102 117.729C214.464 117.176 214.407 117.206 213.323 117.294ZM234.412 116.262C233.265 116.118 231.849 116.227 230.691 116.372C231.588 116.811 233.639 116.978 234.509 116.791L234.412 116.262ZM292.373 113.386C291.72 114.434 291.358 114.786 290.498 115.688L289.573 116.321L289.535 116.627C290.557 116.63 291.543 116.465 292.528 116.188C293.187 116.052 292.935 116.142 293.498 115.682C293.562 114.795 293.138 114.311 292.693 113.412L292.373 113.386ZM334.275 113.765C333.117 114.157 330.828 114.852 330.443 116.152L330.688 116.316L331.358 115.767C332.565 114.907 333.842 114.645 335.262 114.252L335.15 113.92L334.275 113.765ZM307.917 109.59C306.638 109.757 306.373 109.738 305.233 110.261L305.188 110.476L305.802 110.499C306.972 110.334 307.403 110.365 308.38 109.771L308.228 109.497L307.917 109.59ZM259.462 108.238C258.487 108.706 257.59 108.955 257.432 110.142L257.65 110.2C258.32 109.638 258.985 109.071 259.645 108.497L259.462 108.238ZM285.5 107.296C283.115 108.113 281.917 107.504 279.6 108.991L279.425 109.414L279.623 109.639C282.428 108.008 283.865 108.881 285.603 107.679C285.566 107.328 285.647 107.431 285.5 107.296ZM205.987 107.404C205.062 108.147 204.628 108.453 203.607 109.054L203.65 109.429L204.129 109.546C204.985 108.963 205.722 108.572 206.305 107.731C206.075 107.431 206.199 107.518 205.987 107.404ZM296.457 103.314C295.368 103.393 294.563 104.34 293.71 105.099C293.205 105.897 292.755 106.541 292.392 107.424C292.89 109.014 294.747 108.399 296.105 108.159L296.315 107.886C295.428 106.986 294.914 107.429 293.705 107.771L293.377 107.489C293.592 106.599 293.701 106.514 294.228 105.801C295.065 105.397 296.108 104.496 296.595 103.662L296.457 103.314ZM331.302 105.415C330.772 106.103 329.698 107.203 329.653 107.883L329.842 108.069C330.42 107.529 331.472 106.653 331.802 105.999C331.547 105.573 331.68 105.66 331.302 105.415ZM211.082 106.241C210.307 106.663 209.75 106.773 209.425 107.41L209.832 107.536L211.263 106.767L211.354 106.385L211.082 106.241ZM356.328 101.974C355.665 102.731 354.982 103.744 354.387 104.575C353.243 106.433 353.135 104.796 353.075 106.051L353.545 106.992C354.3 106.973 355.853 105.965 357.342 105.736C358.062 105.39 358.638 105.181 359.215 104.629C359.013 103.907 357.708 103.963 357.023 103.366C357.023 103.366 356.383 102.086 356.328 101.974ZM339.705 104.408C338.475 104.183 338.082 104.294 336.832 104.484C336.065 104.844 334.306 106.025 333.915 106.747C334.95 107.06 336.288 105.565 336.98 104.868C338.062 104.637 338.72 104.981 339.705 104.408ZM307.722 102.254C306.962 103.065 306.812 103.15 306.427 104.156C306.952 104.148 306.695 104.215 307.16 103.786L307.318 103.651C308.008 103.069 308.232 102.936 309.025 102.514C308.665 102.161 308.397 102.286 307.722 102.254ZM258.91 100.381C257.937 102.616 257.733 101.863 256.68 103.254L257.033 103.795C257.943 102.97 259.242 102.001 259.307 100.756L258.91 100.381ZM283.307 101.521C282.155 102.188 280.988 102.823 279.8 103.424L279.733 103.793C281.305 103.445 282.143 103.181 283.265 102.011C283.285 101.848 283.345 101.68 283.307 101.521ZM230.639 99.4434C231.814 100.061 232.417 99.5606 234.077 100.555L234.393 99.7549C233.756 99.3511 231.81 99.1249 230.888 98.9531L230.639 99.4434ZM244.327 95.2568C243.262 95.8388 240.026 97.4283 239.609 98.5195L239.682 98.8008C240.623 98.2083 243.909 96.2778 244.412 95.5664L244.327 95.2568ZM293.26 96.4102C292.198 97.1167 291.455 97.5778 290.495 98.4365L290.53 98.7021L290.853 98.7646C291.663 98.3234 293.393 97.3433 293.89 96.5674C293.625 96.4809 293.523 96.4139 293.26 96.4102ZM340.743 94.5664C340.33 95.6765 340.043 95.791 340.38 96.5752C341.403 96.9221 343.127 95.9212 344.455 95.6426L345.03 95.7266L345.095 95.4131C342.76 94.3884 342.697 95.0546 340.743 94.5664ZM308.063 89.1543C306.24 89.9978 305.567 91.5741 305.035 93.4551L305.26 93.6611L305.86 93.502C307.517 90.2131 305.335 90.858 309.328 89.5215C308.793 89.137 308.807 89.2409 308.063 89.1543ZM234.917 88.7109C233.404 89.5879 231.529 90.7744 230.315 92.0283L230.23 92.4834L230.422 92.6816C231.292 92.0289 234.688 89.5323 235.139 88.9453L234.917 88.7109ZM219.522 91.2939C221.478 92.7441 221.547 93.1389 223.727 91.7754L223.584 91.3584C221.845 91.7691 221.274 91.6559 219.522 91.2939ZM292.595 91.0293C293.4 91.8752 294.058 92.3982 295.233 92.4297C296.025 92.1688 296.003 92.1133 296.55 91.5176L296.238 91.3037C294.738 92.0017 293.863 91.2556 292.595 91.0293ZM260.792 88.6348C259.842 88.702 257.83 88.8137 257.222 89.5127L257.765 89.5225C259.12 89.3737 259.863 89.3429 261.165 88.8584L261.26 88.5527L260.792 88.6348ZM241.865 86.8447C241.653 87.7272 241.376 88.4041 241.621 89.2529C242.147 88.6563 242.608 87.8397 243.471 87.834C244.256 87.7772 245.17 87.7815 245.862 87.4629C244.546 87.2722 243.165 87.0985 241.865 86.8447ZM282.993 82.1934C281.948 83.1459 279.923 86.0386 279.345 87.3398C279.748 88.0524 279.988 88.2562 280.54 88.8359L280.51 88.415C280.463 87.8388 280.4 87.5788 280.27 87.0195C280.638 85.6201 283.667 83.8115 283.248 82.3623L282.993 82.1934ZM235.436 83.1309C234.205 83.3128 231.106 83.5374 230.466 84.374L230.615 84.708C230.932 84.774 231.315 84.8632 231.637 84.917C232.949 84.3095 234.938 83.9624 235.946 83.2754L235.808 83.1289L235.436 83.1309ZM293.813 78.8945C293.078 79.7348 292.03 80.7346 292.358 81.9648C293.175 82.1599 293.748 81.5137 294.358 80.9766C295.598 80.9751 295.413 81.1795 296.125 80.5586C296.288 79.0185 294.988 78.8923 293.813 78.8945ZM317.832 80.1914C316.723 80.7016 316.313 80.815 315.43 81.6602L315.642 81.8877L316.082 81.7148C317.095 81.3066 317.853 80.9995 318.835 80.501L318.805 80.2881C318.403 80.2283 318.237 80.1799 317.832 80.1914ZM282.307 74.2334C281.627 74.456 280.943 74.5775 280.488 75.0898L280.645 75.541L280.94 75.5576C281.657 75.2091 282.425 75.0077 282.72 74.418L282.307 74.2334ZM272.68 72.0098C270.835 72.714 270.248 73.1711 269.283 74.9131C269.333 75.4482 269.215 75.2644 269.49 75.5342C269.957 74.345 270.075 74.3074 271.105 73.6279L272.788 72.5166L272.82 72.1494L272.68 72.0098Z" fill="#E88033"/>
<path d="M243.545 147.889C247.926 145.311 254.005 147.373 257.17 143.536C257.547 141.768 254.89 139.376 253.435 138.681C252.962 138.907 252.995 138.901 252.472 138.945C251.907 138.214 252.542 137.767 252.39 137.585C246.666 130.758 246.563 124.721 253.482 118.12C259.205 112.661 259.995 114.19 268.227 114.326C278.137 120.713 274.865 127.022 273.12 136.685C275.457 137.23 282.07 138.793 283.965 138.706C287.897 138.524 299.345 139.016 302.125 136.217L301.532 136.291L301.362 136.121C301.635 135.557 301.72 135.582 302.257 135.221C306.87 136.9 309.92 127.62 311.15 124.445C310.742 122.97 310.425 121.33 310.102 119.82C311.627 118.244 313.147 116.66 314.657 115.068C315.632 114.825 316.71 114.623 317.702 114.415C322.7 119.141 318.035 126.515 315.75 131.173C306.9 149.208 284.58 150.013 267.44 146.516C263.76 148.11 259.925 151.664 256.3 153.393C254.142 154.422 249.954 154.812 247.6 155.722C246.502 156.146 245.166 157.749 244.087 157.88C243.222 157.986 240.924 156.921 240.236 156.961C239.015 157.032 238.527 157.931 236.956 157.786C234.427 156.372 235.525 157.942 233.504 157.935C232.546 157.932 230.258 157.257 229.138 157.282C226.719 157.336 224.05 158.026 221.66 157.662C220.417 157.473 218.213 156.25 216.957 156.03C214.615 155.621 212.759 156.304 210.697 154.891C210.151 154.517 208.96 153.839 208.255 153.788C207.997 153.932 207.674 154.14 207.385 154.229C206.072 154.634 203.272 153.577 201.77 153.42C198.924 153.123 189.607 154.341 187.912 153.43C187.29 153.095 186.076 153.723 185.446 153.946C184.133 154.412 182.293 155.286 180.9 155.315C179.426 155.346 178.089 154.857 176.595 155.086C176.335 155.308 175.943 155.686 175.898 155.927C175.801 156.441 173.014 157.1 172.187 157.307C168.303 158.281 162.81 161.146 159.293 162.95C156.795 164.231 150.059 172.07 148.328 174.474C147.483 175.665 147.134 176.917 146.773 178.306C146.233 179.474 145.452 181.018 145.085 182.215L144.334 183.646C143.895 184.178 143.831 184.371 143.19 184.605C140.427 183.959 141.146 179.537 141.782 177.505C143.471 172.117 147.777 165.544 152.049 161.852C155.403 158.955 159.71 156.254 163.266 153.55C164.267 152.795 167.437 151.799 168.718 151.131C170.788 150.052 173.194 149.057 175.332 148.072C180.798 146.196 185.531 145.273 191.263 144.835C193.578 144.692 196.411 143.935 198.701 144.009C202.86 144.143 207.166 144.121 211.3 144.451C215.017 144.747 218.436 146.736 222.038 147.328C223.393 147.542 225.813 147.195 227.051 147.483C232.979 148.859 237.673 146.21 243.545 147.889Z" fill="#4B4746"/>
<path d="M148.552 259.218C149.981 259.208 150.638 258.933 151.534 260.103C151.442 262.402 148.728 261.722 147.317 261.332C146.383 261.062 145.491 261.48 144.407 261.747C146.056 260.517 146.703 260.148 148.552 259.218ZM122.166 249.236C123.313 248.34 123.795 247.823 125.212 248.688C126.224 250.075 126.034 250.925 125.785 252.542C124.686 251.33 123.592 250.025 122.166 249.236ZM128.51 244.554C128.541 244.598 130.907 245.401 130.869 245.366L130.486 245.298L130.691 245.645C130.277 246.207 129.919 246.785 129.544 247.373L129.094 247.078C129.08 246.447 129.103 246.435 128.908 245.844C128.033 245.827 127.349 245.88 126.524 245.591C126.921 245.121 127.366 244.958 127.921 244.766L128.51 244.554ZM131.101 240.469C131.663 240.389 131.456 240.382 132.002 240.532C131.388 240.884 131.196 240.993 130.62 241.441C130.716 242.66 132.198 242.499 132.116 243.786L131.596 244.057C130.937 243.03 129.947 242.442 128.928 241.751L128.689 241.81C129.163 241.41 130.303 241.05 131.101 240.469ZM102.939 223.495C103.848 223.413 110.161 223.131 110.755 223.628C110.93 223.774 112.078 225.31 112.265 225.859C111.239 226.785 110.227 227.154 109.581 228.137L109.641 228.549C110.673 229.233 111.874 229.52 112.434 230.243C112.482 231.418 110.655 234.082 110.823 234.56C111.284 235.862 114.255 239.606 115.32 240.611C116.096 239.82 115.605 239.207 116.507 238.195C117.258 237.962 116.857 237.991 117.752 238.339L117.765 238.539C115.597 239.083 115.758 241.334 116.477 243.077C112.571 241.81 109.508 232.511 105.686 230.073V230.072C104.98 228.332 104.952 227.442 103.77 225.84C103.387 225.245 103.218 224.447 103.008 223.741L102.939 223.495ZM140.524 239.337C141.495 239.264 142.147 239.137 143.072 239.405L142.896 239.7C142.161 239.793 140.844 240.086 140.259 239.77L140.524 239.337ZM145.936 234.075C145.361 234.85 145.093 235.132 144.409 235.821C144.646 237.001 144.568 236.631 145.515 237.644C145.439 238.489 145.618 238.164 145.031 238.688L144.447 238.605C143.607 237.844 143.891 238.288 143.528 237.245C143.863 236.315 143.661 236.264 143.812 235.422L144.324 234.877C144.775 234.4 145.105 234.101 145.871 233.781L145.936 234.075ZM126.865 233.192C127.192 233.243 127.177 233.279 127.485 233.438C127.131 234.016 124.699 235.037 123.623 235.727L123.34 235.91L122.988 235.857C123.37 234.724 125.712 233.784 126.865 233.192ZM118.197 231.444C117.241 233.587 118.267 232.791 117.702 233.86L117.438 233.944C116.195 233.055 117.234 231.885 117.954 231.182L118.197 231.444ZM148.345 232.819C149.728 232.686 150.679 232.915 151.88 233.619C150.323 233.87 149.735 233.582 148.345 232.819ZM126.623 228.309C127.018 227.957 127.439 228.035 127.885 228.156L128.34 228.277L129.202 228.447C130.032 228.611 130.772 228.794 131.502 229.325L131.509 229.409L130.895 229.092L131.004 229.655C129.978 229.545 129.587 229.513 128.769 229.242L128.389 229.111C126.209 229.153 126.426 229.868 124.718 230.87L124.424 230.695C124.528 229.613 125.875 228.976 126.623 228.309ZM160.777 227.762C161.209 227.948 161.295 228.034 161.69 228.295C162.144 229.573 161.571 230.081 160.394 230.483L160.023 230.293L159.982 229.35C160.012 229.093 160.006 229.28 159.828 228.809C159.266 228.867 158.961 228.954 158.415 229.088L158.369 228.958C159.552 228.667 159.81 228.504 160.777 227.762ZM107.602 229.243C107.46 229.366 107.308 229.477 107.145 229.576C106.981 229.675 106.806 229.762 106.619 229.835V229.836C106.994 229.689 107.318 229.489 107.602 229.243ZM142.654 227.596C142.207 228.207 140.817 228.862 140.087 229.266L139.901 229.137C140.201 228.264 141.632 227.586 142.434 227.227L142.654 227.596ZM119.44 227.041C120.424 226.957 121.655 227.066 122.354 227.74C121.383 228.935 117.732 228.859 116.55 227.941C114.877 227.802 114.744 228.894 113.68 228.571L113.779 228.232C115.831 226.732 116.731 228.095 119.44 227.041ZM167.072 221.419C166.512 222.468 164.308 223.016 164.238 223.185C163.548 224.916 163.773 227.141 161.26 227.194L161.094 226.885C161.635 225.638 162.112 226.009 162.36 224.489L162.14 223.929C161.344 223.625 160.088 224.119 159.215 224.369C161.375 222.189 161.809 223.632 162.715 222.856C163.118 222.492 163.971 221.921 164.448 221.582V221.581L164.75 221.211L166.647 220.948L167.072 221.419ZM140.615 224.376C141.737 224.311 144.991 224.11 145.926 224.31L145.93 224.686C144.714 225.155 141.344 225.169 140.615 224.376ZM119.331 223.574C119.045 224.036 118.168 224.285 117.565 224.547C117.089 224.667 117.331 224.674 116.842 224.5C117.303 223.96 117.902 223.746 118.549 223.425L119.331 223.574ZM100.981 210.092C100.689 211.011 100.717 210.986 100.138 211.745C99.3351 212.104 99.7395 212.074 98.8828 211.819C99.3786 212.235 99.7623 212.547 100.227 213.004L100.99 213.058L100.86 213.669C101.412 214.004 101.403 214.017 102.021 214.182L103.047 213.788C105.316 212.9 106.789 212.191 109.205 210.98C107.162 212.938 104.173 214.233 101.465 215.101H101.464C101.838 215.681 102.593 216.615 102.826 217.006C102.974 217.157 103.349 217.558 103.5 217.673C104.536 217.126 105.276 216.647 106.425 216.415C105.397 217.897 104.567 217.626 103.606 219.48L103.496 219.681C102.493 221.473 101.988 220.802 102.145 223.104C101.773 222.829 101.174 222.646 100.901 222.583C99.3361 222.223 101.326 220.447 99.9668 218.413L99.9658 218.412C98.5138 217.533 97.9619 218.11 97.2285 216.346C97.2898 215.264 97.7068 214.489 98.124 213.479C97.5958 212.619 97.3059 212.267 96.6562 211.482C98.2975 211.539 99.1251 210.379 100.745 209.854L100.981 210.092ZM140.248 219.868C141.143 218.809 143.029 217.168 144.492 217.445C145.094 218.346 144.114 219.827 143.409 220.279C143.182 219.692 143.122 219.459 142.977 218.843C142.108 218.891 141.717 219.377 141.083 220.082C140.957 220.222 140.832 220.364 140.71 220.507C139.957 220.909 139.135 221.328 138.301 221.19C138.678 220.525 139.526 220.228 140.248 219.868ZM120.262 213.283C121.154 214.089 121.519 213.764 121.94 214.516C120.102 215.808 119.11 216.784 117.5 218.338C117.292 218.497 117.437 218.412 117.018 218.493C117.287 217.089 119.555 215.47 120.729 214.749L120.517 214.206C120.065 213.983 119.981 213.929 119.711 213.503L120.262 213.283ZM136.869 215.298L136.867 215.698L135.649 216.791L135.372 216.683C135.464 215.933 135.838 215.841 136.544 215.162L136.869 215.298ZM114.283 213.095L114.223 213.394C113.495 213.859 113.221 214.05 112.583 214.637L112.434 214.777L112.18 214.72L112.025 214.38C112.546 213.653 113.17 213.423 113.966 212.993L114.283 213.095ZM113.306 211.462C112.645 212.053 112.291 212.23 111.518 212.685C111.156 213.397 109.829 214.573 108.969 214.698C109.183 213.799 110.067 213.176 110.809 212.435C111.547 211.537 112.09 211.105 113.296 211.068L113.306 211.462ZM93.999 206.479C98.4296 205.108 96.9387 207.184 101.121 206.317L101.109 206.602C99.6706 207.849 97.8318 209.109 96.0283 209.742L95.7363 210.266C95.3143 208.901 94.8712 207.615 93.999 206.479ZM141.982 203.122C140.398 204.599 136.452 207.692 134.291 207.917C132.756 209.021 132.979 209.641 130.822 209.298C130.787 208.629 131.721 208.378 132.556 207.299L132.46 206.832C131.642 206.27 130.72 206.392 129.676 206.367L129.367 206.257L129.642 205.938C130.92 205.479 131.372 205.514 132.711 205.476C133.821 206.014 134.508 206.378 135.729 206.677C137.534 205.722 140.461 203.316 141.982 203.122ZM146.093 207.819C147.621 208.106 148.509 207.934 150.071 207.861L150.176 208.348C148.75 208.89 147.538 208.905 146.119 208.343L146.093 207.819ZM143.031 205.979C143.509 206.3 143.933 206.608 144.396 206.946L144.484 207.553C142.416 207.276 142.544 207.141 140.449 207.953C139.236 208.462 139.214 208.465 137.893 208.46L137.858 208.237C139.393 206.869 141.207 206.573 143.031 205.979ZM179.409 199.488C178.587 200.556 177.444 201.468 176.418 202.356C176.916 203.267 177.758 202.548 177.772 203.319C177.794 204.451 178.401 205.404 178.628 206.38C177.947 206.053 177.259 205.742 176.563 205.446C176.241 206.224 175.799 207.558 175.221 208.074C174.09 208.237 174.057 207.794 172.798 208.217L172.649 208.028C172.862 207.607 173.068 207.177 173.303 206.769L173.304 206.768C173.897 205.866 174.892 203.613 175.399 202.535L175.586 202.237C176.519 200.784 177.453 199.86 179.229 199.289L179.409 199.488ZM144.716 207.585L144.499 207.647L144.484 207.553C144.559 207.563 144.636 207.575 144.716 207.585ZM120.348 200.348L120.489 200.706C119.959 201.386 119.998 201.417 119.164 201.753C118.89 201.7 117.653 201.474 117.537 201.539C114.471 203.278 115.807 205.016 112.165 207.313L111.526 207.577L111.418 207.402C113.25 205.662 114.184 204.527 115.497 202.355C116.559 200.598 117.719 200.576 119.675 200.274L120.348 200.348ZM174.937 206.677V206.678V206.677ZM167.845 202.843C167.231 203.523 166.687 204.026 165.83 204.395L165.831 204.396C164.763 204.794 164.561 205.367 163.719 206.335L163.383 206.351C163.309 205.122 164.432 204.014 165.566 203.693L166.106 203.299C166.635 202.914 167.147 202.584 167.813 202.556L167.845 202.843ZM148.188 204.317C147.848 204.86 147.461 205.386 146.818 205.528C145.346 204.987 145.3 204.949 144.036 205.76L143.78 205.634L143.963 204.782C145.683 203.478 145.764 206.022 147.769 203.788L148.188 204.317ZM117.437 203.539C118.197 202.744 119.587 203.452 120.173 204.159C121.165 204.895 121.38 204.704 122.559 204.416C123.463 204.012 125.255 204.012 126.195 204.401L126.119 204.629C125.04 204.81 124.784 204.848 123.701 204.825C121.407 205.438 121.464 205.27 119.305 204.217C118.143 204.016 118.086 204.213 117.437 203.539ZM167.777 204.624C168.466 203.541 171.977 203.144 173.196 203.261L173.368 203.328C171.197 203.843 170.212 204.168 168.116 205.062L167.777 204.624ZM147.769 203.787C148.684 202.895 152.118 202.415 153.321 203.024L153.438 203.445C151.412 203.46 150.057 203.128 148.188 204.317L147.769 203.787ZM141.982 203.122C143.295 201.864 144.542 202.136 146.366 202.16L146.124 202.717C146.227 202.695 141.97 203.119 141.982 203.122ZM135.473 200.665C136.581 200.156 139.757 198.648 140.818 198.903C140.094 199.879 137.189 200.784 135.992 201.12C134.421 201.833 132.21 203.038 130.592 202.181C130.914 201.836 134.136 201.333 135.473 200.665ZM297.822 199.225C300.46 200.137 302.102 199.347 303.067 199.981C302.69 200.871 300.595 201.246 299.652 200.992C299.372 200.876 299.035 200.737 298.64 200.573C297.507 201.03 295.757 201.917 294.545 201.979L294.585 201.65C295.17 200.867 295.215 200.796 296.05 200.291L297.822 199.225ZM155.23 198.778C154.863 200.08 154.254 200.937 153.31 201.893L153.118 201.551L154.897 198.385L155.23 198.778ZM97.4932 199.721C98.5084 200.492 100.745 200.769 102.122 201.05C100.66 201.135 99.2501 201.194 97.7998 201.407C96.8086 201.543 94.7129 201.301 94.3877 200.181L94.9492 199.731C96.0869 199.903 96.3774 199.95 97.4932 199.721ZM174.99 200.054C175.256 200.121 175.461 200.255 175.715 200.386L175.597 200.623C174.358 200.891 173.69 200.739 172.438 200.606L172.083 200.624L172.053 200.48L174.99 200.054ZM166.447 198.329C166.855 198.255 168.008 198.198 168.369 198.437C167.411 198.837 164.214 199.63 163.064 199.944C162.303 200.09 161.973 200.319 161.492 200.014C162.667 199.222 165.045 198.6 166.447 198.329ZM148.335 197.27C148.904 197.338 148.672 197.23 149.059 197.532C147.394 198.204 145.737 198.941 144.064 199.559L143.708 199.617L143.463 199.405C144.373 198.553 147.036 197.477 148.335 197.27ZM174.086 196.39C174.641 196.367 174.612 196.394 175.119 196.643C174.873 197.024 173.592 197.437 173.054 197.658C172.501 197.835 172.757 197.855 172.282 197.675C172.703 197.134 173.476 196.757 174.086 196.39ZM287.74 194.139C287.228 194.711 286.387 196.532 285.877 197.404L285.688 197.171C285.078 197.243 285.265 197.31 284.755 197.116C284.845 196.371 284.954 196.579 284.712 196.033L283.545 196.131C282.845 196.661 282.327 197.028 281.442 196.703C281.945 195.807 286.143 194.189 287.365 193.617L287.74 194.139ZM257.683 195.011C259.168 195.505 259.642 194.966 260.942 195.577L261 196.082C260.42 196.906 260.787 196.667 259.98 196.981C258.356 196.64 258.133 197.505 257.138 197.218C256.92 196.406 257.29 195.765 257.683 195.011ZM180.647 194.094C182.15 193.335 183.844 192.742 185.537 192.96C186.058 193.202 186.509 193.409 187.017 193.681C186.808 194.149 186.488 194.649 186.35 195.047L186.259 195.514C185.284 196.074 184.496 196.515 183.478 197.009C183.044 196.596 183.167 196.44 183.058 195.683C182.59 195.167 182.211 195.161 181.52 194.99L181.24 194.923C180.188 195.579 177.922 195.786 176.708 195.698L176.893 195.133C178.175 194.055 179.349 195.097 180.647 194.094ZM115.083 196.604C115.81 194.666 121.581 193.09 123.76 193.699L123.592 194.315C120.057 192.822 117.284 196.945 115.083 196.604ZM311.865 193.292C312.863 193.166 313.23 193.236 314.053 193.736C314.273 194.284 314.292 194.025 314.112 194.527C312.787 195.835 311.708 195.626 309.812 195.69L309.21 195.958C308.343 195.882 308.64 196.077 308.141 195.594L308.325 195.152C309.618 194.01 310.245 193.876 311.865 193.292ZM185.069 195.061V195.06V195.061ZM101.354 192.988C102.492 192.708 104.237 194.21 105.748 193.759C106.185 193.628 106.297 193.607 106.718 193.771C106.005 194.91 104.607 194.67 103.609 194.056C101.75 193.555 100.553 194.273 98.6963 194.657C99.1852 194.183 100.696 193.37 101.354 192.988ZM326.298 187.81C327.363 187.919 327.526 187.88 328.418 188.402C328.043 189.425 324.143 189.567 322.86 190.455C322.915 191.265 323.463 190.465 324.065 191.34C323.118 192.257 322.148 193.105 321.16 193.978C320.83 194.27 320.817 194.233 320.407 194.434L320.245 194.115C320.628 192.935 321.915 192.423 322.47 191.127L321.643 190.811L321.487 190.45C322.127 189.526 325.168 188.274 326.298 187.81ZM126.663 193.07C125.635 193.803 124.802 193.956 123.593 194.315L123.76 193.699C124.765 193.238 125.638 192.695 126.706 192.731L126.663 193.07ZM141.484 192.021C142.702 192.107 145.425 192.985 146.096 194.02C144.732 193.442 143.065 193.059 141.609 192.597L141.484 192.021ZM156.878 188.902C157.874 190.213 156.285 191.786 155.451 192.867C155.162 193.898 153.5 194.077 152.622 193.816L152.566 193.529C153.121 193.174 153.577 192.871 154.111 192.488C154.267 191.544 154.234 191.57 154.014 190.616C153.539 190.002 152.628 189.901 151.826 189.698L151.569 189.046C152.626 188.865 153.907 188.882 154.957 189.122C155.761 189.76 155.512 189.432 155.803 190.527C156.059 190.016 156.274 189.521 156.503 188.999L156.878 188.902ZM248.047 191.322C248.298 191.284 248.562 191.334 248.83 191.358L249.008 191.796C248.366 193.229 245.733 192.306 243.07 193.724C242.737 193.837 242.838 193.778 242.41 193.703L242.363 193.244C243.227 191.95 246.272 191.698 248.047 191.322ZM141.446 190.601C140.477 191.933 140.127 193.03 138.83 193.592C138.997 192.924 138.994 192.516 139.027 191.84C139.729 190.787 140.124 190.85 141.39 190.25L141.446 190.601ZM174.14 191.472C174.796 191.298 175.886 191.658 176.631 191.828L176.811 192.482C175.663 192.567 175.024 192.254 173.957 191.854L174.14 191.472ZM116.021 190.364C116.866 190.825 117.262 191.276 117.829 192.024L117.694 192.448L117.45 192.479C116.354 191.762 116.029 191.593 116.021 190.364ZM118.819 186.769C118.722 188.291 113.507 187.82 112.722 188.718C111.038 190.644 111.651 191.765 108.644 191.92L108.127 191.58L108.212 191.084C109.04 190.532 112.979 187.788 113.497 187.635C115.249 187.118 115.753 187.391 117.997 186.379L118.359 186.212L118.819 186.769ZM135.736 188.246C135.424 190.023 134.274 191.358 132.357 191.001L131.497 191.626L130.72 191.767L130.668 191.408C132.389 189.042 134.29 189.255 135.506 187.778L135.736 188.246ZM273.508 189.321C274.436 188.981 277.085 189.421 278.005 189.874C276.33 190.478 276.457 191.294 275.527 191.561C274.698 190.981 274.57 190.904 273.562 190.856C271.128 190.681 270.822 191.427 269.272 191.325C269 190.796 269.128 190.796 268.646 190.445C269.364 190.054 271.716 190.431 273.508 189.321ZM168.784 189.21C169.377 189.233 169.781 189.183 170.282 189.488C169.336 189.724 168.938 189.838 168.04 190.224L167.827 190.316C167.159 190.696 167.484 190.68 166.849 190.591C167.365 189.803 167.904 189.656 168.784 189.21ZM250.202 186.534C249.497 187.275 248.694 187.917 247.815 188.439C246.47 189.119 244.627 190.077 243.239 190.488L243.139 190.339C244.934 188.767 245.309 188.516 247.495 187.846C248.377 187.182 249.126 186.461 250.175 186.257L250.202 186.534ZM163.591 187.892L163.411 188.318C161.723 189.428 160.545 189.518 158.616 189.653L158.364 189.195C158.803 188.468 161.179 188.878 163.356 187.754L163.591 187.892ZM145.825 187.526C146.462 187.469 146.782 187.353 147.323 187.655C146.688 188.171 145.435 188.465 144.606 188.722C143.902 188.97 144.225 188.996 143.591 188.86C144.148 188.298 145.09 187.897 145.825 187.526ZM253.463 186.611L253.45 187.085C252.868 187.995 252.565 188.143 251.683 188.82C251.32 188.646 251.392 188.65 251.095 188.347C251.342 187.601 252.41 186.939 253.082 186.417L253.463 186.611ZM178.473 187.716L178.48 188.015C177.623 188.617 177.678 188.598 176.638 188.713L176.314 188.521L176.237 188.2C177.008 187.92 177.536 187.831 178.329 187.67L178.473 187.716ZM283.615 186.326C284.443 186.266 285.191 186.165 285.891 186.559L285.5 186.626C284.715 186.762 283.835 187.068 283.245 186.773L283.615 186.326ZM273.683 185.633C272.35 186.651 270.215 186.402 268.515 186.851L268.311 186.636L268.407 186.321C269.887 185.821 271.82 185.731 273.548 185.339L273.683 185.633ZM327.115 183.196C327.255 183.258 327.51 183.459 327.647 183.558C326.972 185.145 326.64 185.427 325.133 186.27C324.47 186.052 324.745 186.24 324.312 185.643L324.485 185.02C325.305 184.066 326.01 183.793 327.115 183.196ZM302.16 181.466C301.68 183.243 298.38 185.125 296.84 185.895L296.718 185.818L296.655 185.473C299.605 183.843 299.59 183.309 301.945 181.204L302.16 181.466ZM177.335 183.732C176.867 184.539 176.523 185.449 175.544 185.612L175.211 184.655C174.703 184.835 173.839 185.197 173.391 184.995C174.522 184.293 175.56 184.04 176.835 183.503L177.122 183.491L177.335 183.732ZM321.878 184.188C322.45 184.401 322.29 184.285 322.675 184.716C322.097 185.299 321.717 185.236 320.787 185.498C320.525 185.499 320.343 185.399 320.07 185.308C320.383 184.8 321.251 184.503 321.878 184.188ZM262.853 183.549L262.86 183.814L260.897 184.985L260.49 184.742C260.746 184.198 261.745 183.869 262.415 183.538L262.853 183.549ZM334.643 181.942C337.345 181.942 339.833 182.258 342.518 182.324L342.59 182.522L341.71 183.55L338.633 184.349C336.72 183.249 336.495 183.558 334.8 182.834L334.643 181.942ZM115.237 181.275C115.229 182.317 115.06 182.242 115.534 182.95C116.348 183.351 116.729 183.168 117.58 183.002L117.803 183.338C116.149 184.159 114.469 183.628 114.489 181.65L114.914 181.237L115.237 181.275ZM147.373 181.075C146.93 182.373 145.532 183.125 144.334 183.646L145.085 182.215C145.941 181.51 146.331 180.98 147.373 181.075ZM119.135 182.021C118.556 182.731 118.52 182.774 117.804 183.338L117.58 183.002C118.075 182.35 118.31 181.858 119.077 181.648L119.135 182.021ZM204.569 178.696C205.841 178.622 207.967 178.921 208.741 180.062L208.526 180.562C206.599 181.94 204.812 182.197 202.528 182.606L201.744 182.509L201.577 182.23C203.257 181.412 206.372 181.843 207.31 180.638C206.742 179.513 205.777 179.268 204.569 178.696ZM230.043 179.151C229.987 179.661 228.098 181.167 227.454 181.783C227.021 181.665 227.205 181.783 226.914 181.41C227.795 180.581 228.659 179.733 229.504 178.866L230.043 179.151ZM338 179.486C338.072 179.564 338.205 179.871 338.26 179.983L337.96 180.398C336.875 180.913 336.58 180.868 335.348 180.97L335.192 180.882C335.467 180.383 337.11 179.919 338 179.486ZM151.743 172.773C152.638 172.8 152.674 173.193 153.103 174.021C153.748 173.972 153.908 173.748 154.509 173.364L154.643 173.488C154.131 174.083 154.124 174.196 153.468 174.608C152.749 174.454 151.29 174.044 150.655 174.201L150.542 174.309C150.586 175.021 151.34 176.045 151.745 176.703L152.44 177.125L152.409 177.524C151.331 178.097 148.617 178.205 147.284 178.331L146.773 178.306C147.135 176.918 147.483 175.665 148.328 174.475C150.017 174.085 150.374 173.778 151.743 172.773ZM326.372 176.198C325.395 176.989 325.152 177.036 323.96 177.524C323.653 177.347 323.72 177.332 323.5 176.983C324.01 176.371 325.208 176.167 326.105 175.875L326.425 175.833L326.372 176.198ZM201.374 175.878C200.886 176.545 199.871 176.868 199.077 177.22C198.93 177.216 199.047 177.231 198.604 177.09C199.008 176.527 200.361 176.029 201.064 175.707L201.374 175.878ZM191.059 174.841C190.308 175.569 188.47 176.336 187.453 176.826L186.925 176.612L187.073 176.221C188.228 175.459 189.305 175.167 190.605 174.733L191.059 174.841ZM100.41 173.292C100.342 173.595 100.277 173.883 100.176 174.177C100.879 174.454 101.712 174.728 102.307 175.173C100.815 175.185 99.0233 175.179 97.6719 175.826C96.8002 176.117 96.5657 176.34 95.4775 176.625L95.46 176.437C97.287 175.328 98.4787 174.8 99.8613 173.164L100.062 172.921L100.41 173.292ZM275.558 174.36C275.418 174.921 274.018 176.007 273.468 176.509L273.295 176.32L273.375 175.784C274.18 174.937 274.373 174.821 275.38 174.22L275.558 174.36ZM172.786 174.454C173.375 174.53 173.135 174.391 173.554 174.796C173.173 175.297 172.201 175.534 171.552 175.765C171.273 175.918 171.445 175.862 171.016 175.851C171.415 175.243 172.153 174.865 172.786 174.454ZM131.299 172.702C132.315 171.46 133.722 170.615 135.031 172.1L134.709 172.532L134.707 172.531L134.007 172.636C133.38 173.576 133.387 173.872 132.216 174.226C131.412 174.815 130.437 175.404 129.423 175.474L129.413 175.156C129.699 174.922 129.966 174.691 130.268 174.478C130.513 173.594 130.489 173.638 131.102 172.955L131.299 172.702ZM300.165 174.266C300.87 174.195 300.943 174.107 301.553 174.412C300.908 174.931 300.902 174.774 299.93 174.903C299.253 175.097 298.898 175.278 298.226 175.087C298.753 174.532 299.4 174.468 300.165 174.266ZM352.588 173.985C353.263 173.931 353.098 173.938 353.772 174.039L353.793 174.307L353.117 174.925C352.398 174.88 352.2 174.848 351.495 174.694L351.553 174.457L352.588 173.985ZM180.962 170.444C181.934 171.421 183.675 170.685 184.571 171.34L184.475 171.713C182.403 173.295 181.379 171.798 178.875 173.021C178.219 173.717 178.598 173.496 177.729 173.762C176.618 173.528 175.818 173.46 174.877 172.834L174.795 172.419C176.525 172.096 179.483 171.33 180.962 170.444ZM338.74 173C338.068 173.591 337.85 173.574 336.987 173.758L336.66 173.64L336.652 173.354L338.17 172.839L338.558 172.801L338.74 173ZM310.265 172.495C311.13 172.434 310.755 172.338 311.457 172.66C310.81 173.134 309.86 173.281 309.053 173.476C308.583 173.693 308.62 173.689 308.107 173.604C308.697 172.998 309.462 172.8 310.265 172.495ZM115.948 169.778C116.718 169.756 117.106 169.61 117.685 169.92C115.768 170.764 115.149 170.849 113.675 172.324L113.455 172.547L112.917 173.163L112.396 173.187C112.52 171.986 114.978 170.664 115.948 169.778ZM320.62 171.869L320.413 172.25C319.266 172.801 319.033 172.757 317.723 172.867L317.413 172.704L317.555 172.403C318.495 172.245 319.433 172.066 320.365 171.865L320.62 171.869ZM155.254 169.991C156.737 170.193 158.209 170.168 158.715 171.634C157.092 171.349 155.579 171.628 155.254 169.991ZM324.53 168.004C324.757 168.252 324.658 168.082 324.683 168.577C323.918 169.361 323.275 169.965 322.457 170.693L322.305 170.582L322.24 170.141C322.865 169.198 323.635 168.706 324.53 168.004ZM217.369 166.218L217.412 166.44C215.891 167.725 213.685 169.509 211.808 170.08L211.408 170.18L211.281 169.969C213.387 168.628 214.815 167.635 216.808 166.146L217.369 166.218ZM272.255 168.613C271.81 169.41 271.542 169.527 270.812 170.056L270.578 169.784C270.868 168.946 271.213 168.924 272.067 168.261L272.255 168.613ZM186.134 168.774L185.943 168.791L185.928 168.751C185.999 168.744 186.07 168.736 186.141 168.728L186.134 168.774ZM185.928 168.751C185.841 168.759 185.753 168.767 185.666 168.771L185.834 168.505L185.928 168.751ZM189.921 167.625C188.681 168.081 187.44 168.57 186.141 168.728L186.205 168.313L189.809 167.065L189.921 167.625ZM193.551 165.646L193.215 165.74L193.062 166.049C191.745 166.855 191.332 167.05 189.921 167.625L189.81 167.065C191.216 166.356 192.082 165.764 193.632 165.534L193.551 165.646ZM344.63 165.972L344.59 166.398C342.652 167.831 340.905 167.75 338.62 167.442L338.232 167.06C339.765 166.326 341.845 167.494 344.532 165.893L344.63 165.972ZM162.301 164.929C162.587 165.023 162.429 164.934 162.679 165.324C162.122 166.655 161.203 166.982 159.93 167.473L159.709 167.396C159.778 166.771 161.596 165.511 162.301 164.929ZM181.805 166.37C182.578 166.276 184.265 166.118 184.963 166.43L184.727 166.729C183.528 166.779 182.925 166.98 181.674 166.819L181.805 166.37ZM275.038 165.38C275.95 165.235 276.926 164.926 277.668 165.3C276.718 165.759 276.76 165.734 275.697 165.81L275.695 165.809C274.567 166.141 274.539 166.359 273.615 166.079C274.113 165.487 274.132 165.642 275.037 165.38H275.038ZM193.465 165.766L193.551 165.646L193.657 165.616L193.465 165.766ZM234.337 164.052C234.008 164.685 232.846 165.322 232.198 165.75L231.896 165.426C232.312 164.707 233.251 164.336 234.023 163.923L234.337 164.052ZM301.973 159.647C302.467 159.71 302.223 159.629 302.695 159.925C302.325 161.451 300.802 162.588 300.095 164.865L299.915 164.928L299.73 164.636C299.828 163.042 301.133 160.997 301.973 159.647ZM331.325 162.806C329.415 164.62 327.125 164.728 324.646 164.746L324.742 164.392C327.975 164.324 328.52 163.819 331.468 162.256L331.325 162.806ZM355.976 160.452C356.205 160.657 356.117 160.52 356.17 160.902C354.777 162.29 351.073 162.622 348.788 163.712C348.651 163.539 348.733 163.67 348.703 163.253C350.016 162.198 353.683 161.947 355.976 160.452ZM179.142 160.657C178.669 161.511 178.274 161.711 177.478 162.327C176.855 162.891 176.389 163.437 175.526 163.009C175.748 162.168 175.849 162.344 176.786 161.685L177.206 161.517C177.949 161.214 178.389 160.687 179.142 160.657ZM225.881 160.172C226.182 160.17 225.997 160.142 226.403 160.388C226.085 160.884 223.777 162.255 223.027 162.945C222.504 162.875 222.727 162.985 222.356 162.618C222.961 161.899 224.995 160.726 225.881 160.172ZM261.253 159.5C261.917 160.693 260.737 161.873 259.812 162.525C258.898 162.695 258.895 162.71 257.98 162.626L257.787 162.487C256.87 161.909 256.485 162.208 255.412 161.935L255.275 161.688L255.905 161.922L256.107 161.37L257.032 161.27L257.455 161.103C258.518 160.675 260.425 159.405 261.253 159.5ZM178.403 157.493L178.507 157.73C176.429 158.967 175.582 160.219 174.023 162.001C173.592 161.796 173.771 161.951 173.509 161.508C174.592 159.824 175.996 158.244 177.844 157.387L178.403 157.493ZM132.217 158.229C132.32 158.342 132.34 158.512 132.392 158.656C131.524 159.722 130.33 160.331 129.075 160.836L128.848 160.587C129.104 160.044 131.377 158.822 132.217 158.229ZM209.249 156.556L209.312 156.849L207.503 158.004C207.042 158.841 207.131 158.379 207.446 159.473L207.209 159.847C206.155 160.489 205.537 160.511 204.329 160.729L203.91 160.62L204.002 160.258C205.05 159.291 205.665 160.048 206.669 159.204L206.309 158.612C207.102 157.411 207.445 157.239 208.616 156.449L209.249 156.556ZM287.085 158.236C287.23 158.276 287.338 158.403 287.46 158.495C286.933 159.119 286.093 159.391 285.298 159.772L284.94 159.621C285.183 159.057 286.395 158.601 287.085 158.236ZM363.848 157.779C363.728 158.521 363.132 158.977 362.585 159.555L362.333 159.222C362.438 158.462 363.025 158.039 363.595 157.458L363.848 157.779ZM188.999 156.256C189.802 156.247 190.339 156.333 191.125 156.436C190.695 156.796 189.642 156.831 188.978 156.928C188.063 157.194 187.983 157.399 187.265 157.138C187.903 156.431 187.941 156.6 188.999 156.256ZM336.955 155.197C337.12 155.218 337.48 155.343 337.655 155.396L337.583 155.706C336.573 156.061 336.063 156.284 335.105 156.766L334.715 156.719L334.612 156.452C335.42 155.981 336.118 155.619 336.955 155.197ZM154.582 154.235L154.724 154.485C154.103 155.222 153.466 155.455 152.596 155.905C152.389 155.631 152.469 155.803 152.435 155.36C153.153 154.919 153.725 154.61 154.475 154.222L154.582 154.235ZM266.708 153.602C265.943 154.305 265.383 154.518 264.288 154.54H264.287C263.15 154.796 262.962 155.487 261.907 155.636C261.172 155.088 260.153 154.83 259.873 154.499L259.965 154.006C261.292 153.132 264.412 153.478 266.095 153.563L266.527 153.333L266.708 153.602ZM291.442 153.169C291.677 153.321 291.52 153.205 291.84 153.6C290.802 154.78 289.915 155.432 288.35 155.616L288.138 155.15C288.383 154.871 290.567 153.869 291.442 153.169ZM368.585 152.353C369.102 152.549 369.08 152.519 369.465 152.911C368.97 153.553 366.722 154.947 365.867 155.546L365.365 155.485L365.22 155.134C365.765 153.946 367.258 153.426 368.405 152.5L368.585 152.353ZM355.732 152.196C355.876 152.292 357.085 153.395 357.3 153.583L356.982 154.188L356.067 154.577L355.732 154.312C355.605 153.429 355.662 153.098 355.732 152.196ZM330.098 152.218C331.167 152.352 331.345 152.476 332.13 153.133L332.165 153.562L331.885 153.82C331.002 153.187 330.8 153.037 330.098 152.218ZM264.881 153.745H264.882H264.881ZM229.755 151.724C230.023 151.451 230.421 151.351 230.786 151.463C231.152 151.576 231.424 151.883 231.492 152.259C231.561 152.635 231.414 153.018 231.111 153.252C230.685 153.581 230.076 153.524 229.719 153.121C229.362 152.718 229.377 152.108 229.755 151.724ZM319.146 146.686C318.36 147.752 317.526 148.827 316.838 149.962L316.553 150.452L317.06 150.819C318.239 150.298 318.165 150.247 319.395 150.498C319.13 150.912 317.449 151.561 316.603 151.841L316.298 151.937C315.833 152.296 315.978 152.219 315.485 152.433L315.266 151.956C315.706 149.751 317.471 148.039 319.146 146.686ZM331.51 149.888C332.335 149.795 333.37 149.738 333.955 150.442C333.526 150.642 333.283 150.637 332.882 150.549L332.415 150.438C330.623 150.555 329.695 151.557 327.508 151.335C328.468 150.749 330.125 150.442 331.51 149.888ZM271.013 149.199C271.32 149.236 271.711 149.342 272.021 149.413L271.912 149.659L269.907 150.224L269.322 150.417L269.112 150.271C269.787 149.556 270.048 149.544 271.013 149.199ZM300.853 147.399C301.67 147.52 302.952 147.752 303.077 148.701C302.235 148.768 302.665 148.831 301.805 148.255L301.588 148.114C300.583 148.333 300.495 148.373 299.492 148.274C299.767 147.692 300.073 147.744 300.853 147.399ZM312.333 144.571L312.362 144.95C311.3 145.992 310.242 147.041 309.192 148.094L308.905 148.148C309.218 146.898 310.918 145.347 311.86 144.426L312.333 144.571ZM172.522 144.163C172.389 145.481 170.274 147.057 169.011 147.169C168.02 147.359 167.604 147.44 166.606 147.479C166.879 146.857 167.084 146.905 167.79 146.468C171.204 146.473 171.102 144.034 172.522 144.163ZM115.461 143.595C115.121 144.305 114.884 144.32 114.173 144.822C113.997 144.78 113.743 144.651 113.566 144.572C113.856 144.022 114.355 143.951 115.06 143.609L115.461 143.595ZM232.144 142.427C230.64 143.133 229.895 143.394 228.722 144.574C228.361 144.708 228.396 144.654 227.979 144.644C228.384 143.715 230.195 142.644 231.099 142.237L232.079 142.229L232.144 142.427ZM373.138 137.116L373.378 137.377C373.05 139.32 371.218 139.322 370.535 140.729C371.595 141.531 373.738 139.717 375.65 140.85C376.225 141.715 376.03 141.241 376.128 142.375C375.43 143.146 371.159 141.8 369.945 141.178L369.745 141.064C368.53 141.697 368.285 141.851 366.95 142.084C366.215 142.415 366.097 142.214 365.112 142.035L364.775 142.332L364.322 142.158L364.548 142.447L364.202 142.26L364.161 142.335L364.095 142.28L364.093 141.99C365.5 139.931 366.55 139.217 368.692 138.071C369.602 137.417 372.003 137.057 373.138 137.116ZM364.338 142.479L364.053 142.539L364.161 142.335L364.338 142.479ZM366.765 141.78H366.766H366.765ZM342.955 138.267C342.63 139.698 340.918 139.747 339.12 140.915L338.87 141.082C338.738 140.558 338.752 140.588 338.827 140.048C339.427 139.617 341.783 138.947 342.955 138.267ZM111.405 128.751C110.898 130.209 110.756 132.251 112.57 132.912C113.766 132.161 113.515 132.068 114.72 132.042C116.608 133.044 115.859 135.257 114.877 136.7C114.279 136.806 112.974 135.902 112.228 135.555C110.896 136.736 112.955 139.314 110.353 140.842L110.013 140.738C110.115 139.866 110.943 138.995 111.343 138.014C110.724 136.716 109.146 136.759 107.82 134.983L106.405 135.464C107.511 133.71 110.004 130.214 111.405 128.751ZM219.364 138.268L219.383 138.647C218.632 139.655 218.455 140.235 217.433 140.703C217.059 140.315 217.004 140.254 216.712 139.804C217.988 139.328 218.226 139.209 219.031 138.108L219.364 138.268ZM130.224 135.6C130.547 135.723 130.386 135.619 130.653 135.981C129.577 137.679 129.29 138.624 129.13 140.562L128.787 140.334C128.254 139.064 129.4 136.6 130.224 135.6ZM364.928 137.431C365.357 137.605 365.155 137.482 365.452 137.966C365.242 139.289 363.72 139.912 362.625 140.444L362.122 140.408L362.067 140.05C362.812 139.006 363.913 138.244 364.928 137.431ZM208.522 139.259C209.667 139.153 210.882 138.809 211.954 139.087C211.388 139.586 210.178 139.639 209.345 139.759C208.593 140.021 207.399 140.567 206.714 140.343C207.298 139.721 207.746 139.6 208.522 139.259ZM353.51 138.333C354.385 137.894 354.225 137.799 355.022 137.903C354.74 138.519 354.345 138.659 353.755 139.01L353.478 138.992V138.991C353.203 138.956 352.795 138.966 352.508 138.962C351.955 139.348 351.727 139.61 351.067 139.564L350.822 139.239C351.71 138.491 352.402 138.297 353.51 138.333ZM368.875 138.653V138.654V138.653ZM239.183 137.646C240.536 138.104 244.111 138.159 244.547 138.708L244.06 138.791C242.644 138.616 239.052 138.746 238.477 138.405L239.183 137.646ZM322.372 134.624C320.782 135.884 318.755 136.611 316.878 137.347L316.76 137.24L316.78 136.925C317.67 136.196 321.042 134.853 322.237 134.362L322.372 134.624ZM122.973 135.869C125.006 135.557 126.427 135.665 128.368 136.415L128.167 136.802C126.234 136.466 124.82 136.341 122.858 136.309L122.973 135.869ZM357.33 131.377L357.305 131.785C355.342 133.691 353.96 135.26 351.452 136.344L351.232 136.129L351.492 135.726C354.11 134.507 354.848 133.024 357.155 131.2L357.33 131.377ZM296.226 133.361C297.486 133.195 300.758 133.062 302.058 133.291C302.383 133.348 302.392 133.575 302.577 133.933L301.987 134.207C300.56 134.153 297.438 133.933 296.226 133.361ZM336.65 131.336C338.765 130.816 338.855 130.432 340.622 131.775H340.623C343.93 130.417 342.398 130.997 344.54 132.627L344.585 133.253C342.338 134.902 340.135 131.425 338.093 131.78C337.453 131.892 337.175 131.8 336.545 131.657L336.65 131.336ZM261.527 123.869C262.515 125.985 264.385 127.369 265.675 129.673C265.417 130.937 265.298 131.94 265.15 133.208C261.755 132.904 258.068 127.153 257.718 124.062C258.96 123.974 260.277 123.93 261.527 123.869ZM324.588 131.126L324.475 131.507C323.52 132.112 322.678 132.288 321.593 132.611C321.363 132.345 321.478 132.523 321.343 132.029C321.781 131.571 323.691 131.272 324.48 131.068L324.588 131.126ZM160.401 130.545C160.211 131.194 159.206 131.857 158.631 132.325L158.438 132.406L158.361 132.115C158.949 131.117 159.03 130.984 159.978 130.329L160.401 130.545ZM294.29 127.561C293.782 128.017 292.142 129.358 291.832 129.771C291.457 130.506 291.065 131.583 290.435 131.981C290.115 130.969 290.972 129.879 291.595 129.174C292.29 128.452 293.248 127.643 294.29 127.561ZM283.59 128.156C283.635 129.309 283.622 129.698 282.732 130.492C280.382 129.658 278.92 130.772 276.09 131.698C275.792 131.691 275.945 131.737 275.673 131.474C277.523 130.188 281.612 130.141 283.292 127.896L283.59 128.156ZM247.755 128.284L247.728 128.578L246.61 129.493C246.475 129.741 246.576 129.636 246.279 129.776C246.34 128.886 246.468 128.806 247.005 128.111L247.755 128.284ZM330.646 128.028C329.891 129.403 329.17 129.777 327.652 129.629C328.217 129.075 329.856 128.236 330.646 128.028ZM131.796 126.252C132.437 126.491 132.224 126.383 132.765 126.815C132.422 128.416 128.275 127.757 126.994 128.94C126.355 128.868 125.85 128.893 125.355 128.511C126.606 127.267 129.84 127.545 131.796 126.252ZM333.827 127.349C332.51 127.805 331.987 127.854 330.646 128.028C331.448 127.406 332.087 127.277 333.06 126.96L333.827 127.349ZM364.103 126.279C365.53 126.494 366.255 126.472 367.183 127.552L367.105 127.914C366.323 128.186 365.577 127.79 364.76 127.503C363.745 127.468 363.31 127.699 361.905 127.571L361.978 127.309L364.103 126.279ZM355.835 126.297C356.94 126.535 357.093 126.375 357.78 127.027L357.755 127.386C357.045 127.603 356.26 127.037 355.188 127.136C354.508 127.362 353.67 127.718 353.013 127.506C353.805 126.776 354.773 126.616 355.835 126.297ZM335.527 126.567C334.957 126.819 334.39 127.08 333.827 127.349L333.061 126.96L335.225 126.08L335.527 126.567ZM337.942 125.237C337.547 125.767 336.31 126.168 335.527 126.567L335.226 126.08C336.363 125.54 336.69 125.296 337.942 125.237ZM342.567 125.087C342.065 125.667 340.273 126.163 339.445 126.454C339.185 126.247 339.307 126.392 339.17 125.951C339.957 125.486 341.43 125.252 342.375 125.045L342.567 125.087ZM155.697 124.375C156.217 124.446 156.008 124.334 156.346 124.673C155.767 125.317 155.297 125.763 154.663 126.356L154.145 126.272C154.205 125.625 155.119 124.95 155.697 124.375ZM301.418 120.469C301.992 120.449 302.115 120.501 302.685 120.62L302.707 120.853C301.66 121.306 300.407 121.672 299.603 122.458C299.14 123.121 299.42 122.969 298.805 123.25L298.697 122.759C299.452 121.189 299.733 121.147 301.418 120.469ZM296.928 122.177C296.33 123.09 295.335 123.267 294.33 123.223L293.978 122.948L294.055 122.688C295.267 122.461 295.66 122.384 296.718 121.755L296.928 122.177ZM341.76 118.78C341.739 119.529 340.038 121.062 339.24 122.041C339.045 121.883 339.041 121.781 338.913 121.53C339.263 119.788 340.057 119.893 341.532 118.574L341.76 118.78ZM324.678 119.331C325.417 119.275 325.15 119.21 325.8 119.484C325.122 120.159 323.192 119.958 322.202 120.26L321.155 120.632C320.4 120.414 320.585 120.632 320.312 120.152C321.143 119.333 323.468 119.435 324.678 119.331ZM342.845 119.115C343.592 119.259 344.793 119.368 345.41 119.671L345.197 120.134C344.315 120.254 343.353 120.563 342.673 120.004L342.845 119.115ZM305.686 118.548C306.63 118.841 306.675 118.876 307.537 119.38L307.518 119.623L306.945 119.438C306.268 119.315 305.465 119.38 304.765 119.4L304.748 119.192L305.686 118.548ZM352.59 115.323C352.79 115.6 352.995 115.875 353.202 116.146C354.402 116.303 355.967 116.738 356.942 116.291C357.237 116.156 357.13 116.219 357.582 116.394L357.532 116.763C356.935 117.237 356.807 117.48 356.125 117.595C352.618 115.998 352.232 118.252 350.923 117.693L352.01 116.551C352.032 116.089 351.997 116.01 351.867 115.578L351.742 115.165L352.59 115.323ZM213.322 117.294C214.407 117.206 214.463 117.176 215.102 117.729C214.247 117.78 213.733 117.787 212.879 117.755L212.562 117.375C212.815 117.344 213.068 117.317 213.322 117.294ZM230.69 116.372C231.848 116.227 233.264 116.118 234.411 116.262L234.509 116.791C233.638 116.978 231.588 116.811 230.69 116.372ZM292.692 113.412C293.137 114.31 293.563 114.795 293.498 115.682C292.936 116.142 293.187 116.052 292.527 116.188C291.542 116.465 290.558 116.631 289.535 116.628L289.572 116.321L290.497 115.688H290.498C291.358 114.787 291.721 114.434 292.373 113.386L292.692 113.412ZM335.149 113.92L335.263 114.252C333.843 114.645 332.565 114.907 331.357 115.767L330.688 116.316L330.442 116.152C330.828 114.852 333.117 114.157 334.274 113.765L335.149 113.92ZM365.755 104.511C366.535 107.433 367.108 111.054 366.78 114.077C366.64 112.658 366.695 111.609 365.686 110.664C364.508 110.428 362.9 110.989 361.37 111.04L361.141 110.798C363.841 108.075 365.625 108.806 365.755 104.511ZM308.38 109.771C307.403 110.364 306.973 110.335 305.803 110.5L305.188 110.476L305.232 110.261C306.372 109.738 306.638 109.757 307.918 109.59L308.228 109.497L308.38 109.771ZM259.646 108.497C258.986 109.071 258.32 109.639 257.65 110.201L257.433 110.142C257.59 108.955 258.488 108.706 259.463 108.238L259.646 108.497ZM285.5 107.296C285.647 107.431 285.565 107.328 285.603 107.679C283.865 108.881 282.428 108.008 279.623 109.639L279.425 109.414L279.6 108.991C281.917 107.504 283.115 108.113 285.5 107.296ZM205.986 107.404C206.199 107.518 206.074 107.431 206.305 107.731C205.722 108.572 204.985 108.964 204.13 109.546L203.649 109.43L203.606 109.054C204.628 108.452 205.061 108.147 205.986 107.404ZM294.228 105.801C293.7 106.514 293.593 106.599 293.378 107.489L293.705 107.771C294.915 107.429 295.428 106.986 296.315 107.886L296.105 108.159C294.748 108.399 292.89 109.014 292.393 107.424C292.755 106.541 293.205 105.898 293.71 105.1L294.228 105.801ZM331.303 105.415C331.68 105.66 331.548 105.572 331.803 105.999C331.473 106.653 330.42 107.529 329.843 108.069L329.652 107.883C329.698 107.203 330.773 106.103 331.303 105.415ZM211.354 106.385L211.263 106.767L209.833 107.536L209.426 107.41C209.751 106.773 210.307 106.663 211.082 106.241L211.354 106.385ZM357.022 103.366C357.707 103.963 359.012 103.907 359.215 104.629C358.637 105.181 358.063 105.39 357.343 105.736C355.853 105.965 354.3 106.973 353.545 106.992L353.075 106.051C353.135 104.796 353.243 106.433 354.388 104.575C354.983 103.744 355.665 102.731 356.327 101.974C356.382 102.086 357.022 103.366 357.022 103.366ZM337.636 104.36C338.331 104.259 338.783 104.239 339.705 104.408C338.72 104.981 338.063 104.638 336.98 104.868C336.288 105.565 334.95 107.061 333.915 106.748C334.305 106.026 336.066 104.844 336.833 104.484L337.636 104.36ZM296.595 103.662C296.107 104.497 295.065 105.397 294.228 105.801L293.71 105.099C294.562 104.34 295.367 103.393 296.457 103.314L296.595 103.662ZM307.723 102.254C308.398 102.286 308.665 102.16 309.025 102.514C308.233 102.936 308.007 103.069 307.317 103.651L307.16 103.786C306.695 104.216 306.952 104.148 306.428 104.156C306.813 103.15 306.963 103.065 307.723 102.254ZM259.308 100.756C259.242 102.001 257.942 102.969 257.032 103.795L256.68 103.254C257.732 101.863 257.938 102.617 258.91 100.381L259.308 100.756ZM283.308 101.521C283.345 101.68 283.285 101.848 283.265 102.011C282.142 103.181 281.305 103.445 279.732 103.793L279.8 103.424C280.987 102.823 282.155 102.188 283.308 101.521ZM230.888 98.9541C231.81 99.1259 233.756 99.3511 234.394 99.7549L234.077 100.555C232.417 99.5603 231.814 100.062 230.639 99.4443L230.888 98.9541ZM244.412 95.5664C243.91 96.2777 240.623 98.2083 239.682 98.8008L239.609 98.5195C240.026 97.4283 243.262 95.8389 244.326 95.2568L244.412 95.5664ZM293.26 96.4102C293.522 96.4139 293.626 96.4809 293.891 96.5674C293.393 97.3434 291.663 98.3234 290.853 98.7646L290.53 98.7021L290.495 98.4365C291.455 97.5778 292.197 97.1166 293.26 96.4102ZM340.742 94.5664C342.697 95.0546 342.76 94.3885 345.095 95.4131L345.03 95.7266L344.455 95.6426C343.128 95.9211 341.402 96.9224 340.38 96.5752C340.042 95.7911 340.33 95.6764 340.742 94.5664ZM308.062 89.1543C308.807 89.241 308.792 89.1377 309.327 89.5225C305.335 90.8587 307.517 90.2136 305.86 93.502L305.26 93.6611L305.035 93.4551C305.568 91.5741 306.24 89.9978 308.062 89.1543ZM235.139 88.9453C234.687 89.5323 231.291 92.0289 230.422 92.6816L230.23 92.4834L230.315 92.0283C231.529 90.7744 233.405 89.5879 234.918 88.7109L235.139 88.9453ZM219.521 91.2939C221.274 91.6559 221.846 91.7691 223.585 91.3584L223.727 91.7754C221.547 93.1388 221.477 92.7442 219.521 91.2939ZM292.595 91.0293C293.862 91.2555 294.737 92.0016 296.237 91.3037L296.55 91.5176C296.002 92.1132 296.025 92.1687 295.232 92.4297C294.057 92.3982 293.4 91.8753 292.595 91.0293ZM261.165 88.8584C259.863 89.3429 259.12 89.3737 257.765 89.5225L257.223 89.5127C257.83 88.814 259.842 88.702 260.792 88.6348L261.26 88.5527L261.165 88.8584ZM241.865 86.8447C243.165 87.0984 244.546 87.2722 245.862 87.4629C245.17 87.7816 244.257 87.7773 243.472 87.834C242.608 87.8395 242.147 88.6562 241.62 89.2529C241.375 88.4041 241.653 87.7273 241.865 86.8447ZM283.247 82.3623C283.667 83.8115 280.637 85.6201 280.27 87.0195C280.4 87.5788 280.462 87.8388 280.51 88.415L280.54 88.8359C279.988 88.2562 279.747 88.0526 279.345 87.3398C279.922 86.0386 281.947 83.1459 282.992 82.1934L283.247 82.3623ZM235.945 83.2754C234.937 83.9623 232.948 84.3095 231.637 84.917C231.315 84.8633 230.932 84.774 230.615 84.708L230.466 84.374C231.106 83.5373 234.206 83.3129 235.437 83.1309L235.808 83.1289L235.945 83.2754ZM293.812 78.8955C294.988 78.8933 296.288 79.0183 296.125 80.5586C295.413 81.1794 295.597 80.9751 294.357 80.9766C293.748 81.5138 293.175 82.1601 292.357 81.9648C292.03 80.7349 293.078 79.7356 293.812 78.8955ZM317.832 80.1904C318.237 80.1789 318.402 80.2284 318.805 80.2881L318.835 80.501C317.853 80.9994 317.094 81.3066 316.082 81.7148L315.643 81.8877L315.43 81.6602C316.312 80.8149 316.722 80.7006 317.832 80.1904ZM282.72 74.418C282.425 75.0076 281.658 75.2092 280.94 75.5576L280.646 75.541L280.487 75.0898C280.942 74.5773 281.628 74.4561 282.308 74.2334L282.72 74.418ZM272.82 72.1494L272.787 72.5166L271.105 73.6279C270.076 74.3074 269.958 74.3451 269.49 75.5342C269.215 75.2642 269.332 75.4483 269.282 74.9131C270.247 73.1711 270.835 72.7139 272.68 72.0098L272.82 72.1494Z" fill="#E88033"/>
</g>
<defs>
<clipPath id="clip0_64_2259">
<rect width="480" height="480" fill="white"/>
</clipPath>
</defs>
</svg>
