<svg width="480" height="480" viewBox="0 0 480 480" fill="none" xmlns="http://www.w3.org/2000/svg">
<g clip-path="url(#clip0_64_1751)">
<path d="M171.814 227.659C167.36 230.33 160.866 236.438 157.861 240.707C155.917 243.469 154.308 246.499 151.969 248.966C151.23 249.745 150.367 250.563 149.432 251.098C148.243 251.778 141.227 253.73 139.972 253.56C137.051 253.17 133.186 250.085 131.269 247.967C128.322 244.71 125.432 240.238 124.539 235.878C124.073 233.601 123.886 231.207 123.242 228.975C122.366 225.937 120.987 223.006 120.475 219.869C120.092 217.521 120.329 215.015 119.845 212.702C119.542 211.253 118.589 209.998 118.245 208.529C116.215 199.877 115.879 194.094 116.306 185.324C116.719 176.817 117.364 167.362 119.74 159.182C121.909 151.712 125.928 145.44 129.921 138.876C131.665 136.01 133.279 132.957 135.358 130.317C140.481 123.81 155.007 110.301 161.731 105.714C166.401 102.529 171.556 99.64 176.557 97C178.811 95.8103 181.525 94.8383 183.599 93.366C184.974 92.3893 186.073 90.9008 187.347 89.7828C189.755 87.6693 201.997 84.839 205.586 84.2135C210.066 83.4328 214.581 83.2728 219.084 82.7388L232.129 81.3163C233.472 81.1733 237.489 80.612 238.651 80.6568C242.783 80.6713 247.147 81.3363 251.247 81.3893C256.352 81.4553 260.752 80.9023 265.875 82.0605C267.655 82.3488 269.505 82.172 271.277 82.4313C281.887 83.9843 292.485 87.4715 302.752 90.4653C305.902 91.3838 310.73 95.1285 313.775 96.515C319.252 99.0113 324.047 102.354 329.072 105.585C332.587 107.928 338.172 110.621 341.162 113.595C351.275 123.656 362.032 134.336 367.857 147.555C369.072 150.76 369.567 153.845 370.387 157.192C372.562 166.062 372.667 175.33 373.34 184.388C373.38 184.927 372.162 188.304 371.98 189.22C369.355 202.254 361.89 214.271 353.827 224.637C351.24 227.957 346.36 231.334 342.872 234.161C340.765 234.006 339.72 234.911 338.207 234.877C334.612 234.446 335.18 229.178 334.202 227.149C331.975 222.517 329.685 221.816 329.77 216.268C328.25 214.141 326.522 209.478 325.405 206.919C323.742 203.117 322.052 199.962 320.15 196.287C318.132 192.515 315.992 187.605 313.487 184.163C311.63 181.607 304.557 177.852 301.71 176.658C297.817 175.028 294.185 174.379 290.532 172.042L290.147 171.794C283.29 172.217 275.845 171.031 268.88 172.204C268.36 172.291 266.352 173.224 265.537 173.438C262.377 174.263 254.365 177.156 251.785 179.062C246.182 183.247 241.632 188.906 236.939 193.999C233.412 197.827 228.408 201.744 224.304 204.913C219.598 208.546 214.507 211.279 209.594 214.512C206.033 216.856 203.276 219.718 199.149 221.292C192.529 224.523 187.491 223.623 180.496 225.077C178.789 225.432 176.154 226.798 174.237 227.425L173.718 226.671C173.991 225.6 174.581 224.796 175.161 223.843L175.074 223.744C174.697 224.101 173.833 224.992 173.432 225.177L173.267 224.935C173.519 223.684 173.475 223.49 174.335 222.639C173.491 222.396 169.473 225.365 171.814 227.659ZM340.155 214.88L340.225 215.318L340.687 215.435C341.987 214.628 344.132 213.022 344.207 211.394C343.587 210.434 342.98 210.457 341.885 210.311C341.16 210.727 339.232 211.69 338.87 212.239L339.087 212.659C339.937 212.717 340.887 212.662 341.522 213.161C341.535 214.077 340.877 214.327 340.155 214.88ZM204.845 212.016C206.256 212.684 207.396 213.131 208.461 211.616C208.319 210.809 207.535 210.063 206.801 209.701C205.187 210.57 204.185 211.017 202.864 212.294L202.798 212.663C203.523 212.764 204.17 212.354 204.845 212.016ZM356.625 213.655C357.48 212.941 357.505 213.136 357.832 212.238C357.607 211.396 356.585 210.642 355.862 210.167C355.372 210.952 354.942 211.61 354.545 212.45C355.202 213.268 355.665 212.859 356.625 213.655ZM348.375 194.935C351.267 194.907 351.465 194.819 353.84 192.743C354.285 192.355 355.745 190.687 355.985 190.232L355.57 189.979C351.97 192.729 353.865 193.544 348.122 194.726L348.187 195.068L348.375 194.935ZM353.24 205.18C354.21 204.844 355.185 204.697 355.662 203.943C354.945 203.42 353.68 203.563 352.795 203.619L352.472 203.842C351.545 203.667 351.7 203.531 351.102 203.915C351.26 204.67 352.192 205.11 352.875 205.412L353.24 205.18ZM262.332 166.864C263.05 166.521 263.015 166.549 263.575 165.987C263.49 164.421 261.705 164.481 260.535 164.565L259.395 165.258L259.33 165.565C260.147 165.569 261.485 165.432 262.07 165.884L262.332 166.864ZM199.59 212.444L199.899 212.587C201.105 211.88 202.062 211.465 202.602 210.153L202.496 210.097C200.969 211.124 199.351 210.579 198.394 211.329C198.557 211.985 198.822 211.942 199.59 212.444ZM351.19 172.474C353.457 171.073 354.63 170.826 356.74 168.956L356.782 168.592L356.627 168.493C355.287 169.327 351.842 171.152 351.065 172.02L351.075 172.374L351.19 172.474ZM304.142 112.915C304.837 112.684 305.1 112.639 305.702 112.197C305.342 111.468 304.885 111.312 304.377 110.648C303.955 111.367 302.912 112.888 302.927 113.608C303.582 113.523 303.62 113.37 304.142 112.915ZM234.325 175.083C236.904 174.257 238.533 174.17 240.792 173.535L240.743 173.155L240.555 173.088C238.915 173.362 235.48 173.881 234.194 174.726L234.023 175.109L234.325 175.083ZM187.922 191.816C189.085 191.529 189.593 191.486 190.596 190.793L190.445 190.464L190.168 190.622C189.185 190.786 188.245 190.855 187.383 191.323L187.397 191.615L187.922 191.816ZM305.76 98.8348C306.805 98.7963 308.262 98.667 308.84 97.6388C308.382 97.3323 308.645 97.4248 307.982 97.5288C307.162 97.6465 305.42 97.768 304.87 98.237C305.342 98.7188 305.145 98.5798 305.76 98.8348ZM213.106 189.187C212.362 189.815 211.004 190.792 210.671 191.615L210.894 191.815C211.989 191.035 212.509 190.717 213.398 189.668C213.277 189.248 213.397 189.392 213.106 189.187ZM152.066 228.678C153.171 228.452 153.905 228.371 154.914 227.85L154.897 227.612L154.345 227.55C153.082 227.773 152.744 227.788 151.648 228.423L151.688 228.732L152.066 228.678ZM235.691 177.937C234.537 178.832 234.09 179.719 233.418 181.013L233.488 181.382C234.538 180.554 234.978 179.711 235.707 178.591C235.709 178.409 235.726 178.099 235.691 177.937ZM248.738 151.087C249.33 150.393 250.515 149.294 250.54 148.554L250.252 148.402C249.394 149.317 248.855 149.781 248.301 150.916L248.475 151.177L248.738 151.087ZM274.615 91.8198L274.827 92.3485C276.087 92.572 278.67 93.1548 279.812 92.8788L279.615 92.54C277.96 92.3498 276.122 91.5265 274.615 91.8198ZM351.592 216.626C352.332 216.316 353.27 216.067 353.692 215.515C353.312 215.23 353.467 215.281 353.03 215.164C352.085 215.582 351.81 215.629 351.125 216.354L351.285 216.631L351.592 216.626ZM357.04 202.77C357.875 202.172 358.807 201.634 359.342 200.792L359.145 200.499C358.355 201.048 357.345 201.621 356.857 202.413L357.04 202.77ZM306.887 124.014C305.525 124.61 303.557 125.403 302.372 126.195V126.555L302.455 126.6C303.537 126.14 306.202 125.101 306.995 124.462L307.02 124.099L306.887 124.014ZM240.062 178.51C238.643 178.68 237.337 179.368 236.392 180.44L236.544 180.749L236.903 180.857C237.62 180.246 240.225 178.704 240.264 178.553L240.062 178.51ZM356.61 133.55C355.757 134.016 352.81 135.464 352.5 136.131L352.857 136.269C353.815 135.701 356.485 134.433 356.905 133.827C356.672 133.546 356.8 133.589 356.61 133.55ZM210.789 199.991C209.773 200.384 206.6 201.515 206.1 202.299L206.377 202.386C207.803 201.857 209.712 201.22 210.994 200.468L211.005 200.164L210.789 199.991ZM195.754 213.508C194.103 214.26 192.984 215.019 191.905 216.529C192.041 216.991 191.915 216.838 192.183 217.056C192.992 216.357 195.534 214.444 195.838 213.726L195.754 213.508Z" fill="#E88033"/>
<path d="M211.383 115.746C213.113 115.441 216.813 116.309 218.333 117.319C225.45 122.05 224.986 133.927 224.299 141.435C224.173 142.818 223.34 146.264 223.551 147.214C226.038 149.64 227.796 147.735 231.383 148.633L231.72 148.719C234.079 147.668 236.523 146.621 238.805 145.579C249.184 140.839 245.757 128.557 248.498 120.009C248.781 119.127 249.098 118.447 249.943 118.057C253.568 120.139 251.765 138.146 250.183 141.77C249.094 144.262 247.048 147.471 246.365 149.609C244.043 150.98 241.807 153.08 239.395 154.668C235.239 157.406 227.869 157.767 222.968 157.873C222.296 157.888 219.91 157.198 218.738 157.072C215.297 158.195 212.222 162.232 209.424 164.333C207.954 165.004 205.291 166.283 203.806 166.579C200.768 167.186 200.947 167.404 198.643 169.436L198.372 169.357C196.617 168.877 192.578 169.683 190.661 170.134C189.141 172.002 188.244 174.644 187.196 175.898C184.608 178.996 180.692 182.258 177.687 185.156C177.202 185.134 177.372 185.154 176.933 185.093L176.647 185.051C169.146 190.389 158.873 191.331 150.874 187.288C147.863 185.767 147.98 187.308 144.789 184.439C143.813 178.706 138.193 174.641 140.333 167.232C142.177 158.852 144.229 150.16 152.308 145.714C154.061 146.132 155.832 145.961 156.766 147.574C156.877 149.004 156.514 149.393 156.095 150.795L156.549 151.404C156.55 152.876 150.16 155.767 149.379 157.808C149.277 158.073 150.002 158.141 149.674 159.3C149.068 159.23 149.275 159.214 148.677 159.33C147.395 161.88 146.029 166.798 147.136 169.56C152.7 183.433 170.438 180.11 179.722 172.341C180.933 171.327 181.727 169.554 182.433 168.168C180.316 167.361 179.79 166.702 178.05 165.657C172.413 162.271 170.638 158.434 167.61 152.753C167.636 151.163 167.678 149.574 167.738 147.985C167.947 143.131 169.433 135.316 173.289 132.345C178.652 128.213 185.46 130.502 189.222 135.368C194.705 142.462 195.157 149.389 193.987 157.931C193.887 158.665 193.939 159.256 194.386 159.779C196.243 160.291 196.695 159.809 198.366 159.575C204.682 158.691 206.901 155.154 212.729 152.955C210.989 149.906 208.382 148.373 206.897 144.957C206.252 143.474 204.272 137.642 203.488 135.864C203.643 135.663 203.798 135.461 203.954 135.26C203.044 128.815 203.034 119.338 211.383 115.746Z" fill="#4B4746"/>
<path fill-rule="evenodd" clip-rule="evenodd" d="M365.318 290.04C368.648 290.085 370.153 292.535 371.35 295.223C373.82 300.765 374.775 306.602 376.283 312.442C379.048 323.17 382.117 334.243 382.002 345.423C381.92 353.445 382.533 361.266 382.163 369.27C382.048 371.753 382.332 374.372 382.092 376.862C379.977 389.312 377.59 405.399 365.585 412.287C364.53 412.892 363.545 413.832 362.398 414.295C354.756 416.487 347.595 413.12 340.818 409.895C332.173 410.743 325.13 414.717 315.9 413.897C308.265 413.22 308.947 413.088 305.087 406.458C305.095 403.67 302.657 400.94 301.932 398.138C301.825 397.723 301.997 395.522 301.957 395.372C299.15 387.337 289.407 379.63 282.605 374.893C279.782 372.928 275.023 374.55 275.233 368.975C275.326 366.447 277.198 360.247 279.618 359.455C285.37 356.89 296.34 357.777 301.627 355.415C308.297 352.43 317.88 341.847 323.457 336.795C326.515 334.025 329.1 327.43 331.18 324.003C334.818 318.01 338.185 312.327 341.438 306.162C344.818 299.152 343.493 296.528 349.693 290.44C350.908 290.463 352.873 290.322 354.02 290.412C358.942 290.807 360.433 291.128 365.318 290.04ZM107.56 291.027C109.951 290.912 112.65 291.353 115.098 291.383C116.528 291.4 122.32 290.925 123.275 291.683C126.329 294.105 126.749 299.455 128.85 302.64C130.64 305.352 132.904 307.735 134.809 310.367C138.158 314.95 140.34 319.498 144.646 323.338C146.776 325.238 149.091 326.95 151.291 328.785C158.558 334.848 165.908 342.023 174.287 346.44C177.548 348.16 181.616 349.838 185.034 351.298C189.201 352.933 192.83 354.013 196.436 356.843C200.404 359.96 203.126 369.25 200.149 373.49C198.002 376.548 191.37 379.44 188.117 381.845C184.074 384.832 179.925 388.06 176.466 391.803C174.419 394.01 173.924 394.923 174.066 397.643C174.1 401.93 169.048 407.603 165.254 409.013C158.62 411.477 150.194 407.255 144.287 404.933C142.795 407.313 140.223 409.925 137.219 409.865C130.629 409.73 126.22 408.352 120.852 404.604C120.01 404.017 117.606 404.325 116.662 403.088C115.3 401.235 114.225 399.447 112.764 397.625C102.958 385.393 98.7473 371.05 98.9213 355.518C98.9496 352.99 98.2175 350.274 98.3627 347.917C99.1575 335 99.8812 322.357 102.398 309.617C103.447 304.325 103.54 294.76 107.56 291.027ZM362.298 405.167H362.297H362.298ZM319.892 398.277V398.276V398.277ZM335.185 392.573V392.574V392.573ZM146.536 391.635V391.634V391.635ZM131.14 391.51L130.766 391.704L130.767 391.705L131.141 391.51H131.14ZM131.613 390.248C131.522 390.312 131.433 390.379 131.348 390.449C131.433 390.379 131.522 390.312 131.613 390.248ZM133.706 389.5L133.682 389.742H133.683L133.707 389.5L133.192 389.433L133.706 389.5ZM133.192 389.433C132.85 389.574 132.504 389.729 132.173 389.907C132.504 389.729 132.85 389.574 133.192 389.433ZM166.012 384.498V384.497V384.498ZM324.343 383.743C324.222 383.861 324.107 383.982 323.995 384.11C324.107 383.982 324.222 383.861 324.343 383.743ZM377.005 376.162V376.163V376.162ZM310.506 376.48C310.338 376.534 310.194 376.575 310.059 376.598C310.194 376.575 310.338 376.534 310.506 376.48ZM309.038 376.333C309.12 376.385 309.197 376.429 309.27 376.466C309.197 376.429 309.12 376.384 309.038 376.332V376.333ZM188.319 375.985H188.32H188.319ZM340.403 373.787V373.788V373.787ZM377.12 369.838H377.121H377.12ZM336.102 367.697H336.103H336.102ZM337.943 367.036H337.942H337.943ZM178.586 366.433H178.587H178.586ZM374.83 363.105H374.831H374.83ZM367.956 362.675C368.097 362.738 368.235 362.78 368.372 362.806C368.167 362.767 367.958 362.689 367.745 362.564L367.956 362.675ZM368.972 362.806C368.842 362.83 368.709 362.839 368.575 362.831C368.709 362.839 368.842 362.83 368.972 362.806ZM370.904 361.331C370.801 361.467 370.696 361.599 370.587 361.723C370.696 361.599 370.801 361.467 370.904 361.331ZM371.874 359.786H371.875H371.874ZM368.671 355.955C368.741 355.966 368.812 355.983 368.884 356.009C368.812 355.983 368.741 355.966 368.671 355.955ZM123.693 351.372V351.373V351.372ZM377.884 341.649H377.885H377.884ZM379.124 339.452H379.125H379.124ZM125.527 319.337V319.338V319.337ZM126.531 318.416V318.415V318.416ZM154.897 227.612L154.914 227.85C153.905 228.371 153.171 228.452 152.066 228.678L151.689 228.732L151.648 228.423C152.744 227.789 153.083 227.772 154.345 227.55L154.897 227.612ZM174.335 222.64C173.475 223.49 173.52 223.684 173.267 224.935L173.432 225.177C173.832 224.992 174.697 224.102 175.074 223.744L175.162 223.843C174.581 224.795 173.991 225.6 173.717 226.671L174.237 227.425C173.268 227.597 172.801 227.627 171.814 227.658C169.473 225.364 173.491 222.396 174.335 222.64ZM195.838 213.727C195.533 214.445 192.992 216.357 192.183 217.056C191.915 216.838 192.041 216.991 191.905 216.529C192.984 215.019 194.103 214.261 195.754 213.508L195.838 213.727ZM353.03 215.164C353.467 215.281 353.313 215.23 353.693 215.515C353.27 216.067 352.332 216.315 351.592 216.626L351.285 216.631L351.125 216.354C351.81 215.629 352.085 215.581 353.03 215.164ZM341.885 210.312C342.98 210.457 343.587 210.434 344.207 211.394C344.132 213.022 341.988 214.628 340.688 215.435L340.225 215.318L340.155 214.88C340.877 214.327 341.535 214.077 341.523 213.161C340.888 212.662 339.937 212.717 339.087 212.659L338.871 212.239C339.233 211.69 341.16 210.727 341.885 210.312ZM355.863 210.167C356.585 210.642 357.607 211.396 357.832 212.237C357.505 213.136 357.479 212.941 356.624 213.655C355.665 212.86 355.203 213.267 354.545 212.45C354.943 211.61 355.373 210.952 355.863 210.167ZM206.801 209.701C207.535 210.063 208.319 210.808 208.461 211.616C207.396 213.131 206.255 212.685 204.845 212.017C204.17 212.354 203.523 212.764 202.798 212.663L202.865 212.293C204.185 211.017 205.187 210.57 206.801 209.701ZM202.602 210.152C202.062 211.465 201.105 211.879 199.899 212.587L199.59 212.444C198.822 211.942 198.557 211.984 198.395 211.328C199.351 210.579 200.97 211.124 202.497 210.097L202.602 210.152ZM352.795 203.619C353.68 203.562 354.945 203.42 355.663 203.942C355.185 204.697 354.21 204.844 353.24 205.18L352.875 205.411C352.193 205.109 351.261 204.67 351.103 203.915C351.7 203.531 351.545 203.667 352.472 203.842L352.795 203.619ZM359.342 200.792C358.807 201.633 357.874 202.172 357.039 202.77L356.858 202.412C357.345 201.62 358.355 201.048 359.145 200.499L359.342 200.792ZM211.005 200.164L210.995 200.468C209.712 201.219 207.803 201.857 206.377 202.386L206.1 202.299C206.6 201.515 209.773 200.384 210.789 199.991L211.005 200.164ZM355.985 190.231C355.745 190.686 354.285 192.355 353.84 192.743C351.465 194.818 351.268 194.908 348.375 194.936L348.188 195.068L348.122 194.726C353.865 193.543 351.97 192.729 355.57 189.979L355.985 190.231ZM190.596 190.793C189.594 191.486 189.085 191.529 187.922 191.816L187.398 191.615L187.383 191.322C188.245 190.855 189.186 190.786 190.168 190.622L190.446 190.464L190.596 190.793ZM213.107 189.187C213.397 189.392 213.277 189.248 213.398 189.668C212.509 190.718 211.989 191.035 210.894 191.815L210.671 191.615C211.005 190.792 212.363 189.815 213.107 189.187ZM235.691 177.937C235.726 178.099 235.709 178.409 235.707 178.591C234.978 179.71 234.538 180.553 233.488 181.382L233.417 181.013C234.09 179.719 234.536 178.832 235.691 177.937ZM240.264 178.553C240.225 178.704 237.62 180.247 236.903 180.857L236.544 180.749L236.393 180.44C237.337 179.368 238.643 178.681 240.062 178.51L240.264 178.553ZM240.743 173.155L240.791 173.535C238.533 174.17 236.904 174.257 234.325 175.083L234.023 175.108L234.194 174.726C235.48 173.881 238.915 173.362 240.555 173.088L240.743 173.155ZM356.783 168.592L356.74 168.955C354.63 170.826 353.457 171.073 351.19 172.475L351.075 172.374L351.065 172.02C351.842 171.152 355.287 169.326 356.627 168.493L356.783 168.592ZM260.536 164.565C261.705 164.481 263.489 164.421 263.575 165.986C263.015 166.549 263.05 166.521 262.332 166.863L262.07 165.884C261.485 165.432 260.148 165.569 259.33 165.565L259.395 165.258L260.536 164.565ZM177.469 139.605C180.293 141.035 183.385 141.727 185.434 144.363C186.08 145.195 186.516 145.65 187.241 146.402C187.208 149.048 187.862 150.401 188.204 152.891C188.512 155.136 188.092 158.828 185.271 159.032C179.38 156.963 171.32 149.417 174.235 142.445C174.172 142.599 176.688 140.943 177.469 139.605ZM250.54 148.555C250.515 149.295 249.331 150.392 248.739 151.087L248.475 151.177L248.301 150.916C248.855 149.781 249.394 149.317 250.252 148.401L250.54 148.555ZM210.23 124.191C215.79 127.024 218.663 128.377 219.08 135.656C219.186 137.508 219.45 143.39 218.64 144.751C215.388 143.051 214.15 141.51 212.416 138.35C209.268 132.61 208.527 130.352 210.23 124.191ZM356.61 133.551C356.8 133.59 356.673 133.546 356.905 133.826C356.485 134.432 353.815 135.701 352.858 136.27L352.5 136.131C352.811 135.464 355.757 134.017 356.61 133.551ZM307.02 124.099L306.996 124.462C306.203 125.101 303.538 126.14 302.455 126.601L302.372 126.555V126.195C303.557 125.403 305.525 124.61 306.887 124.014L307.02 124.099ZM304.377 110.647C304.885 111.311 305.343 111.468 305.703 112.197C305.1 112.639 304.837 112.685 304.142 112.915C303.62 113.37 303.582 113.523 302.927 113.608C302.912 112.888 303.955 111.366 304.377 110.647ZM307.983 97.5283C308.645 97.4243 308.383 97.3322 308.84 97.6386C308.263 98.6669 306.805 98.7964 305.76 98.8349C305.145 98.58 305.343 98.7186 304.871 98.2373C305.421 97.7683 307.163 97.646 307.983 97.5283ZM274.615 91.8203C276.122 91.5271 277.96 92.3497 279.615 92.54L279.813 92.8789C278.67 93.1549 276.088 92.5721 274.828 92.3486L274.615 91.8203Z" fill="#E88033"/>
</g>
<defs>
<clipPath id="clip0_64_1751">
<rect width="480" height="480" fill="white"/>
</clipPath>
</defs>
</svg>
