<svg width="480" height="480" viewBox="0 0 480 480" fill="none" xmlns="http://www.w3.org/2000/svg">
<g clip-path="url(#clip0_79_2626)">
<path d="M207.072 93.1104C216.324 92.2012 225.633 91.8945 234.927 92.1895C238.045 92.2885 243.349 92.0332 246.287 92.4884C250.627 93.1608 255.71 94.4978 259.987 95.6153C262.547 96.3456 265.26 96.6895 267.815 97.4073C270.478 98.1558 273.135 99.4103 275.763 100.252C280.418 101.745 284.935 103.568 289.407 105.526C295.53 108.206 301.54 111.038 307.015 114.909C309.645 116.768 311.705 119.255 313.965 121.519C319.14 126.572 324.28 131.811 328.888 137.392C330.448 139.279 331.98 143.474 333.258 145.225C335.393 148.143 337.675 150.579 339.723 153.646C344.985 161.519 346.48 167.431 347.058 176.622C347.243 179.533 347.945 183.032 347.912 186.065C347.885 188.608 348.672 191.508 348.64 194.002C348.615 194.139 348.588 194.275 348.561 194.412C347.518 195.995 346.773 196.574 345.062 197.385C346.252 198.161 346.388 196.606 348.748 198.316C348.845 198.483 348.965 198.665 348.98 198.87C349.683 207.77 345.003 215.759 340.74 223.182C340.11 224.276 339.253 225.327 338.128 225.607C336.325 225.384 334.843 224.836 333.605 223.501C331.351 226.03 330.545 227.234 327.28 228.125C322.233 226.064 312.49 228.822 307.495 230.579C302.195 229.17 300.665 231.196 296.12 231.163C283.215 231.07 269.973 230.455 257.41 227.287C252.835 226.133 249.787 226.143 245.635 223.495L242.502 223.46C233.648 217.543 222.878 216.297 213.964 210.286C212.677 209.359 209.47 208.4 208.35 207.503C200.108 200.904 191.873 194.867 182.63 189.638C179.909 188.098 176.464 185.449 173.789 183.603C173.529 183.024 172.999 182.456 172.587 181.953C172.705 180.21 175.625 178.364 174.787 177.04C172.576 176.484 171.462 177.854 170.212 179.287C168.87 178.915 168.464 179.028 167.105 179.217C166.738 179.01 166.518 178.967 166.113 178.833C165.55 178.99 165.295 178.978 164.907 179.488C161.405 184.091 157.834 188.655 154.258 193.201L138.955 212.996C137.318 215.157 135.144 217.522 133.741 219.749C128.352 228.304 122.863 241.88 114.73 247.874C113.663 247.373 111.129 246.221 110.514 244.982C107.45 238.812 106.468 230.867 105.916 224.017C105.832 222.967 107.449 218.428 107.243 217.118C107.1 216.212 105.968 216.898 105.331 215.749C105.575 214.419 107.616 210.554 108.329 209.106C105.799 202.859 113.22 178.579 116.023 171.392C118.733 164.445 122.988 153.605 126.201 146.942C129.544 140.011 139.378 126.23 145.037 121.145C146.732 121.067 146.491 120.968 147.359 122.586C147.776 122.816 147.799 122.896 148.235 122.965L148.711 123.96C150.764 124.782 152.508 119.864 151.552 118.379C151.32 118.019 151.171 117.032 151.112 116.58C154.568 113.962 158.215 111.523 162.058 109.428C162.74 109.056 164.878 109.061 165.459 108.675C166.139 108.221 167.609 105.99 168.339 105.671C173.028 103.623 178.041 101.779 182.905 100.213C185.794 99.2825 188.81 97.0996 191.498 96.2628C193.59 95.612 197.226 95.1048 199.494 94.7003C201.553 94.333 205.215 93.2929 207.072 93.1104ZM110.708 223.995C109.974 224.664 108.686 225.698 108.276 226.525L108.449 226.705C109.388 226.031 110.185 225.579 110.831 224.632C110.834 224.13 110.934 224.259 110.708 223.995ZM322.96 224.005C322.15 224.44 321.03 224.862 320.603 225.529L320.662 225.804C321.56 225.567 322.26 225.513 322.838 224.829L322.96 224.005ZM333.638 218.99C332.97 219.53 332.43 219.822 332.183 220.622L332.45 220.886C333.093 220.219 333.638 219.884 333.811 219.092L333.638 218.99ZM235.334 215.447C236.018 216.772 237.277 218.153 238.897 217.235C238.334 215.511 237.044 215.386 235.334 215.447ZM255.442 215.366C256.28 215.744 256.91 215.26 258.19 215.723L258.878 215.565C258.34 214.82 256.665 214.662 255.772 214.632L255.442 215.366ZM110.104 212.671C109.092 213.469 108.888 213.575 108.162 214.602L108.29 214.867L108.661 214.786C109.354 214.29 110.341 213.749 110.609 212.999C110.229 212.69 110.412 212.773 110.104 212.671ZM332.803 211.973C331.61 212.536 330.555 213.017 329.333 213.521L329.268 213.711L329.521 213.855C330.908 213.692 332.103 213.307 333.062 212.237C332.878 211.983 332.985 212.045 332.803 211.973ZM126.438 206.64C125.512 206.33 123.866 206.852 122.826 207.092C121.533 207.92 120.646 208.532 119.433 209.449C121.739 208.888 121.675 208.41 123.704 207.548L124.013 207.509C124.914 207.388 125.891 207.36 126.438 206.64ZM325.07 207.43C324.14 207.797 322.863 208.218 322.115 208.821C322.62 208.904 322.391 208.916 322.811 208.829C323.681 208.606 325.218 208.292 325.928 207.854L325.89 207.547C325.635 207.503 325.318 207.432 325.07 207.43ZM215.11 199.453C214.215 199.68 214.543 199.439 214.038 200.12C215.416 200.36 215.891 200.166 216.829 200.941C217.061 201.842 217.09 201.409 216.71 202.282C216.205 203.119 215.922 203.505 215.625 204.424L215.844 204.551C216.714 203.823 216.761 203.718 217.399 202.754C217.701 202.501 217.936 202.758 218.569 202.196C217.804 200.693 216.75 199.811 215.11 199.453ZM113.621 196.171C112.19 196.811 110.815 198.035 110.864 199.711L111.244 200.122C112.039 199.394 113.081 197.614 113.993 196.505L113.621 196.171ZM130.524 191.749C128.79 192.871 125.697 193.771 124.857 194.427C124.856 194.81 124.947 195.548 124.713 195.687C123.614 196.336 121.18 197.016 119.988 196.96C119.824 197.108 119.488 197.389 119.358 197.546C124.771 197.652 125.042 194.918 129.879 192.96C130.182 192.837 130.438 192.624 130.691 192.42L130.725 191.933L130.524 191.749ZM257.737 194.619C257.002 195.593 256.885 195.668 256.612 196.819L256.78 197.115L256.936 196.816L257.067 196.642C257.652 195.877 257.705 195.841 258.478 195.287L258.503 195.01L257.737 194.619ZM244.526 193.147C243.554 193.66 241.959 194.735 241.513 195.765C241.847 195.901 241.705 195.902 241.929 195.868C242.908 195.013 243.755 194.31 244.783 193.511L244.771 193.262L244.526 193.147ZM122.968 183.169C122.048 184.052 121.215 184.747 120.539 185.826L120.61 186.199C121.267 186.178 121.307 186.075 121.896 185.741C123.069 185.502 124.296 185.272 125.456 184.994L122.968 183.169ZM188.219 171.192C187.468 171.637 186.716 171.911 186.354 172.582L186.659 172.765C187.33 172.414 188.345 172.011 188.667 171.4L188.219 171.192ZM137.085 157.737C136.94 157.74 136.469 157.735 136.348 157.762C135.187 158.316 134.644 158.507 133.722 159.445L133.771 159.688L134.393 159.491C135.363 158.895 136.048 158.532 137.071 158.03L137.085 157.737ZM304.013 147.92C302.95 148.596 299.337 150.72 298.76 151.399C299.22 151.565 300.715 151.351 301.308 151.298C302.095 151.415 302.882 151.523 303.67 151.618C304.502 150.934 305.297 150.442 305.71 149.482C305.55 148.553 304.838 148.355 304.013 147.92ZM247.22 145.281C245.666 144.965 244.287 147.173 243.836 148.408C243.139 149.101 242.703 149.502 242.132 150.292L242.313 150.494C243.324 149.963 243.617 149.477 244.34 148.61C245.659 146.234 246.788 146.294 247.22 145.281ZM149.163 139.42C148.132 138.672 143.446 137.575 142.143 137.798C143.236 138.385 148.05 139.706 149.163 139.42ZM191.008 133.227C188.861 133.26 187.207 134.137 185.761 135.686C185.969 136.239 185.937 136.214 186.375 136.605C187.852 133.066 190.247 135.199 191.588 133.226L191.373 133.067L191.008 133.227ZM246.334 128.45C245.546 129.156 243.042 131.084 242.834 131.725L243.071 131.719C243.965 131.118 246.45 129.661 246.624 128.592L246.334 128.45ZM258.657 127.897C257.817 128.466 255.115 130.613 254.822 131.432L255.043 131.615L255.228 131.559C256.685 130.299 257.77 129.43 259.327 128.301L259.178 128.01L258.657 127.897ZM147.267 127.351C147.117 128.359 146.985 128.894 147.08 129.898C147.795 130.784 148.481 130.818 149.584 130.648L149.792 129.881C149.181 129.187 147.964 127.872 147.267 127.351ZM159.369 121.477C160.648 122.26 161.349 122.838 162.882 122.748C161.815 122.086 160.658 121.49 159.369 121.477ZM231.288 119.91C230.397 119.358 229.26 119.401 228.241 119.488L227.255 120.156L227.34 120.349C228.554 120.159 229.476 119.888 230.638 120.245L231.048 120.311L231.288 119.91ZM274.053 116.482C272.918 117.209 271.5 118.489 270.668 119.55L270.705 120.11C271.428 119.531 273.931 117.482 274.123 116.736L274.053 116.482ZM211.991 115.489C211.595 116.153 210.647 117.49 210.673 118.141C211.485 117.539 211.588 117.445 212.241 116.681C212.896 116.417 213.847 116.165 214.204 115.687C213.631 115.642 212.482 115.599 211.991 115.489ZM205.442 107.39C204.62 108.13 203.825 108.725 203.287 109.676L203.436 109.92L203.681 109.81C204.349 109.217 205.654 108.279 205.806 107.545L205.442 107.39Z" fill="#EDC43E"/>
<path d="M196.414 156.231C192.814 154.153 191.76 144.156 197.949 144.803C200.867 146.605 204.772 154.383 206.564 157.587C208.341 160.764 211.149 164.525 212.719 167.622C216.212 174.516 220.143 179.569 225.677 184.938C226.83 186.056 227.923 187.562 229.094 188.746C229.494 184.718 228.03 184.333 229.157 181.385C227.115 173.118 225.066 165.614 227.093 156.894C227.932 152.442 231.177 144.615 236.947 148.226C239.576 149.872 241.5 152.573 243.747 154.553C250.545 160.543 255.298 167.357 260.763 174.462C262.043 176.127 264.82 178.005 266.44 179.774C266.46 178.844 266.605 176.347 266.335 175.626C265.915 175.358 265.48 175.226 265.5 174.905C265.608 173.143 266.76 170.669 266.925 168.943C267.003 167.077 266.435 164.842 266.143 163.07C265.648 160.091 268.628 154.664 270.445 152.436C274.843 147.047 283.205 159.363 286.098 161.915C287.738 163.363 289.338 165.275 290.885 166.834C296.883 174.372 304.363 184.886 308.48 193.428C308.093 194.636 307.868 195.636 307.13 196.66L306.678 196.779C306.05 196.396 299.1 191.006 298.603 190.537C295.44 187.552 294.918 185.211 290.295 183.193C289.565 181.167 287.703 180.017 286.25 178.482C283.84 175.933 281.933 172.801 279.328 170.479C279.18 170.35 277.58 170.59 277.225 170.6L277.25 170.219L277.86 169.855L274.883 167.073C274.068 173.93 274.63 181.061 274.425 187.939C274.4 188.824 270.34 194.556 269.595 195.448C264.665 194.358 264.373 194.346 259.608 192.262C258.09 188.992 255.44 186.488 253.32 183.621C252.465 182.467 251.71 181.033 250.71 180.014C249.347 178.622 247.45 177.906 246.189 176.332C244.573 174.316 239.908 166.158 238.474 165.282C237.51 165.09 237.291 164.875 236.507 165.147L236.334 165.691C236.678 170.641 236.242 175.649 238.136 180.292C238.347 180.809 237.722 183.004 237.806 183.806C237.998 185.637 238.41 187.659 238.484 189.483C238.603 192.401 237.76 196.627 236.338 199.155L235.418 199.026L235.059 199.403C235.088 200.171 235.182 200.31 235.428 201.029C234.426 203.898 230.656 201.672 228.308 201.377C226.411 200.471 224.833 198.177 223.045 196.753C221.752 195.724 218.635 193.7 217.842 192.448C216.556 190.417 215.821 189.138 214.215 187.381C211.649 184.448 208.766 180.542 207.922 176.87C207.773 176.224 205.794 176.015 205.236 175.264C205.187 172.522 204.699 172.359 203.182 170.041C202.236 168.595 201.221 167.256 200.174 165.877C200.559 163.785 200.887 163.567 199.299 162.092C198.622 161.943 198.028 161.618 197.397 161.321C197.252 160.145 196.802 157.247 196.414 156.231Z" fill="#4B4746"/>
<path d="M145.23 331.69C146.64 331.888 150.95 337.708 152.284 339.165C163.715 351.642 180.416 359.215 197.11 361.1C198.841 361.295 200.683 362.23 202.454 362.4C205.228 362.518 207.949 362.207 210.801 362.332C211.402 362.827 212.002 363.265 212.691 363.633C217.799 366.35 217.669 371.712 217.978 376.81C216.412 378.152 215.479 378.972 213.751 380.06C213.055 379.515 212.185 378.662 211.427 378.6C210.451 380.054 206.893 382.135 205.29 382.88L204.99 383.018C204.479 382.865 201.833 382.088 201.461 382.098C197.753 382.183 193.619 382.855 189.92 382.848C187.015 382.843 183.739 381.9 180.753 382.065C179.302 382.145 178.458 382.365 177.06 382.725C175.506 382.2 174.273 381.75 172.761 381.12C171.996 382.3 171.212 383.52 170.756 384.848C168.495 391.415 158.935 402.222 151.084 400.02C150.448 400.23 149.645 400.648 149.709 401.383C150.133 406.273 147.764 422.6 143.309 424.678C142.112 423.888 141.328 424.638 140.059 425.213C134.101 422.975 123.702 413.018 119.527 408.058C115.417 403.173 106.274 397.233 103.216 392.003C103.64 388.643 103.65 383.292 106.104 380.957C108.483 378.692 111.968 380.667 114.059 380.395C119.215 379.717 124.576 377.775 129.843 378.365C130.389 378.428 130.607 378.458 131.153 378.298C131.578 368.29 133.646 362.045 143.685 357.97C142.179 354.422 140.258 347.7 140.118 343.915C139.921 338.583 141.831 335.465 145.23 331.69ZM334.067 296.58C334.66 296.425 341.428 296.46 341.8 296.697C344.11 298.197 347.775 309.528 348.098 312.44C348.483 315.895 347.573 319.011 348.396 322.503C347.83 324.006 346.365 327.213 346.798 328.575C347.79 328.91 348.698 328.367 349.516 328.545C351.88 329.062 354.283 330.291 356.397 331.355C361.432 333.89 363.878 337.713 365.271 343.053C366.805 348.185 364.575 357.415 361.893 361.942C361.838 364.277 362.665 363.703 364.188 365.175C367.012 368.397 370.752 372.465 372.152 376.688C372.917 378.997 374.448 379.643 375.993 381.396C378.01 384.103 376.798 390.432 375.803 393.34C372.21 396.852 369.882 396.287 365.465 397.76C358.37 400.122 351.35 402.11 344.021 403.58C340.408 404.303 336.695 406.287 333.186 407.125C331.263 406.493 328.403 406.11 327.413 404.748C327.078 403.004 327.588 403.259 328.539 402.31L328.735 402.103L328.125 402.003C327.33 402.385 327.048 402.54 326.308 402.125C326.21 401.26 326.505 400.752 326.82 399.935H326.819C326.782 398.847 326.812 398.02 326.854 396.938H326.855C327.02 395.148 327.66 392.815 328.04 390.963C328.07 390.98 328.102 390.996 328.136 391.011C328.102 390.996 328.069 390.98 328.04 390.963C329.055 387.916 331.182 378.994 332.964 376.773L333.135 376.58L332.998 375.675C331.533 375.36 330.145 374.575 328.803 373.93C318.348 368.905 318.505 360.973 319.955 350.913C318.16 351.783 317.313 352.545 315.753 353.607C313.738 355.005 310.587 355.133 308.407 355.915C302.905 357.892 298.215 359.068 292.33 359.258C290.538 359.318 288.105 360.33 286.11 360.28C284.385 360.37 282.995 359.73 281.26 359.65C278.885 359.538 274.026 360.712 272.561 358.5C272.498 357.728 272.64 357.105 272.99 356.407C273.303 355.78 273.828 355.262 274.413 354.89C276.325 353.67 278.485 352.843 280.407 351.628C283.092 349.93 285.63 347.875 288.192 345.987C290.855 344.03 293.602 342.18 296.237 340.183C298.83 338.223 304.58 333.481 306.588 331.083C308.048 329.338 309.291 327.347 310.641 325.515C315.258 319.25 319.6 312.81 324.232 306.562C326.047 304.118 327.815 301.433 329.942 299.258C331.077 298.095 332.475 296.995 334.067 296.58ZM333.92 401.702H333.921H333.92ZM330.555 400.452H330.556H330.555ZM146.494 400.019C146.616 400.061 146.728 400.105 146.83 400.15C146.932 400.196 147.023 400.243 147.101 400.293L147.098 400.72H147.099L147.101 400.292C146.868 400.142 146.515 400.017 146.107 399.894L146.494 400.019ZM116.762 400.511C116.713 400.543 116.667 400.576 116.626 400.61H116.627C116.668 400.576 116.714 400.543 116.763 400.511H116.762ZM143.911 399.185V399.186V399.185ZM330.2 399.171H330.201H330.2ZM340.117 398.378C340.11 398.522 340.113 398.666 340.124 398.81C340.113 398.666 340.111 398.522 340.118 398.378L339.942 398.218L340.117 398.378ZM333.523 395.699L333.524 395.7L333.523 395.699ZM344.196 394.319V394.318V394.319ZM341.979 393.46C342.017 393.482 342.056 393.502 342.094 393.523C341.957 393.446 341.823 393.368 341.696 393.288L341.979 393.46ZM337.355 392.684V392.683V392.684ZM340.554 392.396V392.396V392.396ZM333.671 391.597H333.672H333.671ZM359.133 391.117C358.964 391.181 358.797 391.251 358.632 391.33C358.797 391.251 358.964 391.181 359.133 391.117ZM357.484 391.186V391.185V391.186ZM356.727 391.043H356.728H356.727ZM333.174 391.046H333.175H333.174ZM354.927 390.381V390.38V390.381ZM361.537 390.26V390.261V390.26ZM352.636 388.343C353.095 388.751 353.515 389.105 353.896 389.435C353.515 389.105 353.095 388.751 352.636 388.343ZM344.807 388.779H344.808H344.807ZM345.692 387.181C345.71 387.09 345.725 386.995 345.737 386.896L345.736 386.895C345.724 386.994 345.71 387.09 345.692 387.181ZM342.917 386.503H342.918C343.133 386.498 343.267 386.491 343.378 386.494V386.493C343.267 386.49 343.133 386.498 342.918 386.503H342.917ZM349.685 386.285L349.492 386.354L349.493 386.355L349.686 386.285H349.685ZM345.284 386.031H345.285H345.284ZM358.409 385.355C358.434 385.322 358.456 385.286 358.478 385.248L358.477 385.247C358.455 385.285 358.434 385.321 358.409 385.355ZM343.284 385.204C343.411 385.252 343.547 385.291 343.703 385.327C343.547 385.291 343.411 385.252 343.284 385.204ZM354.021 383.827C353.716 384.061 353.362 384.292 352.985 384.517C352.86 384.592 352.732 384.666 352.603 384.739H352.604C353.121 384.446 353.614 384.139 354.021 383.827ZM342.077 384.388C342.193 384.488 342.299 384.576 342.396 384.655H342.397C342.3 384.576 342.194 384.488 342.078 384.388H342.077ZM354.561 383.356H354.56H354.561ZM361.806 377.95C361.868 377.945 361.93 377.936 361.991 377.927C361.93 377.936 361.868 377.944 361.806 377.949V377.95ZM364.662 376.838H364.663H364.662ZM336.043 376.31V376.311V376.31ZM362.41 375.912V375.911V375.912ZM362.049 375.622V375.621V375.622ZM338.228 374.499V374.5V374.499ZM367.933 374.653H367.932H367.933ZM342.632 371.272H342.633H342.632ZM367.876 371.055H367.877H367.876ZM343.83 370.841C343.631 370.893 343.431 370.953 343.23 371.023C343.431 370.953 343.631 370.893 343.83 370.841ZM346.395 369.261H346.396H346.395ZM346.078 369.253C345.999 369.224 345.902 369.16 345.786 369.02C345.902 369.16 345.999 369.224 346.078 369.253ZM359.803 366.373V366.372V366.373ZM360.637 364.429C360.547 364.532 360.455 364.654 360.36 364.813C360.455 364.654 360.547 364.532 360.637 364.429ZM362.864 348.623H362.865H362.864ZM363.689 347.963C363.641 348.052 363.575 348.135 363.494 348.213C363.575 348.135 363.642 348.052 363.69 347.963L363.418 347.815L363.689 347.963ZM318.413 342.505C318.099 342.299 317.826 342.096 317.544 341.919C317.825 342.096 318.098 342.299 318.412 342.505H318.413ZM331.447 328.702V328.703L331.612 329.01C331.537 329.073 331.461 329.135 331.382 329.194C331.225 329.312 331.061 329.422 330.892 329.526C330.637 329.683 330.37 329.826 330.094 329.966C329.725 330.153 329.34 330.334 328.946 330.531L329.53 330.245C330.297 329.872 331.012 329.518 331.612 329.01L331.447 328.702ZM333.643 324.521C333.826 324.379 334.04 324.224 334.263 324.06C334.04 324.224 333.826 324.378 333.643 324.52L333.455 324.479V324.48L333.643 324.521ZM331.973 305.707C331.776 305.651 331.592 305.601 331.421 305.553C331.592 305.601 331.776 305.652 331.973 305.708C332.094 305.611 332.199 305.53 332.29 305.462L331.973 305.707ZM330.862 305.363C330.965 305.408 331.074 305.446 331.189 305.482C331.074 305.446 330.965 305.408 330.862 305.363ZM333.248 304.213H333.247C333.142 304.47 333.07 304.643 333.007 304.771C332.975 304.835 332.946 304.887 332.915 304.933C332.854 305.024 332.788 305.088 332.692 305.163C332.932 304.974 332.984 304.857 333.248 304.213ZM332.495 303.208H332.496H332.495ZM110.708 223.995C110.934 224.259 110.834 224.13 110.831 224.632C110.185 225.579 109.388 226.032 108.449 226.706L108.276 226.525C108.687 225.698 109.974 224.664 110.708 223.995ZM322.838 224.829C322.26 225.513 321.56 225.566 320.662 225.804L320.603 225.529C321.03 224.862 322.15 224.44 322.96 224.005L322.838 224.829ZM333.811 219.092C333.638 219.884 333.093 220.219 332.45 220.886L332.183 220.622C332.43 219.822 332.97 219.53 333.638 218.99L333.811 219.092ZM235.334 215.447C237.044 215.386 238.334 215.511 238.897 217.235C237.277 218.153 236.018 216.772 235.334 215.447ZM255.772 214.632C256.665 214.662 258.339 214.82 258.877 215.564L258.189 215.723C256.91 215.26 256.28 215.744 255.442 215.366L255.772 214.632ZM110.104 212.671C110.412 212.773 110.229 212.69 110.609 212.999C110.341 213.749 109.354 214.29 108.661 214.786L108.29 214.867L108.163 214.602C108.889 213.575 109.092 213.469 110.104 212.671ZM332.803 211.973C332.985 212.045 332.878 211.983 333.062 212.237C332.103 213.307 330.908 213.692 329.521 213.854L329.268 213.711L329.333 213.521C330.555 213.017 331.61 212.536 332.803 211.973ZM122.826 207.092C123.866 206.852 125.512 206.33 126.438 206.64C125.891 207.36 124.914 207.388 124.013 207.509L123.704 207.549C121.675 208.411 121.739 208.888 119.433 209.449C120.646 208.532 121.533 207.92 122.826 207.092ZM325.07 207.431C325.318 207.432 325.636 207.503 325.891 207.547L325.928 207.854C325.218 208.292 323.681 208.606 322.811 208.829C322.391 208.916 322.62 208.904 322.115 208.821C322.863 208.218 324.14 207.798 325.07 207.431ZM215.11 199.454C216.75 199.812 217.804 200.693 218.569 202.196C217.936 202.758 217.701 202.502 217.399 202.754C216.761 203.718 216.714 203.823 215.844 204.551L215.625 204.424C215.922 203.505 216.205 203.119 216.71 202.282C217.09 201.409 217.061 201.842 216.829 200.94C215.891 200.166 215.415 200.36 214.038 200.121C214.543 199.439 214.215 199.681 215.11 199.454ZM214.215 187.381C214.933 187.188 215.365 186.912 215.998 187.393C217.417 188.47 218.444 191.011 219.349 192.503C224.062 194.085 225.782 197.762 228.308 201.377C226.411 200.471 224.833 198.176 223.045 196.753C221.752 195.724 218.634 193.699 217.842 192.448C216.556 190.417 215.821 189.138 214.215 187.381ZM113.993 196.505C113.081 197.614 112.039 199.394 111.244 200.122L110.864 199.711C110.815 198.035 112.19 196.811 113.621 196.171L113.993 196.505ZM348.747 198.315C346.387 196.606 346.252 198.161 345.062 197.385C346.772 196.574 347.517 195.996 348.56 194.413L348.747 198.315ZM130.725 191.933L130.691 192.42C130.438 192.624 130.182 192.837 129.879 192.96C125.043 194.917 124.771 197.651 119.359 197.546C119.489 197.389 119.824 197.108 119.988 196.96C121.18 197.016 123.614 196.336 124.713 195.688C124.947 195.549 124.856 194.811 124.857 194.428C125.697 193.772 128.79 192.871 130.524 191.749L130.725 191.933ZM258.502 195.01L258.478 195.287C257.705 195.841 257.652 195.877 257.067 196.642L256.935 196.816L256.78 197.116L256.612 196.82C256.885 195.669 257.003 195.594 257.737 194.62L258.502 195.01ZM244.771 193.262L244.783 193.511C243.755 194.31 242.907 195.014 241.928 195.869C241.705 195.903 241.847 195.901 241.513 195.765C241.96 194.735 243.554 193.659 244.526 193.146L244.771 193.262ZM125.456 184.994C124.296 185.272 123.069 185.502 121.896 185.741C121.306 186.075 121.266 186.178 120.609 186.199L120.539 185.827C121.215 184.748 122.047 184.052 122.967 183.169L125.456 184.994ZM170.212 179.287C171.462 177.853 172.577 176.484 174.788 177.04C175.626 178.364 172.706 180.211 172.588 181.954C173 182.457 173.529 183.024 173.789 183.603C172.222 182.705 168.895 180.349 167.105 179.218C168.464 179.029 168.87 178.915 170.212 179.287ZM188.667 171.4C188.345 172.011 187.33 172.414 186.659 172.765L186.354 172.583C186.716 171.912 187.468 171.638 188.219 171.193L188.667 171.4ZM236.024 162.85C236.779 162.533 236.378 162.569 237.275 162.917C238.09 163.703 238.118 164.155 238.474 165.282C237.511 165.09 237.291 164.875 236.508 165.146L236.334 165.691C235.896 164.955 235.708 163.683 236.024 162.85ZM196.414 156.23C198.665 156.708 199.103 159.384 199.581 161.372L199.299 162.092C198.621 161.943 198.028 161.618 197.396 161.321C197.252 160.145 196.802 157.247 196.414 156.23ZM137.071 158.03C136.048 158.532 135.363 158.895 134.393 159.491L133.77 159.688L133.722 159.445C134.644 158.507 135.187 158.317 136.348 157.763C136.469 157.736 136.94 157.74 137.085 157.737L137.071 158.03ZM304.013 147.92C304.837 148.355 305.55 148.553 305.71 149.481C305.297 150.441 304.502 150.934 303.67 151.618C302.883 151.523 302.095 151.416 301.308 151.299C300.715 151.352 299.22 151.565 298.76 151.398C299.337 150.72 302.95 148.596 304.013 147.92ZM243.931 148.167C244.459 146.908 245.763 144.985 247.22 145.281C246.789 146.293 245.658 146.234 244.34 148.609C243.617 149.477 243.324 149.963 242.313 150.494L242.132 150.292C242.702 149.502 243.14 149.102 243.836 148.409L243.931 148.167ZM142.144 137.798C143.447 137.576 148.132 138.672 149.163 139.42C148.05 139.706 143.238 138.385 142.144 137.798ZM191.588 133.226C190.247 135.199 187.852 133.066 186.375 136.604C185.937 136.214 185.97 136.239 185.762 135.686C187.208 134.138 188.861 133.26 191.008 133.227L191.373 133.068L191.588 133.226ZM246.624 128.592C246.45 129.661 243.965 131.118 243.071 131.719L242.834 131.725C243.042 131.084 245.545 129.157 246.334 128.451L246.624 128.592ZM259.178 128.01L259.327 128.301C257.77 129.43 256.685 130.299 255.228 131.559L255.042 131.615L254.822 131.433C255.115 130.614 257.817 128.466 258.657 127.896L259.178 128.01ZM147.267 127.351C147.964 127.872 149.18 129.188 149.791 129.882L149.584 130.648C148.481 130.819 147.795 130.784 147.08 129.897C146.985 128.894 147.117 128.359 147.267 127.351ZM151.112 116.581C151.171 117.033 151.32 118.019 151.552 118.379C152.507 119.864 150.764 124.783 148.711 123.961L148.235 122.965C147.799 122.896 147.776 122.816 147.36 122.587C146.492 120.968 146.732 121.067 145.037 121.145C145.389 120.788 145.532 120.695 145.834 120.534L146.203 120.339C147.686 119.154 149.563 117.633 151.112 116.581ZM159.369 121.477C160.658 121.49 161.815 122.087 162.882 122.749C161.349 122.839 160.648 122.26 159.369 121.477ZM228.241 119.488C229.26 119.401 230.397 119.358 231.288 119.91L231.048 120.311L230.638 120.245C229.476 119.888 228.554 120.16 227.34 120.35L227.255 120.156L228.241 119.488ZM274.122 116.736C273.93 117.482 271.428 119.532 270.705 120.111L270.668 119.55C271.5 118.489 272.918 117.21 274.053 116.483L274.122 116.736ZM211.991 115.489C212.482 115.599 213.631 115.642 214.204 115.687C213.847 116.165 212.896 116.418 212.241 116.682C211.588 117.446 211.485 117.539 210.673 118.141C210.647 117.49 211.595 116.153 211.991 115.489ZM205.805 107.545C205.653 108.279 204.349 109.217 203.681 109.81L203.436 109.92L203.287 109.676C203.825 108.725 204.62 108.13 205.442 107.39L205.805 107.545Z" fill="#EDC43E"/>
</g>
<defs>
<clipPath id="clip0_79_2626">
<rect width="480" height="480" fill="white"/>
</clipPath>
</defs>
</svg>
