<svg width="480" height="480" viewBox="0 0 480 480" fill="none" xmlns="http://www.w3.org/2000/svg">
<g clip-path="url(#clip0_79_8387)">
<path d="M110.889 125.759C103.562 123.978 96.8117 116.578 98.9234 108.639C100.652 102.141 105.94 95.4223 111.881 92.3148C117.252 89.5056 125.909 86.9033 131.841 85.4766C146.219 82.0181 160.721 80.6351 175.336 78.8206C187.902 77.4373 200.622 77.0781 213.249 76.4063C214.682 76.3301 216.94 75.5211 218.182 75.5906C223.5 75.9153 228.696 75.3088 233.995 75.4618C235.306 75.4998 238.316 74.4836 239.307 74.6781C244.298 75.6706 249.115 75.1801 254 75.4138C268.372 76.1011 282.742 77.0671 297.007 79.0308C305.142 80.1508 326.152 85.8503 322.937 97.3251C322.445 99.0931 321.567 100.73 320.365 102.117C327.277 100.589 334.44 98.7538 341.56 98.6943C343.487 98.6783 346.085 99.6268 347.992 99.7463C353.66 100.101 357.897 102.221 363.142 104.116C366.755 105.422 371.36 105.816 374.77 108.074C377.182 110.022 381.315 113.247 383.565 115.357C387.917 119.436 391.667 126.445 393.747 132.032C394.082 132.978 395.355 135.044 395.412 135.837C395.57 138.055 395.912 140.604 396.095 142.756C396.39 146.206 397.652 151.464 397.52 154.683C397.365 158.454 395.75 157.252 396.562 162.004C395.925 163.336 395.25 164.685 394.91 166.128C393.17 173.541 390.525 180.853 386.537 187.363C385.41 189.202 382.585 191.901 382.27 193.888C382.96 195.645 387.467 197.676 389.037 199.054C389.432 200.013 389.682 200.155 389.555 201.019C388.162 201.721 383.802 204.451 383.042 205.676C383.86 205.888 384.402 205.977 385.24 206.106C385.665 206.901 385.22 206.876 385.177 207.49C385.165 207.689 386.525 208.635 386.892 209.063C388.02 208.753 387.992 208.488 388.255 207.397C389.002 206.914 390.4 207.239 391.317 207.391C392.895 208.085 392.067 206.851 393.477 207.871C394.722 212.864 394.38 217.699 392.232 222.483C390.922 225.405 388.967 228.208 387.427 231C385.672 234.181 383.737 238.454 381.442 241.308C379.227 244.067 376.222 247.513 373.695 250.013C372.302 251.338 370.222 252.525 368.89 253.843C364.622 258.068 360.207 261.313 355.165 264.558C352.357 266.363 350 269.115 346.787 270.783C341.115 273.728 335.487 276.883 329.635 279.458C327.252 280.525 323.482 282.878 321.12 283.595C317.497 284.695 311.207 284.155 307.717 282.18C298.805 277.135 297.207 271.19 296.582 261.545C296.512 260.473 297.207 259.093 297.15 257.528C297.035 254.428 296.295 250.565 296.305 247.578C296.317 243.794 297.35 243.067 296.06 239.061L295.95 238.73C297.4 234.341 303.622 216.176 302.517 212.825C301.805 212.596 288.17 215.908 286.875 216.547C283.445 215.665 281.605 215.819 278.147 215.838C270.632 215.878 266.875 212.557 261.13 208.55C258.602 203.608 260.652 203.068 256.75 197.923C255.51 198.533 254.26 199.48 253.035 200.217C243.082 206.19 230.615 212.298 218.818 208.491C215.783 207.512 213.09 201.408 211.833 198.818C212.942 185.374 212.752 183.939 221.211 172.181C216.49 173.531 211.53 174.279 206.767 176.095C204.711 176.879 200.32 176.933 197.945 177.574C194.277 178.182 190.135 179.75 186.502 180.278C181.623 180.987 178.082 182.297 173.557 183.71C168.228 184.51 162.24 187.051 157.012 187.813C151.639 188.042 146.789 190.092 141.614 190.974C133.127 192.421 116.48 195.861 109.692 189.4C109.996 188.835 109.987 188.879 110.529 188.522C111.913 188.447 114.125 188.01 114.914 186.786L114.729 186.568C111.946 185.727 109.468 186.565 106.877 187.389C105.273 184.557 105.491 181.338 105.446 178.105C107.51 174.436 110.555 167.27 113.773 164.667C115.586 163.553 116.119 164.839 117.332 164.054L116.982 163.639C115.419 163.17 114.805 163.166 113.228 163.553C111.456 163.389 109.122 162.432 107.615 162.481C100.274 162.721 93.5044 162.454 87.2744 157.775C86.8834 156.586 85.9937 154.193 86.0689 153.043C86.7637 142.436 95.6904 134.651 104.031 129.27C106.546 127.648 108.545 127.024 110.889 125.759ZM110.126 152.181C112.188 152.192 115.578 151.982 116.309 149.605C115.868 148.879 115.353 148.599 114.495 148.274C113.346 148.781 109.256 151.442 108.784 152.301C109.389 152.522 109.366 152.387 110.126 152.181ZM219.14 159.213C221.232 157.937 221.919 156.559 224.072 156.435C224.412 156.415 224.566 156.32 224.827 156.125L224.755 155.846C223.17 155.467 219.883 154.531 218.396 154.798C219.305 155.861 220.121 155.842 221.573 156.114C220.04 158.089 219.113 158.342 216.992 159.627L216.986 159.706C217.811 159.769 218.396 159.549 219.14 159.213ZM373.997 240.06C375.01 239.916 375.4 239.863 376.365 239.564L376.41 239.198L375.722 238.741C375.302 238.143 375.322 237.965 375.107 237.253C375.65 236.462 376.685 235.274 376.725 234.436C375.735 234.73 373.825 236.828 372.75 237.668C371.927 238.401 370.262 239.608 370.007 240.476C370.775 241.261 373.055 240.41 373.997 240.06ZM179.316 153.731C180.873 153.24 184.16 152.4 185.441 151.786C186.114 150.418 184.286 151.067 186.315 149.056C187.532 148.326 188.19 147.819 189.305 146.955C187.971 147.482 187.472 147.692 186.206 148.437C183.667 150.093 181.887 152.027 179.316 153.731ZM323.69 228.561L324.537 228.692L324.805 228.295C324.147 227.637 324.185 227.864 323.995 227.084C325.017 226.485 326.512 224.862 327.147 223.858C327.06 223.589 327.035 223.405 326.882 223.19C324.37 224.605 324.432 226.354 321.225 227.986L321.08 228.391C321.987 228.473 322.78 228.532 323.69 228.561ZM348.02 227.64C348.44 227.061 350.025 225.242 350.185 224.902L350.212 224.886C348.64 224.799 347.712 225.097 346.262 224.418C345.8 224.203 345.352 224.266 344.86 224.32C345.805 224.892 347.212 225.39 347.757 226.02C347.507 226.902 346.04 227.253 345.192 227.572C345.975 227.724 347.242 227.755 348.02 227.64ZM207.902 110.553C208.736 109.739 208.728 110.01 208.823 109.108C208.105 108.372 207.561 108.377 206.494 108.372C206.244 108.371 205.994 108.372 205.744 108.378L205.037 108.799C204.847 110.268 206.715 110.715 207.902 110.553ZM136.841 189.738C138.117 189.174 139.703 189.25 140.43 188.753C140.449 187.838 140.624 188.151 140.151 187.639L139.198 187.509C138.229 187.952 135.538 188.993 134.953 189.433L135.039 189.666C135.737 189.767 136.143 189.877 136.841 189.738ZM362.507 225.918C364.135 225.062 365.632 224.103 367.395 223.59L371.267 223.289C369.555 222.925 365.757 221.989 364.152 221.906L363.95 222.159C364.437 222.78 364.13 222.539 364.972 222.801L365.61 223.383C364.85 224.231 362.67 224.906 361.542 225.316C360.322 225.559 355.52 226.157 354.947 226.763C357.167 226.941 360.59 227.048 362.507 225.918ZM246.369 174.641C247.678 173.874 251.412 171.681 252.422 170.687L252.46 170.116L252.127 169.983C250.94 170.738 246.658 173.448 246.046 174.432L246.227 174.642L246.369 174.641ZM372.35 214.748C373.09 214.46 375.475 213.727 375.74 213.394C374.777 213.177 374.242 213.282 373.242 213.356C373.285 211.97 373.552 212.513 372.82 211.687C372.327 213.483 370.72 214.963 369.452 216.438C370.24 215.935 371.53 215.018 372.35 214.748ZM386.327 214.846C387.02 214.135 386.875 214.531 386.982 213.713C386.372 213.304 386.215 213.239 385.57 212.944L385.475 212.519C386.272 211.718 386.982 211.184 386.622 209.958C385.687 210.947 384.785 211.964 383.912 213.006C384.762 213.73 385.352 214.284 386.327 214.846ZM336.852 199.87C338.252 200.152 338.627 200.12 340.022 200.067L340.295 199.331L340.9 199.513C339.102 198.962 337.225 199.22 335.32 199.313C333.895 199.635 333.172 199.733 331.875 200.47L332.067 200.637C334.002 200.458 335.277 199.494 336.852 199.87ZM265.09 201.883C265.462 199.626 265.267 199.098 263.342 197.858C263.167 199.888 262.64 201.418 265.09 201.883ZM211.797 125.231C209.775 126.388 207.759 127.556 205.75 128.736C205.109 131.102 203.289 132.228 201.439 133.873C205.981 131.944 204.928 130.528 206.67 129.41C209.525 128.36 209.789 127.55 211.797 125.231ZM385.325 223.623C386.43 222.141 387.367 220.63 388.095 218.923C387.66 218.474 387.922 218.63 387.23 218.572C386.4 219.147 386.532 218.812 386.35 219.487C385.977 220.86 385.287 222.133 384.82 223.5C385.185 223.686 385.012 223.673 385.325 223.623ZM333.567 226.674C336.337 226.378 338.48 225.103 340.892 223.707L341.045 223.359L340.537 223.135C337.552 224.75 336.172 225.181 333.207 226.485L333.357 226.66L333.567 226.674ZM333.812 218.175C335.92 217.558 338.187 217.242 340.08 216.595C339.527 216.37 338.842 216.538 338.172 216.6C334.947 216.907 333.587 217.132 330.782 218.947C331.69 218.738 332.97 218.484 333.812 218.175ZM203.745 119.606C205.085 119.413 207.322 119.386 208.112 118.234C207.917 117.603 208.012 117.809 207.637 117.276C206.653 117.694 203.854 118.677 203.367 119.329L203.745 119.606ZM298.847 262.87L299.132 262.705C300.147 262.123 301.927 261.515 302.387 261.098C302.202 260.345 302.392 260.658 301.752 260.158L301.125 260.223C300.36 260.808 298.282 262.113 297.962 262.655C298.372 263.03 298.12 262.89 298.847 262.87ZM334.182 233.76C335.4 233.559 336.222 233.534 337.255 232.871L337.295 232.635C336.417 232.363 336.152 232.467 335.255 232.598C334.165 232.696 332.532 232.724 331.7 233.305C332.727 233.785 333.007 233.72 334.182 233.76ZM240.819 179.942C241.731 179.378 243.076 178.538 243.67 177.666L243.38 177.555C242.082 177.998 241.615 178.481 240.547 179.326C239.727 179.671 239.574 179.775 238.834 180.283C238.465 181.216 238.523 180.749 238.644 181.738C239.46 182.6 240.473 182.68 241.329 181.815C240.368 180.91 240.077 181.417 239.97 180.557C240.39 180.196 240.341 180.195 240.819 179.942ZM375.897 225.697C373.665 226.375 372.815 226.893 370.805 228.141C369.945 228.506 368.49 229.03 367.84 229.614C368.782 229.814 370.65 228.92 371.615 228.517C372.665 228.05 373.715 227.575 374.76 227.093C375.19 228.031 374.87 227.693 375.665 228.214C377.095 227.96 377.247 226.59 377.162 225.36C376.587 225.198 376.612 225.35 375.897 225.697ZM162.026 159.014L162.532 158.566C161.93 158.18 157.011 157.983 156.031 157.999L155.477 158.526C156.314 158.917 160.9 159.041 162.026 159.014ZM271.75 201.041C273.007 200.552 274.432 200.787 275.375 200.268L275.227 199.85C274.552 199.555 273.785 199.535 273.087 199.757C272.475 200.004 269.76 201.055 269.527 201.44C270.557 201.385 270.762 201.345 271.75 201.041ZM357.315 238.076C359.395 235.206 356.817 236.43 360.165 233.136L359.55 232.904C358.09 233.931 357.165 236.113 356.687 237.798L356.822 238.184L357.315 238.076ZM221.997 101.457C222.77 100.61 223.027 100.339 223.943 99.6596L224.062 99.2313C223.471 98.8348 223.296 98.8993 222.58 98.8606C221.798 99.9766 221.495 100.394 220.921 101.676L221.017 102.058C221.497 101.801 221.556 101.78 221.997 101.457ZM348.337 221.577C350.397 221.035 351.505 220.034 353.017 218.597L353.085 218.194L352.867 217.952C351.112 219.134 350.052 220 348.187 221.085L348.155 221.386L348.337 221.577ZM245.893 97.8008C245.084 98.2191 243.492 98.9481 242.936 99.5721C243.395 99.7333 246.272 98.3261 246.907 98.1298C248.513 97.9388 250.242 98.3411 252.195 98.2741C249.983 97.4568 248.022 96.5618 245.893 97.8008ZM386.69 175.102C387.762 175.199 389.577 175.552 390.467 175.231L390.63 174.801L390.367 174.226L390.05 174.145C388.437 174.303 387.72 174.319 386.19 174.857L385.982 175.148L386.69 175.102ZM239.69 186.626C240.702 186.762 240.549 186.914 241.182 186.483L241.141 186.693L241.301 186.415C240.295 185.975 238.61 185.586 237.503 185.52C236.645 185.802 236.145 185.836 235.538 186.409C237.154 186.455 238.067 186.302 239.69 186.626ZM268.607 177.088C267.135 178.14 266.552 178.483 264.762 179.095L262.782 179.665C261.397 180.111 260.885 180.367 259.63 181.012C260.877 180.743 262.835 180.263 264.047 180.184C264.695 179.955 265.307 179.85 265.975 179.71C267.312 179.013 267.88 178.501 269.025 177.562C271.702 175.257 273.557 177.209 275.012 175.61L274.747 175.388C272.15 175.661 270.622 175.528 268.607 177.088ZM306.562 229.177L309.39 228.686L309.015 228.788L309.66 228.465L309.13 228.766L309.79 228.503C308.285 228.42 306.845 228.481 305.34 228.523C303.66 229.341 303.415 229.665 302.027 230.884C303.605 230.15 304.855 229.437 306.562 229.177ZM115.881 181.76C115.408 181.069 112.106 180.107 111.256 179.945C112.094 181.881 113.867 182.191 115.881 181.76ZM132.851 188.53C133.731 188.061 133.917 188.167 134.244 187.459C133.623 187.014 132.702 187.087 131.894 187.074L130.865 187.375L130.684 187.743C131.434 188.317 131.896 188.325 132.851 188.53ZM354.5 244.749C355.572 244.645 356.82 244.642 357.727 244.143C357.035 243.855 355.592 244.048 354.82 244.152C353.555 244.168 352.452 244.084 351.27 244.496C352.065 244.885 353.53 244.756 354.5 244.749ZM280.467 83.4406C281.457 83.6231 281.5 83.8046 282.265 83.4866C281.865 82.8773 280.787 82.6268 280.1 82.6063C279.252 82.6768 278.347 82.6301 277.737 83.1573C278.432 83.7686 279.585 83.5261 280.467 83.4406ZM328.085 238.139C327.037 237.675 323.967 237.853 322.56 237.831C323.622 239.233 326.592 238.765 328.085 238.139ZM159.993 177.572C160.828 176.927 164.067 174.679 164.345 174.066L164.066 173.955C162.92 174.635 160.397 176.196 159.608 177.181L159.734 177.508L159.993 177.572ZM298.057 145.074C298.722 144.551 302.112 141.962 302.342 141.398L302.21 141.253C300.402 142.223 299.277 143.051 297.847 144.569C297.912 145.002 297.81 144.85 298.057 145.074ZM130.098 180.851C130.964 180.462 131.349 180.345 132.063 179.744L132.05 179.405C131.029 179.476 130.501 179.931 129.624 180.476C127.41 181.458 124.952 181.005 123.425 181.736L123.389 181.975C125.453 181.975 128.3 181.812 130.098 180.851ZM372.112 121.77C374.537 121.106 376.212 120.836 377.842 118.875L377.742 118.832C376.217 119.762 372.402 121.053 371.925 121.611L372.112 121.77ZM372.995 207.053C373.707 206.271 374.57 205.489 374.902 204.526C374.457 204.087 374.702 204.246 374.122 204.099C373.572 204.783 372.477 205.963 372.31 206.74C372.725 207.095 372.492 207.001 372.995 207.053ZM187.674 139.284C188.984 138.587 190.69 137.545 191.616 136.369L191.324 136.191C190.374 136.76 188.128 137.98 187.522 138.752L187.438 139.174L187.674 139.284ZM374.387 202.563C375.292 201.451 375.895 200.333 376.622 199.101C376.53 198.958 376.415 198.748 376.3 198.648C375.232 199.832 374.232 200.628 374.167 202.217L374.387 202.563ZM225.902 115.479C224.136 115.921 222.387 116.563 220.498 117.037L216.419 117.574C217.743 117.664 219.758 117.867 221.029 117.881C222.951 117.586 224.277 116.537 225.902 115.479ZM222.379 121.215C221.672 121.525 220.082 122.113 219.643 122.629C220.163 122.727 219.941 122.754 220.313 122.648C221.173 122.353 222.61 121.992 223.191 121.433C222.657 121.173 222.93 121.237 222.379 121.215ZM335.082 241.207C335.91 240.99 336.902 240.86 337.485 240.348C336.795 240.283 336.59 240.247 335.885 240.304C335.147 240.535 334.43 240.66 333.897 241.186C334.447 241.419 334.475 241.341 335.082 241.207ZM181.262 124.621C181.851 125.16 184.804 125.161 186.221 125.42C185.111 124.407 182.526 124.001 181.262 124.621ZM360.652 125.656C361.332 125.13 362.522 124.317 362.945 123.639L362.532 123.36C361.632 124.043 361.057 124.474 360.227 125.248L360.225 125.507L360.652 125.656ZM359.075 191.487C360.092 191.2 360.937 191.001 361.9 190.55C361.467 190.269 361.685 190.345 361.267 190.27C360.182 190.546 359.595 190.631 358.612 191.212L358.595 191.477L359.075 191.487ZM204.388 154.814C205.426 154.417 206.248 154.103 207.259 153.62L207.283 153.349L206.846 153.214C205.945 153.517 204.58 153.877 203.888 154.448L204.038 154.719L204.388 154.814ZM238.648 109.133C237.603 109.063 233.56 108.765 232.776 109.342L233.464 109.441L233.342 109.206L233.259 109.46C233.775 109.52 235.022 109.694 235.481 109.694C237.255 109.894 237.664 109.962 239.31 109.384L239.268 109.067L238.648 109.133ZM298.965 152.321C297.832 152.54 297.342 152.571 296.325 153.114L296.262 153.422L296.812 153.622C297.672 153.324 298.68 153.075 299.337 152.483C299.212 152.429 299.09 152.375 298.965 152.321ZM127.336 171.308C127.062 170.311 125.988 169.517 125.04 169.193C125.285 170.52 126.055 171.073 127.336 171.308ZM152.59 170.408C153.417 170.134 154.525 169.859 155.171 169.326C154.671 169.165 154.708 169.159 154.198 169.276C153.364 169.512 152.562 169.66 151.882 170.187C152.326 170.481 152.087 170.417 152.59 170.408ZM140.713 173.848C141.456 173.214 142.163 172.72 142.125 171.657L141.816 171.393C141.364 171.997 140.539 172.924 140.44 173.614L140.713 173.848ZM221.459 166.796C220.597 166.983 219.696 167.144 218.879 167.461L218.958 167.76L219.221 167.896C220.416 167.817 220.629 167.828 221.661 167.246L221.924 166.853L221.459 166.796ZM126.744 157.879C126.046 158.291 125.524 158.493 125.123 159.184C125.647 159.2 125.423 159.274 125.811 159.016C126.503 158.805 127.224 158.701 127.651 158.171C127.146 157.885 127.342 157.95 126.744 157.879ZM320.992 243.592C321.38 242.956 322.275 241.781 322.265 241.235C321.35 241.88 321.067 242.475 320.257 243.215L320.225 243.807C321.28 244.61 321.65 244.785 322.992 244.563C322.41 244.107 321.687 243.971 320.992 243.592ZM229.148 196.804C228.273 197.086 227.655 197.187 227.004 197.825C227.807 197.825 227.839 197.782 228.58 197.558C229.515 197.459 230.455 197.469 231.226 196.97C230.598 196.625 229.898 196.766 229.148 196.804ZM182.08 132.14C182.62 131.947 183.572 131.734 183.812 131.367C183.413 131.323 183.122 131.27 182.723 131.282C181.682 131.482 181.722 131.31 181.039 131.906C181.594 132.287 181.286 132.142 182.08 132.14ZM385.812 157.632C386.83 157.297 387.215 157.262 387.965 156.552L387.917 156.209L387.43 156.271C386.785 156.591 385.657 157.043 385.27 157.58C385.775 157.657 385.637 157.666 385.812 157.632ZM225.209 112.203C226.018 111.797 226.603 110.493 226.676 109.628C225.711 109.551 226.243 110.651 224.22 111.442L222.509 110.693L222.27 110.837C222.91 111.826 224.003 112.743 225.209 112.203ZM362.412 107.935L364.02 107.249L364.05 107.037L363.31 106.938C362.515 107.161 362.147 107.176 361.605 107.796C362.037 108.087 361.792 107.988 362.412 107.935ZM244.931 196.814C245.987 196.166 247.251 195.473 248.139 194.643L248.156 194.286C247.029 194.779 245.615 195.393 244.875 196.415L244.931 196.814ZM161.368 139.255C160.078 138.184 159.816 138.17 158.127 138.316C159.302 138.775 160.11 139.191 161.368 139.255ZM154.369 165.843C153.359 164.927 152.517 165.199 151.21 165.357C152.208 165.785 153.282 165.98 154.369 165.843ZM120.865 104.183C120.072 104.659 119.692 104.695 119.336 105.385C120.101 105.416 120.593 104.967 121.268 104.538C121.877 104.262 122.968 103.882 123.109 103.226C122.197 103.215 121.663 103.689 120.865 104.183ZM391.695 153.697C390.59 153.059 388.962 152.159 387.707 152.375C388.47 153.229 390.565 153.882 391.695 153.697ZM349.91 113.825C351.075 113.109 351.835 112.479 351.637 110.944C351.07 112.095 350.78 112.332 349.872 113.261L349.91 113.825ZM158.681 162.758L159.776 162.398L159.885 162.072C159.236 161.889 159.258 161.901 158.581 161.923L157.504 162.412L157.565 162.66L158.681 162.758ZM273.497 156.255C273.61 156.431 273.83 156.662 273.977 156.829C275.212 156.82 276.835 156.376 277.945 155.846L277.755 155.419C276.817 155.142 275.792 156.347 273.497 156.255ZM348.505 122.023L347.782 122.587L347.887 122.861C348.782 122.849 348.827 122.799 349.655 122.546L350.332 122.273L350.26 122.054C349.582 122.009 349.195 121.983 348.505 122.023ZM302.935 89.1046C301.732 89.2471 301.37 89.2233 300.302 89.7198L300.46 89.9443L300.877 89.9601C301.957 89.7643 302.39 89.7443 303.355 89.2708L303.165 89.0903L302.935 89.1046ZM355.93 205.495C356.752 204.975 358.45 204.059 358.912 203.356L358.56 203.167C357.68 203.61 355.947 204.426 355.632 205.329L355.93 205.495ZM326.82 272.38C325.75 273.27 324.735 273.133 324.095 273.885C325.402 274.148 326.7 273.558 327.727 272.785C328.342 272.418 328.655 272.31 329.002 271.683L328.745 271.46C327.792 271.55 327.63 271.78 326.82 272.38ZM206.022 95.2178C205.291 95.8838 205.252 95.6988 205.103 96.4726C205.596 96.3338 205.458 96.4378 205.822 96.1338L207.27 95.6551L207.402 95.3818C206.743 95.2356 206.69 95.2106 206.022 95.2178ZM386.99 125.235C385.867 125.69 385.517 125.755 384.642 126.54C384.66 126.936 384.577 126.805 384.762 126.99C385.61 126.587 386.625 126.224 387.205 125.522L386.99 125.235ZM315.605 252.758C314.532 253.418 313.802 253.808 312.69 254.363L312.642 254.848C313.912 254.425 314.545 254.303 315.625 253.495C315.77 252.943 315.812 253.185 315.605 252.758ZM183.988 99.7638C182.864 100.299 182.224 100.548 181.043 100.946L181.008 101.29L181.122 101.43C182.18 101.173 183.718 100.927 184.281 100.033L183.988 99.7638ZM352.005 142.102C350.732 142.301 350.355 142.303 349.187 142.867L348.897 143.296L349.11 143.597C349.865 143.327 351.692 142.802 352.117 142.269L352.005 142.102ZM194.678 161.737C193.955 162.135 192.696 162.675 192.372 163.344L192.754 163.574C193.601 163.156 194.594 162.766 195.219 162.088L195.067 161.784L194.678 161.737ZM374.65 112.058C373.472 112.392 373.662 112.162 372.895 112.925L373.092 113.153L373.807 113.069C374.567 112.899 375.32 112.835 375.877 112.338C375.322 111.997 375.317 112.056 374.65 112.058ZM264.97 89.5638C266.562 89.1781 267.495 89.0906 268.6 87.8538L268.672 87.2721C267.72 87.7326 265.452 88.6751 264.957 89.4146L264.97 89.5638ZM391.822 166.485C390.785 166.936 390.487 166.97 389.812 167.815L389.935 168.158L390.31 167.99C391.095 167.705 391.862 167.533 392.417 166.945L392.255 166.602L391.822 166.485ZM294.3 125.595C295.515 126.544 299.095 126.846 300.587 126.273L300.325 125.943C298.602 126.01 294.74 125.522 294.3 125.595ZM221.631 84.1906C220.872 84.7691 219.391 85.7688 218.943 86.5156C219.225 86.8341 219.061 86.7321 219.412 86.8548C220.327 86.0948 221.077 85.4618 221.941 84.6288L221.968 84.2813L221.631 84.1906ZM241.374 102.716C240.662 103.038 239.049 103.658 238.603 104.179C239.146 104.259 238.912 104.272 239.304 104.211C240.123 103.988 241.379 103.752 241.989 103.236L241.851 102.863L241.374 102.716ZM221.184 145.794L220.144 146.182L220.204 146.46C221.385 146.646 221.686 146.652 222.881 146.584L223.477 146.629L223.556 146.37C222.548 145.852 222.35 145.895 221.184 145.794ZM352.41 187.073C351.757 187.188 350.922 187.198 350.56 187.573C351.427 187.769 351.765 187.829 352.647 187.9L353.672 187.621L353.875 187.208C353.405 186.789 352.995 186.783 352.41 187.073ZM168.558 146.797C169.197 147.919 170.171 147.724 171.327 148.513L171.548 148.413C171.403 146.989 169.73 146.867 168.558 146.797ZM347.927 229.615C346.715 230.081 345.985 230.208 344.73 230.402L344.625 230.649L345.195 230.843C346.302 230.815 347.76 230.856 348.372 229.738L348.15 229.505L347.927 229.615ZM211.334 115.345C210.458 115.663 210.238 115.667 209.696 116.435L209.76 116.705C210.457 116.679 210.234 116.762 210.831 116.494L212.819 115.6L212.919 115.334C212.286 115.304 211.967 115.306 211.334 115.345ZM379.865 182.231C378.76 182.623 376.625 183.36 375.902 184.243C376.067 184.491 375.965 184.447 376.137 184.487C376.93 184.097 379.897 182.834 380.24 182.412L379.865 182.231ZM327.387 138.42C326.595 139.367 326.062 140.229 325.397 141.258C325.475 141.461 325.542 141.696 325.655 141.869C326.667 141.124 327.312 139.907 327.645 138.712L327.387 138.42ZM222.497 131.195C221.619 131.601 220.516 132.003 219.874 132.684L220.026 132.975L220.328 133.067C221.342 132.734 221.93 132.621 222.762 131.962L222.891 131.546L222.497 131.195ZM204.961 138.715C204.234 139.247 202.295 140.47 202.06 141.131L202.346 141.189C203.379 140.667 204.564 140.193 205.317 139.361C205.192 138.84 205.322 139.048 204.961 138.715ZM352.242 211.118C351.405 211.224 350.032 211.248 349.467 211.676C349.925 212.053 349.892 212.045 350.45 212.235C351.602 211.995 352.187 211.962 353.167 211.306L353.087 211.076C352.905 211.082 352.397 211.085 352.242 211.118ZM190.91 99.4926C189.63 100.061 188.589 100.48 187.274 100.959L187.321 101.141L187.887 101.184C188.976 101.005 191.137 100.663 191.835 99.8488C191.286 99.4511 191.584 99.5656 190.91 99.4926ZM195.891 147.124C195.018 148.668 194.167 149.243 192.747 150.298L192.731 150.626L192.891 150.623C194.348 149.88 195.389 149.403 196.262 147.971L196.263 147.442L195.891 147.124ZM263.637 81.6431C262.795 81.7118 262.182 81.6601 261.507 82.1383C262.12 82.5078 262.602 82.4653 263.32 82.5128C264.297 82.3308 264.962 82.3093 265.732 81.7206C265.275 81.3123 264.235 81.5518 263.637 81.6431ZM236.387 134.218L236.029 134.748C236.683 135.452 238.864 135.471 239.917 135.544L240.104 135.06C239.405 134.628 237.273 134.337 236.387 134.218Z" fill="#3EB7B8"/>
<path d="M244.885 151.528C239.193 151.77 235.598 150.978 230.265 148.669C224.694 146.256 222.661 142.745 222.39 136.68C222.356 135.91 222.459 135.928 221.805 135.866C221.106 136.209 221.061 136.391 220.454 136.275C220.853 135.416 221.299 135.279 222.235 135.153C221.998 134.592 221.981 134.584 221.666 134.067C221.873 133.074 223.232 132.461 223.988 131.504C226.083 128.852 228.282 125.004 231.241 123.223C234.723 121.269 238.397 119.666 241.874 117.696C242.726 117.501 243.867 117.504 244.671 117.219C253.122 114.212 261.675 112.384 270.667 112.3C274.602 112.263 277.87 111.848 281.77 113.019C284.542 113.851 287.922 113.998 287.415 118.027C287.28 119.085 285.045 120.173 284.185 120.641C280.395 120.615 274.965 119.721 272.105 119.796C261.755 120.069 245.027 122.739 236.644 129.387C235.032 130.665 235.006 132.833 235.05 134.633C235.056 134.916 235.066 135.198 235.081 135.48C237.736 138.475 241.146 138.876 244.899 139.514C248.291 140.091 251.465 141.137 254.64 139.312C255.582 139.845 256.655 140.49 257.62 140.944C260.47 140.493 263.07 139.834 265.877 139.23C269.51 138.477 273.367 138.178 276.88 136.938C280.54 135.647 283.832 133.172 287.702 132.391C289.1 132.109 291.585 132.36 292.377 133.712C291.99 135.803 291.49 137.287 291.53 139.436C285.83 143.998 278.987 146.661 274.637 152.605C273.412 154.275 273.097 154.187 273.497 156.254C269.1 158.856 276.06 161.85 278.912 162.039C288.19 162.655 295.28 155.969 303.462 152.62C307.035 151.142 311.715 145.906 315.905 149.948C316.352 150.327 316.65 152.016 316.4 152.475C312.477 159.612 305.457 161.341 305.6 170.927C305.635 173.299 306.642 180.272 310.555 177.21C315.812 173.096 320.147 162.58 328.53 162.465C330.757 162.435 332.557 165.053 330.522 167.531C330.705 168.033 330.697 168.021 331.015 168.45C328.985 171.492 326.77 173.301 326.6 177.238C326.527 178.965 326.772 179.552 326.552 181.384C328.04 183.757 329.49 185.906 331.697 187.69C335.142 183.289 338.072 176.78 343.672 174.574C346 173.769 348.102 175.679 348.32 178.012C348.44 179.294 346.487 181.14 346.547 181.405C347.397 185.271 340.837 189.726 340.457 191.823L341.252 192.075C340.62 192.723 340.647 192.544 339.795 192.8C338.102 193.307 336.547 194.614 334.985 195.558C329.78 198.704 325.852 197.347 320.262 197.466C318.742 194.864 316.525 194.273 314.677 191.645C314.432 189.414 313.95 187.452 314.27 185.294C310.335 186.747 305.362 188.595 301.25 189.374C298.192 186.067 291.517 184.647 291.81 178.783C291.952 175.954 292.515 174.53 291 172.134C291.257 171.586 293.68 169.257 294.565 167.804C288.535 169.089 282.532 171.833 276.525 173.33C275.355 173.622 273.702 173.932 272.6 174.311C272.35 174.356 272.1 174.399 271.847 174.44C269.837 174.772 268.167 175.012 266.417 173.753C264.342 172.102 263.335 171.223 260.942 170.069C260.475 168.128 258.772 165.977 257.955 163.902C256.602 160.47 260.332 156.879 262.015 153.048L262.162 152.711L262.04 151.466C261.45 150.749 261.622 150.973 260.53 150.685C254.842 151.22 252.437 149.306 246.808 152.981C246.281 152.575 245.42 151.868 244.885 151.528Z" fill="#4B4746"/>
<path d="M329.003 271.682C328.742 272.152 328.501 272.331 328.138 272.545L327.728 272.785C326.7 273.557 325.402 274.148 324.095 273.885C324.735 273.133 325.75 273.27 326.82 272.38C327.63 271.78 327.793 271.549 328.745 271.459L329.003 271.682ZM301.752 260.158C302.392 260.658 302.203 260.345 302.388 261.097C301.928 261.515 300.148 262.122 299.133 262.705L298.848 262.87C298.12 262.89 298.373 263.029 297.963 262.655C298.283 262.112 300.36 260.807 301.125 260.222L301.752 260.158ZM315.605 252.757C315.813 253.185 315.77 252.942 315.625 253.495C314.545 254.302 313.913 254.425 312.643 254.847L312.69 254.363C313.803 253.808 314.533 253.417 315.605 252.757ZM354.82 244.152C355.593 244.048 357.035 243.855 357.728 244.143C356.82 244.642 355.572 244.645 354.5 244.748C353.53 244.756 352.066 244.884 351.271 244.496C352.453 244.084 353.556 244.168 354.82 244.152ZM322.265 241.235C322.274 241.781 321.38 242.956 320.992 243.592C321.687 243.97 322.41 244.107 322.992 244.563C321.65 244.785 321.28 244.609 320.226 243.806L320.258 243.214C321.067 242.475 321.35 241.88 322.265 241.235ZM335.885 240.303C336.59 240.246 336.795 240.283 337.485 240.348C336.903 240.86 335.91 240.99 335.082 241.207C334.475 241.341 334.447 241.419 333.897 241.186C334.43 240.66 335.147 240.534 335.885 240.303ZM376.725 234.435C376.685 235.273 375.65 236.461 375.107 237.252C375.295 237.876 375.304 238.09 375.584 238.534L375.723 238.741L376.41 239.198L376.365 239.564C375.4 239.863 375.01 239.916 373.998 240.06C373.056 240.41 370.775 241.26 370.008 240.475C370.263 239.608 371.928 238.4 372.75 237.667C373.825 236.827 375.735 234.73 376.725 234.435ZM322.561 237.83C323.968 237.852 327.037 237.675 328.085 238.138C326.592 238.765 323.623 239.233 322.561 237.83ZM360.165 233.136C356.818 236.43 359.395 235.206 357.315 238.076L356.822 238.183L356.688 237.797C357.165 236.113 358.09 233.931 359.55 232.904L360.165 233.136ZM335.255 232.598C336.152 232.467 336.418 232.363 337.295 232.634L337.255 232.872C336.223 233.534 335.4 233.559 334.183 233.76C333.008 233.72 332.727 233.785 331.7 233.305C332.533 232.724 334.165 232.696 335.255 232.598ZM305.34 228.523C306.781 228.483 308.163 228.426 309.599 228.495L309.126 228.731L306.562 229.177C304.855 229.437 303.605 230.149 302.027 230.883C303.415 229.665 303.66 229.341 305.34 228.523ZM348.372 229.738C347.76 230.856 346.303 230.814 345.195 230.842L344.625 230.649L344.73 230.402C345.985 230.208 346.715 230.08 347.928 229.615L348.15 229.505L348.372 229.738ZM376.134 225.577C376.616 225.317 376.659 225.218 377.162 225.36C377.247 226.59 377.095 227.96 375.665 228.214C374.87 227.693 375.19 228.031 374.76 227.093C373.715 227.575 372.665 228.049 371.615 228.517C370.65 228.919 368.782 229.814 367.84 229.614C368.49 229.031 369.945 228.506 370.805 228.141C372.815 226.893 373.665 226.375 375.897 225.697L376.134 225.577ZM309.162 228.747L309.015 228.788L309.126 228.731L309.218 228.715L309.162 228.747ZM309.13 228.766L309.162 228.747L309.206 228.735L309.13 228.766ZM309.206 228.735L309.285 228.704L309.39 228.686L309.206 228.735ZM309.79 228.503L309.285 228.704L309.218 228.715L309.605 228.495C309.667 228.497 309.728 228.5 309.79 228.503ZM326.883 223.189C327.035 223.404 327.06 223.589 327.147 223.858C326.512 224.861 325.018 226.485 323.995 227.084C324.185 227.864 324.147 227.638 324.805 228.295L324.538 228.692L323.69 228.561C322.78 228.532 321.988 228.473 321.08 228.391L321.226 227.986C324.433 226.353 324.37 224.604 326.883 223.189ZM309.605 228.495C309.603 228.494 309.601 228.495 309.599 228.495L309.66 228.464L309.605 228.495ZM344.86 224.32C345.353 224.266 345.8 224.203 346.263 224.418C347.712 225.097 348.64 224.799 350.212 224.886L350.185 224.902C350.024 225.241 348.44 227.061 348.02 227.64C347.242 227.754 345.975 227.723 345.192 227.572C346.04 227.253 347.508 226.901 347.758 226.02C347.213 225.39 345.805 224.892 344.86 224.32ZM364.152 221.906C365.757 221.989 369.555 222.925 371.268 223.289L367.395 223.59C365.632 224.103 364.135 225.062 362.508 225.917C360.59 227.048 357.167 226.941 354.947 226.762C355.52 226.157 360.323 225.558 361.543 225.316C362.671 224.906 364.85 224.23 365.61 223.382L364.973 222.8C364.13 222.539 364.437 222.78 363.95 222.16L364.152 221.906ZM341.045 223.359L340.893 223.707C338.48 225.103 336.337 226.378 333.567 226.674L333.357 226.661L333.208 226.485C336.173 225.181 337.552 224.75 340.537 223.134L341.045 223.359ZM387.23 218.572C387.922 218.63 387.66 218.474 388.095 218.922C387.367 220.629 386.43 222.141 385.325 223.623C385.013 223.673 385.185 223.686 384.82 223.499C385.288 222.132 385.977 220.86 386.35 219.487C386.532 218.811 386.401 219.146 387.23 218.572ZM353.085 218.194L353.018 218.597C351.505 220.033 350.398 221.035 348.338 221.577L348.155 221.385L348.188 221.084C350.052 219.999 351.112 219.134 352.867 217.952L353.085 218.194ZM338.173 216.6C338.843 216.538 339.528 216.37 340.08 216.595C338.188 217.242 335.92 217.558 333.812 218.175C332.97 218.483 331.69 218.737 330.782 218.947C333.587 217.131 334.948 216.907 338.173 216.6ZM372.82 211.687C373.553 212.512 373.285 211.97 373.242 213.356C374.242 213.282 374.778 213.177 375.74 213.393C375.475 213.726 373.091 214.459 372.351 214.747C371.531 215.017 370.241 215.935 369.453 216.438C370.721 214.962 372.328 213.482 372.82 211.687ZM386.623 209.957C386.983 211.183 386.273 211.718 385.476 212.519L385.57 212.944C386.215 213.239 386.373 213.304 386.982 213.712C386.875 214.531 387.02 214.135 386.327 214.846C385.352 214.284 384.763 213.729 383.913 213.006C384.786 211.964 385.688 210.947 386.623 209.957ZM353.168 211.305C352.188 211.961 351.603 211.994 350.45 212.235C349.893 212.045 349.925 212.053 349.468 211.675C350.033 211.247 351.405 211.224 352.242 211.119C352.397 211.085 352.905 211.081 353.088 211.076L353.168 211.305ZM389.037 199.054C390.932 200.443 391.688 202.338 392.405 204.511C393.188 205.448 393.48 206.663 393.478 207.871C392.068 206.851 392.895 208.085 391.317 207.391C390.4 207.239 389.002 206.914 388.255 207.397C387.992 208.487 388.02 208.753 386.893 209.063C386.525 208.635 385.166 207.689 385.178 207.49C385.22 206.876 385.665 206.9 385.24 206.106C384.403 205.977 383.86 205.888 383.043 205.676C383.803 204.451 388.162 201.72 389.555 201.019C389.682 200.154 389.432 200.013 389.037 199.054ZM374.123 204.099C374.702 204.246 374.458 204.087 374.902 204.526C374.57 205.489 373.708 206.271 372.995 207.052C372.493 207 372.725 207.094 372.311 206.74C372.478 205.963 373.573 204.783 374.123 204.099ZM388.365 206.155H388.366H388.365ZM358.912 203.356C358.45 204.059 356.752 204.975 355.93 205.495L355.633 205.329C355.948 204.425 357.681 203.61 358.561 203.167L358.912 203.356ZM376.3 198.648C376.415 198.748 376.53 198.959 376.622 199.101C375.895 200.333 375.293 201.451 374.388 202.563L374.168 202.217C374.233 200.628 375.232 199.832 376.3 198.648ZM263.343 197.858C265.267 199.098 265.462 199.626 265.09 201.883C262.64 201.417 263.168 199.888 263.343 197.858ZM273.088 199.756C273.785 199.535 274.553 199.555 275.228 199.85L275.375 200.267C274.433 200.787 273.008 200.552 271.75 201.04C270.763 201.344 270.557 201.384 269.527 201.44C269.76 201.055 272.475 200.004 273.088 199.756ZM335.32 199.312C337.009 199.23 338.676 199.019 340.285 199.356L340.022 200.067C338.628 200.12 338.252 200.152 336.853 199.871C335.278 199.495 334.002 200.458 332.067 200.637L331.875 200.47C333.173 199.733 333.895 199.635 335.32 199.312ZM340.9 199.512C340.697 199.45 340.491 199.399 340.285 199.356L340.295 199.33L340.9 199.512ZM229.147 196.803C229.898 196.765 230.598 196.624 231.227 196.969C230.455 197.468 229.515 197.459 228.58 197.557C227.839 197.782 227.807 197.824 227.005 197.825C227.655 197.187 228.273 197.085 229.147 196.803ZM248.14 194.642C247.251 195.473 245.987 196.166 244.931 196.814L244.876 196.414C245.616 195.392 247.029 194.779 248.156 194.286L248.14 194.642ZM361.268 190.269C361.685 190.344 361.468 190.269 361.9 190.55C360.938 191.001 360.093 191.199 359.075 191.487L358.595 191.477L358.612 191.211C359.595 190.631 360.183 190.545 361.268 190.269ZM140.151 187.638C140.625 188.151 140.449 187.838 140.431 188.753C139.703 189.25 138.117 189.174 136.842 189.738C136.143 189.877 135.737 189.766 135.039 189.665L134.954 189.433C135.54 188.993 138.229 187.952 139.198 187.509L140.151 187.638ZM106.877 187.388C109.468 186.564 111.945 185.727 114.729 186.567L114.914 186.786C114.124 188.009 111.913 188.447 110.529 188.522C109.987 188.879 109.996 188.835 109.691 189.4C108.764 188.715 107.826 188.044 106.877 187.388ZM131.895 187.074C132.703 187.086 133.623 187.014 134.244 187.458C133.917 188.167 133.731 188.061 132.851 188.53C131.896 188.325 131.434 188.317 130.685 187.743L130.865 187.375L131.895 187.074ZM352.41 187.073C352.995 186.783 353.405 186.789 353.875 187.207L353.673 187.621L352.647 187.9C351.765 187.828 351.428 187.769 350.561 187.573C350.923 187.198 351.758 187.188 352.41 187.073ZM237.503 185.52C238.61 185.586 240.295 185.975 241.301 186.415L241.141 186.693L241.183 186.483C240.549 186.914 240.701 186.762 239.689 186.626C238.067 186.302 237.154 186.454 235.538 186.409C236.145 185.835 236.645 185.802 237.503 185.52ZM380.24 182.412C379.898 182.834 376.93 184.097 376.138 184.487C375.965 184.447 376.067 184.491 375.902 184.243C376.625 183.359 378.76 182.623 379.865 182.231L380.24 182.412ZM243.67 177.666C243.075 178.538 241.731 179.377 240.819 179.942C240.341 180.194 240.39 180.196 239.971 180.556C240.077 181.416 240.368 180.909 241.329 181.814C240.474 182.679 239.46 182.6 238.645 181.738C238.524 180.749 238.466 181.216 238.834 180.283C239.574 179.775 239.727 179.671 240.547 179.326L241.258 178.755C241.901 178.242 242.407 177.887 243.38 177.555L243.67 177.666ZM132.062 179.745C131.349 180.345 130.964 180.462 130.099 180.851C128.301 181.812 125.452 181.974 123.389 181.975L123.426 181.736C124.953 181.005 127.41 181.458 129.624 180.476C130.501 179.93 131.029 179.475 132.05 179.405L132.062 179.745ZM111.257 179.945C112.107 180.107 115.409 181.069 115.882 181.76C113.868 182.19 112.095 181.881 111.257 179.945ZM275.013 175.61C273.558 177.209 271.703 175.257 269.025 177.562C267.88 178.501 267.312 179.013 265.975 179.71C265.307 179.85 264.695 179.954 264.048 180.183C262.835 180.262 260.877 180.742 259.63 181.011C260.885 180.367 261.397 180.111 262.782 179.665L264.763 179.095C266.553 178.483 267.135 178.14 268.607 177.087L268.979 176.814C270.817 175.542 272.312 175.644 274.747 175.388L275.013 175.61ZM164.345 174.066C164.067 174.679 160.828 176.927 159.993 177.572L159.734 177.507L159.608 177.181C160.397 176.196 162.92 174.635 164.066 173.955L164.345 174.066ZM390.367 174.226L390.63 174.801L390.468 175.231C389.578 175.552 387.762 175.199 386.689 175.102L385.982 175.147L386.189 174.857C387.719 174.318 388.437 174.302 390.05 174.145L390.367 174.226ZM266.418 173.753C269.315 171.9 269.675 174.52 272.6 174.311C272.35 174.355 272.1 174.399 271.848 174.441C269.838 174.773 268.168 175.012 266.418 173.753ZM252.46 170.116L252.423 170.687C251.413 171.681 247.678 173.874 246.369 174.641L246.227 174.642L246.046 174.432C246.658 173.448 250.939 170.738 252.127 169.983L252.46 170.116ZM142.125 171.658C142.163 172.72 141.456 173.214 140.714 173.848L140.44 173.614C140.539 172.924 141.364 171.997 141.816 171.393L142.125 171.658ZM125.04 169.193C125.988 169.518 127.062 170.311 127.336 171.308C126.055 171.073 125.285 170.52 125.04 169.193ZM154.198 169.276C154.708 169.159 154.671 169.165 155.171 169.326C154.525 169.859 153.417 170.134 152.59 170.408C152.087 170.417 152.326 170.481 151.882 170.187C152.562 169.66 153.364 169.512 154.198 169.276ZM392.255 166.602L392.418 166.945C391.863 167.533 391.095 167.704 390.31 167.99L389.935 168.158L389.812 167.815C390.487 166.97 390.785 166.935 391.822 166.485L392.255 166.602ZM221.924 166.853L221.661 167.246C220.629 167.828 220.416 167.817 219.221 167.896L218.958 167.76L218.879 167.461C219.696 167.144 220.597 166.982 221.459 166.795L221.924 166.853ZM151.211 165.357C152.517 165.199 153.359 164.928 154.369 165.843C153.282 165.98 152.209 165.785 151.211 165.357ZM113.228 163.553C114.805 163.165 115.42 163.169 116.982 163.638L117.333 164.054C116.12 164.839 115.587 163.553 113.773 164.667C113.798 164.505 113.769 164.116 113.763 163.934L113.228 163.553ZM195.067 161.784L195.22 162.088C194.595 162.766 193.601 163.156 192.754 163.575L192.373 163.344C192.697 162.675 193.955 162.134 194.678 161.737L195.067 161.784ZM158.581 161.922C159.258 161.9 159.236 161.889 159.885 162.072L159.775 162.398L158.681 162.757L157.564 162.661L157.504 162.413L158.581 161.922ZM218.396 154.797C219.883 154.531 223.17 155.467 224.756 155.846L224.827 156.124C224.566 156.319 224.412 156.415 224.072 156.435C221.92 156.559 221.232 157.937 219.14 159.213C218.396 159.549 217.811 159.768 216.986 159.705L216.992 159.626C219.113 158.341 220.041 158.088 221.573 156.114C220.121 155.841 219.305 155.861 218.396 154.797ZM126.744 157.878C127.342 157.949 127.147 157.885 127.651 158.171C127.225 158.701 126.503 158.804 125.811 159.015C125.423 159.273 125.647 159.2 125.123 159.184C125.525 158.492 126.046 158.29 126.744 157.878ZM156.031 157.998C157.011 157.983 161.928 158.179 162.532 158.566L162.026 159.014C160.9 159.041 156.316 158.917 155.478 158.526L156.031 157.998ZM387.965 156.551C387.215 157.261 386.83 157.296 385.812 157.631C385.638 157.665 385.775 157.657 385.271 157.58C385.658 157.043 386.785 156.59 387.43 156.27L387.918 156.209L387.965 156.551ZM273.498 156.254C275.793 156.346 276.817 155.142 277.755 155.419L277.945 155.846C276.835 156.376 275.213 156.82 273.978 156.829C273.83 156.662 273.611 156.431 273.498 156.254ZM207.282 153.349L207.259 153.62C206.248 154.102 205.425 154.417 204.388 154.814L204.038 154.719L203.889 154.448C204.58 153.876 205.945 153.516 206.846 153.213L207.282 153.349ZM189.305 146.955C188.19 147.819 187.533 148.325 186.315 149.055C184.287 151.066 186.114 150.418 185.441 151.786C184.16 152.399 180.873 153.239 179.316 153.73C181.887 152.026 183.667 150.093 186.206 148.437C187.472 147.691 187.971 147.481 189.305 146.955ZM387.708 152.374C388.963 152.159 390.59 153.059 391.695 153.697C390.565 153.881 388.471 153.228 387.708 152.374ZM299.338 152.483C298.68 153.075 297.672 153.324 296.812 153.622L296.263 153.421L296.325 153.114C297.342 152.57 297.833 152.54 298.965 152.321C299.09 152.375 299.213 152.429 299.338 152.483ZM264.415 149.259C263.723 151.006 262.96 151.165 262.162 152.711L262.04 151.466C261.45 150.749 261.622 150.973 260.53 150.685L260.78 150.586C262.315 149.971 262.476 149.44 264.213 149.029L264.415 149.259ZM114.495 148.274C115.353 148.599 115.867 148.879 116.309 149.605C115.578 151.981 112.188 152.191 110.126 152.18C109.366 152.387 109.389 152.522 108.784 152.3C109.257 151.441 113.347 148.781 114.495 148.274ZM196.264 147.442L196.263 147.97C195.389 149.403 194.348 149.88 192.891 150.623L192.731 150.625L192.747 150.298C194.167 149.243 195.018 148.668 195.891 147.124L196.264 147.442ZM168.559 146.797C169.731 146.867 171.403 146.989 171.548 148.413L171.327 148.512C170.172 147.723 169.198 147.919 168.559 146.797ZM221.185 145.793C222.35 145.895 222.548 145.853 223.556 146.371L223.478 146.628L222.882 146.584C221.686 146.652 221.384 146.646 220.204 146.46L220.144 146.181L221.185 145.793ZM302.343 141.398C302.112 141.962 298.723 144.551 298.058 145.074C297.81 144.85 297.913 145.001 297.848 144.569C299.278 143.051 300.403 142.223 302.21 141.252L302.343 141.398ZM352.117 142.268C351.692 142.801 349.865 143.327 349.11 143.597L348.897 143.296L349.188 142.867C350.355 142.303 350.733 142.301 352.005 142.102L352.117 142.268ZM327.645 138.711C327.312 139.907 326.668 141.124 325.655 141.869C325.543 141.696 325.475 141.461 325.397 141.257C326.062 140.229 326.595 139.367 327.388 138.42L327.645 138.711ZM204.961 138.715C205.322 139.048 205.193 138.84 205.317 139.361C204.565 140.193 203.379 140.667 202.346 141.189L202.06 141.131C202.295 140.47 204.234 139.247 204.961 138.715ZM191.616 136.369C190.69 137.545 188.984 138.587 187.674 139.284L187.438 139.173L187.521 138.751C188.128 137.98 190.374 136.759 191.324 136.191L191.616 136.369ZM158.127 138.316C159.816 138.169 160.079 138.183 161.368 139.254C160.11 139.19 159.302 138.775 158.127 138.316ZM236.388 134.218C237.274 134.337 239.405 134.628 240.104 135.06L239.917 135.543C238.864 135.471 236.683 135.452 236.029 134.747L236.388 134.218ZM211.797 125.231C209.789 127.549 209.525 128.359 206.67 129.41C204.928 130.527 205.981 131.944 201.439 133.872C203.289 132.228 205.109 131.102 205.75 128.736C207.759 127.556 209.775 126.388 211.797 125.231ZM222.891 131.545L222.762 131.961C221.93 132.62 221.342 132.733 220.328 133.066L220.026 132.974L219.874 132.684C220.516 132.003 221.619 131.601 222.497 131.195L222.891 131.545ZM182.723 131.282C183.122 131.27 183.414 131.323 183.812 131.367C183.572 131.734 182.621 131.946 182.081 132.139C181.287 132.141 181.594 132.287 181.039 131.906C181.722 131.31 181.682 131.482 182.723 131.282ZM387.205 125.522C386.625 126.224 385.61 126.587 384.763 126.99C384.578 126.805 384.66 126.935 384.643 126.539C385.517 125.755 385.868 125.69 386.99 125.235L387.205 125.522ZM294.3 125.594C294.74 125.521 298.603 126.01 300.325 125.943L300.588 126.273C299.095 126.846 295.515 126.543 294.3 125.594ZM362.945 123.638C362.523 124.316 361.332 125.13 360.652 125.656L360.226 125.507L360.228 125.248C361.058 124.474 361.632 124.042 362.532 123.36L362.945 123.638ZM181.262 124.621C182.526 124.001 185.111 124.407 186.221 125.42C184.804 125.161 181.85 125.16 181.262 124.621ZM348.505 122.023C349.195 121.983 349.582 122.009 350.26 122.053L350.332 122.273L349.655 122.545C348.828 122.798 348.782 122.849 347.888 122.861L347.782 122.586L348.505 122.023ZM222.379 121.215C222.93 121.238 222.657 121.173 223.191 121.433C222.61 121.991 221.172 122.353 220.312 122.648C219.942 122.754 220.163 122.727 219.644 122.628C220.082 122.113 221.672 121.525 222.379 121.215ZM377.843 118.874C376.213 120.836 374.537 121.106 372.112 121.77L371.925 121.611C372.402 121.053 376.217 119.762 377.742 118.831L377.843 118.874ZM207.638 117.276C208.013 117.808 207.917 117.604 208.112 118.234C207.322 119.385 205.084 119.412 203.745 119.606L203.367 119.33C203.854 118.677 206.653 117.693 207.638 117.276ZM225.902 115.479C224.378 116.47 223.118 117.454 221.383 117.817L221.029 117.881C219.758 117.867 217.744 117.663 216.419 117.574L220.498 117.038C222.387 116.563 224.136 115.92 225.902 115.479ZM211.335 115.345C211.967 115.306 212.286 115.303 212.919 115.333L212.819 115.6L210.831 116.494C210.235 116.762 210.457 116.679 209.761 116.705L209.696 116.435C210.238 115.667 210.458 115.663 211.335 115.345ZM351.638 110.944C351.835 112.478 351.075 113.109 349.91 113.825L349.873 113.26C350.78 112.332 351.07 112.094 351.638 110.944ZM374.65 112.057C375.318 112.055 375.323 111.997 375.878 112.337C375.32 112.834 374.568 112.899 373.808 113.069L373.093 113.153L372.896 112.924C373.663 112.162 373.473 112.391 374.65 112.057ZM226.676 109.627C226.603 110.492 226.018 111.796 225.209 112.203C224.003 112.743 222.911 111.825 222.271 110.837L222.509 110.693L224.221 111.442C226.243 110.651 225.711 109.55 226.676 109.627ZM206.494 108.372C207.561 108.377 208.105 108.372 208.823 109.108C208.728 110.01 208.736 109.739 207.901 110.553C206.715 110.715 204.847 110.268 205.037 108.799L205.744 108.377C205.994 108.372 206.244 108.371 206.494 108.372ZM232.776 109.341C233.562 108.765 237.603 109.063 238.647 109.132L239.268 109.067L239.31 109.384C237.664 109.962 237.255 109.893 235.48 109.694C235.022 109.693 233.775 109.519 233.259 109.459L233.273 109.413L232.776 109.341ZM364.05 107.037L364.02 107.248L362.412 107.935C361.793 107.987 362.038 108.086 361.605 107.795C362.148 107.176 362.515 107.161 363.31 106.938L364.05 107.037ZM121.269 104.538C120.593 104.967 120.101 105.415 119.336 105.384C119.691 104.695 120.072 104.659 120.864 104.183L121.269 104.538ZM123.108 103.226C122.968 103.881 121.877 104.262 121.269 104.538L120.865 104.183C121.663 103.689 122.197 103.215 123.108 103.226ZM241.852 102.863L241.989 103.236C241.38 103.751 240.123 103.987 239.304 104.21C238.912 104.271 239.146 104.259 238.604 104.179C239.049 103.658 240.662 103.037 241.375 102.716L241.852 102.863ZM222.58 98.8608C223.296 98.8995 223.471 98.8346 224.062 99.2309L223.943 99.6596C223.027 100.339 222.77 100.609 221.997 101.456C221.557 101.779 221.498 101.801 221.018 102.058L220.921 101.675C221.495 100.393 221.799 99.9765 222.58 98.8608ZM184.281 100.034C183.719 100.927 182.18 101.173 181.122 101.43L181.008 101.289L181.044 100.946C182.225 100.549 182.865 100.299 183.988 99.7641L184.281 100.034ZM190.91 99.4926C191.583 99.5655 191.286 99.4515 191.835 99.849C191.136 100.663 188.976 101.004 187.887 101.184L187.321 101.141L187.274 100.959C188.59 100.48 189.631 100.061 190.91 99.4926ZM245.894 97.8002C248.022 96.5615 249.984 97.4566 252.195 98.2738C250.243 98.3408 248.513 97.9384 246.907 98.1293C246.273 98.3255 243.396 99.7325 242.937 99.5717C243.492 98.9477 245.084 98.2184 245.894 97.8002ZM206.022 95.2172C206.69 95.21 206.744 95.2351 207.402 95.3813L207.27 95.6547L205.821 96.1332C205.458 96.4371 205.596 96.3335 205.104 96.4721C205.252 95.6987 205.291 95.8831 206.022 95.2172ZM303.355 89.2709C302.391 89.7443 301.958 89.7637 300.878 89.9594L300.46 89.9438L300.303 89.7192C301.37 89.2229 301.733 89.2464 302.935 89.1039L303.165 89.0903L303.355 89.2709ZM268.6 87.8539C267.495 89.0903 266.562 89.1782 264.97 89.5639L264.958 89.4145C265.453 88.675 267.72 87.7324 268.673 87.2719L268.6 87.8539ZM221.968 84.2807L221.94 84.6283C221.077 85.4613 220.327 86.0949 219.412 86.8549C219.061 86.7322 219.225 86.8335 218.943 86.5151C219.391 85.7685 220.872 84.7693 221.631 84.1908L221.968 84.2807ZM280.1 82.6059C280.787 82.6264 281.865 82.8775 282.265 83.4867C281.5 83.8044 281.457 83.6223 280.468 83.4399C279.585 83.5254 278.432 83.7679 277.737 83.1567C278.347 82.6295 279.252 82.6763 280.1 82.6059ZM263.638 81.643C264.235 81.5517 265.275 81.3121 265.732 81.7201C264.963 82.3088 264.298 82.3302 263.32 82.5121C262.603 82.4646 262.12 82.5075 261.508 82.1381C262.183 81.66 262.795 81.7117 263.638 81.643Z" fill="#3EB7B8"/>
</g>
<defs>
<clipPath id="clip0_79_8387">
<rect width="480" height="480" fill="white"/>
</clipPath>
</defs>
</svg>
