<svg width="480" height="480" viewBox="0 0 480 480" fill="none" xmlns="http://www.w3.org/2000/svg">
<g clip-path="url(#clip0_79_5210)">
<path d="M171.814 227.658C167.36 230.329 160.866 236.437 157.861 240.706C155.917 243.469 154.308 246.498 151.969 248.965C151.23 249.745 150.367 250.562 149.432 251.097C148.243 251.777 141.227 253.73 139.972 253.56C137.051 253.17 133.186 250.085 131.269 247.966C128.322 244.71 125.432 240.238 124.539 235.878C124.073 233.6 123.886 231.207 123.242 228.975C122.366 225.937 120.987 223.005 120.475 219.869C120.092 217.521 120.329 215.015 119.845 212.701C119.542 211.253 118.589 209.997 118.245 208.529C116.215 199.877 115.879 194.094 116.306 185.323C116.719 176.817 117.364 167.362 119.74 159.182C121.909 151.712 125.928 145.439 129.921 138.876C131.665 136.01 133.279 132.957 135.358 130.317C140.481 123.81 155.007 110.301 161.731 105.714C166.401 102.528 171.556 99.64 176.557 97C178.811 95.8102 181.525 94.8382 183.599 93.366C184.974 92.3892 186.073 90.9007 187.347 89.7827C189.755 87.6692 201.997 84.839 205.586 84.2135C210.066 83.4327 214.581 83.2727 219.084 82.7387L232.129 81.3162C233.472 81.1732 237.489 80.612 238.651 80.6567C242.783 80.6712 247.147 81.3362 251.247 81.3892C256.352 81.4552 260.752 80.9022 265.875 82.0605C267.655 82.3487 269.505 82.172 271.277 82.4312C281.887 83.9842 292.485 87.4715 302.752 90.4652C305.902 91.3837 310.73 95.1285 313.775 96.515C319.252 99.0112 324.047 102.354 329.072 105.585C332.587 107.927 338.172 110.621 341.162 113.595C351.275 123.656 362.032 134.336 367.857 147.555C369.072 150.76 369.567 153.845 370.387 157.192C372.562 166.062 372.667 175.329 373.34 184.388C373.38 184.927 372.162 188.304 371.98 189.22C369.355 202.253 361.89 214.271 353.827 224.637C351.24 227.957 346.36 231.333 342.872 234.161C340.765 234.005 339.72 234.91 338.207 234.877C334.612 234.446 335.18 229.178 334.202 227.148C331.975 222.517 329.685 221.815 329.77 216.268C328.25 214.14 326.522 209.478 325.405 206.919C323.742 203.117 322.052 199.962 320.15 196.287C318.132 192.515 315.992 187.605 313.487 184.163C311.63 181.607 304.557 177.852 301.71 176.658C297.817 175.027 294.185 174.378 290.532 172.042L290.147 171.793C283.29 172.217 275.845 171.031 268.88 172.204C268.36 172.291 266.352 173.224 265.537 173.437C262.377 174.263 254.365 177.156 251.785 179.062C246.182 183.246 241.632 188.906 236.939 193.999C233.412 197.826 228.408 201.744 224.304 204.912C219.598 208.546 214.507 211.278 209.594 214.512C206.033 216.855 203.276 219.718 199.149 221.291C192.529 224.523 187.491 223.623 180.496 225.076C178.789 225.431 176.154 226.798 174.237 227.425L173.718 226.671C173.991 225.6 174.581 224.796 175.161 223.843L175.074 223.744C174.697 224.101 173.833 224.991 173.432 225.176L173.267 224.935C173.519 223.684 173.475 223.49 174.335 222.639C173.491 222.396 169.473 225.364 171.814 227.658ZM340.155 214.88L340.225 215.318L340.687 215.435C341.987 214.628 344.132 213.022 344.207 211.393C343.587 210.434 342.98 210.456 341.885 210.311C341.16 210.727 339.232 211.689 338.87 212.239L339.087 212.659C339.937 212.717 340.887 212.662 341.522 213.161C341.535 214.077 340.877 214.327 340.155 214.88ZM204.845 212.016C206.256 212.684 207.396 213.131 208.461 211.616C208.319 210.808 207.535 210.063 206.801 209.701C205.187 210.57 204.185 211.017 202.864 212.293L202.798 212.663C203.523 212.764 204.17 212.353 204.845 212.016ZM356.625 213.655C357.48 212.94 357.505 213.136 357.832 212.237C357.607 211.396 356.585 210.642 355.862 210.167C355.372 210.952 354.942 211.61 354.545 212.45C355.202 213.267 355.665 212.859 356.625 213.655ZM348.375 194.935C351.267 194.907 351.465 194.818 353.84 192.743C354.285 192.355 355.745 190.686 355.985 190.232L355.57 189.979C351.97 192.729 353.865 193.543 348.122 194.726L348.187 195.068L348.375 194.935ZM353.24 205.179C354.21 204.843 355.185 204.697 355.662 203.942C354.945 203.42 353.68 203.562 352.795 203.619L352.472 203.842C351.545 203.666 351.7 203.531 351.102 203.915C351.26 204.67 352.192 205.109 352.875 205.411L353.24 205.179ZM262.332 166.864C263.05 166.521 263.015 166.549 263.575 165.987C263.49 164.421 261.705 164.48 260.535 164.565L259.395 165.258L259.33 165.565C260.147 165.569 261.485 165.432 262.07 165.884L262.332 166.864ZM199.59 212.444L199.899 212.587C201.105 211.879 202.062 211.465 202.602 210.153L202.496 210.096C200.969 211.124 199.351 210.578 198.394 211.328C198.557 211.985 198.822 211.942 199.59 212.444ZM351.19 172.474C353.457 171.073 354.63 170.826 356.74 168.955L356.782 168.591L356.627 168.493C355.287 169.326 351.842 171.151 351.065 172.019L351.075 172.374L351.19 172.474ZM304.142 112.915C304.837 112.684 305.1 112.638 305.702 112.197C305.342 111.468 304.885 111.312 304.377 110.648C303.955 111.367 302.912 112.887 302.927 113.608C303.582 113.523 303.62 113.37 304.142 112.915ZM234.325 175.083C236.904 174.257 238.533 174.17 240.792 173.535L240.743 173.155L240.555 173.088C238.915 173.362 235.48 173.881 234.194 174.725L234.023 175.109L234.325 175.083ZM187.922 191.816C189.085 191.529 189.593 191.485 190.596 190.792L190.445 190.464L190.168 190.622C189.185 190.786 188.245 190.855 187.383 191.322L187.397 191.615L187.922 191.816ZM305.76 98.8347C306.805 98.7962 308.262 98.667 308.84 97.6387C308.382 97.3322 308.645 97.4247 307.982 97.5287C307.162 97.6465 305.42 97.768 304.87 98.237C305.342 98.7187 305.145 98.5797 305.76 98.8347ZM213.106 189.187C212.362 189.814 211.004 190.792 210.671 191.615L210.894 191.815C211.989 191.035 212.509 190.717 213.398 189.667C213.277 189.247 213.397 189.392 213.106 189.187ZM152.066 228.677C153.171 228.452 153.905 228.371 154.914 227.85L154.897 227.612L154.345 227.55C153.082 227.772 152.744 227.788 151.648 228.422L151.688 228.732L152.066 228.677ZM235.691 177.936C234.537 178.832 234.09 179.719 233.418 181.013L233.488 181.382C234.538 180.553 234.978 179.71 235.707 178.591C235.709 178.409 235.726 178.099 235.691 177.936ZM248.738 151.087C249.33 150.392 250.515 149.294 250.54 148.554L250.252 148.401C249.394 149.317 248.855 149.781 248.301 150.916L248.475 151.177L248.738 151.087ZM274.615 91.8197L274.827 92.3485C276.087 92.572 278.67 93.1547 279.812 92.8787L279.615 92.54C277.96 92.3497 276.122 91.5265 274.615 91.8197ZM351.592 216.626C352.332 216.315 353.27 216.067 353.692 215.515C353.312 215.23 353.467 215.281 353.03 215.164C352.085 215.581 351.81 215.629 351.125 216.354L351.285 216.631L351.592 216.626ZM357.04 202.77C357.875 202.172 358.807 201.633 359.342 200.792L359.145 200.499C358.355 201.048 357.345 201.62 356.857 202.412L357.04 202.77ZM306.887 124.014C305.525 124.61 303.557 125.403 302.372 126.195V126.554L302.455 126.6C303.537 126.139 306.202 125.101 306.995 124.462L307.02 124.099L306.887 124.014ZM240.062 178.509C238.643 178.68 237.337 179.367 236.392 180.44L236.544 180.748L236.903 180.857C237.62 180.246 240.225 178.704 240.264 178.553L240.062 178.509ZM356.61 133.55C355.757 134.016 352.81 135.464 352.5 136.131L352.857 136.269C353.815 135.701 356.485 134.432 356.905 133.826C356.672 133.545 356.8 133.589 356.61 133.55ZM210.789 199.991C209.773 200.384 206.6 201.515 206.1 202.298L206.377 202.386C207.803 201.857 209.712 201.219 210.994 200.468L211.005 200.164L210.789 199.991ZM195.754 213.507C194.103 214.26 192.984 215.019 191.905 216.529C192.041 216.991 191.915 216.838 192.183 217.055C192.992 216.357 195.534 214.444 195.838 213.726L195.754 213.507Z" fill="#FF81B2"/>
<path d="M211.383 115.746C213.112 115.441 216.813 116.308 218.333 117.319C225.45 122.05 224.985 133.927 224.299 141.434C224.173 142.818 223.34 146.264 223.551 147.214C226.038 149.64 227.796 147.734 231.383 148.632L231.72 148.719C234.079 147.668 236.523 146.62 238.805 145.578C249.184 140.838 245.757 128.557 248.497 120.009C248.78 119.127 249.098 118.446 249.943 118.057C253.567 120.139 251.765 138.146 250.182 141.77C249.094 144.262 247.048 147.471 246.365 149.609C244.043 150.98 241.806 153.08 239.395 154.668C235.239 157.405 227.869 157.767 222.968 157.873C222.296 157.888 219.91 157.197 218.738 157.071C215.296 158.195 212.222 162.231 209.424 164.333C207.954 165.004 205.29 166.282 203.806 166.579C200.768 167.186 200.947 167.404 198.643 169.436L198.372 169.357C196.617 168.877 192.578 169.682 190.661 170.133C189.14 172.001 188.244 174.644 187.196 175.898C184.607 178.996 180.692 182.258 177.687 185.156C177.202 185.134 177.372 185.153 176.933 185.093L176.646 185.05C169.146 190.389 158.872 191.33 150.874 187.288C147.863 185.766 147.979 187.308 144.789 184.439C143.813 178.705 138.193 174.641 140.333 167.232C142.176 158.852 144.229 150.16 152.307 145.714C154.06 146.131 155.832 145.961 156.766 147.574C156.877 149.004 156.513 149.393 156.095 150.794L156.548 151.403C156.549 152.876 150.16 155.767 149.378 157.807C149.277 158.073 150.002 158.141 149.674 159.299C149.068 159.23 149.275 159.213 148.677 159.33C147.395 161.88 146.029 166.798 147.136 169.559C152.7 183.433 170.438 180.11 179.722 172.34C180.933 171.327 181.727 169.554 182.433 168.168C180.316 167.361 179.79 166.702 178.05 165.657C172.412 162.271 170.638 158.434 167.61 152.753C167.635 151.163 167.678 149.573 167.737 147.984C167.947 143.131 169.433 135.316 173.289 132.345C178.652 128.213 185.46 130.501 189.221 135.368C194.704 142.462 195.156 149.389 193.987 157.931C193.887 158.665 193.939 159.256 194.385 159.779C196.243 160.291 196.694 159.809 198.366 159.575C204.681 158.691 206.901 155.153 212.728 152.954C210.989 149.905 208.381 148.372 206.896 144.957C206.251 143.473 204.271 137.641 203.487 135.864C203.643 135.662 203.798 135.461 203.953 135.26C203.044 128.814 203.034 119.338 211.383 115.746Z" fill="#4B4746"/>
<path d="M365.318 290.04C368.648 290.085 370.153 292.535 371.35 295.223C373.82 300.765 374.775 306.602 376.283 312.442C379.048 323.17 382.117 334.243 382.002 345.423C381.92 353.445 382.533 361.266 382.163 369.27C382.048 371.753 382.332 374.372 382.092 376.862C379.977 389.312 377.59 405.401 365.585 412.288C364.531 412.893 363.545 413.832 362.398 414.295C354.756 416.487 347.595 413.12 340.818 409.895C332.173 410.743 325.13 414.717 315.9 413.897C308.265 413.22 308.947 413.088 305.087 406.458C305.095 403.67 302.658 400.94 301.933 398.138C301.826 397.723 301.997 395.526 301.958 395.373C299.15 387.338 289.408 379.63 282.605 374.892C279.783 372.928 275.023 374.55 275.233 368.976C275.325 366.448 277.198 360.247 279.618 359.455C285.37 356.89 296.34 357.777 301.627 355.415C308.297 352.43 317.88 341.847 323.458 336.795C326.515 334.025 329.1 327.43 331.18 324.003C334.818 318.01 338.186 312.328 341.438 306.163C344.818 299.153 343.493 296.528 349.693 290.44C350.908 290.463 352.873 290.323 354.02 290.413C358.943 290.808 360.433 291.127 365.318 290.04ZM107.56 291.027C109.951 290.912 112.65 291.353 115.098 291.383C116.528 291.4 122.319 290.925 123.275 291.683C126.33 294.105 126.75 299.455 128.85 302.64C130.64 305.352 132.904 307.735 134.809 310.367C138.158 314.95 140.34 319.498 144.646 323.338C146.776 325.238 149.092 326.95 151.293 328.785C158.559 334.848 165.908 342.023 174.287 346.44C177.549 348.16 181.616 349.838 185.034 351.298C189.201 352.933 192.83 354.013 196.436 356.843C200.404 359.96 203.126 369.25 200.149 373.49C198.002 376.548 191.37 379.44 188.117 381.845C184.074 384.832 179.925 388.06 176.466 391.803C174.42 394.01 173.924 394.922 174.066 397.642C174.101 401.93 169.048 407.603 165.254 409.013C158.62 411.477 150.194 407.255 144.287 404.933C142.795 407.312 140.224 409.925 137.22 409.865C130.63 409.73 126.22 408.353 120.852 404.605C120.01 404.018 117.606 404.325 116.662 403.088C115.3 401.235 114.225 399.447 112.764 397.625C102.958 385.392 98.7474 371.05 98.9214 355.517C98.9497 352.99 98.2177 350.275 98.3628 347.918C99.1576 335 99.8822 322.357 102.399 309.617C103.448 304.325 103.54 294.76 107.56 291.027ZM360.617 405.629H360.618H360.617ZM309.038 400.456V400.457V400.456ZM309.432 400.243C309.464 400.269 309.494 400.296 309.523 400.326V400.325C309.494 400.296 309.464 400.268 309.432 400.242V400.243ZM322.058 396.715C321.755 396.876 321.46 397.05 321.18 397.233C320.691 397.554 320.248 397.904 319.892 398.276V398.277C320.451 397.693 321.225 397.159 322.058 396.715ZM310.724 398.13C310.821 398.147 310.916 398.168 311.009 398.191C310.916 398.168 310.821 398.147 310.724 398.13ZM373.697 396.159C373.659 396.191 373.621 396.22 373.582 396.249C373.542 396.278 373.503 396.305 373.462 396.331V396.332C373.584 396.254 373.699 396.164 373.808 396.059L373.697 396.159ZM358.262 393.485H358.263H358.262ZM131.14 391.51L130.766 391.704L130.767 391.705L131.141 391.51H131.14ZM162.787 387.178H162.788H162.787ZM323.481 384.741H323.482H323.481ZM166.012 384.498L166.093 384.74H166.094L166.012 384.497L165.738 384.465L166.012 384.498ZM360.74 381.802C360.618 381.829 360.497 381.842 360.377 381.838C360.497 381.842 360.618 381.829 360.74 381.802ZM183.553 376.543H183.554H183.553ZM187.858 375.874H187.859H187.858ZM368.34 368.47C368.293 368.475 368.251 368.487 368.213 368.504C368.251 368.487 368.293 368.475 368.34 368.47ZM371.411 363.538L371.413 363.537L371.411 363.538ZM374.83 363.105H374.831H374.83ZM369.906 362.368C369.787 362.457 369.667 362.535 369.543 362.601C369.667 362.535 369.787 362.457 369.906 362.368ZM373.695 358.372C373.288 358.615 372.895 358.851 372.602 359.029C373.188 358.674 374.174 358.087 374.872 357.667L373.695 358.372ZM367.24 356.247V356.248V356.247ZM376.955 354.936H376.956H376.955ZM124.195 350.83C123.998 351.029 123.824 351.213 123.693 351.373C123.824 351.213 123.998 351.029 124.195 350.83ZM118.939 347.753L118.938 347.752L118.939 347.753ZM376.943 342.037C376.056 342.366 375.165 342.682 374.275 343.002C373.385 343.322 372.495 343.645 371.61 343.987C373.38 343.302 375.168 342.696 376.943 342.038V342.037ZM378.52 341.28V341.281V341.28ZM127.063 317.55H127.064H127.063ZM154.897 227.612L154.915 227.851C153.905 228.371 153.171 228.452 152.066 228.678L151.689 228.732L151.648 228.423C152.744 227.789 153.083 227.772 154.345 227.55L154.897 227.612ZM174.335 222.64C173.475 223.49 173.52 223.685 173.267 224.935L173.432 225.177C173.833 224.992 174.697 224.102 175.074 223.744L175.162 223.843C174.581 224.795 173.992 225.6 173.718 226.671L174.237 227.425C173.268 227.597 172.801 227.627 171.814 227.658C169.473 225.364 173.492 222.396 174.335 222.64ZM195.838 213.726C195.533 214.445 192.992 216.357 192.183 217.056C191.915 216.838 192.041 216.991 191.905 216.529C192.985 215.019 194.103 214.26 195.754 213.508L195.838 213.726ZM353.03 215.164C353.467 215.281 353.313 215.23 353.693 215.515C353.27 216.067 352.332 216.315 351.592 216.626L351.286 216.631L351.126 216.354C351.81 215.629 352.085 215.581 353.03 215.164ZM341.885 210.311C342.98 210.457 343.588 210.434 344.208 211.393C344.133 213.022 341.988 214.629 340.688 215.435L340.225 215.318L340.156 214.88C340.878 214.327 341.535 214.077 341.523 213.161C340.888 212.662 339.937 212.717 339.087 212.659L338.871 212.239C339.233 211.69 341.16 210.727 341.885 210.311ZM355.863 210.167C356.585 210.642 357.607 211.396 357.833 212.237C357.505 213.136 357.48 212.941 356.626 213.655C355.666 212.86 355.203 213.267 354.545 212.45C354.943 211.61 355.373 210.952 355.863 210.167ZM206.801 209.701C207.535 210.063 208.319 210.808 208.461 211.616C207.396 213.13 206.256 212.684 204.846 212.017C204.17 212.354 203.523 212.764 202.798 212.663L202.865 212.294C204.186 211.017 205.187 210.57 206.801 209.701ZM202.602 210.152C202.062 211.465 201.105 211.879 199.899 212.587L199.59 212.444C198.822 211.942 198.557 211.984 198.395 211.328C199.352 210.579 200.97 211.124 202.497 210.097L202.602 210.152ZM352.795 203.619C353.68 203.562 354.945 203.42 355.663 203.942C355.185 204.697 354.21 204.844 353.24 205.18L352.876 205.411C352.193 205.109 351.261 204.67 351.103 203.915C351.7 203.531 351.546 203.666 352.473 203.842L352.795 203.619ZM359.342 200.792C358.807 201.633 357.875 202.172 357.041 202.77L356.858 202.413C357.345 201.621 358.355 201.048 359.145 200.499L359.342 200.792ZM211.005 200.164L210.995 200.468C209.712 201.219 207.803 201.857 206.377 202.386L206.1 202.299C206.6 201.515 209.773 200.384 210.79 199.991L211.005 200.164ZM355.985 190.231C355.745 190.686 354.286 192.355 353.84 192.743C351.465 194.818 351.268 194.907 348.376 194.935L348.188 195.068L348.123 194.726C353.865 193.543 351.97 192.729 355.57 189.979L355.985 190.231ZM190.596 190.793C189.594 191.486 189.086 191.529 187.922 191.816L187.398 191.615L187.383 191.322C188.245 190.855 189.186 190.786 190.168 190.622L190.446 190.464L190.596 190.793ZM213.107 189.187C213.397 189.392 213.278 189.248 213.398 189.668C212.509 190.718 211.989 191.035 210.894 191.815L210.671 191.615C211.005 190.792 212.363 189.815 213.107 189.187ZM235.691 177.936C235.726 178.099 235.709 178.409 235.708 178.591C234.978 179.71 234.538 180.554 233.488 181.383L233.418 181.013C234.09 179.719 234.537 178.832 235.691 177.936ZM240.264 178.553C240.225 178.704 237.62 180.247 236.903 180.857L236.544 180.749L236.393 180.44C237.337 179.368 238.643 178.68 240.062 178.51L240.264 178.553ZM240.743 173.155L240.792 173.535C238.533 174.17 236.904 174.257 234.325 175.083L234.023 175.108L234.194 174.726C235.48 173.881 238.915 173.362 240.555 173.088L240.743 173.155ZM356.783 168.592L356.74 168.955C354.63 170.825 353.457 171.073 351.19 172.475L351.075 172.374L351.065 172.019C351.842 171.151 355.287 169.326 356.627 168.493L356.783 168.592ZM260.536 164.565C261.706 164.481 263.49 164.421 263.576 165.986C263.016 166.548 263.05 166.521 262.333 166.864L262.07 165.884C261.485 165.432 260.148 165.569 259.331 165.565L259.395 165.258L260.536 164.565ZM177.469 139.605C180.293 141.035 183.385 141.728 185.434 144.364C186.08 145.195 186.517 145.65 187.241 146.402C187.208 149.048 187.863 150.401 188.205 152.891C188.513 155.136 188.092 158.828 185.271 159.032C179.38 156.963 171.321 149.417 174.236 142.445C174.171 142.601 176.688 140.944 177.469 139.605ZM250.541 148.555C250.515 149.295 249.331 150.392 248.739 151.087L248.476 151.177L248.301 150.916C248.855 149.781 249.395 149.317 250.252 148.401L250.541 148.555ZM210.23 124.191C215.79 127.024 218.663 128.377 219.08 135.656C219.186 137.507 219.45 143.39 218.64 144.751C215.388 143.051 214.15 141.51 212.417 138.35C209.268 132.61 208.527 130.352 210.23 124.191ZM356.61 133.551C356.8 133.59 356.673 133.546 356.905 133.826C356.485 134.432 353.815 135.701 352.858 136.269L352.501 136.131C352.811 135.464 355.757 134.017 356.61 133.551ZM307.02 124.099L306.996 124.462C306.203 125.101 303.538 126.14 302.456 126.601L302.373 126.555V126.195C303.558 125.403 305.526 124.61 306.888 124.014L307.02 124.099ZM304.377 110.647C304.885 111.311 305.343 111.468 305.703 112.197C305.1 112.639 304.837 112.684 304.142 112.915C303.62 113.37 303.582 113.523 302.927 113.608C302.912 112.888 303.955 111.366 304.377 110.647ZM307.983 97.5282C308.645 97.4242 308.383 97.3321 308.84 97.6386C308.263 98.6668 306.805 98.7964 305.76 98.8349C305.145 98.5799 305.343 98.7186 304.871 98.2372C305.421 97.7683 307.163 97.646 307.983 97.5282ZM274.615 91.8202C276.122 91.527 277.96 92.3496 279.615 92.54L279.813 92.8788C278.671 93.1548 276.088 92.572 274.828 92.3485L274.615 91.8202Z" fill="#FF81B2"/>
</g>
<defs>
<clipPath id="clip0_79_5210">
<rect width="480" height="480" fill="white"/>
</clipPath>
</defs>
</svg>
