<svg width="480" height="480" viewBox="0 0 480 480" fill="none" xmlns="http://www.w3.org/2000/svg">
<g clip-path="url(#clip0_64_1636)">
<path d="M251.79 86.092C252.617 85.5828 252.637 85.3085 253.007 84.411C253.683 84.1898 253.765 84.2148 254.442 84.3353C256.32 84.6033 258.225 83.3565 260.097 83.2927C265.942 83.0982 271.775 83.2268 277.615 83.3093C282.057 83.372 285.785 83.2497 290.075 84.9555C293.24 86.2147 295.092 88.494 296.877 91.2558C306.007 87.6613 316.427 87.1513 326.16 88.9788C330.225 89.7425 335.387 92.539 339.627 93.41C340.51 93.591 342.73 95.2512 343.645 95.6742C350.447 100.066 357.582 103.698 364.087 108.561C368.865 112.132 374.482 114.758 379.197 118.426C392.033 129.265 403.857 148.679 409.617 164.305C412.867 173.09 414.975 182.257 415.885 191.579C416.87 202.58 415.115 217.276 412.415 227.913C410.295 236.258 405.412 243.882 399.362 249.822C396.277 252.85 395.49 256.348 390.93 257.53C380.95 254.105 375.612 246.872 366.245 242.946C355.897 238.607 345.482 234.871 334.625 231.977C332.435 231.256 330.195 230.583 328.012 229.863C317.037 226.248 305.477 222.918 294 221.479C288.732 220.819 283.628 220.244 278.382 219.365C273.688 218.579 269.027 218.542 265.49 214.806C266.327 213.185 266.81 211.632 267.302 209.885C269.34 202.637 273.115 196.133 275.445 189.02C275.78 187.995 276.18 186.997 276.582 185.997C274.49 187.987 272.135 189.858 270.11 191.85C262.982 198.858 257.12 206.859 250.185 213.992C246.392 217.892 242.151 214.209 237.796 213.796C232.946 212.803 227.481 216.502 223.658 213.299C222.844 212.618 222.419 210.627 222.182 209.611C225.154 200.263 229.914 191.772 234.857 183.323C235.529 182.528 237.223 179.853 238.098 178.683C236.765 179.374 235.455 180.014 234.323 181.001C230.115 183.613 228.175 186.114 224.563 189.171C220.334 192.751 216.151 195.751 212.327 199.921C207.762 204.897 202.694 211.296 196.108 213.54C188.453 214.322 180.132 215.58 172.487 215.494C166.258 215.424 162.133 221.273 156.076 220.819C154.674 220.67 154.249 218.735 154.733 217.63C155.964 215.415 153.353 213.27 153.377 211.345C153.505 200.849 155.097 190.683 156.316 180.225C156.983 174.498 159.129 164.39 162.239 159.546C163.976 158.214 165.219 159.799 166.154 158.635C167.743 156.655 166.585 156.139 169.53 154.499C170.249 154.522 170.459 154.601 171.101 154.288C170.714 153.709 170.41 153.79 169.563 153.512C169.24 153.428 168.12 153.157 167.866 153.171C166.159 153.268 166.317 157.905 163.922 157.043C163.796 156.241 164.346 155.021 164.917 154.488C166.095 153.385 165.9 152.22 166.061 150.704C166.298 150.369 166.248 150.507 166.342 150.143C166.933 147.839 168.442 145.047 169.521 142.913C170.229 141.514 172.123 137.573 172.958 136.449C178.428 129.082 184.19 121.877 191.136 115.834C192.208 114.903 193.968 113.354 194.885 112.358C196.566 110.528 197.647 108.982 199.57 107.3C201.548 105.552 204.097 104.613 206.273 103.19C213.645 98.369 221.635 93.9567 230.048 91.2755C232.509 90.491 235.029 89.1137 237.53 88.3747C239.953 87.6587 242.331 86.9468 244.731 86.1508C245.682 86.4108 246.685 86.422 247.399 86.7575C247.143 88.839 244.954 88.74 243.976 90.3848L244.144 90.7312C246.323 90.9747 245.58 91.2433 247.301 91.9018L247.525 91.6528C246.668 89.278 250.1 87.3763 251.79 86.092ZM393.892 208.412C394.767 207.832 400.877 203.884 401.022 203.43L400.662 203.224C397.575 204.47 396.232 205.78 393.73 207.961L393.652 208.4L393.892 208.412ZM288.502 169.964C286.685 170.595 282.965 172.345 281.482 173.494C280.1 174.873 279.395 175.129 278.062 176.676C279.185 176.752 280.993 174.497 281.982 173.987C284.745 173.188 286.537 172.1 288.502 169.964ZM268.668 92.311C270.68 91.4112 273.33 91.6838 274.07 90.9925L273.797 90.5713C273.39 90.5638 273.13 90.5333 272.733 90.595C271.008 90.8288 268.34 91.0472 267.125 92.4135L267.198 92.757C267.827 92.818 268.1 92.601 268.668 92.311ZM386.36 214.718C387.107 214.16 391.867 211.305 391.917 211.207L391.797 211.139C389.83 211.498 387.287 212.186 386.06 213.891L386.062 214.464L386.36 214.718ZM166.558 175.876C168.305 175.791 168.98 175.81 170.646 175.258L170.648 174.99C170.468 175.02 170.128 175.063 169.971 175.12C168.325 175.264 167.386 175.294 165.808 175.794L165.902 176.041L166.558 175.876ZM337.517 196.486C338.637 195.757 339.762 195.039 340.897 194.333L340.937 194.083C339.327 194.46 338.575 194.68 337.562 195.997L337.517 196.486ZM190.161 121.598C190.859 120.97 191.781 120.326 192.082 119.534L191.567 119.424C190.82 120.017 190.194 120.394 189.762 121.231L189.914 121.61L190.161 121.598ZM369.677 132.723C370.27 132.456 371.387 132.07 371.7 131.632C371.15 131.393 371.19 131.402 370.59 131.408C369.73 131.953 369.5 132.003 369.082 132.874L369.335 132.973L369.677 132.723ZM284.375 193.372C283.362 194.281 280.533 195.919 280.265 196.252C282.71 196.282 283.995 194.635 285.572 193.024C286.262 192.493 286.943 192.134 287.17 191.344C286 191.162 285.037 192.552 284.375 193.372ZM239.136 204.78C238.232 205.033 235.65 205.521 235.228 205.927C235.741 206.434 236.366 206.441 237.105 206.577C237.983 206.217 239.93 205.554 240.471 204.922C239.82 204.71 239.831 204.744 239.136 204.78ZM188.334 142.744C189.062 142.413 190.36 141.939 190.804 141.36C190.614 141.327 190.317 141.26 190.138 141.262C189.415 141.589 188.251 141.997 187.808 142.587C188.289 142.762 188.148 142.743 188.334 142.744ZM394.4 152.722C396.2 152.479 397.995 152.187 399.78 151.848C400.47 151.557 400.425 151.56 400.957 151.019L400.802 150.631C399.515 150.464 398.942 150.86 397.74 151.385C396.295 151.795 395.717 152.085 394.4 152.722ZM369.86 117.471C368.822 118.052 367.637 118.612 366.82 119.44L366.88 119.748L367.252 119.833C368.107 119.28 369.702 118.421 370.17 117.663L369.86 117.471ZM381.772 183.465C382.515 183.244 383.938 182.933 384.42 182.434L383.975 182.344C383.22 182.455 381.807 182.539 381.312 183C381.507 183.232 381.527 183.308 381.772 183.465ZM179.81 141.904L178.347 142.31L178.182 142.618L178.9 142.998L180.268 142.32L180.212 142.031L179.81 141.904ZM325.222 125.984C324.49 126.52 323.792 126.907 323.41 127.72L323.467 128.194C324.127 127.612 325.21 126.88 325.222 125.984ZM249.182 185.165C248.176 185.868 248.027 185.912 247.378 186.91L247.423 187.34L247.563 187.263L249.583 185.564L249.577 185.242L249.182 185.165ZM316.942 158.747C316.332 159.129 315.265 159.679 314.967 160.252C315.1 160.317 315.225 160.421 315.372 160.432C316.11 159.986 317.072 159.555 317.477 158.895C317.048 158.731 317.23 158.751 316.942 158.747ZM233.332 105.885C234.297 105.738 235.052 105.722 235.852 105.19L235.759 104.787C234.854 105.004 234.122 105.167 233.247 105.477L233.203 105.747L233.332 105.885ZM285.49 161.762C284.702 162.246 283.832 162.64 283.4 163.426C283.637 163.793 283.56 163.719 283.667 163.798C284.283 163.323 285.357 162.629 285.645 161.971L285.49 161.762ZM238.312 98.4653C237.251 98.985 236.618 99.2023 235.791 100.055L236.069 100.268L236.718 100.002C237.649 99.626 238.649 99.3252 239.373 98.6665L239.17 98.4493L238.312 98.4653ZM310.075 137.782C310.652 139.037 313.05 139.81 314.427 140.404C313.75 138.971 311.65 138.415 310.075 137.782ZM204.183 195.809C204.767 195.265 207.694 192.751 207.715 192.275L207.444 192.165C206.222 192.986 204.688 194.279 203.894 195.527C203.99 195.621 204.086 195.715 204.183 195.809ZM381.26 163.447C379.71 164.303 378.548 164.907 377.137 165.982L377.08 166.391L377.535 166.554C378.785 165.755 380.51 164.736 381.55 163.751L381.515 163.512L381.26 163.447ZM205.075 110.582C205.848 110.874 206.563 111.141 207.348 111.399C208.476 111.271 210.92 110.955 211.727 110.133C211.231 110.041 211.392 110.014 210.925 110.106C208.797 110.368 207.236 110.569 205.075 110.582ZM354.29 128.431C353.337 128.99 350.927 130.616 350.385 131.495L350.63 131.661L351.122 131.451C352.197 130.585 355.145 128.813 355.377 128.587C354.732 128.346 354.982 128.393 354.29 128.431ZM340.86 110.538C339.782 110.812 338.847 110.901 338.095 111.66L338.432 111.962L338.32 111.48L338.782 111.942C339.027 111.873 339.875 111.656 340.047 111.56L340.267 111.497C341.325 111.206 342.408 111.233 343.135 110.836C342.482 110.492 341.575 110.405 340.86 110.538ZM225.557 104.203C224.134 104.734 220.489 105.924 219.432 106.726L219.404 107.156L219.598 107.143C220.657 106.72 225.357 105.031 225.876 104.466L225.557 104.203ZM386.627 218.538C385.86 218.725 384.965 218.83 384.46 219.38C385.197 219.775 386.015 219.582 386.937 219.464C387.845 219.534 388.557 219.73 389.265 219.242C388.855 218.362 387.465 218.361 386.627 218.538ZM342.865 145.454C340.662 146.545 339.24 148.452 337.75 150.385L337.742 150.697L337.95 150.803C339.76 148.939 341.132 147.082 343.412 145.842L343.465 145.592L342.865 145.454ZM341.307 128.619C340.692 129.252 340.207 129.769 339.487 130.298C338.522 131.008 336.32 131.763 335.73 132.653L336.357 132.947C338.458 132.025 340.03 130.911 341.665 129.298L341.805 128.831L341.307 128.619ZM231.464 200.183C230.026 201.056 228.278 201.517 228.814 203.313L228.635 203.832C229.718 203.243 231.961 201.929 231.833 200.486L231.464 200.183Z" fill="#E88033"/>
<path d="M179.511 192.245C178.704 191.64 178.038 191.283 177.628 190.385C177.351 187.248 178.848 183.723 180.284 180.99C182.108 177.522 184.621 174.42 186.913 171.255C190.512 166.286 194.095 161.248 198.024 156.531C200.371 153.713 203.143 151.233 205.662 148.566C207.645 146.466 209.337 144.089 211.342 142.016C213.04 140.26 215 138.669 216.83 137.05C222.258 132.246 227.647 127.903 233.636 123.829C235.076 122.849 236.966 120.775 238.828 120.78C239.439 120.782 239.888 120.894 240.319 121.363C241.235 122.358 241.006 124.627 240.76 125.825C239.818 130.414 228.721 148.298 225.573 152.783C225.892 153.067 226.209 153.355 226.537 153.627C230.611 151.444 233.221 149.858 236.739 146.751C239.109 144.658 242.595 142.999 245.092 140.941C248.69 137.975 252.905 136.062 256.81 133.578C261.507 130.43 265.31 127.557 270.847 125.964C271.712 125.715 273.497 124.54 274.37 124.086C275.937 123.269 276.885 123.621 277.787 125.124C279.685 128.67 277.3 131.904 275.975 135.129C273.262 142.027 268.658 148.856 266.515 155.893C270.995 154.052 289.872 139.916 292.372 142.055C292.97 145.24 289.347 145.742 288.41 148.087C287.83 149.54 286.922 148.4 285.33 149.334L285.23 149.733L286.26 150.254L286.32 150.591C284.867 151.843 283.425 153.03 282.02 154.339C280.762 155.51 278.86 157.908 277.565 158.889C273.682 161.832 269.215 164.085 265.515 167.349C264.878 167.912 263.715 168.963 262.942 169.18C262.012 168.054 256.282 169.537 256.462 167.001C257.025 159.073 261.385 147.548 265.695 141.007C264.94 140.36 264.297 140.404 263.22 140.177C259.905 141.131 255.027 144.806 252.022 146.637C240.445 153.69 230.186 162.462 219.1 170.192C217.622 171.221 209.421 174.742 208.485 171.701C207.649 168.988 210.347 164.355 211.592 161.904C215.748 154.865 220.034 147.693 224.374 140.773C217.555 143.89 219.012 144.335 213.515 148.582C213.595 149.144 213.516 148.968 213.868 149.394C207.29 154.569 204.039 157.773 198.896 164.579C194.409 170.518 188.968 176.053 184.976 182.464C181.782 187.202 184.353 188.455 179.511 192.245Z" fill="#4B4746"/>
<path fill-rule="evenodd" clip-rule="evenodd" d="M146.513 295.897C147.287 295.68 148.081 295.63 148.811 296.025C149.884 296.605 150.436 297.835 150.716 298.963C151.564 302.385 151.728 306.867 152.109 310.412C155.056 313.057 157.738 318.605 160.093 322.045C169.038 335.11 177.652 348.402 191.76 356.51C203.257 363.115 215.087 366.495 227.011 371.862C227.779 372.212 227.804 372.915 227.887 373.68C227.601 378.625 221.114 384.003 217.195 385.9C212.994 384.15 211.504 385.52 207.44 386.848C197.932 389.96 191.799 397.685 187.192 406.178C185.139 409.965 183.764 415.158 181.031 418.798C176.081 425.4 166.096 426.925 158.811 423.367C154.363 421.195 150.465 420.767 148.326 415.655C147.109 412.748 149 407.398 148.361 406.585C146.877 406.835 139.982 415.015 138.049 416.197C137.554 416.5 136.084 417.788 135.561 418.213C135.473 418.201 135.389 418.189 135.31 418.175C135.389 418.189 135.473 418.201 135.561 418.213C135.45 418.347 133.533 419.909 133.268 420.13C130.812 419.02 130.285 418.265 128.471 416.31V416.309C124.7 414.357 106.214 403.254 105.346 400.02C104.583 397.175 106.473 390.98 106.866 387.905C103.544 388.985 103.532 389.753 100.839 391.695C94.9637 390.745 94.9813 391.195 94.7498 386.51C94.7391 386.37 92.1481 384.72 91.9949 384.272C88.6193 378.74 82.6885 370.248 82.2957 363.833C82.2655 363.335 82.8352 362.372 82.576 360.102C82.6295 360.015 82.6837 359.925 82.7362 359.835C83.3657 358.747 83.4823 357.792 83.8543 356.63C84.5836 354.352 85.9323 352.358 87.5135 350.593C92.144 345.425 97.3903 341.245 102.614 336.737C104.031 335.512 105.29 334.11 106.739 332.925C107.958 331.927 109.339 331.135 110.551 330.133C114.054 327.23 117.229 323.595 120.537 320.442C123.984 317.16 127.812 314.13 131.034 310.633C132.862 308.648 134.555 306.537 136.436 304.6C137.817 303.179 145.19 296.267 146.513 295.897ZM169.334 414.125H169.335L169.044 414.037H169.043L169.334 414.125ZM130.745 414.133H130.746H130.745ZM132.523 413.561C132.625 413.585 132.726 413.616 132.827 413.654C132.726 413.616 132.625 413.585 132.523 413.561ZM131.887 413.523C131.755 413.539 131.623 413.57 131.494 413.619C131.623 413.57 131.755 413.539 131.887 413.523ZM117.725 385.509H117.726H117.725ZM118.237 385.212C118.415 385.105 118.556 385.005 118.69 384.864C118.61 384.949 118.527 385.019 118.434 385.084C118.373 385.127 118.307 385.169 118.236 385.212H118.237ZM92.6268 378.956C92.7371 378.943 92.847 378.927 92.9588 378.906C92.7348 378.947 92.519 378.971 92.2908 378.988L92.6268 378.956ZM113.866 377.883H113.867H113.866ZM114.098 377.101C113.785 377.18 113.475 377.271 113.168 377.385C113.475 377.271 113.785 377.18 114.098 377.101ZM128.146 371.503H128.147H128.146ZM112.127 366.399H112.126H112.127ZM110.587 364.907H110.588H110.587ZM113.167 362.495C113.083 362.497 112.982 362.512 112.865 362.537C112.981 362.512 113.083 362.497 113.167 362.495ZM115.965 355.923C116.19 355.979 116.427 356.052 116.669 356.137L116.194 355.984C116.117 355.962 116.04 355.941 115.965 355.923ZM114.61 355.909C114.509 355.952 114.417 356.01 114.336 356.085C114.417 356.01 114.509 355.952 114.61 355.909ZM115.527 355.837H115.528H115.527ZM115.107 348.124H115.108H115.107ZM109.256 344.385C109.319 344.404 109.383 344.426 109.448 344.449C109.383 344.426 109.319 344.404 109.256 344.385ZM110.108 339.89C109.864 339.901 109.638 339.912 109.431 339.912C109.638 339.912 109.864 339.901 110.108 339.89ZM386.628 218.538C387.465 218.362 388.855 218.363 389.265 219.242C388.558 219.731 387.845 219.534 386.937 219.464C386.015 219.583 385.197 219.775 384.46 219.38C384.965 218.83 385.86 218.725 386.628 218.538ZM391.918 211.207C391.868 211.305 387.108 214.161 386.36 214.719L386.062 214.465L386.06 213.891C387.288 212.186 389.83 211.498 391.798 211.139L391.918 211.207ZM401.022 203.43C400.877 203.884 394.767 207.832 393.892 208.412L393.652 208.4L393.73 207.961C396.233 205.781 397.575 204.47 400.662 203.225L401.022 203.43ZM239.136 204.78C239.83 204.744 239.82 204.71 240.471 204.922C239.93 205.554 237.983 206.217 237.105 206.577C236.366 206.441 235.741 206.433 235.228 205.927C235.65 205.521 238.231 205.033 239.136 204.78ZM231.834 200.485C231.962 201.928 229.718 203.243 228.636 203.832L228.814 203.312C228.278 201.517 230.026 201.056 231.464 200.183L231.834 200.485ZM340.897 194.333C339.762 195.039 338.637 195.757 337.517 196.485L337.562 195.997C338.575 194.68 339.327 194.46 340.937 194.083L340.897 194.333ZM284.375 193.373C285.037 192.552 286 191.163 287.17 191.345C286.942 192.134 286.262 192.493 285.572 193.024H285.573C283.996 194.635 282.71 196.282 280.265 196.252C280.535 195.918 283.362 194.281 284.375 193.373ZM207.715 192.275C207.694 192.751 204.767 195.265 204.182 195.809C204.086 195.715 203.99 195.621 203.894 195.527C204.688 194.279 206.222 192.986 207.444 192.165L207.715 192.275ZM249.577 185.242L249.583 185.564L247.563 187.264L247.423 187.341L247.378 186.91C248.027 185.912 248.177 185.868 249.182 185.165L249.577 185.242ZM384.42 182.434C383.937 182.933 382.515 183.244 381.772 183.465C381.528 183.308 381.507 183.232 381.312 183C381.807 182.539 383.22 182.455 383.975 182.345L384.42 182.434ZM238.097 178.683C237.223 179.852 235.529 182.527 234.857 183.323C234.382 182.399 234.31 182 234.323 181.001C235.456 180.014 236.765 179.374 238.097 178.683ZM288.503 169.964C286.538 172.1 284.745 173.188 281.982 173.987C280.992 174.498 279.185 176.753 278.062 176.677C279.395 175.129 280.1 174.872 281.482 173.494C282.965 172.345 286.685 170.596 288.503 169.964ZM170.646 175.259C168.98 175.81 168.305 175.792 166.558 175.876L165.902 176.041L165.808 175.795C167.386 175.294 168.325 175.263 169.971 175.12C170.128 175.063 170.468 175.02 170.648 174.99L170.646 175.259ZM381.515 163.512L381.55 163.752C380.51 164.736 378.785 165.754 377.535 166.554L377.08 166.391L377.138 165.981C378.548 164.906 379.711 164.303 381.261 163.447L381.515 163.512ZM285.645 161.971C285.358 162.629 284.283 163.322 283.668 163.798C283.56 163.718 283.637 163.793 283.4 163.427C283.833 162.64 284.703 162.246 285.49 161.763L285.645 161.971ZM316.942 158.747C317.23 158.75 317.047 158.731 317.477 158.895C317.072 159.555 316.109 159.986 315.372 160.432C315.225 160.421 315.1 160.317 314.968 160.252C315.265 159.679 316.332 159.128 316.942 158.747ZM166.061 150.704C165.9 152.22 166.095 153.385 164.917 154.487C164.346 155.021 163.796 156.241 163.922 157.043C166.316 157.905 166.16 153.267 167.866 153.171C167.993 153.164 168.337 153.228 168.689 153.305L169.563 153.512L169.856 153.601C170.487 153.781 170.763 153.781 171.101 154.288C170.46 154.601 170.249 154.522 169.53 154.499C166.585 156.138 167.743 156.655 166.154 158.635C165.219 159.799 163.976 158.215 162.239 159.546C162.703 157.744 165.017 152.297 166.061 150.704ZM225.573 152.783C225.892 153.066 226.209 153.354 226.537 153.627C225.824 154.424 225.733 154.586 224.834 155.117L224.42 154.998C224.498 153.98 224.915 153.715 225.573 152.783ZM397.87 151.477C398.337 151.792 398.693 151.834 399.181 151.842C399.359 151.845 399.555 151.842 399.78 151.848C397.995 152.187 396.2 152.478 394.4 152.722C395.717 152.085 396.295 151.794 397.74 151.385C397.784 151.418 397.828 151.449 397.87 151.477ZM397.74 151.385C398.943 150.86 399.515 150.464 400.803 150.631L400.958 151.019C400.425 151.56 400.47 151.556 399.78 151.848C398.88 151.826 398.453 151.916 397.74 151.385ZM343.466 145.592L343.413 145.842C341.133 147.082 339.76 148.939 337.95 150.803L337.743 150.697L337.75 150.385C339.24 148.452 340.663 146.545 342.865 145.454L343.466 145.592ZM180.212 142.031L180.268 142.32L178.9 142.998L178.181 142.618L178.347 142.309L179.81 141.903L180.212 142.031ZM190.138 141.262C190.317 141.26 190.614 141.327 190.804 141.36C190.359 141.939 189.062 142.413 188.334 142.744C188.149 142.743 188.289 142.761 187.808 142.587C188.252 141.997 189.416 141.589 190.138 141.262ZM268.295 137.309C267.705 138.665 266.608 139.801 265.695 141.007C264.94 140.36 264.298 140.404 263.221 140.178L263.54 139.987C264.842 139.202 266.9 137.383 268.155 137.003L268.295 137.309ZM310.075 137.782C311.65 138.415 313.75 138.972 314.428 140.404C313.05 139.811 310.653 139.037 310.075 137.782ZM370.59 131.407C371.19 131.402 371.15 131.394 371.7 131.633C371.387 132.071 370.27 132.456 369.678 132.723L369.335 132.973L369.083 132.874C369.5 132.003 369.73 131.952 370.59 131.407ZM341.805 128.831L341.665 129.298C340.03 130.911 338.457 132.026 336.357 132.947L335.73 132.653C336.32 131.763 338.522 131.008 339.487 130.298C340.207 129.769 340.693 129.253 341.307 128.619L341.805 128.831ZM354.29 128.432C354.982 128.394 354.733 128.346 355.378 128.587C355.145 128.814 352.197 130.585 351.122 131.451L350.63 131.661L350.385 131.495C350.927 130.616 353.337 128.991 354.29 128.432ZM325.222 125.984C325.21 126.88 324.128 127.612 323.468 128.194L323.41 127.721C323.792 126.907 324.49 126.52 325.222 125.984ZM192.083 119.534C191.782 120.326 190.86 120.969 190.162 121.598L189.914 121.61L189.763 121.231C190.195 120.394 190.82 120.016 191.567 119.424L192.083 119.534ZM370.17 117.663C369.702 118.421 368.108 119.28 367.253 119.833L366.88 119.748L366.82 119.44C367.638 118.612 368.823 118.052 369.86 117.472L370.17 117.663ZM340.86 110.538C341.575 110.405 342.483 110.492 343.136 110.836C342.408 111.233 341.325 111.206 340.267 111.497L340.048 111.559C339.875 111.656 339.028 111.873 338.783 111.942L338.32 111.48L338.432 111.962L338.096 111.659C338.848 110.901 339.783 110.811 340.86 110.538ZM210.926 110.105C211.392 110.014 211.232 110.04 211.727 110.133C210.92 110.955 208.475 111.27 207.347 111.398C206.563 111.141 205.848 110.875 205.075 110.583C207.237 110.57 208.797 110.368 210.926 110.105ZM225.876 104.466C225.357 105.031 220.656 106.72 219.597 107.143L219.404 107.156L219.432 106.726C220.49 105.924 224.134 104.734 225.556 104.203L225.876 104.466ZM235.851 105.19C235.052 105.722 234.297 105.738 233.333 105.885L233.204 105.747L233.247 105.477C234.122 105.167 234.855 105.005 235.76 104.787L235.851 105.19ZM239.374 98.6669C238.65 99.3256 237.649 99.6259 236.718 100.002L236.069 100.268L235.792 100.055C236.618 99.2022 237.251 98.9844 238.312 98.4648L239.17 98.4491L239.374 98.6669ZM273.798 90.5712L274.07 90.9921C273.33 91.6834 270.68 91.4117 268.668 92.3114C268.1 92.6014 267.827 92.8178 267.197 92.7568L267.125 92.414C268.34 91.0478 271.007 90.8284 272.732 90.5946C273.13 90.5329 273.39 90.5637 273.798 90.5712ZM244.73 86.1513C246.828 85.8445 249.707 85.7555 251.79 86.0917C250.1 87.376 246.668 89.2785 247.525 91.6532L247.301 91.9023C245.58 91.2438 246.323 90.9749 244.143 90.7314L243.976 90.3847C244.954 88.7402 247.142 88.8389 247.398 86.7577C246.685 86.4223 245.682 86.4113 244.73 86.1513Z" fill="#E88033"/>
</g>
<defs>
<clipPath id="clip0_64_1636">
<rect width="480" height="480" fill="white"/>
</clipPath>
</defs>
</svg>
