<svg width="480" height="480" viewBox="0 0 480 480" fill="none" xmlns="http://www.w3.org/2000/svg">
<g clip-path="url(#clip0_79_9040)">
<path d="M198.008 120.177C197.813 119.033 197.715 119.536 198.137 118.593C200.256 117.105 203.828 119.446 205.794 119.654C207.759 119.863 210.825 119.41 212.933 119.663C216.901 120.141 222.324 121.659 226.168 121.92C229.718 122.161 235.313 120.332 239.382 120.444C243.6 120.56 248.993 120.171 253.182 119.485C256.167 118.996 259.725 117.972 262.762 117.378C263.677 117.2 268.447 116.366 268.99 116.109C276.96 112.343 284.537 106.931 290.527 100.452C292.565 98.2476 294.09 96.0119 296 93.9336C298.832 90.8481 302.23 87.7566 305.325 84.9109C311.072 79.6649 319.35 76.2469 326.982 74.7739C332.592 73.6914 339.607 73.0689 345.37 72.2159C347.12 71.9564 349.792 72.5121 351.632 72.5274C354.067 72.5474 356.55 72.6746 358.98 72.8609C362.205 72.9996 370.95 74.6011 373.06 77.0686C373.372 78.4974 373.567 77.4414 373.555 78.4626C371.682 80.3954 370.055 78.5561 369.375 82.7536L369.597 82.9636L370.142 82.5461C370.58 82.8524 370.41 82.6571 370.652 83.1311L370.995 83.2789C372.132 82.2776 371.78 82.2191 373.297 82.5159C374.177 82.0079 374.982 81.6934 375.135 80.5801C377.352 82.7636 374.58 83.7744 378.187 85.2179C380.117 87.0824 379.3 92.5071 379.542 95.4204C389.005 97.1564 395.68 95.7026 401.995 105.034C405.457 110.148 405.6 118.068 402.745 123.366C400.95 123.753 399.768 122.15 398.103 123.169C398.683 123.715 403.432 124.871 404.52 124.789C410.652 125.274 419.825 134.097 422.858 139.182C423.368 140.038 425.093 143.451 425.475 143.861C431.268 149.604 430.795 155.188 432.538 162.12C435.313 173.175 435.127 185.622 428.897 195.635C424.117 203.316 418.85 212.244 412.513 218.866C408.463 223.101 405.455 227.107 399.81 229.637C398.35 230.309 395.785 233.517 393.87 234.106C385.64 237.863 376.835 240.134 368.202 242.856C367.615 242.379 367.02 241.908 366.42 241.444C363.755 242.032 361.505 242.82 358.645 243.378C357.095 242.757 356.517 242.57 354.76 242.508C350.815 242.369 346.84 242.279 342.895 242.106C341.945 242.064 340.185 242.957 339.055 242.789C337.462 242.551 336.07 241.743 334.49 241.557C332.205 241.586 330.955 242.653 328.882 241.225C327.727 240.428 324.382 240.675 322.92 240.544C321 240.49 319.02 240.048 317.125 239.883C313.01 239.525 309.375 237.957 305.48 236.715C303.917 236.166 301.922 235.973 300.407 235.344C295.96 233.499 291.3 231.824 286.895 229.923L272.027 223.54C269.29 222.352 265.277 220.459 262.652 219.59C254.982 217.051 246.578 216.189 238.783 214.564C231.101 212.963 227.67 210.256 219.419 211.994C215.63 210.43 213.588 212.774 209.883 212.917C203.722 213.154 198.545 212.586 192.828 215.695C190.275 217.083 189.12 218.935 187.104 220.952C182.621 225.381 178.774 230.661 176.586 236.608C174.762 242.528 173.331 251.292 167.544 254.712C163.148 257.312 157.212 251.765 155.558 247.929C156.193 246.416 156.431 244.79 156.915 243.226C158.497 238.109 161.035 231.567 158.814 226.245C158.279 224.962 156.924 223.782 156.102 222.649C153.178 218.616 149.161 214.111 144.625 211.833C142.533 210.783 140.231 210.14 138.103 209.156C134.371 207.431 129.813 202.782 128.414 198.952C126.62 194.043 126.061 185.193 128.029 180.282C129.209 177.336 131.036 174.543 131.873 171.472C132.376 169.629 132.503 167.644 132.857 165.763C133.624 161.678 134.876 157.857 136.624 154.092C143.215 139.898 156.703 129.808 170.789 123.847C173.284 122.791 175.935 122.162 178.48 121.234C180.752 121.546 182.35 121.249 184.613 120.916C186.174 120.686 186.44 120.752 187.457 119.46C188.84 119.771 190.175 120.088 191.591 120.194C190.794 120.615 190.251 120.713 189.879 121.362C191.139 122.124 191.987 120.733 193.407 121.345L193.626 121.702C193.396 122.387 193.014 123.169 193.181 123.817C195.198 124.673 197.421 121.961 198.008 120.177ZM332.94 157.283C338.242 157.008 343.902 155.872 347.302 151.22C351.707 145.187 346.302 144.347 341.25 145.049C337.445 145.934 324 148.839 324.51 154.21C326.087 156.552 330.312 157.278 332.94 157.283ZM241.068 207.576C242.935 206.7 242.979 207.691 243.404 207.01L243.397 206.489L243.786 206.327C242.837 205.704 239.171 204.317 237.949 204.347C237.125 205.39 235.706 206.81 235.282 207.94L235.378 208.249C237.031 208.483 239.404 207.563 241.068 207.576ZM202.329 142.635C204.186 142.67 205.58 142.281 207.349 141.709L207.506 141.453C208.281 140.214 208.687 139.786 209.667 138.716L209.486 138.527L209.276 138.523L209.021 138.652C206.849 139.734 203.766 140.978 201.473 141.888C201.762 142.509 201.574 142.22 202.329 142.635ZM347.055 239.757C347.627 239.122 347.927 238.92 348.027 238.078C347.325 236.439 345.215 236.943 343.742 237.142C343.04 237.931 343.107 237.635 342.947 238.545C343.855 239.338 345.347 238.832 347.055 239.757ZM243.885 203.866C244.983 203.568 245.061 203.558 245.998 202.946L246.042 202.64C244.938 202.092 243.035 202.143 241.768 202.119C241.445 202.659 240.77 203.196 240.789 203.663C242.123 204.308 242.327 204.353 243.8 204.539L243.885 203.866ZM352.605 89.2374C355.147 88.5821 357.407 88.1586 360.022 87.9036C360.615 87.8459 360.792 87.5036 361.075 87.0746L360.927 86.8226L360.642 86.9046C357.07 87.2514 355.575 87.5954 352.152 88.6721L351.97 89.0086C352.37 89.2241 352.235 89.2421 352.605 89.2374ZM279.025 164.438C279.892 164.817 280.8 165.369 281.68 165.186C281.132 163.542 275.437 163.872 273.947 163.502C274.77 165.794 273.105 165.884 273.622 166.628C276.37 164.177 275.3 164.359 279.025 164.438ZM345.607 223.109C344.802 223.544 343.797 223.93 343.34 224.614C343.75 224.707 343.75 224.748 344.155 224.724C346.737 223.249 346.487 221.564 348.685 220.05C349.487 219.497 351.865 219.217 353 218.631C352.58 218.533 352.77 218.506 352.422 218.663C347.907 218.906 347.542 219.237 345.607 223.109ZM268.837 208.632C267.635 207.139 262.967 206.445 261.09 206.258C262.42 207.545 267.035 208.747 268.837 208.632ZM377.462 173.387C376.58 171.778 375.305 172.352 373.615 172.193C373.877 170.691 374.062 169.143 374.93 167.864L374.617 167.413C373.567 168.499 372.062 171.009 373.56 172.263C374.64 173.167 376.167 173.073 377.462 173.387ZM173.991 168.161C174.283 167.99 175.291 167.42 175.355 167.128C175.851 164.872 177.95 162.328 178.339 160.179C177.918 159.772 178.157 159.934 177.555 159.795C177.365 160.805 177.215 161.515 176.701 162.419C175.207 165.044 176.071 166.161 173.38 167.864L173.991 168.161ZM342.457 205.657L342.66 205.736C343.392 206.029 343.487 206.049 344.125 206.566C345.002 206.357 349.225 203.112 349.14 201.865L348.935 201.67C348.247 202.982 345.235 205.238 343.915 205.685C342.817 205.342 343.015 205.22 342.085 205.472C342.332 205.7 342.197 205.665 342.457 205.657ZM239.039 202.31C240.129 202.556 240.027 202.732 240.775 202.338L240.875 201.856C240.007 200.609 239.359 200.834 237.943 201.033L237.498 201.143L237.357 201.432L237.062 201.488L237.142 201.326L236.959 201.589L237.194 201.352L237.56 201.676L237.373 202.453C238.188 202.561 238.256 202.496 239.039 202.31ZM218.178 133.078C219.18 133.255 219.119 133.408 219.921 133.098C219.437 132.317 217.731 132.001 216.884 131.848C216.011 132.082 215.325 132.154 214.695 132.774C215.33 133.333 217.196 133.047 218.178 133.078ZM276.05 183.069C276.932 183.213 277.302 183.363 278.127 183.026L278.165 182.668C277.512 182.095 276.237 181.722 275.397 181.798C274.532 182.156 273.815 182.368 273.127 182.998C274.175 183.617 275.012 182.67 276.05 183.069ZM361.035 234.69C362.04 234.395 363.705 233.966 364.075 232.865L363.882 232.587C363.72 232.561 363.182 232.46 363.042 232.462C362.192 232.777 360.727 233.2 360.155 233.805L360.232 234.183L361.035 234.69ZM402.927 163.677C404.357 163.162 405.592 162.644 406.99 162.045C405.332 162.359 403.61 162.655 401.985 163.088C400.467 163.511 398.2 165.525 396.742 166.588C398.545 166.733 400.527 164.456 402.927 163.677ZM245.69 139.853C246.011 139.7 245.892 139.788 246.156 139.529L247.24 138.465L247.052 137.862L247.331 137.759C246.37 138.094 245.344 138.993 244.345 139.619C243.042 140.301 241.492 140.627 240.034 140.37L239.329 139.62L239.034 139.967C239.208 140.917 238.974 140.553 239.745 141.107C241.588 141.471 244.095 140.767 245.69 139.853ZM279.01 177.5C278.322 177.86 277.945 178.06 277.31 178.498L277.557 178.692C278.665 178.537 279.2 178.433 279.485 177.291C278.68 176.053 279.765 174.984 280.595 174.056L280.59 173.777C279.75 173.784 279.397 174.579 277.485 174.598L277.397 174.912C278.507 176.057 278.587 176.017 279.01 177.5ZM227.663 135.791C229.314 135.135 231.715 132.969 232.945 131.668L232.945 131.244C230.73 132.176 229.85 133.986 227.641 135.386L227.663 135.791ZM414.08 178.388C412.852 178.699 412.202 178.8 411.08 179.417L411.12 179.682L411.56 179.694C413.382 179.313 415.442 178.495 416.372 176.769C416.132 176.402 416.283 176.512 415.98 176.373C415.313 177.043 414.675 177.652 414.08 178.388ZM298.81 159.069C299.775 158.681 300.335 158.547 301.087 157.86C300.477 157.613 299.22 158.281 298.55 158.564C297.222 159.355 293.567 160.32 293.11 160.822L293.14 161.153C294.45 161.187 296.935 160.088 298.112 159.444L298.81 159.069ZM358.197 166.992C358.552 166.389 359.24 166.38 359.435 165.344C358.265 165.734 356.16 166.896 355.547 167.97L356.31 168.075L356.235 168.159C357.23 167.716 357.34 167.653 358.197 166.992ZM357.627 204.88C359.035 203.756 360.61 202.891 362.17 201.998C361.62 201.697 361.845 201.77 361.207 201.743C360.242 202.357 357.065 204.185 356.682 205.1L356.897 205.309C357.192 205.163 357.43 205.097 357.627 204.88ZM280.307 118.478C280.962 118.213 281.895 117.964 282.225 117.398C281.622 116.976 280.94 117.107 280.162 117.122C279.245 117.925 279.047 117.828 278.752 118.8L278.95 118.984C279.612 118.809 279.74 118.841 280.307 118.478ZM204.821 151.261C205.218 151.094 208.907 149.81 208.72 150.003C208.304 149.497 208.309 149.649 207.483 149.49C206.803 149.793 203.843 150.895 203.62 151.135C204.087 151.594 203.813 151.458 204.476 151.542L204.821 151.261ZM179.095 133.629C177.919 133.296 172.729 132.936 171.761 133.385L172.04 133.744C173.414 133.844 177.728 133.794 179.095 133.629ZM150.606 144.921C151.294 144.468 152.247 144.012 152.544 143.376C151.835 143.135 151.327 143.33 150.581 143.482C149.759 144.079 149.803 143.861 149.466 144.664L149.574 145.114L149.983 145.306L150.606 144.921ZM372.152 168.659L372.957 168.804L372.905 168.555C371.532 168.031 370.79 167.707 369.282 167.592C368.562 167.64 367.985 167.585 367.415 167.987C368.05 168.308 371.137 168.498 372.152 168.659ZM296.452 145.998C297.685 145.8 300.407 145.656 301.25 145.35C300.832 144.969 300.205 145.002 299.667 145.107C297.47 145.277 296.952 145.302 294.92 146.082L294.842 146.372C295.62 146.273 295.707 146.248 296.452 145.998ZM305.825 155.069C306.747 153.064 307.445 151.838 309.097 150.302L309.037 150.019L308.665 149.858C306.667 151.194 306.21 152.793 305.632 155.025L305.825 155.069ZM302.635 151.544L302.502 151.123C300.267 150.279 298.035 149.954 295.655 150.365C297.452 151.183 299.31 150.367 302.45 151.602L302.635 151.544ZM329.812 100.994C328.732 99.8351 324.38 100.287 322.467 100.099C323.602 101.032 327.812 100.772 329.812 100.994ZM353.11 86.2119C354.047 85.8284 355.865 85.1896 356.56 84.5759L356.312 84.2806L355.395 84.2149C354.312 84.8799 353.25 85.5751 352.207 86.3001L352.197 86.5184C352.802 86.4166 352.645 86.5234 353.11 86.2119ZM301.485 99.0546L301.642 98.3139C299.98 98.1539 299.747 98.2216 298.34 97.3289L297.737 98.0714C298.487 99.0301 300.362 99.3056 301.485 99.0546ZM345.712 172.914C346.965 172.752 349.97 172.538 350.86 171.872L350.802 171.538L350.427 171.514C348.817 172.012 345.832 172.221 345.302 172.599L345.712 172.914ZM421.175 195.166C422.047 194.422 423.215 193.605 423.663 192.614C423.558 192.483 423.453 192.351 423.348 192.22C422.443 192.879 421.398 193.5 420.828 194.422C420.863 195.008 420.747 194.76 421.175 195.166ZM174.018 184.999C175.131 184.495 175.235 184.479 176.1 183.655L176.292 183.121L176.057 182.746C175.273 183.693 175.035 183.803 173.998 184.517L173.926 184.89L174.018 184.999ZM291.955 208.479C290.78 209.274 290.092 209.502 289.392 210.635L289.575 210.799C290.835 210.325 291.535 209.638 292.58 208.79C293.327 208.446 294.2 208.164 294.635 207.511L294.292 207.35C293.125 207.601 292.937 207.779 291.955 208.479ZM289.545 187.379C291.025 187.675 291.472 187.71 292.747 186.904L292.96 186.469C292.727 186.277 292.842 186.293 292.655 186.303C290.857 187.246 291.052 186.729 289.312 186.804C289.41 187.284 289.302 187.107 289.545 187.379ZM227.273 190.779C228.051 190.378 229.093 189.952 229.615 189.295L229.438 189.019C228.572 189.428 227.628 189.755 227.041 190.483L227.273 190.779ZM336.957 91.0221C336.105 91.3199 334.472 91.7876 333.852 92.3284C334.06 92.6811 333.917 92.6044 334.182 92.6786C335.042 92.3381 336.837 91.7654 337.36 91.1354L336.957 91.0221ZM245.414 146.642L246.721 144.612C246.487 144.176 246.565 144.269 246.457 144.167C245.911 144.779 245.16 145.456 245.02 146.215L245.414 146.642ZM199.593 177.548C200.319 177.051 201.719 176.224 202.117 175.533L201.977 175.238C201.042 175.781 200.047 176.248 199.367 177.059C199.421 177.189 199.512 177.454 199.593 177.548ZM332.965 99.7636C332.13 100.286 331.52 100.679 330.732 101.266C330.83 101.671 330.742 101.53 330.902 101.733C331.957 101.218 332.192 101.169 332.985 100.351L333.065 99.8994L332.965 99.7636ZM333.072 215.872C331.967 215.791 330.72 215.692 329.63 215.802C331.135 216.638 331.55 216.77 333.072 215.872ZM282.447 148.631C283.632 147.814 284.195 147.68 285.477 146.644L285.365 146.499C284.292 146.764 283.12 147.193 282.352 148.026C281.612 148.908 280.91 149.543 280.66 150.636L281.15 150.255L280.707 150.683L280.777 150.425L281.202 150.318C281.92 149.596 281.96 149.534 282.447 148.631ZM169.764 138.625C168.3 137.949 167.732 138.111 166.11 138.418C167.204 138.994 168.492 138.736 169.764 138.625ZM348.26 184.722C346.852 184.587 345.447 184.442 344.042 184.288C345.16 184.893 347.167 185.709 348.412 185.309C349.132 184.908 349.847 184.511 350.12 183.79C349.34 183.764 348.917 184.232 348.26 184.722ZM159.832 187.087L160.979 186.6L161.022 186.353L160.109 186.141L159.006 186.694L158.977 186.947L159.832 187.087ZM253.512 164.239C252.555 162.703 252.222 163.116 250.475 163.382C251.66 163.859 252.332 163.89 253.512 164.239ZM217.262 183.626C216.54 182.917 215.194 183.267 214.176 183.396L214.378 183.749C215.608 183.854 216.025 183.787 217.262 183.626ZM299.617 168.177C298.837 168.652 298.36 168.734 298.085 169.405L298.622 169.516C299.27 169.105 299.897 168.897 300.08 168.338L299.617 168.177ZM387.652 172.735C388.435 172.211 388.88 172.141 389.098 171.446L388.935 171.231C388.092 171.766 387.773 171.767 387.385 172.516L387.652 172.735ZM416.76 186.368C417.495 186.737 417.88 186.908 418.705 186.607L418.375 186.269C417.692 186.272 417.455 186.27 416.76 186.368ZM332.31 126.564L331.78 126.049C331.13 126.449 329.705 127.127 329.457 127.681L329.56 127.521L330 127.645C331.087 127.253 331.365 127.186 332.31 126.564ZM150.512 175.15C149.406 175.944 148.589 176.472 147.641 177.466L147.723 177.767L148.169 177.768C148.774 177.272 150.951 175.707 151.01 175.254L150.512 175.15ZM178.077 214.787L177.868 214.493L177.601 214.525C176.351 214.664 175.966 214.619 174.713 214.482C175.84 215.296 175.489 215.283 176.701 215.406L178.077 214.787ZM162.894 169.658L162.867 169.271C162.221 169.175 161.737 169.083 161.077 169.092C161.671 169.683 162.055 169.76 162.894 169.658ZM354.562 159.643C353.445 159.098 352.992 159.124 351.71 159.372C352.825 159.861 353.315 159.827 354.562 159.643ZM281.742 192.977C280.347 193.529 279.09 195.131 278.117 196.298C278.167 196.754 278.067 196.569 278.39 196.862C279.755 195.718 280.562 194.194 281.905 193.446C281.802 193.022 281.9 193.157 281.742 192.977ZM158.541 144.648C158.261 144.018 157.173 143.727 156.607 143.952L156.255 144.351C157.066 144.645 157.683 144.611 158.541 144.648ZM195.469 172.628C194.408 172.085 193.898 172.187 192.667 172.372C193.775 172.854 194.23 172.86 195.469 172.628ZM247.117 186.587C247.885 186.246 248.687 186.013 249.185 185.413L248.809 185.214C248.145 185.525 247.183 185.886 246.74 186.411L246.915 186.627L247.117 186.587ZM163.519 158.449C162.723 158.811 161.093 159.34 160.844 159.948L161.155 160.033C162.07 159.705 163.18 159.428 163.839 158.761C163.602 158.464 163.731 158.538 163.519 158.449ZM170.032 231.545C171.158 231.358 172.467 231.046 173.186 230.084C173.054 229.55 173.204 229.731 172.861 229.421C171.863 230.37 171.293 230.413 169.984 230.728L169.801 231.14L170.032 231.545ZM251.727 188.624C252.395 188.09 252.905 187.841 253.232 187.134L252.852 186.945C252.217 187.432 251.565 187.752 251.332 188.402L251.727 188.624ZM341.985 84.6644C341.102 85.0931 339.66 85.8074 339.282 86.7441C339.67 87.0906 339.47 87.0029 339.84 87.0956C340.565 86.4996 342.057 85.4974 342.28 84.7769L341.985 84.6644ZM241.041 177.887L239.715 178.334L239.717 178.636L240.435 178.984L241.622 178.399L241.61 178.123L241.041 177.887ZM232.765 145.207C231.802 145.744 231.624 145.785 230.93 146.602L230.907 147.047L231.008 147.11C231.666 146.627 232.68 146.058 232.969 145.424L232.765 145.207ZM146.35 196.29C147.343 196.863 148.344 197.432 149.518 197.52C148.678 196.664 148.233 196.298 146.995 196.275C146.78 196.272 146.565 196.277 146.35 196.29ZM206.395 129.326C205.592 129.543 204.649 129.689 204.09 130.25L204.111 130.674C204.911 130.389 205.861 130.16 206.394 129.552L206.395 129.326ZM309.012 103.26C308.285 103.852 306.73 104.861 306.575 105.571L306.752 105.769C307.555 105.221 308.765 104.525 309.235 103.741L309.012 103.26ZM319.932 199.933C319.22 200.601 319.125 200.647 318.7 201.501L318.752 202.005L318.982 202.12L320.12 200.371C320.012 199.982 320.11 200.108 319.932 199.933ZM374.892 113.185C373.532 113.727 373.362 113.863 372.242 114.817L372.085 115.225C372.655 115.2 372.635 115.178 373.165 114.941C373.942 114.027 374.76 113.923 375.96 113.443C375.472 113.055 375.712 113.223 374.892 113.185ZM198.018 192.223C197.151 192.883 196.437 193.296 195.911 194.235L196.129 194.527C196.881 193.983 198.031 193.341 198.268 192.524L198.018 192.223ZM314.782 97.3464C313.965 97.8264 311.447 99.0301 311.102 99.5121L311.577 99.6464C312.677 99.2329 314.512 98.4351 315.37 97.6426C314.987 97.3419 315.19 97.4251 314.782 97.3464ZM408.06 143.813C407.23 144.233 406.548 144.573 405.758 145.06L405.668 145.422L406.087 145.607C406.867 145.222 407.897 144.849 408.34 144.154L408.06 143.813ZM323.775 143.31L324.627 142.507L322.14 142.345L321.995 142.529L321.322 142.392C322.302 142.972 322.955 142.761 323.775 143.31ZM403.837 176.399C402.952 177.138 402.627 177.312 402.08 178.288L402.33 178.495L402.675 178.249C403.322 177.771 403.982 177.31 404.655 176.867L404.663 176.541L403.837 176.399ZM315.007 148.355C313.875 148.953 313.54 149.072 312.615 149.972L312.757 150.227L313.09 150.062C313.972 149.658 315.105 149.32 315.605 148.645L315.007 148.355ZM153.2 165.626C152.175 165.72 151.373 165.72 150.42 166.106L150.617 166.391L150.985 166.409C152.227 166.303 152.733 166.321 153.863 165.759L153.713 165.533L153.2 165.626ZM347.715 188.211C346.935 188.711 345.572 189.512 344.962 190.133L345.01 190.445L345.072 190.479C346.31 189.852 346.792 189.652 347.855 188.702L347.85 188.336L347.715 188.211ZM300.877 139.224C299.757 139.844 299.07 140.393 298.065 141.159L297.977 141.46L298.122 141.552C299.06 141.117 300.637 140.338 301.077 139.361L300.877 139.224ZM175.186 226.823C174.529 227.028 173.878 227.121 173.479 227.633C174.204 227.814 174.221 227.75 174.973 227.608C175.962 227.315 176.104 227.464 176.597 226.814C175.926 226.53 176.035 226.653 175.186 226.823ZM194.475 132.561C193.222 132.777 193.105 132.742 192.211 133.567L192.109 134.099L192.347 134.055C193.094 133.694 194.647 133.135 194.923 132.556L194.475 132.561ZM375.845 206.697C376.527 206.333 379.322 204.969 379.572 204.52L379 204.451C377.96 204.716 376.035 205.615 375.345 206.442L375.522 206.694L375.845 206.697ZM376.707 190.464C375.56 191.093 374.605 191.62 373.5 192.332L373.415 192.643L373.597 192.854C374.845 192.249 375.702 191.892 376.812 191.037L376.89 190.633L376.707 190.464ZM166.99 153.489C165.973 154.144 165.291 154.557 164.362 155.351L164.526 155.515C166.488 154.911 166.343 154.561 167.727 153.982C168.557 153.944 170.099 153.733 170.887 153.491C169.483 153.189 168.42 153.371 166.99 153.489ZM400.025 113.159C399.037 113.639 398.62 113.743 397.938 114.556L398.205 114.73L398.552 114.533C399.32 114.298 400.45 114.075 400.95 113.517C400.52 113.2 400.555 113.213 400.025 113.159ZM194.57 147.16C193.739 147.797 192.437 148.757 192.311 149.868L192.733 149.918C193.548 148.621 194.915 147.9 194.85 147.288L194.57 147.16ZM292.372 165.447C291.597 165.9 289.732 166.798 289.48 167.442L289.845 167.653C290.845 167.083 291.972 166.534 292.775 165.739L292.702 165.496L292.372 165.447ZM258.652 158.282C257.472 158.639 256.21 159.234 255.422 160.215C255.617 160.6 255.547 160.52 255.645 160.606C256.695 159.95 257.88 159.267 258.825 158.488L258.652 158.282ZM308.382 181.688C307.65 182.209 306.1 183.297 305.915 184.166L306.422 184.045C307.34 183.247 307.977 182.749 308.97 182.043L308.89 181.692L308.382 181.688ZM374.987 159.174C373.722 159.837 372.93 160.232 371.592 160.769L371.565 161.024L372.365 161.275C373.025 160.942 375.55 159.795 375.8 159.361L374.987 159.174ZM337.545 169.463L337.26 169.592C336.04 170.137 333.532 170.805 332.877 171.391L333.015 171.653L333.15 171.679C334.202 171.32 337.27 170.459 337.847 169.717L337.545 169.463ZM387.812 158.432C386.913 159.03 384.017 160.24 383.682 160.641L384.075 160.954C385.345 160.467 387.348 159.753 388.203 158.724C387.965 158.416 388.11 158.488 387.812 158.432Z" fill="#97918A"/>
<path d="M215.862 158.729C217.88 157.46 224.046 158.426 226.311 158C232.54 156.826 238.427 154.877 244.273 152.458C250.492 149.912 256.205 146.575 261.707 142.726C262.462 142.199 263.695 141.07 264.375 140.409C267.315 137.544 270.82 135.652 274.16 133.302C276.595 131.587 278.935 129.598 281.435 127.964C291.925 121.729 302.465 117.596 314.595 115.753C318.715 115.1 322.94 113.38 327.145 114.047C327.967 114.123 330.235 115.03 330.907 114.993C338.537 114.57 343.5 118.642 349.757 122.202C352.237 123.615 356.215 131.017 357.425 133.849C356.892 134.746 356.722 134.67 356.835 135.465C357.865 136.593 360.675 137.168 362.205 137.879C365.807 139.423 368.717 144.481 369.612 148.209C372.312 159.455 365.805 170.283 358.357 178.152C356.632 179.975 353.34 181.219 350.962 181.747C350.12 181.389 349.082 181.081 348.557 180.383C347.712 176.731 356.58 170.454 358.197 166.992C358.552 166.389 359.24 166.38 359.435 165.344C359.775 165.242 360.357 164.991 360.457 164.602C361.117 162.059 363.21 158.485 361.875 155.958C361.435 155.124 361.662 153.718 361.745 152.816C360.632 151.484 358.57 148.638 357.01 148.254C355.135 149.056 349.787 163.556 338.927 165.072C338.265 164.734 337.257 164.097 336.572 164.137C336.435 165.027 336.35 166.137 335.532 166.695C334.36 167.496 323.135 166.351 321.45 165.788C318.015 164.639 316.512 161.737 314.975 158.731C316.44 157.092 317.897 151.591 319.152 149.288C320.697 146.452 321.565 145.651 323.775 143.31L324.627 142.507C329.047 139.225 334.607 136.802 339.987 135.623C341.807 135.224 343.495 135.532 345.3 134.956C344.31 133.877 343.92 133.322 343.1 132.129C342.565 131.426 342.29 129.911 342.037 128.966C339.412 128.555 338.972 128.241 336.772 126.719C335.207 125.637 334.032 126.099 332.31 126.564L331.78 126.049C331.067 125.833 328.937 125.149 328.047 125.044C325.867 124.785 322.69 125.055 320.482 125.426C320.31 125.455 319.85 126.071 319.727 126.228C318.227 126.156 315.265 125.22 314.132 125.482C305.037 127.59 295.67 129.928 287.52 134.638C284.847 136.182 282.277 138.001 279.67 139.663C276.595 141.623 272.207 143.07 270.33 146.307L270.112 146.674C270.07 146.748 270.03 146.822 269.987 146.897C268.005 147.951 264.96 149.396 263.222 150.638C255.775 155.961 248.555 160.865 239.854 163.958C236.937 164.994 233.214 165.582 230.161 166.292C226.432 166.89 221.645 166.729 218.236 169.156C215.205 168.415 211.742 167.243 208.859 168.532C200.821 167.205 192.913 166.247 186.234 161.064C182.238 157.962 179.538 156.419 176.429 152.209C177.992 150.56 177.932 146.649 180.048 146.142C181.64 147.046 183.56 148.651 185.282 149.769C188.937 152.141 192.599 153.842 196.342 155.879C199.418 157.553 201.581 157.373 204.036 158.685C205.982 158.328 208.382 157.939 210.3 158.718C211.878 158.799 214.469 159.112 215.862 158.729ZM332.94 157.283C338.242 157.008 343.902 155.872 347.302 151.22C351.707 145.187 346.302 144.347 341.25 145.049C337.445 145.934 324 148.839 324.51 154.21C326.087 156.552 330.312 157.278 332.94 157.283Z" fill="#4B4746"/>
<path d="M343.742 237.142C345.215 236.943 347.325 236.44 348.027 238.078C347.927 238.921 347.627 239.123 347.055 239.758C345.347 238.833 343.855 239.338 342.947 238.546C343.107 237.635 343.04 237.931 343.742 237.142ZM363.042 232.462C363.182 232.46 363.719 232.561 363.882 232.588L364.075 232.865C363.705 233.966 362.04 234.395 361.035 234.69L360.232 234.184L360.155 233.805C360.728 233.2 362.192 232.777 363.042 232.462ZM172.86 229.421C173.204 229.731 173.054 229.551 173.186 230.084C172.467 231.046 171.158 231.358 170.032 231.545L169.801 231.141L169.984 230.729C171.293 230.413 171.862 230.37 172.86 229.421ZM175.187 226.823C176.035 226.653 175.926 226.531 176.597 226.814C176.104 227.464 175.962 227.315 174.974 227.608C174.221 227.751 174.204 227.814 173.479 227.634C173.878 227.122 174.53 227.028 175.187 226.823ZM352.422 218.663C352.769 218.506 352.58 218.533 353 218.631C351.865 219.218 349.487 219.497 348.685 220.05C346.487 221.564 346.737 223.248 344.155 224.724C343.75 224.748 343.75 224.707 343.34 224.614C343.797 223.93 344.802 223.544 345.607 223.109C347.542 219.238 347.907 218.906 352.422 218.663ZM329.63 215.802C330.72 215.692 331.967 215.791 333.072 215.872C331.55 216.77 331.135 216.638 329.63 215.802ZM174.714 214.482C175.966 214.619 176.351 214.664 177.602 214.525L177.868 214.493L178.077 214.787L176.701 215.406C175.49 215.283 175.84 215.296 174.714 214.482ZM294.635 207.511C294.308 208 293.736 208.282 293.155 208.537L292.58 208.79C291.535 209.638 290.835 210.324 289.575 210.799L289.393 210.636C290.093 209.502 290.78 209.275 291.955 208.479C292.938 207.779 293.125 207.602 294.293 207.351L294.635 207.511ZM261.09 206.258C262.967 206.445 267.634 207.14 268.837 208.632C267.034 208.746 262.42 207.545 261.09 206.258ZM237.948 204.348C239.17 204.317 242.837 205.704 243.786 206.327L243.396 206.489L243.404 207.01C242.979 207.69 242.935 206.7 241.068 207.576C239.404 207.563 237.031 208.483 235.379 208.249L235.282 207.94C235.706 206.811 237.125 205.391 237.948 204.348ZM379.572 204.52C379.322 204.968 376.529 206.333 375.846 206.697L375.522 206.694L375.346 206.442C376.036 205.615 377.96 204.716 379 204.451L379.572 204.52ZM349.14 201.865C349.225 203.112 345.003 206.357 344.125 206.566C343.488 206.049 343.392 206.029 342.66 205.736L342.457 205.657C342.198 205.665 342.332 205.699 342.085 205.472C343.015 205.219 342.818 205.343 343.915 205.686C345.235 205.238 348.247 202.982 348.935 201.67L349.14 201.865ZM361.208 201.743C361.845 201.771 361.62 201.697 362.17 201.998C360.61 202.891 359.035 203.756 357.628 204.88C357.43 205.097 357.192 205.164 356.897 205.31L356.683 205.101C357.065 204.185 360.243 202.357 361.208 201.743ZM241.768 202.119C243.035 202.143 244.939 202.092 246.042 202.641L245.998 202.946C245.061 203.558 244.983 203.568 243.886 203.866L243.801 204.539C242.327 204.353 242.122 204.309 240.789 203.663C240.77 203.197 241.445 202.659 241.768 202.119ZM237.943 201.033C239.36 200.834 240.007 200.61 240.875 201.855L240.775 202.338C240.027 202.732 240.129 202.557 239.039 202.311C238.256 202.496 238.189 202.561 237.373 202.453L237.561 201.676L237.297 201.443L237.357 201.433L237.498 201.143L237.943 201.033ZM319.933 199.934C320.11 200.108 320.013 199.982 320.12 200.371L318.982 202.12L318.753 202.005L318.7 201.502C319.125 200.648 319.22 200.601 319.933 199.934ZM237.065 201.481L236.959 201.589L237.142 201.326L237.065 201.481ZM237.297 201.443L237.062 201.488L237.065 201.481L237.194 201.353L237.297 201.443ZM146.995 196.275C148.232 196.298 148.678 196.664 149.518 197.521C148.344 197.432 147.344 196.863 146.351 196.29C146.565 196.277 146.78 196.272 146.995 196.275ZM281.743 192.977C281.901 193.157 281.803 193.022 281.905 193.446C280.563 194.194 279.756 195.718 278.391 196.862C278.068 196.57 278.168 196.754 278.118 196.298C279.091 195.132 280.348 193.529 281.743 192.977ZM423.663 192.614C423.216 193.606 422.047 194.422 421.175 195.166C420.747 194.76 420.863 195.008 420.828 194.423C421.398 193.501 422.443 192.879 423.348 192.22C423.453 192.351 423.558 192.483 423.663 192.614ZM198.268 192.524C198.031 193.341 196.881 193.984 196.129 194.527L195.912 194.235C196.438 193.296 197.151 192.883 198.019 192.223L198.268 192.524ZM376.89 190.634L376.812 191.037C375.703 191.892 374.845 192.249 373.598 192.854L373.415 192.643L373.5 192.332C374.605 191.621 375.561 191.094 376.708 190.465L376.89 190.634ZM229.615 189.296C229.094 189.953 228.052 190.378 227.273 190.779L227.042 190.483C227.629 189.756 228.572 189.428 229.438 189.019L229.615 189.296ZM347.85 188.336L347.854 188.702C346.792 189.652 346.31 189.852 345.072 190.479L345.01 190.444L344.963 190.133C345.573 189.512 346.935 188.711 347.715 188.211L347.85 188.336ZM253.232 187.134C252.905 187.841 252.395 188.09 251.728 188.624L251.333 188.402C251.566 187.753 252.218 187.432 252.853 186.945L253.232 187.134ZM292.655 186.304C292.842 186.293 292.728 186.278 292.96 186.47L292.747 186.903C291.472 187.71 291.025 187.675 289.545 187.379C289.302 187.107 289.41 187.283 289.312 186.804C291.052 186.728 290.858 187.246 292.655 186.304ZM161.022 186.354L160.979 186.601L159.832 187.087L158.978 186.946L159.007 186.694L160.109 186.141L161.022 186.354ZM418.705 186.607C417.88 186.908 417.495 186.737 416.76 186.368C417.455 186.27 417.692 186.272 418.375 186.27L418.705 186.607ZM249.186 185.413C248.688 186.013 247.886 186.246 247.117 186.587L246.915 186.627L246.74 186.411C247.183 185.886 248.145 185.526 248.81 185.214L249.186 185.413ZM350.12 183.79C349.848 184.511 349.132 184.908 348.412 185.309C347.167 185.709 345.16 184.893 344.043 184.288C345.448 184.442 346.852 184.587 348.26 184.723C348.917 184.232 349.34 183.765 350.12 183.79ZM176.292 183.121L176.101 183.655C175.236 184.479 175.131 184.496 174.018 184.999L173.927 184.89L173.998 184.518C175.035 183.803 175.273 183.693 176.057 182.747L176.292 183.121ZM308.89 181.691L308.97 182.044C307.977 182.75 307.34 183.248 306.423 184.046L305.915 184.166C306.1 183.296 307.65 182.209 308.383 181.688L308.89 181.691ZM214.176 183.396C215.194 183.267 216.54 182.918 217.262 183.627C216.025 183.787 215.608 183.854 214.378 183.749L214.176 183.396ZM275.397 181.798C276.237 181.721 277.513 182.095 278.165 182.668L278.128 183.026C277.303 183.363 276.932 183.213 276.05 183.069C275.013 182.67 274.175 183.617 273.128 182.998C273.815 182.368 274.533 182.156 275.397 181.798ZM415.98 176.374C416.282 176.512 416.133 176.402 416.373 176.769C415.443 178.495 413.383 179.313 411.561 179.694L411.12 179.683L411.08 179.417C412.203 178.8 412.853 178.699 414.08 178.388C414.675 177.652 415.313 177.043 415.98 176.374ZM241.609 178.123L241.622 178.399L240.436 178.984L239.718 178.636L239.716 178.334L241.041 177.887L241.609 178.123ZM280.595 174.057C279.765 174.984 278.68 176.053 279.485 177.291C279.2 178.433 278.665 178.537 277.558 178.692L277.311 178.498C277.945 178.06 278.323 177.86 279.01 177.501C278.587 176.018 278.507 176.057 277.397 174.912L277.485 174.599C279.397 174.58 279.75 173.784 280.59 173.777L280.595 174.057ZM404.663 176.541L404.655 176.867C403.983 177.311 403.322 177.772 402.675 178.249L402.33 178.495L402.08 178.288C402.628 177.312 402.953 177.138 403.838 176.399L404.663 176.541ZM151.01 175.254C150.951 175.707 148.774 177.272 148.169 177.768H147.723L147.641 177.466C148.589 176.472 149.407 175.943 150.513 175.149L151.01 175.254ZM202.117 175.533C201.719 176.224 200.319 177.051 199.593 177.548C199.513 177.454 199.422 177.189 199.368 177.059C200.047 176.248 201.042 175.781 201.978 175.238L202.117 175.533ZM374.93 167.864C374.062 169.144 373.878 170.692 373.615 172.193C375.305 172.353 376.58 171.778 377.463 173.387C376.168 173.073 374.641 173.167 373.561 172.264C372.063 171.01 373.567 168.5 374.617 167.414L374.93 167.864ZM350.803 171.538L350.86 171.872C349.97 172.538 346.966 172.752 345.713 172.914L345.303 172.6C345.833 172.221 348.818 172.012 350.428 171.515L350.803 171.538ZM192.667 172.372C193.898 172.187 194.408 172.085 195.469 172.628C194.23 172.859 193.775 172.854 192.667 172.372ZM389.098 171.446C388.88 172.141 388.435 172.211 387.652 172.734L387.385 172.517C387.772 171.767 388.092 171.766 388.935 171.231L389.098 171.446ZM337.848 169.717C337.27 170.458 334.203 171.32 333.15 171.679L333.015 171.653L332.878 171.392C333.533 170.806 336.04 170.137 337.26 169.592L337.545 169.463L337.848 169.717ZM161.078 169.092C161.738 169.082 162.222 169.176 162.867 169.271L162.895 169.658C162.056 169.76 161.672 169.683 161.078 169.092ZM300.08 168.339C299.897 168.897 299.269 169.104 298.622 169.516L298.085 169.405C298.36 168.734 298.837 168.652 299.617 168.178L300.08 168.339ZM369.282 167.593C370.79 167.707 371.533 168.031 372.905 168.555L372.958 168.805L372.152 168.659C371.137 168.498 368.05 168.308 367.415 167.986C367.985 167.585 368.562 167.64 369.282 167.593ZM177.555 159.795C178.157 159.934 177.919 159.772 178.339 160.179C177.95 162.328 175.851 164.872 175.354 167.128C175.29 167.419 174.283 167.99 173.991 168.161L173.381 167.864C176.071 166.161 175.208 165.043 176.701 162.419C177.215 161.515 177.365 160.805 177.555 159.795ZM359.435 165.345C359.239 166.38 358.552 166.389 358.197 166.992C357.34 167.653 357.23 167.716 356.235 168.159L356.31 168.075L355.548 167.97C356.161 166.896 358.265 165.734 359.435 165.345ZM292.702 165.496L292.775 165.739C291.973 166.535 290.845 167.084 289.845 167.653L289.48 167.442C289.733 166.798 291.597 165.9 292.372 165.447L292.702 165.496ZM273.947 163.502C275.437 163.872 281.132 163.542 281.68 165.186C280.8 165.369 279.892 164.817 279.024 164.438C275.3 164.359 276.369 164.177 273.622 166.628C273.105 165.884 274.77 165.794 273.947 163.502ZM406.99 162.045C405.593 162.644 404.358 163.162 402.928 163.677C400.528 164.456 398.546 166.733 396.743 166.589C398.201 165.525 400.468 163.511 401.985 163.088C403.61 162.655 405.333 162.359 406.99 162.045ZM153.863 165.759C152.733 166.322 152.227 166.304 150.984 166.409L150.617 166.391L150.421 166.106C151.374 165.72 152.175 165.719 153.2 165.626L153.714 165.533L153.863 165.759ZM250.476 163.383C252.223 163.117 252.555 162.703 253.513 164.239C252.333 163.89 251.66 163.86 250.476 163.383ZM375.8 159.361C375.55 159.795 373.026 160.942 372.365 161.275L371.565 161.023L371.593 160.77C372.93 160.232 373.723 159.837 374.987 159.175L375.8 159.361ZM298.55 158.563C299.22 158.281 300.477 157.613 301.087 157.86C300.335 158.547 299.774 158.682 298.81 159.069L298.112 159.444C296.935 160.089 294.45 161.188 293.14 161.153L293.11 160.822C293.568 160.32 297.222 159.355 298.55 158.563ZM387.812 158.433C388.11 158.488 387.966 158.416 388.203 158.724C387.348 159.753 385.345 160.467 384.075 160.954L383.683 160.642C384.018 160.24 386.912 159.031 387.812 158.433ZM258.825 158.488C257.88 159.267 256.695 159.951 255.645 160.606C255.547 160.521 255.618 160.6 255.423 160.215C256.21 159.235 257.472 158.64 258.652 158.282L258.825 158.488ZM210.301 158.718C211.879 158.799 214.469 159.111 215.862 158.729C214.563 160.943 211.886 160.497 210.301 158.718ZM163.519 158.449C163.73 158.539 163.602 158.464 163.839 158.761C163.181 159.428 162.069 159.705 161.154 160.033L160.844 159.948C161.093 159.34 162.723 158.811 163.519 158.449ZM351.71 159.372C352.992 159.124 353.445 159.098 354.562 159.644C353.315 159.828 352.825 159.861 351.71 159.372ZM341.25 145.049C346.302 144.347 351.708 145.187 347.303 151.22C343.903 155.872 338.243 157.009 332.94 157.283C330.313 157.279 326.087 156.553 324.51 154.211C324 148.84 337.445 145.934 341.25 145.049ZM166.99 153.489C168.42 153.371 169.483 153.189 170.887 153.491C170.099 153.733 168.557 153.943 167.727 153.981L167.728 153.982C166.344 154.562 166.488 154.911 164.525 155.516L164.362 155.351C165.291 154.557 165.973 154.143 166.99 153.489ZM309.037 150.019L309.098 150.303C307.445 151.838 306.748 153.064 305.825 155.069L305.633 155.025C306.21 152.794 306.668 151.194 308.665 149.858L309.037 150.019ZM295.655 150.365C298.035 149.954 300.267 150.278 302.502 151.123L302.635 151.544L302.45 151.602C299.31 150.367 297.453 151.183 295.655 150.365ZM207.482 149.49C208.298 149.647 208.304 149.501 208.703 149.983C208.398 149.988 205.191 151.106 204.821 151.261L204.476 151.542C203.813 151.459 204.087 151.594 203.62 151.135C203.843 150.896 206.801 149.793 207.482 149.49ZM280.708 150.684L280.736 150.577L281.004 150.368L281.043 150.358L280.708 150.684ZM282.447 148.632C281.96 149.534 281.92 149.596 281.203 150.318L281.043 150.358L281.15 150.255L281.004 150.368L280.777 150.426L280.736 150.577L280.66 150.637C280.91 149.544 281.613 148.909 282.353 148.026L282.447 148.632ZM315.605 148.645C315.105 149.32 313.972 149.658 313.09 150.062L312.758 150.227L312.615 149.972C313.54 149.072 313.875 148.954 315.008 148.355L315.605 148.645ZM194.85 147.288C194.914 147.9 193.549 148.621 192.733 149.918L192.312 149.868C192.437 148.758 193.74 147.797 194.57 147.16L194.85 147.288ZM285.478 146.644C284.195 147.68 283.632 147.815 282.447 148.632L282.353 148.025C283.12 147.193 284.293 146.764 285.365 146.5L285.478 146.644ZM232.969 145.424C232.681 146.058 231.666 146.627 231.008 147.109L230.907 147.047L230.931 146.603C231.624 145.786 231.802 145.744 232.766 145.208L232.969 145.424ZM246.457 144.167C246.565 144.269 246.487 144.176 246.722 144.611L245.414 146.642L245.021 146.215C245.161 145.456 245.911 144.779 246.457 144.167ZM299.667 145.106C300.204 145.002 300.833 144.97 301.25 145.351C300.408 145.657 297.685 145.8 296.452 145.998C295.707 146.248 295.62 146.274 294.843 146.372L294.92 146.082C296.952 145.302 297.47 145.277 299.667 145.106ZM408.34 144.154C407.897 144.849 406.868 145.222 406.088 145.607L405.668 145.422L405.758 145.06C406.548 144.573 407.23 144.233 408.06 143.813L408.34 144.154ZM150.581 143.481C151.328 143.329 151.835 143.135 152.544 143.376C152.247 144.011 151.294 144.469 150.605 144.922L149.982 145.307L149.574 145.114L149.467 144.664C149.804 143.861 149.759 144.078 150.581 143.481ZM156.607 143.951C157.173 143.727 158.26 144.019 158.541 144.647C157.683 144.611 157.066 144.645 156.255 144.351L156.607 143.951ZM324.627 142.507L323.774 143.311C322.955 142.761 322.302 142.972 321.322 142.393L321.995 142.529L322.14 142.346L324.627 142.507ZM209.486 138.527L209.667 138.716C208.688 139.786 208.281 140.215 207.506 141.453L207.349 141.709C205.58 142.281 204.186 142.67 202.329 142.635C201.574 142.22 201.762 142.509 201.474 141.888C203.767 140.978 206.849 139.734 209.021 138.652L209.276 138.523L209.486 138.527ZM301.077 139.361C300.637 140.338 299.06 141.117 298.122 141.552L297.978 141.46L298.065 141.159C299.07 140.394 299.758 139.844 300.878 139.225L301.077 139.361ZM247.24 138.465L246.156 139.529C245.893 139.787 246.011 139.7 245.69 139.854C245.621 139.819 245.558 139.79 245.5 139.766C245.558 139.79 245.62 139.819 245.689 139.854C244.095 140.767 241.588 141.471 239.745 141.107C238.974 140.553 239.209 140.917 239.035 139.968L239.329 139.62L240.034 140.37C241.493 140.628 243.043 140.301 244.346 139.619L244.722 139.373C245.504 138.842 246.295 138.21 247.054 137.87L247.24 138.465ZM166.11 138.418C167.732 138.111 168.299 137.95 169.764 138.626C168.492 138.736 167.204 138.994 166.11 138.418ZM247.054 137.87L247.052 137.862L247.332 137.759C247.24 137.791 247.147 137.828 247.054 137.87ZM232.945 131.668C231.715 132.969 229.314 135.135 227.663 135.791L227.642 135.386C229.85 133.987 230.731 132.177 232.945 131.244V131.668ZM343.101 132.129C344.308 132.22 344.433 132.177 345.423 132.796C346.02 133.711 345.985 134.043 345.3 134.956C344.31 133.877 343.92 133.322 343.101 132.129ZM194.923 132.556C194.647 133.135 193.094 133.694 192.347 134.055L192.109 134.1L192.212 133.566C193.105 132.742 193.222 132.777 194.476 132.561L194.923 132.556ZM171.762 133.385C172.73 132.937 177.919 133.295 179.096 133.629C177.728 133.794 173.414 133.844 172.04 133.744L171.762 133.385ZM216.885 131.849C217.732 132.002 219.437 132.317 219.921 133.098C219.12 133.408 219.18 133.256 218.179 133.078C217.197 133.048 215.33 133.334 214.695 132.774C215.325 132.155 216.012 132.083 216.885 131.849ZM206.395 129.552C205.861 130.16 204.911 130.39 204.111 130.675L204.09 130.25C204.65 129.689 205.593 129.543 206.396 129.326L206.395 129.552ZM332.31 126.564C331.365 127.186 331.087 127.253 330 127.645L329.561 127.521C329.972 127.001 331.192 126.411 331.78 126.049L332.31 126.564ZM398.103 123.169C399.767 122.15 400.95 123.753 402.745 123.366C403.098 124.722 403.113 124.523 404.521 124.79C403.433 124.872 398.683 123.715 398.103 123.169ZM188.563 118.348C191.431 119.204 191.998 119.341 194.936 118.958C195.511 119.724 195.955 120.558 196.839 120.806C197.438 120.739 197.516 120.57 198.009 120.178C197.421 121.962 195.198 124.673 193.182 123.817C193.014 123.169 193.396 122.387 193.626 121.702L193.407 121.345C191.987 120.733 191.14 122.123 189.88 121.361C190.252 120.713 190.795 120.615 191.592 120.194C190.176 120.088 188.841 119.771 187.457 119.46C186.441 120.752 186.174 120.686 184.613 120.916C182.35 121.249 180.752 121.546 178.48 121.234C179.973 120.573 183.715 119.86 185.898 119.127L188.563 118.348ZM280.162 117.122C280.94 117.107 281.622 116.976 282.225 117.398C281.894 117.964 280.962 118.213 280.308 118.478C279.74 118.84 279.612 118.809 278.95 118.984L278.753 118.8C279.048 117.828 279.245 117.925 280.162 117.122ZM374.893 113.185C375.712 113.223 375.472 113.055 375.96 113.443C374.76 113.924 373.943 114.027 373.165 114.941C372.635 115.179 372.655 115.2 372.085 115.225L372.242 114.817C373.362 113.863 373.533 113.727 374.893 113.185ZM400.025 113.159C400.555 113.214 400.52 113.2 400.95 113.517C400.45 114.075 399.32 114.298 398.553 114.533L398.205 114.73L397.938 114.556C398.62 113.743 399.038 113.639 400.025 113.159ZM309.235 103.741C308.765 104.525 307.555 105.22 306.753 105.769L306.575 105.571C306.73 104.861 308.285 103.852 309.013 103.261L309.235 103.741ZM333.064 99.8994L332.985 100.351C332.193 101.169 331.957 101.219 330.902 101.733C330.742 101.531 330.83 101.671 330.732 101.267C331.52 100.679 332.13 100.286 332.965 99.7637L333.064 99.8994ZM322.468 100.1C324.38 100.288 328.732 99.8352 329.812 100.994C327.813 100.772 323.604 101.032 322.468 100.1ZM314.782 97.3467C315.19 97.4254 314.988 97.3418 315.37 97.6426C314.513 98.4351 312.677 99.233 311.577 99.6465L311.103 99.5117C311.448 99.0296 313.965 97.8267 314.782 97.3467ZM298.34 97.3291C299.747 98.2218 299.98 98.1545 301.643 98.3145L301.484 99.0547C300.362 99.3055 298.487 99.0299 297.737 98.0713L298.34 97.3291ZM337.36 91.1357C336.838 91.7657 335.043 92.3382 334.183 92.6787C333.918 92.6045 334.06 92.6809 333.853 92.3281C334.473 91.7874 336.106 91.3202 336.958 91.0225L337.36 91.1357ZM361.075 87.0752C360.793 87.504 360.615 87.8456 360.022 87.9033C357.408 88.1583 355.148 88.5821 352.605 89.2373C352.236 89.2421 352.37 89.2241 351.971 89.0088L352.152 88.6719C355.575 87.5951 357.07 87.251 360.643 86.9043L360.928 86.8232L361.075 87.0752ZM342.28 84.7773C342.058 85.4978 340.565 86.4998 339.84 87.0957C339.47 87.0031 339.67 87.0903 339.283 86.7441C339.661 85.8076 341.103 85.0937 341.985 84.665L342.28 84.7773ZM356.312 84.2812L356.56 84.5762C355.864 85.1899 354.047 85.8284 353.109 86.2119C352.645 86.5233 352.802 86.4168 352.197 86.5186L352.207 86.3008C353.25 85.5758 354.312 84.8798 355.395 84.2148L356.312 84.2812ZM373.06 77.0693C375.599 78.635 377.465 82.3701 378.188 85.2178C374.58 83.7743 377.352 82.7636 375.135 80.5801C374.982 81.6931 374.178 82.0078 373.298 82.5156C371.78 82.2189 372.133 82.278 370.995 83.2793L370.652 83.1318C370.41 82.6578 370.58 82.8521 370.143 82.5459L369.598 82.9639L369.375 82.7539C370.055 78.5565 371.682 80.3954 373.555 78.4629C373.567 77.4417 373.372 78.4975 373.06 77.0693Z" fill="#97918A"/>
</g>
<defs>
<clipPath id="clip0_79_9040">
<rect width="480" height="480" fill="white"/>
</clipPath>
</defs>
</svg>
