<svg width="480" height="480" viewBox="0 0 480 480" fill="none" xmlns="http://www.w3.org/2000/svg">
<g clip-path="url(#clip0_79_4424)">
<path d="M233.33 82.061C234.602 82.1658 235.875 82.2263 237.151 82.2513C239.396 82.2955 241.635 82.5025 243.882 82.5225C246.297 82.544 248.712 82.3015 251.127 82.3748C252.887 82.428 254.632 82.767 256.387 82.9015C270.487 83.329 283.755 86.6783 296.78 92.0178C298.74 92.8218 301.042 93.4265 302.992 94.316C305.25 95.346 307.435 96.8935 309.702 97.9405C312.597 99.281 315.717 100.34 318.527 101.814C321.487 103.367 325.015 106.092 327.882 107.6C333.42 110.512 337.517 112.692 342.312 116.883C347.827 121.702 351.475 126.561 355.682 132.454C357.305 134.727 359.712 136.965 361.335 139.315C367.477 148.204 371.585 155.882 373.815 166.524C374.537 169.968 373.68 173.442 373.33 176.852C373.25 177.635 374 179.46 373.932 180.029C372.605 191.101 366.892 201.22 361.322 210.656C359.815 213.213 356.007 216.773 354.175 218.93C350.997 222.672 346.56 223.7 342.667 226.146C338.157 228.979 334.172 233.187 329.147 235.349C328.075 235.811 326.42 235.584 325.277 236.012C323.25 236.771 320.845 237.922 318.65 237.831C316.172 237.728 311.807 237.464 310.107 235.457C304.997 229.549 307.515 222.184 305.847 215.152C305.16 212.248 302.152 204.802 302.297 202.269L302.307 202.031L302.332 201.671C301.41 200.452 294.327 194.922 292.702 193.961C290.467 192.641 285.242 190.455 282.545 189.661C280.875 189.228 278.872 189.204 277.227 188.776C266.545 185.999 255.892 185.91 245.052 188.568C240.679 189.187 234.541 190.955 230.493 192.584C228.67 193.319 223.879 194.193 222.46 194.968C218.639 197.057 215.089 202.022 211.823 204.896C208.86 207.504 204.922 209.961 201.63 212.167C197.797 214.489 193.091 216.902 188.882 218.475C186.004 219.551 183.983 219.485 181.018 221.283C179.081 222.458 173.352 222.147 170.992 222.462C168.819 222.753 165.862 222.942 163.641 223.018C157.358 222.666 151.425 221.027 145.915 217.996C142.625 216.187 140.97 214.547 137.315 212.991C132.266 216.191 130.037 219.276 123.815 219.575C116.735 219.915 109.812 218.754 104.529 213.648C103.181 212.344 99.9656 209.022 99.6496 207.158C99.0219 203.458 98.3061 202.203 96.3049 199.039C94.5166 196.212 93.8516 191.161 93.7896 187.86C93.7334 184.867 95.9696 186.241 94.2414 182.37C94.3806 180.498 95.6854 178.094 96.0041 176.027C96.2884 174.186 95.6336 171.298 96.0269 169.755C98.3951 160.466 101.523 152.17 106.071 143.718C107.651 140.617 109.003 137.16 110.902 134.238C119.527 120.967 129.681 108.856 143.745 101.12C145.973 99.894 148.164 98.0895 150.785 97.7788C152.22 97.6088 152.32 97.9688 153.37 98.7845C154.177 98.5325 154.866 97.47 155.567 96.9915C156.667 96.2413 158.145 95.9105 159.375 95.4148C166.862 92.396 173.841 93.4233 181.571 94.489C183.678 93.379 187.6 90.7128 189.467 89.9993C199.611 86.1235 208.952 84.3148 219.6 83.271C222.827 82.9525 226.055 82.6543 229.286 82.3765C230.921 82.2473 231.618 82.458 233.33 82.061ZM320.277 208.46C321.952 207.707 324.795 208.023 325.495 207.119C324.707 206.948 321.26 207.481 319.88 207.541C318.47 207.408 316.295 209.103 315.695 210.274C314.987 210.838 314.665 210.896 314.392 211.615C315.062 211.773 315.04 211.73 315.72 211.559C317.722 212.028 319.35 209.956 320.277 208.46ZM203.115 160.926C203.463 158.648 204.573 156.386 206.314 154.847L206.242 154.573L205.464 154.355C204.73 154.942 202.333 159.796 202.576 160.672L203.115 160.926ZM317.81 223.4C318.53 223.683 318.892 223.994 319.467 223.821C318.545 223.038 317.22 221.831 316.335 221.119C315.882 221.764 315.222 222.588 315.005 223.306L315.34 223.227L315.26 223.311L316.487 222.484C316.937 222.803 317.337 223.275 317.81 223.4ZM316.335 197.75L317.15 197.107L316.552 196.772C316.64 196.077 317.15 195.637 317.625 195.076L317.595 194.597L317.35 194.387C316.637 195.268 315.6 196.33 315.357 197.368L315.605 197.695L316.335 197.75ZM303.637 150.294C304.282 149.926 305.027 149.656 305.307 149.093L305.085 148.997C304.272 149.33 303.76 149.401 303.242 150.007C303.562 150.287 303.412 150.227 303.637 150.294ZM125.529 194.793C126.229 194.155 126.478 194.162 126.638 193.415L126.405 193.177C125.629 193.882 125.455 193.784 125.33 194.579L125.529 194.793ZM237.688 88.5985C237.551 89.4223 237.328 89.7433 237.65 90.2973C238.247 89.9713 239.022 89.4655 239.577 89.2035L240.254 88.8228L240.135 88.6163L237.688 88.5985ZM189.579 191.78C190.405 191.159 190.63 191.228 190.842 190.454L190.69 190.232C189.837 190.864 189.671 190.76 189.388 191.573L189.579 191.78ZM275.362 129.998C274.65 130.358 273.975 130.563 273.635 131.237L273.687 131.559C274.325 131.229 275.125 130.947 275.437 130.363L275.362 129.998ZM320.675 233.462C319.462 232.453 318.972 232.529 317.345 232.576C318.532 233.387 319.225 233.5 320.675 233.462ZM331.29 226.572C332.26 227.161 332.442 227.206 333.615 227.085C332.712 226.356 332.462 226.406 331.29 226.572ZM309.82 104.871C311 104.28 311.725 104 312.71 103.105L312.835 102.629L312.722 102.545C311.972 102.956 309.925 103.928 309.585 104.547L309.82 104.871ZM110.896 174.861C111.557 174.466 112.187 174.327 112.267 173.505C111.257 173.941 111.145 173.769 110.815 174.505L110.896 174.861ZM139.894 124.252C139.214 124.6 138.473 124.85 138.115 125.474L138.397 125.821C139.142 125.329 139.736 125.113 140.093 124.404L139.894 124.252ZM301.195 102.268C300.232 102.732 299.957 102.641 299.612 103.378L299.855 103.772C300.465 103.359 301.205 103.022 301.437 102.444L301.195 102.268ZM140.652 205.183C141.366 204.715 142.393 204.24 142.621 203.584L142.364 203.49C141.721 203.826 140.56 204.319 140.193 204.872L140.417 205.166L140.652 205.183ZM111.209 160.186C110.467 160.683 109.81 160.998 109.389 161.764L109.697 161.967C110.304 161.534 111.303 160.95 111.564 160.327L111.209 160.186ZM253.715 92.5093C255.025 92.493 255.852 92.538 257.137 92.1895L257.37 91.7888L257.02 91.6525C256.107 91.704 253.887 91.6805 253.28 92.1483L253.4 92.4693L253.715 92.5093Z" fill="#FF81B2"/>
<path d="M132.967 179.857L132.627 179.678C131.204 178.917 127.828 173.318 127.508 171.554C124.449 154.712 138.057 136.292 152.852 129.544C155.955 128.129 160.811 127.099 163.952 126.272C168.986 128.191 169.131 130.087 165.897 133.913C164.271 134.035 161.042 133.821 159.726 134.148C151.188 136.265 144.126 141.732 139.273 148.975C137.005 152.359 135.373 153.119 135.384 157.754C135.413 170.959 145.912 173.409 156.894 173.545C161.163 173.573 169.79 170.02 173.348 167.256C175.377 165.679 172.807 163.183 171.347 162.037C171.563 158.947 170.926 155.932 171.91 152.865C175.759 140.863 182.894 131.998 196.041 135.476C198.227 137.676 198.462 138.027 199.623 140.9C199.202 142.199 198.233 144.508 198.124 145.758C198.482 146.404 198.541 146.404 198.625 147.12C196.954 152.166 193.186 160.935 189.34 164.618C191.343 166.167 193.348 168.511 195.63 169.61C199.387 171.421 202.854 170.316 206.413 172.614C210.278 170.984 214.671 170.34 218.602 168.688C224.121 166.37 229.023 163.245 231.254 157.374C228.518 153.793 228.373 148.821 229.84 144.694C229.364 142.165 229.362 141.872 229.527 139.358L231.444 137.325C234.885 133.749 236.267 132.221 240.577 129.725C247.704 130.864 252.002 133.014 250.432 141.016C249.34 146.581 246.331 149.892 244.159 154.734C245.06 155.747 245.53 156.289 246.597 157.171C248.36 157.14 249.644 157.574 251.297 158.114C255.1 159.355 259.102 159.834 262.997 160.688C264.222 160.956 264.9 161.49 265.265 162.657C264.435 166.699 253.232 168.457 249.616 168.446C247.086 168.438 246.386 168.359 243.883 168.984C241.353 166.493 238.871 165.699 235.447 164.682C233.266 167.32 230.753 170.385 227.899 172.286C224.278 174.698 221.689 175.726 218.409 178.735C214.037 178.607 212.977 179.877 208.969 180.899C208.884 180.921 207.523 180.341 207.376 180.275C206.325 180.836 205.83 182.012 204.504 181.85C202.354 181.587 202.999 180.192 200.47 180.791L198.642 181.879C197.601 181.403 197.192 181.199 196.101 180.912C191.164 179.186 185.154 176.682 180.792 173.868C179.931 174.345 178.772 174.953 177.995 175.558C177.033 176.307 175.672 177.757 174.7 178.411C173.594 179.155 173.043 177.833 171.293 178.987C169.571 180.122 168.619 181.74 166.969 182.724C166.957 182.731 165.54 182.71 165.417 182.728C164.185 182.909 162.565 183.587 161.358 183.92C159.676 184.384 155.007 184.866 153.449 184.207C152.461 184.443 152.013 185.304 151.206 186.093C147.005 184.062 147.331 185.273 144.428 184.502C143.284 184.566 141.591 183.444 140.555 182.838C140.129 183.175 140.106 183.187 139.613 183.417C138.387 183.212 135.248 180.834 132.967 179.857Z" fill="#4B4746"/>
<path d="M366.915 286.189C371.052 282.875 373.397 286.555 374.555 290.33C375.9 295.085 376.157 298.937 376.497 303.84C376.59 305.187 377.855 307.502 378.075 309.022C378.7 313.325 378.892 317.635 379.197 321.965C379.76 326.837 381.317 335.218 380.407 339.995C379.702 343.695 380.089 344.032 379.962 347.595C379.604 357.76 377.343 369 374.223 378.65C373.05 382.278 367.312 391.05 364.375 393.947C363.32 395.342 360.56 395.86 359.357 396.713C353.3 401.015 348.097 400.975 340.95 400.76C337.773 400.665 333.102 398.173 329.938 397.165C327.395 396.358 324.963 396.337 323.07 394.247C318.398 395.87 312.918 398.617 307.933 399.867C307.155 400.062 304.792 399.958 304.399 399.428C301.867 395.99 301.385 388.872 299.015 385.072C298.672 384.53 298.267 384.032 297.805 383.59C296.882 382.7 295.367 381.832 294.345 380.907C292.61 379.337 291.172 377.698 289.215 376.263C284.395 372.888 277.547 371.442 271.787 370.822C270.115 370.643 267.975 372.927 266 371.39C264.748 368.867 265.157 356.391 266.197 353.735C269.837 344.428 287.562 341.913 295.022 337.048C299.26 334.283 303.838 329.148 308.058 325.865C308.998 325.135 314.253 320.867 314.688 320.357C317.687 316.837 320.96 311.005 323.32 306.95C325.39 303.398 326.543 298.753 330.178 296.213C332.108 294.863 336.847 294.63 339.225 294.635C344.432 294.645 353.285 293.91 357.532 290.745C360.257 288.718 361.417 287.015 364.899 285.285C365.904 285.37 365.853 285.44 366.561 285.945L366.915 286.189ZM121.804 290.26C123.496 289.83 125.11 293.135 125.729 294.345C127.911 298.607 129.235 302.985 131.319 307.42C133.462 311.98 137.307 318.94 140.447 322.753C142.886 325.715 146.638 329.34 149.148 332.37C149.913 333.293 158.392 341.549 159.131 342.06C163.69 345.209 171.713 348.715 176.906 350.87C180.56 352.385 184.45 354.448 188.271 355.48C191.495 356.35 194.604 356.365 197.844 356.745C199.284 356.915 202.612 359.052 204.071 359.015C208.1 358.915 211.438 356.59 215.596 358.668C216.534 360.914 216.242 370.527 215.409 373.09C212.884 380.865 211.456 379.527 204.699 380.795C203.278 381.062 197.362 384.505 195.533 385.482C191.918 387.422 189.15 388.295 185.745 391.09C183.462 392.962 177.423 397.62 174.685 397.888C172.715 396.985 171.266 398.15 169.095 398.777C168.362 398.502 167.621 398.233 166.89 397.955C161.291 395.825 155.886 397.365 152.388 391.452C151.13 391.852 149.851 392.177 148.556 392.43C141.345 393.825 138.529 391.253 132.332 387.588C128.828 385.518 123.285 377.835 121.587 374.04C121.037 372.668 121.269 370.672 120.822 369.312C117.962 360.61 116.016 351.753 115.623 342.57C115.484 339.33 114.22 332.831 114.406 329.73C114.938 320.92 114.41 298.577 119.266 291.487C120.17 291.127 120.943 290.705 121.804 290.26ZM203.26 375.622H203.261H203.26ZM175.188 375.196H175.189H175.188ZM204.424 373.895V373.896V373.895ZM334.815 373.282C334.677 373.403 334.562 373.546 334.47 373.747H334.471C334.501 373.68 334.535 373.62 334.57 373.564C334.642 373.453 334.724 373.363 334.816 373.282H334.815ZM203.014 368.025H203.015H203.014ZM202.329 367.597V367.598V367.597ZM203.391 367.595H203.392H203.391ZM150.347 366.728C150.679 366.794 150.935 366.815 151.279 366.831C150.935 366.815 150.679 366.794 150.347 366.728ZM336.787 362.939L336.788 362.94L337.061 362.633C336.981 362.726 336.891 362.827 336.787 362.939ZM337.604 362.004L337.604 362.005L337.604 362.004ZM337.966 361.739L337.967 361.74L337.966 361.739ZM347.893 343.193C347.958 343.126 348.033 343.048 348.117 342.955C348.033 343.048 347.958 343.126 347.893 343.193ZM131.986 329.206C131.933 329.379 131.891 329.561 131.857 329.751L131.858 329.752C131.881 329.625 131.906 329.502 131.937 329.383C131.952 329.323 131.968 329.265 131.986 329.207V329.206ZM130.104 329.503V329.502V329.503ZM128.36 329.362H128.361H128.36ZM129.323 328.831H129.324H129.323ZM132.186 328.718C132.132 328.82 132.085 328.926 132.044 329.037L132.11 328.874C132.134 328.821 132.159 328.769 132.186 328.718ZM133.215 327.765C132.969 327.873 132.766 328.01 132.597 328.17C132.681 328.09 132.774 328.016 132.877 327.948C132.98 327.881 133.092 327.82 133.215 327.766V327.765ZM332.609 323.607H332.61H332.609ZM363.469 317.604H363.47H363.469ZM364.335 306.517C364.293 306.513 364.253 306.508 364.213 306.502C364.253 306.508 364.293 306.513 364.335 306.517ZM363.863 306.406C363.902 306.422 363.94 306.435 363.979 306.447C363.94 306.435 363.902 306.422 363.863 306.406ZM363.122 305.942H363.123L363.061 305.186L363.06 305.185L363.122 305.942ZM369.692 298.226V298.225V298.226ZM373.804 289.44H373.805H373.804ZM366.391 288.362C366.36 288.469 366.338 288.583 366.324 288.709C366.338 288.583 366.36 288.469 366.391 288.362ZM317.346 232.576C318.973 232.529 319.463 232.453 320.675 233.462C319.225 233.5 318.533 233.387 317.346 232.576ZM331.29 226.572C332.463 226.406 332.713 226.356 333.615 227.085C332.443 227.205 332.26 227.161 331.29 226.572ZM316.335 221.119C317.22 221.831 318.545 223.038 319.468 223.82C318.893 223.994 318.53 223.683 317.81 223.4C317.337 223.275 316.937 222.803 316.487 222.483L315.26 223.311L315.34 223.227L315.005 223.306C315.222 222.588 315.883 221.764 316.335 221.119ZM320.485 207.498C322.081 207.358 324.806 206.969 325.495 207.119C324.817 207.995 322.128 207.726 320.438 208.393L320.277 208.46C319.35 209.956 317.722 212.028 315.72 211.559C315.04 211.73 315.062 211.773 314.393 211.614C314.665 210.895 314.988 210.838 315.695 210.273L315.825 210.049C316.564 208.898 318.558 207.416 319.88 207.541L320.485 207.498ZM142.621 203.584C142.393 204.24 141.366 204.714 140.652 205.183L140.417 205.166L140.193 204.872C140.561 204.318 141.722 203.827 142.364 203.49L142.621 203.584ZM317.595 194.597L317.625 195.076C317.15 195.637 316.64 196.077 316.553 196.771L317.15 197.107L316.335 197.749L315.604 197.695L315.357 197.368C315.6 196.33 316.637 195.267 317.35 194.387L317.595 194.597ZM126.638 193.415C126.477 194.162 126.229 194.154 125.529 194.793L125.331 194.578C125.456 193.784 125.63 193.881 126.405 193.177L126.638 193.415ZM190.842 190.454C190.63 191.228 190.406 191.16 189.579 191.78L189.389 191.573C189.672 190.76 189.838 190.864 190.69 190.232L190.842 190.454ZM152.64 184.013C153.154 183.892 152.951 183.907 153.449 184.207C152.461 184.443 152.013 185.304 151.206 186.093C147.005 184.063 147.331 185.273 144.429 184.502C146.433 184.265 150.341 184.551 152.64 184.013ZM132.967 179.856C136.578 177.687 137.642 180.885 140.465 182.747C140.495 182.778 140.526 182.807 140.556 182.838C140.129 183.175 140.106 183.187 139.613 183.417C138.387 183.212 135.249 180.833 132.967 179.856ZM196.102 180.912C197.589 180.08 198.961 179.807 200.471 180.791L198.643 181.879C197.601 181.403 197.192 181.2 196.102 180.912ZM112.268 173.505C112.187 174.327 111.558 174.466 110.896 174.861L110.815 174.505C111.145 173.769 111.257 173.941 112.268 173.505ZM111.564 160.327C111.303 160.95 110.304 161.534 109.697 161.967L109.389 161.764C109.81 160.998 110.467 160.683 111.209 160.186L111.564 160.327ZM206.242 154.573L206.314 154.847C204.574 156.386 203.463 158.648 203.115 160.926L202.576 160.672C202.334 159.795 204.73 154.941 205.464 154.354L206.242 154.573ZM185.896 144.976C191.532 146.28 189.402 151.072 187.577 154.747C186.634 156.647 185.557 157.585 183.812 158.706C181.512 155.82 181.339 153.677 179.903 150.362C181.889 148.178 183.275 146.361 185.896 144.976ZM238.349 155.959C238.933 156.019 239.054 156.089 239.615 156.287C240.099 157.132 239.959 156.667 239.863 157.777C238.742 157.229 238.46 157.222 238.349 155.959ZM305.308 149.093C305.028 149.656 304.283 149.926 303.638 150.294C303.413 150.227 303.563 150.287 303.243 150.007C303.761 149.401 304.273 149.33 305.085 148.997L305.308 149.093ZM240.532 139.207C241.301 139.664 241.148 142.137 242.354 144.336C241.026 146.257 240.698 146.39 239.692 148.625L239.36 148.618C238.443 147.372 237.4 142.359 238.097 140.81C238.521 139.866 239.362 139.623 240.228 139.236L240.532 139.207ZM231.443 137.325C231.724 139.48 230.541 142.653 229.84 144.694C229.364 142.165 229.362 141.872 229.526 139.358L231.443 137.325ZM275.438 130.362C275.125 130.946 274.325 131.229 273.688 131.559L273.635 131.236C273.975 130.563 274.65 130.358 275.362 129.998L275.438 130.362ZM140.094 124.404C139.736 125.113 139.142 125.329 138.397 125.821L138.115 125.475C138.473 124.85 139.214 124.599 139.895 124.252L140.094 124.404ZM312.835 102.629L312.71 103.104C311.725 103.999 311 104.28 309.82 104.871L309.585 104.547C309.925 103.928 311.973 102.957 312.723 102.545L312.835 102.629ZM301.438 102.444C301.205 103.022 300.464 103.359 299.854 103.771L299.612 103.378C299.957 102.641 300.233 102.732 301.195 102.269L301.438 102.444ZM257.37 91.7891L257.138 92.1895C255.853 92.5379 255.025 92.4935 253.715 92.5098L253.399 92.4697L253.28 92.1484C253.888 91.6809 256.107 91.7038 257.02 91.6523L257.37 91.7891ZM240.135 88.6162L240.254 88.8223L239.577 89.2031C239.023 89.4651 238.248 89.9709 237.65 90.2969C237.329 89.7429 237.551 89.4222 237.688 88.5986L240.135 88.6162Z" fill="#FF81B2"/>
</g>
<defs>
<clipPath id="clip0_79_4424">
<rect width="480" height="480" fill="white"/>
</clipPath>
</defs>
</svg>
