<svg width="480" height="480" viewBox="0 0 480 480" fill="none" xmlns="http://www.w3.org/2000/svg">
<g clip-path="url(#clip0_79_9372)">
<path d="M184.113 79.38C184.623 79.1635 185.138 78.9582 185.657 78.7647C194.059 75.6845 203.538 72.6672 212.543 74.1735C220.992 75.5865 230.621 80.7932 238.614 83.9795C241.259 85.0337 244.138 86.8632 246.756 87.678C252.728 89.5362 258.478 91.5895 264.295 93.8687C269.318 95.6115 274.075 97.1207 278.973 99.3375C281.988 100.701 285.38 100.796 288.44 102.633C290.058 103.605 294.848 103.242 296.748 103.545C299.93 103.889 301.618 104.698 304.685 103.465C311.648 105.312 324.79 102.923 332.273 105.1C335.56 105.928 338.505 107.919 341.603 109.135C357.565 115.415 369.183 128.577 377.023 143.428C380.745 150.476 383 152.118 382.2 160.917C382.003 163.111 383.1 167.103 382.658 169.678C381.325 177.391 380.705 185.36 378.53 192.885C375.843 201.43 370.19 209.948 365.24 217.421C363.693 219.757 359.69 222.746 357.81 225.035C355.255 227.656 349.958 231.243 347.628 234.113C345.13 237.189 341.783 244.106 338.318 246.609C336.893 247.236 333.715 246.826 332.45 246.186C325.95 242.809 327.28 238.344 326.808 232.983C326.308 227.272 327.685 215.764 325.715 211.065C326.733 207.676 327.298 207.496 325.39 204.296C325.73 203.202 325.978 202.557 325.75 201.416C323.298 189.037 318.76 177.686 304.6 176.041C300.803 175.6 293.975 174.629 291.108 172.506L290.78 172.263C288.815 172.941 286.935 173.395 284.925 173.906L281.963 172.796C280.405 173.359 278.943 174.025 277.3 173.999C276.18 173.956 275.855 174.118 274.973 173.586C274.565 172.796 274.575 172.733 274.38 171.9C273.793 171.484 273.833 171.514 273.108 171.511C271.64 172.505 271.588 172.972 269.798 172.635C269.108 172.506 268.893 172.56 268.3 172.839C267.218 173.988 267.598 174.983 266.678 175.714C266.523 175.702 264.988 175.582 264.988 175.582C264.283 175.838 261.498 178.443 260.84 178.316C258.828 177.929 258.028 176.85 255.818 178.605L256.003 178.759C257.808 178.464 257.685 178.324 259.59 178.469L259.84 178.699C259.253 179.402 258.903 179.771 258.463 180.566C257.193 181.137 255.308 181.921 254.208 182.722C252.72 183.805 251.26 185.269 249.678 186.234C248.698 186.831 246.233 186.711 245.39 187.444C244.2 188.479 242.533 190.187 241.469 191.352C238.346 194.772 235.527 195.769 231.796 198.217C228.681 200.261 224.742 204.022 221.709 205.686C218.94 207.204 214.137 208.554 211.115 210.14C209.412 211.034 207.932 212.461 206.354 213.189C204.76 213.924 201.623 214.143 200.033 214.816C198.358 215.524 195.867 218.287 193.875 218.071C191.69 217.833 189.162 219.016 186.745 219.584C182.832 220.505 179.772 221.401 175.708 221.852C170.966 222.379 163.26 220.811 159.034 221.505L158.641 221.572C155.269 219.813 153.216 220.022 149.551 219.931C149.526 226.715 146.68 240.68 143.303 246.751C141.536 249.928 137.545 248.329 135.827 245.683C130.842 238.005 132.148 226.975 126.731 219.433C125.894 218.269 121.082 217.283 119.696 216.452C113.165 212.525 106.072 206.983 102.174 200.368C101.448 199.135 100.791 195.255 100.59 193.795C99.1851 192.576 98.3344 191.85 97.1209 190.458C96.5456 185.975 93.8256 185.925 95.0506 181.444C94.5789 180.823 93.7546 179.637 93.5006 178.865C91.3339 172.285 90.7349 164.956 90.2861 158.077C90.2254 157.144 90.8969 154.978 90.8316 153.624C90.7211 151.338 90.3946 148.752 90.3094 146.585C90.1199 137.061 94.2141 127.104 97.8264 118.446C100.287 112.548 101.085 109.353 105.451 104.423C110.313 98.934 114.646 97.0527 122.097 96.9152C123.486 96.8895 127.191 97.1075 128.662 96.6167C130.897 94.5735 132.192 91.1465 134.295 88.76C139.094 83.3122 142.859 78.8847 150.489 77.8995C152.151 77.6107 154.288 77.0625 156.068 76.8087C157.125 76.5847 158.319 75.8752 159.324 75.6047C166.568 73.653 178.383 74.4535 184.113 79.38ZM170.451 150.232C172.748 145.087 174.256 142.628 169.224 138.491C167.786 138.28 165.515 137.855 164.157 137.981C160.893 142.81 165.007 149.033 170.064 150.393L170.451 150.232ZM205.731 202.025C204.464 202.546 204.027 202.974 202.96 203.809C200.538 204.983 200.78 204.079 199.261 204.029C197.693 204.745 195.573 206.172 194.331 206.653C193.139 206.891 191.484 207.464 190.457 208.118L190.56 208.415C191.351 208.584 193.219 208.999 193.858 208.62L193.968 208.19L193.775 208.124L193.509 207.807C194.274 207.637 194.322 207.749 195.133 207.927C195.875 207.187 195.696 207.075 196.673 206.454C196.87 206.319 197.486 206.023 197.731 205.897C199.101 206.361 201.021 204.578 201.49 204.884C202.28 205.399 202.826 206.352 204.506 206.68C205.355 206.472 205.039 206.703 205.504 205.989C205.515 205.311 205.408 204.661 205.844 204.121C205.841 203.476 205.779 203.442 206.082 202.894C207.058 202.838 208.443 203.878 209.835 204.281L210.17 204.078L210.091 203.683C208.964 203.442 208.471 203.41 207.491 202.81L207.453 202.391C209.239 200.939 212.187 201.144 214.286 200.478C215.916 199.961 216.048 200.46 217.228 200.374C217.31 199.836 217.381 199.313 217.498 198.78L217.57 198.819C215.92 198.745 215.491 198.636 213.914 198.241C213.908 198.243 213.362 198.437 213.355 198.442C211.744 199.411 209.655 199.149 208.318 199.599L208.385 200.384C207.916 201.085 206.553 201.618 205.731 202.025ZM346.583 117.576L347.02 117.082C346.768 115.863 346.7 116.002 345.478 115.686L345.005 115.15L345.425 114.38C342.965 113.637 340.628 114.429 338.583 114.085C340.26 115.635 342 119.183 345.1 118.548L345.65 117.677C346.1 117.596 346.133 117.561 346.583 117.576ZM250.575 175.636C249.937 175.263 249.764 175.21 249.038 175.07L248.904 174.765C250.065 173.864 250.363 174.866 251.358 174.12C250.96 173.937 250.635 173.8 250.283 173.537C250.88 172.817 254.625 171.269 255.67 171.093L255.945 170.806L255.59 170.579C252.775 171.305 251.418 169.402 248.712 169.75L249.201 170.566C250.148 170.764 250.775 170.867 251.3 171.72C250.383 172.642 249.67 172.437 248.622 171.779C248.017 172.178 247.753 172.2 247.493 172.753C248.175 173.008 248.56 173.052 249.265 173.172L249.42 173.523C248.33 174.641 248.246 173.499 247.149 174.376L247.3 174.826C248.899 175.416 250.57 177.244 252.373 176.221C251.8 175.768 251.3 175.762 250.575 175.636ZM284.66 163.379C283.783 163.751 281.968 164.594 281.313 165.301C283.898 164.261 287.28 163.018 290.245 163.632C290.483 163.681 292.273 162.214 292.57 161.71C292.028 160.989 290.97 161.036 290.103 161.039C287.89 162.071 282.083 162.494 279.538 162.32C280.323 162.638 284.498 162.58 285.64 162.597C286.505 162.117 286.033 162.227 287.138 162.424L287.345 162.707C286.555 162.812 285.505 162.908 284.773 163.155L284.66 163.379ZM261.23 168.15C259.615 168.562 258.17 169.073 256.843 170.124C256.685 170.501 256.625 170.6 256.53 170.996L256.75 171.292C256.635 171.98 256.353 172.091 256.078 172.766C256.875 172.83 258.028 171.542 259.138 171.457C260.74 171.335 264.753 172.999 265.918 171.925C265.298 170.83 262.758 170.073 262.095 168.776L262.365 168.373L263.03 168.272L263.41 167.644C262.528 167.955 262.378 168.007 261.443 168.125L261.23 168.15ZM222.75 193.98L222.916 193.958C224.596 193.955 224.537 193.181 225.74 192.865C227.395 192.431 228.665 192.548 230.419 191.848C228.281 190.949 225.771 191.053 223.725 192.111L221.18 193.355C219.91 193.79 217.006 195.495 215.986 196.378L216.003 196.663C217.797 197.139 219.91 196.929 221.579 195.996C222.306 195.589 222.49 194.773 222.75 193.98ZM346.518 123.59L346.753 123.435C347.615 122.875 347.71 122.791 348.663 122.492L348.973 122.091L348.815 121.879C347.25 122.049 346.895 122.735 345.833 122.43L345.8 122.054C347.025 121.161 347.813 121.19 349.338 121.133L349.198 120.936C348.145 120.765 347.08 120.474 346.1 120.829C345.295 121.252 344.67 121.594 343.825 121.926L342.868 121.023L342.548 121.065C343.24 121.951 343.4 121.835 343.4 122.71C342.443 123.482 341.09 123.489 340.925 123.941C344.105 124.233 344.608 123.341 346.518 123.59ZM182.603 216.686C183.131 216.095 183.701 215.591 183.595 214.819C182.301 214.758 181.669 215.565 180.845 216.448C180.392 216.878 179.911 218.335 179.119 218.454C177.515 218.696 174.026 218.166 172.866 219.51L172.946 219.853C174.144 220.031 175.481 219.409 176.729 219.241C178.234 219.039 179.967 219.587 181.226 218.699C182.002 218.153 182.028 217.406 182.603 216.686ZM268.56 141.791C267.123 141.063 265.383 140.664 263.81 140.358C263.008 141.507 262.405 141.154 261.88 142.395L262.05 142.805C263.053 142.932 267.335 142.074 268.56 141.791ZM298.423 154.44C297.235 154.166 297.068 154.145 295.86 154.276L295.713 154.418C297.69 154.911 299.388 155.053 301.148 155.937C301.363 155.907 301.8 155.861 301.993 155.803C302.508 155.484 303.025 155.004 303.5 154.605C303.82 154.383 306.085 152.283 306.175 152.064C305.065 151.642 301.158 153.982 298.785 154.381L298.423 154.44ZM336.97 183.473C337.915 183.278 338.16 183.419 338.605 182.84C337.71 182.27 335.563 181.57 334.54 181.499C333.525 182.009 333.223 181.931 332.788 182.733C333.625 183.79 335.745 183.763 336.97 183.473ZM290.368 155.824C289.348 156.377 287.66 156.635 287.088 157.199L287.523 157.717C288.568 157.304 289.608 156.885 290.648 156.46C290.913 154.308 292.74 154.724 292.82 153.24C291.06 151.553 289.88 153.034 287.755 152.192C287.34 152.027 286.708 152.587 286.43 152.869L286.615 153.034C288.81 152.539 291.388 152.859 290.368 155.824ZM337.59 164.397C338.828 164.597 339.098 164.776 340.268 165.312L340.485 164.997L340.58 164.605C338.328 163.897 337.66 163.518 335.303 163.9C334.658 163.975 334.22 164.018 333.56 164.044C333.348 164.813 333.128 165.576 332.955 166.354L333.198 166.464L334.99 165.153C335.958 164.451 336.37 164.482 337.59 164.397ZM214.76 129.696C212.938 130.333 209.896 131.298 208.239 132.087C210.568 131.775 213.532 130.893 215.893 130.31C220.265 130.487 217.264 129.396 220.409 126.561C220.886 126.131 220.626 126.54 220.88 126.003C219.142 126.057 217.349 129.298 214.76 129.696ZM265.008 163.014C267.915 162.112 266.278 161.988 267.63 161.069C268.635 160.385 270.315 161.625 271.645 159.889C271.628 159.129 271.78 159.388 271.405 158.93C268.525 161.337 266.485 159.532 264.573 162.526C264.743 162.964 264.595 162.803 265.008 163.014ZM348.663 211.863C350.758 208.727 352.923 209.41 354.633 206.629L354.103 206.658C352.14 207.015 349.038 209.795 348.083 211.617L348.245 211.908L348.663 211.863ZM226.537 115.429C225.712 116.138 223.041 117.007 222.731 117.568C223.102 117.568 223.227 117.602 223.579 117.515C224.672 117.119 228.312 116.14 228.777 115.736C227.886 114.72 227.871 114.979 227.792 113.887C228.43 112.805 229.015 112.494 228.805 111.68C227.509 112.985 227.276 113.757 226.537 115.429ZM333.348 134.409C336.62 133.927 336.903 133.715 340.04 134.484C340.803 134.055 341.933 133.529 342.445 132.874C341.993 132.617 342.233 132.66 341.715 132.754C338.783 134.382 334.613 132.63 332.858 134L332.745 134.639L333.085 134.654L333.348 134.409ZM351.38 219.594C350.428 220.057 350.258 219.996 349.653 220.799L349.76 220.829L350.123 220.545L350.08 220.88C351.038 220.418 351.978 219.928 352.353 218.879C352.163 217.652 350.608 217.313 349.515 217.327C347.93 218.3 348.515 218.506 347.378 219.625L347.753 219.893C349.278 219.579 349.03 217.757 350.743 218.436C351.178 218.978 351.168 218.938 351.38 219.594ZM235.357 122.023C237.189 121.176 238.755 120.34 240.533 119.377C241.353 119.377 242.111 119.517 242.725 119.149C241.957 118.739 241.417 118.806 240.546 118.78L240.213 118.975C238.116 120.19 234.574 121 233.514 122.29L233.673 122.577C234.481 122.657 234.662 122.452 235.357 122.023ZM352.845 161.692C354.583 160.919 355.063 160.698 357.01 160.442L357.215 160.26C358.62 159.054 360.893 158.184 361.195 156.874L360.985 156.494C359.453 158.515 355.21 160.256 352.753 160.817C352.8 160.806 352.658 161.038 352.845 161.692ZM190.572 213.119C191.121 212.878 192.247 212.458 192.616 212.089L192.624 211.257L192.951 211.449L192.986 211.65L192.487 211.211L192.875 211.317C192.22 210.923 191.7 211.053 190.919 211.099C189.726 211.629 189.549 211.633 188.781 212.623L188.649 213.243C189.175 213.72 188.873 213.606 189.506 213.747C189.895 213.457 190.145 213.175 190.572 213.119ZM216.37 187.667C218.614 187.101 224.456 186.479 225.272 185.96C225.259 185.591 225.336 185.702 225.21 185.559C222.259 186.646 218.954 185.152 216.471 187.135L216.37 187.667ZM232.329 167.84C233.274 167.59 233.995 167.511 234.696 166.857C234.746 166.477 234.814 165.595 234.853 165.335C235.081 163.828 238.155 161.1 237.887 159.554L237.249 159.337C235.678 162.017 235 167.02 231.895 167.448C232.177 167.806 232.016 167.696 232.329 167.84ZM329.405 142.894C331.115 141.063 331.703 140.605 333.773 139.202L333.815 138.881L333.623 138.762C332.003 139.628 329.883 139.774 329.045 141.21C329.03 142.066 328.95 142.163 329.405 142.894ZM101.375 148.714C103.933 147.443 105.467 147.036 107.536 144.978L107.629 144.582L107.337 144.448C107.004 144.57 101.33 148.152 101.089 148.423L101.24 148.689L101.375 148.714ZM225.427 129.702C225.292 130.417 224.955 131.558 225.25 132.129L225.657 132.142C225.969 131.353 226.376 130.423 226.563 129.609C227.226 129.114 230.624 126.776 230.705 126.298L230.187 126.129L225.427 129.702ZM341.108 139.728C343.4 138.8 343.32 138.504 345.38 139.37C345.588 139.457 345.793 139.545 345.995 139.634C346.275 138.978 346.28 139.292 346.028 138.662C344.923 138.103 344.52 138.177 343.305 138.408C341.655 138.622 340.318 139.135 339.018 140.197L339.01 140.426L339.073 140.29C339.833 140.47 340.34 140.155 341.108 139.728ZM297.983 173.483C298.888 172.746 298.908 172.978 299.1 172.089C298.623 171.429 297.848 171.365 297.008 171.138C296.778 171.793 296.49 172.089 296.053 172.604L296.098 172.927C296.92 173.314 297.07 173.32 297.983 173.483ZM346.69 131.567C348.23 131.441 349.553 131.33 350.958 130.619L350.838 130.498C349.968 130.501 349.535 130.496 348.685 130.625C347.433 130.724 345.173 130.811 344.253 131.646C345.203 131.856 345.708 131.705 346.69 131.567ZM126.807 102.418C125.599 102.246 123.823 103.333 122.906 104.101L122.957 104.295C124.418 103.784 125.434 103.388 126.842 102.752C127.836 103.978 126.965 104.36 127.673 105.425C128.593 105.465 129.648 105.31 130.291 104.585L129.928 104.116C128.492 103.726 128.255 103.558 127.106 102.655L126.807 102.418ZM354.003 186.959C354.863 187.244 355.178 187.259 355.925 186.84L355.673 186.516L354.498 186.371C354.218 186.243 353.878 186.089 353.478 185.906C351.913 186.272 349.998 186.346 348.52 186.808L348.265 187.093C349.178 187.602 349.748 187.531 350.618 187.927L352.73 187.077C353.445 186.741 353.08 186.867 354.003 186.959ZM271.623 150.574L271.955 149.866C271.475 149.78 271.35 149.801 270.833 149.896C268.955 150.241 267.265 149.066 265.47 149.286L265.343 149.81C266.775 150.414 270.045 150.712 271.623 150.574ZM170.053 216.346C171.204 215.882 171.559 215.852 172.285 214.92C172.431 213.992 172.501 214.444 171.904 213.552L171.539 213.387C170.755 214.215 169.566 215.313 169.53 216.426C169.999 216.389 169.837 216.458 170.053 216.346ZM266.283 106.68C267.475 106.716 268.673 106.824 269.83 106.581C268.263 105.812 267.773 106.484 266.705 105.586C265.698 106.18 264.765 106.586 264.12 107.525L264.318 107.684C265.26 107.384 265.433 107.231 266.283 106.68ZM372.618 150.457C373.575 150.07 374.673 149.733 375.41 149.056L375.31 148.725C374.63 148.531 374.638 148.535 373.93 148.529C372.775 149.217 372.34 149.41 371.483 150.497L371.575 150.735C372.243 150.848 371.898 150.861 372.618 150.457ZM299.275 159.734L298.758 159.027C297.228 159.031 296.08 159.915 294.745 158.923C294.163 158.49 293.815 157.984 293.2 157.619L292.903 158.556C294.405 160.65 297.18 159.27 299.275 159.734ZM204.988 200.466L205.215 200.212C206.41 198.906 207.242 198.465 208.759 197.547L208.666 197.341L207.887 197.175C206.461 197.71 205.011 198.976 204.176 200.236L204.345 200.439L204.988 200.466ZM274.555 152.778C276.848 152.379 277.755 151.65 279.028 149.631L278.843 149.393L278.308 149.348C277.345 150.065 277.273 150.378 276.673 151.472C275.475 152.312 274.04 152.012 273.838 152.65L274.555 152.778ZM193.379 203.928C192.623 204.157 191.635 204.323 191.153 204.813L191.568 205.049C193.998 204.598 194.427 203.947 195.448 201.653C195.075 201.364 195.273 201.447 194.875 201.365C194.174 202.388 193.891 202.807 193.379 203.928ZM110.738 172.799C111.932 172.749 113.892 172.663 114.724 171.741C114.227 171.194 114.523 171.417 113.701 171.236C112.449 171.649 111.291 171.955 110.163 172.63L110.259 172.873L110.738 172.799ZM251.115 152.398C251.805 150.552 252.503 149.009 253.795 147.486C253.605 147.18 253.725 147.287 253.463 147.135C252.19 148.182 250.683 150.432 250.663 152.136L251.115 152.398ZM255.088 162.703L255.003 162.39C253.843 162.283 252.395 162.244 251.348 161.825C250.648 160.315 251.803 161.501 251.298 160.202C250.44 161.109 250.43 160.833 250.295 161.841C251.288 163.114 253.578 162.802 255.088 162.703ZM362.81 151.689C361.475 150.459 356.853 150.11 355.103 150.362C355.818 150.661 361.893 151.664 362.81 151.689ZM356.193 146.075C357.71 145.931 359.353 145.879 360.755 145.326C360.268 145.085 358.173 145.297 357.575 145.389L356.243 145.534C355.315 145.631 354.895 145.795 354.008 146.098C354.418 146.435 354.173 146.307 354.815 146.247C355.275 146.2 355.735 146.142 356.193 146.075ZM347.308 145.591C345.92 146.116 342.833 147.221 341.955 148.279C341.318 149.175 339.805 150.946 339.515 151.644C339.783 151.449 340.008 151.288 340.265 151.078L339.775 151.337C340.66 151.189 341.838 149.738 342.463 149.029C343.883 147.911 345.75 146.755 347.308 145.591ZM178.331 87.9245C179.229 87.8337 180.725 87.7895 181.455 87.4272C180.029 87.271 179.314 87.277 177.893 87.3065C177.197 87.826 176.467 88.2397 176.14 89.021L176.48 89.1445C177.293 88.7405 177.599 88.4802 178.331 87.9245ZM181.074 207.073C182.064 206.886 185.606 206.445 186.094 206.12L185.928 205.864L185.118 205.788L184.826 205.863C183.614 206.166 180.827 206.425 180.279 206.958L180.289 207.441L180.598 207.546C180.691 207.458 181.018 207.166 181.074 207.073ZM273.563 156.407C274.473 156.518 274.42 156.662 275.1 156.326C274.535 155.715 273.893 155.503 273.05 155.586C272.24 155.715 271.54 155.703 270.988 156.253C271.615 156.927 272.723 156.58 273.563 156.407ZM179.815 95.8485C180.61 95.445 181.213 95.2287 181.792 94.5552L181.641 94.339C180.787 94.5137 180.372 94.8482 179.674 95.3472C177.878 96.124 176.261 97.3247 174.641 98.4322C176.418 98.0667 178.239 96.742 179.815 95.8485ZM259.963 106.76C261.133 106.45 261.338 106.467 262.22 105.705L262.17 105.357C261.47 105.218 261.658 105.212 260.963 105.253C260.128 105.681 259.573 105.936 258.7 106.278L258.608 106.581C259.26 106.739 259.298 106.762 259.963 106.76ZM313.31 154.801C314.898 155.342 316.878 155.682 318.333 154.585L318.253 154.276L317.685 154.298C316.315 154.58 313.033 154.594 312.875 154.672L313.31 154.801ZM239.142 111.191C240.79 110.503 242.935 110.281 243.959 109.717L243.851 109.505L243.254 109.607C241.212 109.774 240.565 109.823 238.752 110.954L238.705 111.34L239.142 111.191ZM263.748 154.795L263.965 154.659C265.063 153.987 266.603 153.596 267.108 153.034C266.56 152.622 266.79 152.803 265.893 152.756C265.163 153.137 263.2 154.19 262.903 154.944C263.493 154.982 263.21 155.032 263.748 154.795ZM141.608 140.523C142.896 140.101 146.739 139.305 147.22 138.952L146.987 138.531C145.945 138.794 141.933 139.612 141.408 140.176L141.608 140.523ZM231.694 108.127L231.662 107.619C231.448 107.541 226.951 107.033 226.802 107.051L226.948 107.59C228.365 107.937 230.253 108.373 231.694 108.127ZM109.574 188.077C110.899 188.64 111.94 188.93 113.336 188.494C112.483 187.747 110.713 187.965 109.574 188.077ZM216.662 89.776L216.768 89.384C216.068 88.756 214.817 87.5267 214.059 87.13C214.218 88.2905 215.627 89.6927 216.662 89.776ZM211.015 165.302C210.153 165.555 210.143 165.4 209.672 165.98C210.334 166.128 210.386 166.042 211.061 165.863C211.802 165.814 212.5 165.886 213.028 165.435C212.345 165.086 211.797 165.233 211.015 165.302ZM143.241 156.378C142.269 157.185 142.088 157.304 141.575 158.444L141.77 158.62L141.875 158.407C142.657 157.805 143.167 157.438 143.848 156.733L143.768 156.44L143.241 156.378ZM205.823 172.676C206.618 172.38 208.165 171.93 208.678 171.404L208.294 171.4C207.405 171.58 206.037 171.744 205.366 172.26C205.544 172.652 205.399 172.506 205.823 172.676ZM222.694 168.879C221.988 168.316 220.022 168.421 219.137 168.563C220.551 168.996 220.903 169.068 222.376 169.192L222.694 168.879ZM365.343 193.09C366.143 192.67 367.203 192.267 367.668 191.602L367.313 191.489L364.933 192.407L364.868 192.711L365.343 193.09ZM202.123 92.372C202.965 92.715 204.76 93.4335 205.608 93.4322C204.66 92.017 203.722 92.3422 202.123 92.372ZM358.45 169.526C359.113 169.232 359.873 169.001 360.305 168.492C359.808 168.478 359.71 168.448 359.225 168.528C358.043 168.857 358.273 168.622 357.49 169.388L357.723 169.617L358.45 169.526ZM195.559 137.516C194.407 137.277 193.593 137.24 192.705 138.132C192.659 138.587 192.603 138.49 192.74 138.876C193.744 139.149 197.246 138.375 198.084 137.778L198.006 137.572C197.038 137.672 196.486 137.816 195.559 137.516ZM363.803 198.02C364.645 197.874 365.358 197.773 366.208 197.68C365.668 197.345 365.965 197.406 365.325 197.405C364.358 197.388 363.72 197.244 362.968 197.802L363.05 198.104C363.463 198.11 363.48 198.173 363.803 198.02ZM252.583 105.371C253.493 104.969 254.52 104.606 255.253 103.966L255.048 103.723L254.41 103.799C253.525 104.146 252.848 104.422 251.99 104.833L251.973 105.179L252.583 105.371ZM338.72 191.522C337.778 191.823 336.92 191.998 336.17 192.613C336.29 192.959 336.188 192.862 336.36 192.986C337.19 192.694 338.31 192.403 338.925 191.83L338.72 191.522ZM193.562 89.4332C195.029 89.3127 195.611 89.3305 196.984 88.7022L196.955 88.4717L196.145 88.6082C194.482 88.7322 194.164 88.773 192.573 89.297L192.528 89.498L193.562 89.4332ZM216.681 113.493C215.946 113.675 215.612 113.612 215.204 114.072C215.913 114.354 215.903 114.334 216.671 114.398L217.76 113.932L217.891 113.568C217.274 113.427 217.306 113.421 216.681 113.493ZM337.97 208.503C338.75 208.1 339.595 207.756 340.15 207.1C339.698 206.952 339.913 206.954 339.505 207.047C338.713 207.239 338.103 207.375 337.34 207.655L337.308 207.993L337.97 208.503ZM264.445 151.774C263.573 150.4 263.12 150.401 261.545 150.519C262.705 151.24 263.08 151.632 264.445 151.774ZM352.843 197.74C353.828 197.388 354.515 197.214 355.363 196.58C354.893 196.341 355.153 196.382 354.573 196.527C353.615 196.827 353.038 196.977 352.153 197.435C352.573 197.77 352.34 197.676 352.843 197.74ZM236.683 102.49C235.899 102.809 234.656 103.223 234.079 103.769C234.336 104.056 234.201 103.993 234.417 104.061C235.344 103.651 236.564 103.303 237.092 102.605L236.683 102.49ZM359.09 203.566C360.023 203.115 360.888 202.903 361.375 202.152L361.223 202.052C360.513 202.287 359.17 202.607 358.745 203.128C358.995 203.519 358.858 203.394 359.09 203.566ZM139.102 109.49C139.703 109.189 140.683 108.848 140.909 108.361L140.543 108.289C139.7 108.464 139.215 108.489 138.515 108.996L138.542 109.345L139.102 109.49ZM253.763 123.525C254.558 122.994 255.365 122.601 255.773 121.759L255.6 121.219C254.988 121.771 253.873 122.608 253.683 123.328L253.763 123.525ZM120.102 168.428C119.323 168.876 118.48 169.177 118.127 169.862L118.39 169.947C119.134 169.675 120.096 169.426 120.593 168.867C120.339 168.441 120.515 168.571 120.102 168.428ZM220.585 159.821C221.249 159.517 222.44 159.073 222.879 158.56C222.383 158.459 222.597 158.446 222.236 158.518C221.479 158.82 220.35 159.1 219.982 159.659L220.585 159.821ZM240.845 166.193C241.546 165.985 242.429 165.835 242.887 165.366C242.294 165.22 242.401 165.209 241.804 165.206C240.994 165.559 240.616 165.633 240.088 166.344C240.585 166.432 240.329 166.458 240.845 166.193ZM338.858 200.664C338.248 201.253 337.705 201.693 337.288 202.431L337.458 202.583L337.878 202.302C338.448 201.905 339.428 201.387 339.593 200.857C339.285 200.754 339.17 200.681 338.858 200.664ZM207.059 181.747C207.787 181.649 208.445 181.669 208.967 181.203C208.377 181.015 208.595 181.039 207.955 181.104C207.234 181.179 206.568 181.152 206.002 181.559C206.515 181.81 206.483 181.784 207.059 181.747ZM194.606 161.363C193.798 161.598 193.142 161.685 192.56 162.266C193.121 162.569 193.803 162.307 194.558 162.166C195.255 161.708 196.488 161.113 196.587 160.267L196.361 160.81C196.232 160.694 196.052 160.493 195.915 160.457L194.606 161.363ZM347.75 175.57C348.715 175.104 349.313 174.843 350.32 174.486L350.203 174.28L349.198 174.244C348.353 174.632 347.463 174.958 346.798 175.59C347.39 175.734 347.185 175.742 347.75 175.57ZM219.919 173.022L219.567 173.331C219.043 173.784 218.668 174.005 218.081 174.358C218.162 174.725 218.068 174.596 218.302 174.785C219.025 174.491 219.568 174.36 220.071 173.774L220.094 173.188L219.919 173.022ZM230.27 122.803C230.936 122.498 231.588 122.259 232.27 121.995L232.304 121.776C231.368 121.695 228.833 121.627 228.405 122.66L229.005 123.187C228.543 124.261 227.832 124.306 227.446 125.161C228.94 124.789 229.361 123.987 230.27 122.803ZM305.108 167.703C305.743 167.302 306.583 166.94 306.808 166.363L306.133 166.188C305.378 166.705 304.938 166.837 304.575 167.572L305.108 167.703ZM205.374 135.949C205.995 135.535 206.961 135.014 207.258 134.399L206.925 134.32C206.282 134.654 205.106 135.118 204.827 135.637L205.374 135.949ZM208.878 122.854C209.646 122.517 210.739 122.167 211.204 121.53L210.887 121.22C210.207 121.561 209.004 122.024 208.669 122.628L208.878 122.854ZM321.838 174.033C321.35 172.949 320.35 172.622 319.275 172.253C319.61 173.331 320.798 173.682 321.838 174.033ZM312.575 117.888C313.295 117.528 313.88 117.363 314.333 116.783C314.098 116.76 313.833 116.707 313.618 116.747C312.838 117.081 312.293 117.226 311.733 117.859L311.968 118.021L312.575 117.888ZM143.723 226.491C142.704 226.822 142.317 226.87 141.505 227.522L141.708 227.687L142.309 227.575C142.953 227.346 144.177 227.038 144.517 226.598L143.723 226.491ZM341.283 219.599C340.835 219.418 340.898 219.343 340.548 219.43C339.128 219.783 337.67 219.161 336.26 219.024C337.523 220.217 338.458 220.676 340.133 220.038L341.283 219.599ZM141.266 179.601C142.26 180.449 142.554 180.135 143.812 179.823L143.627 179.498C142.549 179.387 142.36 179.439 141.266 179.601ZM184.413 171.024L185.99 169.83L186.025 169.498L185.568 169.402C184.768 169.943 184.403 170.102 183.87 170.877L184.074 171.114L184.413 171.024ZM287.005 139.27L287.83 139.938C288.645 139.159 289.05 139.117 289.908 138.173C290.035 137.458 290.025 137.5 289.885 136.782C288.773 138.397 288.715 138.281 287.005 139.27ZM212.886 192.428C212.117 193.034 211.712 193.14 211.392 193.912C211.68 194.125 211.66 194.168 211.98 194.254L213.316 192.774L213.27 192.448L212.886 192.428ZM158.807 91.397L158.558 91.4325C157.544 91.5687 155.578 91.4105 155.126 91.7247C155.456 91.9797 155.478 92.0155 155.845 92.2107C156.878 92.2847 158.333 92.3427 159.091 91.4875L158.807 91.397ZM226.958 148.281C226.05 148.651 225.623 148.646 225.095 149.3L225.328 149.665C226.048 149.347 226.759 149.167 227.127 148.526L226.958 148.281ZM202.723 195.303L202.43 195.885C203.211 196.077 204.175 195.834 205.002 195.699L205.422 195.492C204.694 195.145 203.549 195.232 202.723 195.303ZM170.447 99.5587C169.605 99.1862 166.529 99.2497 165.626 99.3925C167.069 100.009 169.02 100.292 170.447 99.5587ZM216.809 102.352C216.218 102.749 215.561 103.011 215.391 103.536L216.017 103.575C216.64 103.228 217.287 103.047 217.449 102.545C217.306 102.499 216.94 102.367 216.809 102.352ZM195.127 196.533L195.549 196.621L195.713 196.367C194.566 195.832 194.41 195.867 193.113 195.761C193.028 196.239 192.916 196.687 192.751 197.144C193.75 196.602 193.99 196.457 195.127 196.533ZM286.488 134.89L286.063 135.522C286.493 135.956 286.8 135.846 287.573 135.951L287.99 135.324L287.875 135.023C287.378 134.967 286.988 134.923 286.488 134.89ZM247.626 117.233C248.199 116.711 248.986 116.206 249.061 115.592L248.593 115.414C247.902 116.114 247.645 116.29 247.236 117.156L247.365 117.371L247.626 117.233ZM328.333 148.107C329.145 147.882 330.543 147.56 331.085 146.923C330.145 146.799 328.363 147.375 327.32 147.635C326.338 147.879 326.28 147.731 325.65 148.327C326.518 148.653 327.365 148.286 328.333 148.107ZM300.543 127.882C301.275 127.797 301.925 127.823 302.48 127.383C302.095 127.07 302.273 127.141 302 127.06C301.21 127.142 300.658 127.046 300.16 127.46L300.543 127.882ZM112.167 158.521L111.801 157.99C110.939 158.442 109.814 159.135 109.202 159.9L109.274 160.479L109.044 160.566C110.248 160.241 111.051 159.333 112.167 158.521ZM209.878 174.526L209.61 174.824C208.387 176.17 207.906 176.501 206.409 177.533C206.718 177.884 206.527 177.752 206.992 177.913C207.839 177.201 210.103 175.595 210.551 174.883C210.157 174.535 210.382 174.652 209.878 174.526ZM242.7 102.307C241.924 102.885 241.253 103.582 240.909 104.5L241.229 104.568L241.639 104.149C242.61 103.194 243.204 102.992 244.415 102.467L244.368 102.273C243.776 102.267 243.297 102.259 242.7 102.307ZM161.692 114.6L163.008 113.838L163.031 113.517L162.477 113.346L161.226 114.074L161.17 114.394L161.692 114.6ZM343.065 157.145L344.773 156.674L344.838 156.401L344.34 156.185C343.625 156.444 343.038 156.573 342.505 157.099C342.945 157.203 342.758 157.219 343.065 157.145ZM191.854 132.392C192.97 132.994 193.422 132.845 194.605 132.447C193.617 132.068 192.933 132.234 191.854 132.392ZM304.235 172.525C304.975 172.226 305.698 172.048 306.198 171.495C305.883 171.247 306.03 171.296 305.805 171.246C305.048 171.534 304.31 171.667 303.873 172.225L304.235 172.525ZM231.844 171.27L231.336 171.796L231.597 172.089L233.689 172.169L234.083 172.098C233.296 171.605 232.778 171.447 231.844 171.27ZM217.025 108.008C216.279 108.292 215.476 108.462 215.062 109.082C215.778 109.229 216.307 108.873 217.006 108.563C217.826 108.553 218.507 108.661 219.152 108.214C218.7 107.84 217.587 107.87 217.025 108.008ZM234.784 126.821L234.78 126.539C233.884 126.3 233.515 126.451 232.571 126.621L232.688 127.101C233.485 127.209 234.003 127.013 234.784 126.821ZM348.348 164.111C348.988 163.77 350.015 163.393 350.215 162.86C350.05 162.825 349.65 162.727 349.5 162.725C348.883 163.177 348.108 163.58 347.86 164.188L348.348 164.111ZM102.299 119.388L102.624 119.758C102.922 119.713 103.22 119.692 103.494 119.594L103.126 119.252L102.299 119.388ZM141.561 122.364C142.593 122.901 143.161 122.807 144.357 122.633C143.25 122.162 142.796 122.129 141.561 122.364ZM369.22 186.626C368.133 186.083 366.783 186.191 365.593 186.368C366.7 187.009 367.96 186.797 369.22 186.626ZM94.6441 167.757C95.3589 167.226 96.4664 166.544 96.8249 165.793C96.3496 165.676 96.5636 165.676 96.1861 165.732C95.0799 166.393 94.8694 166.446 94.1124 167.439L94.0911 167.855L94.6441 167.757ZM141.225 238.647C140.108 238.253 140.444 238.205 139.398 238.385L139.623 238.76C140.327 238.759 140.51 238.766 141.225 238.647ZM318.895 118.492C318.275 118.803 317.29 119.214 316.883 119.708C317.51 119.761 317.465 119.764 318.055 119.538C318.858 119.293 319.688 119.155 320.265 118.626C319.605 118.491 319.565 118.473 318.895 118.492ZM351.438 177.759L354.123 175.305L354.055 174.977L353.788 174.882C352.853 175.401 351.42 176.63 351.065 177.628L351.438 177.759ZM125.077 174.926C124.433 175.242 123.63 175.514 123.282 176.083L123.586 176.108C124.271 175.898 125.114 175.762 125.52 175.243C125.163 174.937 125.331 175.009 125.077 174.926ZM128.125 137.71C127.471 138.339 127.122 138.463 126.89 139.212L127.351 139.2L128.838 138.159L128.857 137.851L128.125 137.71ZM324.203 117.372L324.373 117.708C325.27 117.788 325.293 117.778 326.193 117.636L325.87 117.265C325.055 117.215 325.05 117.199 324.203 117.372ZM337.483 233.812C338.823 232.955 339.575 232.227 340.193 230.732C339.978 230.432 340.113 230.493 339.855 230.446L339.665 230.698C339.065 231.473 337.203 233.279 337.24 233.723L337.483 233.812ZM336.173 205.185C335.393 205.724 334.913 205.843 334.618 206.565L334.88 206.77C335.67 206.303 336.145 206.224 336.46 205.549L336.173 205.185ZM124.302 111.353C123.759 110.231 121.736 110.706 120.647 110.869L120.982 111.317C122.203 111.285 123.089 111.296 124.302 111.353ZM231.125 152.05C231.817 151.732 232.861 151.381 233.202 150.78L232.858 150.464C232.205 150.863 231.246 151.305 230.916 151.877L231.125 152.05ZM194.18 93.472L193.944 93.5807C192.874 94.0602 192.599 94.1155 191.446 94.321L191.198 94.6117L191.804 95.0162C192.667 94.7237 194.353 94.29 194.887 93.6777C194.508 93.5247 194.576 93.5175 194.18 93.472ZM150.513 117.378C149.016 117.499 147.354 117.603 146.069 118.431L146.309 118.752C147.777 118.36 149.242 117.958 150.705 117.547L150.513 117.378ZM340.353 161.695C340.858 162.276 341.778 162.56 342.535 162.526C341.86 161.94 341.648 161.654 340.77 161.462L340.353 161.695ZM304.915 120.264C304.073 120.574 303.353 120.68 302.858 121.29L303.078 121.603C303.828 121.289 304.793 121.055 305.125 120.478L304.915 120.264ZM365.568 154.339C365.068 155.056 364.868 155.281 364.555 156.121L364.848 156.555C365.438 155.953 365.65 155.834 365.825 155.004C365.748 154.742 365.72 154.472 365.568 154.339ZM347.638 199.198C346.955 199.571 346.523 199.717 346.115 200.374C346.665 200.415 346.44 200.467 346.81 200.321L348.54 199.619L348.523 199.355L347.638 199.198ZM146.805 106.286C145.999 106.572 144.793 106.874 144.272 107.48L144.465 107.731C145.28 107.438 146.46 107.145 146.98 106.523L146.805 106.286ZM352.82 200.602L352.753 200.296C351.593 200.236 350.675 200.304 349.523 200.369C350.505 201.673 351.365 201.04 352.82 200.602ZM201.139 200.422C200.502 200.97 198.875 202.077 198.524 202.647C198.835 202.744 199.069 202.832 199.389 202.888C199.965 202.375 201.89 200.898 201.924 200.483L201.139 200.422ZM316.068 144.8C315.673 143.864 315.678 143.726 314.888 143.164C314.413 143.075 314.135 143.01 313.658 142.97C314.283 143.6 315.258 144.461 316.068 144.8ZM167.444 84.4295C168.633 84.1487 169.761 83.9622 170.833 83.395L170.533 83.4942L170.617 83.2402C170.196 83.2585 169.888 83.245 169.48 83.3317C168.116 83.5555 167.396 83.6072 166.139 84.243L166.297 84.4832L167.444 84.4295ZM144.911 217.816C146.116 217.024 147.192 216.407 148.147 215.323L148.21 214.88L148.017 214.709C147.316 215.278 144.964 217.036 144.734 217.694L144.911 217.816ZM168.012 90.9362C169.057 90.2877 170.174 89.7292 170.898 88.773L170.608 88.7022L170.765 88.966L170.325 88.8032C169.111 89.4642 168.7 89.7522 167.604 90.5795C166.876 90.9585 165.996 91.3575 165.362 91.847L165.291 92.155L165.157 92.2437C166.554 92.0985 166.737 91.5575 168.012 90.9362ZM139.056 159.745L138.435 160.342L138.601 160.609C139.37 160.575 139.905 160.538 140.667 160.439L141.443 160.044L141.411 159.811C140.658 159.795 139.8 159.799 139.056 159.745ZM334.315 122.483C332.96 122.874 332.748 122.967 331.553 123.713L331.418 124.1L331.61 124.046C332.468 123.763 334.02 123.352 334.648 122.814C334.44 122.489 334.575 122.57 334.315 122.483ZM170.065 204.598C170.982 204.23 172.533 203.713 172.945 202.841L172.554 202.765C171.812 203.129 170.012 203.871 169.644 204.47L170.065 204.598ZM202.48 126.377C203.853 127.089 205.557 126.757 207.117 126.592C205.655 126.012 204.02 126.196 202.48 126.377ZM273.278 119.653L272.065 119.83L271.903 120.078C272.793 120.347 272.765 120.327 273.705 120.286C274.395 120.051 274.865 120.044 275.203 119.569C274.298 119.391 274.153 119.465 273.278 119.653ZM113.845 160.476C112.811 161.041 111.829 161.446 111.119 162.354C111.823 162.599 113.133 161.589 113.752 161.188L113.845 160.476ZM367.335 159.576C366.345 159.748 364.718 159.927 363.918 160.412L364.463 160.674C365.53 160.485 366.958 160.326 367.883 159.846L367.715 159.59L367.335 159.576ZM228.963 96.4957C227.781 97.1077 227.093 97.436 226.017 98.258C225.889 98.7645 225.881 98.561 225.919 98.8612C227.254 98.2082 227.751 98.0132 228.895 96.9992L228.963 96.4957ZM338.57 196.386C339.185 195.008 339.858 194.561 340.978 193.589C340.448 193.334 340.733 193.406 340.115 193.391C339.41 194.072 338.048 195.489 337.973 196.485C338.185 196.463 338.393 196.467 338.57 196.386ZM118.913 194.508C118.15 194.726 117.39 194.84 116.836 195.367C117.689 195.49 117.868 195.427 118.694 195.29C119.549 195.316 119.813 195.485 120.375 195.099C119.872 194.664 119.558 194.655 118.913 194.508ZM109.947 154.152C108.97 154.18 107.316 154.079 106.574 154.496C106.706 154.595 106.824 154.725 106.979 154.779C108.283 154.758 109.118 154.808 110.382 154.415L110.355 154.078L109.947 154.152ZM154.829 156.703C154.048 157.285 153.632 157.582 152.952 158.266L153.062 158.632L153.469 158.782C154.098 158.301 155.36 157.501 155.558 156.831C155.348 156.79 155.03 156.711 154.829 156.703ZM348.628 167.694C349.528 167.216 351.263 166.404 351.893 165.717L351.725 165.466L351.415 165.481C350.655 165.915 348.418 166.995 348.208 167.561L348.628 167.694ZM367.93 149.148C367.168 150.118 366.585 150.719 366.16 151.88C366.215 152.264 366.148 152.302 366.338 152.52C366.908 151.661 368.118 150.214 368.195 149.406L367.93 149.148ZM216.893 121.082C215.707 121.259 214.951 121.281 213.897 121.858L214.264 122.128L214.801 122.026C215.93 121.816 216.804 121.719 217.855 121.246C217.337 120.907 217.628 121.025 216.893 121.082ZM217.286 82.3695C216.727 83.032 216.269 83.4147 216.135 84.257C216.601 84.5857 216.339 84.5187 216.928 84.431L217.979 83.5975L218.032 83.123C217.783 82.8515 217.573 82.578 217.286 82.3695ZM194.046 188.528C195.882 187.356 196.091 186.714 196.871 184.649L196.632 184.202C195.36 186.242 195.634 186.175 193.841 188.256L194.046 188.528ZM101.006 122.697C101.655 123.543 104.25 123.838 105.315 123.667C104.32 123.375 101.767 122.226 101.006 122.697ZM165.871 116.379C166.909 116.87 169.817 117.205 170.916 116.95C169.563 115.971 167.515 116.195 165.871 116.379ZM262.9 160.25C262.078 160.619 260.7 161.086 260.223 161.71C260.77 161.81 260.678 161.836 261.215 161.791C262.165 161.317 263.01 160.919 263.985 160.498L264.013 160.28C263.49 160.235 263.43 160.224 262.9 160.25ZM187.682 188.123L187.663 187.659C186.498 187.639 185.058 187.75 184.064 187.268L183.601 187.439L183.634 187.736C184.744 188.1 186.303 188.429 187.475 188.309L187.682 188.123ZM335.575 128.722C334.855 129.18 334.03 129.594 333.593 130.297C334.275 130.35 334.568 130.123 335.18 129.816C335.968 129.523 336.415 129.48 336.96 128.925C336.303 128.644 336.305 128.694 335.575 128.722ZM233.448 176.373C234.046 176.638 237.69 177.709 238.218 177.525C237.112 176.424 234.94 176.148 233.448 176.373ZM291.603 131.472C290.458 132.147 289.443 132.536 289.038 133.774C289.165 133.782 289.293 133.79 289.42 133.797C290.15 133.093 291.923 132.201 292.15 131.594L291.603 131.472ZM266.123 116.208C267.513 115.164 268.335 114.966 269.978 114.405C269.505 114.109 269.388 114.253 268.685 114.318C267.143 114.763 266.395 115.108 265.24 116.243L265.395 116.496L266.123 116.208ZM237.11 180.191C236.43 180.592 235.447 181.032 235.154 181.694C235.557 182.065 235.342 181.948 235.767 182.095C236.498 181.72 237.445 181.342 237.901 180.711L237.757 180.367L237.11 180.191ZM305.583 131.971C307.11 133.331 308.5 133.82 310.553 133.429C309.57 133.034 306.6 132.002 305.583 131.971ZM315.833 132.23L315.928 132.669C316.933 132.94 318.38 133.379 319.375 133.511L319.693 133.313L319.665 132.868L319.218 132.794C318.493 132.67 316.29 132.047 315.833 132.23ZM304.445 136.998C303.505 137.484 303.158 137.562 302.57 138.392L302.73 138.662L303.48 138.426C304.378 138.125 304.96 137.911 305.82 137.52L305.795 137.222C305.238 137.088 305.013 137.002 304.445 136.998ZM368.763 181.257C367.96 181.89 365.32 183.781 365.138 184.581L365.37 184.812C366.445 183.969 367.935 182.865 368.883 181.939C368.883 181.426 368.988 181.519 368.763 181.257ZM349.608 134.237C348.025 134.801 347.285 135.035 345.828 135.876C345.763 136.217 345.773 136.051 345.79 136.376L346.048 136.163L346.383 136.246L346.558 136.171C347.775 135.627 349.003 135.102 350.235 134.596L350.28 134.338L349.608 134.237ZM260.225 113.053C258.183 113.895 257.498 114.718 255.17 115.482L255.175 115.791C256.743 115.632 259.738 114.687 260.225 113.053ZM352.72 182.241C351.195 183.794 349.08 182.71 347.88 184.375L348.088 184.508C349.108 184.174 352.533 183.328 352.975 182.894L352.943 182.283L352.72 182.241ZM318.908 158.312C317.19 158.69 315.953 159.572 314.603 160.694L314.655 160.987L314.895 161.039C316.173 160.328 317.995 159.38 319.163 158.587L319.088 158.319L318.908 158.312Z" fill="#97918A"/>
<path d="M113.676 134.697C115.194 133.029 115.073 132.701 115.932 130.71C117.477 127.129 120.126 124.109 123.213 121.772C124.631 120.698 127.599 119.564 128.829 121.407C128.751 122.24 128.662 122.6 128.462 123.419C126.615 125.27 123.869 127.937 122.553 130.105C120.575 133.364 117.858 144.987 118.774 148.501C119.937 152.958 125.272 158.072 129.479 159.999C131.34 161.406 133.858 160.874 135.663 161.519C145.65 165.083 151.139 163.7 161.181 160.385C159.191 158.664 157.456 156.332 155.69 154.421C153.392 151.932 156.22 150.552 154.007 148.493C153.658 148.168 154.66 147.154 154.671 146.205C154.519 146.081 153.602 145.311 153.64 145.126C154.198 142.44 155.534 140.556 155.767 137.719C160.38 132.393 165.516 126.477 173.344 128.678C175.797 129.368 178.98 131.447 180.238 133.678C179.928 134.193 179.923 134.18 179.772 134.758C180.191 135.48 181.091 136.74 181.664 137.426C182.061 137.901 181.85 136.97 182.81 137.603C180.535 140.668 181.434 143.467 179.935 146.692C179.398 147.848 179.321 147.227 179.909 148.541C179.124 149.505 177.878 150.971 178.033 152.245C180.687 153.402 194.259 148.291 197.709 146.903C208.243 142.666 218.603 136.097 229.697 133.509C231.856 133.006 234.097 132.174 236.182 131.852C245.875 130.359 255.848 130.32 265.57 131.539C267.328 131.762 269.125 132.612 270.89 132.96C271.065 132.892 272.06 132.512 272.17 132.533C275.428 133.168 284.88 137.361 287.005 139.271L287.83 139.939C288.258 140.847 288.483 141.106 288.385 142.056C287.938 142.721 287.6 142.841 286.91 143.24C286.153 144.452 286.91 145.173 285.023 146.372C283.695 147.215 282.598 147.978 281.088 148.57C280.223 148.281 279.813 147.975 279.128 147.375C276.17 144.789 272.165 143.64 268.56 141.791C267.123 141.063 265.383 140.664 263.81 140.358C254.543 138.463 246.12 138.529 236.833 140.052C233.661 140.572 230.958 141.448 227.588 141.505C226.046 141.531 220.921 144.679 219.125 145.08C217.563 145.694 215.163 145.71 213.847 146.321C213.792 146.549 213.737 146.778 213.683 147.006C206.985 150.373 200.732 153.524 193.826 156.541C189.37 158.486 185.418 159.104 181.359 161.237C178.686 162.318 174.052 161.947 171.522 162.758C168.537 163.716 165.012 166.794 162.126 168.216C159.811 169.357 158.946 171.189 156.47 170.032L155.967 170.22C155.812 170.708 155.728 170.985 155.416 171.393C153.248 172.245 150.096 173.414 147.758 173.129C145.096 172.805 141.304 173.575 138.337 173.417C131.345 173.043 117.542 166.978 113.752 161.189L113.845 160.476C113.787 158.909 113.443 159.035 112.167 158.522L111.801 157.991L111.772 157.13C112.151 156.417 112.449 156.004 112.52 155.197C112.035 154.412 111.36 154.229 110.502 153.823C111.302 151.093 111.909 145.592 111.532 142.777C113.403 140.318 113.49 137.713 113.676 134.697ZM170.451 150.232C172.748 145.088 174.256 142.628 169.224 138.491C167.786 138.28 165.515 137.855 164.157 137.981C160.893 142.81 165.007 149.033 170.064 150.393L170.451 150.232Z" fill="#4B4746"/>
<path d="M139.398 238.386C140.444 238.205 140.108 238.254 141.225 238.647C140.51 238.767 140.327 238.759 139.623 238.761L139.398 238.386ZM339.855 230.446C340.112 230.493 339.978 230.432 340.192 230.731C339.575 232.226 338.822 232.956 337.482 233.812L337.24 233.723C337.203 233.279 339.065 231.474 339.665 230.698L339.855 230.446ZM144.517 226.598C144.177 227.038 142.952 227.346 142.309 227.575L141.708 227.687L141.505 227.522C142.317 226.87 142.704 226.822 143.723 226.491L144.517 226.598ZM349.515 217.327C350.607 217.313 352.163 217.652 352.353 218.88C351.977 219.929 351.037 220.418 350.08 220.881L350.122 220.546L349.76 220.829L349.652 220.8C350.257 219.997 350.427 220.057 351.38 219.595C351.167 218.938 351.177 218.978 350.742 218.437C349.03 217.757 349.277 219.58 347.753 219.894L347.378 219.625C348.515 218.507 347.93 218.3 349.515 217.327ZM336.26 219.024C337.67 219.162 339.128 219.783 340.548 219.43C340.897 219.343 340.835 219.418 341.282 219.6L340.133 220.038C338.458 220.676 337.522 220.218 336.26 219.024ZM183.595 214.818C183.701 215.591 183.131 216.095 182.603 216.686C182.028 217.405 182.002 218.153 181.227 218.699C179.967 219.587 178.234 219.039 176.729 219.241C175.481 219.409 174.144 220.031 172.946 219.854L172.866 219.511C174.025 218.167 177.515 218.696 179.119 218.454C179.91 218.335 180.391 216.879 180.845 216.448L181.142 217.102L180.846 216.448C181.669 215.565 182.302 214.758 183.595 214.818ZM148.209 214.88L148.146 215.323C147.192 216.407 146.116 217.024 144.911 217.816L144.733 217.694C144.963 217.036 147.316 215.278 148.017 214.709L148.209 214.88ZM171.904 213.552C172.501 214.443 172.431 213.992 172.285 214.92C171.559 215.852 171.204 215.883 170.054 216.347C169.837 216.459 169.999 216.389 169.529 216.426C169.565 215.313 170.755 214.214 171.538 213.387L171.904 213.552ZM190.919 211.099C191.7 211.053 192.22 210.923 192.874 211.317L192.486 211.211L192.622 211.33L192.615 212.089C192.246 212.458 191.12 212.878 190.571 213.119C190.144 213.175 189.895 213.457 189.506 213.747C188.872 213.607 189.175 213.72 188.649 213.243L188.78 212.623C189.548 211.633 189.726 211.629 190.919 211.099ZM354.633 206.629C352.923 209.41 350.757 208.727 348.662 211.863L348.245 211.908L348.083 211.617C349.038 209.796 352.14 207.015 354.103 206.658L354.633 206.629ZM192.95 211.448L192.986 211.649L192.622 211.33L192.623 211.258L192.95 211.448ZM213.914 198.241C215.465 198.63 215.905 198.74 217.489 198.814C217.377 199.335 217.308 199.847 217.228 200.374C216.048 200.459 215.916 199.961 214.286 200.478C212.187 201.144 209.239 200.939 207.452 202.392L207.491 202.811C208.471 203.41 208.964 203.443 210.091 203.684L210.17 204.078L209.835 204.28C208.443 203.878 207.058 202.838 206.082 202.894C205.779 203.442 205.841 203.477 205.844 204.121C205.409 204.661 205.515 205.311 205.504 205.989C205.039 206.703 205.355 206.473 204.506 206.681C202.826 206.352 202.28 205.399 201.49 204.884C201.021 204.578 199.1 206.361 197.73 205.897C197.485 206.024 196.869 206.319 196.673 206.454V206.455C195.696 207.075 195.875 207.187 195.133 207.927C194.322 207.749 194.274 207.637 193.509 207.808L193.775 208.125L193.968 208.189L193.857 208.62C193.219 208.999 191.351 208.584 190.56 208.416L190.457 208.118C191.484 207.464 193.139 206.892 194.331 206.653L194.574 206.553C195.836 205.997 197.791 204.701 199.261 204.029L199.657 204.327L199.261 204.028C200.78 204.079 200.538 204.983 202.96 203.81C204.027 202.975 204.464 202.547 205.73 202.025L206.426 201.695C207.178 201.341 208.032 200.909 208.385 200.384L208.317 199.6C209.654 199.149 211.743 199.411 213.354 198.441C213.361 198.437 213.909 198.243 213.914 198.241ZM339.505 207.048C339.912 206.954 339.698 206.952 340.15 207.101C339.595 207.756 338.75 208.1 337.97 208.503L337.308 207.993L337.34 207.655C338.102 207.375 338.713 207.24 339.505 207.048ZM185.928 205.864L186.094 206.12C185.605 206.445 182.065 206.886 181.074 207.073C181.018 207.166 180.691 207.458 180.598 207.547L180.289 207.441L180.278 206.958C180.827 206.425 183.613 206.167 184.826 205.863L185.117 205.788L185.928 205.864ZM336.46 205.549C336.145 206.224 335.67 206.304 334.88 206.771L334.617 206.565C334.912 205.843 335.393 205.724 336.173 205.185L336.46 205.549ZM194.875 201.365C195.272 201.447 195.076 201.364 195.448 201.653C194.427 203.947 193.998 204.598 191.568 205.049L191.153 204.813C191.635 204.323 192.622 204.157 193.379 203.928C193.89 202.807 194.174 202.389 194.875 201.365ZM172.945 202.842C172.532 203.714 170.982 204.23 170.065 204.598L169.644 204.47C170.012 203.871 171.813 203.13 172.555 202.766L172.945 202.842ZM361.375 202.152C360.887 202.903 360.022 203.115 359.09 203.566C358.858 203.395 358.995 203.519 358.745 203.129C359.17 202.608 360.513 202.287 361.223 202.052L361.375 202.152ZM201.924 200.483C201.888 200.899 199.965 202.375 199.389 202.888C199.068 202.832 198.835 202.744 198.523 202.647C198.874 202.077 200.502 200.97 201.139 200.422L201.924 200.483ZM338.857 200.664C339.17 200.682 339.285 200.754 339.593 200.857C339.428 201.387 338.448 201.905 337.878 202.302L337.458 202.583L337.288 202.432C337.706 201.693 338.248 201.253 338.857 200.664ZM349.522 200.369C350.675 200.304 351.593 200.236 352.753 200.296L352.82 200.603C351.365 201.041 350.505 201.673 349.522 200.369ZM208.666 197.341L208.759 197.548C207.241 198.465 206.409 198.906 205.215 200.213L204.987 200.466L204.345 200.438L204.176 200.236C205.011 198.977 206.461 197.71 207.887 197.175L208.666 197.341ZM348.522 199.355L348.54 199.619L346.81 200.321C346.44 200.468 346.665 200.415 346.115 200.374C346.523 199.717 346.955 199.571 347.638 199.198L348.522 199.355ZM217.569 198.819C217.542 198.818 217.516 198.816 217.489 198.814C217.492 198.803 217.495 198.792 217.497 198.78L217.569 198.819ZM362.968 197.802C363.72 197.244 364.358 197.388 365.325 197.405C365.965 197.406 365.668 197.345 366.208 197.681C365.358 197.773 364.645 197.875 363.803 198.021C363.48 198.174 363.462 198.11 363.05 198.104L362.968 197.802ZM354.572 196.527C355.152 196.383 354.893 196.341 355.362 196.58C354.515 197.214 353.828 197.388 352.843 197.74C352.34 197.676 352.572 197.77 352.152 197.436C353.037 196.978 353.615 196.828 354.572 196.527ZM193.113 195.761C194.41 195.867 194.566 195.832 195.713 196.367L195.549 196.621L195.127 196.533C193.99 196.457 193.749 196.602 192.751 197.144C192.916 196.686 193.028 196.239 193.113 195.761ZM223.726 192.111C225.772 191.054 228.281 190.95 230.419 191.849C228.665 192.548 227.395 192.431 225.74 192.865C224.613 193.162 224.594 193.86 223.211 193.948L222.916 193.958L222.75 193.98C222.573 194.002 222.426 194.026 222.294 194.045C222.426 194.026 222.573 194.002 222.75 193.98C222.49 194.773 222.306 195.589 221.578 195.996C219.91 196.929 217.797 197.139 216.003 196.663L215.986 196.378C217.006 195.495 219.909 193.79 221.18 193.354L223.726 192.111ZM340.115 193.392C340.732 193.406 340.448 193.334 340.978 193.59C339.858 194.561 339.185 195.009 338.57 196.387C338.393 196.467 338.185 196.463 337.973 196.485C338.048 195.49 339.41 194.072 340.115 193.392ZM202.723 195.303C203.549 195.232 204.694 195.144 205.422 195.492L205.001 195.699C204.174 195.834 203.211 196.077 202.43 195.885L202.723 195.303ZM118.913 194.508C119.558 194.655 119.871 194.665 120.375 195.099C119.813 195.485 119.549 195.316 118.694 195.291C117.868 195.427 117.689 195.491 116.836 195.367C117.39 194.84 118.15 194.726 118.913 194.508ZM213.271 192.447L213.316 192.774L211.979 194.254C211.661 194.168 211.68 194.125 211.393 193.912C211.712 193.141 212.118 193.034 212.887 192.429L213.271 192.447ZM367.667 191.603C367.202 192.267 366.143 192.671 365.343 193.09L364.867 192.711L364.933 192.407L367.312 191.489L367.667 191.603ZM338.925 191.83C338.31 192.403 337.19 192.693 336.36 192.985C336.188 192.862 336.29 192.959 336.17 192.613C336.92 191.998 337.777 191.823 338.72 191.522L338.925 191.83ZM109.573 188.077C110.712 187.965 112.483 187.747 113.336 188.494C111.94 188.93 110.899 188.64 109.573 188.077ZM196.871 184.648C196.091 186.714 195.882 187.356 194.046 188.528L193.841 188.256C195.634 186.175 195.36 186.242 196.632 184.202L196.871 184.648ZM184.064 187.269C185.059 187.75 186.498 187.639 187.662 187.659L187.682 188.123L187.475 188.309C186.303 188.429 184.744 188.1 183.634 187.736L183.602 187.438L184.064 187.269ZM354.498 186.371L355.673 186.516L355.925 186.84C355.271 187.206 354.948 187.24 354.302 187.053L354.003 186.959L353.713 186.924C353.155 186.843 353.356 186.783 352.73 187.077H352.729L350.617 187.927C349.748 187.532 349.178 187.602 348.266 187.094L348.521 186.808C349.998 186.346 351.913 186.272 353.478 185.906C353.878 186.088 354.218 186.244 354.498 186.371ZM225.21 185.56C225.336 185.703 225.259 185.591 225.272 185.96C224.457 186.479 218.614 187.101 216.37 187.667L216.472 187.136C218.954 185.153 222.259 186.647 225.21 185.56ZM365.593 186.367C366.783 186.191 368.132 186.083 369.22 186.626C367.96 186.797 366.7 187.008 365.593 186.367ZM351.438 186.695H351.438H351.438ZM368.763 181.257C368.988 181.519 368.883 181.427 368.883 181.939C367.935 182.865 366.445 183.97 365.37 184.812L365.138 184.582C365.32 183.782 367.96 181.89 368.763 181.257ZM352.942 182.283L352.975 182.895C352.531 183.329 349.107 184.174 348.087 184.508L347.88 184.375C349.08 182.71 351.195 183.794 352.72 182.241L352.942 182.283ZM334.54 181.499C335.563 181.57 337.71 182.27 338.605 182.84C338.16 183.419 337.915 183.278 336.97 183.474C335.745 183.764 333.626 183.79 332.788 182.733C333.223 181.932 333.525 182.009 334.54 181.499ZM237.757 180.366L237.901 180.711C237.445 181.342 236.497 181.72 235.767 182.095C235.342 181.949 235.557 182.065 235.154 181.694C235.447 181.033 236.43 180.591 237.11 180.19L237.757 180.366ZM207.955 181.104C208.594 181.039 208.378 181.015 208.967 181.203C208.445 181.669 207.787 181.649 207.059 181.747C206.483 181.785 206.515 181.81 206.002 181.56C206.568 181.152 207.234 181.179 207.955 181.104ZM273.107 171.511C273.832 171.514 273.792 171.484 274.38 171.9C274.575 172.734 274.565 172.796 274.973 173.586C275.855 174.118 276.18 173.956 277.3 173.999C276.462 174.168 276.02 174.159 275.397 174.258C270.045 175.112 262.972 177.897 258.462 180.566C258.902 179.771 259.252 179.402 259.84 178.699L259.59 178.47C257.685 178.324 257.807 178.464 256.002 178.759L255.817 178.605C258.027 176.851 258.827 177.929 260.84 178.316C261.497 178.443 264.282 175.838 264.987 175.582C264.987 175.582 266.523 175.703 266.678 175.715C267.598 174.983 267.218 173.989 268.3 172.84C268.892 172.56 269.108 172.506 269.798 172.636C271.587 172.972 271.64 172.505 273.107 171.511ZM141.267 179.602C142.36 179.439 142.549 179.387 143.627 179.498L143.812 179.823C142.554 180.135 142.26 180.449 141.267 179.602ZM209.878 174.526C210.382 174.653 210.157 174.535 210.551 174.883C210.103 175.596 207.839 177.201 206.992 177.913C206.527 177.752 206.718 177.884 206.409 177.533C207.906 176.501 208.387 176.17 209.61 174.824L209.878 174.526ZM354.055 174.978L354.122 175.306L351.438 177.76L351.065 177.628C351.421 176.63 352.852 175.401 353.787 174.883L354.055 174.978ZM233.447 176.373C234.94 176.148 237.112 176.424 238.219 177.525C237.691 177.709 234.045 176.638 233.447 176.373ZM248.712 169.75C251.418 169.403 252.775 171.305 255.59 170.579L255.945 170.807L255.67 171.093C254.625 171.269 250.88 172.817 250.282 173.537C250.635 173.8 250.96 173.937 251.357 174.12C250.362 174.866 250.065 173.864 248.904 174.765L249.038 175.07C249.764 175.21 249.937 175.263 250.575 175.636C251.3 175.762 251.8 175.769 252.372 176.221C250.57 177.243 248.898 175.416 247.3 174.826L247.149 174.376C248.246 173.499 248.33 174.641 249.42 173.523L249.265 173.172C248.56 173.052 248.174 173.008 247.492 172.753C247.752 172.2 248.017 172.178 248.622 171.778C249.67 172.436 250.382 172.642 251.3 171.72C250.775 170.867 250.147 170.764 249.2 170.565L248.712 169.75ZM125.077 174.926C125.33 175.009 125.164 174.938 125.521 175.243C125.114 175.762 124.271 175.898 123.586 176.108L123.281 176.083C123.63 175.514 124.433 175.242 125.077 174.926ZM350.202 174.279L350.32 174.485C349.313 174.842 348.715 175.104 347.75 175.57C347.185 175.742 347.39 175.734 346.798 175.59C347.463 174.958 348.352 174.632 349.197 174.244L350.202 174.279ZM220.094 173.188L220.071 173.774C219.568 174.36 219.025 174.491 218.302 174.785C218.068 174.596 218.162 174.725 218.081 174.358C218.668 174.005 219.042 173.784 219.566 173.331L219.919 173.021L220.094 173.188ZM319.275 172.253C320.35 172.623 321.35 172.95 321.838 174.033C320.798 173.682 319.611 173.331 319.275 172.253ZM297.008 171.138C297.848 171.365 298.622 171.429 299.1 172.089C298.907 172.978 298.887 172.746 297.982 173.483C297.07 173.32 296.92 173.314 296.098 172.927L296.053 172.604C296.49 172.089 296.778 171.793 297.008 171.138ZM113.7 171.236C114.523 171.417 114.227 171.194 114.725 171.741C113.893 172.663 111.933 172.749 110.738 172.799L110.259 172.874L110.163 172.63C111.291 171.956 112.449 171.649 113.7 171.236ZM263.03 168.272L262.365 168.373L262.095 168.776C262.757 170.074 265.298 170.83 265.918 171.926C264.753 173 260.74 171.336 259.138 171.458C258.028 171.543 256.876 172.83 256.078 172.767C256.353 172.091 256.635 171.98 256.75 171.292L256.53 170.996C256.625 170.6 256.685 170.501 256.843 170.124C258.17 169.072 259.616 168.563 261.23 168.15L261.442 168.125C262.377 168.008 262.528 167.955 263.41 167.644L263.03 168.272ZM208.678 171.404C208.164 171.93 206.617 172.381 205.822 172.677C205.398 172.507 205.543 172.652 205.366 172.261C206.036 171.744 207.405 171.579 208.294 171.399L208.678 171.404ZM305.805 171.246C306.03 171.297 305.882 171.248 306.197 171.496C305.697 172.048 304.975 172.227 304.235 172.525L303.873 172.226C304.31 171.668 305.047 171.535 305.805 171.246ZM231.844 171.271C232.778 171.447 233.296 171.605 234.082 172.098L233.689 172.169L231.597 172.089L231.336 171.796L231.844 171.271ZM186.024 169.499L185.99 169.83L184.413 171.024L184.074 171.114L183.87 170.877C184.403 170.102 184.767 169.943 185.567 169.402L186.024 169.499ZM120.102 168.429C120.514 168.572 120.339 168.441 120.593 168.867C120.096 169.426 119.133 169.675 118.39 169.947L118.127 169.861C118.48 169.177 119.323 168.877 120.102 168.429ZM360.305 168.492C359.872 169.001 359.113 169.233 358.45 169.526L357.723 169.617L357.49 169.388C358.272 168.622 358.043 168.858 359.225 168.528C359.71 168.448 359.807 168.479 360.305 168.492ZM219.137 168.563C220.022 168.422 221.987 168.316 222.693 168.879L222.376 169.191C220.903 169.068 220.551 168.997 219.137 168.563ZM96.1865 165.731C96.5633 165.676 96.3502 165.676 96.8252 165.793C96.4667 166.544 95.3593 167.227 94.6445 167.758L94.0908 167.855L94.1123 167.439C94.8693 166.446 95.0803 166.393 96.1865 165.731ZM237.887 159.554C238.155 161.099 235.081 163.828 234.853 165.335C234.813 165.594 234.746 166.478 234.696 166.857C233.996 167.511 233.274 167.59 232.329 167.84C232.016 167.696 232.177 167.806 231.896 167.447C235 167.02 235.678 162.017 237.249 159.337L237.887 159.554ZM306.808 166.362C306.583 166.939 305.742 167.302 305.107 167.703L304.575 167.572C304.938 166.837 305.378 166.706 306.133 166.188L306.808 166.362ZM351.893 165.718C351.262 166.405 349.528 167.216 348.628 167.694L348.208 167.562C348.418 166.996 350.655 165.916 351.415 165.481L351.725 165.467L351.893 165.718ZM335.303 163.9C337.66 163.518 338.328 163.897 340.58 164.605L340.485 164.997L340.268 165.312C339.098 164.776 338.827 164.597 337.59 164.397C336.37 164.483 335.957 164.451 334.99 165.152L333.197 166.464L332.955 166.354C333.128 165.577 333.348 164.813 333.561 164.045C334.22 164.019 334.658 163.976 335.303 163.9ZM241.804 165.206C242.4 165.209 242.294 165.221 242.887 165.366C242.428 165.835 241.546 165.985 240.845 166.193C240.329 166.458 240.585 166.432 240.088 166.344C240.616 165.634 240.994 165.559 241.804 165.206ZM211.015 165.302C211.797 165.233 212.345 165.086 213.028 165.435C212.5 165.886 211.802 165.815 211.062 165.863C210.386 166.042 210.334 166.128 209.673 165.979C210.143 165.401 210.153 165.555 211.015 165.302ZM290.103 161.039C290.97 161.036 292.028 160.989 292.57 161.711C292.272 162.215 290.483 163.681 290.245 163.632C287.28 163.018 283.897 164.261 281.312 165.302C281.967 164.595 283.783 163.752 284.66 163.379L284.772 163.155C285.505 162.908 286.555 162.813 287.345 162.708L287.138 162.424C286.033 162.227 286.505 162.117 285.64 162.598C284.497 162.58 280.324 162.638 279.538 162.32C282.083 162.494 287.89 162.071 290.103 161.039ZM349.5 162.726C349.65 162.728 350.05 162.825 350.215 162.86C350.015 163.393 348.988 163.771 348.348 164.111L347.86 164.188C348.108 163.58 348.883 163.178 349.5 162.726ZM271.405 158.93C271.78 159.388 271.627 159.129 271.645 159.889C270.315 161.625 268.635 160.386 267.63 161.069C266.278 161.988 267.915 162.113 265.008 163.014C264.595 162.803 264.742 162.964 264.572 162.525C266.485 159.532 268.525 161.337 271.405 158.93ZM251.298 160.202C251.803 161.501 250.648 160.315 251.348 161.824C252.395 162.244 253.842 162.283 255.002 162.39L255.088 162.703C253.578 162.803 251.287 163.114 250.295 161.841C250.43 160.834 250.44 161.109 251.298 160.202ZM340.771 161.462C341.648 161.653 341.86 161.94 342.535 162.525C341.778 162.56 340.858 162.277 340.353 161.695L340.771 161.462ZM195.915 160.457C196.051 160.492 196.231 160.692 196.359 160.809C195.95 161.377 195.096 161.813 194.559 162.166C193.803 162.307 193.121 162.569 192.56 162.266C193.142 161.685 193.798 161.598 194.605 161.363L195.915 160.457ZM113.752 161.188C113.133 161.589 111.823 162.599 111.119 162.354C111.829 161.447 112.811 161.041 113.845 160.477L113.752 161.188ZM262.9 160.25C263.43 160.225 263.49 160.235 264.013 160.279L263.985 160.498C263.01 160.919 262.165 161.318 261.215 161.791C260.677 161.836 260.77 161.81 260.223 161.71C260.7 161.086 262.078 160.619 262.9 160.25ZM361.195 156.874C360.893 158.184 358.62 159.054 357.215 160.26L357.01 160.442C355.063 160.698 354.582 160.918 352.845 161.691C352.658 161.039 352.799 160.808 352.753 160.817C355.21 160.256 359.453 158.515 360.985 156.494L361.195 156.874ZM319.088 158.319L319.162 158.588C317.995 159.381 316.173 160.329 314.896 161.039L314.655 160.986L314.603 160.693C315.952 159.572 317.19 158.691 318.907 158.312L319.088 158.319ZM196.361 160.811L196.359 160.809C196.362 160.806 196.363 160.802 196.365 160.799L196.361 160.811ZM196.587 160.268C196.565 160.457 196.483 160.633 196.365 160.799L196.587 160.268ZM367.715 159.59L367.883 159.846C366.958 160.326 365.53 160.485 364.463 160.674L363.918 160.412C364.718 159.927 366.345 159.748 367.335 159.576L367.715 159.59ZM139.056 159.746C139.799 159.799 140.658 159.796 141.411 159.812L141.442 160.045L140.667 160.439C139.905 160.539 139.369 160.575 138.601 160.609L138.436 160.343L139.056 159.746ZM112.167 158.521C111.051 159.333 110.248 160.242 109.044 160.566L109.274 160.479L109.201 159.9C109.813 159.135 110.938 158.442 111.801 157.99L112.167 158.521ZM222.235 158.518C222.597 158.446 222.383 158.46 222.879 158.561C222.44 159.073 221.249 159.517 220.585 159.82L219.982 159.659C220.35 159.1 221.478 158.82 222.235 158.518ZM293.2 157.619C293.815 157.985 294.163 158.49 294.745 158.923C296.08 159.915 297.228 159.031 298.758 159.027L299.275 159.734C297.18 159.27 294.405 160.65 292.902 158.556L293.2 157.619ZM154.828 156.704C155.029 156.712 155.348 156.79 155.558 156.831C155.36 157.501 154.098 158.301 153.469 158.782L153.062 158.633L152.952 158.266C153.631 157.582 154.048 157.286 154.828 156.704ZM143.769 156.439L143.848 156.733C143.167 157.438 142.656 157.805 141.875 158.406L141.77 158.62L141.575 158.444C142.088 157.304 142.269 157.185 143.241 156.378L143.769 156.439ZM286.43 152.869C286.707 152.588 287.34 152.027 287.755 152.191C289.88 153.034 291.06 151.553 292.82 153.24C292.74 154.724 290.912 154.308 290.647 156.46C289.607 156.885 288.567 157.305 287.522 157.717L287.088 157.199C287.661 156.635 289.347 156.377 290.367 155.824C291.387 152.859 288.81 152.539 286.615 153.034L286.43 152.869ZM344.837 156.4L344.772 156.674L343.064 157.146C342.758 157.219 342.945 157.203 342.505 157.099C343.037 156.573 343.625 156.444 344.34 156.186L344.837 156.4ZM273.05 155.586C273.892 155.503 274.535 155.716 275.1 156.326C274.42 156.662 274.472 156.517 273.562 156.407C272.723 156.579 271.615 156.927 270.987 156.253C271.54 155.703 272.24 155.715 273.05 155.586ZM365.567 154.34C365.72 154.473 365.748 154.742 365.825 155.004C365.65 155.834 365.437 155.953 364.848 156.555L364.555 156.121C364.867 155.282 365.068 155.056 365.567 154.34ZM298.785 154.381C301.158 153.982 305.065 151.643 306.175 152.064C306.094 152.258 304.352 153.888 303.703 154.441L303.5 154.605L302.761 155.234C302.508 155.444 302.25 155.644 301.992 155.803C301.8 155.86 301.362 155.907 301.147 155.938C299.388 155.054 297.69 154.911 295.713 154.418L295.86 154.276C297.067 154.146 297.235 154.165 298.423 154.439L298.785 154.381ZM318.332 154.585C316.877 155.682 314.897 155.343 313.31 154.802L312.875 154.672C313.032 154.595 316.314 154.58 317.685 154.298L318.253 154.276L318.332 154.585ZM265.893 152.757C266.79 152.804 266.56 152.623 267.107 153.034C266.602 153.596 265.062 153.987 263.965 154.659L263.748 154.795C263.211 155.032 263.492 154.983 262.902 154.944C263.2 154.19 265.162 153.137 265.893 152.757ZM110.382 154.415C109.118 154.808 108.282 154.758 106.979 154.779C106.823 154.725 106.706 154.595 106.574 154.496C107.316 154.08 108.97 154.18 109.947 154.152L110.354 154.078L110.382 154.415ZM278.843 149.394L279.027 149.631C277.755 151.65 276.847 152.379 274.555 152.778L273.838 152.649C274.041 152.012 275.476 152.312 276.673 151.472C277.273 150.378 277.345 150.065 278.308 149.348L278.843 149.394ZM368.195 149.406C368.118 150.214 366.908 151.662 366.338 152.521C366.148 152.303 366.215 152.264 366.16 151.88C366.585 150.719 367.167 150.118 367.93 149.147L368.195 149.406ZM253.463 147.136C253.725 147.287 253.605 147.18 253.795 147.486C252.502 149.008 251.805 150.552 251.115 152.397L250.663 152.136C250.683 150.432 252.19 148.182 253.463 147.136ZM233.202 150.78C232.862 151.382 231.817 151.733 231.125 152.051L230.916 151.877C231.246 151.305 232.205 150.864 232.858 150.465L233.202 150.78ZM261.545 150.519C263.12 150.401 263.573 150.401 264.445 151.774C263.08 151.632 262.705 151.24 261.545 150.519ZM355.103 150.362C356.852 150.111 361.474 150.46 362.81 151.688C361.891 151.663 355.818 150.661 355.103 150.362ZM347.308 145.592C345.75 146.755 343.883 147.912 342.463 149.029C341.897 149.672 340.876 150.918 340.031 151.259C339.862 151.388 339.7 151.51 339.516 151.645C339.806 150.946 341.318 149.175 341.955 148.279C342.833 147.221 345.92 146.117 347.308 145.592ZM373.93 148.529C374.637 148.536 374.63 148.531 375.31 148.726L375.41 149.056C374.673 149.733 373.575 150.071 372.617 150.458C371.898 150.861 372.242 150.848 371.575 150.735L371.482 150.497C372.34 149.41 372.775 149.218 373.93 148.529ZM265.47 149.286C267.265 149.066 268.956 150.241 270.833 149.896C271.35 149.801 271.475 149.78 271.955 149.866L271.622 150.574C270.045 150.712 266.775 150.414 265.343 149.811L265.47 149.286ZM164.157 137.98C165.515 137.855 167.786 138.279 169.224 138.49C174.256 142.627 172.748 145.087 170.451 150.231L170.064 150.393C165.008 149.032 160.893 142.81 164.157 137.98ZM227.127 148.525C226.76 149.167 226.048 149.347 225.328 149.665L225.096 149.3C225.623 148.646 226.05 148.652 226.958 148.281L227.127 148.525ZM107.629 144.582L107.536 144.978C105.467 147.035 103.933 147.444 101.375 148.715L101.24 148.689L101.089 148.424C101.33 148.152 107.002 144.571 107.337 144.448L107.629 144.582ZM328.332 148.107C327.365 148.286 326.518 148.653 325.65 148.327C326.28 147.731 326.338 147.879 327.32 147.636L328.332 148.107ZM327.32 147.635C328.363 147.375 330.145 146.799 331.085 146.923C330.543 147.56 329.146 147.882 328.333 148.107L327.32 147.635ZM357.575 145.389C358.173 145.296 360.267 145.085 360.755 145.326C359.352 145.879 357.71 145.931 356.192 146.075C355.735 146.142 355.275 146.2 354.815 146.247C354.173 146.307 354.418 146.435 354.008 146.098C354.895 145.795 355.315 145.631 356.242 145.533L357.575 145.389ZM313.657 142.97C314.135 143.01 314.413 143.075 314.888 143.164C315.677 143.726 315.672 143.865 316.067 144.801C315.257 144.462 314.282 143.6 313.657 142.97ZM333.815 138.882L333.772 139.202C331.702 140.605 331.115 141.064 329.405 142.895C328.95 142.163 329.03 142.066 329.045 141.21C329.882 139.774 332.003 139.629 333.623 138.763L333.815 138.882ZM263.81 140.358C265.382 140.664 267.122 141.063 268.56 141.791C267.334 142.074 263.052 142.932 262.05 142.805L261.88 142.396C262.405 141.155 263.007 141.507 263.81 140.358ZM166.339 142.252L166.34 142.253L166.339 142.252ZM147.221 138.952C146.739 139.305 142.896 140.1 141.608 140.522L141.407 140.177C141.933 139.613 145.945 138.795 146.986 138.531L147.221 138.952ZM343.305 138.408C344.52 138.177 344.923 138.103 346.027 138.662C346.28 139.292 346.275 138.978 345.995 139.634C345.793 139.545 345.587 139.457 345.38 139.37C343.32 138.504 343.4 138.8 341.107 139.728C340.34 140.155 339.832 140.47 339.072 140.291L339.01 140.427L339.018 140.197C340.317 139.135 341.655 138.622 343.305 138.408ZM289.885 136.782C290.025 137.5 290.035 137.459 289.907 138.174C289.05 139.117 288.645 139.159 287.83 139.938L287.005 139.271C288.715 138.282 288.772 138.397 289.885 136.782ZM128.856 137.851L128.838 138.159L127.351 139.2L126.89 139.212C127.122 138.463 127.471 138.339 128.124 137.71L128.856 137.851ZM192.705 138.132C193.482 137.352 194.203 137.283 195.143 137.438L195.56 137.516L195.891 137.608C196.63 137.781 197.159 137.66 198.006 137.572L198.084 137.778C197.246 138.376 193.745 139.149 192.74 138.876C192.603 138.49 192.659 138.587 192.705 138.132ZM304.445 136.998C305.013 137.002 305.238 137.088 305.795 137.222L305.82 137.521C304.96 137.911 304.378 138.126 303.48 138.427L302.73 138.662L302.57 138.393C303.158 137.563 303.505 137.484 304.445 136.998ZM350.28 134.338L350.235 134.596C349.003 135.102 347.775 135.628 346.558 136.172L346.383 136.246L346.048 136.163L345.79 136.376C345.773 136.051 345.762 136.217 345.827 135.876C347.285 135.035 348.025 134.801 349.607 134.237L350.28 134.338ZM286.487 134.89C286.987 134.922 287.378 134.966 287.875 135.022L287.99 135.324L287.572 135.951C286.8 135.846 286.492 135.956 286.062 135.522L286.487 134.89ZM207.258 134.398C206.96 135.014 205.994 135.536 205.373 135.949L204.826 135.637C205.106 135.118 206.282 134.655 206.925 134.32L207.258 134.398ZM341.715 132.754C342.232 132.66 341.993 132.618 342.445 132.875C341.933 133.529 340.802 134.056 340.04 134.484C336.903 133.715 336.62 133.928 333.348 134.409L333.085 134.653L332.745 134.639L332.857 134.001C334.612 132.63 338.782 134.382 341.715 132.754ZM292.15 131.594C291.923 132.2 290.15 133.093 289.42 133.798C289.293 133.79 289.165 133.782 289.038 133.774C289.443 132.536 290.458 132.146 291.603 131.472L292.15 131.594ZM305.583 131.972C306.601 132.003 309.57 133.034 310.553 133.429C308.5 133.819 307.11 133.332 305.583 131.972ZM315.833 132.23C316.291 132.047 318.493 132.67 319.218 132.794L319.665 132.867L319.692 133.312L319.375 133.511C318.38 133.378 316.933 132.94 315.928 132.669L315.833 132.23ZM191.854 132.393C192.932 132.234 193.617 132.069 194.605 132.447C193.422 132.846 192.97 132.995 191.854 132.393ZM230.705 126.298C230.624 126.776 227.226 129.114 226.562 129.609C226.376 130.423 225.969 131.353 225.657 132.143L225.25 132.129C224.955 131.558 225.292 130.416 225.427 129.702L230.188 126.129L230.705 126.298ZM220.88 126.003C220.626 126.54 220.886 126.132 220.409 126.562C217.461 129.219 219.914 130.345 216.63 130.329L215.894 130.311C213.532 130.893 210.568 131.776 208.239 132.088C209.896 131.298 212.938 130.333 214.76 129.696L215 129.65C217.461 129.098 219.196 126.055 220.88 126.003ZM350.957 130.619C349.552 131.329 348.23 131.44 346.69 131.566C345.708 131.705 345.203 131.856 344.253 131.646C345.173 130.812 347.432 130.724 348.685 130.625C349.535 130.496 349.968 130.501 350.838 130.498L350.957 130.619ZM335.575 128.722C336.305 128.694 336.303 128.644 336.96 128.925C336.415 129.48 335.967 129.524 335.18 129.816C334.568 130.123 334.275 130.351 333.593 130.298C334.03 129.595 334.855 129.18 335.575 128.722ZM302 127.061C302.272 127.141 302.095 127.071 302.479 127.383C301.925 127.823 301.274 127.797 300.542 127.882L300.16 127.46C300.658 127.046 301.21 127.142 302 127.061ZM232.571 126.621C233.515 126.451 233.884 126.3 234.779 126.539L234.783 126.821C234.002 127.013 233.485 127.209 232.688 127.101L232.571 126.621ZM202.479 126.377C204.02 126.196 205.655 126.013 207.117 126.593C205.558 126.757 203.853 127.089 202.479 126.377ZM228.405 122.659C228.834 121.627 231.368 121.695 232.305 121.775L232.271 121.995C231.588 122.259 230.936 122.498 230.271 122.803C229.361 123.987 228.94 124.789 227.446 125.161C227.833 124.307 228.543 124.261 229.005 123.188L228.405 122.659ZM334.315 122.483C334.575 122.57 334.44 122.489 334.647 122.813C334.02 123.352 332.468 123.763 331.61 124.046L331.418 124.101L331.553 123.714C332.748 122.967 332.96 122.874 334.315 122.483ZM346.1 120.829C347.08 120.474 348.145 120.765 349.197 120.936L349.338 121.134C347.813 121.191 347.025 121.161 345.8 122.054L345.833 122.431C346.895 122.735 347.251 122.049 348.815 121.879L348.973 122.091L348.662 122.492C347.71 122.791 347.615 122.876 346.753 123.436L346.518 123.59C344.608 123.341 344.105 124.234 340.925 123.941C341.09 123.49 342.443 123.482 343.4 122.71C343.4 121.836 343.24 121.951 342.548 121.065L342.867 121.022L343.825 121.926C344.67 121.594 345.295 121.251 346.1 120.829ZM101.006 122.697C101.767 122.227 104.32 123.375 105.314 123.667C104.25 123.838 101.655 123.543 101.006 122.697ZM255.772 121.759C255.365 122.601 254.558 122.994 253.763 123.524L253.683 123.328C253.873 122.608 254.988 121.771 255.601 121.22L255.772 121.759ZM211.203 121.529C210.738 122.167 209.647 122.517 208.878 122.854L208.669 122.629C209.003 122.024 210.206 121.561 210.887 121.22L211.203 121.529ZM141.562 122.364C142.796 122.13 143.25 122.162 144.357 122.634C143.162 122.807 142.593 122.901 141.562 122.364ZM240.546 118.78C241.417 118.807 241.957 118.74 242.725 119.149C242.111 119.517 241.352 119.377 240.532 119.377C238.755 120.34 237.188 121.176 235.356 122.023C234.662 122.452 234.481 122.657 233.673 122.577L233.514 122.29C234.574 121 238.116 120.19 240.213 118.975L240.546 118.78ZM216.893 121.082C217.628 121.026 217.337 120.908 217.854 121.246C216.804 121.719 215.93 121.816 214.801 122.025L214.264 122.128L213.896 121.858C214.95 121.281 215.706 121.259 216.893 121.082ZM305.125 120.478C304.792 121.055 303.827 121.288 303.077 121.603L302.857 121.29C303.352 120.68 304.073 120.574 304.915 120.264L305.125 120.478ZM273.277 119.653C274.152 119.465 274.298 119.391 275.202 119.569C274.865 120.044 274.395 120.052 273.705 120.286C272.765 120.328 272.792 120.347 271.902 120.078L272.065 119.831L273.277 119.653ZM103.493 119.594C103.22 119.692 102.922 119.713 102.624 119.758L102.299 119.389L103.126 119.252L103.493 119.594ZM318.896 118.492C319.565 118.474 319.605 118.491 320.265 118.627C319.687 119.155 318.857 119.293 318.055 119.538C317.465 119.764 317.51 119.761 316.883 119.708C317.29 119.214 318.276 118.803 318.896 118.492ZM150.705 117.547C149.243 117.958 147.777 118.36 146.309 118.752L146.069 118.432C147.354 117.604 149.016 117.499 150.513 117.378L150.705 117.547ZM338.583 114.085C340.628 114.429 342.965 113.637 345.425 114.38L345.005 115.15L345.478 115.686C346.7 116.002 346.768 115.863 347.021 117.082L346.583 117.575C346.133 117.56 346.1 117.596 345.65 117.677L345.1 118.548C342 119.182 340.26 115.636 338.583 114.085ZM313.617 116.747C313.832 116.707 314.097 116.76 314.332 116.783C313.88 117.363 313.295 117.529 312.575 117.889L311.968 118.021L311.732 117.859C312.292 117.226 312.837 117.081 313.617 116.747ZM324.203 117.372C325.05 117.199 325.055 117.215 325.87 117.266L326.192 117.636C325.293 117.778 325.27 117.788 324.373 117.708L324.203 117.372ZM228.805 111.681C229.014 112.494 228.43 112.805 227.792 113.887C227.871 114.978 227.886 114.721 228.777 115.736C228.312 116.14 224.672 117.119 223.579 117.515C223.228 117.602 223.102 117.569 222.731 117.568C223.041 117.008 225.713 116.138 226.537 115.429C227.277 113.757 227.509 112.985 228.805 111.681ZM249.062 115.592C248.987 116.206 248.199 116.711 247.626 117.233L247.365 117.371L247.235 117.156C247.645 116.29 247.903 116.114 248.593 115.414L249.062 115.592ZM165.871 116.379C167.515 116.195 169.563 115.971 170.916 116.95C169.817 117.205 166.909 116.87 165.871 116.379ZM268.685 114.318C269.387 114.253 269.505 114.11 269.978 114.405C268.335 114.966 267.512 115.165 266.122 116.208L265.395 116.496L265.24 116.243C266.395 115.109 267.142 114.763 268.685 114.318ZM260.225 113.053C259.737 114.687 256.742 115.632 255.175 115.791L255.17 115.482C257.497 114.718 258.182 113.895 260.225 113.053ZM163.03 113.517L163.008 113.838L161.692 114.601L161.17 114.394L161.226 114.074L162.477 113.346L163.03 113.517ZM216.682 113.493C217.306 113.421 217.274 113.428 217.891 113.568L217.76 113.932L216.671 114.398C215.903 114.334 215.913 114.354 215.204 114.072C215.612 113.612 215.946 113.675 216.682 113.493ZM120.647 110.869C121.736 110.706 123.758 110.232 124.302 111.354C123.088 111.296 122.203 111.285 120.981 111.317L120.647 110.869ZM243.959 109.717C242.935 110.281 240.79 110.503 239.143 111.191L238.705 111.341L238.752 110.954C240.565 109.824 241.212 109.774 243.254 109.607L243.852 109.505L243.959 109.717ZM140.909 108.36C140.683 108.848 139.703 109.189 139.102 109.49L138.542 109.346L138.515 108.996C139.215 108.49 139.7 108.464 140.543 108.289L140.909 108.36ZM217.025 108.008C217.587 107.871 218.7 107.841 219.151 108.215C218.507 108.661 217.825 108.553 217.006 108.562C216.306 108.872 215.778 109.23 215.062 109.083C215.477 108.463 216.279 108.292 217.025 108.008ZM226.802 107.051C226.957 107.033 231.444 107.541 231.661 107.619L231.693 108.127C230.253 108.373 228.365 107.937 226.948 107.591L226.802 107.051ZM146.98 106.522C146.46 107.144 145.279 107.438 144.465 107.73L144.272 107.48C144.793 106.874 145.999 106.573 146.805 106.286L146.98 106.522ZM266.705 105.587C267.772 106.484 268.263 105.812 269.83 106.581C268.673 106.824 267.475 106.716 266.282 106.681C265.433 107.231 265.26 107.384 264.317 107.684L264.12 107.524C264.765 106.586 265.698 106.181 266.705 105.587ZM260.963 105.253C261.657 105.212 261.47 105.218 262.17 105.356L262.22 105.705C261.337 106.467 261.132 106.45 259.963 106.76C259.298 106.762 259.26 106.739 258.607 106.581L258.7 106.278C259.573 105.936 260.128 105.682 260.963 105.253ZM126.808 102.418L127.105 102.655C128.254 103.558 128.492 103.726 129.928 104.116L130.291 104.585C129.648 105.31 128.593 105.466 127.673 105.425C126.965 104.36 127.836 103.979 126.842 102.753C125.433 103.388 124.417 103.784 122.957 104.295L122.906 104.102C123.824 103.333 125.6 102.246 126.808 102.418ZM255.252 103.966C254.519 104.606 253.492 104.969 252.582 105.371L251.973 105.18L251.99 104.833C252.848 104.422 253.525 104.146 254.41 103.799L255.048 103.724L255.252 103.966ZM244.368 102.272L244.415 102.467C243.204 102.992 242.61 103.194 241.64 104.148L241.229 104.568L240.909 104.5C241.253 103.582 241.925 102.886 242.7 102.308C243.297 102.259 243.776 102.267 244.368 102.272ZM237.092 102.605C236.564 103.303 235.344 103.652 234.417 104.062C234.201 103.993 234.336 104.055 234.079 103.77C234.656 103.223 235.9 102.809 236.684 102.49L237.092 102.605ZM216.809 102.353C216.94 102.368 217.306 102.499 217.449 102.546C217.286 103.047 216.64 103.228 216.018 103.575L215.392 103.536C215.561 103.011 216.218 102.749 216.809 102.353ZM165.626 99.3926C166.529 99.2498 169.605 99.1861 170.447 99.5586C169.021 100.292 167.069 100.009 165.626 99.3926ZM228.895 96.999C227.751 98.013 227.254 98.2083 225.919 98.8613C225.88 98.5612 225.889 98.7643 226.017 98.2578C227.093 97.4358 227.781 97.1081 228.963 96.4961L228.895 96.999ZM181.792 94.5557C181.212 95.2289 180.61 95.4452 179.815 95.8486C178.239 96.7421 176.418 98.0671 174.641 98.4326C176.261 97.3251 177.878 96.1244 179.674 95.3477C180.373 94.8487 180.787 94.5136 181.642 94.3389L181.792 94.5557ZM194.18 93.4717C194.576 93.5172 194.508 93.5247 194.887 93.6777C194.353 94.29 192.666 94.7241 191.804 95.0166L191.198 94.6113L191.446 94.3213C192.599 94.1158 192.874 94.0604 193.943 93.5811L194.18 93.4717ZM202.123 92.3721C203.721 92.3423 204.661 92.0174 205.608 93.4326C204.76 93.4339 202.965 92.7151 202.123 92.3721ZM159.091 91.4873C158.333 92.3426 156.878 92.2849 155.845 92.2109C155.477 92.0158 155.456 91.9795 155.126 91.7246C155.579 91.4106 157.544 91.5688 158.558 91.4326L158.807 91.3975L159.091 91.4873ZM168.013 90.9365C166.738 91.5577 166.554 92.0989 165.157 92.2441L165.291 92.1553L165.362 91.8467C165.996 91.3573 166.876 90.959 167.604 90.5801L168.013 90.9365ZM170.746 88.959C170.024 89.8035 168.987 90.3315 168.013 90.9365L167.604 90.5791C168.7 89.7519 169.11 89.4637 170.325 88.8027L170.746 88.959ZM214.06 87.1299C214.818 87.5268 216.069 88.7559 216.769 89.3838L216.661 89.7764C215.626 89.6928 214.218 88.2902 214.06 87.1299ZM196.984 88.7021C195.611 89.3304 195.029 89.3131 193.562 89.4336L192.528 89.498L192.572 89.2969C194.164 88.7729 194.482 88.7324 196.146 88.6084L196.955 88.4717L196.984 88.7021ZM177.894 87.3066C179.314 87.2771 180.028 87.2715 181.454 87.4277C180.725 87.7898 179.229 87.8341 178.331 87.9248C177.599 88.4805 177.292 88.7406 176.479 89.1445L176.14 89.0215C176.466 88.2402 177.197 87.8261 177.894 87.3066ZM170.765 88.9658L170.746 88.959C170.749 88.9557 170.752 88.9526 170.755 88.9492L170.765 88.9658ZM170.897 88.7725C170.852 88.833 170.804 88.8918 170.755 88.9492L170.608 88.7021L170.897 88.7725ZM217.286 82.3691C217.573 82.5776 217.784 82.8515 218.032 83.123L217.979 83.5977L216.928 84.4307C216.338 84.5184 216.601 84.5856 216.135 84.2568C216.269 83.4146 216.727 83.0316 217.286 82.3691ZM170.533 83.4941L170.833 83.3945C169.761 83.9617 168.633 84.149 167.444 84.4297L166.297 84.4834L166.139 84.2432C167.396 83.6075 168.115 83.5557 169.479 83.332C169.887 83.2453 170.196 83.2585 170.617 83.2402L170.533 83.4941Z" fill="#97918A"/>
</g>
<defs>
<clipPath id="clip0_79_9372">
<rect width="480" height="480" fill="white"/>
</clipPath>
</defs>
</svg>
