<svg width="480" height="480" viewBox="0 0 480 480" fill="none" xmlns="http://www.w3.org/2000/svg">
<g clip-path="url(#clip0_79_7109)">
<path d="M178.646 148.492C183.418 140.487 188.992 133.297 195.809 126.919C197.896 124.965 200.152 123.196 202.28 121.289C204.085 119.671 206.003 118.261 207.835 116.695C208.644 116.004 209.308 115.095 210.227 114.544C215.459 111.407 221.956 109.875 227.711 107.954C230.133 107.146 232.457 106.072 234.874 105.264C237.328 104.443 239.882 103.908 242.366 103.183C244.737 102.49 247.076 101.643 249.475 101.05C254.035 99.9226 259.197 99.2638 263.875 99.9526C265.78 100.233 267.712 100.786 269.63 100.915C271.357 101.031 273.052 100.276 274.765 100.346C277.255 100.447 278.822 101.493 281.46 100.959C283.98 100.448 295.84 102.022 298.627 102.819C299.802 103.155 300.805 103.706 301.86 104.301C303.487 104.195 307.185 103.873 308.71 104.133C314.415 105.114 320.237 105.936 325.882 107.192C328.415 107.756 331.545 109.751 334.032 110.332C341.425 112.056 345.962 115.973 352.252 119.473C359.655 123.59 367.242 126.798 373.222 133.277C374.285 134.357 376.5 135.419 377.602 136.596C379.505 138.17 381.3 140.44 383.127 142.009C390.097 147.99 393.402 154.143 397.772 161.865C402.11 169.531 402.745 172.682 405.192 181.118C408.892 193.863 411.517 205.635 408.927 218.986C407.902 224.143 406.855 228.53 406.402 233.869C406.107 237.345 402.83 242.792 401.657 246.226C400.952 247.896 400.135 249.809 399.232 251.368C397.337 254.643 395.087 257.698 392.52 260.478C389.532 263.703 385.235 268.24 380.437 268.188C373.355 268.113 365.747 261.638 360.792 256.933C358.242 254.513 358.292 253.16 356.477 250.453C355.317 248.872 352.845 247.27 351.817 245.664C350.34 243.227 349.077 240.515 347.757 237.982C345.552 233.748 341.697 229.13 340.742 224.411C339.672 219.127 337.082 211.522 337.39 206.275C334.087 209.75 333.755 208.662 329.967 211.188C327.98 212.513 325.532 215.235 323.375 216.582C317.987 219.948 312.377 221.691 306.402 223.682C304.757 224.14 302.86 226.198 301.31 226.637C299.257 227.22 297.05 227.508 294.99 228.116C287.325 230.366 279.545 232.366 271.597 233.31C270.212 233.474 266.942 235.418 266.64 235.247C264.427 233.991 264.305 236.24 262.027 236.398C256.882 236.754 251.537 236.808 246.372 236.947C245.419 236.974 243.964 237.897 243.256 237.888C238.863 237.827 234.434 237.286 230.014 237.1C224.175 236.854 218.432 236.789 212.614 236.5C211.059 236.423 208.155 235.496 206.591 235.418C204.298 235.304 201.065 236.517 198.815 236.582C198.153 236.602 195.457 235.567 194.208 235.336C193.449 235.637 192.394 236.097 191.626 236.29C188.223 235.509 185.162 234.905 181.28 234.007C173.792 232.204 162.243 232.403 156.613 226.68C154.684 224.718 155.71 217.016 155.207 214.629C153.952 208.668 154.779 204.067 156.649 198.161C156.196 196.797 155.876 195.886 155.293 194.56C156.52 189.159 158.069 186.851 160.443 182.009C162.27 178.28 163.9 173.533 165.814 169.861C168.716 164.293 171.992 158.9 175.343 153.608L175.956 153.608C177.01 154.243 178.994 154.844 179.428 153.258C179.167 152.103 178.779 151.628 178.157 150.629C178.285 149.839 178.44 149.268 178.646 148.492ZM232.156 114.735C233.575 113.853 233.727 114.201 234.8 112.817C235.006 111.597 234.358 111.139 233.196 110.822C232.496 111.929 230.992 114.121 230.794 115.308C231.468 115.376 231.427 115.213 232.156 114.735ZM297.01 161.759C297.555 161.624 297.82 161.497 298.367 161.674L298.772 161.414C299.135 159.607 299.532 156.093 301.73 155.939L301.837 155.63C301.37 155.045 301.35 155.108 300.62 154.87C299.41 156.502 299.15 157.906 298.152 159.647C297.45 160.879 296.415 161.542 295.792 162.668C296.285 162.332 296.557 162.153 297.01 161.759ZM230.426 224.313C232.098 222.559 233.766 220.557 235.787 219.255C236.124 219.038 236.131 218.965 236.252 218.599L236.184 218.245C234.795 219.09 229.998 222.637 230.426 224.313ZM262.73 229.71C264.107 228.612 265.767 225.267 266.845 223.571L266.775 223.237L266.257 223.138C264.932 225.212 263.765 227.426 262.432 229.446L262.572 229.681L262.73 229.71ZM337.505 151.085C338.942 149.06 339.717 147.659 341.7 146.118C341.202 145.901 341.225 145.888 340.687 145.855C339.977 146.604 337.062 150.287 336.99 151.13L337.505 151.085ZM361.597 168.943C363.062 168.516 366.885 167.588 367.977 166.862L368.175 166.448L368.007 166.29C366.167 167.094 362.182 167.803 361.427 168.815L361.597 168.943ZM336.635 133.215C338.247 132.312 340.82 131.169 341.602 129.644L341.415 129.228C339.425 131.399 337.03 131.758 336.41 132.775C336.485 132.921 336.56 133.068 336.635 133.215ZM246.829 142.877C248.177 141.289 251.417 139.607 251.49 139.026L251.182 139.043C249.333 139.956 247.694 140.744 246.5 142.492L246.505 142.952L246.829 142.877ZM236.03 124.278C234.821 124.761 234.519 124.852 233.517 125.66L233.368 126.077L233.525 126.188C234.426 125.779 235.543 125.389 236.169 124.669C236.129 124.536 236.125 124.378 236.03 124.278ZM179.328 169.993C178.624 169.429 177.431 169.347 176.487 169.299L176.628 169.896C177.599 170.228 178.329 169.987 179.328 169.993ZM221.457 149.771C222.143 149.37 223.369 148.861 223.523 148.281L222.781 148.193C221.917 148.761 221.422 148.992 220.812 149.8L220.927 149.998L221.457 149.771ZM225.034 130.25C224.072 130.878 223.404 131.215 222.702 132.127L222.767 132.447L222.826 132.477C223.565 132.002 224.842 131.314 225.246 130.615L225.034 130.25ZM238.149 213.448C237.557 214.368 236.984 215.07 236.78 216.129L237.044 216.452C237.476 215.736 238.399 214.456 238.377 213.713L238.149 213.448ZM206.394 131.367C207.676 130.796 209.419 130.119 210.186 128.944C210.085 128.516 210.19 128.667 209.957 128.443C208.751 129.248 207.485 130.06 206.323 130.921L206.275 131.258L206.394 131.367ZM218.395 208.711C219.126 208.345 220.546 207.764 220.956 207.157L220.583 206.913C219.45 207.461 219.183 207.568 218.261 208.407L218.214 208.686L218.395 208.711ZM350.675 131.587C351.885 130.564 352.917 129.739 354.19 128.794L354.197 128.428L353.837 128.195C352.54 129.164 351.59 129.812 350.492 131.011L350.45 131.387L350.675 131.587ZM265.01 125.24C266.8 125.191 268.592 124.901 270.182 124.024L270.415 123.647L270.132 123.514C268.477 124.203 264.955 124.573 264.697 124.972L265.01 125.24ZM282.862 153.534L283.502 153.574L283.562 153.39C282.62 153.133 282.542 153.138 281.552 153.161L281.372 154.201L281.565 154.424L282.862 153.534ZM378.48 181.232C377.6 181.697 374.707 183.057 374.337 183.777L374.615 183.881C375.585 183.44 378.385 182.302 378.887 181.575L378.745 181.292L378.48 181.232ZM264.087 116.818C265.697 117.778 266.375 117.755 268.215 117.338C267.282 116.651 265.31 116.768 264.087 116.818ZM210.454 141.732C209.457 142.229 207.242 143.15 206.721 143.894L206.932 144.19L207.15 144.224C208.02 143.675 210.556 142.453 210.875 141.924L210.454 141.732ZM206.102 145.423C206.035 146.633 205.968 147.531 205.806 148.744L206.125 149.04L206.611 148.919C207.491 147.502 207.398 146.725 206.102 145.423Z" fill="#3EB7B8"/>
<path d="M252.267 147.735C252.847 147.736 253.355 147.764 253.88 148.022C255.002 148.573 256.217 149.542 256.61 150.774C257.962 155.006 248.682 172.743 246.517 177.534C245.241 180.358 244.222 183.273 242.936 186.089C247.407 182.36 251.66 179.034 255.66 174.748C258.645 171.55 262.522 168.72 266.16 166.25C269.6 163.915 273.76 160.707 278.125 160.743C286.585 161.072 283.622 172.129 283.165 177.433C282.925 180.193 282.81 182.804 282.672 185.472C284.867 183.898 286.185 184.007 287.742 182.899C289.412 181.71 291.58 179.738 293.36 178.392C298.492 174.558 303.745 170.886 309.11 167.381C311.027 166.105 317.177 161.432 319.412 162.073L319.602 162.472C318.297 170.737 299.742 184.515 293.377 190.128C290.397 192.757 286.935 193.334 283.627 197.127C282.762 197.241 281.062 197.944 280.467 197.989C279.077 198.094 277.705 198.144 276.27 198.285C271.305 195.809 274.767 195.567 273.997 193.718C271.835 188.521 276.165 178.913 274.177 174.872C274.035 174.77 273.892 174.668 273.752 174.567C272.232 175.731 270.09 176.302 268.695 176.257L265.6 178.563C260.495 184.256 257.852 184.361 253.192 188.332C247.306 193.858 243.275 200.16 235.311 203.117C234.685 203.349 229.438 200.855 229.422 199.51C229.343 192.725 234.147 185.521 236.89 179.714L245.449 161.4C244.501 161.81 243.56 162.234 242.626 162.672C237.057 165.33 235.518 167.917 231.206 171.676C227.229 175.141 224.135 177.995 220.4 181.794C214.771 187.519 209.09 192.811 204.365 199.41C202.682 201.761 203.071 206.732 199.839 208.078C198.456 208.623 196.697 207.636 195.411 207.098C195.866 205.562 197.224 200.943 197.915 199.592C204.347 187.006 216.169 175.082 226.246 165.245C229.958 161.891 234.873 159.128 238.696 156.046C243.679 152.03 246.238 150.12 252.267 147.735Z" fill="#4B4746"/>
<path d="M365.933 321.2C373.845 321.935 371.483 330.108 370.455 335.133C369.62 339.215 369.508 343.595 368.356 347.729C366.618 353.962 362.785 359.283 359.425 364.735C358.675 365.973 357.456 367.508 357.776 368.95C359.584 369.884 366.253 365.923 369.112 370.553C373.16 377.108 371.533 378.155 370.598 385.022C374.478 387.61 380.573 388.51 385.308 389.615C390.09 390.731 383.085 402.805 382.608 405.925C382.39 407.362 378.233 411.075 376.92 412.027C369.82 417.167 362.333 422.668 353.99 425.565C352.793 425.19 351.513 424.733 350.316 424.33C346.883 419.768 348.075 411.472 348.375 405.702C343.878 404.402 338.952 404.65 335.027 402.515C333.973 401.942 333.713 399.05 333.518 397.808C332.943 395.155 334.101 394.585 335.316 391.815C333.728 389.528 331.197 391.452 329.56 392.577C317.857 400.597 305.537 398.442 295.527 388.812C292.92 388.385 291.205 387.828 288.705 386.985C285.588 387.848 282.865 387.867 279.87 386.622C278.875 384.972 278.707 384.417 278.09 382.582C278.717 380.297 279.023 379.592 280.415 377.697C284.133 375.825 286.46 375.977 290.367 376.692C295.32 373.67 304.868 373.713 310.49 372.253C313.273 371.533 318.193 368.542 321.085 367.43C322.513 366.88 325.076 364.693 326.606 363.83C333.415 359.985 339.6 355.098 345.54 350.035C347.105 348.68 354.61 338.8 355.728 336.912C358.965 331.447 360.48 325.56 365.933 321.2ZM145.148 295.525C148.212 295.421 148.067 296.843 148.853 299.442C155.019 319.86 170.679 334.865 184.522 350.292C189.184 355.009 195.095 358.078 200.371 361.995C202.685 363.713 205.036 365.07 207.745 366.037C209.82 366.777 211.555 368.228 213.528 368.888C214.875 369.335 218.518 369.038 219.981 369.025C221.299 370.292 222.184 369.443 223 371C224.083 369.595 224.543 370.603 226.5 372C229.738 374.312 225.065 379.265 223.571 381.32C222.542 381.513 221.15 381.89 220.111 381.772C218.23 381.56 216.014 379.525 214.059 380.152C213.113 380.455 212.438 381.615 211.475 381.835C209.479 382.29 196.432 379.123 193.804 378.625C191.974 378.278 190.071 378.13 188.262 377.715C187.157 377.462 186.261 376.768 185.109 376.548C181.175 375.793 176.789 376.03 173.009 374.665C169.783 373.503 167.346 370.447 164.337 368.902C163.666 368.558 163.418 368.567 162.717 368.8C161.586 370.055 162.539 375.1 162.094 377.263C161.587 379.725 161.255 380.223 160.337 382.28C155.69 392.69 151.736 387.947 144.504 390.43L142.733 389.388C141.227 388.11 138.72 386.763 136.957 385.735C134.292 391.615 133.119 397.29 130.612 403.452C128.505 409.345 125.625 415.462 119.444 418.005C113.828 419.972 109.965 411.97 107.073 409.195C101.117 403.478 98.6279 397.21 94.5216 390.312C91.2364 384.793 87.0449 379.455 84.4474 373.558C83.5924 371.618 83.6312 368.84 84.7052 366.975C87.8551 361.675 91.4126 360.613 97.13 360.378C103.049 360.133 108.292 359.168 113.865 362.103C114.291 359.048 114.453 358.173 114.358 355.03C115.066 354.01 116.492 351.12 116.986 350.117C120.472 341.985 124.706 341.647 132.82 342.527C134.177 342.675 136.331 342.87 136.889 341.277C136.572 338.837 129.817 331.557 128.017 328.39C128.141 316.94 134.105 305.023 141.977 296.878C142.319 296.523 144.558 295.738 145.148 295.525ZM329.977 382.961C329.722 383.036 329.448 383.122 329.143 383.224C329.448 383.122 329.722 383.036 329.977 382.961ZM334.718 382.435C333.115 382.481 332.22 382.5 331.35 382.641C331.785 382.57 332.226 382.531 332.759 382.503C333.292 382.475 333.916 382.459 334.718 382.436V382.435ZM148.301 334.399H148.302H148.301ZM148.592 332.625H148.593H148.592ZM266.776 223.237L266.846 223.571C265.768 225.266 264.108 228.611 262.731 229.71L262.573 229.681L262.433 229.445C263.765 227.425 264.933 225.212 266.258 223.138L266.776 223.237ZM236.253 218.599C236.132 218.965 236.124 219.038 235.787 219.255C233.766 220.557 232.099 222.559 230.427 224.313C229.999 222.637 234.795 219.091 236.185 218.245L236.253 218.599ZM238.377 213.713C238.399 214.455 237.476 215.736 237.044 216.452L236.78 216.129C236.984 215.07 237.557 214.368 238.15 213.448L238.377 213.713ZM220.956 207.156C220.546 207.763 219.126 208.345 218.395 208.711L218.214 208.686L218.262 208.407C219.183 207.568 219.45 207.461 220.583 206.913L220.956 207.156ZM378.745 181.291L378.888 181.574C378.385 182.301 375.585 183.441 374.615 183.881L374.338 183.777C374.708 183.057 377.601 181.696 378.481 181.231L378.745 181.291ZM176.487 169.3C177.431 169.348 178.624 169.429 179.328 169.993C178.329 169.987 177.599 170.228 176.628 169.896L176.487 169.3ZM368.176 166.447L367.978 166.862C366.885 167.588 363.063 168.516 361.598 168.942L361.428 168.815C362.183 167.803 366.168 167.094 368.008 166.29L368.176 166.447ZM300.62 154.87C301.35 155.108 301.371 155.045 301.838 155.63L301.731 155.939C299.533 156.094 299.135 159.607 298.773 161.414L298.367 161.675C297.82 161.497 297.555 161.624 297.01 161.759C296.558 162.153 296.285 162.332 295.793 162.668C296.416 161.542 297.45 160.879 298.152 159.646C299.15 157.906 299.41 156.502 300.62 154.87ZM281.553 153.16C282.543 153.138 282.62 153.134 283.563 153.391L283.503 153.573L282.862 153.534L281.566 154.424L281.373 154.201L281.553 153.16ZM178.647 148.491C178.441 149.267 178.286 149.839 178.157 150.629C178.779 151.627 179.168 152.103 179.429 153.258C178.995 154.843 177.01 154.243 175.957 153.608L175.344 153.607L178.647 148.491ZM340.688 145.855C341.225 145.888 341.203 145.901 341.7 146.118C339.718 147.659 338.943 149.06 337.506 151.085L336.99 151.13C337.063 150.287 339.977 146.605 340.688 145.855ZM223.524 148.281C223.37 148.86 222.143 149.37 221.457 149.771L220.927 149.998L220.813 149.801C221.423 148.993 221.918 148.761 222.781 148.193L223.524 148.281ZM206.103 145.423C207.398 146.725 207.492 147.502 206.611 148.919L206.125 149.04L205.807 148.744C205.969 147.531 206.036 146.633 206.103 145.423ZM210.875 141.924C210.555 142.453 208.02 143.676 207.151 144.225L206.932 144.19L206.721 143.894C207.243 143.149 209.458 142.229 210.454 141.731L210.875 141.924ZM251.49 139.026C251.418 139.607 248.178 141.289 246.83 142.877L246.505 142.952L246.5 142.492C247.694 140.744 249.333 139.956 251.183 139.043L251.49 139.026ZM341.603 129.645C340.82 131.169 338.248 132.312 336.636 133.215C336.561 133.068 336.485 132.921 336.41 132.774C337.03 131.758 339.425 131.399 341.415 129.228L341.603 129.645ZM225.246 130.615C224.842 131.314 223.565 132.001 222.826 132.477L222.768 132.446L222.702 132.127C223.404 131.215 224.073 130.877 225.034 130.25L225.246 130.615ZM354.198 128.428L354.191 128.794C352.918 129.739 351.886 130.565 350.676 131.587L350.45 131.387L350.493 131.012C351.591 129.813 352.541 129.165 353.838 128.195L354.198 128.428ZM209.958 128.443C210.19 128.667 210.086 128.517 210.187 128.944C209.42 130.119 207.676 130.796 206.395 131.367L206.276 131.259L206.323 130.921C207.485 130.06 208.752 129.248 209.958 128.443ZM236.03 124.277C236.126 124.378 236.13 124.536 236.17 124.669C235.544 125.389 234.426 125.778 233.525 126.188L233.368 126.077L233.518 125.659C234.52 124.851 234.822 124.76 236.03 124.277ZM270.415 123.646L270.183 124.023C268.593 124.9 266.8 125.191 265.01 125.24L264.697 124.973C264.955 124.573 268.478 124.203 270.133 123.514L270.415 123.646ZM264.088 116.818C265.311 116.768 267.283 116.651 268.215 117.338C266.375 117.755 265.698 117.778 264.088 116.818ZM233.196 110.822C234.359 111.139 235.006 111.597 234.8 112.816C233.728 114.201 233.576 113.853 232.157 114.734C231.428 115.213 231.469 115.376 230.794 115.308C230.992 114.121 232.496 111.928 233.196 110.822Z" fill="#3EB7B8"/>
</g>
<defs>
<clipPath id="clip0_79_7109">
<rect width="480" height="480" fill="white"/>
</clipPath>
</defs>
</svg>
