<svg width="480" height="480" viewBox="0 0 480 480" fill="none" xmlns="http://www.w3.org/2000/svg">
<g clip-path="url(#clip0_79_11195)">
<path d="M199.154 367.793C199.75 368.361 201.59 369.96 201.752 370.6L201.061 371.425C202.211 374.112 212.419 373.938 215.318 375.485C216.068 375.405 217.047 375.331 218.083 375.286C218.428 375.271 218.779 375.26 219.131 375.252C219.658 375.24 220.186 375.237 220.692 375.245C221.536 375.259 222.321 375.304 222.947 375.393C223.791 375.615 227.408 376.162 228.268 376.112C229.747 376.027 232.627 374.717 234.146 374.38C234.467 374.31 235.698 374.653 236.001 374.593C241.274 373.523 249.397 372.528 254.25 370.598C254.472 369.885 254.66 369.208 254.855 368.485C255.948 367.66 255.89 369.277 257.772 369.037C260.942 368.632 264.338 368.873 267.51 368.745C268.91 368.69 269.063 368.475 270.79 368.54C270.137 368.667 269.005 368.772 268.592 369.14C271.58 370.285 279.397 375.352 282.24 377.385L282.509 377.556C283.254 378.048 284.719 379.138 285.045 379.562L285.28 379.712C287.753 381.342 291.451 385.57 293.052 387.973C298.69 396.448 297.077 404.78 291.107 412.232C285.145 419.677 279.067 419.937 272.165 424.76C267.447 423.497 262.76 424.81 258.11 425.625C257.43 425.745 256.79 425.05 256.602 425.075C247.93 426.283 239.367 424.425 230.68 424.473C230.175 424.475 228.708 423.578 228.218 423.285C221.685 424.255 214.162 423.1 207.684 423.022C204.505 422.82 195.494 424.08 192.696 423.215C185.938 421.127 178.472 422.4 172.171 421.013C164.278 418.828 153.793 415.57 151.946 406.577C148.182 388.252 166.056 379.737 179.872 373.685C185.954 371.02 192.771 369.498 199.154 367.793ZM188.789 420.76C188.87 420.689 188.926 420.625 188.972 420.553C188.926 420.625 188.87 420.689 188.789 420.76ZM248.412 420.232H248.413H248.412ZM247.095 420.041C247.249 420.047 247.388 420.059 247.541 420.079C247.388 420.059 247.249 420.047 247.095 420.041ZM272.392 419.668C272.52 419.668 272.646 419.663 272.771 419.655C272.646 419.663 272.52 419.668 272.392 419.668ZM195.966 418.938H195.966H195.966ZM172.686 417.671C172.523 417.762 172.379 417.856 172.24 417.971C172.379 417.856 172.523 417.762 172.686 417.671ZM173.607 417.202L173.606 417.203L174.289 417.277L174.356 417.572C173.932 417.748 173.615 417.883 173.305 418.032H173.306C173.616 417.883 173.933 417.748 174.357 417.572L174.289 417.277L173.607 417.202ZM195.738 414.895C195.292 414.879 194.86 414.891 194.432 414.921V414.922C194.86 414.892 195.292 414.88 195.738 414.896V414.895ZM222.868 413.503H222.869H222.868ZM232.675 413.239H232.676H232.675ZM164.049 413.189V413.19V413.189ZM256.74 411.677H256.741H256.74ZM275.253 411.373H275.254H275.253ZM197.111 411.333H197.112H197.111ZM210.632 411.078V411.077V411.078ZM223.937 410.188H223.936H223.937ZM196.06 410.321C195.914 410.352 195.766 410.412 195.594 410.506H195.595C195.767 410.412 195.915 410.352 196.061 410.321H196.06ZM205.647 409.162V409.163V409.162ZM222.891 408.587C223.047 408.903 223.196 409.123 223.331 409.297C223.223 409.157 223.107 408.989 222.985 408.765C222.955 408.709 222.923 408.65 222.892 408.587H222.891ZM288.639 402.66V402.659V402.66ZM287.78 401.902V401.901V401.902ZM289.902 401.77H289.903H289.902ZM159.316 399.653H159.315H159.316ZM285.32 398.888H285.321L284.918 398.673L285.32 398.888ZM280.45 396.435V396.436L280.734 396.872H280.735L280.45 396.435ZM261.881 396.202H261.88H261.881ZM263.548 394.52C263.645 394.44 263.75 394.357 263.865 394.268C263.75 394.357 263.645 394.44 263.548 394.52ZM176.821 389.457H176.822H176.821ZM177.9 389.031H177.901H177.9ZM175.636 387.577H175.637H175.636ZM188.589 383.157C188.829 383.159 189.064 383.178 189.291 383.223C189.366 383.237 189.44 383.255 189.513 383.275C189.66 383.317 189.803 383.37 189.94 383.438C190.009 383.473 190.076 383.511 190.142 383.553C189.999 383.586 189.849 383.618 189.693 383.647H189.694C189.849 383.618 189.999 383.586 190.142 383.553C189.681 383.26 189.15 383.162 188.589 383.157ZM280.758 382.587C280.531 382.827 280.293 383.069 280.053 383.293C280.293 383.069 280.531 382.827 280.758 382.587ZM278.594 382.338H278.595H278.594ZM282.806 381.11H282.807H282.806ZM283.693 380.846H283.694H283.693Z" fill="#4B4746"/>
<path d="M216.502 108.868C220.038 108.288 222.361 107.088 226.055 107.96C226.525 108.07 229.281 107.992 229.966 107.961C239.956 107.513 249.292 109.528 258.827 112.227C261.5 112.976 266.58 114.078 269.08 115.167C272.702 116.744 276.602 118.788 280.3 120.464C283.182 121.771 286.847 123.3 289.572 124.761C292.682 126.427 296.122 129.562 299.024 131.7C300.199 132.566 301.338 133.2 302.517 134.061L302.592 134.866C302.502 134.95 302.405 135.028 302.303 135.103C302.405 135.028 302.503 134.951 302.593 134.866L302.517 134.061C303.55 134.972 304.227 135.302 305.344 136.028L305.794 136.455C308.254 138.852 313.703 145.066 314.925 147.965C315.084 148.345 314.707 150.31 314.592 150.897C315.376 150.693 316.057 149.643 316.574 148.939C322.456 156.228 325.869 161.813 328.971 170.784C329.469 172.223 330.789 174.692 331.082 175.95C332.999 184.195 334.23 192.955 334.192 201.396C334.165 207.35 333.175 213.644 333.032 219.282C332.807 228.238 333.367 236.243 332.582 245.315C332.052 251.463 330.487 254.941 329.59 260.146C342.349 264.7 355.584 265.826 361.721 280.2C365.446 289.203 366.224 301.843 363.099 311.061C361.46 314.553 360.8 318.633 360.187 322.021C360.006 323.012 353.486 332.76 352.75 333.535C348.03 338.482 339.599 343.72 333.01 345.19C331.997 344.743 330.737 343.946 329.734 345.015C326.667 348.282 324.946 347.698 321.181 348.538C316.49 349.583 313.526 349.191 308.974 349.333C308.532 349.018 306.738 347.757 306.359 347.628C302.399 346.308 301.659 347.14 298.627 344.146C297.629 349.497 295.961 351.531 292.217 355.583C290.672 357.253 289.552 357.883 288.372 359.925C286.127 363.815 279.894 367.365 275.592 368.311C273.71 368.725 272.604 368.445 270.79 368.54C269.063 368.475 268.909 368.69 267.51 368.745C264.337 368.873 260.942 368.633 257.772 369.038C255.89 369.278 255.946 367.662 254.854 368.485C254.659 369.208 254.472 369.885 254.25 370.598C249.398 372.528 241.273 373.523 236 374.593C235.697 374.653 234.467 374.311 234.145 374.38C232.627 374.717 229.746 376.027 228.267 376.112C227.407 376.162 223.791 375.615 222.946 375.393C220.943 375.11 217.317 375.27 215.317 375.485C212.418 373.938 202.211 374.112 201.06 371.425L201.751 370.601C201.589 369.961 199.75 368.361 199.153 367.793C199.728 365.866 200.238 363.523 200.721 361.543C197.457 360.871 196.485 361.4 193.191 361.982C191.304 361.215 190.036 360.72 188.285 359.715C187.264 360.216 186.335 360.58 185.293 360.987L185.157 361.04C182.215 358.888 180.223 359.07 176.778 358.468C172.299 357.683 166.366 356.101 161.866 355.945L161.669 355.758L161.336 355.45C159.512 353.743 158.717 353.59 156.144 353.633C155.341 352.898 154.452 352.17 153.617 351.463C152.847 351.595 151.472 351.88 150.765 351.638C147.66 350.798 144.152 347.918 141.188 347.055C137.611 346.012 134.544 345.263 130.984 343.976C121.053 332.373 109.765 323.243 109.872 306.58C109.915 299.808 110.347 293.002 110.805 286.26C112.268 261.185 116.945 236.403 124.723 212.522C126.011 208.512 127.721 204.919 129.072 201.017C130.195 197.773 131.068 194.654 132.291 191.385C137.423 177.801 143.746 164.697 151.188 152.229C152.957 149.244 154.708 145.974 156.656 143.088C159.323 139.137 162.954 135.734 166.261 132.188C168.085 130.23 170.647 126.346 172.406 124.72C176.699 120.75 184.485 117.168 189.891 114.822C190.703 114.471 193.645 114.627 194.684 114.236C196.918 113.395 198.549 111.9 200.761 111.109C201.729 110.764 203.843 111.259 204.684 111.032C206.033 110.669 208.117 109.416 209.459 109.163C211.601 108.695 214.408 109.212 216.502 108.868ZM298.384 136.833C297.672 137.236 297.171 137.777 297.159 138.665C297.351 138.772 297.602 138.814 297.896 138.806C297.602 138.814 297.351 138.772 297.16 138.665C297.172 137.777 297.672 137.236 298.384 136.833ZM300.402 136.008C299.758 136.24 299.105 136.458 298.555 136.74C299.105 136.457 299.758 136.24 300.402 136.008ZM305.174 136.064C305.057 136.095 304.923 136.141 304.771 136.197C304.923 136.141 305.057 136.095 305.174 136.064ZM302.005 135.301C301.873 135.38 301.735 135.454 301.593 135.523C301.735 135.454 301.873 135.38 302.005 135.301Z" fill="#F3BAB1"/>
</g>
<defs>
<clipPath id="clip0_79_11195">
<rect width="480" height="480" fill="white"/>
</clipPath>
</defs>
</svg>
