<svg width="480" height="480" viewBox="0 0 480 480" fill="none" xmlns="http://www.w3.org/2000/svg">
<g clip-path="url(#clip0_79_12433)">
<path d="M225.421 100.61C226.854 100.259 230.887 101.11 232.615 100.943C238.539 100.368 243.998 100.922 249.866 101.648C254.013 102.112 258.65 101.241 262.845 101.716C265.1 101.972 266.81 102.566 268.975 103.178C271.015 103.809 274.455 103.699 276.353 104.361C281.658 106.211 287.646 107.349 292.911 108.904C297.096 110.14 301.736 112.93 305.821 114.481C311.848 116.769 316.601 119.683 321.621 123.646C325.053 126.307 328.898 127.432 330.5 132.296C331.005 133.7 331.426 133.248 332.411 133.722C335.226 135.076 339.517 139.576 341.212 142.134C343.842 146.1 346.196 149.807 348.808 153.737C350.328 156.022 351.123 159.252 352.183 161.78C353.913 166.777 357.191 173.014 358.223 178.073C359.298 183.34 359.393 188.101 361.193 193.387C362.07 195.96 361.463 203.654 361.736 206.695C361.903 208.548 360.11 215.38 359.515 217.464C363.845 215.536 371.618 212.456 376.218 213.015C381.288 213.631 389.165 215.695 393.733 218.133C394.391 218.484 400.112 223.45 400.832 224.246C406.162 230.134 407.041 237.605 406.571 245.273C406.348 248.9 404.96 252.76 403.76 256.228C402.36 260.28 400.513 265.185 398.273 268.822C396.61 271.517 393.99 273.647 391.581 275.68C390.638 276.472 388.076 279.254 387.331 279.747C384.263 281.775 379.766 285.153 376.581 286.728C374.543 287.738 371.201 288.807 368.843 289.867C366.588 290.88 363.123 292.323 360.758 293.13C358.556 293.88 352.51 293.7 350.225 294.983C349.843 295.196 349.131 298.012 348.893 298.667C346.746 304.61 343.738 310.783 341.023 316.486C339.78 319.098 337.57 321.873 336.243 324.193C330.698 333.895 324.315 341.055 315.712 348.12C312.46 350.793 308.755 353.715 305.29 356.21C304.583 356.72 302.07 357.27 301.065 357.865C299.815 358.61 298.085 359.868 296.786 360.483C292.941 362.3 287.66 364.36 283.44 364.952C282.642 365.065 279.246 364.782 278.326 364.712C278.308 366.207 278.277 367.56 278.19 369.055L277.98 369.398C275.4 369.718 271.813 369.272 269.156 369.15C269.036 369.142 268.106 369.743 267.911 369.898C267.456 370.855 264.974 372.474 263.861 373.419C264.091 372.312 264.342 371.517 264.212 370.4C264.101 370.213 264.013 370.076 263.933 369.969C263.853 369.862 263.781 369.785 263.699 369.721C263.616 369.656 263.523 369.604 263.404 369.544C263.284 369.484 263.138 369.418 262.948 369.325C261.445 369.838 259.623 369.83 258.045 369.787C254.436 369.69 251.011 370.33 247.447 370.73C246.718 370.812 245.643 370.201 244.97 369.883C242.023 371.075 242.631 371.157 239.49 371.617C239.272 371.66 237.764 371.97 237.723 372.013C236.602 373.235 236.218 375.233 234.227 374.153C233.923 373.453 233.961 373.815 234.193 373.023C234.872 372.27 235.787 372.132 236.767 372.162L236.617 372.327L236.904 372.162C236.019 372.12 235.225 372.065 234.372 371.797C232.467 371.73 231.943 372.977 229.095 371.935C228.932 371.875 224.513 372.458 223.776 372.483C217.634 372.675 212.143 370.513 206.25 369.268C204.945 368.995 201.921 370.088 200.604 369.3C199.933 367.08 199.884 365.173 199.812 362.865C195.329 361.513 191.328 360.65 186.861 358.568C173.696 352.43 161.663 343.635 151.085 333.73C150.386 333.076 145.672 327.757 145.385 327.135C143.243 322.498 139.729 320.647 136.574 316.855C133.674 313.527 132.352 309.765 130.367 305.96C128.311 302.018 126.701 299.113 125.21 294.903C117.611 295.43 105.614 293.542 99.1684 289.702C92.3547 285.64 83.0067 281.04 78.8823 274.042C77.9793 272.509 75.2468 268.875 74.7358 267.707C73.653 265.235 73.6337 260.187 73.0737 257.4C71.9511 244.283 76.7606 230.757 84.9272 220.606C88.6699 215.954 94.935 213.021 100.526 211.796C102.134 211.444 103.073 210.571 104.878 210.488C107.204 210.38 109.214 210.722 111.506 210.943C116.711 210.949 119.522 210.848 124.459 212.839C124.411 204.406 127.343 194.184 130.091 186.218C131.251 183.442 131.795 178.794 133.04 176.22C135.029 172.103 136.63 166.042 138.658 162.201C142.268 155.364 146.566 146.638 151.436 140.659C156.09 134.945 162.699 128.944 168.421 124.277C170.925 122.063 173.253 119.873 176.13 118.1C188.051 110.777 201.522 105.591 215.06 102.165C217.995 101.423 222.31 101.372 225.421 100.61ZM248.548 345.257C248.387 345.318 248.284 345.365 248.211 345.4C248.284 345.365 248.387 345.319 248.548 345.258V345.257ZM250.457 345.135C250.378 345.17 250.3 345.196 250.224 345.219C250.3 345.196 250.378 345.17 250.457 345.135ZM263.386 338.445H263.387H263.386ZM233.482 321.712C233.353 321.85 233.241 321.961 233.143 322.056C233.241 321.961 233.353 321.85 233.482 321.712ZM291.927 321.67H291.928H291.927ZM236.07 304.343H236.071H236.07ZM234.141 305.294V305.293V305.294ZM154.601 302.904C154.45 302.961 154.288 303.011 154.114 303.064C154.288 303.011 154.45 302.961 154.601 302.904ZM224.503 300.138H224.504H224.503ZM214.862 297.627C215.034 297.668 215.192 297.684 215.341 297.681C215.304 297.682 215.266 297.682 215.228 297.68C215.19 297.678 215.151 297.675 215.111 297.671C215.031 297.662 214.949 297.648 214.863 297.627H214.862ZM247.382 296.022V296.023V296.022ZM289.74 281.172C289.703 281.188 289.668 281.204 289.635 281.221C289.734 281.169 289.851 281.126 289.98 281.086L289.74 281.172ZM291.889 280.744C291.333 280.835 290.737 280.903 290.254 281.014L290.556 280.952C290.973 280.875 291.444 280.817 291.889 280.744ZM293.52 280.123C293.481 280.176 293.434 280.225 293.377 280.27C293.434 280.225 293.481 280.176 293.52 280.123ZM306.222 279.061C306.292 279.12 306.379 279.162 306.627 279.31V279.309C306.38 279.162 306.293 279.12 306.223 279.061H306.222ZM234.822 278.697C234.769 278.793 234.717 278.896 234.663 279.009C234.771 278.783 234.874 278.597 234.983 278.429L234.822 278.697ZM307.846 278.32C307.723 278.342 307.599 278.361 307.47 278.375C307.599 278.361 307.723 278.342 307.846 278.32ZM123.246 273.337H123.247H123.246ZM95.4438 269.278H95.4448H95.4438ZM260.885 268.678V268.677V268.678ZM262.71 267.759V267.76V267.759ZM262.797 267.252H262.798L262.531 267.242L262.797 267.252ZM191.29 264.285C191.12 264.387 190.943 264.479 190.761 264.564L191.031 264.431C191.119 264.385 191.205 264.336 191.29 264.285ZM89.7895 260.145V260.146V260.145ZM287.303 259.845C287.767 259.732 288.366 259.61 288.979 259.461C288.366 259.61 287.766 259.731 287.302 259.844L287.303 259.845ZM277.487 257.846C277.697 257.77 277.903 257.689 278.093 257.598C277.903 257.689 277.697 257.77 277.487 257.846ZM304.88 255.257L304.718 255.172V255.173L304.88 255.258C305.085 255.194 305.285 255.14 305.476 255.088L304.88 255.257ZM306.843 254.46C306.776 254.523 306.705 254.579 306.631 254.629C306.557 254.68 306.481 254.725 306.401 254.766C306.6 254.665 306.782 254.536 306.943 254.361L306.942 254.36C306.91 254.395 306.877 254.429 306.843 254.46ZM185.256 254.548V254.547L185.076 254.507V254.508L185.256 254.548ZM88.8989 254.002H88.8999H88.8989ZM117.646 250.542H117.647H117.646ZM289.9 250.373V250.374V250.373ZM352.303 245.526H352.304H352.303ZM357.611 243.823C357.765 243.725 357.901 243.632 358.012 243.541C357.901 243.632 357.765 243.726 357.611 243.823ZM367.326 235.067C367.203 235.124 367.127 235.161 367.075 235.187L367.076 235.188C367.128 235.162 367.203 235.123 367.326 235.067ZM277.652 234.718V234.719V234.718ZM89.9018 232.721C89.8206 232.741 89.7408 232.75 89.6616 232.75C89.7408 232.75 89.8206 232.741 89.9018 232.721ZM371.715 229.184C371.507 229.376 371.306 229.573 371.127 229.767C371.306 229.573 371.507 229.376 371.715 229.184ZM118.737 228.941V228.94V228.941ZM97.7192 228.5C97.9431 228.697 98.2404 228.79 98.5688 228.822C98.4376 228.809 98.3114 228.786 98.1928 228.751C98.0149 228.698 97.8545 228.618 97.7202 228.5H97.7192ZM239.896 226.719C239.957 226.729 240.019 226.734 240.083 226.734C240.019 226.734 239.957 226.729 239.896 226.719ZM118.129 220.923H118.13H118.129ZM305.34 199.393C305.255 199.438 305.169 199.483 305.082 199.527C304.821 199.656 304.554 199.776 304.296 199.887C303.952 200.035 303.623 200.169 303.345 200.291L303.277 200.169L303.345 200.292C303.971 200.017 304.852 199.685 305.591 199.253L305.34 199.393ZM199.249 186.166L199.25 186.165L199.249 186.166ZM199.604 185.293H199.605H199.604ZM281.331 182.713C280.727 182.792 280.133 182.877 279.53 182.921L280.13 182.865C280.53 182.821 280.928 182.765 281.331 182.713ZM340.6 181.641V181.64V181.641ZM292.515 178.536V178.537V178.536ZM306.581 172.258C306.753 172.308 306.827 172.338 306.878 172.348C306.827 172.337 306.753 172.308 306.581 172.258ZM238.693 171.64C238.251 171.691 237.883 171.746 237.542 171.764L237.894 171.736C238.137 171.71 238.398 171.674 238.693 171.64ZM281.382 166.876H281.383H281.382ZM228.42 154.786L228.123 154.636C228.14 154.586 228.156 154.538 228.173 154.493C228.156 154.538 228.14 154.586 228.123 154.636L228.42 154.787V154.786ZM229.919 153.457H229.92H229.919ZM306.913 153.248L307.13 153.511V153.51L306.913 153.248ZM308.651 152.552C308.595 152.616 308.534 152.675 308.469 152.73C308.534 152.675 308.595 152.616 308.651 152.552ZM308.693 151.991C308.416 152.134 308.16 152.251 307.924 152.377C308.16 152.251 308.416 152.134 308.693 151.991ZM198.165 145.293V145.292V145.293ZM294.54 145.22C294.514 145.298 294.495 145.379 294.48 145.463C294.495 145.379 294.514 145.298 294.54 145.22ZM296.375 144.329V144.33V144.329ZM295.504 144.046C295.362 144.151 295.226 144.261 295.101 144.38C295.226 144.261 295.362 144.151 295.504 144.046ZM257.882 131.477H257.883H257.882ZM238.043 122.204L238.088 122.602V122.601L238.043 122.203V122.204Z" fill="#A86750"/>
<path d="M278.19 369.055C278.475 369.452 278.535 369.672 279.17 369.662C289.815 369.72 296.22 376.442 302.665 383.805C310.11 392.307 313.115 396.015 310.99 408.027C309.858 414.437 304.093 419.628 298.138 422.04C296.18 422.833 296.013 421.583 293.085 423.245C290.103 422.76 288.228 423.685 285.49 423.638C279.468 423.538 275.448 421.97 269.558 424.088C268.643 423.715 267.557 423.313 266.715 422.83C259.218 425.495 255.44 423.947 247.811 424.09C244.59 424.147 240.738 425.062 237.41 425.277C232.446 425.595 227.777 425.44 222.826 425.16C221.277 425.073 219.045 425.762 217.429 425.822C208.398 426.507 199.243 426.733 190.238 425.628C187.248 425.263 184.225 425.788 181.16 425.075C175.778 423.84 171.753 421.285 169.778 415.942C164.82 402.527 175.136 390.65 184.374 382.225C188.103 378.825 191.265 374.802 195.239 371.685C196.931 370.357 198.733 370.122 200.604 369.3C201.921 370.087 204.945 368.995 206.25 369.268C212.142 370.513 217.633 372.675 223.775 372.482C224.512 372.457 228.932 371.875 229.095 371.935C231.943 372.977 232.467 371.73 234.371 371.798C235.224 372.065 236.018 372.12 236.903 372.162L236.616 372.327L236.767 372.162C235.786 372.132 234.872 372.27 234.192 373.022C233.961 373.815 233.923 373.453 234.227 374.152C236.217 375.232 236.602 373.235 237.723 372.013C237.763 371.97 239.272 371.66 239.489 371.617C242.63 371.157 242.023 371.075 244.971 369.883C245.643 370.2 246.718 370.812 247.446 370.729C251.01 370.329 254.435 369.69 258.045 369.787C259.622 369.83 261.445 369.838 262.947 369.325C263.71 369.695 263.765 369.653 264.213 370.4C264.343 371.518 264.09 372.313 263.86 373.42C264.973 372.475 267.455 370.855 267.91 369.897C268.105 369.742 269.035 369.143 269.155 369.15C271.813 369.273 275.401 369.717 277.981 369.397L278.19 369.055ZM181.885 423.294C181.613 423.392 181.323 423.462 180.986 423.513C181.323 423.462 181.613 423.392 181.885 423.294ZM179.045 422.118C179.043 422.148 179.044 422.174 179.05 422.198C179.039 422.149 179.045 422.098 179.062 422.009L179.045 422.118ZM183.864 422.108V422.109V422.108ZM182.193 421.9V421.901V421.9ZM186.737 419.1C185.885 419.672 184.978 420.277 184.124 420.835C183.486 421.252 183.033 421.547 182.642 421.731L182.885 421.607C182.969 421.562 183.056 421.511 183.148 421.456C183.241 421.401 183.337 421.342 183.44 421.277C183.643 421.149 183.869 421.002 184.124 420.835C184.978 420.278 185.885 419.673 186.737 419.101L187.269 419.4L186.737 419.1ZM178.67 418.282H178.671H178.67ZM282.316 417.266H282.317H282.316ZM177.499 417.718H177.5H177.499ZM275.016 417.716V417.717V417.716ZM247.901 416.72H247.902H247.901ZM177.469 416.985H177.47H177.469ZM197.524 415.645C197.244 415.828 197.034 415.957 196.864 416.077C197.034 415.957 197.244 415.828 197.524 415.646V415.645ZM198.303 416.005H198.304H198.303ZM267.482 414.952V414.953V414.952ZM251.079 412.549V412.55V412.549ZM252.474 412.558C252.308 412.661 252.124 412.755 251.939 412.842C252.124 412.755 252.308 412.661 252.474 412.558ZM252.26 411.577V411.578V411.577ZM179.894 410.606C180.254 410.861 180.638 411.145 180.997 411.416C180.459 411.009 179.864 410.574 179.376 410.25L179.894 410.606ZM281.306 403.33C281.125 403.343 280.945 403.349 280.765 403.348C280.945 403.349 281.125 403.343 281.306 403.33ZM281.238 402.901C281.395 402.964 281.54 403.039 281.668 403.127C281.7 403.149 281.731 403.172 281.761 403.196C281.79 403.22 281.818 403.244 281.846 403.27H281.848C281.682 403.116 281.474 402.996 281.238 402.901ZM278.704 402.574V402.575C278.897 402.575 279.094 402.577 279.292 402.583C279.49 402.589 279.69 402.6 279.886 402.617C279.494 402.582 279.09 402.574 278.704 402.574ZM285.871 401.451C285.722 401.518 285.565 401.603 285.395 401.71L285.405 402.117L285.396 401.71C285.566 401.603 285.722 401.518 285.871 401.451ZM298.204 401.033C298.01 401.101 297.789 401.185 297.513 401.28L297.43 401.825H297.431L297.513 401.28C297.788 401.185 298.01 401.101 298.204 401.033ZM281.51 397.747C280.933 398.009 280.288 398.213 279.846 398.574C279.948 398.491 280.06 398.416 280.181 398.347C280.341 398.254 280.515 398.172 280.694 398.094C280.963 397.977 281.245 397.869 281.511 397.748L281.914 397.872H281.915L281.51 397.747ZM192.253 387.338H192.252H192.253ZM193.04 386.066H193.041H193.04ZM193.697 385.464H193.698H193.697Z" fill="#4B4746"/>
</g>
<defs>
<clipPath id="clip0_79_12433">
<rect width="480" height="480" fill="white"/>
</clipPath>
</defs>
</svg>
