<svg width="480" height="480" viewBox="0 0 480 480" fill="none" xmlns="http://www.w3.org/2000/svg">
<g clip-path="url(#clip0_79_11647)">
<path d="M225.421 100.61C226.855 100.259 230.887 101.111 232.615 100.943C238.539 100.369 243.997 100.923 249.865 101.648C254.012 102.112 258.65 101.241 262.845 101.716C265.1 101.972 266.81 102.565 268.975 103.177C271.015 103.808 274.455 103.698 276.352 104.36C281.657 106.21 287.645 107.348 292.91 108.903C297.095 110.139 301.735 112.929 305.82 114.48C311.847 116.768 316.6 119.683 321.62 123.645C325.052 126.306 328.897 127.432 330.499 132.296C331.004 133.699 331.425 133.248 332.41 133.721C335.225 135.076 339.517 139.575 341.212 142.133C343.842 146.099 346.195 149.806 348.807 153.736C350.327 156.022 351.122 159.252 352.182 161.78C353.912 166.777 357.19 173.014 358.222 178.074C359.297 183.341 359.393 188.1 361.193 193.386C362.07 195.959 361.462 203.655 361.735 206.695C361.902 208.548 360.11 215.38 359.515 217.464C363.845 215.536 371.617 212.456 376.217 213.014C381.287 213.63 389.165 215.694 393.733 218.132C394.392 218.485 400.113 223.45 400.832 224.246C406.162 230.134 407.04 237.606 406.57 245.273C406.347 248.9 404.96 252.76 403.76 256.227C402.36 260.28 400.512 265.184 398.272 268.822C396.609 271.517 393.99 273.648 391.58 275.68C390.637 276.473 388.074 279.255 387.33 279.748C384.262 281.775 379.764 285.152 376.58 286.727C374.542 287.737 371.2 288.808 368.842 289.868C366.587 290.88 363.122 292.322 360.757 293.13C358.555 293.88 352.51 293.7 350.225 294.982C349.843 295.195 349.13 298.013 348.892 298.668C346.745 304.61 343.737 310.783 341.022 316.485C339.779 319.097 337.57 321.872 336.243 324.192C330.698 333.895 324.315 341.055 315.712 348.12C312.46 350.792 308.755 353.715 305.29 356.21C304.582 356.72 302.07 357.27 301.065 357.865C299.815 358.61 298.085 359.867 296.785 360.482C292.94 362.3 287.66 364.36 283.44 364.953C282.642 365.065 279.245 364.783 278.325 364.713C278.307 366.207 278.277 367.56 278.19 369.055L277.98 369.397C275.4 369.717 271.812 369.273 269.155 369.15C269.034 369.143 268.105 369.742 267.91 369.897C267.455 370.855 264.972 372.475 263.86 373.42C264.09 372.312 264.342 371.517 264.212 370.4C264.156 370.307 264.107 370.225 264.061 370.154C263.969 370.012 263.893 369.91 263.816 369.829C263.777 369.788 263.739 369.753 263.698 369.72C263.533 369.591 263.328 369.51 262.947 369.325C261.444 369.837 259.622 369.83 258.044 369.788C254.435 369.69 251.01 370.33 247.446 370.73C246.718 370.813 245.643 370.2 244.97 369.882C242.023 371.075 242.63 371.158 239.49 371.618L238.539 371.815C238.129 371.903 237.741 371.991 237.722 372.012C237.652 372.089 237.585 372.168 237.52 372.25C236.936 372.983 236.539 373.886 235.912 374.272C235.842 374.315 235.77 374.351 235.694 374.381C235.314 374.527 234.849 374.49 234.227 374.152C233.923 373.452 233.961 373.815 234.193 373.022C234.872 372.27 235.786 372.133 236.766 372.163L236.618 372.326L236.903 372.163C236.018 372.12 235.224 372.065 234.371 371.798C232.467 371.73 231.942 372.978 229.094 371.935C228.931 371.875 224.514 372.457 223.776 372.482C217.634 372.675 212.143 370.512 206.25 369.267C204.945 368.995 201.922 370.087 200.604 369.299C199.933 367.08 199.884 365.172 199.812 362.865C195.329 361.512 191.328 360.649 186.861 358.567C173.696 352.43 161.663 343.635 151.085 333.73C150.387 333.078 145.672 327.757 145.385 327.134C143.243 322.497 139.728 320.648 136.573 316.855C133.673 313.528 132.351 309.765 130.366 305.96C128.31 302.017 126.701 299.112 125.21 294.902C117.612 295.43 105.614 293.543 99.1684 289.703C92.3548 285.64 83.0069 281.04 78.8823 274.043C77.9796 272.51 75.2472 268.876 74.7358 267.708C73.6528 265.235 73.6327 260.188 73.0727 257.4C71.95 244.284 76.7605 230.758 84.9272 220.606C88.67 215.954 94.9349 213.021 100.526 211.797C102.134 211.445 103.073 210.57 104.878 210.487C107.204 210.38 109.214 210.721 111.506 210.942C116.711 210.949 119.522 210.848 124.459 212.839C124.411 204.406 127.343 194.185 130.091 186.218C131.251 183.442 131.795 178.795 133.04 176.22C135.029 172.103 136.629 166.042 138.657 162.202C142.267 155.365 146.565 146.637 151.435 140.659C156.089 134.945 162.698 128.944 168.42 124.276C170.924 122.062 173.253 119.873 176.13 118.1C188.051 110.777 201.522 105.591 215.06 102.166C217.995 101.423 222.31 101.372 225.421 100.61ZM247.637 345.368C247.912 345.448 247.979 345.48 248.055 345.465C247.979 345.48 247.911 345.447 247.637 345.367V345.368ZM248.199 344.929C248.123 344.97 248.048 345.016 247.973 345.07C248.085 344.989 248.198 344.926 248.315 344.873L248.199 344.929ZM289.862 343.995L289.897 344.304L288.977 345.094V345.095L289.897 344.305L289.863 343.995L289.225 343.812L289.862 343.995ZM263.874 338.849C263.752 338.903 263.615 338.961 263.458 339.032C263.615 338.961 263.752 338.903 263.874 338.849ZM233.339 322.747C233.261 322.856 233.166 322.965 233.051 323.095C233.166 322.965 233.261 322.857 233.339 322.748V322.747ZM232.632 322.608C232.577 322.694 232.532 322.792 232.487 322.914C232.532 322.792 232.577 322.694 232.632 322.608ZM293.952 319.287H293.951H293.952ZM304.377 317.282V317.283V317.282ZM234.864 305.128L234.414 305.387C234.742 305.2 235.004 305.049 235.259 304.89L234.864 305.128ZM234.141 305.294C234.186 305.35 234.2 305.372 234.23 305.381C234.2 305.372 234.186 305.35 234.141 305.294ZM153.557 303.242V303.243V303.242ZM224.453 300.183C224.412 300.216 224.358 300.252 224.292 300.293C224.391 300.232 224.464 300.18 224.503 300.138L224.453 300.183ZM214.988 297.654H214.989H214.988ZM215.365 297.022C215.198 297.043 215.004 297.071 214.751 297.107C215.004 297.071 215.198 297.043 215.365 297.022ZM253.877 292.728C253.826 292.803 253.76 292.878 253.679 292.952C253.76 292.878 253.826 292.803 253.877 292.728ZM305.682 292.727C305.703 292.777 305.735 292.806 305.857 292.958V292.957C305.736 292.806 305.703 292.777 305.682 292.727ZM183.579 291.673C183.423 291.724 183.277 291.767 183.119 291.807C183.277 291.767 183.423 291.724 183.579 291.673ZM260.053 284.673V284.672V284.673ZM292.217 280.686C291.896 280.748 291.55 280.797 291.211 280.846C290.76 280.913 290.323 280.981 289.979 281.086H289.98C290.583 280.902 291.469 280.83 292.217 280.686ZM293.455 280.2C293.479 280.175 293.501 280.15 293.52 280.124V280.123C293.501 280.15 293.479 280.175 293.455 280.2ZM251.067 272.207C250.89 272.298 250.738 272.369 250.596 272.422C250.738 272.369 250.89 272.298 251.067 272.207ZM96.6294 269.184V269.185V269.184ZM96.0444 268.762H96.0454H96.0444ZM114.749 265.493V265.492V265.493ZM189.647 264.99C189.278 265.11 188.922 265.213 188.609 265.312C188.922 265.213 189.278 265.11 189.647 264.99ZM87.8423 260.28V260.279V260.28ZM289.893 259.215V259.216V259.215ZM277.797 257.727C277.594 257.809 277.38 257.883 277.171 257.955C277.38 257.883 277.594 257.809 277.797 257.727ZM306.025 254.923C305.676 255.044 305.289 255.128 304.879 255.257C305.289 255.128 305.676 255.044 306.025 254.923ZM306.942 254.36H306.943H306.942ZM187.469 252.235C186.883 252.872 186.129 253.635 185.639 254.142C186.129 253.635 186.883 252.872 187.469 252.235ZM112.593 253.437L112.376 253.833L112.594 253.437H112.593ZM303.767 249.88C303.732 249.963 303.684 250.048 303.625 250.133C303.684 250.048 303.732 249.963 303.767 249.88ZM95.5005 247.624H95.5014H95.5005ZM210.925 247.126V247.127V247.126ZM240.149 246.817H240.15H240.149ZM352.862 245.213C352.654 245.32 352.466 245.425 352.303 245.525L352.566 245.372C352.659 245.32 352.758 245.266 352.862 245.213ZM329.234 241.356C329.201 241.438 329.163 241.515 329.121 241.589C329.163 241.515 329.201 241.438 329.234 241.356ZM353.654 236.59H353.655H353.654ZM276.854 234.772C276.825 234.811 276.797 234.853 276.766 234.895C276.873 234.747 276.965 234.622 277.053 234.514L276.854 234.772ZM278.243 234.332V234.331V234.332ZM88.4165 232.358C88.8836 232.532 89.2648 232.749 89.6606 232.749C89.542 232.749 89.4248 232.73 89.3061 232.698C89.2666 232.687 89.2269 232.675 89.187 232.662C88.9469 232.582 88.6977 232.462 88.4175 232.357L88.4165 232.358ZM343.175 231.814V231.813V231.814ZM97.6548 228.438C97.6755 228.46 97.697 228.48 97.7192 228.5C97.697 228.48 97.6755 228.46 97.6548 228.438ZM128.169 226.826V226.827V226.826ZM239.987 226.73H239.988H239.987ZM118.203 220.853C118.153 220.897 118.106 220.946 118.06 221.004C118.106 220.946 118.153 220.897 118.203 220.853ZM198.814 217.077L198.137 217.366L198.814 217.078C199.017 217.022 199.181 216.986 199.323 216.956C199.181 216.986 199.016 217.022 198.814 217.077ZM240.408 214.512C240.221 214.565 240.028 214.607 239.832 214.647C240.028 214.607 240.221 214.565 240.408 214.512ZM176.191 203.044C176.309 202.966 176.421 202.884 176.524 202.794C176.421 202.884 176.309 202.966 176.191 203.044ZM305.34 199.393H305.339H305.34ZM306.457 198.614C306.397 198.673 306.334 198.73 306.268 198.786C306.401 198.674 306.521 198.557 306.623 198.433L306.457 198.614ZM222.591 186.472V186.473V186.472ZM199.781 184.954C199.659 185.179 199.544 185.405 199.445 185.636C199.544 185.405 199.659 185.179 199.781 184.954ZM222.541 185.896H222.542H222.541ZM224.53 185.809C224.474 185.852 224.409 185.893 224.336 185.931L224.44 185.873C224.472 185.852 224.502 185.831 224.53 185.809ZM338.466 181.448H338.467H338.466ZM307.302 172.235V172.234V172.235ZM238.692 171.639C238.399 171.507 238.156 171.404 237.938 171.328C238.156 171.404 238.399 171.507 238.692 171.639ZM236.215 171.55C236.391 171.624 236.557 171.676 236.721 171.711C236.557 171.676 236.391 171.624 236.215 171.55ZM307.724 171.498H307.725H307.724ZM241.703 159.084C241.724 159.13 241.747 159.21 241.858 159.443C241.747 159.21 241.724 159.13 241.703 159.084ZM228.934 154.437C229.094 154.332 229.24 154.234 229.373 154.131C229.24 154.234 229.094 154.332 228.934 154.437ZM229.86 153.577C229.839 153.615 229.817 153.651 229.794 153.686C229.84 153.616 229.882 153.541 229.919 153.458L229.86 153.577ZM197.732 145.65V145.651V145.65ZM294.461 145.567H294.462H294.461ZM294.802 145.463C294.716 145.524 294.633 145.588 294.552 145.651C294.735 145.508 294.937 145.367 295.142 145.229L294.802 145.463ZM294.868 144.632H294.869H294.868ZM296.563 144.111C296.528 144.162 296.485 144.212 296.437 144.263C296.485 144.212 296.528 144.162 296.563 144.111ZM304.592 140.23V140.231V140.23ZM306.21 139.64V139.641V139.64ZM257.594 131.918V131.919V131.918ZM280.991 131.434C281.189 131.473 281.384 131.52 281.572 131.577C281.384 131.52 281.189 131.473 280.991 131.434Z" fill="#C77242"/>
<path d="M278.19 369.055C278.475 369.452 278.535 369.672 279.17 369.662C289.815 369.72 296.22 376.442 302.665 383.805C310.11 392.307 313.115 396.015 310.99 408.027C309.858 414.437 304.093 419.628 298.138 422.04C296.18 422.833 296.013 421.583 293.085 423.245C290.103 422.76 288.228 423.685 285.49 423.638C279.468 423.538 275.448 421.97 269.558 424.088C268.643 423.715 267.557 423.313 266.715 422.83C259.218 425.495 255.44 423.947 247.811 424.09C244.59 424.147 240.738 425.062 237.41 425.277C232.446 425.595 227.777 425.44 222.826 425.16C221.277 425.073 219.045 425.762 217.429 425.822C208.398 426.507 199.243 426.733 190.238 425.628C187.248 425.263 184.225 425.788 181.16 425.075C175.778 423.84 171.753 421.285 169.778 415.942C164.82 402.527 175.136 390.65 184.374 382.225C188.103 378.825 191.265 374.802 195.239 371.685C196.931 370.357 198.733 370.122 200.604 369.3C201.921 370.087 204.945 368.995 206.25 369.268C212.142 370.513 217.633 372.675 223.775 372.482C224.512 372.457 228.932 371.875 229.095 371.935C231.943 372.977 232.467 371.73 234.371 371.798C235.224 372.065 236.018 372.12 236.903 372.162L236.616 372.327L236.767 372.162C235.786 372.132 234.872 372.27 234.192 373.022C233.961 373.815 233.923 373.453 234.227 374.152C236.217 375.232 236.602 373.235 237.723 372.013C237.763 371.97 239.272 371.66 239.489 371.617C242.63 371.157 242.023 371.075 244.971 369.883C245.643 370.2 246.718 370.812 247.446 370.729C251.01 370.329 254.435 369.69 258.045 369.787C259.622 369.83 261.445 369.838 262.947 369.325C263.71 369.695 263.765 369.653 264.213 370.4C264.343 371.518 264.09 372.313 263.86 373.42C264.973 372.475 267.455 370.855 267.91 369.897C268.105 369.742 269.035 369.143 269.155 369.15C271.813 369.273 275.401 369.717 277.981 369.397L278.19 369.055ZM181.885 423.294C181.613 423.392 181.323 423.462 180.986 423.513C181.323 423.462 181.613 423.392 181.885 423.294ZM179.045 422.118C179.043 422.148 179.044 422.174 179.05 422.198C179.039 422.149 179.045 422.098 179.062 422.009L179.045 422.118ZM183.864 422.108V422.109V422.108ZM182.193 421.9V421.901V421.9ZM186.737 419.1C185.885 419.672 184.978 420.277 184.124 420.835C183.486 421.252 183.033 421.547 182.642 421.731L182.885 421.607C182.969 421.562 183.056 421.511 183.148 421.456C183.241 421.401 183.337 421.342 183.44 421.277C183.643 421.149 183.869 421.002 184.124 420.835C184.978 420.278 185.885 419.673 186.737 419.101L187.269 419.4L186.737 419.1ZM178.67 418.282H178.671H178.67ZM282.316 417.266H282.317H282.316ZM177.499 417.718H177.5H177.499ZM275.016 417.716V417.717V417.716ZM247.901 416.72H247.902H247.901ZM177.469 416.985H177.47H177.469ZM197.524 415.645C197.244 415.828 197.034 415.957 196.864 416.077C197.034 415.957 197.244 415.828 197.524 415.646V415.645ZM198.303 416.005H198.304H198.303ZM267.482 414.952V414.953V414.952ZM251.079 412.549V412.55V412.549ZM252.474 412.558C252.308 412.661 252.124 412.755 251.939 412.842C252.124 412.755 252.308 412.661 252.474 412.558ZM252.26 411.577V411.578V411.577ZM179.894 410.606C180.254 410.861 180.638 411.145 180.997 411.416C180.459 411.009 179.864 410.574 179.376 410.25L179.894 410.606ZM281.306 403.33C281.125 403.343 280.945 403.349 280.765 403.348C280.945 403.349 281.125 403.343 281.306 403.33ZM281.238 402.901C281.395 402.964 281.54 403.039 281.668 403.127C281.7 403.149 281.731 403.172 281.761 403.196C281.79 403.22 281.818 403.244 281.846 403.27H281.848C281.682 403.116 281.474 402.996 281.238 402.901ZM278.704 402.574V402.575C278.897 402.575 279.094 402.577 279.292 402.583C279.49 402.589 279.69 402.6 279.886 402.617C279.494 402.582 279.09 402.574 278.704 402.574ZM285.871 401.451C285.722 401.518 285.565 401.603 285.395 401.71L285.405 402.117L285.396 401.71C285.566 401.603 285.722 401.518 285.871 401.451ZM298.204 401.033C298.01 401.101 297.789 401.185 297.513 401.28L297.43 401.825H297.431L297.513 401.28C297.788 401.185 298.01 401.101 298.204 401.033ZM281.51 397.747C280.933 398.009 280.288 398.213 279.846 398.574C279.948 398.491 280.06 398.416 280.181 398.347C280.341 398.254 280.515 398.172 280.694 398.094C280.963 397.977 281.245 397.869 281.511 397.748L281.914 397.872H281.915L281.51 397.747ZM192.253 387.338H192.252H192.253ZM193.04 386.066H193.041H193.04ZM193.697 385.464H193.698H193.697Z" fill="#4B4746"/>
</g>
<defs>
<clipPath id="clip0_79_11647">
<rect width="480" height="480" fill="white"/>
</clipPath>
</defs>
</svg>
