<svg width="480" height="480" viewBox="0 0 480 480" fill="none" xmlns="http://www.w3.org/2000/svg">
<g clip-path="url(#clip0_64_803)">
<path fill-rule="evenodd" clip-rule="evenodd" d="M199.153 367.792C199.749 368.359 201.589 369.959 201.751 370.6L201.061 371.425C202.211 374.112 212.418 373.937 215.318 375.484C215.817 375.431 216.419 375.381 217.071 375.34C218.213 375.268 219.511 375.226 220.693 375.245C221.536 375.259 222.321 375.304 222.946 375.393C223.79 375.615 227.408 376.162 228.268 376.112C229.746 376.027 232.627 374.717 234.146 374.38C234.466 374.31 235.697 374.653 236 374.593C241.273 373.523 249.398 372.528 254.25 370.598C254.473 369.885 254.66 369.208 254.855 368.485C255.947 367.66 255.89 369.277 257.773 369.037C260.943 368.632 264.338 368.873 267.51 368.745C268.91 368.69 269.063 368.475 270.79 368.54C270.138 368.668 269.004 368.772 268.592 369.14C271.579 370.285 279.397 375.352 282.239 377.385C282.812 377.722 284.673 379.078 285.045 379.562C284.937 379.651 284.84 379.733 284.755 379.809C284.84 379.733 284.937 379.651 285.045 379.562C287.513 381.068 291.399 385.493 293.052 387.973C298.689 396.448 297.077 404.78 291.108 412.232C285.145 419.677 279.068 419.937 272.165 424.76C267.448 423.497 262.76 424.81 258.11 425.625C257.43 425.745 256.791 425.051 256.603 425.075C247.931 426.283 239.368 424.425 230.681 424.473C230.176 424.475 228.707 423.578 228.218 423.285C221.684 424.255 214.162 423.1 207.684 423.022C204.504 422.82 195.494 424.08 192.695 423.215C185.937 421.128 178.473 422.4 172.171 421.013C164.278 418.828 153.793 415.57 151.945 406.577C148.181 388.252 166.055 379.737 179.871 373.685C185.954 371.02 192.77 369.497 199.153 367.792ZM247.944 420.89H247.945H247.944ZM189.251 419.888H189.252L189.404 419.816C189.339 419.845 189.286 419.869 189.251 419.888ZM204.962 419.575V419.574V419.575ZM278.977 418.383H278.978H278.977ZM191.384 418.688H191.385L190.567 418.325L191.384 418.688ZM277.392 418.51H277.393H277.392ZM277.704 415.978H277.705H277.704ZM172.947 417.532L173.607 417.203L174.288 417.277L173.607 417.202C173.349 417.334 173.134 417.437 172.947 417.532ZM181.021 414.916C180.927 414.992 180.839 415.069 180.757 415.156C180.839 415.069 180.927 414.992 181.021 414.916ZM195.738 414.895C195.441 414.884 195.149 414.887 194.861 414.898C195.149 414.887 195.441 414.885 195.738 414.896V414.895ZM230.751 414.239C230.698 414.3 230.652 414.362 230.614 414.428L230.656 415.075L230.615 414.428C230.653 414.362 230.698 414.299 230.751 414.239ZM219.489 414.487H219.49H219.489ZM279.454 413.442C279.448 413.579 279.423 413.696 279.384 413.8C279.423 413.696 279.449 413.579 279.455 413.442H279.454ZM222.548 412.505H222.549H222.548ZM166.69 413.293V413.294V413.293ZM164.049 413.189V413.19V413.189ZM234.465 412.652C234.35 412.693 234.234 412.734 234.115 412.773L234.466 412.652C234.581 412.611 234.693 412.569 234.802 412.526L234.465 412.652ZM254.637 412.4H254.638H254.637ZM210.631 411.078C210.855 411.242 211.081 411.423 211.308 411.625L210.969 411.337C210.856 411.246 210.743 411.16 210.631 411.078ZM263.634 410.592C263.43 410.688 263.218 410.832 262.989 411.035L263.212 411.295C263.3 411.301 263.385 411.304 263.465 411.305C263.385 411.304 263.301 411.301 263.213 411.295L262.99 411.035C263.219 410.832 263.43 410.688 263.634 410.592ZM223.624 409.652C223.756 409.811 223.863 409.961 223.937 410.188C223.811 410.359 223.67 410.541 223.528 410.728L223.937 410.188C223.924 410.15 223.912 410.114 223.898 410.08C223.828 409.911 223.735 409.785 223.625 409.652H223.624ZM278.784 409.753H278.785L278.125 409.543H278.124L278.784 409.753ZM199.042 410.193H199.043H199.042ZM199.877 409.528H199.878H199.877ZM205.648 409.162V409.163V409.162ZM225.486 408.281C225.306 408.326 225.115 408.364 224.912 408.393C225.115 408.364 225.306 408.326 225.486 408.281ZM288.558 402.604C288.63 402.654 288.703 402.702 288.78 402.745C288.703 402.702 288.63 402.654 288.558 402.604ZM287.791 401.914C287.895 402.028 288.002 402.135 288.112 402.239C288.002 402.135 287.895 402.028 287.791 401.914ZM288.949 401.728H288.95H288.949ZM282.697 399.64C282.808 399.667 282.924 399.683 283.044 399.693C282.924 399.683 282.808 399.667 282.697 399.64ZM280.45 396.435V396.436L280.734 396.872H280.735L280.45 396.435ZM262.818 395.173C262.675 395.315 262.538 395.463 262.387 395.63C262.538 395.463 262.675 395.315 262.818 395.173ZM161.439 390.44H161.44H161.439ZM175.11 390.146C174.985 390.199 174.865 390.24 174.743 390.26L174.865 390.233C174.946 390.212 175.027 390.181 175.11 390.146ZM188.462 383.794H188.461H188.462ZM190.142 383.553H190.143H190.142ZM189.062 383.186L189.061 383.187L189.062 383.186ZM192.846 372.633C192.947 372.652 193.049 372.673 193.151 372.695C192.948 372.65 192.745 372.612 192.541 372.581L192.846 372.633Z" fill="#4B4746"/>
<path fill-rule="evenodd" clip-rule="evenodd" d="M216.502 108.868C220.038 108.288 222.361 107.088 226.055 107.96C226.525 108.07 229.281 107.992 229.966 107.961C239.956 107.513 249.292 109.528 258.827 112.227C261.5 112.976 266.58 114.078 269.08 115.167C272.702 116.744 276.602 118.788 280.3 120.464C283.182 121.771 286.847 123.3 289.572 124.761C292.682 126.427 296.122 129.562 299.024 131.7C300.199 132.566 301.338 133.2 302.517 134.061L302.592 134.866C302.502 134.95 302.405 135.028 302.303 135.103C302.405 135.028 302.503 134.951 302.593 134.866L302.517 134.061C303.55 134.972 304.227 135.302 305.344 136.028L305.794 136.455C308.254 138.852 313.703 145.066 314.925 147.965C315.084 148.345 314.707 150.31 314.592 150.897C315.376 150.693 316.057 149.643 316.574 148.939C322.456 156.228 325.869 161.813 328.971 170.784C329.469 172.223 330.789 174.692 331.082 175.95C332.999 184.195 334.23 192.955 334.192 201.396C334.165 207.35 333.175 213.644 333.032 219.282C332.807 228.238 333.367 236.243 332.582 245.315C332.052 251.463 330.487 254.941 329.59 260.146C342.349 264.7 355.584 265.826 361.721 280.2C365.446 289.203 366.224 301.843 363.099 311.061C361.46 314.553 360.8 318.633 360.187 322.021C360.006 323.012 353.486 332.76 352.75 333.535C348.03 338.482 339.599 343.72 333.01 345.19C331.997 344.743 330.737 343.946 329.734 345.015C326.667 348.282 324.946 347.698 321.181 348.538C316.49 349.583 313.526 349.191 308.974 349.333C308.532 349.018 306.738 347.757 306.359 347.628C302.399 346.308 301.659 347.14 298.627 344.146C297.629 349.497 295.961 351.531 292.217 355.583C290.672 357.253 289.552 357.883 288.372 359.925C286.127 363.815 279.894 367.365 275.592 368.311C273.71 368.725 272.604 368.445 270.79 368.54C269.063 368.475 268.909 368.69 267.51 368.745C264.337 368.873 260.942 368.633 257.772 369.038C255.89 369.278 255.946 367.662 254.854 368.485C254.659 369.208 254.472 369.885 254.25 370.598C249.398 372.528 241.273 373.523 236 374.593C235.697 374.653 234.467 374.311 234.145 374.38C232.627 374.717 229.746 376.027 228.267 376.112C227.407 376.162 223.791 375.615 222.946 375.393C220.943 375.11 217.317 375.27 215.317 375.485C212.418 373.938 202.211 374.112 201.06 371.425L201.751 370.601C201.589 369.961 199.75 368.361 199.153 367.793C199.728 365.866 200.238 363.523 200.721 361.543C197.457 360.871 196.485 361.4 193.191 361.982C191.304 361.215 190.036 360.72 188.285 359.715C187.264 360.216 186.335 360.58 185.293 360.987L185.157 361.04C182.215 358.888 180.223 359.07 176.778 358.468C172.299 357.683 166.366 356.101 161.866 355.945L161.669 355.758L161.336 355.45C159.512 353.743 158.717 353.59 156.144 353.633C155.341 352.898 154.452 352.17 153.617 351.463C152.847 351.595 151.472 351.88 150.765 351.638C147.66 350.798 144.152 347.918 141.188 347.055C137.611 346.012 134.544 345.263 130.984 343.976C121.053 332.373 109.765 323.243 109.872 306.58C109.915 299.808 110.347 293.002 110.805 286.26C112.268 261.185 116.945 236.403 124.723 212.522C126.011 208.512 127.721 204.919 129.072 201.017C130.195 197.773 131.068 194.654 132.291 191.385C137.423 177.801 143.746 164.697 151.188 152.229C152.957 149.244 154.708 145.974 156.656 143.088C159.323 139.137 162.954 135.734 166.261 132.188C168.085 130.23 170.647 126.346 172.406 124.72C176.699 120.75 184.485 117.168 189.891 114.822C190.703 114.471 193.645 114.627 194.684 114.236C196.918 113.395 198.549 111.9 200.761 111.109C201.729 110.764 203.843 111.259 204.684 111.032C206.033 110.669 208.117 109.416 209.459 109.163C211.601 108.695 214.408 109.212 216.502 108.868ZM298.384 136.833C297.672 137.236 297.171 137.777 297.159 138.665C297.351 138.772 297.602 138.814 297.896 138.806C297.602 138.814 297.352 138.772 297.16 138.665C297.172 137.777 297.672 137.236 298.384 136.833ZM300.402 136.008C299.758 136.24 299.105 136.458 298.555 136.74C299.105 136.457 299.758 136.24 300.402 136.008ZM305.174 136.064C305.057 136.095 304.923 136.141 304.771 136.197C304.923 136.141 305.057 136.095 305.174 136.064ZM302.005 135.301C301.873 135.38 301.735 135.454 301.593 135.523C301.735 135.454 301.873 135.38 302.005 135.301Z" fill="#EDC183"/>
</g>
<defs>
<clipPath id="clip0_64_803">
<rect width="480" height="480" fill="white"/>
</clipPath>
</defs>
</svg>
