<svg width="480" height="480" viewBox="0 0 480 480" fill="none" xmlns="http://www.w3.org/2000/svg">
<g clip-path="url(#clip0_79_12767)">
<path d="M199.154 367.793C199.75 368.361 201.59 369.959 201.752 370.6L201.061 371.425C202.211 374.112 212.418 373.937 215.318 375.484C215.818 375.431 216.42 375.381 217.072 375.34C217.725 375.299 218.428 375.268 219.132 375.252C220.538 375.22 221.945 375.251 222.947 375.393C223.791 375.615 227.408 376.162 228.268 376.112C229.747 376.027 232.627 374.717 234.146 374.38C234.467 374.31 235.698 374.653 236.001 374.593C241.274 373.523 249.398 372.528 254.251 370.598C254.473 369.885 254.66 369.208 254.855 368.485C255.948 367.66 255.891 369.277 257.773 369.037C260.943 368.632 264.338 368.873 267.51 368.745C268.91 368.69 269.063 368.475 270.791 368.54C270.138 368.668 269.005 368.772 268.592 369.14C271.58 370.285 279.397 375.352 282.24 377.385C282.812 377.722 284.673 379.077 285.046 379.562C284.937 379.651 284.841 379.733 284.756 379.809C284.841 379.733 284.937 379.651 285.046 379.562C287.513 381.068 291.4 385.493 293.052 387.973C298.69 396.448 297.078 404.78 291.108 412.232C285.146 419.677 279.068 419.937 272.166 424.76C267.448 423.497 262.76 424.81 258.11 425.625C257.43 425.745 256.791 425.051 256.603 425.075C247.931 426.283 239.368 424.425 230.681 424.473C230.176 424.475 228.708 423.578 228.218 423.285C221.685 424.255 214.162 423.1 207.684 423.022C204.504 422.82 195.494 424.08 192.696 423.215C185.938 421.128 178.473 422.4 172.172 421.013C164.279 418.828 153.793 415.57 151.946 406.577C148.182 388.252 166.056 379.737 179.872 373.685C185.954 371.02 192.77 369.498 199.154 367.793ZM247.944 420.89H247.945H247.944ZM189.252 419.888C189.184 420.058 189.139 420.188 189.097 420.294C189.139 420.188 189.185 420.058 189.253 419.888L189.405 419.816C189.339 419.845 189.286 419.869 189.252 419.888ZM204.963 419.575V419.574V419.575ZM278.977 418.383H278.978H278.977ZM191.384 418.688H191.385L190.567 418.325L191.384 418.688ZM277.392 418.51H277.393H277.392ZM277.705 415.978H277.706H277.705ZM172.948 417.532L173.607 417.203L174.289 417.277L173.607 417.202C173.35 417.334 173.135 417.437 172.948 417.532ZM181.021 414.916C180.928 414.992 180.839 415.069 180.757 415.156C180.839 415.069 180.928 414.992 181.021 414.916ZM195.739 414.895C195.441 414.884 195.15 414.887 194.862 414.898C195.15 414.887 195.441 414.885 195.739 414.896V414.895ZM230.752 414.239C230.699 414.3 230.652 414.362 230.615 414.428L230.657 415.075L230.616 414.428C230.653 414.362 230.699 414.299 230.752 414.239ZM219.49 414.487H219.491H219.49ZM279.455 413.442C279.448 413.579 279.424 413.696 279.384 413.8C279.424 413.696 279.449 413.579 279.456 413.442H279.455ZM222.549 412.505H222.549H222.549ZM164.049 413.189V413.19V413.189ZM234.465 412.652C234.351 412.693 234.234 412.734 234.116 412.773L234.466 412.652C234.581 412.611 234.693 412.569 234.802 412.526L234.465 412.652ZM254.637 412.4H254.638H254.637ZM210.632 411.078C210.856 411.242 211.081 411.423 211.308 411.625L210.969 411.337C210.857 411.246 210.744 411.16 210.632 411.078ZM263.634 410.592C263.43 410.688 263.219 410.832 262.99 411.035L263.213 411.295H263.214L262.991 411.035C263.22 410.832 263.43 410.688 263.634 410.592ZM223.625 409.652C223.757 409.811 223.864 409.961 223.937 410.188C223.811 410.359 223.67 410.541 223.528 410.728L223.937 410.188C223.925 410.15 223.912 410.114 223.898 410.08C223.828 409.911 223.735 409.785 223.626 409.652H223.625ZM278.785 409.753H278.786H278.785ZM199.043 410.193H199.044H199.043ZM199.878 409.528H199.879H199.878ZM205.648 409.162V409.163V409.162ZM288.558 402.604C288.63 402.654 288.704 402.702 288.781 402.745C288.704 402.702 288.63 402.654 288.558 402.604ZM287.792 401.914C287.895 402.028 288.003 402.135 288.113 402.239C288.003 402.135 287.895 402.028 287.792 401.914ZM288.95 401.728H288.951H288.95ZM282.698 399.64C282.808 399.667 282.925 399.683 283.045 399.693C282.925 399.683 282.808 399.667 282.698 399.64ZM280.451 396.435V396.436L280.734 396.872H280.735L280.451 396.435ZM262.818 395.173C262.676 395.315 262.538 395.463 262.387 395.63C262.538 395.463 262.676 395.315 262.818 395.173ZM161.439 390.44H161.44H161.439ZM174.866 390.233C174.906 390.222 174.946 390.209 174.987 390.194C174.905 390.224 174.825 390.247 174.744 390.26L174.866 390.233ZM178.043 388.354H178.044H178.043ZM190.142 383.553H190.143H190.142ZM189.062 383.186L189.061 383.187L189.062 383.186ZM192.846 372.633C192.948 372.652 193.049 372.673 193.151 372.695C192.948 372.65 192.746 372.612 192.542 372.581L192.846 372.633Z" fill="#4B4746"/>
<path d="M216.502 108.868C220.038 108.288 222.361 107.088 226.055 107.96C226.525 108.07 229.281 107.992 229.966 107.961C239.956 107.513 249.292 109.528 258.827 112.227C261.5 112.976 266.58 114.078 269.08 115.167C272.702 116.744 276.602 118.788 280.3 120.464C283.182 121.771 286.847 123.3 289.572 124.761C292.682 126.427 296.122 129.562 299.024 131.7C300.199 132.566 301.338 133.2 302.517 134.061L302.592 134.866C302.502 134.95 302.405 135.028 302.303 135.103C302.405 135.028 302.503 134.951 302.593 134.866L302.517 134.061C303.55 134.972 304.227 135.302 305.344 136.028L305.794 136.455C308.254 138.852 313.703 145.066 314.925 147.965C315.084 148.345 314.707 150.31 314.592 150.897C315.376 150.693 316.057 149.643 316.574 148.939C322.456 156.228 325.869 161.813 328.971 170.784C329.469 172.223 330.789 174.692 331.082 175.95C332.999 184.195 334.23 192.955 334.192 201.396C334.165 207.35 333.175 213.644 333.032 219.282C332.807 228.238 333.367 236.243 332.582 245.315C332.052 251.463 330.487 254.941 329.59 260.146C342.349 264.7 355.584 265.826 361.721 280.2C365.446 289.203 366.224 301.843 363.099 311.061C361.46 314.553 360.8 318.633 360.187 322.021C360.006 323.012 353.486 332.76 352.75 333.535C348.03 338.482 339.599 343.72 333.01 345.19C331.997 344.743 330.737 343.946 329.734 345.015C326.667 348.282 324.946 347.698 321.181 348.538C316.49 349.583 313.526 349.191 308.974 349.333C308.532 349.018 306.738 347.757 306.359 347.628C302.399 346.308 301.659 347.14 298.627 344.146C297.629 349.497 295.961 351.531 292.217 355.583C290.672 357.253 289.552 357.883 288.372 359.925C286.127 363.815 279.894 367.365 275.592 368.311C273.71 368.725 272.604 368.445 270.79 368.54C269.063 368.475 268.909 368.69 267.51 368.745C264.337 368.873 260.942 368.633 257.772 369.038C255.89 369.278 255.946 367.662 254.854 368.485C254.659 369.208 254.472 369.885 254.25 370.598C249.398 372.528 241.273 373.523 236 374.593C235.697 374.653 234.467 374.311 234.145 374.38C232.627 374.717 229.746 376.027 228.267 376.112C227.407 376.162 223.791 375.615 222.946 375.393C220.943 375.11 217.317 375.27 215.317 375.485C212.418 373.938 202.211 374.112 201.06 371.425L201.751 370.601C201.589 369.961 199.75 368.361 199.153 367.793C199.728 365.866 200.238 363.523 200.721 361.543C197.457 360.871 196.485 361.4 193.191 361.982C191.304 361.215 190.036 360.72 188.285 359.715C187.264 360.216 186.335 360.58 185.293 360.987L185.157 361.04C182.215 358.888 180.223 359.07 176.778 358.468C172.299 357.683 166.366 356.101 161.866 355.945L161.669 355.758L161.336 355.45C159.512 353.743 158.717 353.59 156.144 353.633C155.341 352.898 154.452 352.17 153.617 351.463C152.847 351.595 151.472 351.88 150.765 351.638C147.66 350.798 144.152 347.918 141.188 347.055C137.611 346.012 134.544 345.263 130.984 343.976C121.053 332.373 109.765 323.243 109.872 306.58C109.915 299.808 110.347 293.002 110.805 286.26C112.268 261.185 116.945 236.403 124.723 212.522C126.011 208.512 127.721 204.919 129.072 201.017C130.195 197.773 131.068 194.654 132.291 191.385C137.423 177.801 143.746 164.697 151.188 152.229C152.957 149.244 154.708 145.974 156.656 143.088C159.323 139.137 162.954 135.734 166.261 132.188C168.085 130.23 170.647 126.346 172.406 124.72C176.699 120.75 184.485 117.168 189.891 114.822C190.703 114.471 193.645 114.627 194.684 114.236C196.918 113.395 198.549 111.9 200.761 111.109C201.729 110.764 203.843 111.259 204.684 111.032C206.033 110.669 208.117 109.416 209.459 109.163C211.601 108.695 214.408 109.212 216.502 108.868ZM298.384 136.833C297.672 137.236 297.171 137.777 297.159 138.665C297.351 138.772 297.602 138.814 297.896 138.806C297.602 138.814 297.351 138.772 297.16 138.665C297.172 137.777 297.672 137.236 298.384 136.833ZM300.402 136.008C299.758 136.24 299.105 136.458 298.555 136.74C299.105 136.457 299.758 136.24 300.402 136.008ZM305.174 136.064C305.057 136.095 304.923 136.141 304.771 136.197C304.923 136.141 305.057 136.095 305.174 136.064ZM302.005 135.301C301.873 135.38 301.735 135.454 301.593 135.523C301.735 135.454 301.873 135.38 302.005 135.301Z" fill="#A86750"/>
</g>
<defs>
<clipPath id="clip0_79_12767">
<rect width="480" height="480" fill="white"/>
</clipPath>
</defs>
</svg>
