<svg width="480" height="480" viewBox="0 0 480 480" fill="none" xmlns="http://www.w3.org/2000/svg">
<g clip-path="url(#clip0_79_12320)">
<path d="M255.098 137.738C263.708 136.906 272.381 137.194 281.033 137.253C286.863 137.292 293.244 138.846 298.971 139.862C303.706 140.702 308.465 141.071 313.005 142.813C326.202 148.065 338.385 155.669 349.96 163.832C350.56 164.255 351.625 165.286 352.112 165.834C355.39 169.518 360.18 172.638 362.608 176.937C364.913 181.026 367.883 184.207 370.51 188.032C371.042 188.823 371.505 191.125 372.005 192.138C379.695 207.83 384.808 224.659 387.143 241.978C387.323 243.307 386.523 244.77 386.745 245.829C387.708 250.397 388.775 253.77 388.49 258.562C388.178 264.352 386.366 269.793 385.078 275.347C383.656 281.48 382.53 287.36 380.245 293.303C377.508 300.525 374.86 307.773 371.593 314.78C370.18 317.662 368.05 320.377 366.603 323.212C364.055 328.202 361.38 334.077 358.03 338.612C354.835 342.937 350.49 347.22 347.273 351.655C346.54 352.665 344.458 353.682 343.533 354.67C338.706 359.66 334.141 363.64 327.981 366.992C325.043 368.589 322.213 371.527 318.923 372.742C309.423 376.972 298.363 379.034 288.021 379.805C285.351 380.005 281.635 378.905 279.758 380.807C278.188 381.977 275.595 380.769 274.17 379.787C268.64 381.352 266.378 381.125 260.651 380.982C259.918 380.962 257.703 381.25 256.651 381.277C256.376 381.135 247.746 380.24 247.283 380.335C239.938 381.842 233.123 375.882 226.623 375.747L227.446 373.047C222.886 372.899 221.718 371.752 218.102 368.987C212.013 370.032 209.206 366.519 203.977 364.327C199.777 363.577 193.061 356.822 190.001 355.755C182.216 353.037 183.2 352.335 178.4 345.655C177.832 344.865 174.719 342.962 173.695 341.832C164.398 331.572 154.455 319.777 150.135 306.43C149.219 303.585 148.863 300.772 147.915 297.945C146.305 297.285 145.924 298.747 144.49 299.484C141.03 301.267 135.806 302.114 131.978 302.769C130.338 303.052 127.726 302.545 126.152 302.63C120.56 302.887 112.51 301.497 107.57 298.782C103.956 296.795 99.1999 293.242 95.7141 290.934C89.4863 286.809 84.688 277.182 83.9348 269.917C82.8811 259.524 83.9962 249.027 87.2101 239.089C89.9951 230.212 93.8254 225.051 99.5988 217.817C102.267 214.474 106.205 212.344 109.782 210.115C111.087 209.302 112.693 208.774 114.069 208.085C118.978 204.796 122.15 205.475 127.468 205.036C136.146 204.319 144.322 204.795 152.168 209.046C153.683 209.866 155.183 211.097 156.6 212.312L157.986 213.507L158.159 213.536C158.998 213.711 159.42 214.34 160.164 214.923H160.165C161.185 211.709 162.629 208.647 163.816 205.627C167.829 195.408 172.817 186.43 181.033 178.951C182.519 177.265 183.869 175.346 185.441 173.744C186.545 172.699 188.296 172.032 189.3 170.905C195.69 163.733 202.389 157.682 210.674 152.523C222.508 145.291 237.179 141.065 250.523 137.448C251.738 137.119 253.71 137.872 255.098 137.738ZM270.754 372.221V372.221V372.221ZM218.82 367.033H218.82H218.82ZM220.689 365.858H220.69H220.689ZM295.295 355.508V355.507V355.508ZM276.313 351.638H276.314H276.313ZM313.169 348C313.097 348.056 313.024 348.105 312.95 348.147C313.024 348.105 313.097 348.056 313.169 348ZM191.625 327.465H191.626H191.625ZM296.517 324.052H296.518H296.517ZM308.957 323.345H308.958H308.957ZM224.201 321.492H224.202H224.201ZM298.742 322.817H298.743H298.742ZM354.97 320.007V320.008V320.007ZM234.674 318.442H234.675H234.674ZM343.22 318.175C343 318.201 342.795 318.222 342.602 318.236C342.795 318.222 343 318.201 343.221 318.175C343.03 318.097 342.846 318.027 342.669 317.963L343.22 318.175ZM236.978 316.91H236.979H236.978ZM286.367 312.529C285.972 312.754 285.591 312.947 285.38 313.072C285.591 312.947 285.972 312.754 286.367 312.529ZM287.741 311.361H287.742L287.75 311.303L287.741 311.361ZM312.569 301.18H312.568H312.569ZM115.268 292.872V292.873V292.872ZM274.398 286.859V286.86V286.859ZM192.793 285.343H192.794L191.612 285.197H191.611L192.793 285.343ZM219.043 283.565H219.044H219.043ZM287.397 277.702V277.701V277.702ZM287.604 277.708V277.709V277.708ZM287.839 277.067H287.84H287.839ZM223.007 269.034C222.911 269.083 222.818 269.135 222.728 269.189C222.818 269.135 222.911 269.083 223.007 269.034ZM118.832 267.492C118.88 267.495 118.927 267.497 118.976 267.498C118.927 267.497 118.88 267.495 118.832 267.492ZM208.678 258.45H208.679H208.678ZM118.872 253.17C118.443 253.618 117.778 254.225 117.13 254.847C116.807 255.158 116.488 255.473 116.205 255.773C116.017 255.973 115.844 256.167 115.697 256.348C116.504 255.348 118.086 253.991 118.872 253.17ZM119.337 252.529C119.337 252.586 119.293 252.672 119.212 252.78C119.293 252.672 119.338 252.587 119.338 252.53L119.337 252.529ZM141.21 248.065H141.211H141.21ZM142.101 247.16C141.979 247.243 141.864 247.331 141.755 247.425C141.864 247.331 141.979 247.243 142.101 247.16ZM283.618 247.311C283.369 247.386 283.111 247.456 282.845 247.523L282.846 247.524C283.112 247.457 283.369 247.386 283.618 247.311ZM143.077 246.615H143.078H143.077ZM288.272 244.576C288.305 244.604 288.322 244.622 288.33 244.645C288.322 244.622 288.305 244.604 288.272 244.576ZM165.845 231.55H165.846H165.845ZM154.705 222.885V222.886V222.885ZM275.595 219.848L275.665 220.116L275.596 219.848L275.373 219.846L275.595 219.848ZM130.999 217.892V217.891V217.892ZM283.811 209.857C283.713 209.923 283.615 210.012 283.487 210.149C283.615 210.012 283.713 209.923 283.811 209.857ZM371.412 206.328H371.413H371.412ZM341.137 186.169H341.138H341.137ZM342.838 184.755C343.074 184.638 343.299 184.531 343.49 184.432C343.299 184.531 343.074 184.638 342.838 184.755ZM206.851 173.954V173.955V173.954ZM275.532 166.24H275.533H275.532ZM238.797 153.402C238.627 153.494 238.467 153.604 238.308 153.726C238.467 153.604 238.627 153.494 238.797 153.402ZM239.504 153.154C239.557 153.145 239.613 153.137 239.669 153.131C239.613 153.137 239.558 153.145 239.504 153.154ZM279.695 147.495V147.496L279.845 147.681H279.846L279.695 147.495Z" fill="#A86750"/>
<path d="M226.622 375.748C233.122 375.883 239.937 381.842 247.282 380.335C247.745 380.241 256.375 381.135 256.65 381.277C257.702 381.25 259.917 380.962 260.65 380.982C261.366 381 262.028 381.019 262.649 381.036C266.994 381.154 269.331 381.156 274.169 379.787C274.436 379.971 274.745 380.164 275.08 380.347C275.526 380.59 276.02 380.818 276.526 380.988C276.907 381.116 277.294 381.211 277.675 381.258C277.802 381.273 277.928 381.283 278.053 381.287C278.676 381.306 279.266 381.173 279.757 380.808L281.017 381.605C291.709 383.89 302.262 385.345 308.444 395.468C309.029 396.428 310.282 398.8 309.957 399.902C308.747 404.005 311.342 408.248 307.98 412.025C303.842 416.675 298.777 420.748 293.709 424.311C292.071 425.405 285.122 425.333 281.845 426.705C280.572 426.19 278.852 425.435 277.587 425.015C276.467 425.292 275.349 425.578 274.234 425.873C270.207 424.526 264.839 424.735 261.026 426.585C259.674 425.92 258.609 425.462 257.209 424.902C249.083 427.015 242.504 425.855 234.259 425.907C233.186 425.915 231.542 426.38 230.415 426.345C229.182 426.305 227.707 425.748 226.495 425.646C224.348 425.466 221.996 425.892 219.833 425.897C217.308 425.905 214.926 425.625 212.417 425.593C209.18 425.973 206.231 427.068 202.912 426.853C200.853 426.718 199.493 425.888 197.644 425.513C193.908 424.755 190.404 424.618 187.068 422.513C184.571 420.935 182.76 419.488 181.023 417.195L180.676 416.725L180.636 416.605C180.309 415.643 180.291 415.495 180.451 414.492L180.738 412.685C180.159 410.045 182.29 406.07 183.363 403.638C186.43 396.685 194.071 390.04 200.401 386.125C202.566 384.788 204.879 383.785 207.109 382.57C208.529 381.798 209.699 380.545 211.203 379.955C213.552 379.035 216.237 378.075 218.703 377.545C220.61 377.133 222.757 377.238 224.599 376.633C225.281 376.41 225.942 376.013 226.622 375.748ZM213.806 420.948H213.807H213.806ZM204.824 419.765C204.783 419.817 204.743 419.87 204.705 419.925C204.73 420.108 204.741 420.223 204.751 420.304C204.741 420.223 204.73 420.108 204.705 419.925C204.743 419.87 204.783 419.817 204.824 419.765ZM205.907 418.819V418.82V418.819ZM209.665 417.098V417.099V417.098ZM270.63 416.529C270.537 416.598 270.462 416.666 270.414 416.73H270.415C270.463 416.666 270.537 416.598 270.63 416.529ZM273.574 415.202C273.192 415.363 272.499 415.617 271.853 415.894C272.176 415.755 272.511 415.623 272.813 415.505C273.114 415.387 273.383 415.284 273.574 415.203V415.202ZM296.691 405.71C296.073 406.054 295.319 406.409 294.932 406.598H294.933C295.32 406.409 296.074 406.054 296.691 405.71ZM211.859 405.726C211.945 405.736 212.03 405.746 212.115 405.753L212.114 405.752C212.029 405.745 211.944 405.736 211.859 405.726ZM208.293 404.295C208.937 404.718 209.632 405.091 210.36 405.356C209.956 405.209 209.562 405.028 209.181 404.824C208.876 404.661 208.58 404.483 208.294 404.295H208.293ZM298.937 405.276C298.986 405.289 299.024 405.302 299.059 405.313C298.969 405.284 298.848 405.256 298.587 405.186L298.937 405.276ZM298.001 404.66C297.866 404.811 297.716 404.969 297.544 405.14L297.545 405.141C297.717 404.97 297.866 404.811 298.001 404.66ZM197.084 402.998C196.947 403.106 196.83 403.213 196.74 403.317C196.83 403.213 196.947 403.106 197.084 402.998ZM300.692 402.202C300.469 402.315 300.275 402.426 300.102 402.533C300.275 402.425 300.47 402.317 300.693 402.203L300.692 402.202ZM283.413 401.299C283.247 401.305 283.052 401.318 282.802 401.33C283.329 401.602 283.707 401.835 284.195 401.982C284.033 401.933 283.882 401.874 283.734 401.808C283.587 401.741 283.441 401.667 283.289 401.587C283.137 401.507 282.978 401.421 282.803 401.33C283.052 401.318 283.247 401.305 283.413 401.299ZM199.556 401.647L199.557 401.648L199.556 401.647ZM211.759 400.58C211.487 400.686 211.18 400.765 210.841 400.89C211.18 400.765 211.487 400.686 211.759 400.58ZM210.04 400.607C210.147 400.646 210.296 400.704 210.443 400.759C210.296 400.704 210.148 400.646 210.041 400.607C210.065 400.58 210.09 400.554 210.115 400.529C210.089 400.554 210.064 400.58 210.04 400.607ZM212.313 400.264C212.258 400.311 212.201 400.353 212.142 400.391C212.201 400.353 212.258 400.311 212.313 400.264ZM211.685 395.652C211.954 395.666 212.224 395.677 212.489 395.687C212.224 395.677 211.954 395.666 211.685 395.652ZM209.473 395.454H209.474H209.473ZM302.627 392.979V392.98V392.979ZM221.388 383.562H221.389H221.388Z" fill="#4B4746"/>
</g>
<defs>
<clipPath id="clip0_79_12320">
<rect width="480" height="480" fill="white"/>
</clipPath>
</defs>
</svg>
