<svg width="480" height="480" viewBox="0 0 480 480" fill="none" xmlns="http://www.w3.org/2000/svg">
<g clip-path="url(#clip0_79_11981)">
<path d="M199.153 367.792C199.749 368.359 201.588 369.959 201.751 370.6L201.061 371.425C202.211 374.112 212.419 373.938 215.318 375.485C215.568 375.458 215.843 375.432 216.137 375.407C217.021 375.334 218.075 375.276 219.131 375.252C219.482 375.244 219.834 375.241 220.179 375.241L220.692 375.245C221.536 375.259 222.32 375.304 222.946 375.393C223.789 375.615 227.407 376.162 228.267 376.112C229.746 376.027 232.627 374.717 234.146 374.38C234.467 374.31 235.698 374.653 236.001 374.593C241.274 373.523 249.397 372.528 254.25 370.598C254.472 369.885 254.66 369.208 254.855 368.485C255.948 367.66 255.89 369.277 257.772 369.037C260.942 368.632 264.337 368.873 267.509 368.745C268.909 368.69 269.062 368.475 270.79 368.54C270.137 368.668 269.005 368.772 268.592 369.14C271.393 370.213 278.439 374.734 281.651 376.97L282.24 377.385L282.509 377.556C283.254 378.048 284.719 379.138 285.045 379.562L285.28 379.712C287.753 381.342 291.452 385.57 293.052 387.973C298.69 396.448 297.077 404.78 291.107 412.232C285.145 419.677 279.067 419.937 272.165 424.76C267.447 423.497 262.76 424.81 258.11 425.625C257.43 425.745 256.79 425.05 256.602 425.075C247.93 426.283 239.367 424.425 230.68 424.473C230.175 424.475 228.707 423.578 228.217 423.285C221.684 424.255 214.161 423.1 207.683 423.022C204.503 422.82 195.494 424.08 192.696 423.215C185.937 421.127 178.472 422.4 172.171 421.013C164.278 418.828 153.792 415.57 151.945 406.577C148.181 388.253 166.055 379.737 179.871 373.685C185.953 371.02 192.77 369.497 199.153 367.792ZM203.257 421.343H203.256H203.257ZM191.384 418.688L191.345 419.042C191.029 419.177 190.166 419.503 189.636 419.719C190.166 419.503 191.03 419.177 191.346 419.042L191.384 418.688L190.567 418.325H190.566L191.384 418.688ZM204.962 419.575V419.574V419.575ZM273.872 419.494H273.873H273.872ZM277.036 418.585H277.037H277.036ZM172.173 418.032C172.057 418.134 171.941 418.252 171.819 418.4L172.032 418.162C172.078 418.115 172.126 418.073 172.173 418.032ZM278.68 418.064H278.681H278.68ZM172.454 417.812V417.812V417.812ZM173.606 417.202V417.203V417.202ZM180.349 415.78L180.589 415.952L180.35 415.78H180.349ZM218.881 415.173C218.996 415.091 219.093 415.006 219.177 414.916C219.093 415.006 218.996 415.091 218.881 415.173ZM192.277 415.15H192.278H192.277ZM195.738 414.895V414.896V414.895ZM230.676 414.331H230.677H230.676ZM230.93 414.065H230.931H230.93ZM231.405 413.756H231.406H231.405ZM232.405 413.846V413.847V413.846ZM167.006 413.259C166.795 413.285 166.583 413.305 166.37 413.318C166.583 413.305 166.795 413.285 167.006 413.259ZM164.049 413.189V413.19V413.189ZM163.828 413.03H163.829H163.828ZM234.801 412.526H234.802H234.801ZM255.716 412.015C255.369 412.134 255.013 412.261 254.637 412.4L254.724 412.524L254.637 412.4C255.013 412.261 255.369 412.134 255.716 412.015ZM222.582 412.354H222.583H222.582ZM269.144 411.938H269.145H269.144ZM210.631 411.078V411.077V411.078ZM275.762 411.186H275.763H275.762ZM223.484 409.487H223.485H223.484ZM205.647 409.162V409.163V409.162ZM200.161 409.327H200.162H200.161ZM204.006 404.043H204.006H204.006ZM288.638 402.659C288.731 402.718 288.827 402.773 288.927 402.822C288.827 402.773 288.731 402.718 288.638 402.659ZM287.559 401.649C287.705 401.821 287.852 401.987 288.007 402.142C287.852 401.987 287.705 401.821 287.559 401.649ZM174.475 400.492C174.592 400.558 174.708 400.639 174.831 400.735C174.708 400.639 174.592 400.558 174.475 400.492ZM284.972 399.593C284.758 399.593 284.51 399.617 284.251 399.644C284.121 399.657 283.988 399.671 283.854 399.682H283.855C284.256 399.648 284.651 399.593 284.972 399.593ZM158.786 399.463H158.785H158.786ZM286.252 399.254H286.253H286.252ZM279.03 398.389C279.021 398.433 279.015 398.476 279.012 398.52C279.015 398.476 279.021 398.433 279.03 398.389ZM280.45 396.435C280.324 396.579 280.173 396.738 280.018 396.906C280.173 396.738 280.324 396.58 280.45 396.436L280.734 396.872H280.735L280.45 396.435ZM263.276 394.748C262.77 395.186 262.459 395.542 261.88 396.202L261.844 396.607H261.845L261.88 396.202C262.266 395.762 262.533 395.457 262.818 395.173C262.96 395.031 263.107 394.894 263.276 394.748ZM160.388 391.532H160.389H160.388ZM174.986 390.194H174.987H174.986ZM176.368 389.581H176.369H176.368ZM178.036 388.919H178.037H178.036ZM178.302 388.558H178.303H178.302ZM174.675 387.471H174.674H174.675ZM279.334 383.891H279.335H279.334Z" fill="#4B4746"/>
<path d="M216.502 108.868C220.038 108.288 222.361 107.088 226.055 107.96C226.525 108.07 229.281 107.992 229.966 107.961C239.956 107.513 249.292 109.528 258.827 112.227C261.5 112.976 266.58 114.078 269.08 115.167C272.702 116.744 276.602 118.788 280.3 120.464C283.182 121.771 286.847 123.3 289.572 124.761C292.682 126.427 296.122 129.562 299.024 131.7C300.199 132.566 301.338 133.2 302.517 134.061L302.592 134.866C302.502 134.95 302.405 135.028 302.303 135.103C302.405 135.028 302.503 134.951 302.593 134.866L302.517 134.061C303.55 134.972 304.227 135.302 305.344 136.028L305.794 136.455C308.254 138.852 313.703 145.066 314.925 147.965C315.084 148.345 314.707 150.31 314.592 150.897C315.376 150.693 316.057 149.643 316.574 148.939C322.456 156.228 325.869 161.813 328.971 170.784C329.469 172.223 330.789 174.692 331.082 175.95C332.999 184.195 334.23 192.955 334.192 201.396C334.165 207.35 333.175 213.644 333.032 219.282C332.807 228.238 333.367 236.243 332.582 245.315C332.052 251.463 330.487 254.941 329.59 260.146C342.349 264.7 355.584 265.826 361.721 280.2C365.446 289.203 366.224 301.843 363.099 311.061C361.46 314.553 360.8 318.633 360.187 322.021C360.006 323.012 353.486 332.76 352.75 333.535C348.03 338.482 339.599 343.72 333.01 345.19C331.997 344.743 330.737 343.946 329.734 345.015C326.667 348.282 324.946 347.698 321.181 348.538C316.49 349.583 313.526 349.191 308.974 349.333C308.532 349.018 306.738 347.757 306.359 347.628C302.399 346.308 301.659 347.14 298.627 344.146C297.629 349.497 295.961 351.531 292.217 355.583C290.672 357.253 289.552 357.883 288.372 359.925C286.127 363.815 279.894 367.365 275.592 368.311C273.71 368.725 272.604 368.445 270.79 368.54C269.063 368.475 268.909 368.69 267.51 368.745C264.337 368.873 260.942 368.633 257.772 369.038C255.89 369.278 255.946 367.662 254.854 368.485C254.659 369.208 254.472 369.885 254.25 370.598C249.398 372.528 241.273 373.523 236 374.593C235.697 374.653 234.467 374.311 234.145 374.38C232.627 374.717 229.746 376.027 228.267 376.112C227.407 376.162 223.791 375.615 222.946 375.393C220.943 375.11 217.317 375.27 215.317 375.485C212.418 373.938 202.211 374.112 201.06 371.425L201.751 370.601C201.589 369.961 199.75 368.361 199.153 367.793C199.728 365.866 200.238 363.523 200.721 361.543C197.457 360.871 196.485 361.4 193.191 361.982C191.304 361.215 190.036 360.72 188.285 359.715C187.264 360.216 186.335 360.58 185.293 360.987L185.157 361.04C182.215 358.888 180.223 359.07 176.778 358.468C172.299 357.683 166.366 356.101 161.866 355.945L161.669 355.758L161.336 355.45C159.512 353.743 158.717 353.59 156.144 353.633C155.341 352.898 154.452 352.17 153.617 351.463C152.847 351.595 151.472 351.88 150.765 351.638C147.66 350.798 144.152 347.918 141.188 347.055C137.611 346.012 134.544 345.263 130.984 343.976C121.053 332.373 109.765 323.243 109.872 306.58C109.915 299.808 110.347 293.002 110.805 286.26C112.268 261.185 116.945 236.403 124.723 212.522C126.011 208.512 127.721 204.919 129.072 201.017C130.195 197.773 131.068 194.654 132.291 191.385C137.423 177.801 143.746 164.697 151.188 152.229C152.957 149.244 154.708 145.974 156.656 143.088C159.323 139.137 162.954 135.734 166.261 132.188C168.085 130.23 170.647 126.346 172.406 124.72C176.699 120.75 184.485 117.168 189.891 114.822C190.703 114.471 193.645 114.627 194.684 114.236C196.918 113.395 198.549 111.9 200.761 111.109C201.729 110.764 203.843 111.259 204.684 111.032C206.033 110.669 208.117 109.416 209.459 109.163C211.601 108.695 214.408 109.212 216.502 108.868ZM298.384 136.833C297.672 137.236 297.171 137.777 297.159 138.665C297.351 138.772 297.602 138.814 297.896 138.806C297.602 138.814 297.351 138.772 297.16 138.665C297.172 137.777 297.672 137.236 298.384 136.833ZM300.402 136.008C299.758 136.24 299.105 136.458 298.555 136.74C299.105 136.457 299.758 136.24 300.402 136.008ZM305.174 136.064C305.057 136.095 304.923 136.141 304.771 136.197C304.923 136.141 305.057 136.095 305.174 136.064ZM302.005 135.301C301.873 135.38 301.735 135.454 301.593 135.523C301.735 135.454 301.873 135.38 302.005 135.301Z" fill="#C77242"/>
</g>
<defs>
<clipPath id="clip0_79_11981">
<rect width="480" height="480" fill="white"/>
</clipPath>
</defs>
</svg>
