<svg width="480" height="480" viewBox="0 0 480 480" fill="none" xmlns="http://www.w3.org/2000/svg">
<g clip-path="url(#clip0_79_13219)">
<path d="M225.42 100.61C226.853 100.259 230.887 101.111 232.615 100.943C238.539 100.369 243.997 100.923 249.865 101.648C254.012 102.112 258.65 101.241 262.845 101.717C265.1 101.972 266.81 102.566 268.975 103.177C271.015 103.808 274.454 103.698 276.352 104.36C281.657 106.21 287.645 107.348 292.91 108.903C297.095 110.139 301.735 112.929 305.82 114.48C311.847 116.768 316.6 119.684 321.62 123.646C325.052 126.307 328.897 127.433 330.499 132.297C331.004 133.7 331.425 133.249 332.41 133.722C335.225 135.077 339.517 139.577 341.212 142.135C343.842 146.1 346.195 149.807 348.807 153.737C350.327 156.023 351.122 159.253 352.182 161.781C353.912 166.778 357.19 173.014 358.222 178.074C359.297 183.341 359.392 188.1 361.192 193.386C362.069 195.959 361.462 203.655 361.735 206.695C361.902 208.548 360.11 215.379 359.515 217.464C363.845 215.536 371.617 212.457 376.217 213.015C381.287 213.631 389.164 215.695 393.732 218.134C394.389 218.485 400.112 223.451 400.832 224.247C406.162 230.134 407.04 237.606 406.57 245.273C406.347 248.9 404.96 252.761 403.76 256.228C402.36 260.281 400.512 265.186 398.272 268.823C396.609 271.518 393.989 273.648 391.58 275.68C390.637 276.473 388.074 279.255 387.33 279.748C384.262 281.775 379.764 285.153 376.58 286.728C374.542 287.738 371.2 288.808 368.842 289.868C366.587 290.88 363.122 292.323 360.757 293.131C358.555 293.881 352.51 293.701 350.225 294.983C349.843 295.196 349.13 298.013 348.892 298.668C346.745 304.61 343.737 310.783 341.022 316.485C339.779 319.098 337.57 321.873 336.243 324.193C330.698 333.895 324.315 341.055 315.712 348.12C312.46 350.792 308.755 353.716 305.29 356.211C304.582 356.721 302.07 357.27 301.065 357.865C299.815 358.61 298.085 359.868 296.785 360.483C292.94 362.301 287.66 364.36 283.44 364.953C282.642 365.065 279.245 364.783 278.325 364.713C278.307 366.208 278.277 367.56 278.19 369.055L277.98 369.398C275.4 369.718 271.812 369.273 269.155 369.15C269.034 369.143 268.105 369.743 267.91 369.898C267.454 370.856 264.972 372.476 263.86 373.421C263.917 373.144 263.976 372.886 264.03 372.638C264.057 372.515 264.083 372.393 264.107 372.273C264.131 372.153 264.151 372.033 264.17 371.914C264.246 371.437 264.277 370.959 264.212 370.4C264.157 370.307 264.107 370.226 264.061 370.155C263.969 370.012 263.893 369.91 263.816 369.829C263.624 369.627 263.423 369.556 262.947 369.325C261.444 369.837 259.622 369.83 258.044 369.788C254.435 369.69 251.01 370.33 247.446 370.73C246.718 370.813 245.643 370.2 244.97 369.883C242.023 371.075 242.63 371.158 239.49 371.618L238.539 371.815C238.13 371.903 237.743 371.991 237.722 372.012C237.582 372.165 237.453 372.33 237.331 372.5C236.48 373.686 235.968 375.098 234.227 374.153C233.923 373.453 233.96 373.815 234.192 373.023C234.871 372.271 235.786 372.133 236.766 372.163L236.616 372.328L236.903 372.163C236.018 372.12 235.224 372.065 234.371 371.798C232.467 371.73 231.942 372.978 229.094 371.935C228.93 371.876 224.511 372.458 223.775 372.483C217.633 372.676 212.142 370.513 206.25 369.268C204.945 368.996 201.922 370.088 200.604 369.301C199.933 367.081 199.884 365.172 199.812 362.865C195.329 361.512 191.328 360.651 186.86 358.568C173.695 352.431 161.663 343.635 151.085 333.73C150.388 333.078 145.673 327.759 145.385 327.135C143.243 322.498 139.728 320.648 136.573 316.855C133.673 313.528 132.351 309.766 130.366 305.961C128.31 302.018 126.701 299.113 125.21 294.903C117.611 295.431 105.614 293.543 99.1684 289.703C92.3547 285.64 83.0068 281.04 78.8823 274.043C77.9795 272.51 75.2468 268.875 74.7358 267.708C73.6528 265.235 73.6327 260.188 73.0727 257.4C71.95 244.284 76.7605 230.758 84.9272 220.606C88.67 215.954 94.935 213.021 100.526 211.797C102.134 211.445 103.073 210.571 104.878 210.488C107.204 210.381 109.214 210.721 111.506 210.942C116.711 210.949 119.522 210.848 124.459 212.839C124.411 204.406 127.343 194.185 130.091 186.218C131.251 183.442 131.795 178.795 133.04 176.22C135.029 172.103 136.629 166.042 138.657 162.202C142.267 155.365 146.565 146.638 151.435 140.66C156.09 134.946 162.698 128.944 168.42 124.276C170.924 122.062 173.252 119.873 176.129 118.1C188.05 110.777 201.522 105.591 215.06 102.166C217.995 101.423 222.309 101.372 225.42 100.61ZM248.199 344.929H248.2H248.199ZM289.862 343.995H289.863L289.225 343.813L289.862 343.995ZM264.376 338.555C264.256 338.665 264.116 338.741 263.943 338.82C264.116 338.741 264.256 338.665 264.376 338.555ZM221.396 326.197H221.397H221.396ZM232.373 323.285L232.644 323.581V323.58L232.373 323.285ZM292.608 320.953H292.609H292.608ZM294.282 318.64C294.185 318.869 294.073 319.083 293.951 319.288H293.952C294.074 319.083 294.186 318.869 294.283 318.64H294.282ZM224.059 300.426L224.06 300.427L224.059 300.426ZM209.311 300.103H209.312H209.311ZM214.988 297.654H214.989H214.988ZM246.684 296.501V296.5V296.501ZM253.981 292.5C253.963 292.577 253.929 292.653 253.877 292.728C253.852 292.766 253.823 292.803 253.79 292.841V292.842C253.889 292.729 253.955 292.616 253.982 292.501L253.981 292.5ZM307.537 292.192V292.193V292.192ZM183.823 291.588C183.736 291.619 183.656 291.648 183.578 291.674C183.811 291.596 184.069 291.498 184.432 291.358L183.823 291.588ZM185.168 291.142L185.17 291.143L185.168 291.142ZM139.479 286.179H139.48H139.479ZM261.117 284.746V284.745V284.746ZM95.7836 268.949C95.6589 269.048 95.5445 269.157 95.4438 269.278C95.5445 269.157 95.6589 269.048 95.7836 268.949ZM296.598 266.556C296.312 266.726 295.936 266.927 295.515 267.142C295.936 266.927 296.312 266.726 296.598 266.556ZM115.456 266.059V266.058V266.059ZM187.827 265.612H187.828H187.827ZM114.492 265.117V265.116V265.117ZM88.1167 260.359H88.1176H88.1167ZM90.3276 259.772C90.2682 259.828 90.2095 259.878 90.1518 259.923C90.2095 259.878 90.2682 259.828 90.3276 259.772ZM89.4213 259.591H89.4223H89.4213ZM276.573 258.166V258.165V258.166ZM306.401 254.765C306.361 254.786 306.321 254.805 306.28 254.823C306.362 254.787 306.441 254.747 306.518 254.702L306.401 254.765ZM306.942 254.36C306.878 254.43 306.81 254.493 306.74 254.55C306.81 254.493 306.878 254.43 306.942 254.36ZM112.593 253.438H112.594H112.593ZM91.3217 251.682V251.683V251.682ZM289.238 250.73H289.239H289.238ZM326.874 249.575C326.966 249.582 327.059 249.582 327.154 249.575C327.059 249.582 326.966 249.582 326.874 249.575ZM95.5004 247.624L95.4086 248.098L95.5014 247.624C95.7232 247.433 95.9443 247.248 96.1655 247.067L95.5004 247.624ZM101.022 244.558C100.717 244.781 100.31 245.061 99.853 245.366C100.31 245.061 100.717 244.781 101.022 244.558ZM211.91 246.105C211.748 246.259 211.593 246.421 211.432 246.591C211.272 246.76 211.105 246.937 210.924 247.126L210.925 247.127C211.288 246.749 211.587 246.413 211.91 246.105ZM352.565 245.372H352.566H352.565ZM328.979 241.801C328.877 241.936 328.76 242.061 328.633 242.184C328.76 242.061 328.877 241.936 328.979 241.801ZM370.023 231.526H370.024H370.023ZM372.03 228.9C371.819 229.086 371.607 229.28 371.41 229.475C371.311 229.573 371.216 229.67 371.126 229.766V229.767C371.394 229.477 371.714 229.179 372.03 228.9ZM98.3745 228.796H98.3754H98.3745ZM248.781 226.114V226.113V226.114ZM353.26 225.954V225.953V225.954ZM129.659 223.726H129.66H129.659ZM200.248 216.512C200.169 216.588 200.099 216.649 200.029 216.697C200.099 216.649 200.169 216.588 200.248 216.512ZM239.238 214.771V214.77V214.771ZM301.368 206.476V206.475V206.476ZM303.426 205.872H303.425H303.426ZM306.267 198.787H306.268H306.267ZM199.781 184.955C199.659 185.18 199.544 185.406 199.445 185.636C199.544 185.406 199.659 185.18 199.781 184.955ZM277.516 183.595L277.517 183.594L277.516 183.595ZM280.129 182.865C280.529 182.821 280.927 182.766 281.33 182.714C280.927 182.766 280.529 182.821 280.129 182.865ZM337.788 181.776H337.789H337.788ZM339.092 181.245C338.825 181.34 338.626 181.401 338.467 181.449C338.626 181.401 338.825 181.341 339.092 181.246V181.245ZM291.444 178.918C291.365 178.939 291.287 178.956 291.208 178.968L291.445 178.918C291.524 178.897 291.603 178.872 291.685 178.844L291.444 178.918ZM341.93 178.058V178.059V178.058ZM343.125 175.047C343.103 175.296 343.074 175.534 343.033 175.763C343.074 175.534 343.103 175.296 343.125 175.047ZM307.041 172.32C306.986 172.34 306.954 172.35 306.924 172.352C306.954 172.35 306.986 172.34 307.041 172.32ZM235.852 171.373C235.915 171.408 235.977 171.44 236.038 171.469C235.977 171.44 235.916 171.407 235.853 171.372L235.852 171.373ZM307.724 171.498H307.725H307.724ZM237.778 171.276C237.83 171.292 237.883 171.309 237.938 171.328C237.829 171.29 237.725 171.258 237.624 171.234L237.778 171.276ZM279.86 167.02C279.48 167.054 279.102 167.081 278.726 167.094C279.102 167.081 279.48 167.054 279.86 167.02ZM280.67 166.52C280.779 166.546 280.88 166.576 280.97 166.611C280.88 166.576 280.779 166.546 280.67 166.52ZM306.913 153.249L307.129 153.51V153.51L306.913 153.248V153.249ZM280.859 132.087C281.071 132.129 281.289 132.183 281.529 132.265C281.369 132.211 281.219 132.168 281.074 132.133C281.001 132.115 280.93 132.1 280.859 132.086V132.087ZM257.427 132.08V132.081V132.08ZM278.567 131.779V131.778V131.779ZM260.025 119.721C259.829 120.017 259.613 120.322 259.408 120.635C259.613 120.322 259.829 120.017 260.025 119.721Z" fill="#EBC2AA"/>
<path d="M278.19 369.055C278.475 369.452 278.535 369.672 279.17 369.662C289.815 369.72 296.22 376.442 302.665 383.805C310.11 392.307 313.115 396.015 310.99 408.027C309.858 414.437 304.093 419.628 298.138 422.04C296.18 422.833 296.013 421.583 293.085 423.245C290.103 422.76 288.228 423.685 285.49 423.638C279.468 423.538 275.448 421.97 269.558 424.088C268.643 423.715 267.557 423.313 266.715 422.83C259.218 425.495 255.44 423.947 247.811 424.09C244.59 424.147 240.738 425.062 237.41 425.277C232.446 425.595 227.777 425.44 222.826 425.16C221.277 425.073 219.045 425.762 217.429 425.822C208.398 426.507 199.243 426.733 190.238 425.628C187.248 425.263 184.225 425.788 181.16 425.075C175.778 423.84 171.753 421.285 169.778 415.942C164.82 402.527 175.136 390.65 184.374 382.225C188.103 378.825 191.265 374.802 195.239 371.685C196.931 370.357 198.733 370.122 200.604 369.3C201.921 370.087 204.945 368.995 206.25 369.268C212.142 370.513 217.633 372.675 223.775 372.482C224.512 372.457 228.932 371.875 229.095 371.935C231.943 372.977 232.467 371.73 234.371 371.798C235.224 372.065 236.018 372.12 236.903 372.162L236.616 372.327L236.767 372.162C235.786 372.132 234.872 372.27 234.192 373.022C233.961 373.815 233.923 373.453 234.227 374.152C236.217 375.232 236.602 373.235 237.723 372.013C237.763 371.97 239.272 371.66 239.489 371.617C242.63 371.157 242.023 371.075 244.971 369.883C245.643 370.2 246.718 370.812 247.446 370.729C251.01 370.329 254.435 369.69 258.045 369.787C259.622 369.83 261.445 369.838 262.947 369.325C263.71 369.695 263.765 369.653 264.213 370.4C264.343 371.518 264.09 372.313 263.86 373.42C264.973 372.475 267.455 370.855 267.91 369.897C268.105 369.742 269.035 369.143 269.155 369.15C271.813 369.273 275.401 369.717 277.981 369.397L278.19 369.055ZM181.885 423.294C181.613 423.392 181.323 423.462 180.986 423.513C181.323 423.462 181.613 423.392 181.885 423.294ZM179.045 422.118C179.043 422.148 179.044 422.174 179.05 422.198C179.039 422.149 179.045 422.098 179.062 422.009L179.045 422.118ZM183.864 422.108V422.109V422.108ZM182.193 421.9V421.901V421.9ZM186.737 419.1C185.885 419.672 184.978 420.277 184.124 420.835C183.486 421.252 183.033 421.547 182.642 421.731L182.885 421.607C182.969 421.562 183.056 421.511 183.148 421.456C183.241 421.401 183.337 421.342 183.44 421.277C183.643 421.149 183.869 421.002 184.124 420.835C184.978 420.278 185.885 419.673 186.737 419.101L187.269 419.4L186.737 419.1ZM178.67 418.282H178.671H178.67ZM282.316 417.266H282.317H282.316ZM177.499 417.718H177.5H177.499ZM275.016 417.716V417.717V417.716ZM247.901 416.72H247.902H247.901ZM177.469 416.985H177.47H177.469ZM197.524 415.645C197.244 415.828 197.034 415.957 196.864 416.077C197.034 415.957 197.244 415.828 197.524 415.646V415.645ZM198.303 416.005H198.304H198.303ZM267.482 414.952V414.953V414.952ZM251.079 412.549V412.55V412.549ZM252.474 412.558C252.308 412.661 252.124 412.755 251.939 412.842C252.124 412.755 252.308 412.661 252.474 412.558ZM252.26 411.577V411.578V411.577ZM179.894 410.606C180.254 410.861 180.638 411.145 180.997 411.416C180.459 411.009 179.864 410.574 179.376 410.25L179.894 410.606ZM281.306 403.33C281.125 403.343 280.945 403.349 280.765 403.348C280.945 403.349 281.125 403.343 281.306 403.33ZM281.238 402.901C281.395 402.964 281.54 403.039 281.668 403.127C281.7 403.149 281.731 403.172 281.761 403.196C281.79 403.22 281.818 403.244 281.846 403.27H281.848C281.682 403.116 281.474 402.996 281.238 402.901ZM278.704 402.574V402.575C278.897 402.575 279.094 402.577 279.292 402.583C279.49 402.589 279.69 402.6 279.886 402.617C279.494 402.582 279.09 402.574 278.704 402.574ZM285.871 401.451C285.722 401.518 285.565 401.603 285.395 401.71L285.405 402.117L285.396 401.71C285.566 401.603 285.722 401.518 285.871 401.451ZM298.204 401.033C298.01 401.101 297.789 401.185 297.513 401.28L297.43 401.825H297.431L297.513 401.28C297.788 401.185 298.01 401.101 298.204 401.033ZM281.51 397.747C280.933 398.009 280.288 398.213 279.846 398.574C279.948 398.491 280.06 398.416 280.181 398.347C280.341 398.254 280.515 398.172 280.694 398.094C280.963 397.977 281.245 397.869 281.511 397.748L281.914 397.872H281.915L281.51 397.747ZM192.253 387.338H192.252H192.253ZM193.04 386.066H193.041H193.04ZM193.697 385.464H193.698H193.697Z" fill="#4B4746"/>
</g>
<defs>
<clipPath id="clip0_79_13219">
<rect width="480" height="480" fill="white"/>
</clipPath>
</defs>
</svg>
