<svg width="480" height="480" viewBox="0 0 480 480" fill="none" xmlns="http://www.w3.org/2000/svg">
<g clip-path="url(#clip0_79_10571)">
<path d="M231.521 118.263C237.742 117.803 245.002 120.92 251.227 121.172C261.625 121.977 271.338 125.892 280.458 130.715C282.43 132.026 286.23 133.457 287.937 135.005C292.982 139.583 297.843 143.701 303.328 147.77C307.495 150.862 310.995 156.032 315.008 159.298C316.095 160.183 317.378 162.168 318.385 163.25C321.175 167.208 324.145 171.113 326.883 175.109C329.95 180.523 333.395 188.622 335.378 194.541C336.073 196.611 336.346 200.088 336.966 202.21C338.883 208.778 339.63 216.087 338.793 222.957C347.723 216.935 352.213 214.235 363.343 216.693C369.143 217.973 376 220.974 379.275 226.109C385.318 235.58 387.288 245.694 384.56 256.537C381.775 268.965 375.137 281.433 363.847 288.085C358.853 291.03 354.94 292.373 349.966 295.76C345.761 295.705 344.598 296.232 340.645 297.52C339.23 297.715 337.428 297.042 336.07 297.03C335.728 297.027 330.686 297.788 330.801 297.635C329.758 299.035 329.297 302.452 328.432 303.775C325.25 307.712 323.405 313.272 320.765 317.207C317.403 322.222 310.858 328.808 306.618 333.005C301.645 337.928 296.628 343.73 290.668 347.122C285.248 350.207 279.44 352.657 273.905 355.52C271.755 356.6 269.36 357.165 267.222 358.363C266.553 359.403 268.175 364.032 268.108 366.079C266.876 366.764 260.814 369.102 260.756 369.148C255.591 373.398 251.008 373.265 244.929 375.262C244.826 376.744 244.847 377.115 243.66 378.065L243.005 377.448C243.057 377.252 243.102 377.1 243.136 376.971C243.222 376.649 243.239 376.467 243.121 376.085C243.097 376.009 243.068 375.924 243.033 375.829L239.331 376.887C235.891 375.695 235.141 376.684 232.141 376.409C229.075 376.127 223.683 375.043 220.852 374C219.195 374.708 217.119 377.054 215.898 375.472C214.903 373.179 215.546 367.748 215.634 365.005C215.442 364.68 215.306 364.377 214.828 364.36C209.699 364.162 204.928 363.965 200.232 361.787C198.478 362.24 196.634 362.755 194.796 362.443C187.614 361.223 183.169 360.125 176.743 356.712C169.732 352.987 162.186 349.965 156.138 344.485C154.3 342.817 151.661 341.48 149.956 339.533C146.119 335.483 143.54 330.44 139.576 326.443C139.001 325.865 137.759 324.458 137.305 323.813C132.926 317.588 129.445 310.608 126.99 303.403C125.865 300.148 123.753 296.842 122.556 293.565C121.243 289.842 119.71 285.808 118.926 281.965C118.205 279.113 118.321 275.382 117.689 272.627C115.885 264.76 115.94 257.72 116.931 249.757C117.251 247.188 116.054 243.896 116.541 241.032C117.082 237.849 117.703 234.587 118.284 231.401C120.081 217.257 122.508 204.029 128.015 190.814C129.078 188.264 132.2 183.55 133.729 181.013C143.836 164.243 155.957 151.049 171.318 138.894C176.591 135.22 183.913 130.702 189.916 128.47C195.963 126.222 202.799 124.946 209.027 122.487C215.424 119.96 224.694 118.768 231.521 118.263ZM204.72 356.148C204.972 356.186 205.169 356.207 205.337 356.209C205.169 356.207 204.972 356.185 204.72 356.147V356.148ZM206.727 355.709L206.726 355.71L206.727 355.709ZM229.919 355.388C230.153 355.401 230.363 355.38 230.555 355.337C230.363 355.38 230.153 355.401 229.919 355.388ZM232.285 354.635H232.284C232.122 354.638 231.962 354.698 231.792 354.783C231.621 354.867 231.441 354.977 231.239 355.08C231.643 354.874 231.962 354.641 232.285 354.635ZM209.9 355.117L209.899 355.111L209.896 355.102H209.895L209.9 355.117ZM237.295 354.257H237.296H237.295ZM176.226 352.492H176.227H176.226ZM177.812 351.872H177.811H177.812ZM179.86 350.743C179.932 350.737 180.018 350.755 180.243 350.755H180.244C180.018 350.755 179.932 350.737 179.86 350.743ZM259.34 348.377H259.341H259.34ZM194.984 347.579H194.985H194.984ZM261.587 346.869H261.588L260.961 346.695H260.96L261.587 346.869ZM272.626 340.601C272.504 340.638 272.376 340.67 272.244 340.696C272.376 340.67 272.504 340.638 272.626 340.601ZM267.421 339.507C267.681 339.553 267.955 339.617 268.24 339.691C267.955 339.617 267.681 339.553 267.421 339.507ZM191.409 338.781C191.411 338.821 191.415 338.861 191.421 338.901H191.422C191.416 338.861 191.412 338.821 191.41 338.781H191.409ZM218.278 338.576V338.576V338.576ZM218.81 337.768C218.109 338.034 217.328 338.249 216.617 338.441C217.091 338.313 217.596 338.174 218.089 338.018C218.335 337.94 218.578 337.857 218.811 337.768H218.81ZM192.251 336.856C192.128 337.009 192.012 337.166 191.907 337.326L192.072 337.089C192.13 337.011 192.189 336.933 192.251 336.856ZM216.666 334.18V334.181V334.18ZM216.318 333.661H216.319H216.318ZM291.393 329.382H291.392H291.393ZM259.879 325.034H259.88H259.879ZM260.256 324.816H260.257H260.256ZM260.689 324.369H260.69L260.336 324.195H260.335L260.689 324.369ZM198.351 324.047H198.352H198.351ZM228.139 323.988V323.989V323.988ZM200.138 322.773V322.774V322.773ZM230.87 322.454V322.455V322.454ZM285.669 321.861V321.86L285.41 321.653L285.669 321.861ZM305.521 319.595C305.372 319.765 305.213 319.931 305.055 320.092C305.213 319.931 305.372 319.765 305.521 319.595ZM306.017 318.937V318.936V318.937ZM242.822 318.364L242.821 318.363L242.822 318.364ZM245.95 318.103H245.951H245.95ZM139.294 316.812C139.005 317.086 138.698 317.387 138.469 317.693H138.47C138.568 317.562 138.681 317.432 138.8 317.304C138.958 317.134 139.129 316.968 139.294 316.812ZM245.434 317.69H245.433H245.434ZM293.503 316.847L293.502 316.846L293.503 316.847ZM190.128 312.757C189.895 312.984 189.647 313.215 189.418 313.433L190.128 312.758C190.244 312.645 190.356 312.533 190.46 312.424L190.128 312.757ZM288.753 312.369V312.37V312.369ZM174.861 312.429C174.815 312.488 174.77 312.549 174.726 312.612C174.77 312.549 174.815 312.488 174.861 312.429ZM303.381 312.075C303.497 311.758 303.547 311.46 303.551 311.17C303.549 311.315 303.536 311.462 303.508 311.613C303.48 311.763 303.438 311.916 303.38 312.075H303.381ZM191.051 311.605C191.036 311.671 191 311.748 190.947 311.833C191 311.748 191.036 311.671 191.051 311.605ZM246.622 311.005H246.621H246.622ZM139.823 308.573C139.542 308.933 139.051 309.675 138.591 310.452H138.592C138.899 309.934 139.219 309.431 139.481 309.047C139.612 308.855 139.729 308.693 139.823 308.573ZM302.843 308.393C302.828 308.439 302.815 308.487 302.802 308.537L303.156 309.46H303.157C303.044 309.167 302.92 308.862 302.802 308.537C302.815 308.487 302.828 308.439 302.843 308.393ZM248.207 308.547L248.258 308.827C248.095 308.97 247.946 309.101 247.805 309.229H247.806C247.947 309.101 248.096 308.97 248.259 308.827L248.208 308.547L248.134 308.51L248.207 308.547ZM286.771 309.388C286.721 309.438 286.677 309.49 286.637 309.543C286.716 309.437 286.816 309.337 286.934 309.241L286.771 309.388ZM294.062 307.204V307.205V307.204ZM304.386 306.608H304.387H304.386ZM251.938 303.062H251.937H251.938ZM254.473 300.815C254.139 301.167 253.769 301.533 253.386 301.882L253.948 301.35C254.13 301.171 254.306 300.991 254.473 300.815ZM319.653 299.256H319.654H319.653ZM203.535 298.595C203.521 298.627 203.504 298.659 203.486 298.69H203.487C203.505 298.659 203.522 298.627 203.536 298.595H203.535ZM163.317 295.019V295.02V295.019ZM292.844 293.202C292.602 293.415 292.41 293.6 292.238 293.754H292.239C292.411 293.6 292.603 293.415 292.845 293.202L292.458 292.757L292.844 293.202ZM139.639 292.733H139.64H139.639ZM289.302 292.716H289.303H289.302ZM265.884 287.348H265.885H265.884ZM270.147 287.289C270.031 287.348 269.961 287.377 269.9 287.393C269.839 287.408 269.786 287.409 269.703 287.412C269.87 287.407 269.915 287.407 270.148 287.29L271.338 286.603V286.602L270.147 287.289ZM316.736 287.21H316.737H316.736ZM175.793 287.211V287.21V287.211ZM320.868 284.188V284.187V284.188ZM318.941 283.59C318.929 283.704 318.898 283.838 318.846 283.987C318.898 283.838 318.931 283.704 318.943 283.59H318.941ZM123.647 282.594C123.157 282.743 122.652 282.947 122.143 283.252H122.144C122.653 282.947 123.157 282.743 123.647 282.594ZM323.258 282.926C323.148 282.949 323.038 282.973 322.928 282.999C323.148 282.948 323.368 282.902 323.59 282.863L323.258 282.926ZM159.434 282.521H159.435H159.434ZM127.167 281.587C127.082 281.641 126.995 281.691 126.906 281.736C126.638 281.87 126.348 281.968 126.04 282.048H126.041C126.451 281.941 126.83 281.803 127.167 281.587ZM160.489 281.454V281.455V281.454ZM302.053 278.944C301.917 279.057 301.75 279.181 301.563 279.314C301.75 279.181 301.917 279.057 302.053 278.944ZM216.173 278.951C215.951 279.14 215.73 279.315 215.53 279.474L215.531 279.475C215.831 279.236 216.178 278.961 216.503 278.657L216.173 278.951ZM301.307 278.784C301.496 278.671 301.68 278.562 301.855 278.455C301.931 278.46 301.977 278.462 302.009 278.464L301.855 278.454C301.68 278.561 301.496 278.67 301.307 278.784ZM217.343 277.659C217.237 277.838 217.109 278.012 216.966 278.178L217.104 278.009C217.237 277.839 217.352 277.661 217.442 277.479L217.343 277.659ZM193.304 276.465L193.174 276.813C192.768 277.016 192.39 277.191 192.009 277.36C192.39 277.191 192.768 277.017 193.175 276.813L193.304 276.465L193.042 276.242H193.041L193.304 276.465ZM217.627 276.915C217.617 276.98 217.603 277.044 217.586 277.107L217.628 276.915L217.405 276.685L217.627 276.915ZM125.366 270.158C125.285 270.459 125.169 270.717 125.025 270.946C124.953 271.06 124.874 271.167 124.789 271.268C124.703 271.369 124.611 271.463 124.514 271.553C124.466 271.598 124.416 271.642 124.365 271.685C124.007 271.985 123.589 272.238 123.146 272.509C124.158 271.889 125.044 271.362 125.367 270.158L125.045 269.805H125.044L125.366 270.158ZM317.521 270.277C317.445 270.419 317.383 270.56 317.331 270.701C317.383 270.56 317.445 270.419 317.521 270.277ZM241.142 271.372H241.141H241.142ZM259.585 270.44H259.586H259.585ZM187.551 269.172H187.552H187.551ZM189.946 265.863H189.945H189.946ZM245.364 268.365L245.586 268.308C245.587 268.307 245.589 268.307 245.589 268.307L245.364 268.365ZM190.558 265.395H190.557H190.558ZM191.514 264.752H191.515H191.514ZM137.413 262.387H137.414H137.413ZM272.833 262.149H272.834H272.833ZM256.395 261.354H256.396H256.395ZM379.979 260.71C379.823 260.776 379.631 260.855 379.384 260.974L379.385 260.975C379.632 260.856 379.823 260.776 379.979 260.71ZM259.011 260.557H259.012H259.011ZM381.022 259.872C380.815 260.16 380.672 260.32 380.522 260.433C380.672 260.32 380.816 260.16 381.023 259.872L380.775 259.485L381.022 259.872ZM350.873 251.286C350.618 251.482 350.374 251.687 350.149 251.904C350.374 251.687 350.618 251.482 350.873 251.286ZM136.726 251.295H136.727H136.726ZM181.784 250.648C182.134 250.383 182.598 250.077 183.001 249.742C182.799 249.909 182.582 250.07 182.372 250.221C182.162 250.372 181.958 250.514 181.783 250.647L181.784 250.648ZM147.762 250.182H147.763H147.762ZM354.654 247.965C354.624 248.072 354.584 248.175 354.534 248.277C354.459 248.428 354.362 248.575 354.248 248.717C354.171 248.812 354.087 248.905 353.996 248.996C353.95 249.042 353.903 249.088 353.854 249.133C353.659 249.314 353.439 249.49 353.203 249.664C353.913 249.141 354.476 248.605 354.655 247.966L354.654 247.965ZM183.849 248.655C183.836 248.703 183.82 248.751 183.8 248.798C183.759 248.893 183.706 248.987 183.641 249.079C183.738 248.941 183.811 248.799 183.85 248.655L183.696 248.529H183.695L183.849 248.655ZM293.112 247.744H293.113H293.112ZM255.425 246.099C255.217 246.78 254.564 247.002 253.84 247.481L253.841 247.482C254.565 247.003 255.218 246.78 255.426 246.099L255.023 245.876H255.022L255.425 246.099ZM281.925 241.077H281.926H281.925ZM281.184 240.317C281.125 240.36 281.068 240.404 281.013 240.449C281.122 240.36 281.242 240.273 281.367 240.188L281.184 240.317ZM283.293 239.081C283.035 239.228 282.709 239.399 282.369 239.586C282.709 239.399 283.035 239.228 283.293 239.081L283.775 239.557C283.683 239.613 283.587 239.677 283.488 239.747L283.775 239.557L283.293 239.08V239.081ZM348.79 237.226H348.791H348.79ZM349.641 236.712C349.577 236.776 349.5 236.837 349.413 236.896C349.5 236.837 349.577 236.776 349.641 236.712ZM176.43 233.196L176.431 233.198L176.503 232.799L176.43 233.196ZM179.209 230.555C179.201 230.575 179.186 230.598 179.166 230.622C179.146 230.647 179.12 230.674 179.09 230.702C179.028 230.76 178.946 230.827 178.849 230.901C178.558 231.123 178.13 231.411 177.695 231.738C177.405 231.955 177.113 232.189 176.856 232.431C177.755 231.585 179.096 230.833 179.21 230.555L178.747 230.427L179.209 230.555ZM300.83 226.235V226.236C300.978 226.277 301.045 226.288 301.086 226.305V226.304C301.045 226.287 300.977 226.276 300.83 226.235ZM285.85 225.237C285.782 225.241 285.713 225.246 285.644 225.252V225.253C285.713 225.247 285.782 225.242 285.85 225.238V225.237ZM305.82 225.11H305.821H305.82ZM242.894 223.966H242.895H242.894ZM305.04 223.51C304.69 223.675 304.426 223.799 304.179 223.902C304.426 223.799 304.69 223.675 305.04 223.51ZM305.761 223.563H305.762H305.761ZM305.505 223.498H305.506H305.505ZM189.578 220.892C189.473 220.992 189.359 221.075 189.238 221.149C189.157 221.198 189.073 221.242 188.986 221.283H188.987C189.204 221.18 189.403 221.058 189.578 220.892ZM177.808 220.775C177.772 220.786 177.735 220.797 177.698 220.806C177.773 220.788 177.845 220.765 177.918 220.737L177.808 220.775ZM189.038 209.076H189.039H189.038ZM274.183 206.047C274.085 206.127 273.989 206.215 273.886 206.326L274.079 206.134C274.113 206.103 274.149 206.075 274.183 206.047ZM275.53 206.058C275.491 206.083 275.45 206.108 275.409 206.133C275.503 206.076 275.592 206.019 275.675 205.959L275.53 206.058ZM274.72 205.715C274.578 205.784 274.459 205.851 274.35 205.923C274.459 205.851 274.578 205.784 274.72 205.715ZM244.075 204.991V204.992V204.991ZM246.215 203.632H246.216H246.215ZM190.635 200.781L190.651 201.136C190.304 201.426 190.042 201.631 189.771 201.824H189.772C190.043 201.631 190.304 201.426 190.651 201.136L190.636 200.781L190.303 200.677L190.635 200.781ZM241.446 196.163H241.447H241.446ZM242.404 194.849H242.405L241.898 194.722H241.897L242.404 194.849ZM203.856 193.12V193.121V193.12ZM315.976 187.339H315.975H315.976ZM244.141 186.384H244.14H244.141ZM246.055 185.478C245.99 185.52 245.923 185.561 245.855 185.602C245.991 185.521 246.123 185.436 246.249 185.348L246.055 185.478ZM242.309 184.827V184.826V184.827ZM204.473 183.982C204.328 184.133 204.195 184.294 204.05 184.494C204.195 184.294 204.328 184.133 204.473 183.982ZM175.414 179.52C175.544 179.368 175.66 179.207 175.768 179.038C175.66 179.207 175.544 179.368 175.414 179.52ZM255.263 178.044C255.181 178.116 255.096 178.174 255.005 178.227C254.759 178.369 254.458 178.476 253.982 178.725L253.983 178.726C254.697 178.353 255.016 178.297 255.346 177.967L255.263 178.044ZM271.117 172.817H271.118H271.117ZM271.271 171.19H271.272H271.271ZM262.576 171.305H262.577H262.576ZM264.138 169.898H264.139H264.138ZM272.385 168.767H272.384C272.258 168.933 272.144 169.096 272.041 169.257H272.042C272.145 169.096 272.259 168.933 272.385 168.767ZM267.947 167.794L268.237 168.375H268.238L267.948 167.794L266.578 167.48L267.947 167.794ZM271.805 168.367C271.864 168.378 271.912 168.386 271.952 168.393C271.991 168.399 272.023 168.404 272.049 168.409H272.05C271.972 168.394 271.845 168.381 271.593 168.318L271.805 168.367ZM236.571 167.134C236.311 167.457 236.048 167.765 235.826 168.04V168.041C236.048 167.766 236.311 167.457 236.571 167.134ZM293.858 167.841C294.067 167.726 294.307 167.607 294.553 167.484C294.306 167.608 294.066 167.725 293.857 167.84L293.858 167.841ZM173.138 165.547C173.226 165.552 173.316 165.555 173.409 165.557C173.224 165.553 173.048 165.544 172.887 165.529L173.138 165.547ZM186.544 164.777C186.274 164.898 185.986 165.011 185.71 165.142L185.632 165.256L185.633 165.257L185.711 165.142C186.079 164.967 186.469 164.825 186.805 164.652L186.544 164.777ZM187.157 164.441H187.158H187.157ZM301.598 163.784C301.304 163.923 301.026 164.033 300.75 164.124C301.026 164.033 301.304 163.923 301.598 163.784ZM187.514 164.083C187.491 164.118 187.467 164.151 187.44 164.183L187.515 164.083C187.538 164.049 187.559 164.013 187.578 163.976L187.514 164.083ZM191.172 161.53H191.173H191.172ZM269.477 160.784H269.478H269.477ZM196.838 159.817V159.816V159.817ZM178.306 151.442C178.687 151.18 178.994 150.938 179.197 150.523C179.035 150.855 178.806 151.076 178.525 151.285C178.455 151.338 178.382 151.389 178.305 151.442H178.306ZM270.591 150.766V150.767V150.766ZM298.926 150.159H298.927H298.926ZM178.948 149.489C179.038 149.599 179.093 149.68 179.132 149.759C179.093 149.68 179.039 149.599 178.949 149.489H178.948ZM299.731 149.289C299.672 149.383 299.611 149.468 299.549 149.548C299.611 149.468 299.672 149.383 299.731 149.289ZM298.665 149.035V149.036V149.035ZM299.843 148.382L299.908 148.985L299.843 148.381L299.468 148.145L299.843 148.382ZM283.472 146.164C283.509 146.164 283.544 146.159 283.584 146.146C283.544 146.159 283.509 146.164 283.472 146.164ZM224.301 144.276C223.545 144.443 222.948 144.527 222.407 144.531C223.056 144.526 223.786 144.406 224.776 144.165L224.301 144.276ZM223.278 143.664V143.665V143.664ZM219.723 143.592C219.823 143.593 219.915 143.595 220.003 143.599C219.915 143.595 219.823 143.593 219.723 143.592ZM196.84 142.025C196.785 142.063 196.729 142.1 196.674 142.136C196.841 142.029 197.004 141.91 197.162 141.785L196.84 142.025ZM237.222 141.252H237.223H237.222ZM198.883 140.323H198.884H198.883ZM195.481 132.34C195.568 132.345 195.655 132.348 195.743 132.349C195.655 132.348 195.568 132.345 195.481 132.34ZM194.721 132.229H194.72H194.721Z" fill="#F3BAB1"/>
<path d="M271.386 367.438C275.628 366.118 282.436 368.588 286.096 370.75C292.431 374.493 301.41 384.602 303.705 391.527C304.908 395.082 302.908 398.993 304.003 402.5C304.118 402.875 304.348 404.29 304.203 404.638C302.458 408.86 300.885 415.905 297.652 418.987C293.997 422.47 290.092 423.848 285.268 422.463C283.655 423.133 282.595 423.713 281.062 424.558C276.44 424.22 273.003 424.321 268.508 425.873C267.635 425.011 267.22 424.253 266.013 424.315C263.425 424.448 261.323 426.11 258.685 425.298C258.283 425.193 257.162 425.037 256.701 424.962L256.7 424.963C254.356 426.27 253.875 424.79 252.011 425.077C249.381 425.484 243.146 425.117 240.797 425.573L240.582 425.62C239.496 425.68 237.44 425.94 236.574 425.53C235.446 425.548 234.808 425.802 233.73 426.09C231.304 426.74 229.665 425.965 227.365 425.23C228.178 424.401 230.144 424.395 229.932 423.062C229.946 423.151 229.949 423.234 229.945 423.312C229.943 423.351 229.939 423.388 229.933 423.425C229.863 423.824 229.545 424.073 229.143 424.279C228.851 424.429 228.515 424.556 228.197 424.701C227.88 424.846 227.581 425.009 227.364 425.23C226.454 425.038 225.942 425.053 225.013 425.365L224.396 425.592C221.411 426.641 219.777 426.436 216.536 426.4C212.59 426.358 213.087 427.752 209.657 425.098C207.695 425.568 205.674 425.978 203.82 426.763C201.948 426.158 200.494 425.737 198.741 424.808L195.694 426.163C193.779 425.881 192.005 425.25 190.095 424.897C185.04 423.967 180.211 422.315 175.311 420.775C174.746 418.188 173.383 413.392 173.941 411.015C176.781 398.93 180.41 393.937 190.454 386.75C193.018 384.915 195.568 382.997 198.254 381.345C201.156 379.56 211.634 374.62 214.788 375.407C215.132 375.495 215.337 375.582 215.699 375.527C215.767 375.517 215.832 375.493 215.898 375.473C217.119 377.055 219.195 374.707 220.852 374C223.683 375.042 229.076 376.128 232.142 376.41C235.14 376.685 235.89 375.695 239.33 376.888L243.033 375.83C243.313 376.59 243.213 376.665 243.005 377.447L243.66 378.065C244.847 377.115 244.826 376.745 244.93 375.263C251.008 373.265 255.59 373.397 260.755 369.147C260.81 369.102 266.874 366.765 268.107 366.08L271.386 367.438ZM222.294 425.042C222.19 425.054 222.087 425.065 221.984 425.072C222.19 425.057 222.399 425.032 222.604 425L222.294 425.042ZM223.721 424.771C223.486 424.828 223.206 424.892 222.908 424.947L223.2 424.891C223.389 424.851 223.565 424.809 223.721 424.771ZM237.62 423.723H237.621H237.62ZM229.43 422.454H229.431H229.43ZM261.577 421.964V421.965V421.964ZM262.402 421.092H262.403L262.708 420.798L262.402 421.092ZM244.694 417.866C244.141 418.189 243.604 418.542 243.065 418.922C242.796 419.112 242.527 419.31 242.254 419.514C241.981 419.717 241.706 419.927 241.426 420.145C241.383 420.085 241.352 420.035 241.327 419.988C241.352 420.035 241.383 420.086 241.426 420.146C242.547 419.277 243.587 418.513 244.694 417.866ZM210.238 418.229C209.876 418.321 209.623 418.386 209.428 418.422V418.423C209.623 418.387 209.876 418.322 210.238 418.23V418.229ZM208.773 418.387V418.386V418.387ZM258.837 416.18C258.994 416.272 259.195 416.414 259.31 416.487C259.294 416.581 259.276 416.666 259.253 416.744C259.185 416.977 259.082 417.146 258.945 417.311C258.854 417.42 258.747 417.528 258.625 417.65C258.503 417.773 258.365 417.911 258.212 418.082C258.085 418.099 258.063 418.104 258.02 418.092C258.063 418.104 258.085 418.1 258.213 418.083C258.825 417.398 259.19 417.24 259.31 416.487C259.158 416.39 258.85 416.17 258.7 416.107L258.837 416.18ZM277.721 417.407H277.72L277.475 417.748H277.476L277.721 417.407ZM246.887 416.793C246.418 416.979 245.971 417.183 245.54 417.403L245.977 417.189C246.271 417.05 246.574 416.917 246.887 416.793ZM248.619 416L248.368 416.287L248.369 416.288L248.62 416C248.578 415.945 248.505 415.844 248.432 415.748L248.619 416ZM230.336 414.254C230.212 414.383 230.088 414.523 229.967 414.676C230.088 414.523 230.212 414.383 230.336 414.254ZM225.369 411.53C225.052 412.355 224.794 412.698 224.348 413.202L224.557 412.961C224.882 412.57 225.105 412.218 225.37 411.53H225.369ZM258.939 411.447C258.461 411.473 257.998 411.518 257.696 411.549C257.998 411.518 258.461 411.473 258.939 411.447ZM263.685 411.39C263.567 411.452 263.441 411.508 263.301 411.558L263.502 411.479C263.566 411.451 263.627 411.421 263.685 411.39ZM265.57 409.379C265.525 409.493 265.464 409.631 265.38 409.817C265.09 410.124 264.855 410.387 264.641 410.611L264.642 410.612C264.856 410.388 265.09 410.124 265.38 409.817C265.464 409.631 265.526 409.494 265.571 409.38L265.57 409.379ZM260.354 409.826H260.353H260.354ZM265.7 408.765C265.696 408.827 265.692 408.882 265.686 408.934C265.704 408.779 265.709 408.59 265.723 408.28L265.7 408.765ZM242.21 407.53L242.207 407.87L240.902 408.838C240.77 408.885 240.716 408.909 240.676 408.918C240.716 408.909 240.771 408.885 240.903 408.838L242.207 407.87L242.211 407.53H242.21ZM264.708 407.632H264.709H264.708ZM187.752 400.845C188.496 401.787 188.845 404.061 188.009 404.941L188.01 404.942C188.846 404.062 188.497 401.787 187.753 400.845L187.368 400.735H187.367L187.752 400.845ZM211.661 403.367H211.66H211.661ZM289.277 402.375H289.278H289.277ZM213.525 400.917C213.416 401.184 213.301 401.425 213.181 401.645C213.301 401.425 213.416 401.185 213.525 400.918V400.917ZM277.631 396.287H277.63H277.631ZM278.68 395.851H278.679H278.68ZM208.722 390.558C207.891 391.485 206.502 392.586 205.155 392.619C206.502 392.586 207.892 391.486 208.723 390.558L208.65 390.305L208.722 390.558ZM204.358 392.503C204.451 392.534 204.545 392.558 204.64 392.576C204.545 392.558 204.451 392.534 204.358 392.503ZM203.536 392.147C203.573 392.16 203.61 392.174 203.646 392.188C203.552 392.152 203.456 392.12 203.357 392.092L203.536 392.147ZM205.244 391.759C205.456 391.786 205.677 391.812 205.908 391.837V391.838C205.446 391.788 205.026 391.731 204.628 391.675L205.244 391.759ZM202.278 391.392C202.515 391.408 202.743 391.429 202.968 391.453C202.743 391.429 202.515 391.408 202.278 391.392ZM289.051 390.166C288.881 390.295 288.687 390.42 288.491 390.54C288.687 390.42 288.881 390.295 289.051 390.166ZM289.577 389.567C289.541 389.669 289.474 389.77 289.383 389.87H289.384C289.475 389.77 289.542 389.669 289.578 389.567H289.577ZM198.95 386.212C198.724 386.301 198.507 386.397 198.306 386.507L198.307 386.508C198.508 386.398 198.724 386.301 198.95 386.212ZM202.498 384.965C202.427 385.014 202.35 385.059 202.268 385.104C202.185 385.148 202.097 385.189 202.005 385.229L202.006 385.23C202.19 385.15 202.356 385.062 202.498 384.965ZM202.95 384.442C202.937 384.477 202.921 384.51 202.903 384.542C202.85 384.639 202.779 384.728 202.692 384.81L202.774 384.726C202.85 384.639 202.91 384.545 202.951 384.442L202.778 384.271L202.95 384.442ZM215.131 381.77C214.631 381.802 214.203 381.828 213.775 381.841C214.203 381.828 214.631 381.802 215.131 381.77ZM214.343 381.229C214.404 381.235 214.466 381.241 214.527 381.249C214.466 381.241 214.404 381.235 214.343 381.229ZM277.127 379.298L277.053 380.615C276.785 380.848 276.955 380.767 276.51 380.77L276.511 380.771C276.955 380.768 276.785 380.848 277.053 380.615L277.128 379.298H277.127ZM244.734 379.189H244.733H244.734ZM279.16 378.854C279.033 378.914 278.904 378.968 278.77 379.015C278.637 379.061 278.5 379.101 278.356 379.135C278.213 379.169 278.063 379.198 277.905 379.222L278.137 379.183C278.512 379.111 278.842 379.005 279.16 378.854ZM244.178 378.901H244.179H244.178ZM280.622 377.532L280.532 377.902C280.389 378.026 280.252 378.14 280.119 378.244C279.986 378.348 279.858 378.442 279.73 378.527C279.985 378.357 280.247 378.151 280.533 377.902L280.623 377.532L280.05 377.138L280.622 377.532ZM275.907 371.63H275.908H275.907Z" fill="#4B4746"/>
</g>
<defs>
<clipPath id="clip0_79_10571">
<rect width="480" height="480" fill="white"/>
</clipPath>
</defs>
</svg>
