<svg width="480" height="480" viewBox="0 0 480 480" fill="none" xmlns="http://www.w3.org/2000/svg">
<g clip-path="url(#clip0_79_10748)">
<path d="M255.098 137.738C263.708 136.906 272.381 137.194 281.033 137.253C286.863 137.292 293.244 138.846 298.971 139.862C303.706 140.702 308.465 141.071 313.005 142.813C326.202 148.065 338.385 155.669 349.96 163.832C350.56 164.255 351.625 165.286 352.112 165.834C355.39 169.518 360.18 172.638 362.608 176.937C364.913 181.026 367.883 184.207 370.51 188.032C371.042 188.823 371.505 191.125 372.005 192.138C379.695 207.83 384.808 224.659 387.143 241.978C387.323 243.307 386.523 244.77 386.745 245.829C387.708 250.397 388.775 253.77 388.49 258.562C388.178 264.352 386.366 269.793 385.078 275.347C383.656 281.48 382.53 287.36 380.245 293.303C377.508 300.525 374.86 307.773 371.593 314.78C370.18 317.662 368.05 320.377 366.603 323.212C364.055 328.202 361.38 334.077 358.03 338.612C354.835 342.937 350.49 347.22 347.273 351.655C346.54 352.665 344.458 353.682 343.533 354.67C338.706 359.66 334.141 363.64 327.981 366.992C325.043 368.589 322.213 371.527 318.923 372.742C309.423 376.972 298.363 379.034 288.021 379.805C285.351 380.005 281.635 378.905 279.758 380.807C278.188 381.977 275.595 380.769 274.17 379.787C268.64 381.352 266.378 381.125 260.651 380.982C259.918 380.962 257.703 381.25 256.651 381.277C256.376 381.135 247.746 380.24 247.283 380.335C239.938 381.842 233.123 375.882 226.623 375.747L227.446 373.047C222.886 372.899 221.718 371.752 218.102 368.987C212.013 370.032 209.206 366.519 203.977 364.327C199.777 363.577 193.061 356.822 190.001 355.755C182.216 353.037 183.2 352.335 178.4 345.655C177.832 344.865 174.719 342.962 173.695 341.832C164.398 331.572 154.455 319.777 150.135 306.43C149.219 303.585 148.863 300.772 147.915 297.945C146.305 297.285 145.924 298.747 144.49 299.484C141.03 301.267 135.806 302.114 131.978 302.769C130.338 303.052 127.726 302.545 126.152 302.63C120.56 302.887 112.51 301.497 107.57 298.782C103.956 296.795 99.1999 293.242 95.7141 290.934C89.4863 286.809 84.688 277.182 83.9348 269.917C82.8811 259.524 83.9962 249.027 87.2101 239.089C89.9951 230.212 93.8254 225.051 99.5988 217.817C102.267 214.474 106.205 212.344 109.782 210.115C111.087 209.302 112.693 208.774 114.069 208.085C118.978 204.796 122.15 205.475 127.468 205.036C136.146 204.319 144.322 204.795 152.168 209.046C153.683 209.866 155.183 211.097 156.6 212.312L157.986 213.507L158.159 213.536C158.998 213.711 159.42 214.34 160.164 214.923H160.165C161.185 211.709 162.629 208.647 163.816 205.627C167.829 195.408 172.817 186.43 181.033 178.951C182.519 177.265 183.869 175.346 185.441 173.744C186.545 172.699 188.296 172.032 189.3 170.905C195.69 163.733 202.389 157.682 210.674 152.523C222.508 145.291 237.179 141.065 250.523 137.448C251.738 137.119 253.71 137.872 255.098 137.738ZM270.754 372.221V372.221V372.221ZM218.82 367.033H218.82H218.82ZM220.689 365.858H220.69H220.689ZM295.295 355.508V355.507V355.508ZM276.313 351.638H276.314H276.313ZM313.169 348C313.097 348.056 313.024 348.105 312.95 348.147C313.024 348.105 313.097 348.056 313.169 348ZM191.625 327.465H191.626H191.625ZM296.517 324.052H296.518H296.517ZM308.957 323.345H308.958H308.957ZM224.201 321.492H224.202H224.201ZM298.742 322.817H298.743H298.742ZM354.97 320.007V320.008V320.007ZM234.674 318.442H234.675H234.674ZM343.22 318.175C343 318.201 342.795 318.222 342.602 318.236C342.795 318.222 343 318.201 343.221 318.175C343.03 318.097 342.846 318.027 342.669 317.963L343.22 318.175ZM236.978 316.91H236.979H236.978ZM286.367 312.529C285.972 312.754 285.591 312.947 285.38 313.072C285.591 312.947 285.972 312.754 286.367 312.529ZM287.741 311.361H287.742L287.75 311.303L287.741 311.361ZM312.569 301.18H312.568H312.569ZM115.268 292.872V292.873V292.872ZM274.398 286.859V286.86V286.859ZM192.793 285.343H192.794L191.612 285.197H191.611L192.793 285.343ZM219.043 283.565H219.044H219.043ZM287.397 277.702V277.701V277.702ZM287.604 277.708V277.709V277.708ZM287.839 277.067H287.84H287.839ZM223.007 269.034C222.911 269.083 222.818 269.135 222.728 269.189C222.818 269.135 222.911 269.083 223.007 269.034ZM118.832 267.492C118.88 267.495 118.927 267.497 118.976 267.498C118.927 267.497 118.88 267.495 118.832 267.492ZM208.678 258.45H208.679H208.678ZM118.872 253.17C118.443 253.618 117.778 254.225 117.13 254.847C116.807 255.158 116.488 255.473 116.205 255.773C116.017 255.973 115.844 256.167 115.697 256.348C116.504 255.348 118.086 253.991 118.872 253.17ZM119.337 252.529C119.337 252.586 119.293 252.672 119.212 252.78C119.293 252.672 119.338 252.587 119.338 252.53L119.337 252.529ZM141.21 248.065H141.211H141.21ZM142.101 247.16C141.979 247.243 141.864 247.331 141.755 247.425C141.864 247.331 141.979 247.243 142.101 247.16ZM283.618 247.311C283.369 247.386 283.111 247.456 282.845 247.523L282.846 247.524C283.112 247.457 283.369 247.386 283.618 247.311ZM143.077 246.615H143.078H143.077ZM288.272 244.576C288.305 244.604 288.322 244.622 288.33 244.645C288.322 244.622 288.305 244.604 288.272 244.576ZM165.845 231.55H165.846H165.845ZM154.705 222.885V222.886V222.885ZM275.595 219.848L275.665 220.116L275.596 219.848L275.373 219.846L275.595 219.848ZM130.999 217.892V217.891V217.892ZM283.811 209.857C283.713 209.923 283.615 210.012 283.487 210.149C283.615 210.012 283.713 209.923 283.811 209.857ZM371.412 206.328H371.413H371.412ZM341.137 186.169H341.138H341.137ZM342.838 184.755C343.074 184.638 343.299 184.531 343.49 184.432C343.299 184.531 343.074 184.638 342.838 184.755ZM206.851 173.954V173.955V173.954ZM275.532 166.24H275.533H275.532ZM238.797 153.402C238.627 153.494 238.467 153.604 238.308 153.726C238.467 153.604 238.627 153.494 238.797 153.402ZM239.504 153.154C239.557 153.145 239.613 153.137 239.669 153.131C239.613 153.137 239.558 153.145 239.504 153.154ZM279.695 147.495V147.496L279.845 147.681H279.846L279.695 147.495Z" fill="#F3BAB1"/>
<path d="M226.623 375.748C233.122 375.883 239.937 381.842 247.282 380.335C247.74 380.24 256.375 381.135 256.65 381.277C257.571 381.253 259.381 381.03 260.31 380.988C260.443 380.982 260.558 380.98 260.65 380.982C261.366 381 262.027 381.019 262.648 381.036C266.994 381.154 269.331 381.156 274.17 379.787C275.149 380.463 276.681 381.245 278.052 381.287C278.177 381.291 278.301 381.289 278.422 381.28C278.908 381.244 279.365 381.1 279.757 380.808L281.017 381.605C291.71 383.89 302.262 385.345 308.445 395.468C309.03 396.428 310.282 398.8 309.957 399.902C308.747 404.005 311.343 408.248 307.98 412.025C303.843 416.675 298.777 420.748 293.71 424.311C292.072 425.405 285.122 425.333 281.844 426.705C280.572 426.19 278.852 425.435 277.588 425.015C276.468 425.292 275.35 425.578 274.235 425.873C270.207 424.526 264.839 424.735 261.027 426.585C259.675 425.92 258.61 425.462 257.21 424.902C249.083 427.015 242.505 425.855 234.259 425.907C233.187 425.915 231.542 426.38 230.415 426.345C229.181 426.305 227.706 425.748 226.495 425.646C224.348 425.466 221.996 425.892 219.834 425.897C217.309 425.905 214.927 425.625 212.418 425.593C209.18 425.973 206.231 427.067 202.913 426.853C200.854 426.718 199.494 425.888 197.644 425.513C193.909 424.755 190.405 424.618 187.068 422.513C184.571 420.935 182.76 419.488 181.023 417.195L180.676 416.725L180.636 416.605C180.309 415.643 180.291 415.495 180.452 414.492L180.739 412.685C180.16 410.045 182.29 406.07 183.363 403.638C186.429 396.685 194.071 390.04 200.401 386.125C202.566 384.788 204.879 383.785 207.109 382.57C208.529 381.798 209.7 380.545 211.204 379.955C213.552 379.035 216.236 378.075 218.703 377.545C220.609 377.132 222.757 377.238 224.598 376.633C225.281 376.41 225.943 376.013 226.623 375.748ZM214.373 420.98C214.733 420.998 215.052 421.009 215.276 421.022C215.052 421.009 214.733 420.998 214.373 420.98ZM204.955 419.61C204.865 419.711 204.781 419.815 204.705 419.925H204.706C204.782 419.815 204.865 419.71 204.955 419.61ZM205.908 418.819C205.848 418.858 205.789 418.898 205.731 418.938C205.905 418.818 206.089 418.704 206.281 418.597L205.908 418.819ZM272.812 415.505C273.114 415.387 273.383 415.284 273.575 415.203C273.695 415.215 273.78 415.22 273.843 415.227C273.78 415.22 273.695 415.214 273.575 415.202C273.384 415.283 273.114 415.387 272.812 415.505ZM181.625 413.026H181.626H181.625ZM299.115 403.334C298.652 403.827 298.316 404.373 297.545 405.14V405.141C298.231 404.459 298.573 403.952 298.965 403.501C299.015 403.445 299.064 403.389 299.116 403.334H299.115ZM209.18 404.824C209.79 405.151 210.433 405.417 211.1 405.583C210.934 405.541 210.769 405.494 210.605 405.44C210.523 405.414 210.442 405.386 210.361 405.356C210.118 405.268 209.879 405.168 209.644 405.058C209.488 404.984 209.334 404.906 209.181 404.824H209.18ZM298.937 405.276C299.057 405.307 299.114 405.325 299.194 405.369C299.114 405.325 299.057 405.307 298.937 405.276ZM197.304 402.836C196.993 403.052 196.749 403.268 196.626 403.473H196.627C196.688 403.371 196.78 403.266 196.895 403.159C197.01 403.053 197.149 402.944 197.304 402.836ZM300.692 402.202L300.693 402.203L300.692 402.202ZM199.556 401.647C199.096 401.852 198.576 402.098 198.097 402.357C198.958 401.89 199.957 401.472 200.489 401.245L199.556 401.647ZM283.289 401.587C283.517 401.707 283.73 401.814 283.96 401.901C283.73 401.814 283.517 401.707 283.289 401.587ZM211.326 400.728V400.729V400.728ZM302.628 392.979V392.98V392.979ZM221.469 383.037H221.47H221.469Z" fill="#4B4746"/>
</g>
<defs>
<clipPath id="clip0_79_10748">
<rect width="480" height="480" fill="white"/>
</clipPath>
</defs>
</svg>
