<svg aria-hidden="true" width="32" height="32" viewBox="10.25 238.25 174 174" fill="none" xmlns="http://www.w3.org/2000/svg">
  <path d="M92.4 402.5c-36.3 0-66-29-66-64.6 0-15.2 5.9-29.4 16.9-39.7C54.1 287.8 68.6 282 84.1 282c13.5 0 25.9 4.1 34.5 11.7 9.3 8.3 14.9 20 14.9 33.2 0 23.8-18.7 42.1-43.2 42.1v-20c13.5 0 23.1-9 23.1-22.1 0-7.6-2.8-13.8-7.9-18.3-5.2-4.5-12.8-6.9-21.4-6.9-10 0-19.3 3.8-26.3 10.4-6.9 6.9-10.7 15.9-10.7 25.6 0 24.9 20.4 44.9 45.6 44.9 30.7 0 55.6-24.5 55.6-54.6 0-18.7-6.6-33.9-19-44.6-12.4-9.7-29.4-14.9-48.7-14.9v-20c24.2 0 45.9 7.3 61.1 20 17.3 14.5 26.3 34.9 26.3 59.4.1 41.1-33.8 74.6-75.6 74.6z" fill="#279B37"/>
</svg>
