<svg width="64" height="64" viewBox="-.5 -4.6 59 59" fill="none" xmlns="http://www.w3.org/2000/svg">
  <path d="M48.1742 31.8131 29.8499.731377C29.7612.5779 29.6327.450054 29.4774.360741 29.3221.271427 29.1455.223804 28.9654.222677 28.7853.22155 28.6081.266959 28.4517.354322 28.2953.441684 28.1652.567912 28.0745.720266L22.5865 10.0337C22.4068 10.3385 22.3122 10.6844 22.3122 11.0364 22.3122 11.3884 22.4068 11.7343 22.5865 12.0391L34.5351 32.3159C34.715 32.621 34.9739 32.8744 35.2856 33.0504 35.5973 33.2265 35.9508 33.319 36.3106 33.3186H47.2865C47.4662 33.3181 47.6426 33.2714 47.7981 33.1832 47.9535 33.095 48.0827 32.9683 48.1725 32.8159 48.2624 32.6636 48.3098 32.4907 48.3101 32.3148 48.3104 32.1388 48.2635 31.9658 48.1742 31.8131Z" fill="#363FF9"/>
  <path d="M.1413 48.0576 18.4656 16.9759C18.5555 16.8236 18.6848 16.6972 18.8404 16.6093 18.9959 16.5214 19.1723 16.4751 19.3519 16.4751 19.5315 16.4751 19.708 16.5214 19.8635 16.6093 20.0191 16.6972 20.1483 16.8236 20.2382 16.9759L25.729 26.2809C25.9087 26.5863 26.0033 26.9326 26.0033 27.285 26.0033 27.6375 25.9087 27.9838 25.729 28.2892L13.7803 48.5659C13.6011 48.871 13.3428 49.1245 13.0316 49.3005 12.7204 49.4766 12.3672 49.5691 12.0077 49.5686H1.02901C.848158 49.5695.670298 49.5235.513509 49.4352.35672 49.3469.226614 49.2195.136418 49.066.0462218 48.9125-.000849128 48.7383.0000115957 48.5612.00087232 48.384.0496154 48.2103.1413 48.0576Z" fill="#363FF9"/>
  <path d="M20.2356 49.562H56.8843C57.064 49.5618 57.2406 49.5153 57.3962 49.4271 57.5518 49.3389 57.6809 49.2121 57.7706 49.0595 57.8603 48.9069 57.9074 48.7339 57.9072 48.5578 57.9069 48.3817 57.8593 48.2088 57.7692 48.0565L52.2869 38.7459C52.107 38.4407 51.8482 38.1873 51.5365 38.0113 51.2248 37.8353 50.8712 37.7428 50.5114 37.7431H26.6141C26.2543 37.7428 25.9008 37.8353 25.5891 38.0113 25.2774 38.1873 25.0186 38.4407 24.8387 38.7459L19.3508 48.0565C19.2606 48.2088 19.213 48.3817 19.2128 48.5578 19.2125 48.7339 19.2595 48.9069 19.3492 49.0595 19.4389 49.2121 19.5681 49.3389 19.7237 49.4271 19.8793 49.5153 20.0558 49.5618 20.2356 49.562Z" fill="#363FF9"/>
</svg>
