<svg width="2500" height="2500" viewBox="0 0 2500 2500" fill="none" xmlns="http://www.w3.org/2000/svg">
<g clip-path="url(#clip0_60_17)">
<path d="M1956.32 1318.34C1656 1318.34 1412.59 1561.76 1412.59 1862.02C1412.59 2162.32 1656 2405.78 1956.32 2405.78C2256.59 2405.78 2500 2162.32 2500 1862.02C2500 1561.76 2256.59 1318.34 1956.32 1318.34ZM543.707 1318.37C243.438 1318.4 6.10352e-05 1561.76 6.10352e-05 1862.05C6.10352e-05 2162.32 243.438 2405.76 543.707 2405.76C844 2405.76 1087.44 2162.32 1087.44 1862.05C1087.44 1561.75 844 1318.37 543.681 1318.37H543.707ZM1793.71 638.707C1793.71 938.977 1550.3 1182.47 1250.03 1182.47C949.708 1182.47 706.294 938.977 706.294 638.707C706.294 338.438 949.708 95 1250.03 95C1550.29 95 1793.68 338.438 1793.68 638.707H1793.71Z" fill="url(#paint0_radial_60_17)"/>
</g>
<defs>
<radialGradient id="paint0_radial_60_17" cx="0" cy="0" r="1" gradientUnits="userSpaceOnUse" gradientTransform="translate(1250.34 1359.33) scale(1657.5 1532.05)">
<stop stop-color="#FFB900"/>
<stop offset="0.6" stop-color="#F95D8F"/>
<stop offset="0.999" stop-color="#F95353"/>
</radialGradient>
<clipPath id="clip0_60_17">
<rect width="2500" height="2500" fill="white"/>
</clipPath>
</defs>
</svg>
