<svg width="28" height="28" viewBox="0 0 24 24" fill="none" xmlns="http://www.w3.org/2000/svg">
  <path d="M18.0644 19.8889C18.0909 19.8889 18.1026 19.9226 18.0815 19.9387C16.3965 21.2315 14.288 22 12 22C9.71204 22 7.60352 21.2317 5.91852 19.9387C5.89741 19.9226 5.90908 19.8889 5.93556 19.8889H18.0646H18.0644ZM20.673 16.9815C20.3237 17.5883 19.9124 18.155 19.4481 18.673C19.4306 18.6926 19.4054 18.7037 19.3791 18.7037H4.62111C4.59482 18.7037 4.56963 18.6926 4.55204 18.673C4.0876 18.155 3.67648 17.5883 3.32723 16.9815C3.31297 16.9569 3.33093 16.9259 3.35945 16.9259H20.6407C20.6693 16.9259 20.6872 16.9569 20.673 16.9815ZM21.8022 13.9889C21.6833 14.5776 21.5128 15.1476 21.2956 15.6941C21.2843 15.7222 21.2569 15.7408 21.2265 15.7408H2.77352C2.74315 15.7408 2.71574 15.7222 2.70445 15.6941C2.48723 15.1478 2.31667 14.5778 2.19778 13.9889C2.19315 13.9659 2.21074 13.9445 2.23426 13.9445H21.7657C21.7891 13.9445 21.8069 13.9659 21.8022 13.9889ZM11.9324 2.00022C17.4863 1.96356 22 6.45466 22 12C22 12.2437 21.9913 12.4854 21.9743 12.7248C21.973 12.7443 21.9567 12.7593 21.9372 12.7593H2.06297C2.04352 12.7593 2.02723 12.7443 2.02593 12.7248C2.00889 12.4885 2.00019 12.2498 2 12.0091C1.99519 6.56818 6.49167 2.03633 11.9324 2.00022Z" fill="#FF5C04" />
</svg>
