<svg width="64" height="64" viewBox="0 0 64 64" fill="none" xmlns="http://www.w3.org/2000/svg">
  <rect width="64" height="64" rx="14" fill="#111827"/>
  <path d="M18 18h20c6.1 0 10 3.2 10 8.2 0 3.1-1.5 5.5-4.3 6.9 3.5 1.2 5.3 3.8 5.3 7.4 0 5.3-4.2 8.5-10.8 8.5H18V18Z" fill="#19D3C5"/>
  <path d="M28 29h8.2c2.1 0 3.3-1 3.3-2.8 0-1.7-1.2-2.7-3.3-2.7H28V29Z" fill="#111827"/>
  <path d="M28 43.5h9.3c2.3 0 3.6-1.1 3.6-3 0-1.8-1.3-2.9-3.6-2.9H28v5.9Z" fill="#111827"/>
  <path d="M16 52h32" stroke="#F9FAFB" stroke-width="4" stroke-linecap="round"/>
</svg>
