<svg xmlns="http://www.w3.org/2000/svg" viewBox="0 0 260 260" fill="none">
  <!-- Official brand asset source: https://www.bentoml.com/bentoml-favicon/safari-pinned-tab.svg -->
  <g transform="translate(0 260) scale(0.1 -0.1)" fill="#000000">
    <path d="M578 2588c-42-15-540-467-560-508-17-33-18-101-18-990V134l22-44c16-31 36-51 67-67l44-23h959c794 0 964 2 992 14 36 15 466 503 498 565 17 33 18 91 18 948 0 802-2 918-15 951-21 49-52 81-100 103-38 18-86 19-960 18-587 0-930-4-947-11zm1893-63c16-9 39-30 49-48 19-31 20-57 20-947 0-878-1-916-19-946-41-67 8-64-993-64-840 0-905 1-937 18-19 9-44 30-55 45-21 28-21 36-24 920-2 491 0 906 3 924 7 37 48 91 79 103 12 5 432 9 934 9 806 1 917-1 943-14z" />
    <path d="M1233 1631c-36-22-63-68-63-104 0-37 41-90 82-105 46-18 79-10 121 27 28 26 32 36 32 80 0 43-5 55-31 82-40 40-96 48-141 20z" />
    <path d="M1703 1630c-41-25-53-48-53-103 0-35 6-51 28-75 73-79 202-29 202 78 0 94-97 149-177 100z" />
  </g>
</svg>
