<svg
  width="32"
  height="32"
  viewBox="0 0 32 32"
  fill="none"
  xmlns="http://www.w3.org/2000/svg"
>
  <!-- Official brand asset source: https://www.bitrefill.com/favicon.svg -->
  <rect width="32" height="32" fill="#002B28" />
  <path
    d="M8.37594 12.9215L12.5551 9.82194V23.1495H17.669C19.5984 23.1495 20.9402 21.9083 20.9402 20.1096C20.9402 18.311 19.5984 17.0698 17.669 17.0698H14.865L18.4501 13.5056C19.4448 12.5167 19.6651 11.8928 19.6651 11.2091C19.6651 9.84849 18.6036 8.8861 16.9213 8.8861H8.37594V5.16925H17.6356C21.254 5.16925 23.8376 7.33962 23.8376 10.4658C23.8376 11.9525 23.5239 13.0675 22.4023 14.1826L21.6546 14.926C23.6841 15.9149 25.1128 17.9326 25.1128 20.5079C25.1128 24.2579 22.0885 26.8597 17.8492 26.8597H8.36926V12.9215H8.37594Z"
    fill="#E7E7E7"
  />
</svg>
