<svg xmlns="http://www.w3.org/2000/svg" viewBox="0 0 64 64" fill="none">
<path d="M48.7 14.3L44.5 8.6C43.8 7.6 42.7 7 41.5 7H22.5C21.3 7 20.2 7.6 19.5 8.6L15.3 14.3C14.1 16 14.4 18.3 16 19.6L30.3 31.4C31.3 32.2 32.7 32.2 33.7 31.4L48 19.6C49.6 18.3 49.9 16 48.7 14.3Z" fill="#FB542B"/>
<path d="M33.7 31.4C32.7 32.2 31.3 32.2 30.3 31.4L16 19.6C15.2 18.9 14.8 17.9 14.8 16.9L12.6 22.3C12.2 23.3 12.4 24.4 13 25.2L30.3 46.4C31.3 47.6 32.7 47.6 33.7 46.4L51 25.2C51.6 24.4 51.8 23.3 51.4 22.3L49.2 16.9C49.2 17.9 48.8 18.9 48 19.6L33.7 31.4Z" fill="#FB542B"/>
<path d="M30.3 46.4C31.3 47.6 32.7 47.6 33.7 46.4L51 25.2C51.6 24.4 51.8 23.3 51.4 22.3L45.8 36.1C45.4 37.1 44.6 37.9 43.6 38.3L33.7 42.4C32.6 42.9 31.4 42.9 30.3 42.4L20.4 38.3C19.4 37.9 18.6 37.1 18.2 36.1L12.6 22.3C12.2 23.3 12.4 24.4 13 25.2L30.3 46.4Z" fill="#FB542B" opacity="0.8"/>
<path d="M32 36C37.523 36 42 40.477 42 46s-4.477 10-10 10-10-4.477-10-10 4.477-10 10-10z" fill="#FB542B"/>
<path d="M28 46l2.5 2.5L37 43" stroke="white" stroke-width="2.5" stroke-linecap="round" stroke-linejoin="round" fill="none"/>
</svg>
