<svg width="64" height="64" viewBox="0 0 64 64" fill="none" xmlns="http://www.w3.org/2000/svg">
<g clipPath="url(#clip0_10_12)">
<path d="M53.4228 9.53469L47.9371 2.0898C47.0228 0.783674 45.5861 0 44.0187 0H19.2024C17.6351 0 16.1983 0.783674 15.284 2.0898L9.79832 9.53469C8.23097 11.7551 8.62281 14.7592 10.7126 16.4571L29.3902 31.8694C30.6963 32.9143 32.5249 32.9143 33.831 31.8694L52.5085 16.4571C54.5983 14.7592 54.9902 11.7551 53.4228 9.53469Z" fill="#FB542B"/>
<path d="M33.831 31.8694C32.5249 32.9143 30.6963 32.9143 29.3902 31.8694L10.7126 16.4571C9.66773 15.5428 9.14528 14.2367 9.14528 12.9306L6.27181 19.9837C5.74936 21.2898 6.01058 22.7265 6.79426 23.7714L29.3902 51.4612C30.6963 53.0286 32.5249 53.0286 33.831 51.4612L56.4269 23.7714C57.2106 22.7265 57.4718 21.2898 56.9494 19.9837L54.0759 12.9306C54.0759 14.2367 53.5534 15.5428 52.5085 16.4571L33.831 31.8694Z" fill="#FB542B"/>
<path opacity="0.8" d="M29.3902 51.4612C30.6963 53.0285 32.5249 53.0285 33.831 51.4612L56.4269 23.7714C57.2106 22.7265 57.4718 21.2898 56.9494 19.9836L49.6351 38.0081C49.1126 39.3143 48.0677 40.3592 46.7616 40.8816L33.831 46.2367C32.3943 46.8898 30.8269 46.8898 29.3902 46.2367L16.4596 40.8816C15.1534 40.3592 14.1085 39.3143 13.5861 38.0081L6.27181 19.9836C5.74936 21.2898 6.01058 22.7265 6.79426 23.7714L29.3902 51.4612Z" fill="#FB542B"/>
<path d="M31.6106 37.8776C38.8243 37.8776 44.6718 43.7251 44.6718 50.9388C44.6718 58.1525 38.8243 64 31.6106 64C24.3969 64 18.5493 58.1525 18.5493 50.9388C18.5493 43.7251 24.3969 37.8776 31.6106 37.8776Z" fill="#FB542B"/>
<path d="M26.3861 50.9388L29.6514 54.2041L38.1412 47.0204" stroke="white" strokeWidth="2.5" strokeLinecap="round" strokeLinejoin="round"/>
</g>
<defs>
<clipPath id="clip0_10_12">
<rect width="64" height="64" fill="white"/>
</clipPath>
</defs>
</svg>
