<svg
  xmlns="http://www.w3.org/2000/svg"
  width="64"
  height="64"
  viewBox="0 0 81 81"
  fill="none"
>
  <!-- Official sources: https://brightdata.jp/wp-content/themes/brightdata/assets/images/favicon.png and symbols_brd.svg#logo_letter -->
  <rect width="81" height="81" rx="8" fill="#3D7FFC" />
  <g transform="translate(33 15) scale(0.9648)" fill="white">
    <path
      d="M1.86213 4.33204C2.64977 5.82857 2.25594 7.08879 1.70459 8.42779C0.838178 10.6332 1.07448 12.7598 2.64977 14.5714C4.22506 16.4618 6.43045 16.698 8.71461 16.2255C11.8652 15.5166 13.6768 12.5235 13.2042 9.21543C12.9679 7.64015 12.0227 6.06486 12.8891 4.33204C12.1015 4.72586 12.1015 4.72586 11.1563 6.30115C10.2899 5.27722 9.50227 4.17451 8.5571 3.07181C7.76946 2.2054 6.98179 1.41776 7.45438 0C6.50921 0.472587 6.03663 1.1027 5.72158 1.89034C5.48528 2.67799 5.32774 3.46563 5.17022 4.25327C5.01269 5.04092 4.61888 5.7498 3.83124 6.22238C3.35865 5.35598 2.88606 4.72586 1.86213 4.33204Z"
    />
    <path
      d="M0 52.8596V49.0073L4.17371 48.4647V26.436L0.325223 25.1881V20.9017L10.8408 19.491L13.0632 19.2712V20.7389V48.4105L17.1827 49.0073V52.8596H0Z"
    />
  </g>
</svg>
