<svg xmlns="http://www.w3.org/2000/svg" width="256" height="256" viewBox="0 0 256 256">
  <path
    fill="#000000"
    d="M60.96875 0C61.0625 0.03125 67.5625 3.75 89.75 16.625L89.75 119.5625C89.75 217.46875 89.78125 222.5 90.1875 222.375C90.4375 222.3125 107.625 213.875 166.21875 185.125L166.25 169.6875C166.25 157.4375 166.1875 154.28125 165.9375 154.34375C165.78125 154.40625 155.03125 159.34375 142.0625 165.34375C129.09375 171.34375 118.4375 176.21875 118.375 176.1875C118.3125 176.15625 118.3125 144.09375 118.375 33.78125L147.25 50.78125L147.53125 114.875L195.375 142.71875L195.5 203.625L142.21875 229.75C112.9375 244.125 88.75 255.90625 88.53125 255.9375C88.3125 256 81.90625 251.875 60.46875 237.625L60.5 163.5C60.5 122.71875 60.5625 69.28125 60.6875 44.6875C60.75 20.09375 60.90625 0 60.96875 0Z"
  />
</svg>
