<!-- Official brand asset source: https://bubblemaps.io/safari-pinned-tab.svg?v=2 -->
<?xml version="1.0" standalone="no"?>
<!DOCTYPE svg PUBLIC "-//W3C//DTD SVG 20010904//EN"
 "http://www.w3.org/TR/2001/REC-SVG-20010904/DTD/svg10.dtd">
<svg version="1.0" xmlns="http://www.w3.org/2000/svg"
 width="888.000000pt" height="888.000000pt" viewBox="0 0 888.000000 888.000000"
 preserveAspectRatio="xMidYMid meet">
<metadata>
Created by potrace 1.14, written by Peter Selinger 2001-2017
</metadata>
<g transform="translate(0.000000,888.000000) scale(0.100000,-0.100000)"
fill="#000000" stroke="none">
<path d="M2008 7044 c-7 -16 -16 -32 -21 -35 -5 -3 -8 -9 -8 -13 1 -3 -13 -34
-31 -69 -18 -34 -33 -64 -33 -67 -1 -3 -14 -32 -29 -65 -15 -33 -33 -73 -40
-90 -7 -16 -18 -41 -24 -55 -43 -97 -119 -364 -146 -515 -21 -114 -27 -361
-11 -445 3 -19 8 -44 10 -55 17 -103 98 -280 203 -445 9 -14 17 -27 17 -30 0
-3 8 -16 16 -30 39 -61 119 -203 119 -211 0 -5 3 -9 8 -9 4 0 13 -14 21 -31 8
-18 30 -59 51 -93 20 -33 48 -81 62 -106 14 -25 83 -144 153 -265 147 -253
145 -249 216 -375 29 -52 56 -97 59 -100 3 -3 11 -16 18 -30 7 -14 26 -47 42
-75 16 -27 34 -59 40 -70 5 -11 14 -27 20 -35 22 -35 90 -152 90 -156 0 -3 11
-22 24 -43 23 -36 229 -393 284 -491 13 -25 31 -52 38 -61 8 -8 14 -19 14 -23
0 -4 29 -57 65 -117 36 -61 65 -113 65 -115 0 -2 11 -23 26 -45 24 -39 37 -60
92 -159 14 -24 49 -84 78 -133 30 -49 54 -91 54 -93 0 -2 8 -12 18 -23 9 -10
28 -33 42 -52 98 -130 290 -266 455 -324 28 -9 57 -20 65 -23 19 -7 18 -7 60
-15 19 -4 46 -10 60 -13 59 -13 254 -19 310 -10 14 3 41 7 60 10 193 30 420
148 568 296 150 151 265 369 297 565 13 77 16 110 15 190 0 86 -2 105 -15 196
-15 101 -77 254 -163 404 -16 28 -38 66 -49 85 -11 19 -34 59 -52 88 -17 29
-31 57 -31 62 0 6 -4 10 -10 10 -5 0 -10 4 -10 8 0 5 -32 64 -72 133 -39 68
-89 156 -111 194 -22 39 -48 82 -58 96 -10 14 -16 29 -12 33 3 3 1 6 -5 6 -7
0 -12 4 -12 9 0 4 -35 68 -78 142 -43 74 -90 154 -104 179 -14 25 -58 101 -97
168 -39 68 -71 128 -71 133 0 5 -3 9 -8 9 -4 0 -18 21 -32 48 -13 26 -48 87
-77 135 -29 48 -53 90 -53 92 0 2 -25 45 -55 95 -30 50 -55 93 -55 96 0 2 -11
21 -23 42 -13 20 -35 57 -49 82 -39 70 -63 111 -98 170 -18 30 -47 80 -63 110
-17 30 -48 84 -69 119 -21 34 -38 67 -38 72 0 5 -4 9 -10 9 -5 0 -10 5 -10 11
0 6 -22 48 -48 92 -26 45 -51 89 -55 97 -4 8 -16 29 -27 45 -11 17 -23 37 -27
45 -4 8 -24 43 -45 78 -21 34 -38 65 -38 68 0 3 -13 26 -30 51 -16 24 -30 47
-30 51 0 11 -103 139 -131 163 -13 11 -40 35 -59 52 -89 80 -326 211 -435 240
-11 3 -44 14 -72 25 -29 11 -53 18 -53 16 0 -3 -8 0 -17 5 -10 5 -31 11 -48
14 -16 3 -37 8 -45 11 -8 3 -26 8 -40 10 -14 3 -59 11 -100 19 -41 9 -93 18
-115 21 -22 3 -53 8 -70 10 -57 9 -140 16 -272 22 l-132 7 -13 -29z"/>
<path d="M5389 7049 c-100 -157 -270 -582 -305 -762 -2 -10 -6 -28 -10 -40 -4
-12 -8 -31 -10 -42 -2 -11 -5 -29 -7 -40 -15 -67 -20 -139 -21 -285 -1 -165 2
-192 30 -304 19 -78 132 -311 172 -354 6 -7 12 -20 12 -28 0 -8 5 -14 10 -14
6 0 10 -4 10 -10 0 -5 27 -55 60 -111 33 -55 60 -102 60 -104 0 -2 27 -49 60
-104 33 -56 60 -104 60 -107 0 -3 14 -25 30 -49 17 -24 30 -47 30 -51 0 -4 17
-34 38 -68 21 -34 44 -74 52 -90 28 -55 35 -66 42 -66 5 0 8 -6 8 -14 0 -7 9
-25 20 -38 10 -14 17 -28 14 -30 -2 -3 2 -11 11 -18 8 -7 15 -19 15 -26 0 -8
5 -14 10 -14 6 0 10 -5 10 -10 0 -11 191 -346 209 -366 5 -7 17 -27 26 -45 23
-50 79 -147 93 -161 7 -7 12 -15 12 -20 0 -4 22 -45 49 -90 71 -120 269 -464
304 -528 17 -30 48 -83 69 -118 21 -34 38 -67 38 -72 0 -6 5 -10 10 -10 6 0
10 -4 10 -9 0 -5 32 -65 71 -133 39 -67 80 -139 91 -158 152 -267 191 -323
295 -427 142 -140 346 -249 529 -282 33 -6 70 -13 84 -16 30 -6 223 -6 265 0
31 5 123 23 140 29 6 1 30 8 54 15 120 34 296 139 405 242 60 56 176 197 176
214 0 4 8 19 19 33 10 15 31 56 45 92 15 36 31 74 36 85 10 22 35 118 46 180
4 22 8 93 9 158 1 104 -3 146 -31 284 -8 42 -56 165 -81 212 -86 155 -238 417
-245 419 -4 2 -8 8 -8 12 0 5 -33 66 -72 135 -40 69 -82 142 -94 163 -11 20
-56 98 -99 172 -43 74 -83 144 -89 155 -6 11 -13 22 -16 25 -3 3 -12 19 -20
35 -8 17 -24 44 -35 61 -27 43 -55 94 -52 97 1 1 -8 16 -19 32 -21 29 -38 58
-92 155 -13 25 -29 50 -33 56 -5 6 -21 33 -35 60 -39 72 -47 85 -77 131 -15
24 -27 45 -27 48 0 2 -20 39 -45 81 -25 41 -45 80 -45 85 0 5 -4 9 -10 9 -5 0
-10 4 -10 10 0 5 -22 47 -49 92 -42 73 -93 160 -293 507 -26 46 -48 88 -48 92
0 5 -4 9 -9 9 -5 0 -12 9 -16 20 -5 16 -52 101 -105 190 -5 8 -33 56 -61 105
-85 147 -142 226 -216 296 -80 75 -204 159 -317 213 -80 39 -296 119 -296 110
0 -2 -8 0 -18 5 -11 6 -30 12 -43 15 -13 3 -44 11 -69 17 -25 5 -56 12 -70 14
-14 3 -32 6 -40 8 -8 2 -37 7 -65 11 -27 4 -61 10 -75 12 -96 17 -153 22 -305
30 l-141 7 -15 -24z"/>
<path d="M920 3960 c-8 -5 -18 -7 -22 -4 -4 3 -27 0 -50 -7 -24 -6 -54 -13
-67 -16 -13 -2 -32 -8 -43 -14 -10 -5 -18 -6 -18 -2 0 4 -5 2 -12 -5 -7 -7
-18 -12 -26 -12 -24 0 -170 -77 -240 -126 -247 -176 -382 -426 -429 -799 -10
-77 -9 -452 1 -530 4 -33 9 -76 12 -95 5 -39 12 -85 18 -115 2 -11 7 -40 12
-65 4 -25 8 -47 9 -50 0 -3 9 -42 20 -87 21 -92 19 -91 135 -112 30 -6 66 -13
80 -16 24 -5 54 -10 110 -19 14 -2 36 -7 50 -10 139 -32 566 -39 720 -12 14 3
43 7 65 11 128 19 390 118 426 161 6 8 18 14 26 14 7 0 16 7 19 15 4 8 11 15
18 15 14 0 132 120 172 175 16 22 34 45 40 52 31 32 125 238 139 303 1 8 8 33
14 55 43 160 32 388 -27 570 -28 88 -94 221 -144 291 -72 100 -218 232 -333
301 -88 53 -262 115 -360 130 -66 10 -301 12 -315 3z"/>
</g>
</svg>
