<svg xmlns="http://www.w3.org/2000/svg" width="512" height="512" viewBox="0 0 512 512">
  <defs>
    <linearGradient id="cal-bg" x1="256" y1="0" x2="256" y2="512" gradientUnits="userSpaceOnUse">
      <stop offset="0" stop-color="#3f3f3f" />
      <stop offset="0.18" stop-color="#292929" />
      <stop offset="0.68" stop-color="#171717" />
      <stop offset="1" stop-color="#202020" />
    </linearGradient>
    <linearGradient id="cal-border" x1="74" y1="28" x2="398" y2="492" gradientUnits="userSpaceOnUse">
      <stop offset="0" stop-color="#8c8c8c" />
      <stop offset="0.18" stop-color="#444444" />
      <stop offset="0.65" stop-color="#0d0d0d" />
      <stop offset="1" stop-color="#595959" />
    </linearGradient>
    <linearGradient id="cal-mark" x1="0" y1="0" x2="0" y2="1">
      <stop offset="0" stop-color="#ffffff" />
      <stop offset="0.36" stop-color="#f7f7f7" />
      <stop offset="0.7" stop-color="#bfbfbf" />
      <stop offset="1" stop-color="#eeeeee" />
    </linearGradient>
  </defs>
  <rect width="512" height="512" rx="96" fill="url(#cal-bg)" />
  <rect x="8" y="8" width="496" height="496" rx="88" fill="none" stroke="url(#cal-border)" stroke-width="16" opacity="0.62" />
  <g transform="translate(65 154) scale(9.7)">
    <path
      d="M10.058 20.817C4.321 20.817 0 16.277 0 10.67C0 5.046 4.1 0.468 10.058 0.468C13.221 0.468 15.409 1.439 17.119 3.663L14.361 5.962C13.202 4.728 11.805 4.112 10.058 4.112C6.178 4.112 4.045 7.082 4.045 10.67C4.045 14.258 6.381 17.173 10.058 17.173C11.787 17.173 13.258 16.557 14.416 15.323L17.137 17.715C15.501 19.845 13.257 20.817 10.058 20.817ZM29.016 5.886H32.73V20.461H29.016V18.331C28.244 19.845 26.956 20.854 24.493 20.854C20.558 20.854 17.413 17.434 17.413 13.23C17.413 9.025 20.558 5.606 24.493 5.606C26.938 5.606 28.243 6.615 29.016 8.128V5.886ZM29.126 13.23C29.126 10.95 27.563 9.063 25.099 9.063C22.727 9.063 21.183 10.969 21.183 13.23C21.183 15.435 22.727 17.397 25.099 17.397C27.545 17.397 29.126 15.491 29.126 13.23ZM35.36 0H39.074V20.443H35.36V0Z"
      fill="#000000"
      opacity="0.42"
      transform="translate(0.5 0.7)"
    />
    <path
      d="M10.058 20.817C4.321 20.817 0 16.277 0 10.67C0 5.046 4.1 0.468 10.058 0.468C13.221 0.468 15.409 1.439 17.119 3.663L14.361 5.962C13.202 4.728 11.805 4.112 10.058 4.112C6.178 4.112 4.045 7.082 4.045 10.67C4.045 14.258 6.381 17.173 10.058 17.173C11.787 17.173 13.258 16.557 14.416 15.323L17.137 17.715C15.501 19.845 13.257 20.817 10.058 20.817ZM29.016 5.886H32.73V20.461H29.016V18.331C28.244 19.845 26.956 20.854 24.493 20.854C20.558 20.854 17.413 17.434 17.413 13.23C17.413 9.025 20.558 5.606 24.493 5.606C26.938 5.606 28.243 6.615 29.016 8.128V5.886ZM29.126 13.23C29.126 10.95 27.563 9.063 25.099 9.063C22.727 9.063 21.183 10.969 21.183 13.23C21.183 15.435 22.727 17.397 25.099 17.397C27.545 17.397 29.126 15.491 29.126 13.23ZM35.36 0H39.074V20.443H35.36V0Z"
      fill="url(#cal-mark)"
      stroke="#ffffff"
      stroke-width="0.18"
      stroke-linejoin="round"
    />
  </g>
</svg>
