<svg width="40" height="40" viewBox="0 0 40 40" xmlns="http://www.w3.org/2000/svg">
  <path d="M 10.058 20.817 C 4.321 20.817 0 16.277 0 10.67 C 0 5.046 4.1 0.468 10.058 0.468 C 13.221 0.468 15.409 1.439 17.119 3.663 L 14.361 5.962 C 13.202 4.728 11.805 4.112 10.058 4.112 C 6.178 4.112 4.045 7.082 4.045 10.67 C 4.045 14.258 6.381 17.173 10.058 17.173 C 11.787 17.173 13.258 16.557 14.416 15.323 L 17.137 17.715 C 15.501 19.845 13.257 20.817 10.058 20.817 Z M 29.016 5.886 L 32.73 5.886 L 32.73 20.461 L 29.016 20.461 L 29.016 18.331 C 28.244 19.845 26.956 20.854 24.493 20.854 C 20.558 20.854 17.413 17.434 17.413 13.23 C 17.413 9.025 20.558 5.606 24.493 5.606 C 26.938 5.606 28.243 6.615 29.016 8.128 Z M 29.126 13.23 C 29.126 10.95 27.563 9.063 25.099 9.063 C 22.727 9.063 21.183 10.969 21.183 13.23 C 21.183 15.435 22.727 17.397 25.099 17.397 C 27.545 17.397 29.126 15.491 29.126 13.23 Z M 35.36 0 L 39.074 0 L 39.074 20.443 L 35.36 20.443 Z" fill="#292929" transform="translate(0.463 9.573)"/>
</svg>
