<svg width="12" height="12" viewBox="0 0 12 12" fill="none" xmlns="http://www.w3.org/2000/svg">
<g clip-path="url(#clip0_10_31)">
<path d="M1.19503 6.83868C0.513404 6.83868 0 6.21949 0 5.45505C0 4.68807 0.487188 4.06378 1.19503 4.06378C1.5708 4.06378 1.83077 4.19628 2.03395 4.49951L1.70625 4.81293C1.56861 4.64475 1.40257 4.56066 1.19503 4.56066C0.734059 4.56066 0.480633 4.96581 0.480633 5.45505C0.480633 5.94429 0.75809 6.34179 1.19503 6.34179C1.40039 6.34179 1.57517 6.25771 1.7128 6.08954L2.03614 6.41569C1.8417 6.70617 1.57517 6.83868 1.19503 6.83868Z" fill="#292929"/>
<path d="M3.44746 4.80263H3.88876V6.79015H3.44746V6.49967C3.3557 6.70607 3.20277 6.84366 2.91003 6.84366C2.4425 6.84366 2.06891 6.37737 2.06891 5.80404C2.06891 5.23071 2.4425 4.7644 2.91003 4.7644C3.20059 4.7644 3.3557 4.902 3.44746 5.1084V4.80263ZM3.46056 5.80404C3.46056 5.49317 3.27486 5.23581 2.98212 5.23581C2.70029 5.23581 2.51677 5.49571 2.51677 5.80404C2.51677 6.10471 2.70029 6.37227 2.98212 6.37227C3.27269 6.37227 3.46056 6.11236 3.46056 5.80404Z" fill="#292929"/>
<path d="M4.20117 4H4.64247V6.78764H4.20117V4Z" fill="#292929"/>
<path d="M4.83911 6.5252C4.83911 6.36212 4.95272 6.22452 5.10783 6.22452C5.26295 6.22452 5.37218 6.36212 5.37218 6.5252C5.37218 6.69338 5.26076 6.83097 5.10783 6.83097C4.95491 6.83097 4.83911 6.69338 4.83911 6.5252Z" fill="#292929"/>
<path d="M7.06096 6.4691C6.8971 6.69842 6.64805 6.84366 6.35311 6.84366C5.8266 6.84366 5.43991 6.37737 5.43991 5.80404C5.43991 5.23071 5.8266 4.7644 6.35311 4.7644C6.63712 4.7644 6.884 4.902 7.04785 5.11859L6.70704 5.4473C6.62183 5.32499 6.51041 5.23326 6.35311 5.23326C6.07129 5.23326 5.88777 5.49317 5.88777 5.80149C5.88777 6.10981 6.07129 6.36972 6.35311 6.36972C6.52352 6.36972 6.64149 6.2678 6.72888 6.13019L7.06096 6.4691Z" fill="#292929"/>
<path d="M7.09808 5.80404C7.09808 5.23071 7.48477 4.7644 8.01128 4.7644C8.5378 4.7644 8.92448 5.23071 8.92448 5.80404C8.92448 6.37737 8.5378 6.84366 8.01128 6.84366C7.48477 6.84111 7.09808 6.37737 7.09808 5.80404ZM8.47662 5.80404C8.47662 5.49317 8.29311 5.23581 8.01128 5.23581C7.72946 5.23326 7.54594 5.49317 7.54594 5.80404C7.54594 6.11236 7.72946 6.37227 8.01128 6.37227C8.29311 6.37227 8.47662 6.11236 8.47662 5.80404Z" fill="#292929"/>
<path d="M11.9088 5.57477V6.78767H11.4675V5.69962C11.4675 5.35563 11.3277 5.20784 11.1179 5.20784C10.9213 5.20784 10.7815 5.31995 10.7815 5.69962V6.78767H10.3402V5.69962C10.3402 5.35563 10.1982 5.20784 9.99064 5.20784C9.79402 5.20784 9.62142 5.31995 9.62142 5.69962V6.78767H9.18011V4.80014H9.62142V5.07534C9.71318 4.86129 9.87922 4.75427 10.1348 4.75427C10.3773 4.75427 10.5805 4.89187 10.6919 5.12375C10.8033 4.88677 10.9672 4.75427 11.2643 4.75427C11.627 4.75682 11.9088 5.07279 11.9088 5.57477Z" fill="#292929"/>
</g>
<defs>
<clipPath id="clip0_10_31">
<rect width="12" height="3" fill="white" transform="translate(0 4)"/>
</clipPath>
</defs>
</svg>
