<svg width="526" height="536" viewBox="0 0 526 536" fill="none" xmlns="http://www.w3.org/2000/svg">
<g clip-path="url(#clip0_10_42)">
<path d="M360.4 347.4C343.4 362.49 322.19 381.27 283.62 381.27H260.62C232.74 381.27 207.39 371.15 189.25 352.78C171.53 334.84 161.77 310.28 161.77 283.62V252.11C161.77 225.45 171.53 200.89 189.25 182.95C207.39 164.58 232.74 154.46 260.62 154.46H283.62C322.19 154.46 343.38 173.24 360.4 188.33C378.05 203.98 393.3 217.49 433.92 217.49C440.116 217.491 446.303 216.996 452.42 216.01C452.42 215.89 452.34 215.78 452.29 215.66C449.854 209.617 446.997 203.753 443.74 198.11L416.58 151.06C404.334 129.852 386.723 112.241 365.515 99.9954C344.307 87.7502 320.249 81.3024 295.76 81.3H241.43C216.941 81.3024 192.883 87.7502 171.675 99.9954C150.467 112.241 132.856 129.852 120.61 151.06L93.45 198.11C81.2064 219.319 74.7607 243.376 74.7607 267.865C74.7607 292.354 81.2064 316.411 93.45 337.62L120.61 384.67C132.856 405.877 150.468 423.487 171.676 435.73C192.884 447.974 216.941 454.42 241.43 454.42H295.76C320.249 454.42 344.306 447.974 365.514 435.73C386.722 423.487 404.334 405.877 416.58 384.67L443.74 337.62C446.997 331.977 449.854 326.113 452.29 320.07C452.29 319.95 452.38 319.84 452.42 319.72C446.303 318.734 440.116 318.239 433.92 318.24C393.3 318.24 378.05 331.75 360.4 347.4Z" fill="#006BFF"/>
<path d="M283.62 183H260.62C218.2 183 190.32 213.3 190.32 252.09V283.6C190.32 322.39 218.2 352.69 260.62 352.69H283.62C345.44 352.69 340.62 289.69 433.92 289.69C442.765 289.683 451.593 290.49 460.29 292.1C463.12 276.071 463.12 259.669 460.29 243.64C451.594 245.259 442.766 246.069 433.92 246.06C340.59 246.05 345.44 183 283.62 183Z" fill="#006BFF"/>
<path d="M513.91 315.13C498.006 303.506 479.673 295.642 460.29 292.13C460.29 292.29 460.24 292.45 460.21 292.6C458.546 301.895 455.936 310.996 452.42 319.76C468.434 322.238 483.629 328.49 496.75 338C496.75 338.14 496.67 338.28 496.62 338.43C489.184 362.579 477.946 385.388 463.33 406C448.881 426.421 431.337 444.464 411.33 459.48C362.897 495.915 302.443 512.616 242.175 506.209C181.907 499.803 126.315 470.767 86.6242 424.964C46.9333 379.161 26.1006 320.003 28.3327 259.437C30.5648 198.871 55.6953 141.407 98.65 98.65C127.831 69.4906 164.052 48.3656 203.799 37.3232C243.547 26.2807 285.474 25.6955 325.514 35.6241C365.555 45.5527 402.35 65.6584 432.334 93.9918C462.318 122.325 484.473 157.925 496.65 197.34C496.7 197.49 496.74 197.63 496.78 197.77C483.65 207.281 468.444 213.53 452.42 216C455.935 224.772 458.548 233.879 460.22 243.18C460.22 243.33 460.22 243.48 460.29 243.62C479.676 240.117 498.011 232.252 513.91 220.62C529.2 209.31 526.24 196.53 523.91 188.97C490.22 79.52 388.33 0 267.86 0C119.93 0 0 119.93 0 267.86C0 415.79 119.93 535.73 267.86 535.73C388.33 535.73 490.22 456.21 523.86 346.79C526.24 339.23 529.2 326.45 513.91 315.13Z" fill="#006BFF"/>
<path d="M452.42 216C446.303 216.986 440.116 217.481 433.92 217.48C393.3 217.48 378.05 203.97 360.4 188.32C343.4 173.23 322.19 154.45 283.62 154.45H260.62C232.74 154.45 207.39 164.57 189.25 182.94C171.53 200.88 161.77 225.44 161.77 252.1V283.61C161.77 310.27 171.53 334.83 189.25 352.77C207.39 371.14 232.74 381.26 260.62 381.26H283.62C322.19 381.26 343.38 362.48 360.4 347.39C378.05 331.74 393.3 318.23 433.92 318.23C440.116 318.229 446.303 318.724 452.42 319.71C455.936 310.946 458.546 301.845 460.21 292.55C460.21 292.4 460.27 292.24 460.29 292.08C451.593 290.47 442.765 289.663 433.92 289.67C340.59 289.67 345.44 352.67 283.62 352.67H260.62C218.2 352.67 190.32 322.37 190.32 283.58V252.11C190.32 213.32 218.2 183.02 260.62 183.02H283.62C345.44 183.02 340.62 246.02 433.92 246.02C442.766 246.029 451.594 245.219 460.29 243.6C460.29 243.46 460.29 243.31 460.22 243.16C458.547 233.866 455.934 224.766 452.42 216Z" fill="#0AE9EF"/>
<path d="M452.42 216C446.303 216.986 440.116 217.481 433.92 217.48C393.3 217.48 378.05 203.97 360.4 188.32C343.4 173.23 322.19 154.45 283.62 154.45H260.62C232.74 154.45 207.39 164.57 189.25 182.94C171.53 200.88 161.77 225.44 161.77 252.1V283.61C161.77 310.27 171.53 334.83 189.25 352.77C207.39 371.14 232.74 381.26 260.62 381.26H283.62C322.19 381.26 343.38 362.48 360.4 347.39C378.05 331.74 393.3 318.23 433.92 318.23C440.116 318.229 446.303 318.724 452.42 319.71C455.936 310.946 458.546 301.845 460.21 292.55C460.21 292.4 460.27 292.24 460.29 292.08C451.593 290.47 442.765 289.663 433.92 289.67C340.59 289.67 345.44 352.67 283.62 352.67H260.62C218.2 352.67 190.32 322.37 190.32 283.58V252.11C190.32 213.32 218.2 183.02 260.62 183.02H283.62C345.44 183.02 340.62 246.02 433.92 246.02C442.766 246.029 451.594 245.219 460.29 243.6C460.29 243.46 460.29 243.31 460.22 243.16C458.547 233.866 455.934 224.766 452.42 216Z" fill="#0AE9EF"/>
</g>
<defs>
<clipPath id="clip0_10_42">
<rect width="525.8" height="535.73" fill="white"/>
</clipPath>
</defs>
</svg>
