<svg width="508" height="508" viewBox="0 0 508 508" fill="none" xmlns="http://www.w3.org/2000/svg">
<g clip-path="url(#clip0_60_9)">
<path d="M253.821 507.642C394.002 507.642 507.642 394.002 507.642 253.821C507.642 113.64 394.002 0 253.821 0C113.64 0 0 113.64 0 253.821C0 394.002 113.64 507.642 253.821 507.642Z" fill="#7D2AE7"/>
<path d="M253.821 507.642C394.002 507.642 507.642 394.002 507.642 253.821C507.642 113.64 394.002 0 253.821 0C113.64 0 0 113.64 0 253.821C0 394.002 113.64 507.642 253.821 507.642Z" fill="url(#paint0_radial_60_9)"/>
<path d="M253.821 507.642C394.002 507.642 507.642 394.002 507.642 253.821C507.642 113.64 394.002 0 253.821 0C113.64 0 0 113.64 0 253.821C0 394.002 113.64 507.642 253.821 507.642Z" fill="url(#paint1_radial_60_9)"/>
<path d="M253.821 507.642C394.002 507.642 507.642 394.002 507.642 253.821C507.642 113.64 394.002 0 253.821 0C113.64 0 0 113.64 0 253.821C0 394.002 113.64 507.642 253.821 507.642Z" fill="url(#paint2_radial_60_9)"/>
<path d="M253.821 507.642C394.002 507.642 507.642 394.002 507.642 253.821C507.642 113.64 394.002 0 253.821 0C113.64 0 0 113.64 0 253.821C0 394.002 113.64 507.642 253.821 507.642Z" fill="url(#paint3_radial_60_9)"/>
<path d="M446.744 276.845C446.079 276.845 445.473 277.275 445.16 278.175C441.149 289.621 435.73 296.429 431.269 296.429C428.706 296.429 427.669 293.573 427.669 289.093C427.669 277.883 434.379 254.111 437.764 243.273C438.156 241.961 438.41 240.788 438.41 239.79C438.41 236.64 436.688 235.094 432.423 235.094C427.825 235.094 422.876 236.894 418.063 245.327C416.4 237.892 411.372 234.644 404.348 234.644C396.228 234.644 388.383 239.868 381.927 248.34C375.471 256.811 367.879 259.59 362.167 258.22C366.275 248.163 367.801 240.65 367.801 235.075C367.801 226.329 363.477 221.047 356.493 221.047C345.869 221.047 339.746 231.181 339.746 241.844C339.746 250.081 343.482 258.552 351.7 262.661C344.813 278.234 334.757 292.321 330.942 292.321C326.012 292.321 324.563 268.198 324.837 250.941C325.013 241.041 325.835 240.533 325.835 237.54C325.835 235.818 324.72 234.644 320.24 234.644C309.792 234.644 306.564 243.488 306.075 253.642C305.917 257.501 305.313 261.328 304.275 265.048C299.912 280.621 290.912 292.438 285.043 292.438C282.323 292.438 281.58 289.718 281.58 286.158C281.58 274.948 287.86 260.939 287.86 248.985C287.86 240.201 284.006 234.645 276.748 234.645C268.198 234.645 256.89 244.818 246.188 263.874C249.709 249.279 251.158 235.153 240.729 235.153C238.467 235.187 236.246 235.764 234.253 236.836C233.585 237.15 233.027 237.657 232.65 238.292C232.273 238.926 232.096 239.659 232.14 240.396C233.138 255.931 219.619 295.725 206.804 295.725C204.476 295.725 203.341 293.201 203.341 289.132C203.341 277.902 210.032 254.189 213.397 243.331C213.827 241.922 214.063 240.709 214.063 239.653C214.063 236.679 212.223 235.153 208.056 235.153C203.478 235.153 198.509 236.894 193.716 245.327C192.033 237.892 187.005 234.644 179.981 234.644C168.458 234.644 155.584 246.834 149.93 262.72C142.358 283.928 127.098 304.412 106.555 304.412C87.91 304.412 78.069 288.897 78.069 264.382C78.069 228.99 104.051 200.074 123.322 200.074C132.537 200.074 136.939 205.943 136.939 214.943C136.939 225.84 130.854 230.907 130.854 235.055C130.854 236.327 131.911 237.579 134.004 237.579C142.378 237.579 152.238 227.738 152.238 214.317C152.238 200.895 141.341 191.074 122.07 191.074C90.219 191.074 58.172 223.121 58.172 264.187C58.172 296.86 74.293 316.561 102.172 316.561C121.189 316.561 137.8 301.771 146.76 284.514C147.778 298.816 154.273 306.29 164.173 306.29C172.977 306.29 180.098 301.047 185.537 291.832C187.631 301.477 193.187 306.192 200.407 306.192C208.682 306.192 215.608 300.949 222.201 291.206C222.104 298.856 223.845 306.056 230.477 306.056C233.607 306.056 237.344 305.331 238.01 302.592C244.994 273.715 262.25 250.139 267.533 250.139C269.098 250.139 269.528 251.646 269.528 253.426C269.528 261.272 263.991 277.354 263.991 287.626C263.991 298.718 268.707 306.056 278.45 306.056C289.25 306.056 300.225 292.829 307.542 273.5C309.832 291.558 314.782 306.133 322.529 306.133C332.037 306.133 348.921 286.119 359.154 264.93C363.164 265.439 369.19 265.302 374.981 261.213C372.516 267.454 371.069 274.283 371.069 281.11C371.069 300.773 380.459 306.29 388.539 306.29C397.324 306.29 404.446 301.047 409.904 291.832C411.704 300.147 416.302 306.172 424.754 306.172C437.979 306.172 449.464 292.653 449.464 281.56C449.464 278.626 448.212 276.845 446.744 276.845ZM172.234 295.392C166.892 295.392 164.799 290.012 164.799 281.991C164.799 268.061 174.327 244.798 184.403 244.798C188.805 244.798 190.468 249.983 190.468 256.322C190.468 270.467 181.41 295.392 172.234 295.392ZM355.182 253.818C351.993 250.022 350.839 244.857 350.839 240.259C350.839 234.586 352.913 229.792 355.397 229.792C357.882 229.792 358.645 232.238 358.645 235.642C358.645 241.335 356.61 249.65 355.182 253.818ZM396.6 295.392C391.26 295.392 389.166 289.21 389.166 281.991C389.166 268.55 398.694 244.798 408.848 244.798C413.25 244.798 414.815 249.944 414.815 256.322C414.815 270.467 405.913 295.392 396.6 295.392Z" fill="white"/>
</g>
<defs>
<radialGradient id="paint0_radial_60_9" cx="0" cy="0" r="1" gradientUnits="userSpaceOnUse" gradientTransform="translate(97.9093 449.933) rotate(-49.416) scale(392.619)">
<stop stop-color="#6420FF"/>
<stop offset="1" stop-color="#6420FF" stop-opacity="0"/>
</radialGradient>
<radialGradient id="paint1_radial_60_9" cx="0" cy="0" r="1" gradientUnits="userSpaceOnUse" gradientTransform="translate(134.391 57.7097) rotate(54.703) scale(442.75)">
<stop stop-color="#00C4CC"/>
<stop offset="1" stop-color="#00C4CC" stop-opacity="0"/>
</radialGradient>
<radialGradient id="paint2_radial_60_9" cx="0" cy="0" r="1" gradientUnits="userSpaceOnUse" gradientTransform="translate(98.0551 449.931) rotate(-45.1954) scale(387.865 178.384)">
<stop stop-color="#6420FF"/>
<stop offset="1" stop-color="#6420FF" stop-opacity="0"/>
</radialGradient>
<radialGradient id="paint3_radial_60_9" cx="0" cy="0" r="1" gradientUnits="userSpaceOnUse" gradientTransform="translate(207.599 68.3981) rotate(66.5198) scale(399.664 669.527)">
<stop stop-color="#00C4CC"/>
<stop offset="1" stop-color="#00C4CC" stop-opacity="0"/>
</radialGradient>
<clipPath id="clip0_60_9">
<rect width="508" height="508" fill="white"/>
</clipPath>
</defs>
</svg>
