<svg
  width="60"
  height="60"
  viewBox="0 0 60 60"
  fill="none"
  xmlns="http://www.w3.org/2000/svg"
>
  <!-- Official brand reference: https://static.canva.com/static/images/apple-touch-icon.png -->
  <rect width="60" height="60" fill="#18B9C1" />
  <path
    d="M 25.984 9.834 C 21.847 12.012, 16.472 19.535, 14.911 25.332 C 13.316 31.253, 14.185 40.427, 16.657 43.763 C 22.091 51.100, 30.045 52.922, 38.093 48.673 C 43.479 45.830, 49.002 38.602, 47.181 36.781 C 46.239 35.839, 45.300 36.394, 42.897 39.308 C 32.481 51.945, 18.896 45.261, 21.424 28.743 C 22.331 22.823, 26.894 14.941, 30.692 12.737 C 33.832 10.914, 33.918 10.918, 35.957 12.957 C 37.412 14.412, 37.849 15.754, 37.421 17.458 C 36.515 21.070, 37.802 22.489, 40.099 20.410 C 41.229 19.388, 42 17.363, 42 15.418 C 42 8.840, 33.501 5.877, 25.984 9.834"
    fill="#FFFFFF"
    fill-rule="evenodd"
  />
</svg>
