<svg width="28" height="28" viewBox="0 0 28 28" fill="none" xmlns="http://www.w3.org/2000/svg">
<path fill-rule="evenodd" clip-rule="evenodd" d="M11.5698 2.33337C17.2935 2.33337 23.4442 6.93821 21.9882 14.6767C21.9718 14.7584 21.945 14.84 21.9217 14.9217L21.9182 14.5985C21.8213 11.0985 20.1285 4.17554 11.5698 4.17554C7.61133 4.17554 2.07667 7.73854 2.31817 13.6932C2.2715 19.2675 6.46567 23.4932 11.5932 23.4139L11.6783 23.4127C13.0783 23.3742 14.9018 22.9122 15.295 21.4795C15.3685 21.4434 15.5983 22.1025 15.6077 22.1772C15.6637 22.4759 15.7383 22.6077 15.8317 22.5739C16.9762 22.1679 18.4987 21.1482 18.109 19.7972C17.9037 19.0855 16.0382 19.6257 15.8678 19.3924C16.3555 18.2502 18.4742 18.312 19.5463 18.557C20.0632 18.676 20.3128 19.0004 20.727 19.0727C21.0653 19.1334 21.8715 18.8394 21.847 19.355C20.097 22.904 16.1385 25.6667 11.571 25.6667C4.263 25.6667 0 19.3364 0 13.6932C0 6.93821 5.7855 2.33337 11.5698 2.33337ZM11.55 6.18337C12.1147 6.18337 12.8625 6.44587 13.16 6.86587C17.4405 7.03504 18.1918 9.99954 18.6363 13.2172C18.9338 15.3615 19.0038 15.9005 18.8487 14.8354L18.9455 15.5237C19.0248 16.0464 19.5918 16.3835 20.0912 16.1257C20.2592 16.0382 20.3875 15.8562 20.4738 15.5774C20.483 15.5473 20.4983 15.5193 20.5186 15.4952C20.5389 15.4712 20.5638 15.4515 20.592 15.4373C20.6201 15.4231 20.6508 15.4148 20.6822 15.4128C20.7136 15.4108 20.7451 15.4152 20.7748 15.4257L21.504 15.6824C21.5582 15.7025 21.6031 15.742 21.6298 15.7933C21.6565 15.8447 21.6633 15.9041 21.6487 15.96C21.5413 16.3612 21.3369 16.7298 21.0537 17.0334C20.0293 18.1032 17.8372 17.808 17.4603 16.31C17.297 15.6637 17.3962 15.5797 17.0578 14.861C16.7172 14.1365 15.6135 14.0339 15.0862 14.5169C14.6837 14.8844 14.6113 15.456 14.6125 16.0125L14.7 18.55C14.7 18.8285 14.5894 19.0956 14.3925 19.2925C14.1955 19.4894 13.9285 19.6 13.65 19.6H12.0167C11.8788 19.6 11.7422 19.5729 11.6148 19.5201C11.4875 19.4673 11.3717 19.39 11.2742 19.2925C11.1767 19.195 11.0994 19.0793 11.0466 18.9519C10.9938 18.8245 10.9667 18.6879 10.9667 18.55V17.7917C10.9667 17.6155 10.932 17.4411 10.8645 17.2783C10.7971 17.1155 10.6983 16.9676 10.5737 16.843C10.4491 16.7184 10.3012 16.6196 10.1384 16.5522C9.97566 16.4847 9.80119 16.45 9.625 16.45C9.44881 16.45 9.27434 16.4847 9.11157 16.5522C8.94879 16.6196 8.80088 16.7184 8.6763 16.843C8.55171 16.9676 8.45289 17.1155 8.38546 17.2783C8.31804 17.4411 8.28333 17.6155 8.28333 17.7917V18.55C8.28333 18.8285 8.17271 19.0956 7.9758 19.2925C7.77888 19.4894 7.51181 19.6 7.23333 19.6H5.6C5.32152 19.6 5.05445 19.4894 4.85754 19.2925C4.66062 19.0956 4.55 18.8285 4.55 18.55L4.59083 14.7712C4.60483 12.5732 5.00617 10.5035 7.4725 9.94821C7.70583 9.89571 7.7665 10.0999 7.81083 10.3472C7.84 10.5269 7.861 10.6412 7.87267 10.6902C8.6905 14.2579 9.91433 15.7057 11.5407 15.0325L12.3107 14.6464L12.607 14.4947C12.7913 14.399 12.8987 14.3419 12.929 14.3197C12.943 14.308 12.7365 14.0794 12.4542 13.7784L11.2735 12.5335C11.1947 12.4508 11.1173 12.3668 11.0413 12.2815C10.9865 12.2419 10.906 12.3609 10.7987 12.6385C10.7123 12.8217 10.5058 12.9325 10.4813 13.0189C10.4662 13.0865 10.6073 13.3665 10.9037 13.8589C11.095 14.1949 11.1603 14.4515 10.542 14.259C9.32867 13.3257 8.771 11.6072 8.57733 9.91321C8.57267 9.87237 8.38833 7.68137 8.38833 7.68137C8.36236 7.311 8.48457 6.94548 8.72808 6.66521C8.97159 6.38494 9.31647 6.21288 9.68683 6.18687L11.55 6.18337ZM26.7097 16.31C26.7528 17.1232 26.2395 17.1314 25.2945 16.9995L23.2143 16.6775C22.9052 16.6157 22.7652 16.562 22.8492 16.506C23.3975 16.1385 26.6618 15.421 26.7108 16.31H26.7097ZM25.6422 16.2132L24.5618 16.2622C23.5702 16.352 22.8678 16.5422 24.9562 16.6542L25.0763 16.6577C26.0272 16.6717 26.551 16.2389 25.6422 16.2132ZM27.587 12.012H27.5987C28.5203 12.4764 27.6768 13.2137 26.8403 13.6372C26.677 13.7189 26.2675 13.8425 25.613 14.0047C25.3318 14.0514 25.0798 14.112 25.2245 14.1914L25.2362 14.1972C27.5135 15.3149 21.5927 15.9869 22.3253 15.6964L22.7687 15.5237C23.562 15.2134 24.6517 14.728 24.7123 13.9639C24.7567 13.4039 26.1742 13.4482 26.4542 12.8345C26.5102 12.7109 26.4542 12.5592 26.2862 12.3807C26.2278 12.3259 26.1765 12.271 26.1613 12.208C26.0762 11.8522 26.978 11.7052 27.587 12.012ZM24.591 11.459C24.4335 12.8567 21.6988 16.3497 22.3172 14.7992L22.337 14.7502C22.6847 13.9137 22.7757 12.159 23.8968 10.9924C24.1885 10.689 24.6388 11.0332 24.591 11.459ZM15.2857 11.1639C15.309 10.3542 16.4547 10.0345 16.856 10.759C16.8677 9.27271 14.5915 9.86304 15.2857 11.1639Z" fill="url(#paint0_linear_870_3323)"/>
<defs>
<linearGradient id="paint0_linear_870_3323" x1="-525.163" y1="1154.32" x2="1803.67" y2="2450.24" gradientUnits="userSpaceOnUse">
<stop stop-color="#504AF4"/>
<stop offset="1" stop-color="#3485FF"/>
</linearGradient>
</defs>
</svg>
