<svg width="114" height="94" viewBox="0 0 114 94" fill="none" xmlns="http://www.w3.org/2000/svg">
<g clip-path="url(#clip0_95_25)">
<path d="M92.4802 5.12033V31.9839C92.4802 34.3835 90.6622 36.406 88.2874 36.5888C73.5048 37.6743 60.2902 44.4502 50.8139 54.7569C42.3716 63.9323 36.8948 75.9073 35.8949 89.1391C35.7131 91.5844 33.7474 93.4926 31.3045 93.4926H4.6026C1.98922 93.4926 -0.135566 91.2987 0.0121462 88.6706C2.421 41.0794 40.3604 2.92645 87.6852 0.492611C90.2986 0.355493 92.4802 2.48082 92.4802 5.1089V5.12033Z" fill="black"/>
<path d="M110.568 93.4923H77.3898C75.5037 93.4923 73.9697 91.9726 73.9697 90.0872V57.1447C73.9697 54.1167 77.6625 52.597 79.8101 54.7451L112.989 87.6876C115.147 89.8244 113.614 93.4923 110.568 93.4923Z" fill="black"/>
</g>
<defs>
<clipPath id="clip0_95_25">
<rect width="114" height="93" fill="white" transform="translate(0 0.492188)"/>
</clipPath>
</defs>
</svg>
