<svg clipRule="evenodd" fillRule="evenodd" strokeLinejoin="round" strokeMiterlimit="2" viewBox="0 0 560 400" xmlns="http://www.w3.org/2000/svg"><g fillRule="nonzero" transform="matrix(3.2204 0 0 3.2204 100 151.676)"><path d="m56.655 20.885c-.035-.035-.08-.06-.13-.06-.05-.01-.1.015-.135.045-1.795 1.615-4.095 2.5-6.475 2.5-5.19 0-9.41-4.1-9.41-9.14s4.22-9.08 9.41-9.08c2.385 0 4.745.92 6.47 2.53.04.035.085.05.145.05.05 0 .1-.03.135-.07l.75-.96c.06-.08.05-.19-.025-.255-2.07-1.85-4.735-2.87-7.505-2.87-6.075 0-11.015 4.795-11.015 10.685s4.94 10.715 11.015 10.715c2.75 0 5.5-1.08 7.535-2.96.075-.07.08-.185.01-.265l-.78-.87z"/><path d="m62.695 2.315h-1.255c-.105 0-.19.085-.19.19v22.255c0 .105.085.19.19.19h1.255c.105 0 .19-.085.19-.19v-22.255c0-.105-.085-.19-.19-.19z"/><path d="m74.215 8.915c-4.575 0-7.895 3.37-7.895 8.015s3.32 8.045 7.895 8.045 7.895-3.385 7.895-8.045-3.32-8.015-7.895-8.015zm0 14.52c-3.705 0-6.29-2.66-6.29-6.47s2.585-6.47 6.29-6.47 6.29 2.66 6.29 6.47-2.585 6.47-6.29 6.47z"/><path d="m89.795 15.95c-2.125-.64-3.96-1.19-3.96-3.01 0-1.575 1.39-2.51 3.71-2.51 1.4 0 2.77.385 3.86 1.08.045.03.1.035.15.025.05-.015.095-.045.12-.095l.54-1.02c.045-.09.015-.195-.07-.25-1.37-.835-2.905-1.255-4.565-1.255-2.57 0-5.315 1.08-5.315 4.115s2.69 3.785 5.06 4.525c2.115.66 4.115 1.28 4.06 3.235-.115 2.48-3.075 2.67-3.985 2.67-1.92 0-3.78-.705-5.09-1.93-.04-.04-.095-.06-.155-.05-.055.01-.105.04-.135.09l-.57.96c-.045.075-.03.17.03.23 1.465 1.405 3.605 2.21 5.86 2.21 2.59 0 5.615-1.15 5.615-4.39s-2.74-3.91-5.16-4.64z"/><path d="m109.585 10.96c-1.315-1.34-3.13-2.045-5.25-2.045-4.525 0-7.805 3.385-7.805 8.045s3.285 8.015 7.805 8.015c2.48 0 4.68-.905 6.2-2.55.065-.07.065-.18 0-.25l-.72-.81c-.035-.04-.085-.06-.14-.065-.045.015-.105.02-.14.06-1.235 1.355-3.06 2.1-5.14 2.1-3.51 0-6-2.395-6.25-5.985h13.45c.1 0 .185-.08.19-.185.05-2.59-.735-4.84-2.2-6.335zm-11.4 5.03c.37-3.335 2.82-5.565 6.155-5.565s5.605 2.175 5.915 5.565z"/><path d="m16 23.505c-8.97 0-16-3.735-16-8.5s7.03-8.5 16-8.5 16 3.735 16 8.5-7.03 8.5-16 8.5zm0-14.5c-6.385 0-13.5 2.465-13.5 6s7.115 6 13.5 6 13.5-2.465 13.5-6-7.115-6-13.5-6z" fill="#4ec375"/><path d="m21.415 29.525c-4.01 0-9.14-3.965-12.78-10.27-2.065-3.575-3.32-7.35-3.54-10.635-.24-3.6.79-6.25 2.9-7.47 2.11-1.22 4.925-.785 7.92 1.22 2.735 1.835 5.375 4.81 7.44 8.385 4.485 7.77 4.765 15.725.64 18.105-.78.45-1.65.665-2.585.665zm-10.79-26.55c-.52 0-.985.11-1.375.34-1.225.705-1.83 2.58-1.66 5.14.195 2.91 1.335 6.305 3.21 9.555 3.19 5.53 8.885 10.46 11.945 8.69s1.64-9.16-1.555-14.69c-1.875-3.25-4.245-5.935-6.665-7.555-1.45-.97-2.8-1.47-3.905-1.47z" fill="#1463ff"/><path d="m10.62 29.54c-.955 0-1.835-.225-2.62-.68-2.11-1.22-3.145-3.87-2.9-7.47.22-3.285 1.475-7.06 3.54-10.635 4.485-7.77 11.235-11.99 15.36-9.61 4.125 2.385 3.845 10.335-.64 18.105-2.065 3.575-4.705 6.55-7.44 8.385-1.88 1.26-3.69 1.9-5.3 1.9zm10.69-26.595c-3.18 0-7.765 4.305-10.51 9.055-1.875 3.25-3.015 6.64-3.21 9.555-.17 2.56.435 4.43 1.66 5.14 1.225.705 3.145.295 5.28-1.135 2.425-1.625 4.79-4.31 6.665-7.555 3.19-5.53 4.615-12.925 1.555-14.69-.43-.25-.915-.365-1.44-.365z" fill="#ffbc00"/><path d="m16 21.005c-6.385 0-13.5-2.465-13.5-6h-2.5c0 4.765 7.03 8.5 16 8.5z" fill="#4ec375"/><path d="m16.575 6.08c-.67-.62-1.355-1.17-2.045-1.635-.68-.455-1.34-.81-1.96-1.055l.83-2.36c.82.315 1.665.76 2.525 1.34.905.61 1.805 1.34 2.675 2.18l-2.02 1.53z" fill="#1463ff"/><path d="m18.58 26.245c-1.08-.58-2.205-1.445-3.295-2.49l-1.915 1.665c1.12 1.085 2.27 1.975 3.41 2.645l1.805-1.82z" fill="#1463ff"/><path d="m27.52 11.945c-2.56-1.82-7.205-2.945-11.52-2.945v-2.5c5.025 0 9.44 1.17 12.355 3.04z" fill="#4ec375"/></g></svg>
