<svg width="12" height="12" viewBox="0 0 12 12" fill="none" xmlns="http://www.w3.org/2000/svg">
<g clip-path="url(#clip0_10_60)">
<path d="M8.2465 8.7C8.314 8.44 8.2865 8.2085 8.166 8.031C8.0585 7.867 7.87 7.7715 7.641 7.7715L3.3095 7.717C3.29553 7.71724 3.28177 7.71351 3.26982 7.70626C3.25788 7.699 3.24823 7.68851 3.242 7.676C3.2285 7.649 3.2285 7.6215 3.2285 7.5945C3.242 7.5535 3.2825 7.5125 3.323 7.5125L7.695 7.4575C8.22 7.4305 8.7715 7.0075 8.973 6.489L9.2285 5.834C9.242 5.8065 9.242 5.779 9.242 5.752C8.96 4.455 7.83 3.5 6.471 3.5C5.2195 3.5 4.157 4.319 3.7805 5.4515C3.65384 5.35316 3.50899 5.28084 3.35427 5.23871C3.19955 5.19658 3.03803 5.18546 2.879 5.206C2.274 5.2605 1.8025 5.752 1.7355 6.366C1.722 6.53 1.7355 6.68 1.7625 6.816C0.78 6.844 0 7.663 0 8.6595C0 8.7545 0.0135 8.837 0.0135 8.932C0.0135 8.973 0.0535 9.0005 0.094 9.0005H8.0855C8.1255 9.0005 8.1795 8.973 8.193 8.9185L8.2465 8.7Z" fill="#F38020"/>
<path d="M9.619 5.87501H9.498C9.471 5.87501 9.444 5.90201 9.4305 5.92951L9.2555 6.52951C9.1885 6.78951 9.2155 7.02101 9.3365 7.19851C9.444 7.36251 9.6325 7.45751 9.8615 7.45751L10.789 7.51251C10.816 7.51251 10.843 7.52601 10.8565 7.55351C10.87 7.58051 10.87 7.60801 10.87 7.63501C10.8565 7.67601 10.816 7.71701 10.776 7.71701L9.821 7.77201C9.296 7.79901 8.7445 8.22201 8.5425 8.74051L8.4755 8.91801C8.462 8.94551 8.4885 8.98651 8.529 8.98651H11.825C11.8655 8.98651 11.906 8.95901 11.906 8.91801C11.9595 8.71301 12 8.49501 12 8.26301C11.9865 6.95301 10.9235 5.87451 9.619 5.87451" fill="#FCAD32"/>
</g>
<defs>
<clipPath id="clip0_10_60">
<rect width="12" height="12" fill="white"/>
</clipPath>
</defs>
</svg>
