<svg width="30" height="30" viewBox="0 0 30 30" fill="none" xmlns="http://www.w3.org/2000/svg">
<path d="M24.334 11.9858C23.691 9.96971 22.4272 8.20848 20.7231 6.95385C19.019 5.69922 16.9619 5.01541 14.8458 5.00016C13.0568 4.9899 11.2987 5.46731 9.76055 6.38109C8.22241 7.29487 6.96231 8.61049 6.11565 10.1866C4.55959 10.4654 3.13314 11.2336 2.0439 12.3793C0.954673 13.5251 0.259517 14.9885 0.0596151 16.5567C-0.140287 18.1248 0.1655 19.7159 0.932468 21.0982C1.69944 22.4805 2.88755 23.582 4.32389 24.2423L4.51028 24.3268H4.5227V22.2145C3.53737 21.6096 2.76599 20.7116 2.31668 19.6464C1.86737 18.5811 1.76265 17.4019 2.0172 16.2741C2.27175 15.1463 2.87281 14.1264 3.73613 13.3574C4.59945 12.5884 5.68176 12.1088 6.83136 11.9858L7.35324 11.9311L7.58187 11.4614C8.23102 10.0857 9.25943 8.92387 10.5462 8.11254C11.833 7.3012 13.3246 6.87408 14.8458 6.88139C16.6584 6.89417 18.4147 7.51261 19.8354 8.63834C21.256 9.76408 22.2596 11.3325 22.6863 13.0942L22.8653 13.8049H23.6108C24.8126 13.8295 25.9572 14.3232 26.8 15.1804C27.6428 16.0375 28.117 17.1903 28.1213 18.3924C28.1213 20.1444 27.1098 21.5783 25.3876 22.3039V24.3069L25.5119 24.2672C28.2803 23.3601 30 21.1086 30 18.3924C29.9886 16.8203 29.4086 15.3054 28.367 14.1278C27.3255 12.9501 25.8929 12.1893 24.334 11.9858Z" fill="#3448C5"/>
<path d="M11.2027 24.0833L11.6152 24.4958C11.6263 24.5073 11.6339 24.5217 11.6369 24.5374C11.6399 24.5531 11.6383 24.5693 11.6322 24.5841C11.6262 24.5989 11.6159 24.6116 11.6027 24.6206C11.5895 24.6297 11.574 24.6346 11.558 24.635H8.30254C7.90708 24.635 7.52783 24.4779 7.2482 24.1982C6.96857 23.9186 6.81148 23.5394 6.81148 23.1439V16.8218C6.81148 16.8 6.80284 16.7792 6.78746 16.7638C6.77208 16.7484 6.75122 16.7398 6.72947 16.7398H6.03364C6.01745 16.7399 6.00157 16.7353 5.988 16.7265C5.97444 16.7176 5.9638 16.705 5.95742 16.6901C5.95104 16.6752 5.94921 16.6588 5.95216 16.6428C5.95511 16.6269 5.96271 16.6122 5.974 16.6006L8.73743 13.8372C8.74506 13.8294 8.75415 13.8233 8.76418 13.8191C8.7742 13.8149 8.78496 13.8127 8.79583 13.8127C8.8067 13.8127 8.81746 13.8149 8.82748 13.8191C8.83751 13.8233 8.8466 13.8294 8.85423 13.8372L11.6152 16.6006C11.6263 16.6121 11.6339 16.6265 11.6369 16.6422C11.6399 16.6579 11.6383 16.6742 11.6322 16.6889C11.6262 16.7037 11.6159 16.7164 11.6027 16.7254C11.5895 16.7345 11.574 16.7395 11.558 16.7398H10.8523C10.8303 16.7398 10.8091 16.7483 10.7934 16.7636C10.7776 16.779 10.7684 16.7998 10.7678 16.8218V23.0346C10.7688 23.4278 10.9251 23.8047 11.2027 24.0833ZM17.3086 24.0833L17.7236 24.4958C17.7349 24.5074 17.7425 24.5221 17.7454 24.538C17.7484 24.5539 17.7465 24.5704 17.7401 24.5853C17.7338 24.6001 17.7231 24.6128 17.7096 24.6216C17.696 24.6305 17.6801 24.6351 17.6639 24.635H14.4159C14.0204 24.635 13.6412 24.4779 13.3616 24.1982C13.0819 23.9186 12.9248 23.5394 12.9248 23.1439V18.4197C12.9248 18.3977 12.9163 18.3766 12.901 18.3608C12.8857 18.3451 12.8648 18.3359 12.8428 18.3352H12.1395C12.1236 18.3349 12.108 18.3299 12.0948 18.3209C12.0816 18.3119 12.0714 18.2992 12.0653 18.2844C12.0592 18.2696 12.0576 18.2534 12.0607 18.2377C12.0637 18.222 12.0712 18.2075 12.0824 18.1961L14.8433 15.4376C14.851 15.4298 14.8601 15.4237 14.8701 15.4195C14.8801 15.4153 14.8909 15.4132 14.9017 15.4132C14.9126 15.4132 14.9234 15.4153 14.9334 15.4195C14.9434 15.4237 14.9525 15.4298 14.9601 15.4376L17.7236 18.1911C17.7349 18.2027 17.7425 18.2174 17.7454 18.2333C17.7484 18.2492 17.7465 18.2657 17.7401 18.2805C17.7338 18.2954 17.7231 18.3081 17.7096 18.3169C17.696 18.3258 17.6801 18.3304 17.6639 18.3302H16.9582C16.9362 18.3309 16.9153 18.3401 16.9 18.3559C16.8847 18.3716 16.8761 18.3928 16.8762 18.4147V23.0346C16.8765 23.4274 17.0319 23.8043 17.3086 24.0833ZM23.4169 24.0833L23.8295 24.4958C23.8406 24.5073 23.8482 24.5217 23.8512 24.5374C23.8542 24.5531 23.8526 24.5693 23.8465 24.5841C23.8405 24.5989 23.8302 24.6116 23.817 24.6206C23.8038 24.6297 23.7883 24.6346 23.7723 24.635H20.5143C20.1189 24.635 19.7396 24.4779 19.46 24.1982C19.1804 23.9186 19.0233 23.5394 19.0233 23.1439V20.0052C19.0233 19.9835 19.0146 19.9626 18.9993 19.9472C18.9839 19.9318 18.963 19.9232 18.9413 19.9232H18.2454C18.2289 19.9234 18.2128 19.9186 18.1991 19.9094C18.1853 19.9003 18.1747 19.8872 18.1685 19.8719C18.1623 19.8566 18.1609 19.8398 18.1645 19.8237C18.168 19.8075 18.1763 19.7929 18.1883 19.7815L20.9517 17.0206C20.9591 17.0129 20.968 17.0068 20.9778 17.0027C20.9877 16.9985 20.9982 16.9964 21.0089 16.9964C21.0195 16.9964 21.0301 16.9985 21.0399 17.0027C21.0497 17.0068 21.0586 17.0129 21.066 17.0206L23.8295 19.7815C23.8415 19.7929 23.8498 19.8075 23.8533 19.8237C23.8568 19.8398 23.8554 19.8566 23.8492 19.8719C23.8431 19.8872 23.8324 19.9003 23.8187 19.9094C23.805 19.9186 23.7888 19.9234 23.7723 19.9232H23.0641C23.0423 19.9232 23.0215 19.9318 23.0061 19.9472C22.9907 19.9626 22.9821 19.9835 22.9821 20.0052V23.0346C22.9831 23.4278 23.1394 23.8047 23.4169 24.0833Z" fill="#3448C5"/>
</svg>
