<svg xmlns="http://www.w3.org/2000/svg" viewBox="0 0 32 32">
  <path d="M31.946 18.6756C31.9553 21.1299 31.4772 23.5617 30.5397 25.83C29.6021 28.0983 28.2237 30.1579 26.4843 31.8895L26.4226 31.9512L23.6688 29.1974L23.7305 29.1357C25.8001 27.0679 27.2097 24.4325 27.7809 21.5632C28.352 18.6939 28.0589 15.7196 26.9387 13.0169C25.8186 10.3142 23.9217 8.00467 21.4882 6.3806C19.0548 4.75654 16.1942 3.891 13.2686 3.89356C11.327 3.88887 9.40377 4.26919 7.61013 5.01254C5.81649 5.75588 4.18804 6.84749 2.81898 8.22421L2.75731 8.28587L0 5.53209L0.0616651 5.47042C2.67357 2.85526 6.00274 1.07392 9.62764 0.351946C13.2525 -0.370024 17.0102 -0.000155141 20.4247 1.41472C23.8393 2.8296 26.7573 5.22585 28.8091 8.30008C30.861 11.3743 31.9546 14.9883 31.9513 18.6844L31.946 18.6756Z" fill="#4750EF"/>
  <path d="M13.2683 7.43506C11.0447 7.43506 8.87102 8.09446 7.02217 9.32987C5.17332 10.5653 3.73236 12.3212 2.88149 14.3756C2.03063 16.43 1.8081 18.6906 2.24203 20.8714C2.67597 23.0523 3.74688 25.0555 5.31934 26.6277C6.8918 28.1999 8.89517 29.2705 11.0761 29.7041C13.257 30.1377 15.5176 29.9148 17.5718 29.0636C19.6261 28.2124 21.3818 26.7712 22.6169 24.9222C23.852 23.0731 24.5111 20.8993 24.5107 18.6757C24.507 15.6954 23.3213 12.8381 21.2137 10.7309C19.1061 8.62359 16.2487 7.43832 13.2683 7.43506V7.43506ZM13.2683 26.0244C11.8152 26.0248 10.3947 25.5942 9.18626 24.7872C7.97787 23.9802 7.03592 22.833 6.47952 21.4907C5.92313 20.1483 5.77728 18.6711 6.06042 17.2459C6.34356 15.8207 7.04298 14.5114 8.07022 13.4837C9.09747 12.4559 10.4064 11.7559 11.8315 11.472C13.2566 11.1882 14.7339 11.3334 16.0765 11.8891C17.4191 12.4449 18.5668 13.3863 19.3743 14.5943C20.1819 15.8023 20.6132 17.2226 20.6135 18.6757C20.6116 20.6235 19.8373 22.4911 18.4603 23.8687C17.0833 25.2464 15.2161 26.0216 13.2683 26.0244V26.0244Z" fill="#4750EF"/>
  <path d="M12.3103 23.3535C14.3634 23.3535 16.0278 21.6891 16.0278 19.636C16.0278 17.5828 14.3634 15.9185 12.3103 15.9185C10.2572 15.9185 8.59277 17.5828 8.59277 19.636C8.59277 21.6891 10.2572 23.3535 12.3103 23.3535Z" fill="#4750EF"/>
  <path d="M12.31 23.4416C14.4118 23.4416 16.1156 21.7377 16.1156 19.6359C16.1156 17.5342 14.4118 15.8303 12.31 15.8303C10.2082 15.8303 8.50439 17.5342 8.50439 19.6359C8.50439 21.7377 10.2082 23.4416 12.31 23.4416Z" fill="#4750EF"/>
</svg>
