<svg width="512" height="512" viewBox="0 0 512 512" fill="none" xmlns="http://www.w3.org/2000/svg">
<g clipPath="url(#clip0_10_73)">
<path d="M0 50.0009C0 22.3867 22.3856 0 49.9998 0C186.114 0 322.555 0 461.999 0C489.613 0 512 22.3856 512 49.9998C512 186.114 512 322.555 512 461.999C512 489.613 489.614 512 462 512C325.886 512 189.445 512 50.0009 512C22.3867 512 0 489.614 0 462C0 325.886 0 189.445 0 50.0009Z" fill="#3889C4"/>
<path d="M279.562 92.6875C280.244 92.6849 280.926 92.6823 281.629 92.6796C294.398 92.6744 306.557 94.0977 319 97C319.742 97.1708 320.484 97.3416 321.248 97.5176C339.537 101.832 359.465 108.439 370.758 124.5C375.695 133.077 376.266 142.467 374.438 152.188C372.168 159.539 367.468 165.538 361 169.625C352.226 173.763 343.782 173.415 334.793 170.336C330.254 168.656 325.778 166.833 321.313 164.966C302.276 157.017 274.876 153.649 255.043 160.695C253.335 161.402 251.666 162.199 250 163C248.928 163.413 247.855 163.825 246.75 164.25C225.972 173.392 213.458 191.257 205.211 211.691C196.686 234.985 194.475 267.69 203 291C203.543 292.829 203.543 292.829 204.098 294.695C210.589 316.126 222.584 333.64 242.438 344.813C244.611 345.904 246.798 346.969 249 348C249.874 348.424 250.748 348.848 251.648 349.285C262.083 353.554 273.9 352.967 285 353C285.721 353.004 286.441 353.008 287.184 353.012C301.565 352.949 314.822 347.887 327.673 341.855C338.082 336.977 349.32 332.936 360.789 336.984C363.006 338.186 364.985 339.488 367 341C367.887 341.557 368.774 342.114 369.688 342.688C376.078 349.078 380.254 357.538 380.5 366.562C380.323 377.142 375.521 385.381 368.301 392.914C353.914 405.958 334.548 412.009 315.652 414.57C313.033 414.859 313.033 414.859 311 416C282.349 420.673 250.959 419.256 224 408C222.841 407.519 222.841 407.519 221.659 407.027C204.767 399.847 190.488 390.213 177.405 377.374C176.123 376.121 174.819 374.891 173.512 373.664C163.917 364.484 156.54 353.505 150 342C149.466 341.067 148.932 340.135 148.383 339.174C125.615 298.3 123.01 246.557 135.453 201.941C137.951 193.574 141.297 185.678 145.11 177.833C145.874 176.26 146.61 174.674 147.34 173.086C163.146 139.558 193.949 113.944 228.3 101.173C237.76 97.7836 247.047 95.4126 257 94C258.169 93.8183 259.338 93.6365 260.543 93.4492C266.853 92.6896 273.215 92.7109 279.562 92.6875Z" fill="#FDFEFE"/>
</g>
<defs>
<clipPath id="clip0_10_73">
<rect width="512" height="512" fill="white"/>
</clipPath>
</defs>
</svg>
