<svg width="12" height="12" viewBox="0 0 12 12" fill="none" xmlns="http://www.w3.org/2000/svg">
<g clip-path="url(#clip0_10_21)">
<path d="M11.874 2.241C11.747 2.179 11.692 2.2975 11.618 2.358C11.5925 2.3775 11.571 2.403 11.5495 2.426C11.3635 2.6245 11.1465 2.7545 10.863 2.739C10.4485 2.716 10.0945 2.846 9.78151 3.163C9.71501 2.772 9.49401 2.539 9.15801 2.389C8.98201 2.311 8.80401 2.2335 8.68051 2.064C8.59451 1.9435 8.57101 1.809 8.52801 1.677C8.50051 1.597 8.47301 1.5155 8.38151 1.502C8.28151 1.4865 8.24251 1.57 8.20351 1.64C8.04701 1.926 7.98651 2.241 7.99251 2.56C8.00601 3.278 8.30901 3.85 8.91151 4.2565C8.98001 4.303 8.99751 4.35 8.97601 4.418C8.93501 4.558 8.88601 4.694 8.84301 4.8345C8.81551 4.924 8.77451 4.943 8.67851 4.9045C8.35413 4.7651 8.05949 4.56482 7.81051 4.3145C7.38201 3.9005 6.99501 3.4435 6.51201 3.0855C6.40009 3.00281 6.28518 2.92426 6.16751 2.85C5.67501 2.3715 6.23251 1.9785 6.36151 1.932C6.49651 1.883 6.40801 1.716 5.97201 1.718C5.53601 1.72 5.13701 1.8655 4.62851 2.06C4.55294 2.08896 4.4752 2.11186 4.39601 2.1285C3.92082 2.03897 3.43483 2.02177 2.95451 2.0775C2.01201 2.1825 1.25951 2.6285 0.706005 3.389C0.0410053 4.303 -0.115495 5.342 0.0760054 6.425C0.277505 7.567 0.860505 8.5125 1.75601 9.2515C2.68501 10.018 3.75451 10.3935 4.97501 10.3215C5.71601 10.279 6.54151 10.1795 7.47201 9.3915C7.70701 9.5085 7.95301 9.555 8.36201 9.59C8.67701 9.6195 8.98001 9.575 9.21451 9.526C9.58201 9.448 9.55651 9.1075 9.42401 9.0455C8.34651 8.5435 8.58301 8.748 8.36751 8.5825C8.91551 7.9345 9.74051 7.2615 10.0635 5.081C10.0885 4.9075 10.067 4.7985 10.0635 4.6585C10.0615 4.5735 10.081 4.54 10.1785 4.5305C10.449 4.50244 10.7114 4.42176 10.951 4.293C11.649 3.9115 11.931 3.2855 11.9975 2.5345C12.0075 2.4195 11.9955 2.3015 11.874 2.241ZM5.79051 9C4.74601 8.179 4.23951 7.9085 4.03051 7.92C3.83451 7.932 3.87001 8.1555 3.91301 8.3015C3.95801 8.4455 4.01651 8.5445 4.09851 8.671C4.15551 8.7545 4.19451 8.879 4.04201 8.9725C3.70551 9.1805 3.12101 8.9025 3.09351 8.889C2.41301 8.488 1.84351 7.959 1.44301 7.2355C1.05601 6.539 0.831005 5.792 0.794005 4.9945C0.784005 4.8015 0.840505 4.7335 1.03251 4.6985C1.28456 4.65027 1.54282 4.64368 1.79701 4.679C2.86301 4.835 3.77001 5.3115 4.53101 6.066C4.96501 6.496 5.29351 7.0095 5.63201 7.5115C5.99201 8.0445 6.37901 8.5525 6.87201 8.9685C7.04601 9.1145 7.18451 9.2255 7.31751 9.307C6.91651 9.352 6.24751 9.362 5.79051 9ZM6.29051 5.78C6.29042 5.75516 6.29638 5.73068 6.30787 5.70866C6.31937 5.68664 6.33605 5.66775 6.35648 5.65362C6.37691 5.6395 6.40047 5.63056 6.42513 5.62757C6.44978 5.62459 6.4748 5.62765 6.49801 5.6365C6.52759 5.64711 6.55312 5.66669 6.57104 5.6925C6.58897 5.71831 6.59839 5.74908 6.59801 5.7805C6.59807 5.8008 6.5941 5.82092 6.58632 5.83967C6.57853 5.85842 6.56709 5.87544 6.55267 5.88973C6.53824 5.90401 6.52111 5.91529 6.50229 5.92289C6.48346 5.93049 6.46331 5.93427 6.44301 5.934C6.42286 5.93407 6.40289 5.93012 6.38429 5.92238C6.36569 5.91464 6.34881 5.90327 6.33466 5.88893C6.32051 5.87458 6.30935 5.85756 6.30186 5.83886C6.29436 5.82016 6.29017 5.80015 6.29051 5.78ZM7.84551 6.578C7.74551 6.6185 7.64601 6.6535 7.55051 6.658C7.40683 6.66301 7.26585 6.61814 7.15151 6.531C7.01451 6.416 6.91651 6.352 6.87551 6.152C6.86137 6.05426 6.86408 5.95482 6.88351 5.858C6.91851 5.6945 6.87951 5.5895 6.76401 5.4945C6.67051 5.4165 6.55101 5.395 6.42001 5.395C6.37515 5.3924 6.33159 5.37902 6.29301 5.356C6.23801 5.329 6.19301 5.261 6.23601 5.177C6.25001 5.15 6.31601 5.084 6.33201 5.072C6.51001 4.971 6.71551 5.004 6.90501 5.08C7.08101 5.152 7.21401 5.284 7.40551 5.471C7.60101 5.6965 7.63651 5.759 7.74801 5.928C7.83601 6.0605 7.91601 6.1965 7.97051 6.352C8.00401 6.4495 7.96101 6.529 7.84551 6.578Z" fill="#4D6BFE"/>
</g>
<defs>
<clipPath id="clip0_10_21">
<rect width="12" height="12" fill="white"/>
</clipPath>
</defs>
</svg>
