<svg width="64" height="64" viewBox="-0.5 -10.5 50 50" xmlns="http://www.w3.org/2000/svg">
  <path fill-rule="evenodd" clip-rule="evenodd" d="M5.78017241 14.4999745C5.80410776 10.6316423 7.36842672 6.93111732 10.1291379 4.21211693 12.8899138 1.49310365 16.6210345-.0218064126 20.5021552.000237242626H28.4482759C30.3696983-.0105533988 32.2745043.355738059 34.053944 1.07843787 35.833319 1.80114348 37.4524784 2.86610125 38.8189655 4.21251003 40.1854526 5.55891236 41.2724353 7.16040243 42.0179095 8.92553684 42.7634483 10.6906713 43.1528017 12.5848188 43.1637931 14.4999745 43.1398707 18.3671468 41.576444 22.0667051 38.8170905 24.7855186 36.0577371 27.5043321 32.3282974 29.020011 28.4482759 28.9997334H20.5021552C18.5801509 29.0113113 16.6746983 28.6456667 14.8945474 27.9233349 13.1143319 27.201003 11.4944612 26.1362257 10.1272629 24.7897073 8.76012931 23.443189 7.67256466 21.8414154 6.92663793 20.0758943 6.18075 18.3103088 5.79117672 16.4156457 5.78017241 14.4999745ZM11.2176724 8.7968459C11.2210345 8.131932 11.3559052 7.47430005 11.6145259 6.86139094 11.8731466 6.2485205 12.2504095 5.69246223 12.7247845 5.22502479 13.1991595 4.75758735 13.7613362 4.38794084 14.379181 4.13722873 14.9970259 3.88651662 15.6583836 3.75965584 16.325431 3.76379934H32.612069C33.2794397 3.75965584 33.9411207 3.88647151 34.5592888 4.13710629 35.1775216 4.38773463 35.7400862 4.75728447 36.2150431 5.2246317 36.6899353 5.69198536 37.0677802 6.24799851 37.3271121 6.86093984 37.586444 7.47384895 37.7220905 8.13167423 37.7262931 8.7968459V20.2031031C37.7220905 20.8682748 37.586444 21.5261001 37.3271121 22.1390092 37.0677802 22.7519183 36.6899353 23.307925 36.2150431 23.7752593 35.7400862 24.2426581 35.1775216 24.6121693 34.5592888 24.8627847 33.9411207 25.1134646 33.2794397 25.2402867 32.612069 25.2361371H16.325431C14.9787284 25.2428644 13.6843966 24.7166944 12.7266595 23.7730038 11.7689871 22.8293133 11.2262069 21.5453038 11.2176724 20.2031031V8.7968459ZM34.0021552 10.1823517C33.8134267 9.58271769 33.4376509 9.05880317 32.9294612 8.68690763 32.4212716 8.31494765 31.8072414 8.11433929 31.1767241 8.11433929 30.5462069 8.11433929 29.9321767 8.31494765 29.4239871 8.68690763 28.9158621 9.05880317 28.5400216 9.58271769 28.3512931 10.1823517 28.3100431 10.2871346 28.288125 10.3984262 28.2866379 10.5110066 28.2866379 10.7366185 28.3765733 10.9529507 28.5365948 11.1125094 28.696681 11.2720037 28.9137284 11.3616427 29.1400862 11.3616427 29.3298491 11.3623516 29.5142457 11.2990694 29.6633405 11.1821069 29.8124353 11.06508 29.9174353 10.9012037 29.9612069 10.7172214 30.0542457 10.4726635 30.2197629 10.2621311 30.4357112 10.113592 30.6516595 9.96498841 30.9078879 9.88546682 31.1702586 9.88546682 31.4326293 9.88546682 31.6888578 9.96498841 31.904806 10.113592 32.1207543 10.2621311 32.2862716 10.4726635 32.3793103 10.7172214 32.4032328 10.8350216 32.4519181 10.9463776 32.5221983 11.0440719 32.5924784 11.1417017 32.6827371 11.2234143 32.7869612 11.2837966 32.89125 11.3441789 33.0071121 11.3818775 33.1270474 11.3943793 33.2469828 11.4068811 33.3682112 11.3939282 33.4827155 11.356294 33.5972845 11.3187243 33.7024784 11.2573754 33.7915086 11.1763072 33.8805388 11.095239 33.9512716 10.9962558 33.9991164 10.8859309 34.0469612 10.7756704 34.070819 10.6564525 34.0691379 10.5363323 34.0674569 10.4161478 34.0401724 10.2977031 33.9892241 10.1887959L34.0021552 10.1823517ZM20.9159483 10.1823517C20.7272198 9.58271769 20.3513793 9.05880317 19.8432543 8.68690763 19.3350647 8.31494765 18.7210345 8.11433929 18.0905172 8.11433929 17.46 8.11433929 16.8459698 8.31494765 16.3377802 8.68690763 15.8296552 9.05880317 15.4538147 9.58271769 15.2650862 10.1823517 15.2238362 10.2871346 15.2019181 10.3984262 15.200431 10.5110066 15.2023707 10.7178014 15.2798276 10.9167987 15.4182543 11.0708154 15.5567457 11.2248321 15.7467672 11.3232352 15.9528233 11.3477232 16.1588147 11.3722112 16.3667457 11.3210442 16.537694 11.2038239 16.7085776 11.0866037 16.8308405 10.9113211 16.8814655 10.7107772 16.9745043 10.4662193 17.1400216 10.2556869 17.3559698 10.1071478 17.5719181 9.9585442 17.8281466 9.87902261 18.0905172 9.87902261 18.3528879 9.87902261 18.6091164 9.9585442 18.8250647 10.1071478 19.0410129 10.2556869 19.2065302 10.4662193 19.299569 10.7107772 19.3234914 10.8285774 19.3721767 10.9399334 19.4424569 11.0376277 19.5127371 11.1352575 19.6029957 11.2169701 19.7072198 11.2773524 19.8115086 11.3377991 19.9273707 11.3754333 20.047306 11.3879351 20.1672414 11.4004369 20.2884698 11.387484 20.4029741 11.3498498 20.5175431 11.31228 20.6227371 11.2509311 20.7117672 11.1698629 20.8007974 11.0887947 20.8715302 10.9898116 20.919375 10.8794867 20.9672198 10.7692262 20.9910776 10.6500083 20.9893966 10.5298881 20.9877155 10.4097036 20.960431 10.2912589 20.9094828 10.1823517H20.9159483ZM24.7241379 21.9108196C21.1875 21.9108196 18.2586207 20.4093179 17.612069 17.0389945H31.862069C31.2155172 20.4093179 28.2672414 21.9108196 24.75 21.9108196H24.7241379ZM42.1810345 22.9418937C42.3022629 22.9132169 42.4194828 22.8699118 42.5301724 22.8130094L47.4375 20.2739894C47.8766379 20.015061 48.2445905 19.6518007 48.5085776 19.216623 48.7725647 18.7814453 48.924375 18.2879474 48.950431 17.780079V11.0200994C48.924569 10.5139709 48.7719828 10.0224064 48.5065733 9.59012854 48.2411638 9.15791516 47.8714009 8.79877917 47.4310345 8.54552159L42.5560345 6.06448666C42.3951078 5.98048634 42.2195043 5.92798534 42.0387931 5.90982554 43.7036638 8.43145902 44.6037931 11.3780755 44.6313362 14.3966093 44.6588147 17.4151432 43.8126078 20.3776124 42.1939655 22.9290052L42.1810345 22.9418937ZM6.75 22.9418937C6.63122845 22.9121214 6.5162069 22.8688807 6.40732759 22.8130094L1.51293103 20.261101C1.07380603 20.0021725.705827586 19.6389122.441832759 19.2037345.177839871 18.7685568.0260465948 18.275059 0 17.7671906V11.0200994C.0258658836 10.5139709.178457328 10.0224064.443855172 9.59012854.70925431 9.15791516 1.07901078 8.79877917 1.51939655 8.54552159L6.4137931 6.06448666C6.57471983 5.98048634 6.75032328 5.92798534 6.93103448 5.90982554 5.26497414 8.43049239 4.36305388 11.3764 4.33324138 14.3947405 4.30342888 17.413081 5.14698491 20.3760658 6.76293103 22.9290052L6.75 22.9418937Z" fill="#000000"/>
</svg>
