<svg width="71" height="71" viewBox="0 0 71 71" fill="none" xmlns="http://www.w3.org/2000/svg">
<mask id="mask0_10_81" style="mask-type:luminance" maskUnits="userSpaceOnUse" x="0" y="8" width="71" height="55">
<path d="M71 8H0V63H71V8Z" fill="white"/>
</mask>
<g mask="url(#mask0_10_81)">
<path d="M60.1045 12.8978C55.5792 10.8214 50.7265 9.2916 45.6527 8.41542C45.5603 8.39851 45.468 8.44077 45.4204 8.52529C44.7963 9.6353 44.105 11.0834 43.6209 12.2216C38.1637 11.4046 32.7345 11.4046 27.3892 12.2216C26.905 11.0581 26.1886 9.6353 25.5617 8.52529C25.5141 8.44359 25.4218 8.40133 25.3294 8.41542C20.2584 9.2888 15.4057 10.8186 10.8776 12.8978C10.8384 12.9147 10.8048 12.9429 10.7825 12.9795C1.57795 26.7309 -0.943561 40.1443 0.293408 53.3914C0.299005 53.4562 0.335386 53.5182 0.385761 53.5576C6.45866 58.0174 12.3413 60.7249 18.1147 62.5195C18.2071 62.5477 18.305 62.5139 18.3638 62.4378C19.7295 60.5728 20.9469 58.6063 21.9907 56.5383C22.0523 56.4172 21.9935 56.2735 21.8676 56.2256C19.9366 55.4931 18.0979 54.6 16.3292 53.5858C16.1893 53.5041 16.1781 53.304 16.3068 53.2082C16.679 52.9293 17.0513 52.6391 17.4067 52.3461C17.471 52.2926 17.5606 52.2813 17.6362 52.3151C29.2558 57.6202 41.8354 57.6202 53.3179 52.3151C53.3935 52.2785 53.4831 52.2898 53.5502 52.3433C53.9057 52.6363 54.2779 52.9293 54.6529 53.2082C54.7816 53.304 54.7732 53.5041 54.6333 53.5858C52.8646 54.6197 51.0259 55.4931 49.0921 56.2228C48.9662 56.2707 48.9102 56.4172 48.9718 56.5383C50.038 58.6034 51.2554 60.5699 52.5959 62.435C52.6519 62.5139 52.7526 62.5477 52.845 62.5195C58.6464 60.7249 64.529 58.0174 70.6019 53.5576C70.6551 53.5182 70.6887 53.459 70.6943 53.3942C72.1747 38.0791 68.2147 24.7757 60.1968 12.9823C60.1772 12.9429 60.1437 12.9147 60.1045 12.8978ZM23.7259 45.3253C20.2276 45.3253 17.3451 42.1136 17.3451 38.1693C17.3451 34.225 20.1717 31.0133 23.7259 31.0133C27.308 31.0133 30.1626 34.2532 30.1066 38.1693C30.1066 42.1136 27.28 45.3253 23.7259 45.3253ZM47.3178 45.3253C43.8196 45.3253 40.9371 42.1136 40.9371 38.1693C40.9371 34.225 43.7636 31.0133 47.3178 31.0133C50.9 31.0133 53.7545 34.2532 53.6986 38.1693C53.6986 42.1136 50.9 45.3253 47.3178 45.3253Z" fill="#5865F2"/>
</g>
</svg>
