<svg viewBox="0 0 194 194" xmlns="http://www.w3.org/2000/svg"><path d="M139.5 139.5v49.5c0 2.6-2.1 4.7-4.7 4.7H4.7C2.1 193.7 0 191.6 0 189V59c0-2.6 2.1-4.7 4.7-4.7h49.4v80.5c0 2.6 2.1 4.7 4.7 4.7z" fill="#4c00ff"/><path d="M193.7 69.7c0 41.6-24.3 69.7-54.2 69.8V87.1c0-1.5-.6-3-1.7-4L110.6 55.9c-1.1-1.1-2.5-1.7-4-1.7H54.2V4.8c0-2.6 2.1-4.7 4.7-4.7h73.3c34.8-.1 61.5 27.9 61.5 69.6z" fill="#ff5252"/><path d="M137.8 83c1.1 1.1 1.7 2.5 1.7 4v52.4H58.9c-2.6 0-4.7-2.1-4.7-4.7V54.2h52.4c1.5 0 3 .6 4 1.7z" fill="#000"/></svg>
