<svg xmlns="http://www.w3.org/2000/svg" xmlns:xlink="http://www.w3.org/1999/xlink" viewBox="0 0 83 83">
  <path d="M1.524,0C0.861,0 0.468,0.732 0.825,1.291L15.706,24.582C16.936,26.508 19.057,27.674 21.343,27.674L41.47,27.674C48.847,27.674 53.459,34.197 53.432,41.5C53.405,48.803 48.49,55.261 41.47,55.261L19.982,55.261C18.749,55.261 17.754,56.261 17.754,57.494L17.754,80.77C17.754,82.002 18.747,83 19.979,83L47.427,83C71.178,83 82.986,60.466 83,41.5C83.015,22.534 71.345,0 47.427,0L1.524,0ZM11.287,55.326L5.943,55.326C2.661,55.326 0,58.422 0,62.242L0,82.39C0,82.721 0.268,82.989 0.599,82.989L5.943,82.989C9.225,82.989 11.886,79.893 11.886,76.073L11.886,55.925C11.886,55.594 11.618,55.326 11.287,55.326Z" fill="url(#dopplerGrad)"/>
  <defs>
    <linearGradient id="dopplerGrad" x1="0" y1="0" x2="1" y2="0" gradientUnits="userSpaceOnUse" gradientTransform="matrix(-103.05,138.22,-138.22,-103.05,116.38,-4.85)">
      <stop offset="0" stop-color="#409FF8"/>
      <stop offset="0.04" stop-color="#409FF8"/>
      <stop offset="0.5" stop-color="#1673FF"/>
      <stop offset="1" stop-color="#516FF7"/>
    </linearGradient>
  </defs>
</svg>