<svg xmlns="http://www.w3.org/2000/svg" viewBox="0 0 128 88" role="img" aria-label="connector logo">
  <!-- Official brand asset source: https://drive9.ai/favicon.svg -->
  <path
    fill="#000"
    d="M0 88V1.13h29.203c6.029 0 11.265 1.15 15.708 3.451 4.522 2.301 8.013 5.553 10.472 9.758 2.539 4.125 3.808 9.004 3.808 14.637v31.059c0 5.553-1.269 10.432-3.808 14.637-2.459 4.205-5.95 7.497-10.472 9.877C40.468 86.85 35.232 88 29.203 88H0Zm17.85-16.66h11.353c3.649 0 6.585-1.031 8.806-3.094 2.221-2.063 3.332-4.8 3.332-8.211V28.976c0-3.332-1.111-6.029-3.332-8.092-2.221-2.063-5.157-3.094-8.806-3.094H17.85v53.55ZM71.829 88l26.649-31.167c-.524.524-1.441 1.048-2.75 1.572-1.31.48-3.034.72-5.173.72-4.496 0-8.839-1.157-13.03-3.47-4.147-2.314-7.573-5.609-10.279-9.887-2.663-4.322-3.995-9.472-3.995-15.452 0-5.893 1.441-11.11 4.322-15.649 2.924-4.54 6.809-8.119 11.655-10.738C84.073 1.309 89.442 0 95.335 0c6.024 0 11.458 1.244 16.303 3.732 4.846 2.445 8.709 6.002 11.59 10.673 2.924 4.627 4.387 10.17 4.387 16.631 0 7.115-1.157 13.117-3.471 18.006-2.313 4.845-4.954 9.057-7.922 12.637L94.746 88H71.829ZM95.4 43.476c2.576 0 4.889-.611 6.941-1.833 2.095-1.222 3.754-2.881 4.976-4.976 1.266-2.096 1.899-4.409 1.899-6.941s-.633-4.845-1.899-6.94c-1.222-2.096-2.881-3.754-4.976-4.977-2.095-1.222-4.409-1.833-6.941-1.833-2.531 0-4.845.633-6.94 1.899-2.052 1.222-3.711 2.881-4.976 4.976-1.223 2.052-1.834 4.343-1.834 6.875 0 2.532.611 4.845 1.834 6.941 1.265 2.095 2.946 3.754 5.041 4.976 2.096 1.222 4.387 1.833 6.875 1.833Z"
  />
</svg>
