<svg aria-hidden="true" width="32" height="32" viewBox="0 0 512 512" fill="none" xmlns="http://www.w3.org/2000/svg">
  <rect width="512" height="512" fill="#F1641E"/>
  <path d="M391.1 113.4c-.6 17.1-1.4 38.9-1.7 48.4l-.7 17.3-9.5-.3-9.6-.3-4.3-16c-6.9-25-9.3-32.1-13.3-38.8-4.3-7.2-11.4-13.1-17.6-14.6-5.8-1.5-120.7-1.5-123.5-.1-1.8 1-1.9 2.8-1.9 67.7v66.6l32.8-.7c44-1 44.5-1.1 50.3-4.3 5.6-3 10.6-9.6 11.4-15.2.3-2 2.1-10.5 4.1-18.9l3.6-15.2h9.8c5.5 0 10.1.3 10.3.7.3.5-.3 14.4-1.3 31.1-1.4 24-1.6 35.5-.9 55 .4 13.6.8 27.5.9 30.9v6.3h-9.9c-5.5 0-10.2-.4-10.5-.9-.3-.5-1.9-7.2-3.6-15-3.2-15.2-5.1-20-9.7-24.3-5.9-5.6-10.3-6.7-32.4-7.8-11.2-.5-28.2-1-37.7-1h-17.3l.3 59.2c.3 58.6.3 59.3 2.5 63.3 2.4 4.6 6.5 8.6 10.8 10.8 6.2 3.1 15.1 3.6 63.5 3.8l48.5.1 7.3-2.5c9.5-3.3 16-7.6 22.6-14.9 6.2-6.8 6.5-7.3 19.5-36.3l9.9-22 8.9-.3 8.9-.3-1.2 8.3c-1.2 8.3-7.3 59.8-9.7 81.8l-1.2 11.5-30-.5c-45.1-.8-235.2-.5-249.8.3l-12.8.7.3-9.7.3-9.7 16.6-3.7c17.4-3.8 21-5.2 24.5-9.1 4.4-4.8 4.6-6.1 5.6-39.2 1.1-36.3.3-216.9-1.1-228.4-1.5-12.8-5-15.4-28.8-20.6-8.9-2-16.5-3.6-16.8-3.6-.3 0-.5-4.2-.5-9.3v-9.2h123.2c115.4-.1 124.5-.2 142.3-2 10.5-1.1 19.2-1.6 19.4-1.1.2.4-.2 14.8-.8 32z" fill="#FFFFFF"/>
</svg>
