<svg role="img" viewBox="0 0 24 24" xmlns="http://www.w3.org/2000/svg"><title>Faire</title><g transform="translate(1.34 -7.62) scale(1.85)"><path d="M10.5226 7.72767L10.3722 7.8026C9.96096 7.29306 9.56984 6.85846 9.19876 6.49879C8.82768 6.13911 8.46664 5.87436 8.11562 5.70451C7.94512 5.62458 7.63673 5.55715 7.19044 5.5022C6.74414 5.44724 6.22514 5.41977 5.63343 5.41977C5.53313 5.41977 5.4178 5.42227 5.28742 5.42726C5.15705 5.43226 5.03168 5.43725 4.91133 5.44225C4.79098 5.44725 4.67816 5.45224 4.57285 5.45724C4.46755 5.46223 4.38982 5.46473 4.33968 5.46473C4.32965 5.52468 4.31711 5.58462 4.30207 5.64457C4.28702 5.70451 4.27449 5.77445 4.26446 5.85438C4.25443 5.9343 4.2444 6.03671 4.23437 6.1616C4.22434 6.28648 4.21431 6.43884 4.20429 6.61868C4.19426 6.96836 4.18673 7.35051 4.18172 7.76514C4.17671 8.17976 4.1742 8.5719 4.1742 8.94157V10.3653H4.44498C4.60545 10.3653 4.78346 10.3603 4.97903 10.3503C5.1746 10.3403 5.37768 10.3278 5.5883 10.3128C5.79891 10.2978 5.97441 10.2754 6.11482 10.2454C6.47587 10.1655 6.76169 10.0606 6.97231 9.93067C7.18292 9.80079 7.3484 9.64593 7.46874 9.46609C7.58909 9.28625 7.67434 9.08894 7.72449 8.87413C7.77463 8.65932 7.81976 8.42704 7.85988 8.17726H8.0404V13.0029H7.85988C7.77964 12.6832 7.66431 12.346 7.51388 11.9913C7.36344 11.6366 7.18292 11.3644 6.97231 11.1745C6.78175 11.0047 6.57867 10.8773 6.36304 10.7924C6.14741 10.7075 5.89418 10.655 5.60334 10.635C5.4529 10.625 5.32253 10.6175 5.21221 10.6125C5.10189 10.6076 4.99658 10.6051 4.89629 10.6051H4.1742V12.4634C4.1742 12.7431 4.17671 13.0004 4.18172 13.2352C4.18673 13.47 4.18924 13.6723 4.18924 13.8421C4.19927 14.1618 4.21682 14.464 4.24189 14.7488C4.26697 15.0335 4.32463 15.2458 4.4149 15.3857C4.50516 15.5256 4.6581 15.633 4.87372 15.7079C5.08935 15.7828 5.40276 15.8303 5.81395 15.8503V16.0002H1V15.8503C1.25073 15.8103 1.4839 15.7454 1.69953 15.6555C1.91515 15.5655 2.09317 15.4407 2.23357 15.2808C2.28372 15.2209 2.32384 15.1334 2.35392 15.0185C2.38401 14.9036 2.41159 14.7713 2.43666 14.6214C2.46174 14.4715 2.47929 14.3142 2.48932 14.1493C2.49934 13.9845 2.50436 13.8221 2.50436 13.6623C2.50436 13.5224 2.50687 13.3326 2.51188 13.0928C2.5169 12.853 2.52191 12.5908 2.52692 12.306C2.53194 12.0213 2.53445 11.729 2.53445 11.4293V7.63775C2.53445 7.45792 2.53194 7.27309 2.52692 7.08326C2.52191 6.89343 2.51188 6.71359 2.49684 6.54375C2.48179 6.3739 2.45672 6.22154 2.42162 6.08666C2.38652 5.95179 2.33888 5.85438 2.27871 5.79443C2.12827 5.63457 1.96781 5.53217 1.79731 5.48721C1.62682 5.44225 1.40618 5.39979 1.13539 5.35982V5.20996H9.49963L10.5226 7.72767Z" fill="#0F1111"/></g></svg>
