<svg width="12" height="12" viewBox="0 0 12 12" fill="none" xmlns="http://www.w3.org/2000/svg">
<g clip-path="url(#clip0_10_140)">
<path fill-rule="evenodd" clip-rule="evenodd" d="M7.7385 0C7.946 0 8.113 0.169 8.1325 0.376C8.21991 1.27256 8.61596 2.11094 9.25298 2.74786C9.88999 3.38479 10.7284 3.78072 11.625 3.868C11.8315 3.888 12.001 4.0545 12.001 4.262V7.738C12.001 7.9455 11.832 8.112 11.625 8.132C10.7284 8.21928 9.88999 8.61521 9.25298 9.25214C8.61596 9.88906 8.21991 10.7274 8.1325 11.624C8.1125 11.831 7.946 12 7.7385 12H4.2625C4.0545 12 3.888 11.831 3.868 11.624C3.78061 10.7275 3.38463 9.8892 2.74772 9.25228C2.1108 8.61537 1.27248 8.21939 0.376 8.132C0.169 8.112 0 7.9455 0 7.738V4.262C0 4.0545 0.169 3.888 0.376 3.868C1.27248 3.78061 2.1108 3.38463 2.74772 2.74772C3.38463 2.1108 3.78061 1.27248 3.868 0.376C3.888 0.169 4.055 0 4.263 0H7.738H7.7385ZM2.4095 5.99C2.40924 6.46451 2.50245 6.93442 2.68381 7.3729C2.86516 7.81139 3.13112 8.20985 3.46649 8.54554C3.80185 8.88123 4.20006 9.14757 4.63836 9.32936C5.07667 9.51114 5.54649 9.6048 6.021 9.605C6.49551 9.6048 6.96533 9.51114 7.40364 9.32936C7.84194 9.14757 8.24015 8.88123 8.57551 8.54554C8.91088 8.20985 9.17684 7.81139 9.35819 7.3729C9.53955 6.93442 9.63276 6.46451 9.6325 5.99C9.6325 3.993 8.0155 2.375 6.021 2.375C5.06273 2.37553 4.14391 2.75668 3.46663 3.43461C2.78936 4.11254 2.4091 5.03173 2.4095 5.99Z" fill="#EC0648"/>
</g>
<defs>
<clipPath id="clip0_10_140">
<rect width="12" height="12" fill="white"/>
</clipPath>
</defs>
</svg>
