<svg xmlns="http://www.w3.org/2000/svg" width="28" height="28" viewBox="0 0 512 512" fill-rule="evenodd" clip-rule="evenodd" stroke-linejoin="round" stroke-miterlimit="2"><g transform="scale(32)"><clipPath id="prefix__a"><path d="M0 0h16v16H0z"/></clipPath><g clip-path="url(#prefix__a)"><path d="M10.318 0c.277 0 .5.225.525.501A5.199 5.199 0 0115.5 5.157c.275.027.501.249.501.526v4.634a.542.542 0 01-.501.526 5.199 5.199 0 00-4.657 4.656.542.542 0 01-.525.501H5.683a.542.542 0 01-.526-.501 5.2 5.2 0 00-4.656-4.656.542.542 0 01-.501-.526V5.683c0-.277.225-.499.501-.526A5.2 5.2 0 005.157.501.543.543 0 015.684 0h4.634zM3.213 7.987v.002c0 2.642 2.173 4.816 4.815 4.818 2.642-.002 4.815-2.176 4.815-4.818v-.002a4.817 4.817 0 00-4.815-4.82c-2.643.001-4.817 2.177-4.815 4.82z" fill="#ec0648"/></g></g></svg>
