<svg width="284" height="284" viewBox="0 0 284 284" fill="none" xmlns="http://www.w3.org/2000/svg">
<g clipPath="url(#clip0_10_115)">
<path d="M208.862 90.7716C197.812 94.0514 189.483 101.471 183.383 109.53C182.073 111.26 179.343 109.96 179.863 107.841C191.543 59.8136 176.113 19.896 128.016 0.247269C125.576 -0.752669 123.036 1.43719 123.676 3.99704C145.555 91.8416 53.5294 84.432 65.1588 184.016C65.3588 185.726 63.4389 186.896 62.039 185.896C57.6792 182.766 52.8095 176.236 49.4696 171.647C48.4897 170.297 46.3698 170.677 45.9198 172.287C43.2599 181.906 42 190.965 42 199.965C42 234.963 59.9891 265.771 87.2177 283.63C88.7777 284.65 90.7776 283.19 90.2476 281.4C88.8477 276.7 88.0577 271.74 87.9977 266.611C87.9977 263.461 88.1977 260.241 88.6877 257.241C89.8276 249.702 92.4475 242.522 96.8473 235.983C111.937 213.334 142.185 191.455 137.355 161.747C137.045 159.867 139.265 158.627 140.665 159.917C161.974 179.386 166.194 205.575 162.694 229.063C162.394 231.103 164.954 232.193 166.244 230.593C169.504 226.513 173.483 222.933 177.813 220.244C178.893 219.574 180.333 220.084 180.743 221.284C183.153 228.293 186.733 234.873 190.113 241.452C194.152 249.362 196.302 258.391 195.962 267.951C195.792 272.6 195.022 277.1 193.732 281.38C193.182 283.19 195.162 284.7 196.752 283.66C224.001 265.801 242 234.993 242 199.975C242 187.806 239.87 175.876 235.84 164.697C227.391 141.248 205.952 123.64 211.372 93.0815C211.632 91.6216 210.282 90.3517 208.862 90.7716Z" fill="#FA5D19"/>
</g>
<defs>
<clipPath id="clip0_10_115">
<rect width="284" height="284" fill="white"/>
</clipPath>
</defs>
</svg>
