<svg width="64" height="64" viewBox="0 0 1024 1024" fill="none" xmlns="http://www.w3.org/2000/svg">
  <g clip-path="url(#square)">
    <rect width="1024" height="1024" fill="#00153D"/>
    <path d="M-368.651 1024C-371.504 1024 -374.356 1023.43 -377.209 1021.71C-384.055 1017.14 -386.336 1007.99 -381.202 1000.55C-380.632 999.407 -364.087 974.241 -330.999 934.777C-325.864 928.486 -316.166 927.342 -309.89 933.061C-303.615 938.209 -302.474 947.932 -308.179 954.223C-340.127 991.971 -356.1 1016.56 -356.671 1017.14C-358.953 1021.71 -364.087 1024 -368.651 1024ZM-265.392 899.889C-269.385 899.889 -272.808 898.745 -275.661 895.885C-281.936 890.166 -281.936 880.443 -276.231 874.723C-257.405 855.277 -238.008 835.831 -218.041 817.529C-211.765 811.81 -202.637 812.382 -196.932 818.101C-191.227 824.392 -191.798 834.115 -197.503 839.263C-216.9 857.565 -236.296 876.439 -254.552 895.313C-257.405 898.745 -261.398 899.889 -265.392 899.889ZM-147.299 790.648C-151.863 790.648 -155.857 788.932 -158.709 784.928C-163.844 778.637 -163.273 768.914 -156.427 763.766C-135.319 746.608 -113.64 729.45 -91.9615 714.008C-85.1156 708.86 -75.9876 710.576 -70.8531 717.439C-65.7187 724.303 -67.4302 733.454 -74.2761 738.601C-95.3844 754.043 -117.063 770.63 -137.031 787.788C-140.453 789.504 -143.876 790.648 -147.299 790.648ZM-16.6562 695.133C-21.7906 695.133 -26.3546 692.846 -29.2071 688.27C-33.7711 681.407 -31.489 671.684 -24.6431 667.108C-1.82328 652.238 21.5669 637.939 44.9572 624.785C52.3736 620.781 61.5016 623.069 65.495 630.504C69.4885 637.939 67.2065 647.09 59.7901 651.094C36.9703 664.249 13.58 677.975 -8.66925 692.274C-11.5217 694.562 -13.8037 695.133 -16.6562 695.133ZM123.686 616.205C117.981 616.205 112.846 613.346 109.994 607.626C106.571 600.191 109.423 591.04 116.84 587.608C141.371 575.598 165.902 564.159 191.004 553.864C198.42 550.432 207.548 554.436 210.971 561.871C214.394 569.878 210.401 578.457 202.984 581.889C178.453 592.184 153.922 603.051 130.531 614.49C127.679 615.634 125.397 616.205 123.686 616.205ZM272.014 553.864C265.739 553.864 260.034 549.86 257.752 543.569C254.899 535.562 259.463 526.982 266.88 524.123C292.552 515.544 318.794 506.965 344.467 500.101C352.454 497.813 361.011 502.389 363.293 510.396C365.575 518.403 361.011 526.983 353.024 529.27C327.352 536.134 301.68 544.141 277.148 552.72C275.437 553.864 273.726 553.864 272.014 553.864Z" fill="#FFFFFF"/>
    <path d="M927.155 393.669C927.719 395.393 924.332 399.992 921.508 403.441C916.991 408.039 904.005 423.558 852.059 435.054C800.114 446.55 734.617 458.62 730.1 459.77C725.583 460.344 716.549 458.62 711.467 474.139C706.95 489.659 649.358 699.456 649.358 699.456L631.854 703.48L612.092 483.911C612.092 483.911 489.568 508.627 477.146 508.627L446.092 592.546L430.282 594.27L433.67 509.201C433.67 509.201 416.731 506.327 413.908 505.753C412.779 505.753 411.649 505.753 411.085 504.028C411.085 502.879 411.649 502.304 412.779 501.729C415.037 500.005 429.717 490.808 429.717 490.808L393.017 414.361L408.262 409.188L469.806 473.565C481.099 468.392 603.058 440.802 603.058 440.802L534.738 231.004L552.242 227.556C552.242 227.556 687.752 396.543 698.48 408.614C709.208 420.684 716.548 415.511 721.066 414.361C725.583 413.212 790.515 397.693 842.461 386.772C894.406 375.851 912.474 385.047 918.685 387.346C922.073 388.496 927.155 391.945 927.155 393.669Z" fill="#FFFFFF"/>
  </g>
  <defs>
    <clipPath id="square">
      <rect width="1024" height="1024" fill="#FFFFFF"/>
    </clipPath>
  </defs>
</svg>
