<svg width="24" height="24" viewBox="0 0 24 24" fill="none" xmlns="http://www.w3.org/2000/svg">
<path d="M12 0C5.3724 0 0 5.27881 0 11.791C0 17.0026 3.438 21.4194 8.2068 22.9794C8.8068 23.0879 9.0252 22.7235 9.0252 22.4111C9.0252 22.1316 9.0156 21.39 9.0096 20.4066C5.6712 21.1188 4.9668 18.8266 4.9668 18.8266C4.422 17.4636 3.6348 17.1016 3.6348 17.1016C2.5452 16.3706 3.7176 16.3847 3.7176 16.3847C4.9212 16.4672 5.5548 17.5992 5.5548 17.5992C6.6252 19.402 8.364 18.8809 9.0468 18.5802C9.1572 17.8173 9.4668 17.2973 9.81 17.0026C7.146 16.7042 4.344 15.6938 4.344 11.1743C4.344 9.88789 4.812 8.83496 5.5788 8.01077C5.4552 7.71246 5.0436 6.51332 5.6964 4.88971C5.6964 4.88971 6.7044 4.57253 8.9964 6.09828C9.97542 5.83654 10.9854 5.70332 12 5.7021C13.02 5.70682 14.046 5.8377 15.0048 6.09946C17.2956 4.57371 18.3012 4.89089 18.3012 4.89089C18.9564 6.5145 18.5448 7.71364 18.4212 8.01195C19.1892 8.83614 19.6548 9.88907 19.6548 11.1755C19.6548 15.7055 16.848 16.7019 14.1756 16.9943C14.6064 17.3586 14.9892 18.0779 14.9892 19.178C14.9892 20.7533 14.9748 22.0255 14.9748 22.4122C14.9748 22.7271 15.1908 23.0938 15.8004 22.9782C20.5656 21.4159 24 17.0002 24 11.791C24 5.27881 18.6276 0 12 0Z" fill="black"/>
</svg>
