<svg viewBox="0 0 24 24" xmlns="http://www.w3.org/2000/svg"><path d="m23.6 9.593-.033-.086L20.3.98a.851.851 0 0 0-.336-.382.859.859 0 0 0-.994.065.858.858 0 0 0-.283.424l-2.206 6.748H7.518L5.312 1.087a.856.856 0 0 0-.283-.424.859.859 0 0 0-.994-.065.854.854 0 0 0-.336.382L.433 9.502l-.032.09a6.065 6.065 0 0 0 2.012 7.01l.01.008.028.02 4.968 3.72 2.457 1.86 1.496 1.13a1.009 1.009 0 0 0 1.22 0l1.496-1.13 2.457-1.86 4.996-3.74.013-.01a6.065 6.065 0 0 0 2.006-7.006z" fill="#E24329"/><path d="m23.6 9.593-.033-.086a11.387 11.387 0 0 0-4.534 2.024l-7.04 5.328 4.49 3.394 4.997-3.74.012-.01a6.065 6.065 0 0 0 2.007-7.006z" fill="#FC6D26"/><path d="m7.51 20.253 2.457 1.86 1.496 1.13a1.009 1.009 0 0 0 1.22 0l1.496-1.13 2.457-1.86-4.49-3.394-4.636 3.394z" fill="#FCA326"/><path d="M4.965 11.531a11.377 11.377 0 0 0-4.533-2.024l-.032.09a6.065 6.065 0 0 0 2.012 7.01l.01.008.028.02 4.968 3.72 4.636-3.394-7.09-5.43z" fill="#FC6D26"/></svg>
