<svg role="img" viewBox="0 0 192 192" xmlns="http://www.w3.org/2000/svg">
  <title>Google Maps</title>
  <defs>
    <path
      id="google-maps-pin"
      d="M96 8c38.11 0 69 30.89 69 69 0 14.15-4.26 27.31-11.57 38.26-14.46 21.66-37.07 37.94-48.72 61.23l-1.54 3.07c-1.48 2.96-4.33 4.44-7.18 4.44s-5.69-1.48-7.17-4.44l-1.54-3.07c-11.65-23.29-34.25-39.57-48.71-61.23C30.26 104.31 26 91.15 26 77c0-38.11 30.89-69 69-69Zm0 31.99c-20.43 0-37 16.57-37 37s16.56 37 37 37 37-16.57 37-37-16.57-37-37-37Z"
    />
    <linearGradient
      id="google-maps-base"
      x1="112"
      y1="16"
      x2="112"
      y2="184"
      gradientUnits="userSpaceOnUse"
    >
      <stop offset="0" stop-color="#4285F4" />
      <stop offset="0.38" stop-color="#12B5CB" />
      <stop offset="0.66" stop-color="#34A853" />
      <stop offset="1" stop-color="#00C853" />
    </linearGradient>
    <radialGradient
      id="google-maps-blue"
      cx="113"
      cy="28"
      r="70"
      gradientUnits="userSpaceOnUse"
    >
      <stop offset="0" stop-color="#4285F4" />
      <stop offset="0.72" stop-color="#4285F4" stop-opacity="0" />
    </radialGradient>
    <radialGradient
      id="google-maps-green"
      cx="135"
      cy="113"
      r="100"
      gradientUnits="userSpaceOnUse"
    >
      <stop offset="0" stop-color="#00C853" />
      <stop offset="0.8" stop-color="#00C853" stop-opacity="0" />
    </radialGradient>
    <radialGradient
      id="google-maps-red"
      cx="52"
      cy="48"
      r="76"
      gradientUnits="userSpaceOnUse"
    >
      <stop offset="0" stop-color="#EA4335" />
      <stop offset="0.34" stop-color="#EA4335" />
      <stop offset="0.76" stop-color="#EA4335" stop-opacity="0" />
    </radialGradient>
    <radialGradient
      id="google-maps-yellow"
      cx="39"
      cy="96"
      r="72"
      gradientUnits="userSpaceOnUse"
    >
      <stop offset="0" stop-color="#FBBC04" />
      <stop offset="0.78" stop-color="#FBBC04" stop-opacity="0" />
    </radialGradient>
  </defs>
  <use
    href="#google-maps-pin"
    fill="url(#google-maps-base)"
    fill-rule="evenodd"
  />
  <use
    href="#google-maps-pin"
    fill="url(#google-maps-blue)"
    fill-rule="evenodd"
  />
  <use
    href="#google-maps-pin"
    fill="url(#google-maps-green)"
    fill-rule="evenodd"
  />
  <use
    href="#google-maps-pin"
    fill="url(#google-maps-red)"
    fill-rule="evenodd"
  />
  <use
    href="#google-maps-pin"
    fill="url(#google-maps-yellow)"
    fill-rule="evenodd"
  />
</svg>
