<svg xmlns="http://www.w3.org/2000/svg" viewBox="0 0 256 256" fill="none">
  <path d="M195.368 0H20.211C9.044 0 0 9.044 0 20.211v175.158h60.632V60.632h134.737V0Z" fill="#4285F4"/>
  <path d="M195.368 256 256 195.368l-30.316-5.172L195.368 195.368l-5.967 27.73" fill="#EA4335"/>
  <path d="M0 195.368v40.421C0 246.956 9.044 256 20.211 256h40.42l6.226-30.316-6.226-30.316-33.032-5.172L0 195.368Z" fill="#188038"/>
  <path d="M256 60.632V20.21C256 9.044 246.956 0 235.79 0h-40.421c-3.689 15.036-5.533 26.101-5.533 33.196 0 7.094 1.844 16.24 5.533 27.436 13.41 3.84 23.515 5.76 30.316 5.76 6.8 0 16.906-1.92 30.316-5.76Z" fill="#1967D2"/>
  <polygon points="256 60.632 195.368 60.632 195.368 195.368 256 195.368" fill="#FBBC04"/>
  <polygon points="195.368 195.368 60.632 195.368 60.632 256 195.368 256" fill="#34A853"/>
  <rect x="76" y="128" width="14" height="40" rx="4" fill="#FFF"/>
  <rect x="98" y="104" width="14" height="64" rx="4" fill="#FFF"/>
  <rect x="120" y="88" width="14" height="80" rx="4" fill="#FFF"/>
  <rect x="142" y="112" width="14" height="56" rx="4" fill="#FFF"/>
  <rect x="164" y="96" width="14" height="72" rx="4" fill="#FFF" opacity="0.6"/>
</svg>
