<svg
  xmlns="http://www.w3.org/2000/svg"
  width="192"
  height="192"
  fill="none"
  viewBox="0 0 192 192"
>
  <rect width="192" height="192" fill="#F9AB00" rx="42" />
  <path
    fill="#E37400"
    d="M125 42c0-8.837 7.163-16 16-16s16 7.163 16 16v108c0 8.837-7.163 16-16 16s-16-7.163-16-16z"
  />
  <path
    fill="#E37400"
    d="M78 90c0-8.837 7.163-16 16-16s16 7.163 16 16v60c0 8.837-7.163 16-16 16s-16-7.163-16-16z"
  />
  <circle cx="51" cy="146" r="20" fill="#E37400" />
  <path
    fill="#fff"
    fill-opacity=".24"
    d="M125 42c0-8.837 7.163-16 16-16s16 7.163 16 16v108c0 8.837-7.163 16-16 16s-16-7.163-16-16z"
  />
  <path
    fill="#fff"
    fill-opacity=".16"
    d="M78 90c0-8.837 7.163-16 16-16s16 7.163 16 16v60c0 8.837-7.163 16-16 16s-16-7.163-16-16z"
  />
</svg>
