<svg viewBox="0 0 256 256" xmlns="http://www.w3.org/2000/svg"><polygon fill="#FFF" points="195.368 60.632 60.632 60.632 60.632 195.368 195.368 195.368"/><polygon fill="#EA4335" points="195.368 256 256 195.368 225.684 190.196 195.368 195.368 189.835 223.098"/><path fill="#188038" d="M0 195.368v40.421C0 246.956 9.044 256 20.211 256h40.42l6.226-30.316-6.226-30.316-33.032-5.172L0 195.368Z"/><path fill="#1967D2" d="M256 60.632V20.21C256 9.044 246.956 0 235.79 0h-40.421c-3.689 15.036-5.533 26.101-5.533 33.196 0 7.094 1.844 16.24 5.533 27.436 13.41 3.84 23.515 5.76 30.316 5.76 6.8 0 16.906-1.92 30.316-5.76Z"/><polygon fill="#FBBC04" points="256 60.632 195.368 60.632 195.368 195.368 256 195.368"/><polygon fill="#34A853" points="195.368 195.368 60.632 195.368 60.632 256 195.368 256"/><path fill="#4285F4" d="M195.368 0H20.211C9.044 0 0 9.044 0 20.211v175.158h60.632V60.632h134.737V0Z"/><path fill="#4285F4" d="M88.27 165.154c-5.036-3.402-8.522-8.371-10.426-14.94l11.689-4.816c1.06 4.042 2.913 7.175 5.557 9.398 2.628 2.223 5.827 3.318 9.566 3.318 3.824 0 7.108-1.162 9.853-3.486 2.745-2.324 4.126-5.289 4.126-8.876 0-3.671-1.448-6.67-4.345-8.994-2.897-2.324-6.535-3.486-10.88-3.486h-6.754v-11.571h6.064c3.738 0 6.888-1.01 9.448-3.032 2.56-2.02 3.84-4.783 3.84-8.303 0-3.132-1.145-5.625-3.436-7.495-2.29-1.87-5.187-2.813-8.707-2.813-3.436 0-6.164.91-8.186 2.745a16.48 16.48 0 0 0-4.412 6.754L79.697 104.74c1.532-4.345 4.345-8.185 8.471-11.503 4.126-3.318 9.398-4.985 15.798-4.985 4.732 0 8.994.91 12.766 2.745 3.773 1.836 6.737 4.379 8.876 7.613 2.139 3.25 3.2 6.888 3.2 10.93 0 4.126-.994 7.613-2.981 10.476-1.988 2.863-4.43 5.052-7.327 6.585v.69c3.74 1.543 6.99 4.075 9.398 7.327 2.442 3.284 3.671 7.208 3.671 11.79 0 4.58-1.162 8.673-3.486 12.26-2.324 3.587-5.54 6.417-9.617 8.471-4.092 2.055-8.69 3.099-13.793 3.099-5.912.016-11.369-1.685-16.404-5.088ZM160.067 107.15l-12.833 9.28-6.417-9.735 23.024-16.606h8.825v78.332h-12.598V107.15Z"/></svg>
