<svg width="48" height="48" viewBox="0 0 48 48" fill="none" xmlns="http://www.w3.org/2000/svg">
<g clip-path="url(#clip0_10_144)">
<path fill-rule="evenodd" clip-rule="evenodd" d="M38.2093 27.7906L40.4454 25.4608L40.4652 22.2742L46.0519 18.9692C46.0519 18.9692 48.7663 25.6186 44.3211 32.8571C39.8759 40.0957 30.9448 40.1352 30.9448 40.1352L38.2093 27.7906Z" fill="url(#paint0_linear_10_144)"/>
<path fill-rule="evenodd" clip-rule="evenodd" d="M16.6621 40.2536L38.1867 27.8351L30.9432 40.1352L16.6621 40.2536Z" fill="#0076CF"/>
<path fill-rule="evenodd" clip-rule="evenodd" d="M38.0118 20.7654C38.0118 20.7654 38.1745 20.9331 38.3151 21.1229C39.6575 22.9375 39.8942 24.969 38.9499 26.5667C38.6935 26.9993 37.6482 28.1458 37.6482 28.1458C37.6482 28.1458 47.4631 23.1446 45.9728 18.5367C44.0694 12.6492 39.088 9.09399 31.2195 8.40613L38.0118 20.7654Z" fill="url(#paint1_linear_10_144)"/>
<path opacity="0.05" fill-rule="evenodd" clip-rule="evenodd" d="M45.9828 18.5354C45.8965 18.2679 45.7967 18.0102 45.6968 17.7526L45.5181 17.3063C45.2814 16.7171 44.9954 16.15 44.6613 15.6089L44.2323 14.9346L44.845 19.1801C45.1778 21.097 42.5164 23.6832 39.3187 25.7431C39.2275 26.0254 39.1153 26.3028 38.9612 26.5653C38.7048 26.998 37.6594 28.1445 37.6594 28.1445C37.6594 28.1445 47.4732 23.1445 45.9828 18.5354Z" fill="black"/>
<path fill-rule="evenodd" clip-rule="evenodd" d="M38.0117 20.7655L17.2908 8.40491H31.2181L38.0117 20.7655Z" fill="#0076CF"/>
<path fill-rule="evenodd" clip-rule="evenodd" d="M3.54118 23.6499L10.3668 35.256V38.1677L15.9929 47.8853C15.9929 47.8853 8.28225 47.7275 4.54462 42.0237C0.806994 36.3199 -0.648856 29.8665 3.54118 23.6499Z" fill="url(#paint2_linear_10_144)"/>
<path fill-rule="evenodd" clip-rule="evenodd" d="M10.3567 35.8762V43.2035C10.3567 43.2035 10.7992 47.9841 17.0159 47.9841C18.7109 47.9841 20.2629 47.7153 21.6263 47.3233C24.7032 46.4395 27.393 44.5485 29.3986 42.0546L30.9432 40.1353L16.3477 40.2536C14.0869 40.2031 12.8123 39.6348 11.5561 38.1814C11.19 37.7574 10.8979 37.2655 10.6945 36.7441L10.3567 35.8762Z" fill="url(#paint3_linear_10_144)"/>
<path opacity="0.05" fill-rule="evenodd" clip-rule="evenodd" d="M15.5489 46.6256C12.1528 46.0585 11.6449 43.492 11.5906 43.1283V42.4479L11.5968 38.2246C11.5832 38.2098 11.5697 38.1974 11.5561 38.1814C11.19 37.7573 10.8978 37.2655 10.6944 36.7441L10.3579 35.8774V43.2048C10.3579 43.2048 10.7351 47.0965 15.3911 47.8484L15.5292 47.8731C16.8568 48.1147 18.1229 47.9705 19.543 47.7794L19.5343 47.7671L15.5489 46.6256Z" fill="black"/>
<path fill-rule="evenodd" clip-rule="evenodd" d="M3.28602 24.1615L10.4851 11.9254C10.4851 11.9254 12.3342 6.77138 17.291 8.40474H21.1864L8.64591 2.48889L4.83925 5.77904C4.83925 5.77904 0.295422 11.1389 1.20024 17.6305C1.20024 17.6305 1.75127 22.3518 3.28602 24.1615Z" fill="url(#paint4_linear_10_144)"/>
<path opacity="0.05" fill-rule="evenodd" clip-rule="evenodd" d="M20.946 8.40484L8.41533 2.77991C8.41533 2.77991 5.63677 4.93101 4.84166 5.78529C4.57662 6.06882 3.96766 6.9872 3.92821 7.04514C3.60893 7.51727 3.17871 8.29513 3.17871 8.29513L5.37173 6.61985C6.13849 6.10334 6.87935 5.72859 7.80883 5.60901C7.99744 5.58436 8.19098 5.57203 8.38328 5.57203C9.31152 5.57203 10.2767 5.85063 11.1729 6.37824L14.2091 8.24212C15.0055 8.07816 15.8931 7.9438 17.2589 8.37772L20.946 8.40484Z" fill="black"/>
<path opacity="0.07" fill-rule="evenodd" clip-rule="evenodd" d="M10.9706 43.1443L10.9718 39.1576L10.973 39.1613L10.9792 37.3246C10.8757 37.1347 10.7721 36.9437 10.6944 36.7415L10.3579 35.8749V43.2022C10.3579 43.2022 10.7339 47.0816 15.3689 47.8434L15.6451 47.8878C16.3477 48 17.0615 48.0246 17.7703 47.9618L17.9527 47.9457L15.4478 47.232C11.3466 46.5491 10.9743 43.1788 10.9706 43.1443Z" fill="black"/>
<path opacity="0.07" fill-rule="evenodd" clip-rule="evenodd" d="M21.1126 8.38877L8.646 2.521L4.87263 5.74951C4.87263 5.74951 4.69018 5.964 4.67293 5.98619C4.37584 6.35971 3.93945 7.04757 3.93945 7.04757L5.1278 6.18959C6.0166 5.58925 6.91279 5.16766 7.96924 5.03083C8.18373 5.00371 8.40316 4.98891 8.62258 4.98891C9.66054 4.98891 10.733 5.2971 11.7254 5.88018L15.4359 8.08922C15.9721 8.10032 16.6452 8.19154 17.28 8.39987L21.1126 8.38877Z" fill="black"/>
<path opacity="0.07" fill-rule="evenodd" clip-rule="evenodd" d="M45.99 18.6032C45.9691 18.5354 45.9173 18.3456 45.8951 18.279C45.651 17.5234 45.0174 16.2426 45.0174 16.2426L45.4205 19.0754C45.9407 22.0758 41.0838 25.3931 38.781 26.7824C38.4026 27.2952 37.6272 28.1445 37.6272 28.1445C37.6272 28.1445 41.7803 26.0452 44.2728 23.2999C45.5918 21.849 46.4806 20.2119 45.99 18.6032Z" fill="black"/>
<path fill-rule="evenodd" clip-rule="evenodd" d="M3.28613 24.1614L10.3571 35.876L10.4853 11.9266L3.28613 24.1614Z" fill="#0076CF"/>
<path fill-rule="evenodd" clip-rule="evenodd" d="M17.2911 8.40486L12.0385 5.31688C10.7873 4.58094 9.33141 4.2025 7.89159 4.38741C6.89801 4.51561 5.80211 4.89406 4.83936 5.77915C4.83936 5.77915 9.61987 -0.653212 18.2946 0.0543727C26.9693 0.761958 31.2185 8.40486 31.2185 8.40486H17.2911Z" fill="url(#paint5_linear_10_144)"/>
</g>
<defs>
<linearGradient id="paint0_linear_10_144" x1="45.046" y1="11.6851" x2="35.4467" y2="45.3619" gradientUnits="userSpaceOnUse">
<stop stop-color="#55D3FD"/>
<stop offset="0.195" stop-color="#49C3F5"/>
<stop offset="0.722" stop-color="#2D9EE2"/>
<stop offset="1" stop-color="#2290DB"/>
</linearGradient>
<linearGradient id="paint1_linear_10_144" x1="32.0023" y1="18.2753" x2="46.9096" y2="18.2753" gradientUnits="userSpaceOnUse">
<stop stop-color="#BCA8F7"/>
<stop offset="0.994" stop-color="#9464EB"/>
</linearGradient>
<linearGradient id="paint2_linear_10_144" x1="19.4384" y1="52.3034" x2="-3.37934" y2="23.5044" gradientUnits="userSpaceOnUse">
<stop stop-color="#55D3FD"/>
<stop offset="0.195" stop-color="#49C3F5"/>
<stop offset="0.722" stop-color="#2D9EE2"/>
<stop offset="1" stop-color="#2290DB"/>
</linearGradient>
<linearGradient id="paint3_linear_10_144" x1="36.239" y1="37.3407" x2="-7.667" y2="46.6256" gradientUnits="userSpaceOnUse">
<stop stop-color="#BCA8F7"/>
<stop offset="0.994" stop-color="#563AE2"/>
</linearGradient>
<linearGradient id="paint4_linear_10_144" x1="1.0819" y1="13.3258" x2="21.1864" y2="13.3258" gradientUnits="userSpaceOnUse">
<stop stop-color="#BCA8F7"/>
<stop offset="0.994" stop-color="#563AE2"/>
</linearGradient>
<linearGradient id="paint5_linear_10_144" x1="4.83936" y1="4.2025" x2="31.2185" y2="4.2025" gradientUnits="userSpaceOnUse">
<stop stop-color="#55D3FD"/>
<stop offset="0.195" stop-color="#49C3F5"/>
<stop offset="0.722" stop-color="#2D9EE2"/>
<stop offset="1" stop-color="#2290DB"/>
</linearGradient>
<clipPath id="clip0_10_144">
<rect width="48" height="48" fill="white"/>
</clipPath>
</defs>
</svg>
