<svg
  width="132"
  height="132"
  viewBox="104.25 -3.1 64 64"
  fill="none"
  xmlns="http://www.w3.org/2000/svg"
>
  <defs>
    <linearGradient
      id="linearGradient11"
      x1="150.36"
      x2="146.97"
      y1="123.05"
      y2="110.65"
      gradientUnits="userSpaceOnUse"
    >
      <stop stop-color="#4ed960" offset="0" />
      <stop stop-color="#04cbbf" offset="1" />
    </linearGradient>
    <linearGradient
      id="linearGradient13"
      x1="166.1"
      x2="176.85"
      y1="115.65"
      y2="113.5"
      gradientUnits="userSpaceOnUse"
    >
      <stop stop-color="#65c4f7" offset="0" />
      <stop stop-color="#cea2fb" offset="1" />
    </linearGradient>
    <linearGradient
      id="linearGradient15"
      x1="151.09"
      x2="158.74"
      y1="139.9"
      y2="157.11"
      gradientUnits="userSpaceOnUse"
    >
      <stop stop-color="#fd9ffd" offset="0" />
      <stop stop-color="#94c3fc" offset="1" />
    </linearGradient>
    <linearGradient
      id="linearGradient17"
      x1="157.05"
      x2="161.01"
      y1="128.18"
      y2="131.33"
      gradientUnits="userSpaceOnUse"
    >
      <stop stop-color="#ca92dd" offset="0" />
      <stop stop-color="#f7b1f7" offset="1" />
    </linearGradient>
    <linearGradient
      id="linearGradient19"
      x1="177.97"
      x2="172.94"
      y1="143.36"
      y2="132.33"
      gradientUnits="userSpaceOnUse"
    >
      <stop stop-color="#04e1f5" offset="0" />
      <stop stop-color="#3ee4aa" offset="1" />
    </linearGradient>
    <linearGradient
      id="linearGradient21"
      x1="170.61"
      x2="172.05"
      y1="130.9"
      y2="127.16"
      gradientUnits="userSpaceOnUse"
    >
      <stop stop-color="#3dd0c9" offset="0" />
      <stop stop-color="#a5eaeb" offset="1" />
    </linearGradient>
  </defs>
  <g transform="translate(-23.036 -103.97)">
    <path
      d="m131.13 127.32 14.776-17.786c3.2491-3.9111 7.4272-7.1693 8.971-3.7119l3.9509 8.8482c2.1314 4.7734-3.9922 9.3495-6.8235 10.387l-19.696 7.2148c-2.4479 0.89667-3.7412-1.8657-1.1779-4.9512z"
      fill="#149520"
    />
    <path
      d="m158.4 105.29 4.3087 9.5384c0.91392 2.0232 1.6501 2.798 4.0643 4.7947 2.0102 1.6626 4.0628 2.8111 6.9618 3.4134l11.168 2.3202c2.3362 0.48534 3.8989-0.46934-4.6947-6.7544l-16.742-12.244c-4.9513-3.6212-5.6492-2.3574-5.0668-1.0681z"
      fill="#1593f1"
    />
    <path
      d="m133.2 134.96 18.953-6.6703c6.9496-2.4458 11.012 3.9862 11.033 7.3412l0.13728 21.576c0.0431 6.7738-6.383 4.4539-8.4018 2.8917l-20.948-16.21c-3.8158-2.9528-4.1183-7.7512-0.77415-8.9282z"
      fill="url(#linearGradient15)"
    />
    <path
      d="m166.54 135.18c-8e-3 -3.488 2.7183-10.339 8.1901-9.1602l12.028 2.5921c2.9746 0.64104 1.9003 5.5905 0.50105 7.6258l-14.273 20.76c-2.6931 3.9173-6.3828 4.6727-6.3949-0.32438z"
      fill="url(#linearGradient21)"
    />
    <path
      d="m131.13 127.32 14.776-17.786c3.2491-3.9111 7.4281-7.1698 8.971-3.7119l3.7263 8.3514c1.8332 4.1086-3.2052 9.0554-6.7132 10.347l-19.354 7.1233c-2.4465 0.90046-3.9697-1.2373-1.4064-4.3228z"
      fill="url(#linearGradient11)"
    />
    <path
      d="m158.53 104.7 4.361 9.3459c0.93875 2.0118 1.6501 2.798 4.0643 4.7947 2.0102 1.6626 4.0732 2.7631 6.9618 3.4134l11.263 2.5357c1.4194 0.31958 3.4849 0.0118-4.9748-6.186l-16.735-12.261c-3.5756-2.6196-5.5379-2.9251-4.9397-1.6431z"
      fill="url(#linearGradient13)"
    />
    <path
      d="m152.19 128.28c6.0676-2.2058 10.167 2.73 10.819 6.0221-1.5453-3.3144-4.6573-7.4345-10.819-6.0221z"
      fill="url(#linearGradient17)"
    />
    <path
      d="m167.22 135.28c-9e-3 -3.8799 2.9526-10.247 8.256-9.1024l11.284 2.435c2.9744 0.64187 1.9003 5.5905 0.50105 7.6258l-14.273 20.76c-2.8879 4.2006-5.7116 3.6446-5.7167 1.3945z"
      fill="url(#linearGradient19)"
    />
  </g>
</svg>
