<!-- Official source: https://htmlcsstoimage.com/ inline logo and favicon assets -->
<svg xmlns="http://www.w3.org/2000/svg" viewBox="0 0 225 225">
  <g transform="translate(6 6)">
    <path
      d="M7.1 0h200c4.1.5 6.1 2.2 6.1 5.1v202c.1 3.9-1.9 5.9-6.1 5.9H7.1C2.4 212.5 0 210.6 0 207.1V5.1C.8.7 3.8.2 7.1 0Z"
      fill="none"
      stroke="#000000"
      stroke-linecap="round"
      stroke-width="11"
    />
    <path
      d="M169.8 58.5h6.5c1.5 0 2.6-.3 3.3-.9.6-.6 1-1.3 1-2.3 0-.9-.4-1.7-1-2.3-.7-.6-1.8-.9-3.3-.9h-19.4c-1.5 0-2.6.3-3.3.9-.6.6-.9 1.4-.9 2.3 0 1 .3 1.7.9 2.3.7.6 1.8.9 3.3.9h6.5v25.1h-6.5c-1.5 0-2.6.3-3.3.9-.6.6-.9 1.3-.9 2.3 0 .9.3 1.7.9 2.3.7.6 1.8.9 3.3.9h19.4c1.5 0 2.6-.3 3.3-.9.6-.6 1-1.3 1-2.3 0-.9-.4-1.7-1-2.3-.7-.6-1.8-.9-3.3-.9h-6.5V58.5Zm-38.5 0h7v6.1c0 1.5.3 2.6.9 3.3.6.6 1.4 1 2.3 1 1 0 1.8-.4 2.4-1 .6-.7.9-1.8.9-3.3V52.1h-33.2v12.5c0 1.5.3 2.6.9 3.3.5.6 1.3 1 2.3 1 .9 0 1.7-.4 2.3-1 .6-.7.9-1.8.9-3.3v-6.1h6.9v25.1h-4.3c-1.5 0-2.6.3-3.3.9-.6.6-1 1.3-1 2.3 0 .9.4 1.7 1 2.3.7.6 1.8.9 3.3.9h15c1.6 0 2.7-.3 3.3-.9.7-.6 1-1.3 1-2.3 0-.9-.3-1.7-1-2.3-.6-.6-1.7-.9-3.3-.9h-4.3V58.5ZM99.8 53.8c-1.4-.9-2.9-1.6-4.5-2s-3.3-.6-5.2-.6c-3.1 0-6 .7-8.7 2.3-2.8 1.6-4.9 3.8-6.5 6.7-1.5 2.9-2.3 6-2.3 9.3v4.3c0 3.2.9 6.2 2.6 8.9s3.8 4.6 6.3 5.9c3 1.6 6.4 2.3 10.2 2.3 3.3 0 6.2-.5 8.9-1.6 2-.9 3.7-2 4.9-3.5.9-1 1.3-1.9 1.3-2.8s-.3-1.6-.9-2.3c-.7-.6-1.4-.9-2.3-.9-.5 0-.9 0-1.3.2-.3.2-.9.7-1.5 1.3-1.1 1.1-2.1 1.9-3.1 2.3-1.6.6-3.6.9-6 .9-4 0-7.1-1-9.3-3.1-2.3-2-3.4-4.6-3.4-7.7v-4.1c0-2.6.6-4.8 1.8-6.7 1.3-1.9 2.7-3.3 4.3-4.1s3.4-1.2 5.3-1.2c1.5 0 3.1.2 4.6.8s2.7 1.3 3.6 2.3c.4.4.7 1.1.8 2 .3 1.3.7 2.2 1.2 2.7s1.2.7 2.1.7 1.7-.3 2.3-1c.5-.6.8-1.7.8-3.3v-5.4c0-1.6-.3-2.7-.8-3.3-.6-.7-1.4-1-2.3-1-.6 0-1.1.2-1.6.4-.4.3-.9.7-1.3 1.3ZM58.4 74.3v9.3h-1c-1.5 0-2.6.3-3.3.9-.6.6-1 1.3-1 2.3 0 .9.4 1.7 1 2.3.7.6 1.8.9 3.3.9h7.9c1.5 0 2.6-.3 3.2-.9.7-.6 1-1.3 1-2.3 0-1.2-.5-2.1-1.5-2.7-.5-.4-1.5-.5-3.2-.5V58.5c1.1-.1 2-.4 2.6-1 .5-.6.8-1.3.8-2.2s-.3-1.7-1-2.3c-.6-.6-1.7-.9-3.3-.9h-6.5c-1.5 0-2.6.3-3.3.9-.6.6-1 1.4-1 2.3 0 1 .4 1.7 1 2.3.7.6 1.8.9 3.3.9h1v9.4H44.7v-9.4h1c1.6 0 2.7-.3 3.3-.9.7-.6 1-1.3 1-2.3 0-.9-.3-1.7-1-2.3-.6-.6-1.7-.9-3.3-.9h-6.5c-1.6 0-2.7.3-3.3.9-.7.6-1 1.4-1 2.3s.3 1.6.9 2.2c.5.6 1.4.9 2.5 1v25.1c-1.6 0-2.7.1-3.2.5-1 .6-1.5 1.5-1.5 2.7 0 .9.3 1.7 1 2.3.6.6 1.7.9 3.3.9h7.8c1.6 0 2.7-.3 3.3-.9.7-.6 1-1.3 1-2.3 0-.9-.3-1.7-1-2.3-.6-.6-1.7-.9-3.3-.9h-1v-9.3h13.7Z"
      fill="#000000"
    />
    <path
      d="M164.3 120.2h8.6c2 0 3.5-.4 4.3-1.2.9-.8 1.3-1.8 1.3-3.1 0-1.2-.4-2.3-1.3-3-.8-.8-2.3-1.2-4.3-1.2h-25.7c-2.1 0-3.5.4-4.4 1.1-.9.8-1.3 1.9-1.3 3.1 0 1.3.4 2.3 1.3 3.1.9.8 2.3 1.2 4.4 1.2h8.6v33.3h-8.6c-2.1 0-3.5.4-4.4 1.2-.9.8-1.3 1.8-1.3 3 0 1.3.4 2.3 1.3 3.1.9.8 2.3 1.2 4.4 1.2h25.7c2 0 3.5-.4 4.3-1.2.9-.8 1.3-1.8 1.3-3 0-1.3-.4-2.3-1.3-3.1-.8-.8-2.3-1.2-4.3-1.2h-8.6v-33.3Zm-60.2 16v-16h9.8c3.2 0 5.8.8 7.5 2.2 1.8 1.5 2.6 3.3 2.6 5.3 0 2.3-1 4.3-3.2 6s-5.1 2.5-8.8 2.5h-7.9Zm0 8.5h8c3.5 0 6.2-.4 8.3-1.2s4.2-2 6.2-3.6c2-1.7 3.4-3.3 4.3-5 1.1-2.2 1.7-4.5 1.7-7 0-4.5-1.7-8.4-5.1-11.5s-7.9-4.7-13.7-4.7H94.2c-2 0-3.5.4-4.3 1.1-.9.8-1.3 1.9-1.3 3.1 0 1.3.4 2.3 1.3 3.1.8.8 2.3 1.2 4.3 1.2h1.4v33.3h-1.4c-2 0-3.4.4-4.3 1.2s-1.3 1.8-1.3 3c0 1.3.4 2.3 1.3 3.1.8.8 2.3 1.2 4.3 1.2h18.5c2 0 3.5-.4 4.4-1.2.8-.8 1.3-1.8 1.3-3 0-1.3-.5-2.3-1.3-3.1-.9-.8-2.4-1.2-4.4-1.2h-8.6v-8.8Zm-39.2-4.9H51.1l6.9-16.9 6.9 16.9Zm3.5 8.5 2 5.2h-2.1c-2 0-3.5.4-4.3 1.2-.9.8-1.3 1.8-1.3 3 0 1.3.4 2.3 1.3 3.1.8.8 2.3 1.2 4.3 1.2h11.5c2 0 3.5-.4 4.4-1.2.8-.8 1.2-1.8 1.2-3 0-1.5-.6-2.7-1.9-3.6-.6-.5-1.9-.7-3.9-.7l-16.9-41.8H44.3c-2.1 0-3.5.4-4.4 1.1-.9.8-1.3 1.9-1.3 3.1 0 1.3.4 2.3 1.3 3.1s2.3 1.2 4.4 1.2h5.5l-13.3 33.3c-2.1-.1-3.6.3-4.6 1.1-.9.8-1.3 1.9-1.3 3.1 0 1.3.4 2.3 1.3 3.1.9.8 2.3 1.2 4.4 1.2h11.4c2.1 0 3.5-.4 4.4-1.2.9-.8 1.3-1.8 1.3-3 0-1.3-.4-2.3-1.3-3.1-.9-.8-2.3-1.2-4.4-1.2h-2.1l2.1-5.2h20.7Z"
      fill="#000000"
    />
  </g>
</svg>
