<svg role="img" viewBox="-1 -1 26 26" xmlns="http://www.w3.org/2000/svg"><title>Hume</title><path d="M1.58628 12.5801C0.353552 12.8628 -0.413558 14.0273 -0.11375 15.2754C0.169308 16.5235 1.36854 17.2563 2.58452 16.9735C3.81724 16.6908 4.5676 15.5263 4.28455 14.2782C4.00149 13.0285 2.80226 12.2973 1.58628 12.5801Z" fill="#000000"/><path d="M2.65085 7.87087C3.63401 8.65386 5.0158 8.52001 5.81641 7.5212C6.61533 6.52239 6.43278 5.14213 5.46636 4.35914C4.49994 3.57616 3.09971 3.70999 2.30079 4.7088C1.50186 5.70761 1.68443 7.08788 2.65085 7.87087Z" fill="#000000"/><path d="M8.61584 19.7028C7.46686 19.154 6.15039 19.6192 5.60102 20.7518C5.05165 21.8828 5.50053 23.1978 6.65118 23.7633C7.80017 24.3121 9.11664 23.8469 9.66601 22.7143C10.1986 21.5666 9.7665 20.2516 8.61584 19.7028Z" fill="#000000"/><path d="M15.5459 19.702C14.3969 20.2508 13.9464 21.5825 14.4957 22.7135C15.0451 23.8445 16.3448 24.328 17.5106 23.7625C18.6595 23.2137 19.1101 21.882 18.5607 20.751C18.0114 19.62 16.6966 19.1365 15.5459 19.702Z" fill="#000000"/><path d="M22.5782 12.58C21.3455 12.2973 20.163 13.0301 19.88 14.2781C19.5969 15.5262 20.3473 16.7074 21.58 16.9734C22.8127 17.2562 23.9952 16.5234 24.2783 15.2753C24.5613 14.0272 23.811 12.8627 22.5782 12.58Z" fill="#000000"/><path d="M21.828 7.87212C22.8112 7.08914 22.977 5.70887 22.1781 4.71006C21.3792 3.71125 19.9957 3.57908 19.0125 4.3604C18.0294 5.14338 17.8635 6.52364 18.6625 7.52245C19.4631 8.52126 20.8449 8.65344 21.828 7.87212Z" fill="#000000"/><path d="M12.0811 0C10.7814 0 9.81494 0.998804 9.81494 2.26363C9.81494 3.52845 10.7814 4.52727 12.0811 4.52727C13.3641 4.52727 14.3472 3.52845 14.3472 2.26363C14.3456 0.997131 13.3641 0 12.0811 0Z" fill="#000000"/></svg>
