<svg role="img" viewBox="0 0 512 512" xmlns="http://www.w3.org/2000/svg"><title>Hunter</title><path fill="#FF5722" fill-rule="evenodd" d="M486 258 L483 268 L474 284 L454 305 L450 306 L449 308 L430 316 L377 330 L347 340 L317 354 L296 368 L280 383 L264 405 L251 436 L246 466 L242 466 L194 451 L143 428 L106 404 L86 385 L78 374 L70 355 L69 334 L73 320 L87 290 L95 265 L97 255 L97 239 L94 232 L84 227 L74 228 L50 238 L27 254 L26 248 L33 219 L40 204 L53 185 L71 167 L73 167 L84 157 L111 140 L136 128 L157 115 L179 89 L185 72 L194 56 L204 47 L213 46 L219 49 L227 59 L233 72 L240 98 L243 101 L246 101 L251 96 L268 60 L274 54 L279 52 L288 54 L294 60 L302 74 L331 147 L351 177 L379 203 L405 218 L421 222 L459 224 L475 230 L484 240 L486 246 Z M307 222 L307 218 L304 213 L290 199 L290 197 L274 183 L263 178 L251 178 L244 181 L237 187 L231 197 L231 207 L233 211 L239 216 L251 221 L267 224 L299 224 Z"/></svg>
