<svg xmlns="http://www.w3.org/2000/svg" viewBox="83 148 988 469" fill="none">
  <path d="M553.632 381.22C533.755 410.306 501.28 450.058 462.327 485.3C411.038 531.702 357.602 562.005 313.064 562.005C214.431 562.005 134 481.453 134 381.502C134 281.552 214.431 201 313.064 201C358.2 201 409.518 229.12 459.031 273.365C497.879 308.079 531.147 348.732 553.632 381.22Z" stroke="#0E1117" stroke-width="86"/>
  <path d="M599.187 381.097C637.731 435.284 672.832 479.658 709.665 511.711C750.413 547.171 791.204 565.731 839.441 565.731C937.703 565.731 1018 485.272 1018 385.229C1018 285.185 937.703 204.727 839.441 204.727C792.303 204.727 743.893 227.795 697.924 266.716C659.633 299.136 625.717 340.364 599.187 381.097Z" stroke="#0E1117" stroke-width="86"/>
</svg>