<svg xmlns="http://www.w3.org/2000/svg" viewBox="0 0 163.286 163.286">
  <rect width="163.286" height="163.286" fill="#dd0447"/>
  <g transform="matrix(1.5046,0,0,1.5046,6.463,5.415)" fill="#fff">
    <path d="M98.569 57.02 77.278 54.093 69.022 17.449 69.01 17.389c-.389-1.711-1.714-3.139-3.537-3.572-2.552-.605-5.112.973-5.717 3.525L48.048 66.696 37.007 32.288l-.015-.048c-.437-1.327-1.514-2.415-2.965-2.803-2.286-.612-4.636.746-5.247 3.032L22.842 54.662 1.464 57.02c-.633.07-1.156.57-1.229 1.229-.084.763.466 1.449 1.229 1.534l24.618 2.715c1.702.189 3.342-.871 3.825-2.573l.123-.434 3.177-11.179 11.488 35.134c.433 1.292 1.5 2.371 2.918 2.735 2.224.571 4.491-.769 5.062-2.993l.007-.026 11.338-44.156 4.502 20.453.132.603c.465 2.084 2.459 3.497 4.611 3.201l25.302-3.479c.604-.083 1.104-.558 1.191-1.191.108-.765-.426-1.468-1.189-1.573z"/>
  </g>
</svg>
