<svg role="img" viewBox="0 0 21.073 23.808" fill-rule="evenodd" clip-rule="evenodd" xmlns="http://www.w3.org/2000/svg"><title>Ironclad</title><path fill="#00ca88" d="m20.949 0c.069 0 .124.056.124.124v2.279c0 .069-.055.125-.124.125l-9.149-.001v18.753h9.149c.055 0 .101.036.118.085l.006.04v2.279c0 .055-.035.101-.085.118l-.039.006h-20.825c-.055 0-.101-.036-.118-.085l-.006-.039v-2.279c0-.055.036-.102.085-.118l.039-.007h9.148v-18.753l-9.148.001c-.055 0-.101-.036-.118-.085l-.006-.04v-2.279c0-.068.056-.124.124-.124zm-14.621 5.348c.055 0 .102.035.118.085l.007.039v12.864c0 .054-.036.101-.086.118l-.039.006h-6.204c-.055 0-.101-.035-.118-.085l-.006-.039v-2.279c0-.055.036-.102.085-.118l.039-.006 3.8-.001v-8.057l-3.8.001c-.055 0-.101-.036-.118-.086l-.006-.039v-2.279c0-.055.036-.101.085-.118l.039-.006zm14.621 0c.055 0 .101.035.118.085l.006.039v2.279c0 .055-.035.102-.085.118l-.039.007-3.801-.001v8.057l3.801.001c.055 0 .101.035.118.085l.006.039v2.279c0 .055-.035.101-.085.118l-.039.006h-6.204c-.055 0-.102-.036-.118-.085l-.006-.039v-12.864c0-.055.035-.101.085-.118l.039-.006z"/></svg>
