<svg width="20" height="20" viewBox="0 0 20 20" fill="none" xmlns="http://www.w3.org/2000/svg"><path d="M12.3475 14.9418C11.8156 14.725 11.2674 14.5 9.99916 14.5C8.73091 14.5 8.1786 14.725 7.65085 14.9418C7.49947 15.0032 7.34401 15.0646 7.17627 15.1219C6.74261 15.6414 6.54215 16.3574 6.64442 17.0529C6.7017 17.4497 7.04945 17.7484 7.45447 17.7484C7.49538 17.7484 7.53629 17.7443 7.5813 17.7402C7.9945 17.6788 8.30952 17.5274 8.54681 17.3638C8.71863 17.7688 9.04593 18.2229 9.68005 18.497C9.78233 18.542 9.8887 18.5625 10.0033 18.5625C10.1178 18.5625 10.2242 18.542 10.3265 18.497C10.9606 18.227 11.2879 17.7688 11.4597 17.3638C11.697 17.5274 12.012 17.6747 12.4252 17.7402C12.4661 17.7484 12.507 17.7484 12.552 17.7484C12.9571 17.7484 13.3048 17.4497 13.3621 17.0529C13.4603 16.3574 13.2639 15.6414 12.8302 15.1219C12.6543 15.0646 12.5029 15.0032 12.3475 14.9418Z" fill="#73E5BF"/><path d="M14.0912 15.3191C13.2771 15.3191 12.8066 15.1268 12.3484 14.9427C11.8166 14.7258 11.2684 14.5008 10.0001 14.5008C8.73185 14.5008 8.17955 14.7258 7.65179 14.9427C7.19768 15.1268 6.72719 15.3191 5.90897 15.3191C4.98028 15.3191 4.26433 15.0736 3.77748 14.5867C3.29063 14.0999 3.04517 13.384 3.04517 12.4553C3.04517 10.0374 3.83067 7.27997 5.14801 5.08712C6.55127 2.75107 8.31865 1.40918 10.0001 1.40918C11.6816 1.40918 13.4489 2.75107 14.8522 5.08712C16.1695 7.28406 16.955 10.0374 16.955 12.4553C16.955 13.384 16.7096 14.0999 16.2227 14.5867C15.7359 15.0736 15.0199 15.3191 14.0912 15.3191Z" fill="#FF4070"/><path d="M8.1581 9.18209C7.95355 9.18209 7.54443 9.18209 7.54443 10.2049C7.54443 11.2277 7.95355 11.2277 8.1581 11.2277C8.36266 11.2277 8.77178 11.2277 8.77178 10.2049C8.77178 9.18209 8.36266 9.18209 8.1581 9.18209Z" fill="#1E2624"/><path d="M11.8401 9.18209C11.6356 9.18209 11.2265 9.18209 11.2265 10.2049C11.2265 11.2277 11.6356 11.2277 11.8401 11.2277C12.0447 11.2277 12.4538 11.2277 12.4538 10.2049C12.4538 9.18209 12.0447 9.18209 11.8401 9.18209Z" fill="#1E2624"/><path d="M9.99912 5.90918C9.79456 5.90918 9.38545 5.90918 9.38545 6.93197C9.38545 7.95475 9.79456 7.95475 9.99912 7.95475C10.2037 7.95475 10.6128 7.95475 10.6128 6.93197C10.6128 5.90918 10.2037 5.90918 9.99912 5.90918Z" fill="#1E2624"/><path d="M16.7703 8.49046C16.398 7.21 15.854 5.95818 15.2035 4.87409C14.5285 3.74909 13.739 2.80818 12.9167 2.14955C11.9594 1.38864 10.9776 1 9.99987 1C9.02214 1 8.04032 1.38864 7.08714 2.14955C6.26487 2.80818 5.47532 3.74909 4.80032 4.87409C4.14987 5.95818 3.60578 7.21 3.2335 8.49046C2.84078 9.82818 2.63623 11.1986 2.63623 12.4545C2.63623 13.4936 2.92259 14.3077 3.49123 14.8723C4.05578 15.4409 4.86987 15.7273 5.90896 15.7273C6.08078 15.7273 6.23623 15.7191 6.3835 15.7068C6.22396 16.1486 6.17078 16.6355 6.24032 17.11C6.32623 17.7073 6.84987 18.1573 7.45532 18.1573C7.51668 18.1573 7.58214 18.1532 7.6435 18.1409C7.92577 18.0959 8.17532 18.0182 8.38396 17.9241C8.65396 18.3414 9.0385 18.6645 9.51714 18.8691C9.67259 18.9345 9.83214 18.9673 9.99987 18.9673C10.1676 18.9673 10.3312 18.9345 10.4826 18.8691C10.9612 18.6645 11.3458 18.3414 11.6158 17.9241C11.8285 18.0182 12.074 18.0959 12.3562 18.1409C12.4176 18.1491 12.483 18.1532 12.5444 18.1532C13.1499 18.1532 13.6735 17.7032 13.7594 17.1059C13.829 16.6314 13.7758 16.1445 13.6162 15.7027C13.7635 15.715 13.919 15.7232 14.0908 15.7232C15.1299 15.7232 15.944 15.4368 16.5085 14.8682C17.0771 14.3077 17.3635 13.4936 17.3635 12.4545C17.3635 11.1986 17.159 9.82818 16.7703 8.49046ZM12.9494 16.9914C12.9208 17.1959 12.7449 17.3391 12.5444 17.3391C12.524 17.3391 12.5035 17.3391 12.483 17.335C11.5503 17.1918 11.2271 16.5455 11.2271 16.5455C11.2271 16.5455 11.2271 17.6623 10.1594 18.1205C10.1062 18.1409 10.053 18.1532 9.99987 18.1532C9.94668 18.1532 9.88941 18.1409 9.84032 18.1205C8.77259 17.6623 8.77259 16.5455 8.77259 16.5455C8.77259 16.5455 8.44941 17.1918 7.51668 17.335C7.49623 17.3391 7.47577 17.3391 7.45532 17.3391C7.25487 17.3391 7.07896 17.1959 7.05032 16.9914C6.9685 16.4105 7.13623 15.8582 7.42259 15.4655C7.55759 15.4164 7.68441 15.3673 7.80305 15.3182C8.3185 15.1055 8.80941 14.9091 9.99987 14.9091C11.1903 14.9091 11.6771 15.1095 12.1967 15.3182C12.3194 15.3673 12.4421 15.4205 12.5771 15.4655C12.8635 15.8582 13.0353 16.4105 12.9494 16.9914ZM14.0908 14.9091C12.4544 14.9091 12.4544 14.0909 9.99987 14.0909C7.54532 14.0909 7.54532 14.9091 5.90896 14.9091C4.27259 14.9091 3.45441 14.0909 3.45441 12.4545C3.45441 7.54545 6.72714 1.81818 9.99987 1.81818C13.2726 1.81818 16.5453 7.54545 16.5453 12.4545C16.5453 14.0909 15.7271 14.9091 14.0908 14.9091Z" fill="#1E2624"/></svg>
