<svg width="28" height="28" viewBox="0 0 28 28" fill="none" xmlns="http://www.w3.org/2000/svg">
<path fill-rule="evenodd" clip-rule="evenodd" d="M25.487 0C26.082 0 26.6527 0.236368 27.0734 0.657106C27.4942 1.07784 27.7305 1.64849 27.7305 2.2435C27.7305 2.83851 27.4942 3.40916 27.0734 3.82989C26.6527 4.25063 26.082 4.487 25.487 4.487H23.5084C23.4736 4.48715 23.4392 4.48045 23.4071 4.46727C23.375 4.45408 23.3458 4.43469 23.3212 4.41019C23.2966 4.38569 23.277 4.35657 23.2637 4.3245C23.2504 4.29244 23.2435 4.25806 23.2435 4.22333V2.2435C23.2435 1.0045 24.248 0 25.487 0Z" fill="black"/>
<path fill-rule="evenodd" clip-rule="evenodd" d="M12.9092 13.0655L21.3757 4.66547C21.5355 4.5068 21.4457 4.18713 21.2403 4.18713H16.6833C16.6578 4.18742 16.6325 4.19284 16.6091 4.20306C16.5856 4.21328 16.5645 4.2281 16.5468 4.24663L7.4235 13.2953C7.28117 13.4353 7.07117 13.3105 7.07117 13.0865V4.45663C7.07117 4.30847 6.97433 4.1883 6.85533 4.1883H3.717C3.59683 4.1883 3.5 4.30847 3.5 4.45663V23.065C3.5 23.2143 3.59683 23.3333 3.717 23.3333H6.85533C6.9755 23.3333 7.07233 23.2143 7.07233 23.065V19.2733C7.07233 19.1928 7.1015 19.1158 7.15283 19.0656L9.98083 16.2586C10.0109 16.2262 10.0515 16.2057 10.0954 16.2008C10.1393 16.1959 10.1835 16.2069 10.22 16.2318L17.7847 21.7991C18.9861 22.6176 20.3688 23.1314 21.8132 23.296C21.9392 23.31 22.0465 23.1851 22.0465 23.0276V19.4576C22.0465 19.3211 21.9648 19.2103 21.8552 19.1928C21.0075 19.0558 20.2002 18.7344 19.4903 18.2513L12.9418 13.51C12.8053 13.419 12.7878 13.1845 12.9092 13.0655Z" fill="black"/>
</svg>
