<svg xmlns="http://www.w3.org/2000/svg" viewBox="0 0 26 28" fill="none">
  <path
    d="M25.5006 27.9949H20.2462C19.2734 27.9948 18.3152 27.759 17.4534 27.3077C16.5916 26.8563 15.8521 26.2029 15.298 25.4033L11.9992 20.6378L9.41945 16.9118C9.30209 16.7414 9.13326 16.6131 8.93769 16.5457C8.74211 16.4783 8.53008 16.4752 8.33265 16.5371C8.13523 16.5989 7.96279 16.7223 7.84062 16.8893C7.71845 17.0562 7.65296 17.2579 7.65375 17.4648V26.4452C7.65375 26.8562 7.49047 27.2504 7.19984 27.541C6.90921 27.8316 6.51503 27.9949 6.10402 27.9949H1.54974C1.13892 27.9943 0.745099 27.8308 0.454603 27.5403C0.164108 27.2498 0.00062769 26.856 0 26.4452V19.7597C0 18.9694 0.155676 18.1867 0.458138 17.4565C0.760599 16.7263 1.20393 16.0628 1.7628 15.5039C2.32168 14.9451 2.98516 14.5017 3.71537 14.1993C4.44557 13.8968 5.2282 13.7411 6.01857 13.7411H7.2052C7.28172 13.741 7.35708 13.7224 7.42485 13.6869C7.49262 13.6513 7.5508 13.5999 7.59441 13.537L11.9897 7.19808L15.177 2.59397C15.7301 1.79322 16.4694 1.13879 17.3313 0.686947C18.1932 0.235102 19.152 -0.000636831 20.1252 1.29206e-06H25.3748C25.4613 9.14672e-06 25.546 0.0236023 25.62 0.0682411C25.694 0.11288 25.7544 0.176873 25.7947 0.253311C25.835 0.329749 25.8536 0.415735 25.8487 0.502C25.8437 0.588266 25.8152 0.671536 25.7664 0.742831L18.0747 11.852C17.654 12.4584 17.4285 13.1788 17.4285 13.9168C17.4285 14.6548 17.654 15.3752 18.0747 15.9815L25.9017 27.2497C25.9517 27.3217 25.9807 27.4061 25.9857 27.4936C25.9906 27.5811 25.9713 27.6682 25.9298 27.7453C25.8882 27.8225 25.8262 27.8867 25.7504 27.9307C25.6747 27.9748 25.5882 27.997 25.5006 27.9949Z"
    fill="#0E0142"
  />
</svg>
