<svg xmlns="http://www.w3.org/2000/svg" viewBox="0 0 100 100" fill="none">
  <!-- LangSmith brand icon: interlocking chain links in brand orange #F96F28 -->
  <rect width="100" height="100" rx="18" fill="#F96F28"/>
  <!-- Left chain link -->
  <path d="M35 28 C20 28 12 36 12 48 C12 60 20 68 35 68 L42 68 L42 58 L35 58 C26 58 22 54 22 48 C22 42 26 38 35 38 L42 38 L42 28 Z" fill="white"/>
  <!-- Right chain link -->
  <path d="M65 32 C80 32 88 40 88 52 C88 64 80 72 65 72 L58 72 L58 62 L65 62 C74 62 78 58 78 52 C78 46 74 42 65 42 L58 42 L58 32 Z" fill="white"/>
  <!-- Connecting bar top -->
  <rect x="38" y="28" width="24" height="10" rx="2" fill="white"/>
  <!-- Connecting bar bottom -->
  <rect x="38" y="62" width="24" height="10" rx="2" fill="white"/>
  <!-- Center overlap fill -->
  <rect x="38" y="38" width="24" height="24" fill="#F96F28"/>
  <!-- Center chain link rings -->
  <rect x="38" y="38" width="10" height="24" fill="white"/>
  <rect x="52" y="38" width="10" height="24" fill="white"/>
</svg>
