<svg width="24" height="24" viewBox="0 0 24 24" fill="none" xmlns="http://www.w3.org/2000/svg">
<path d="M12.4709 12.0234L12.531 11.9658C12.571 11.9273 12.6108 11.8885 12.6503 11.8494L12.7309 11.7697L12.9759 11.5277L13.3083 11.1993L13.5939 10.9171L13.8621 10.652L14.142 10.3755L14.3987 10.1218L14.7561 9.76864C14.8241 9.70199 14.8933 9.63652 14.9636 9.57223C15.0933 9.45368 15.2266 9.33947 15.3639 9.22942C15.4896 9.12851 15.6184 9.03148 15.7501 8.93807C15.9347 8.80731 16.1247 8.68424 16.3204 8.56886C16.5118 8.4561 16.708 8.35111 16.9091 8.2539C17.0979 8.16266 17.2907 8.07875 17.4874 8.00198C17.597 7.95929 17.7078 7.91896 17.8196 7.88089C17.8756 7.8619 17.9318 7.84346 17.9884 7.82564C17.4924 5.87351 16.5837 4.0504 15.3236 2.47912C15.2031 2.32935 15.0506 2.20855 14.8772 2.12564C14.7038 2.04274 14.5141 1.99984 14.3218 2.00012L4.02809 2C3.98745 1.99997 3.94784 2.0128 3.91494 2.03666C3.88204 2.06051 3.85754 2.09418 3.84493 2.13281C3.83233 2.17145 3.83229 2.21308 3.84479 2.25175C3.8573 2.29041 3.88173 2.32413 3.91458 2.34806C7.42852 4.92351 10.3401 8.23247 12.4476 12.0456L12.4709 12.0234Z" fill="#00D6B9"/>
<path d="M23.9999 8.28117C22.2063 7.40241 20.1519 7.21477 18.2287 7.75408C18.1481 7.77677 18.0678 7.80065 17.9882 7.82578C17.9317 7.8436 17.8754 7.86205 17.8194 7.88113C17.7075 7.91911 17.5968 7.95944 17.4872 8.00221C17.2906 8.0788 17.0978 8.1628 16.9089 8.25405C16.7079 8.35116 16.5117 8.45615 16.3203 8.56909C16.1248 8.68429 15.9347 8.80736 15.7499 8.9383C15.6182 9.03162 15.4895 9.12865 15.3637 9.22957C15.2266 9.33952 15.0931 9.45382 14.9634 9.57246C14.8931 9.63667 14.824 9.70213 14.756 9.76887L14.3985 10.1221L14.1418 10.3757L13.8619 10.6522L13.5937 10.9173L13.3081 11.1995L12.9757 11.5279L12.7308 11.7699L12.65 11.8497C12.6105 11.8886 12.5708 11.9274 12.5308 11.966L12.4707 12.0237C12.4406 12.0524 12.4103 12.081 12.3799 12.1095C12.3464 12.1408 12.3127 12.1721 12.2787 12.2033C11.3936 13.0165 10.4087 13.714 9.34766 14.2788C9.41095 14.3086 9.47452 14.3383 9.53809 14.3678C9.58846 14.3911 9.63883 14.4143 9.68929 14.4373C9.73803 14.4595 9.78686 14.4816 9.83578 14.5037C9.88388 14.5253 9.93217 14.5468 9.98046 14.5683C10.0332 14.5917 10.0861 14.6149 10.139 14.6381C10.2 14.6646 10.2611 14.6911 10.3223 14.7174C10.3809 14.7425 10.4396 14.7675 10.4983 14.7922C10.5744 14.8243 10.6507 14.856 10.7271 14.8875C10.7885 14.9128 10.85 14.9378 10.9116 14.9628C11.0063 15.001 11.1012 15.0388 11.1964 15.0762C11.2862 15.1114 11.3762 15.1463 11.4665 15.1807C11.5339 15.2065 11.6014 15.232 11.6692 15.2572C11.7855 15.3007 11.9022 15.3435 12.0193 15.3856C12.0784 15.4069 12.1376 15.428 12.1969 15.4489C12.2796 15.4781 12.3627 15.5071 12.4458 15.5356C12.5142 15.5591 12.5827 15.5823 12.6513 15.6054C12.7515 15.639 12.852 15.6721 12.9529 15.7048C13.0587 15.7391 13.1648 15.7729 13.2713 15.8062C13.4012 15.8468 13.5315 15.8866 13.6624 15.9256C13.7496 15.9516 13.8371 15.9773 13.925 16.0026C14.1007 16.0534 14.2773 16.1028 14.4548 16.1507C14.5185 16.1679 14.5822 16.1841 14.6458 16.1993C14.7668 16.2281 14.8875 16.2533 15.0078 16.2746C15.1463 16.2993 15.2842 16.3191 15.4216 16.3341C15.6089 16.3546 15.7948 16.3663 15.9793 16.3692C16.1476 16.3718 16.3146 16.3673 16.4799 16.3556C16.6375 16.3445 16.7935 16.327 16.9477 16.303C17.1602 16.2701 17.3707 16.2249 17.5779 16.1674C17.7168 16.1289 17.8535 16.0851 17.9883 16.036C18.1129 15.9905 18.2355 15.9406 18.3561 15.8862C18.4951 15.8236 18.6312 15.7551 18.7645 15.6808C18.83 15.6442 18.8947 15.6064 18.9587 15.5671C19.0202 15.5293 19.081 15.4903 19.1409 15.4501C19.2357 15.3865 19.3286 15.3199 19.4194 15.2501C19.4971 15.1906 19.5734 15.1287 19.648 15.0647C19.7824 14.9496 19.9116 14.8274 20.0359 14.6982C20.0968 14.6346 20.1565 14.5695 20.2149 14.5026C20.2888 14.4181 20.3605 14.3308 20.4301 14.241C20.4854 14.1693 20.5394 14.096 20.5918 14.0212C20.7399 13.8094 20.8741 13.5883 20.9937 13.3592L21.1314 13.0844L22.3758 10.6037L22.3738 10.6088C22.77 9.74066 23.3211 8.95187 23.9999 8.28117Z" fill="#133C9A"/>
<path d="M8.38853 21.0849C10.9101 21.0858 13.386 20.4122 15.5596 19.134C17.7332 17.8558 19.5255 16.0195 20.7504 13.8156C20.8352 13.6633 20.9173 13.5094 20.9966 13.3537C20.8763 13.5847 20.7411 13.8075 20.5919 14.0209C20.5394 14.0959 20.4854 14.1691 20.43 14.2408C20.3605 14.3306 20.2888 14.4178 20.2149 14.5025C20.1565 14.5693 20.0969 14.6345 20.0358 14.698C19.9118 14.8272 19.7824 14.9493 19.648 15.0645C19.5733 15.1286 19.4971 15.1903 19.4195 15.2499C19.3285 15.3196 19.2357 15.3863 19.141 15.4499C19.0809 15.4901 19.0201 15.5292 18.9587 15.5669C18.8947 15.6061 18.83 15.6441 18.7644 15.6806C18.6312 15.7549 18.4951 15.8233 18.3561 15.886C18.2355 15.9404 18.1129 15.9903 17.9883 16.0357C17.8536 16.0849 17.7168 16.1287 17.5779 16.1672C17.3707 16.2246 17.1603 16.2699 16.9478 16.3028C16.7935 16.3267 16.6376 16.3443 16.4798 16.3554C16.3146 16.367 16.1478 16.3716 15.9793 16.3689C15.7949 16.3661 15.609 16.3544 15.4215 16.334C15.2843 16.3189 15.1463 16.299 15.0077 16.2745C14.8875 16.253 14.7668 16.2279 14.6458 16.199C14.5822 16.1839 14.5184 16.1677 14.4547 16.1505C14.2773 16.1025 14.1007 16.0532 13.9249 16.0024C13.8372 15.9771 13.7496 15.9514 13.6623 15.9253C13.5314 15.8863 13.4011 15.8466 13.2713 15.806C13.1648 15.7727 13.0587 15.7389 12.9528 15.7046C12.852 15.6719 12.7515 15.6388 12.6512 15.6051C12.5826 15.5821 12.5141 15.5589 12.4458 15.5354C12.3626 15.5068 12.2796 15.478 12.1968 15.4488C12.1375 15.4278 12.0784 15.4067 12.0192 15.3855C11.9021 15.3433 11.7854 15.3005 11.6691 15.2571C11.6014 15.2317 11.5338 15.2062 11.4665 15.1806C11.3762 15.1461 11.2862 15.1112 11.1964 15.076C11.1011 15.0386 11.0062 15.0008 10.9115 14.9625C10.8499 14.9377 10.7884 14.9126 10.727 14.8873C10.6506 14.8558 10.5743 14.8241 10.4983 14.792C10.4394 14.7672 10.3808 14.7423 10.3222 14.7172C10.261 14.6909 10.2 14.6645 10.1389 14.6378C10.086 14.6148 10.0331 14.5914 9.9804 14.5681C9.93211 14.5467 9.88382 14.5252 9.83571 14.5034C9.78679 14.4815 9.73796 14.4593 9.68922 14.4371C9.63867 14.414 9.58831 14.3909 9.53803 14.3676C9.47437 14.3381 9.41089 14.3085 9.3475 14.2786C9.28104 14.2472 9.21476 14.2156 9.14856 14.1839C9.07758 14.1498 9.00677 14.1154 8.93615 14.0808C8.87593 14.0512 8.81588 14.0215 8.75584 13.9916C5.59717 12.4157 2.74488 10.289 0.332977 7.71152C0.306555 7.6833 0.272274 7.66377 0.234575 7.65527C0.196886 7.64686 0.157523 7.64994 0.121606 7.66413C0.0856974 7.67842 0.0548979 7.70311 0.0332046 7.73503C0.0115203 7.76704 -5.4066e-05 7.80475 1.89876e-07 7.84345L0.00511816 16.9271V17.664C0.00452135 17.8749 0.0560284 18.0826 0.155063 18.2687C0.254099 18.4549 0.397596 18.6137 0.572797 18.731C2.88834 20.2702 5.60805 21.0894 8.38853 21.0849Z" fill="#3370FF"/>
</svg>
