<svg width="55" height="55" viewBox="0 0 55 55" fill="none" xmlns="http://www.w3.org/2000/svg">
<g clip-path="url(#clip0_10_172)">
<path d="M42.6 55H12.4C5.6 55 0 49.4 0 42.6V12.4C0 5.6 5.6 0 12.4 0H42.6C49.4 0 55 5.6 55 12.4V42.6C55 49.4 49.4 55 42.6 55Z" fill="#06C755"/>
<path d="M45.7999 24.9C45.7999 16.7 37.6 10 27.5 10C17.4 10 9.19995 16.7 9.19995 24.9C9.19995 32.3 15.7 38.4 24.5 39.6C25.1 39.7 25.9 40 26.1 40.5C26.3 41 26.2 41.7 26.2 42.2C26.2 42.2 26 43.5 25.9 43.8C25.8 44.3 25.5 45.6 27.5 44.8C29.5 44 38.1 38.6 41.9 34.2C44.6 31.2 45.7999 28.2 45.7999 24.9Z" fill="white"/>
<path d="M39.7 29.6H34.5999C34.3999 29.6 34.2 29.4001 34.2 29.2001V21.2001C34.2 21.0001 34.3999 20.8 34.5999 20.8H39.7C39.9 20.8 40.0999 21.0001 40.0999 21.2001V22.5C40.0999 22.7 39.9 22.9 39.7 22.9H36.2V24.3H39.7C39.9 24.3 40.0999 24.5001 40.0999 24.7001V26C40.0999 26.2 39.9 26.4 39.7 26.4H36.2V27.8H39.7C39.9 27.8 40.0999 28.0001 40.0999 28.2001V29.5C40.0999 29.5 39.9 29.6 39.7 29.6Z" fill="#06C755"/>
<path d="M20.6999 29.6C20.8999 29.6 21.0999 29.4001 21.0999 29.2001V28C21.0999 27.8 20.8999 27.6 20.6999 27.6H17.1999V21.2001C17.1999 21.0001 16.9999 20.8 16.7999 20.8H15.4999C15.2999 20.8 15.0999 21.0001 15.0999 21.2001V29.2001C15.0999 29.4001 15.2999 29.6 15.4999 29.6H20.6999Z" fill="#06C755"/>
<path d="M23.7999 20.9001H22.4999C22.2999 20.9001 22.0999 21.1001 22.0999 21.3001V29.3001C22.0999 29.5001 22.2999 29.7001 22.4999 29.7001H23.7999C23.9999 29.7001 24.1999 29.5001 24.1999 29.3001V21.3001C24.0999 21.1001 23.9999 20.9001 23.7999 20.9001Z" fill="#06C755"/>
<path d="M32.5998 20.9001H31.2998C31.0998 20.9001 30.8998 21.1001 30.8998 21.3001V26.0001L27.1998 21.1001H25.8998C25.6998 21.1001 25.4998 21.3001 25.4998 21.5001V29.5001C25.4998 29.7001 25.6998 29.9001 25.8998 29.9001H26.9998C27.1998 29.9001 27.3998 29.7001 27.3998 29.5001V24.7001L31.0998 29.7001L31.1998 29.8001H31.2998H32.5998C32.7998 29.8001 32.9998 29.6001 32.9998 29.4001V21.4001C32.9998 21.1001 32.7998 20.9001 32.5998 20.9001Z" fill="#06C755"/>
</g>
<defs>
<clipPath id="clip0_10_172">
<rect width="55" height="55" fill="white"/>
</clipPath>
</defs>
</svg>
