<svg xmlns="http://www.w3.org/2000/svg" viewBox="0 0 32 32"><rect width="32" height="32" fill="#FFE01B" rx="5.12"/><path fill="#241C15" d="M15.267 4C12.275 3.99 6.518 10.862 8.666 14.68l.527.446a2.59 2.59 0 0 0-.147 1.195c.056.56.345 1.096.813 1.51.444.394 1.028.643 1.595.643.937 2.16 3.08 3.486 5.59 3.56 2.694.08 4.956-1.184 5.903-3.455.062-.16.325-.877.325-1.511 0-.638-.36-.902-.59-.902-.007-.025-.052-.19-.115-.39-.062-.2-.127-.34-.127-.34.25-.376.255-.71.222-.9-.035-.236-.133-.436-.331-.643-.197-.207-.601-.42-1.169-.579l-.297-.083c-.001-.013-.016-.702-.029-.998-.01-.213-.028-.548-.131-.877-.124-.445-.339-.835-.608-1.084.742-.768 1.204-1.615 1.203-2.341-.002-1.397-1.717-1.82-3.83-.944l-.449.19s-.558-.552-.779-.773A1.082 1.082 0 0 0 15.267 4zm.049.582c.11 0 .215.013.31.039.198.056.853.816.853.816s-1.217.675-2.347 1.617c-1.52 1.172-2.67 2.874-3.358 4.722-.54.105-1.017.412-1.308.835-.174-.145-.499-.427-.556-.536-.466-.884.507-2.601 1.187-3.571C11.722 6.293 14.082 4.575 15.393 4.582zm2.19 2.182c.028-.001.04.033.02.05-.096.073-.2.173-.276.275a.027.027 0 0 0 .021.043c.44.003 1.058.157 1.461.383.028.015.008.069-.023.061-.61-.14-1.61-.246-2.647.007-.927.227-1.634.575-2.15.951a.03.03 0 0 1-.036-.04c.597-.69 1.332-1.29 1.991-1.627.023-.012.047.013.035.035-.053.095-.154.298-.186.452-.005.024.022.042.042.028.41-.28 1.123-.579 1.748-.618zm2.016 2.137h.037a.597.597 0 0 1 .304.097c.356.237.407.811.425 1.23.01.24.04.82.05.985.023.381.122.434.324.501.114.038.22.065.376.11.47.131.75.266.926.438.105.108.154.222.169.331.055.406-.315.907-1.295 1.361-1.071.497-2.371.623-3.269.523l-.314-.035c-.719-.097-1.129.831-.698 1.467.278.41 1.035.677 1.792.677 1.736 0 3.07-.741 3.567-1.381.014-.018.027-.037.04-.057.024-.037.004-.057-.027-.036-.405.278-2.206 1.38-4.133 1.047 0 0-.234-.038-.448-.121-.17-.067-.525-.23-.569-.594 1.555.48 2.534.026 2.534.026a.048.048 0 0 0 .028-.048.045.045 0 0 0-.05-.04s-1.274.189-2.478-.252c.131-.427.48-.272 1.006-.23a7.363 7.363 0 0 0 2.432-.263c.545-.156 1.261-.465 1.818-.904.187.412.253.866.253.866s.146-.027.267.049c.115.07.199.217.142.597-.117.708-.419 1.284-.925 1.813a3.81 3.81 0 0 1-1.11.83c-.228.12-.47.222-.725.306-1.909.624-3.863-.062-4.493-1.533a2.363 2.363 0 0 1-.126-.348c-.269-.97-.04-2.133.672-2.866.044-.047.088-.102.088-.17 0-.059-.036-.12-.068-.163-.25-.362-1.113-.977-.94-2.17.125-.855.874-1.459 1.572-1.423.059.003.118.007.177.01.302.018.567.057.815.067.417.019.792-.043 1.236-.412.15-.125.27-.234.473-.268.019-.003.061-.019.143-.019zm.015 1.453a.28.28 0 0 0-.04.003c-.224.036-.231.312-.152.694.045.213.125.397.213.51.117-.014.229-.015.332 0 .06-.137.07-.372.016-.629-.075-.356-.174-.581-.37-.578zm-2.44 1.03c-.239 0-.48.075-.677.219-.107.078-.208.186-.194.251.005.022.021.038.059.042.087.01.394-.144.748-.166.249-.016.456.063.615.133.16.07.258.116.296.076.024-.026.017-.074-.021-.136-.079-.128-.24-.259-.412-.332a1.068 1.068 0 0 0-.414-.086zm2.72.54c-.113-.002-.208.124-.21.28-.004.157.087.286.202.288.115.002.21-.124.212-.28.003-.157-.088-.286-.203-.288zm-2.387.115a.5.5 0 0 0-.103.005c-.207.033-.322.101-.395.165-.063.055-.101.115-.101.158a.05.05 0 0 0 .05.05c.047 0 .152-.041.152-.041a1.32 1.32 0 0 1 .668-.07c.104.013.153.019.176-.017a.068.068 0 0 0-.006-.066c-.042-.069-.207-.18-.44-.184zm1.507.267c-.085 0-.157.034-.189.099-.05.103.023.242.164.31.14.07.296.042.347-.06.05-.103-.024-.242-.164-.31a.362.362 0 0 0-.158-.04zM9.866 12.913l.1.002c.486.027 1.203.4 1.368 1.46.144.94-.086 1.896-.966 2.046-.082.013-.165.02-.25.017-.813-.022-1.692-.755-1.78-1.623-.096-.96.394-1.699 1.263-1.874a1.71 1.71 0 0 1 .265-.028zm-.047.618a.763.763 0 0 0-.565.243c-.253.279-.293.659-.244.793.018.049.046.063.067.066.042.005.106-.026.146-.134.004-.011.008-.023.012-.034.024-.08.059-.179.104-.247a.46.46 0 0 1 .637-.133c.177.116.246.334.17.54-.039.108-.103.313-.089.481.029.34.238.478.427.492.183.007.311-.096.344-.171.019-.045.003-.071-.008-.083-.029-.036-.075-.025-.12-.014a.425.425 0 0 1-.107.015.231.231 0 0 1-.196-.099c-.052-.08-.049-.2.009-.336l.026-.061c.092-.206.246-.55.074-.878-.13-.247-.342-.401-.596-.434a.758.758 0 0 0-.092-.006z"/></svg>
