<svg width="47" height="47" viewBox="0 0 47 47" fill="none" xmlns="http://www.w3.org/2000/svg">
<g clip-path="url(#clip0_60_2)">
<path d="M23.1 0C10.4 0 0 10.3 0 23V23.1C0 35.9 10.4 46.2 23.1 46.2C35.9 46.2 46.2 35.8 46.2 23.1C46.3 10.4 35.9 0 23.1 0ZM17.3 2.2C19 1.7 20.9 1.4 22.8 1.4C22.9 1.4 23 1.4 23.1 1.4C23.2 1.4 23.3 1.4 23.4 1.4C26.4 1.5 28.9 3.4 30 6C30.2 6.6 30.4 7.1 30.5 7.7C30.6 8 30.6 8.4 30.6 8.8C30.6 10.5 30 12 29.1 13.3C28.1 12.7 27 12.3 25.9 12C26.8 11.2 27.3 10.1 27.3 8.9C27.3 8 27 7.2 26.5 6.5C25.7 5.5 24.5 4.8 23.1 4.8C20.7 4.8 18.4 5.3 16.2 6.1C15.6 6.3 15 6.6 14.5 6.9C11.2 8.6 8.5 11.3 6.8 14.6C5 15 3.4 16 2.2 17.4C4.3 10 10 4.2 17.3 2.2ZM32 8.5C34.4 9.9 36.4 11.9 37.8 14.3C37.7 14.3 37.6 14.3 37.5 14.3C35.5 14.3 33.7 14.9 32.3 16C31.7 15.3 31.1 14.6 30.3 14C31.4 12.5 32 10.7 32 8.8C32 8.7 32 8.6 32 8.5ZM39.9 19.7C39.2 19.2 38.4 18.9 37.5 18.9C36.2 18.9 35.1 19.4 34.4 20.3C33.7 21 33.4 22 33.4 23.1C33.4 24.9 32.9 26.6 32.1 28.1C31.9 28.5 31.6 28.9 31.3 29.3C30.8 30 30.1 30.6 29.5 31.1C28.7 30.3 27.7 29.6 26.5 29.2C27.7 28.6 28.7 27.6 29.4 26.3C29.9 25.4 30.2 24.2 30.2 23.1C30.2 21.2 30.9 19.4 32.1 18.1C32.4 17.8 32.8 17.4 33.1 17.1C34.4 16.2 35.9 15.6 37.6 15.6C38 15.6 38.4 15.6 38.7 15.7C39.2 17 39.6 18.3 39.9 19.7ZM40.2 23V23.1V23.2C40.1 24.7 38.9 25.9 37.4 25.9C35.9 25.9 34.6 24.6 34.6 23.1C34.6 21.6 35.9 20.3 37.4 20.3C38.9 20.3 40.2 21.5 40.2 23ZM30.3 32.2C31 31.6 31.7 31 32.3 30.2C33.8 31.3 35.6 31.9 37.5 31.9C37.6 31.9 37.7 31.9 37.8 31.9C36.4 34.3 34.4 36.3 32 37.7C32 37.6 32 37.5 32 37.4C32 35.5 31.3 33.6 30.3 32.2ZM25.9 34.3C25.2 33.6 24.2 33.3 23.1 33.3C21.3 33.3 19.6 32.8 18.1 32C17.7 31.8 17.3 31.5 16.9 31.2C16.2 30.7 15.6 30 15.1 29.4C15.9 28.6 16.6 27.6 17.1 26.4C17.7 27.6 18.7 28.6 20 29.3C20.9 29.8 22.1 30.1 23.2 30.1C25.1 30.1 26.9 30.8 28.2 32C28.5 32.3 28.9 32.7 29.2 33C30.1 34.3 30.7 35.8 30.7 37.5C30.7 37.9 30.7 38.2 30.6 38.6C29.3 39.2 28 39.6 26.6 39.9C27.1 39.2 27.4 38.4 27.4 37.5C27.3 36.2 26.8 35.1 25.9 34.3ZM25.9 37.4C25.9 38.8 24.8 40 23.4 40.2C23.3 40.2 23.2 40.2 23.1 40.2C23 40.2 22.9 40.2 22.8 40.2C21.4 40.1 20.3 38.9 20.3 37.4C20.3 35.9 21.6 34.6 23.1 34.6C24.7 34.7 25.9 35.9 25.9 37.4ZM14.3 37.7C11.9 36.3 9.9 34.2 8.5 31.9C8.6 31.9 8.7 31.9 8.8 31.9C10.8 31.9 12.6 31.3 14 30.2C14.6 30.9 15.3 31.6 16 32.2C14.9 33.7 14.3 35.5 14.3 37.4C14.3 37.6 14.3 37.7 14.3 37.7ZM8.8 27.3C10 27.3 11.1 26.8 11.9 25.9L12 25.8C12.1 25.7 12.1 25.6 12.2 25.5L12.3 25.4C12.3 25.4 12.3 25.3 12.4 25.3C12.4 25.2 12.5 25.2 12.5 25.1C12.5 25.1 12.5 25 12.6 25C12.6 24.9 12.6 24.9 12.7 24.8V24.7V24.6C12.7 24.5 12.7 24.4 12.8 24.4V24.3V24.2V24.1V24C12.8 23.9 12.8 23.9 12.8 23.8V23.7C12.8 23.6 12.8 23.6 12.8 23.5C12.8 21.7 13.3 20 14.1 18.5C14.3 18.1 14.6 17.7 14.9 17.3C15.4 16.6 16 16 16.7 15.5C17.5 16.3 18.5 17 19.7 17.5C18.5 18.1 17.5 19.1 16.8 20.4C16.3 21.3 16 22.4 16 23.6C16 25.5 15.2 27.3 14 28.6C13.7 28.9 13.3 29.3 13 29.5C11.7 30.4 10.2 31 8.6 31C8.2 31 7.8 31 7.4 30.9C6.8 29.6 6.4 28.3 6.1 26.9C7.1 27 7.9 27.3 8.8 27.3ZM6 23.1C6 23 6 23 6 22.9C6.1 21.4 7.3 20.2 8.8 20.2C10.3 20.2 11.6 21.5 11.6 23C11.6 24.5 10.3 25.7 8.8 25.7C7.3 25.9 6.1 24.7 6 23.1ZM16 14.1C15.3 14.7 14.6 15.3 14.1 16C12.6 14.9 10.8 14.3 8.8 14.3C8.7 14.3 8.6 14.3 8.5 14.3C9.9 12 11.9 10 14.3 8.5C14.3 8.6 14.3 8.7 14.3 8.8C14.3 10.8 14.9 12.6 16 14.1ZM20.4 12C21.1 12.7 22.1 13 23.2 13C25 13 26.7 13.5 28.2 14.3C28.6 14.5 29 14.8 29.4 15.1C30.1 15.6 30.7 16.3 31.2 16.9C30.4 17.7 29.7 18.7 29.3 19.9C28.7 18.7 27.7 17.7 26.4 17C25.5 16.5 24.3 16.2 23.2 16.2C21.3 16.2 19.5 15.5 18.2 14.3C17.9 14 17.5 13.6 17.2 13.3C16.3 12 15.7 10.5 15.7 8.8C15.7 8.4 15.7 8 15.8 7.7C17.1 7.1 18.4 6.7 19.8 6.4C19.3 7.1 19 8 19 8.9C18.9 10.1 19.5 11.2 20.4 12ZM20.3 8.8C20.3 7.3 21.5 6.1 23 6H23.1H23.2C24.7 6.1 25.9 7.3 25.9 8.8C25.9 10.3 24.6 11.6 23.1 11.6C21.6 11.6 20.3 10.4 20.3 8.8ZM28.6 23.1C28.6 26.1 26.2 28.6 23.1 28.6C20 28.6 17.6 26.2 17.6 23.1C17.6 20.1 20.1 17.7 23.1 17.7C26.1 17.7 28.6 20.1 28.6 23.1ZM2.2 28.9C1.7 27.2 1.5 25.3 1.4 23.5C1.4 23.4 1.4 23.3 1.4 23.2V23.1C1.4 23 1.4 22.9 1.4 22.8C1.5 19.8 3.4 17.3 6 16.2C6.6 16 7.1 15.8 7.7 15.7C8 15.6 8.4 15.6 8.8 15.6C10.5 15.6 12 16.2 13.3 17.1C12.7 18.1 12.3 19.2 12 20.3C11.2 19.4 10.1 18.9 8.9 18.9C8 18.9 7.2 19.2 6.5 19.7C5.5 20.5 4.8 21.7 4.8 23V23.1C4.8 25.5 5.3 27.8 6.1 29.9C6.3 30.5 6.6 31.1 6.9 31.6C8.6 34.9 11.4 37.7 14.7 39.4C15.1 41.2 16.1 42.8 17.5 44C10 42.1 4.2 36.2 2.2 28.9ZM29 44.1C27.3 44.6 25.4 44.9 23.5 44.9C23.4 44.9 23.3 44.9 23.2 44.9C23.1 44.9 23 44.9 22.9 44.9C19.9 44.8 17.4 42.9 16.3 40.3C16.1 39.7 15.9 39.2 15.8 38.6C15.7 38.3 15.7 37.9 15.7 37.5C15.7 35.8 16.3 34.3 17.2 33C18.2 33.6 19.3 34 20.4 34.3C19.5 35 19 36.2 19 37.4C19 38.3 19.3 39.1 19.8 39.8C20.5 40.8 21.6 41.4 22.8 41.5C22.9 41.5 23 41.5 23.1 41.5C23.2 41.5 23.3 41.5 23.4 41.5C25.7 41.5 27.9 41 29.9 40.2C30.5 40 31.1 39.7 31.6 39.4C34.9 37.7 37.6 34.9 39.4 31.6C41.2 31.2 42.8 30.2 44 28.8C42.1 36.3 36.3 42.1 29 44.1ZM44.9 23.1C44.9 23.2 44.9 23.3 44.9 23.4C44.8 26.4 42.9 28.9 40.3 30C39.7 30.2 39.2 30.4 38.6 30.5C38.3 30.6 37.9 30.6 37.5 30.6C35.8 30.6 34.3 30 33.1 29.1C33.7 28.1 34.1 27 34.4 25.9C35.2 26.8 36.3 27.3 37.5 27.3C38.4 27.3 39.2 27 39.9 26.5C40.9 25.7 41.6 24.5 41.6 23.1C41.6 20.7 41.1 18.4 40.3 16.2C40.1 15.6 39.8 15 39.5 14.5C37.8 11.2 35 8.5 31.7 6.7C31.3 4.9 30.3 3.3 28.9 2.1C36.2 4.1 42 9.9 44 17.2C44.5 18.9 44.8 20.8 44.8 22.7C44.9 22.9 44.9 23 44.9 23.1Z" fill="#1F1F30"/>
</g>
<defs>
<clipPath id="clip0_60_2">
<rect width="46.3" height="46.3" fill="white"/>
</clipPath>
</defs>
</svg>
