<svg xmlns="http://www.w3.org/2000/svg" viewBox="0 0 512 512" fill="none">
  <path d="M115.34 246.35c18.853-29.418 38.123-55.702 56.407-73.63 15.942-15.632 31.387-24.597 45.903-24.597 19.678 0 37.674 16.72 55.143 51.165l7.94 15.649c14.476 28.573 26.088 48.034 37.478 58.908 9.932 9.482 20.623 14.145 33.205 14.145 12.15 0 23.21-5.575 33.08-16.582 11.91-13.283 19.024-32.07 19.024-53.443 0-25.07-8.632-49.363-26.165-69.92-21.655-25.39-53.382-39.842-88.164-39.842-38.313 0-73.79 17.42-105.622 51.8-26.35 28.45-50.88 67.44-72.07 112.1l-.002.005C89.023 316.393 70.91 352.897 54.04 378.45c-19.27 29.175-36.51 43.425-54.04 43.425v-37.07c7.29 0 17.56-8.88 31.403-29.832 14.483-21.904 30.832-53.29 48.818-90.497l.005-.012c10.735-22.198 22.055-43.084 35.114-62.917v4.8zm169.8-66.57c-11.22-21.66-22.4-35.573-34.813-42.673a41.926 41.926 0 0 0-11.2-4.567c19.63-14.21 41.74-22.25 65.11-22.25 45.01 0 82.81 21.2 108.57 56.42 21.79 29.77 33.18 66.93 33.18 105.29 0 30.49-10.72 58.74-30.14 79.43-18.42 19.64-42.91 30.44-69.46 30.44-22.9 0-42.34-7.57-58.52-22.81-13.3-12.52-26.29-31.45-39.53-57.55l-7.96-15.72c-11.78-23.25-22.06-38.47-31.5-46.83 8.97-17.2 18.74-33.14 29.33-47.42 5.51 5.33 10.95 13.07 16.67 23.88l7.95 15.65c16.18 31.93 30.12 52.84 42.92 63.94 10.32 8.95 21.44 13.29 34.04 13.29 16.01 0 29.66-7.3 39.78-21.36 9.43-13.09 14.39-30.22 14.39-49.73 0-28.86-8.88-55.41-25.02-74.25-17.12-20.01-41.35-31.57-68.12-31.57-12.29 0-23.59 3.2-33.87 9.47 2.63 5.9 5.1 11.27 7.08 15.16l7.95 15.65-7.95-15.65-2.33-4.62c-.73-1.44-2.47-5.17-4.73-9.95-1.35-2.86-2.82-5.97-4.35-9.28l-.48-1.01z" fill="#0081FB"/>
</svg>
