<svg width="28" height="28" viewBox="0 0 28 28" fill="none" xmlns="http://www.w3.org/2000/svg">
<path d="M18.991 2.5C20.3397 2.5 21.4328 3.5815 21.4328 4.915V19.4995C21.4422 19.723 21.5379 19.9341 21.6998 20.0883C21.8617 20.2426 22.0772 20.3281 22.3008 20.3267C22.5243 20.3278 22.7394 20.2422 22.9011 20.0879C23.0628 19.9337 23.1583 19.7227 23.1677 19.4995V10.7822C23.1693 10.4666 23.2332 10.1544 23.3555 9.86342C23.4778 9.57248 23.6563 9.30848 23.8806 9.0865C24.105 8.86452 24.3709 8.68891 24.6631 8.56969C24.9554 8.45047 25.2682 8.38998 25.5838 8.39167C25.8995 8.38998 26.2125 8.45051 26.5048 8.5698C26.7971 8.68909 27.063 8.86481 27.2874 9.08691C27.5118 9.30902 27.6902 9.57315 27.8125 9.86423C27.9348 10.1553 27.9985 10.4676 28 10.7833V18.4378C27.9988 18.6384 27.918 18.8304 27.7753 18.9715C27.6327 19.1125 27.4399 19.1913 27.2393 19.1903C27.1399 19.1909 27.0413 19.172 26.9492 19.1345C26.8571 19.097 26.7733 19.0417 26.7026 18.9719C26.6318 18.902 26.5755 18.8189 26.5369 18.7272C26.4983 18.6356 26.4781 18.5373 26.4775 18.4378V10.7833C26.4769 10.6666 26.4533 10.5511 26.408 10.4435C26.3628 10.3359 26.2968 10.2382 26.2138 10.1561C26.1308 10.074 26.0325 10.009 25.9244 9.96488C25.8163 9.92077 25.7006 9.89839 25.5838 9.899C25.4671 9.89839 25.3514 9.92077 25.2433 9.96488C25.1352 10.009 25.0368 10.074 24.9538 10.1561C24.8709 10.2382 24.8049 10.3359 24.7596 10.4435C24.7144 10.5511 24.6908 10.6666 24.6902 10.7833V19.5007C24.6885 19.8128 24.6253 20.1215 24.5044 20.4091C24.3834 20.6968 24.2069 20.9579 23.985 21.1774C23.7632 21.3968 23.5002 21.5705 23.2113 21.6884C22.9223 21.8062 22.6129 21.866 22.3008 21.8643C21.9887 21.866 21.6794 21.8062 21.3904 21.6884C21.1014 21.5705 20.8385 21.3968 20.6166 21.1774C20.3948 20.9579 20.2183 20.6968 20.0973 20.4091C19.9763 20.1215 19.9132 19.8128 19.9115 19.5007V4.91733C19.9018 4.68036 19.8006 4.45638 19.6291 4.29253C19.4577 4.12867 19.2293 4.03773 18.9922 4.03883C18.755 4.03742 18.5265 4.12806 18.3548 4.2917C18.1831 4.45534 18.0816 4.6792 18.0717 4.91617L18.0705 23.4708C18.0668 24.1009 17.813 24.7037 17.365 25.1468C16.9169 25.5898 16.3113 25.8367 15.6812 25.8333C15.3691 25.835 15.0597 25.7752 14.7707 25.6574C14.4818 25.5395 14.2188 25.3658 13.997 25.1464C13.7751 24.9269 13.5986 24.6658 13.4776 24.3781C13.3566 24.0905 13.2935 23.7818 13.2918 23.4697V21.2133C13.2918 20.798 13.6325 20.4608 14.0525 20.4608C14.4725 20.4608 14.8132 20.798 14.8132 21.2133V23.4697C14.8132 23.7765 14.9788 24.06 15.2472 24.214C15.5155 24.3668 15.8468 24.3668 16.1152 24.214C16.2468 24.1394 16.3564 24.0311 16.4326 23.9004C16.5088 23.7696 16.5491 23.621 16.5492 23.4697V4.915C16.5492 3.5815 17.6423 2.5 18.991 2.5ZM12.3713 2.5C13.72 2.5 14.8132 3.5815 14.8132 4.915V18.3585C14.8127 18.4579 14.7927 18.5562 14.7542 18.6478C14.7157 18.7394 14.6595 18.8226 14.5889 18.8925C14.5182 18.9624 14.4345 19.0176 14.3424 19.0551C14.2504 19.0926 14.1519 19.1116 14.0525 19.111C13.9531 19.1116 13.8546 19.0926 13.7626 19.0551C13.6705 19.0176 13.5868 18.9624 13.5161 18.8925C13.4455 18.8226 13.3893 18.7394 13.3508 18.6478C13.3123 18.5562 13.2923 18.4579 13.2918 18.3585V4.915C13.2903 4.67231 13.1925 4.44015 13.0199 4.26953C12.8473 4.0989 12.614 4.00376 12.3713 4.005C12.1286 4.00376 11.8954 4.0989 11.7228 4.26953C11.5502 4.44015 11.4524 4.67231 11.4508 4.915V21.2635C11.4471 21.9005 11.1907 22.51 10.7379 22.958C10.285 23.406 9.67284 23.6559 9.03583 23.6528C8.39863 23.6562 7.78615 23.4065 7.33306 22.9584C6.87997 22.5104 6.62337 21.9007 6.61967 21.2635V10.7833C6.61905 10.6666 6.59545 10.5511 6.55021 10.4435C6.50497 10.3359 6.43897 10.2382 6.35599 10.1561C6.273 10.074 6.17466 10.009 6.06656 9.96488C5.95847 9.92077 5.84275 9.89839 5.726 9.899C5.60925 9.89839 5.49353 9.92077 5.38544 9.96488C5.27734 10.009 5.179 10.074 5.09601 10.1561C5.01303 10.2382 4.94703 10.3359 4.90179 10.4435C4.85654 10.5511 4.83294 10.6666 4.83233 10.7833V15.2167C4.83065 15.5323 4.76682 15.8445 4.64449 16.1354C4.52215 16.4264 4.34371 16.6904 4.11935 16.9123C3.89499 17.1343 3.6291 17.3099 3.33686 17.4291C3.04463 17.5484 2.73178 17.6089 2.41617 17.6072C2.10056 17.6089 1.7877 17.5484 1.49547 17.4291C1.20324 17.3099 0.937347 17.1343 0.712985 16.9123C0.488622 16.6904 0.310179 16.4264 0.187845 16.1354C0.0655106 15.8445 0.0016808 15.5323 0 15.2167L0 13.609C0 13.1925 0.340667 12.8553 0.760667 12.8553C1.18067 12.8553 1.5225 13.1937 1.5225 13.609V15.2167C1.5225 15.7043 1.92267 16.0998 2.41617 16.0998C2.90967 16.0998 3.30983 15.7043 3.30983 15.2167V10.7822C3.31354 10.1452 3.56998 9.53569 4.02282 9.08767C4.47565 8.63965 5.08783 8.38973 5.72483 8.39283C6.36204 8.38942 6.97452 8.6392 7.4276 9.08726C7.88069 9.53531 8.1373 10.145 8.141 10.7822V21.2635C8.141 21.7523 8.54117 22.1478 9.03583 22.1478C9.52933 22.1478 9.9295 21.7523 9.9295 21.2635V4.915C9.9295 3.5815 11.0227 2.5 12.3713 2.5Z" fill="url(#paint0_linear_870_3255)"/>
<defs>
<linearGradient id="paint0_linear_870_3255" x1="0" y1="1170.5" x2="2805.1" y2="1170.5" gradientUnits="userSpaceOnUse">
<stop stop-color="#E2167E"/>
<stop offset="1" stop-color="#FE603C"/>
</linearGradient>
</defs>
</svg>
