<svg role="img" viewBox="0 0 24 24" xmlns="http://www.w3.org/2000/svg">
  <title>Miro</title>
  <path
    d="M0 6C0 2.68629 2.68629 0 6 0H18C21.3137 0 24 2.68629 24 6V18C24 21.3137 21.3137 24 18 24H6C2.68629 24 0 21.3137 0 18V6Z"
    fill="#FFDD33"
  />
  <path
    fill-rule="evenodd"
    clip-rule="evenodd"
    d="M15.9558 4.57495H13.7771L15.5927 7.76487L11.5985 4.57495H9.41982L11.4169 8.47384L7.24116 4.57495H5.0625L7.24116 9.53775L5.0625 19.4625H7.24116L11.4169 8.82878L9.41982 19.4625H11.5985L15.5927 8.11981L13.7771 19.4625H15.9558L19.95 7.0559L15.9558 4.57495Z"
    fill="#1C1C1E"
  />
</svg>
