<svg role="img" viewBox="0 0 500 500" xmlns="http://www.w3.org/2000/svg">
  <title>Moss</title>
  <path
    fill="#222727"
    fill-rule="evenodd"
    d="M 81.533 99.533 L 78 103.067 78.033 239.283 C 78.065 367.761, 78.166 375.619, 79.825 377.603 C 82.150 380.385, 85.294 382, 88.382 382 C 90.280 382, 99.082 374.543, 124.317 351.556 C 143.338 334.229, 158.004 320.118, 158.355 318.806 C 158.695 317.538, 158.979 294.122, 158.986 266.772 L 159 217.043 171.899 188.272 C 178.993 172.447, 190.018 147.888, 196.399 133.697 C 209.093 105.462, 209.822 102.593, 205.354 98.452 L 202.708 96 143.887 96 L 85.067 96 81.533 99.533 M 241.299 97.772 C 238.878 99.673, 210.184 162.362, 209.290 167.704 C 208.849 170.333, 209.300 171.453, 211.800 173.954 L 214.846 177 276 177 L 337.154 177 340.077 179.923 L 343 182.846 343 255.500 L 343 328.154 340.077 331.077 L 337.154 334 259.138 334 L 181.122 334 176.794 337.750 C 162.448 350.182, 119.103 390.290, 118.601 391.598 C 117.301 394.986, 118.102 398.256, 120.923 401.077 L 123.846 404 269.555 404 L 415.264 404 418.632 400.429 L 422 396.858 422 250 422 103.142 418.632 99.571 415.264 96 329.382 96.022 C 249.547 96.043, 243.345 96.166, 241.299 97.772 M 226.497 227.003 L 203.511 250.005 226.753 273.247 249.995 296.489 272.997 273.503 C 285.649 260.860, 296 250.059, 296 249.500 C 296 248.183, 251.801 204, 250.484 204 C 249.934 204, 239.140 214.351, 226.497 227.003"
  />
</svg>
