<svg role="img" viewBox="0 0 100 100" xmlns="http://www.w3.org/2000/svg">
  <title>msg9</title>
  <rect
    x="8"
    y="10"
    width="84"
    height="84"
    rx="20"
    fill="#000000"
    fill-opacity="0.4"
  />
  <rect x="4" y="4" width="92" height="92" rx="20" fill="#111111" />
  <rect
    x="4"
    y="4"
    width="92"
    height="92"
    rx="20"
    fill="none"
    stroke="#FFFFFF"
    stroke-opacity="0.13"
    stroke-width="2"
  />
  <path
    fill="#FFFFFF"
    fill-rule="evenodd"
    transform="scale(0.390625)"
    d="M 120.500 64.698 C 109.043 66.217, 98.634 71.805, 93.222 79.340 C 87.828 86.852, 86.500 91.426, 86.500 102.500 C 86.500 111.200, 86.840 113.226, 89.120 118.086 C 90.561 121.159, 93.388 125.322, 95.403 127.337 C 106.037 137.971, 124.849 140.671, 138.855 133.574 C 141.648 132.158, 144.235 131, 144.603 131 C 145.980 131, 143.947 140.171, 141.498 145.003 C 136.685 154.502, 127.207 158.743, 113.110 157.707 C 108.925 157.400, 102.842 156.215, 99.593 155.074 C 96.345 153.933, 93.515 153, 93.306 153 C 93.096 153, 93.054 157.144, 93.212 162.208 L 93.500 171.417 98 172.725 C 100.475 173.444, 106.686 174.503, 111.801 175.077 C 135.377 177.724, 153.920 169.098, 163.388 151.081 C 168.543 141.272, 170.281 132.864, 170.227 118 C 170.156 98.237, 166.355 86.485, 156.751 76.331 C 148.005 67.083, 134.702 62.814, 120.500 64.698 M 120.071 82.752 C 115.418 85.124, 113.213 88.465, 111.987 95 C 110.082 105.153, 113.239 115.521, 119.170 118.588 C 121.396 119.739, 124.035 120.093, 128.161 119.795 C 138.078 119.077, 141.983 113.479, 141.994 99.962 C 142.004 88.319, 136.219 81.003, 127 81.003 C 125.075 81.003, 121.957 81.790, 120.071 82.752"
  />
</svg>
