<svg xmlns="http://www.w3.org/2000/svg" viewBox="0 0 24 24" fill="currentColor"><path d="M4.459 4.208c.746.606 1.026.56 2.428.466l13.215-.793c.28 0 .047-.28-.046-.326L18.29 2.35c-.467-.373-.98-.653-2.055-.56l-12.8.933c-.467.047-.56.28-.374.466zm.793 3.08v13.904c0 .747.373 1.027 1.214.98l14.523-.84c.841-.046.934-.56.934-1.166V6.354c0-.606-.233-.933-.747-.886l-15.177.886c-.56.047-.747.327-.747.934zm14.337.746c.093.42 0 .84-.42.888l-.7.14v10.264c-.608.327-1.168.514-1.635.514-.747 0-.934-.234-1.495-.933l-4.577-7.186v6.953l1.449.327s0 .84-1.168.84l-3.222.187c-.093-.186 0-.653.327-.746l.84-.233V9.854L7.822 9.76c-.094-.42.14-1.026.793-1.073l3.456-.233 4.764 7.279v-6.44l-1.215-.14c-.093-.514.28-.886.747-.933zM1.936 1.035l13.31-.98c1.634-.14 2.055-.047 3.082.7l4.249 2.986c.7.513.933.653.933 1.213v16.378c0 1.026-.373 1.634-1.68 1.726l-15.458.934c-.98.047-1.448-.094-1.962-.747l-3.129-4.06c-.56-.747-.793-1.306-.793-1.96V2.667c0-.84.374-1.54 1.448-1.632z"/></svg>
