<svg role="img" viewBox="0 0 180 180" xmlns="http://www.w3.org/2000/svg">
  <title>Nyne</title>
  <rect width="180" height="180" fill="#274236" />
  <path
    fill="#F9F4E6"
    fill-rule="evenodd"
    d="M 68.734 39.088 C 62.546 40.546, 57.532 43.614, 52.887 48.785 C 46.781 55.584, 44.631 62.060, 45.202 71.931 C 45.766 81.675, 49.348 88.695, 56.599 94.266 C 65.093 100.792, 74.280 102.428, 85.212 99.361 C 88.425 98.459, 91.338 98.004, 91.684 98.350 C 92.030 98.696, 87.742 108.247, 82.156 119.574 C 76.570 130.900, 72 140.580, 72 141.084 C 72 141.600, 78.908 142, 87.828 142 L 103.657 142 110.941 127.250 C 131.635 85.348, 134.431 78.869, 134.832 71.871 C 135.391 62.120, 133.117 55.384, 127.014 48.705 C 118.674 39.581, 106.988 36.117, 95.657 39.411 C 90.478 40.917, 89.497 40.928, 84.800 39.533 C 79.146 37.854, 74.517 37.726, 68.734 39.088 M 67 48.594 C 60.224 51.529, 54.949 58.424, 53.477 66.269 C 51.863 74.874, 57.609 85.719, 66.068 90.034 C 71.053 92.578, 80.043 92.618, 85.541 90.120 C 97.131 84.856, 101.555 69.961, 94.986 58.321 L 91.972 52.981 95.592 51.255 L 99.212 49.528 101.547 52.457 C 102.831 54.067, 104.666 58.279, 105.623 61.816 C 107.872 70.124, 106.588 78.926, 102.067 86.199 C 100.380 88.913, 99 91.328, 99 91.566 C 99 91.805, 101.264 92, 104.032 92 C 116.855 92, 126.410 82.393, 126.410 69.500 C 126.410 52.560, 109.891 42.139, 94.500 49.368 C 88.620 52.130, 86.821 53.968, 84.077 60.018 C 80.628 67.622, 81.418 76.100, 86.238 83.205 L 88.073 85.911 85.086 87.455 C 80.435 89.861, 79.331 89.379, 76.597 83.750 C 71.659 73.585, 72.437 61.137, 78.576 52.103 C 79.909 50.141, 81 48.190, 81 47.768 C 81 46.413, 70.621 47.026, 67 48.594 M 112 100.063 C 110.625 100.469, 107.435 100.845, 104.911 100.900 C 101.187 100.981, 100.121 101.424, 99.258 103.250 C 98.673 104.487, 95.245 111.688, 91.639 119.250 L 85.083 133 91.993 133 L 98.904 133 106.959 116.340 C 111.389 107.177, 114.898 99.600, 114.757 99.503 C 114.615 99.405, 113.375 99.658, 112 100.063"
  />
</svg>
