<svg width="28" height="28" viewBox="0 0 28 28" fill="none" xmlns="http://www.w3.org/2000/svg">
<g clip-path="url(#clip0_843_12967)">
<mask id="mask0_843_12967" style="mask-type:luminance" maskUnits="userSpaceOnUse" x="0" y="0" width="28" height="28">
<path d="M0 0H28V28H0V0Z" fill="white"/>
</mask>
<g mask="url(#mask0_843_12967)">
<path fill-rule="evenodd" clip-rule="evenodd" d="M19.6046 2.28326L28.028 7.07241V7.17391L19.5184 11.9117L19.5381 9.44191L18.5804 9.40691C17.3449 9.3742 16.7009 9.4092 15.9344 9.5352C14.693 9.73941 13.5566 10.2084 12.2629 11.1126L9.73585 12.8684C9.4045 13.0959 9.15835 13.2604 8.9425 13.3992L8.34165 13.7749L7.8785 14.0479L8.32765 14.3162L8.946 14.7106C9.50135 15.0769 10.311 15.6392 12.0971 16.8876C13.3921 17.7917 14.5274 18.2607 15.7686 18.4649L16.1186 18.5174C16.9284 18.6236 17.7229 18.6271 19.4145 18.5559L19.4401 16.0371L27.8635 20.8262V20.9277L19.3539 25.6667L19.3701 23.4944L18.6294 23.5201C17.0124 23.5691 16.1361 23.5224 14.9684 23.3311C12.992 23.0044 11.165 22.2507 9.27385 20.9289L6.75615 19.1789C6.46658 18.9792 6.17292 18.7855 5.87535 18.5979L5.3305 18.2712C5.03628 18.1017 4.7407 17.9345 4.44385 17.7696C3.39265 17.1851 0.656797 16.4687 0 16.4687V11.5361L0.163352 11.5407C0.821352 11.5326 3.55835 10.8151 4.60715 10.2294L5.7925 9.5527L6.3035 9.23305C6.80285 8.90641 7.55415 8.38605 9.43715 7.0712C11.3284 5.74941 13.1541 4.99455 15.1316 4.66905C16.4756 4.44741 17.4346 4.42055 19.5814 4.50805L19.6046 2.28326Z" fill="black"/>
</g>
</g>
<defs>
<clipPath id="clip0_843_12967">
<rect width="28" height="28" fill="white"/>
</clipPath>
</defs>
</svg>
