<svg xmlns="http://www.w3.org/2000/svg" viewBox="0 0 30 30" width="30" height="30">
  <title>PandaDoc</title>
  <path fill="#248567" d="M0 0h30v30H0z"/>
  <path fill="#fff" fill-rule="evenodd" clip-rule="evenodd" d="m22 10.99-.08.04c-.64-.53-1.47-.87-2.53-.87-1.36 0-2.61.49-3.44 1.48l1.29 1.37c.64-.61 1.32-.95 2.19-.95 1.63.04 2.68 1.29 2.68 2.97S21.01 18 19.35 18c-4.16 0-2.99-7.83-8.58-7.83-2.8 0-4.76 2.09-4.76 4.87v8.48h2v-4.53l.08-.04c.64.53 1.47.87 2.53.87 1.36 0 2.61-.49 3.44-1.48l-1.29-1.37c-.64.61-1.32.95-2.19.95-1.63-.04-2.68-1.29-2.68-2.97s1.1-2.97 2.76-2.97c4.16 0 2.99 7.83 8.58 7.83 2.8 0 4.76-2.09 4.76-4.87V6.5h-2v4.49Z"/>
</svg>
