<svg xmlns="http://www.w3.org/2000/svg" viewBox="0 0 119 116" fill="none">
  <path
    fill="#2E3137"
    d="M45.98 8.37 41.48 2c-10.15 8-20.89 16.44-24.86 19.58l8.68 19 .78-.48c8.29-4.82 15.22-10.39 20.11-20.73 1.75-3.92 1.65-8.35-.21-11Z"
  />
  <path
    fill="#C71217"
    d="M48.31 22.29 31.63 73.64s-2.84 7.92-9.41 10.29c-6.1 2.21-14.21 5.32-14.21 5.32l-8-28.81 27.23-16.07c8.79-4.94 16.09-10.76 21.07-22.11v.03Z"
  />
  <path
    fill="#2E3137"
    d="m35.55 101.37 4.79 12.6c13.78-3.1 32.92-7.52 41.66-9.54L61.17 67.65l-1.2.48c-11.27 4.18-19.17 8.9-24.31 19.31a19.1 19.1 0 0 0-.11 14v-.07Z"
  />
  <path
    fill="#C71217"
    d="M33.66 84.06 50.74 31.5a28.71 28.71 0 0 1 11.21-13.29c9-5.51 23.37-14.59 23.37-14.59l33.31 34.11-60.46 25.42c-11.51 4.56-19.46 9.61-24.51 20.91Z"
  />
</svg>
