<svg xmlns="http://www.w3.org/2000/svg" viewBox="0 0 182 182" fill="none">
  <path
    d="M157.495.008H23.907C10.704.008 0 10.711 0 23.915v133.588c0 13.204 10.704 23.907 23.907 23.907h133.588c13.204 0 23.907-10.703 23.907-23.907V23.915c0-13.204-10.703-23.907-23.907-23.907Z"
    fill="#8200FA"
  />
  <path
    d="M73.494 124.342 91.028 51.235a2.681 2.681 0 0 1 3.24-1.987l20.893 5.013a2.681 2.681 0 0 1 1.987 3.24l-17.533 73.121a2.681 2.681 0 0 1-3.24 1.987l-20.894-5.013a2.68 2.68 0 0 1-1.987-3.24v-.014ZM122.428 132.129h21.481c1.48 0 2.68-1.2 2.68-2.68V54.261c0-1.48-1.2-2.68-2.68-2.68h-21.494c-1.48 0-2.68 1.2-2.68 2.68v75.188c0 1.48 1.2 2.68 2.68 2.68h.013ZM29.32 121.422l19.307 9.414a2.682 2.682 0 0 0 3.587-1.24l32.974-67.575a2.683 2.683 0 0 0-1.24-3.586l-19.307-9.414a2.683 2.683 0 0 0-3.587 1.24l-32.96 67.561a2.693 2.693 0 0 0 1.226 3.6Z"
    fill="#fff"
  />
</svg>
