<svg width="24" height="16" viewBox="0 0 24 16" xmlns="http://www.w3.org/2000/svg" fill="#000000"><path d="M8.5873 3.48364C8.40237 3.52269 8.21517 3.56391 8.02645 3.60803C-3.31177 6.23251 0.682377 16 0.682377 16H9.34065C9.20044 14.6643 8.19698 13.2012 5.74213 12.2032V12.1049C8.60246 12.9402 9.63169 14.3663 10.0508 15.9993H20.7319L19.0138 14.6013C20.0187 11.6008 24 10.1826 24 10.1826C23.859 7.77581 22.5607 5.53173 18.2172 3.71434L8.34022 0C8.67218 3.95878 10.1509 6.22961 13.8585 6.78648V6.88338C11.2824 6.82336 9.49451 5.72989 8.5873 3.48364Z"/></svg>
