<svg width="96" height="30" viewBox="0 0 96 30" fill="none" xmlns="http://www.w3.org/2000/svg">
  <g clip-path="url(#clip0_6194_17321)">
    <path d="M37.0057 0H32.416V4.8047H37.0057V0Z" fill="#0D0D0D"/>
    <path d="M37.0057 6.88232H32.416V29.6165H37.0057V6.88232Z" fill="#0D0D0D"/>
    <path d="M67.7158 3.45048H61.3594L45.5194 15.7343V0H40.9329H40.9297V29.6166H45.5194V17.1133L61.5066 29.6166H68.1639L51.0885 16.0991L67.7158 3.45048Z" fill="#0D0D0D"/>
    <path d="M16.4769 0H0V29.6166H4.58972V19.0797H16.4769C27.5799 19.0797 28.7802 12.4075 28.7802 9.54138C28.777 6.67216 27.5767 0 16.4769 0ZM15.6479 14.6831H4.58972V4.39658H15.6511C21.3995 4.39658 23.8512 5.93322 23.8512 9.53829C23.848 13.1434 21.3963 14.6831 15.6479 14.6831Z" fill="#0D0D0D"/>
    <path d="M95.8077 24.45V12.9732C95.8077 6.26388 91.6085 3.271 82.189 3.271C74.2738 3.271 69.5497 6.82969 69.5497 12.7907H74.1778C74.1778 9.22276 76.6487 7.63356 82.189 7.63356C88.8815 7.63356 91.2564 9.11764 91.2564 13.3009C89.6209 13.5204 88.0686 13.7152 86.5515 13.9038C75.1764 15.326 68.311 16.1856 68.311 22.7681C68.311 25.3497 69.3 27.1801 71.3356 28.3612C73.1568 29.4186 76.4023 29.9998 80.4735 29.9998C85.9562 29.9998 90.5203 28.6673 91.8293 26.6854C91.7109 28.4879 91.8293 29.6072 91.8293 29.6165H96.003C95.9966 29.5979 95.8077 27.5449 95.8077 24.45ZM91.2564 19.0455C91.2564 21.8436 90.2642 23.7636 88.2222 24.9107C86.3979 25.9372 83.6549 26.4164 79.5965 26.4164C77.1096 26.4164 72.9392 25.9372 72.9392 22.731C72.9392 21.1665 74.0274 20.2111 76.6935 19.4382C79.5677 18.6034 84.3975 17.9572 91.2596 17.1904V19.0455H91.2564Z" fill="#0D0D0D"/>
  </g>
  <defs>
    <clipPath id="clip0_6194_17321">
      <rect width="96" height="30" fill="white"/>
    </clipPath>
  </defs>
</svg>
