<svg width="22" height="22" viewBox="0 0 22 22" xmlns="http://www.w3.org/2000/svg">
  <g transform="translate(0 0.027)">
    <path d="M6.631 14.648C6.147 14.648 5.497 14.951 5.186 15.321L0.165 21.3C-0.146 21.67-0.004 21.973 0.479 21.973H9.613C13.662 21.973 16.945 18.693 16.945 14.648C16.945 14.497 16.939 14.347 16.929 14.198C16.139 14.489 15.286 14.648 14.395 14.648Z" fill="#1AD379"/>
    <path d="M21.719 7.324C21.719 3.279 18.442 0 14.399 0H8.692C8.209 0 7.559 0.303 7.249 0.673L2.235 6.651C1.925 7.021 2.066 7.324 2.549 7.324H9.625C13.517 7.324 16.698 10.363 16.93 14.198C19.726 13.167 21.719 10.479 21.719 7.324Z" fill="#1AD379"/>
  </g>
</svg>
