<svg width="512" height="512" viewBox="0 0 512 512" fill="none" xmlns="http://www.w3.org/2000/svg">
<g clip-path="url(#clip0_10_225)">
<path d="M448.2 192.9C438.9 282.1 360.9 348.4 271.2 348.4H236.6V430.1C236.6 475.3 199.9 512 154.7 512H90.7C74.9 512 62 499.2 62 483.3V315.2L105 254.9C112.8 244 127.1 239.9 139.4 245.1L163.9 255.3C176.2 260.5 190.5 256.4 198.2 245.5L255.5 165.1C263.2 154.2 277.5 150.2 289.8 155.4L336.9 175.2C349.2 180.4 363.5 176.3 371.2 165.4L426.3 88.1001C443.7 118.5 452.2 154.6 448.2 192.9Z" fill="url(#paint0_linear_10_225)"/>
<path d="M90.2001 246.4C97.2001 236.5 107.4 229 119.3 226.7C128.6 224.9 137.7 225.9 146.2 229.4L170.6 239.6C172 240.2 173.5 240.5 175 240.5C178.7 240.5 182.2 238.7 184.4 235.7L240.7 156.8C247.7 147 257.9 139.4 269.8 137.1C279 135.3 288.1 136.3 296.5 139.8L343.6 159.6C345 160.2 346.5 160.5 348 160.5C351.7 160.5 355.2 158.7 357.4 155.7L416.4 72.9C384.9 28.7 333.3 0 274.9 0H90.7001C74.9001 0 62.1001 12.8 62.1001 28.7V285.8L90.2001 246.4Z" fill="url(#paint1_linear_10_225)"/>
</g>
<defs>
<linearGradient id="paint0_linear_10_225" x1="188.71" y1="192.373" x2="296.501" y2="381.008" gradientUnits="userSpaceOnUse">
<stop stop-color="#909CF7"/>
<stop offset="1" stop-color="#4B38D8"/>
</linearGradient>
<linearGradient id="paint1_linear_10_225" x1="130.193" y1="-11.591" x2="241.273" y2="182.8" gradientUnits="userSpaceOnUse">
<stop stop-color="#909CF7"/>
<stop offset="1" stop-color="#4B38D8"/>
</linearGradient>
<clipPath id="clip0_10_225">
<rect width="512" height="512" fill="white"/>
</clipPath>
</defs>
</svg>
