<svg xmlns="http://www.w3.org/2000/svg" viewBox="8 8 128 128" role="img" aria-label="connector logo">
  <!-- Official brand asset source: https://porkbun.com/partners/logos/porkbun.comphpPkl2eU.svg -->
  <circle fill="#F27777" cx="72" cy="72" r="56.3"/>
  <path fill="#FFFFFF" d="M43.1,43.2c5,1.1,9.8,2.9,14.1,5.3c-5.1,2.6-9.4,6.5-12.5,11.3c-2-2.7-3.1-6.1-3.1-9.7 C41.6,47.6,42.1,45.3,43.1,43.2z"/>
  <path fill="#FFFFFF" d="M102.4,95.2c0,3.1-2.5,5.6-5.6,5.6s-5.6-2.5-5.6-5.6v-4.5H52.7v4.5c0,3.1-2.5,5.6-5.6,5.6s-5.6-2.5-5.6-5.6 V78.1c0-16.5,12.8-30.5,29.3-31.1c17.3-0.6,31.5,13.2,31.5,30.4L102.4,95.2L102.4,95.2z"/>
  <path fill="#FFFFFF" d="M99.3,59.8c-3.1-4.8-7.4-8.7-12.5-11.3c4.4-2.4,9.1-4.2,14.1-5.3c1,2.1,1.5,4.4,1.5,6.9 C102.4,53.7,101.2,57,99.3,59.8z"/>
  <path fill="#F27777" d="M85.3,71.4c-0.4-0.2-0.8-0.1-1,0.2c-0.4,0.6-0.9,1-1.6,1.4c0-0.2,0-0.3,0-0.5c0-1.4-0.5-2.7-1.3-3.7 c-0.6-0.9-1.6-1.4-2.8-1.4c-1.9,0-3.5,1.6-3.5,3.5c0,0.8,0.3,1.6,0.8,2.2c0.6,0.7,1.3,1.3,2.2,1.7c-0.6,0.3-1.2,0.5-1.9,0.5l0,0 c-0.8,0-1.4,0.7-1.4,1.4c0,0.8,0.6,1.4,1.4,1.4c0.2,0,0.5,0,0.7,0c2.2,0,4.2-1.3,5.1-3.1c1.5-0.4,2.7-1.4,3.5-2.7 C85.8,72.1,85.7,71.6,85.3,71.4z M79.6,73.3c-0.9-0.3-1.7-0.8-2.2-1.6l0,0c-0.2-0.2-0.3-0.5-0.3-0.8c0-0.8,0.6-1.4,1.4-1.4 c0.7,0,1.4,0.6,1.4,1.3c0,0.2,0.1,0.4,0.1,0.7C80.1,72.1,79.9,72.8,79.6,73.3z"/>
</svg>
