<svg xmlns="http://www.w3.org/2000/svg" viewBox="0 0 48 48" role="img" aria-label="connector logo">
  <!-- Official brand asset source: PostHog full-logo SVG from https://posthog.com/ -->
  <g transform="translate(0 9)">
    <path fill="#1D4AFF" d="M0 23.468C0 22.5771 1.07706 22.1309 1.70703 22.7609L6.29004 27.344C6.92 27.974 6.47391 29.051 5.58301 29.051H1C0.447715 29.051 0 28.6033 0 28.051V23.468ZM0 13.4709C4.9194e-05 12.5801 1.07707 12.1339 1.70703 12.7639L9.99707 21.0539V29.051L0.292969 19.3469C0.105529 19.1593 0 18.905 0 18.6399V13.4709ZM0 3.47384C3.86254e-05 2.58298 1.07707 2.13689 1.70703 2.76681L9.99707 11.0568V19.0539L0.292969 9.34982C0.105519 9.1623 0 8.90793 0 8.64278V3.47384Z"/>
    <path fill="#F9BD2B" d="M26.2852 27.344C26.915 27.974 26.468 29.051 25.5771 29.051H19.9961L19.9932 21.053L26.2852 27.344ZM29.6982 20.761C29.8857 20.9485 29.9912 21.2029 29.9912 21.468V26.637C29.9912 27.5278 28.9142 27.974 28.2842 27.344L19.9941 19.0539V11.0569L29.6982 20.761ZM19.9941 3.47386C19.9942 2.58298 21.0712 2.13688 21.7012 2.76683L29.6982 10.7639C29.8857 10.9514 29.9912 11.2058 29.9912 11.4709V16.6399C29.9912 17.5308 28.9142 17.9769 28.2842 17.3469L20.2871 9.34984C20.0997 9.16232 19.9941 8.90796 19.9941 8.64281V3.47386Z"/>
    <path fill="#F54E00" d="M16.2871 27.344C16.9171 27.974 16.471 29.051 15.5801 29.051H9.99707V21.0539L16.2871 27.344ZM19.7012 20.761L19.9941 21.0598V29.051L10.29 19.3469C10.1027 19.1593 9.99707 18.905 9.99707 18.6399V11.0569L19.7012 20.761ZM9.99707 3.47385C9.99711 2.58299 11.0742 2.13688 11.7041 2.76682L19.7012 10.7639L19.9941 11.0598V19.0539L10.29 9.34982C10.1026 9.16231 9.99707 8.90794 9.99707 8.64279V3.47385Z"/>
    <path fill="#000000" d="M42.5248 23.5308L33.1121 14.118C32.4821 13.488 31.405 13.9342 31.405 14.8251V27.9915C31.405 28.5438 31.8527 28.9915 32.405 28.9915H46.9856C47.5379 28.9915 47.9856 28.5438 47.9856 27.9915V26.7925C47.9856 26.2402 47.536 25.7992 46.9883 25.7279C45.3076 25.509 43.7355 24.7414 42.5248 23.5308ZM36.2035 25.7925C35.3206 25.7925 34.604 25.0759 34.604 24.193C34.604 23.31 35.3206 22.5934 36.2035 22.5934C37.0865 22.5934 37.8031 23.31 37.8031 24.193C37.8031 25.0759 37.0865 25.7925 36.2035 25.7925Z"/>
  </g>
</svg>
