<svg width="268" height="268" viewBox="0 0 268 268" fill="none" xmlns="http://www.w3.org/2000/svg">
<path d="M109.984 53.167C110.586 53.0167 111.112 52.7912 111.563 52.4906C112.014 52.19 112.54 52.0397 113.141 52.0397C113.592 52.19 113.892 52.4906 114.043 52.9415C114.343 53.3924 114.719 53.7682 115.17 54.0688C115.621 53.7682 115.997 53.4676 116.297 53.167C116.748 52.8664 117.199 52.6409 117.65 52.4906C119.153 52.9415 119.98 53.693 120.13 54.7451C120.881 55.0458 121.558 55.4215 122.159 55.8724C122.76 56.173 123.437 56.3985 124.188 56.5488C124.489 57.15 124.864 57.6009 125.315 57.9015C125.766 58.2021 126.292 58.653 126.894 59.2542C128.397 59.5548 130.351 60.3815 132.755 61.7342C135.31 63.087 137.34 64.1391 138.843 64.8906C140.346 65.6421 141.849 66.3936 143.352 67.1451C144.855 67.8967 146.283 68.7233 147.635 69.6251C148.988 70.3766 150.341 71.2785 151.694 72.3306C153.046 73.2324 154.474 73.9839 155.977 74.5851C157.33 76.2385 159.058 77.2906 161.163 77.7415C163.267 78.1924 165.146 79.0191 166.799 80.2215C168.152 80.973 169.429 81.7997 170.632 82.7015C171.834 83.453 173.037 84.2045 174.239 84.956C174.69 85.7075 175.216 86.3088 175.817 86.7597C176.569 87.2106 177.245 87.8118 177.846 88.5633C180.852 90.2166 182.581 91.4942 183.032 92.396C183.483 92.6966 184.159 93.1475 185.061 93.7487C185.963 94.35 186.864 95.0263 187.766 95.7778C188.668 96.379 189.495 97.0554 190.246 97.8069C190.998 98.4081 191.449 99.0093 191.599 99.6106C190.998 100.963 190.697 102.091 190.697 102.992C190.697 103.744 190.397 104.42 189.795 105.021C190.697 106.224 191.148 107.351 191.148 108.403C190.397 110.207 189.119 111.71 187.315 112.912C186.864 114.115 186.113 115.092 185.061 115.843C184.159 116.444 183.558 117.346 183.257 118.549C182.055 119.3 181.303 119.901 181.003 120.352C180.852 120.803 180.627 121.254 180.326 121.705C177.47 124.711 174.765 127.341 172.21 129.596C169.805 131.7 167.55 134.03 165.446 136.585C163.943 137.337 162.666 138.314 161.614 139.516C160.561 140.568 159.584 141.771 158.683 143.123C157.48 144.326 156.278 145.528 155.075 146.731C154.023 147.783 152.896 148.835 151.694 149.887C151.393 150.488 150.867 151.014 150.115 151.465C149.514 151.766 149.063 152.292 148.763 153.043C147.109 153.795 145.757 154.847 144.704 156.2C143.652 157.552 142.375 158.68 140.872 159.581L139.294 161.836C138.843 162.137 138.166 162.663 137.264 163.414C136.513 164.015 135.686 164.767 134.784 165.669C134.033 166.42 133.357 167.172 132.755 167.923C132.154 168.675 131.778 169.276 131.628 169.727C131.177 169.877 130.426 170.328 129.374 171.08C128.472 171.831 127.495 172.658 126.443 173.56C125.541 174.461 124.639 175.363 123.737 176.265C122.986 177.167 122.535 177.768 122.384 178.069L120.13 179.647C120.28 183.705 120.355 187.838 120.355 192.047C120.506 196.105 120.581 200.163 120.581 204.221V211.887L119.003 213.916C118.251 213.916 117.65 213.766 117.199 213.465C116.748 213.164 116.222 213.014 115.621 213.014C115.02 213.014 114.418 213.315 113.817 213.916C113.366 214.517 112.915 214.968 112.464 215.269C111.412 215.419 110.511 215.72 109.759 216.17C109.158 216.471 108.481 216.772 107.73 217.072C106.828 216.621 105.926 216.396 105.024 216.396C103.071 216.847 102.094 216.922 102.094 216.621C102.244 216.321 101.943 216.17 101.192 216.17C99.9893 217.373 99.2378 217.974 98.9372 217.974C98.336 217.974 97.7348 218.049 97.1336 218.2C96.6827 218.35 96.1566 218.425 95.5554 218.425C94.9542 217.223 94.4281 216.02 93.9772 214.818C93.6766 213.465 93.0002 212.187 91.9481 210.985C92.399 209.482 92.3239 208.43 91.7227 207.829C92.6245 206.175 93.0002 204.297 92.8499 202.192C92.6996 200.088 92.6245 198.134 92.6245 196.33C92.6245 195.278 92.6245 194.301 92.6245 193.4C92.7748 192.347 92.8499 191.37 92.8499 190.469C92.8499 188.665 92.6996 186.861 92.399 185.058C92.0984 183.104 91.9481 181.15 91.9481 179.196C91.9481 174.687 92.0984 170.178 92.399 165.669C92.6996 161.009 92.8499 156.425 92.8499 151.916C92.8499 149.361 92.6996 146.731 92.399 144.025C92.2487 141.32 92.1736 138.689 92.1736 136.134C92.1736 134.481 92.2487 132.978 92.399 131.625C92.5493 130.122 92.6996 128.694 92.8499 127.341C92.8499 120.428 92.9251 113.814 93.0754 107.501C93.376 101.038 93.5263 94.6506 93.5263 88.3378C93.5263 86.2336 93.4511 84.2797 93.3008 82.476C93.3008 80.5221 93.3008 78.493 93.3008 76.3888C93.3008 75.3366 93.376 74.2845 93.5263 73.2324C93.6766 72.1803 93.7517 71.1282 93.7517 70.076C94.2027 65.4167 94.4281 60.7573 94.4281 56.0979L94.2027 52.4906C94.8039 51.5888 95.7057 51.1379 96.9081 51.1379C98.5614 51.1379 99.839 51.6639 100.741 52.7161C101.793 52.5658 102.77 52.4155 103.672 52.2652C104.724 51.9645 105.701 51.8142 106.603 51.8142C107.955 51.8142 109.083 52.2652 109.984 53.167ZM123.286 89.0142C123.286 89.7657 123.211 90.3669 123.061 90.8178C122.911 91.1184 122.76 91.419 122.61 91.7197C122.61 92.1706 122.61 92.6966 122.61 93.2978C122.76 93.7487 122.835 94.2748 122.835 94.876C122.835 98.333 122.76 101.79 122.61 105.247C122.61 108.554 122.61 111.86 122.61 115.167L122.159 127.116C122.159 127.868 122.234 128.694 122.384 129.596C122.535 130.498 122.61 131.324 122.61 132.076C122.61 132.827 122.535 133.579 122.384 134.331C122.234 135.082 122.159 135.834 122.159 136.585C122.159 138.539 122.384 140.493 122.835 142.447C123.587 142.146 124.113 141.695 124.414 141.094C124.714 140.343 125.09 139.741 125.541 139.291C128.998 136.134 132.229 132.827 135.235 129.371C138.241 125.914 141.323 122.457 144.479 119C147.184 116.144 149.514 113.814 151.468 112.011C153.422 110.207 154.925 108.028 155.977 105.472C153.422 103.819 150.792 102.166 148.086 100.512C145.381 98.7087 142.525 97.2057 139.519 96.0033C139.369 95.7027 138.918 95.3269 138.166 94.876C137.565 94.4251 136.889 94.0494 136.137 93.7487C135.386 93.2978 134.634 92.9221 133.883 92.6215C133.131 92.3209 132.605 92.1706 132.304 92.1706C130.952 90.9681 129.524 90.2166 128.021 89.916C126.969 89.916 126.067 89.7657 125.315 89.4651C124.564 89.0142 124.038 88.6384 123.737 88.3378L123.286 89.0142Z" fill="black"/>
<path d="M6 81.1493V6H83.7286" stroke="black" stroke-width="11.3322"/>
<path d="M83.7286 262H6V187.057" stroke="black" stroke-width="11.3322"/>
<path d="M261.999 187.057L261.999 262H181.826" stroke="black" stroke-width="11.3322"/>
<path d="M181.826 6H261.999V76.6901" stroke="black" stroke-width="11.3322"/>
</svg>
