<svg role="img" viewBox="0 0 157 157" xmlns="http://www.w3.org/2000/svg">
  <title>Reap</title>
  <rect width="157" height="157" fill="#000000" />
  <path
    d="M102.105 33.3429C104.026 29.5471 104.391 28.8182 106.312 25.0225L89.5817 0.446289H66.0691C64.1419 4.25581 63.7767 4.97095 61.8494 8.77359L74.7519 27.7249L71.0056 35.1308H38.2422C36.2947 38.8784 35.9092 39.6279 33.9617 43.3824L52.8285 71.0874L46.9724 82.6672H5.07986C3.13907 86.4355 2.76039 87.1712 0.819611 90.9395L45.7349 156.953L96.1411 156.911C98.1225 153.068 98.5079 152.311 100.489 148.467L56.1015 83.1761L58.3669 78.6995L90.9003 78.6652C92.8276 74.8625 93.1928 74.1474 95.12 70.3447L76.456 42.9148L81.2505 33.4323L102.112 33.3429H102.105Z"
    fill="#5AF6E9"
    transform="translate(25)"
  />
</svg>
