<svg xmlns="http://www.w3.org/2000/svg" width="32" height="32" viewBox="-1 -1 31 33" fill="none"><path d="M8.09675 -0.0546875H2.58089C1.21537 -0.0546875 0.108398 1.05102 0.108398 2.41497V28.5851C0.108398 29.949 1.21537 31.0547 2.58089 31.0547H8.09675C9.46227 31.0547 10.5692 29.949 10.5692 28.5851V2.41497C10.5692 1.05102 9.46227 -0.0546875 8.09675 -0.0546875Z" fill="#2F64E0"/><path d="M26.53 0.147153C23.2146 0.621289 20.1424 2.15621 17.7741 4.52174C15.4059 6.88728 13.8692 9.95593 13.3945 13.2675C13.3564 13.54 13.3772 13.8176 13.4556 14.0813C13.534 14.3451 13.6681 14.589 13.8489 14.7966C14.0297 15.0042 14.253 15.1706 14.5037 15.2847C14.7545 15.3987 15.0267 15.4577 15.3022 15.4576H26.7967C27.3063 15.4576 27.7952 15.2558 28.156 14.8963C28.5168 14.5368 28.7202 14.0491 28.7216 13.54V2.05264C28.7218 1.77752 28.6628 1.50557 28.5488 1.25515C28.4348 1.00472 28.2682 0.781668 28.0605 0.60104C27.8527 0.420412 27.6086 0.286421 27.3446 0.208119C27.0805 0.129817 26.8027 0.109027 26.53 0.147153Z" fill="#2F64E0"/></svg>
