<svg role="img" viewBox="0 0 24 24" xmlns="http://www.w3.org/2000/svg"><title>Salesforce</title><path d="M10.006 5.415a4.195 4.195 0 0 1 3.045-1.306c1.56 0 2.954.9 3.69 2.205.63-.3 1.35-.45 2.1-.45 2.85 0 5.159 2.34 5.159 5.22s-2.31 5.22-5.16 5.22c-.45 0-.884-.06-1.305-.165a3.975 3.975 0 0 1-3.524 2.145c-.57 0-1.125-.12-1.62-.36A4.795 4.795 0 0 1 7.93 20.37a4.77 4.77 0 0 1-2.58-.735A4.425 4.425 0 0 1 .001 16.08c0-1.665.93-3.12 2.28-3.87a4.02 4.02 0 0 1-.36-1.665A4.167 4.167 0 0 1 6.09 6.39c1.05 0 2.04.39 2.79 1.05a4.793 4.793 0 0 1 1.126-2.025z"/></svg>
