<svg
  width="273"
  height="273"
  viewBox="0 0 273 273"
  fill="none"
  xmlns="http://www.w3.org/2000/svg"
>
  <mask
    id="mask0_10_238"
    style="mask-type: luminance"
    maskUnits="userSpaceOnUse"
    x="0"
    y="41"
    width="273"
    height="191"
  >
    <path d="M0 41H272.104V231.44H0V41Z" fill="#FFFFFF" />
  </mask>
  <g mask="url(#mask0_10_238)">
    <path
      fill-rule="evenodd"
      clip-rule="evenodd"
      d="M113.198 61.777C121.975 52.633 134.196 46.959 147.711 46.959C165.676 46.959 181.352 56.977 189.697 71.851C197.164 68.5146 205.252 66.795 213.43 66.805C245.834 66.805 272.104 93.304 272.104 125.994C272.104 158.684 245.834 185.184 213.43 185.184C209.473 185.184 205.609 184.786 201.871 184.032C194.522 197.141 180.512 206 164.436 206C157.934 206.009 151.515 204.532 145.671 201.681C138.221 219.21 120.857 231.5 100.626 231.5C79.5529 231.5 61.5929 218.168 54.7039 199.47C51.6335 200.118 48.5039 200.444 45.3659 200.442C20.2769 200.442 -0.0600586 179.892 -0.0600586 154.543C-0.0600586 137.553 9.07594 122.72 22.6549 114.785C19.778 108.16 18.2975 101.014 18.3059 93.791C18.3059 64.636 41.9729 41 71.1669 41C88.3069 41 103.54 49.148 113.198 61.777Z"
      fill="#00A1E0"
    />
  </g>
  <path
    fill-rule="evenodd"
    clip-rule="evenodd"
    d="M39.3602 139.789C39.1892 140.235 39.4212 140.328 39.4762 140.407C39.9872 140.777 40.5062 141.045 41.0302 141.346C43.8052 142.815 46.4282 143.246 49.1682 143.246C54.7512 143.246 58.2192 140.278 58.2192 135.498V135.404C58.2192 130.984 54.3042 129.378 50.6352 128.219L50.1562 128.064C47.3892 127.166 45.0012 126.389 45.0012 124.566V124.473C45.0012 122.912 46.3972 121.765 48.5602 121.765C50.9652 121.765 53.8152 122.564 55.6532 123.579C55.6532 123.579 56.1952 123.929 56.3922 123.406C56.4992 123.123 57.4282 120.621 57.5272 120.35C57.6332 120.057 57.4472 119.836 57.2562 119.722C55.1572 118.443 52.2582 117.573 49.2572 117.573L48.7002 117.575C43.5902 117.575 40.0222 120.665 40.0222 125.087V125.182C40.0222 129.842 43.9582 131.357 47.6452 132.41L48.2372 132.594C50.9222 133.418 53.2412 134.13 53.2412 136.019V136.113C53.2412 137.843 51.7342 139.128 49.3072 139.128C48.3662 139.128 45.3622 139.112 42.1162 137.059C41.7232 136.83 41.4992 136.665 41.1962 136.48C41.0362 136.383 40.6362 136.208 40.4622 136.732L39.3602 139.789ZM121.09 139.789C120.919 140.235 121.151 140.328 121.208 140.407C121.717 140.777 122.237 141.045 122.76 141.346C125.536 142.815 128.159 143.246 130.898 143.246C136.481 143.246 139.95 140.278 139.95 135.498V135.404C139.95 130.984 136.036 129.378 132.366 128.219L131.887 128.064C129.12 127.166 126.731 126.389 126.731 124.566V124.473C126.731 122.912 128.128 121.765 130.292 121.765C132.696 121.765 135.545 122.564 137.383 123.579C137.383 123.579 137.925 123.929 138.123 123.406C138.229 123.123 139.159 120.621 139.257 120.35C139.364 120.057 139.177 119.836 138.987 119.722C136.887 118.443 133.989 117.573 130.988 117.573L130.43 117.575C125.321 117.575 121.753 120.665 121.753 125.087V125.182C121.753 129.842 125.688 131.357 129.376 132.41L129.967 132.594C132.653 133.418 134.972 134.13 134.972 136.019V136.113C134.972 137.843 133.464 139.128 131.039 139.128C130.096 139.128 127.092 139.112 123.847 137.059C123.454 136.83 123.224 136.672 122.926 136.48C122.825 136.416 122.354 136.232 122.193 136.732L121.09 139.789ZM176.885 130.425C176.885 133.125 176.381 135.257 175.391 136.76C174.407 138.25 172.922 138.975 170.851 138.975C168.78 138.975 167.303 138.251 166.335 136.762C165.358 135.258 164.862 133.125 164.862 130.425C164.862 127.727 165.358 125.602 166.335 124.114C167.303 122.639 168.78 121.923 170.851 121.923C172.922 121.923 174.407 122.64 175.391 124.115C176.383 125.602 176.885 127.727 176.885 130.425ZM181.547 125.418C181.088 123.869 180.375 122.506 179.426 121.369C178.475 120.229 177.272 119.312 175.846 118.648C174.422 117.983 172.742 117.646 170.851 117.646C168.96 117.646 167.279 117.983 165.854 118.648C164.43 119.312 163.226 120.229 162.275 121.371C161.327 122.51 160.612 123.871 160.155 125.418C159.7 126.955 159.469 128.64 159.469 130.425C159.469 132.211 159.7 133.897 160.155 135.432C160.612 136.978 161.325 138.34 162.276 139.481C163.227 140.623 164.434 141.532 165.856 142.18C167.282 142.828 168.962 143.158 170.851 143.158C172.741 143.158 174.419 142.828 175.844 142.18C177.268 141.532 178.473 140.623 179.426 139.481C180.375 138.344 181.088 136.98 181.547 135.432C182.001 133.894 182.232 132.209 182.232 130.425C182.232 128.642 182.001 126.956 181.547 125.418ZM219.814 138.252C219.661 137.799 219.219 137.97 219.219 137.97C218.542 138.229 217.822 138.469 217.052 138.589C216.276 138.711 215.417 138.772 214.498 138.772C212.245 138.772 210.45 138.101 209.169 136.775C207.882 135.448 207.159 133.304 207.167 130.404C207.174 127.768 207.812 125.782 208.956 124.268C210.09 122.764 211.822 121.992 214.125 121.992C216.048 121.992 217.515 122.215 219.052 122.697C219.052 122.697 219.417 122.856 219.592 122.375C220.001 121.242 220.303 120.436 220.739 119.191C220.863 118.836 220.559 118.686 220.448 118.643C219.844 118.407 218.417 118.02 217.34 117.857C216.333 117.703 215.156 117.623 213.843 117.623C211.886 117.623 210.141 117.958 208.649 118.622C207.16 119.285 205.897 120.201 204.896 121.34C203.895 122.481 203.133 123.844 202.629 125.39C202.124 126.928 201.869 128.616 201.869 130.406C201.869 134.271 202.912 137.394 204.969 139.682C207.033 141.978 210.129 143.144 214.17 143.144C216.557 143.144 219.006 142.661 220.77 141.967C220.77 141.967 221.106 141.805 220.96 141.413L219.814 138.252ZM227.968 127.836C228.191 126.335 228.602 125.088 229.243 124.114C230.21 122.639 231.682 121.826 233.753 121.826C235.825 121.826 237.19 122.64 238.174 124.115C238.824 125.09 239.108 126.389 239.219 127.838L227.968 127.836ZM243.657 124.539C243.26 123.045 242.282 121.536 241.639 120.846C240.624 119.752 239.63 118.986 238.643 118.563C237.215 117.956 235.678 117.644 234.126 117.646C232.157 117.646 230.368 117.979 228.917 118.659C227.464 119.341 226.243 120.273 225.286 121.431C224.327 122.588 223.608 123.965 223.149 125.527C222.689 127.08 222.457 128.773 222.457 130.561C222.457 132.379 222.698 134.074 223.172 135.598C223.651 137.135 224.42 138.484 225.458 139.607C226.495 140.734 227.83 141.618 229.425 142.234C231.012 142.849 232.94 143.168 235.151 143.161C239.709 143.146 242.106 142.13 243.096 141.583C243.271 141.485 243.436 141.316 243.23 140.829L242.198 137.941C242.04 137.51 241.604 137.666 241.604 137.666C240.473 138.088 238.872 138.841 235.128 138.833C232.682 138.829 230.87 138.106 229.731 136.977C228.566 135.822 227.994 134.126 227.897 131.73L243.669 131.742C243.669 131.742 244.085 131.738 244.128 131.332C244.145 131.164 244.669 128.092 243.657 124.539ZM101.629 127.836C101.852 126.335 102.264 125.088 102.904 124.114C103.872 122.639 105.342 121.826 107.415 121.826C109.487 121.826 110.852 122.64 111.836 124.115C112.485 125.09 112.769 126.389 112.88 127.838L101.629 127.836ZM117.318 124.539C116.922 123.045 115.943 121.536 115.301 120.846C114.286 119.752 113.293 118.986 112.305 118.563C110.877 117.956 109.34 117.644 107.788 117.646C105.819 117.646 104.03 117.979 102.579 118.659C101.126 119.341 99.9052 120.273 98.9462 121.431C97.9892 122.588 97.2702 123.965 96.8092 125.527C96.3502 127.08 96.1192 128.773 96.1192 130.561C96.1192 132.379 96.3582 134.074 96.8352 135.598C97.3132 137.135 98.0832 138.484 99.1192 139.607C100.157 140.734 101.491 141.618 103.086 142.234C104.674 142.849 106.6 143.168 108.813 143.161C113.37 143.146 115.768 142.13 116.758 141.583C116.932 141.485 117.098 141.316 116.891 140.829L115.86 137.941C115.701 137.51 115.265 137.666 115.265 137.666C114.135 138.088 112.534 138.841 108.789 138.833C106.344 138.829 104.531 138.106 103.392 136.977C102.228 135.822 101.655 134.126 101.558 131.73L117.331 131.742C117.331 131.742 117.747 131.738 117.79 131.332C117.807 131.164 118.331 128.092 117.318 124.539ZM67.5322 138.166C66.9132 137.672 66.8272 137.551 66.6222 137.23C66.3092 136.747 66.1492 136.059 66.1492 135.178C66.1492 133.793 66.6092 132.795 67.5572 132.125C67.5472 132.127 68.9172 130.943 72.1322 130.985C73.5664 131.01 74.9973 131.132 76.4152 131.35V138.52H76.4172C76.4172 138.52 74.4122 138.951 72.1552 139.087C68.9472 139.28 67.5222 138.163 67.5322 138.166ZM73.8092 127.08C73.1692 127.033 72.3402 127.01 71.3462 127.01C69.9952 127.01 68.6882 127.178 67.4612 127.508C66.2292 127.84 65.1212 128.354 64.1682 129.035C63.2158 129.715 62.4326 130.606 61.8792 131.637C61.3202 132.678 61.0352 133.901 61.0352 135.272C61.0352 136.671 61.2782 137.883 61.7582 138.873C62.2278 139.855 62.9348 140.704 63.8152 141.343C64.6922 141.981 65.7742 142.449 67.0292 142.735C68.2682 143.018 69.6722 143.161 71.2062 143.161C72.8262 143.161 74.4372 143.025 75.9982 142.762C77.3279 142.533 78.6525 142.275 79.9712 141.99C80.4972 141.869 81.0772 141.71 81.0772 141.71C81.4672 141.611 81.4372 141.194 81.4372 141.194L81.4282 126.768C81.4282 123.604 80.5842 121.26 78.9212 119.804C77.2662 118.355 74.8292 117.623 71.6762 117.623C70.4922 117.623 68.5902 117.783 67.4482 118.012C67.4482 118.012 64.0042 118.68 62.5862 119.791C62.5862 119.791 62.2742 119.983 62.4442 120.418L63.5612 123.418C63.7002 123.807 64.0792 123.674 64.0792 123.674C64.0792 123.674 64.1982 123.627 64.3382 123.544C67.3722 121.894 71.2112 121.943 71.2112 121.943C72.9152 121.943 74.2282 122.288 75.1102 122.963C75.9712 123.624 76.4082 124.619 76.4082 126.722V127.389C75.0552 127.193 73.8092 127.08 73.8092 127.08ZM201.044 118.953C201.067 118.9 201.079 118.843 201.079 118.786C201.079 118.729 201.068 118.672 201.046 118.619C201.024 118.566 200.991 118.518 200.95 118.478C200.909 118.437 200.861 118.406 200.807 118.385C200.538 118.283 199.197 118 198.163 117.936C196.18 117.812 195.081 118.146 194.095 118.59C193.117 119.031 192.034 119.744 191.43 120.557L191.428 118.633C191.428 118.369 191.241 118.156 190.975 118.156H186.931C186.669 118.156 186.479 118.369 186.479 118.633V142.165C186.479 142.292 186.53 142.414 186.62 142.503C186.71 142.593 186.831 142.644 186.958 142.644H191.103C191.23 142.644 191.352 142.593 191.441 142.503C191.531 142.414 191.581 142.292 191.581 142.165V130.41C191.581 128.831 191.755 127.258 192.102 126.269C192.444 125.29 192.909 124.51 193.485 123.949C194.031 123.408 194.699 123.006 195.433 122.777C196.121 122.58 196.833 122.479 197.549 122.479C198.374 122.479 199.282 122.691 199.282 122.691C199.586 122.725 199.755 122.539 199.858 122.265C200.129 121.544 200.897 119.383 201.044 118.953Z"
    fill="#FFFFFE"
  />
  <path
    fill-rule="evenodd"
    clip-rule="evenodd"
    d="M162.141 108.048C161.629 107.893 161.109 107.77 160.582 107.678C159.874 107.56 159.156 107.504 158.438 107.512C155.585 107.512 153.336 108.318 151.757 109.91C150.189 111.49 149.122 113.897 148.587 117.064L148.394 118.133H144.813C144.813 118.133 144.376 118.115 144.284 118.592L143.696 121.872C143.655 122.186 143.79 122.382 144.21 122.38H147.696L144.159 142.123C143.882 143.713 143.565 145.021 143.214 146.012C142.868 146.99 142.53 147.723 142.114 148.255C141.711 148.77 141.329 149.149 140.67 149.37C140.126 149.553 139.5 149.637 138.814 149.637C138.432 149.637 137.924 149.573 137.549 149.498C137.174 149.424 136.979 149.34 136.698 149.222C136.698 149.222 136.289 149.066 136.128 149.476C135.997 149.811 135.068 152.366 134.958 152.682C134.846 152.994 135.003 153.24 135.201 153.311C135.665 153.477 136.01 153.583 136.642 153.732C137.52 153.939 138.26 153.952 138.953 153.952C140.405 153.952 141.728 153.748 142.825 153.352C143.929 152.953 144.89 152.258 145.74 151.317C146.659 150.302 147.237 149.239 147.79 147.789C148.337 146.352 148.803 144.568 149.176 142.489L152.73 122.38H157.926C157.926 122.38 158.364 122.396 158.455 121.921L159.043 118.641C159.084 118.327 158.95 118.131 158.528 118.133H153.485C153.51 118.019 153.739 116.245 154.318 114.575C154.565 113.862 155.03 113.287 155.424 112.892C155.792 112.516 156.245 112.234 156.745 112.07C157.293 111.901 157.864 111.818 158.438 111.826C158.913 111.826 159.379 111.883 159.734 111.957C160.223 112.061 160.413 112.116 160.541 112.154C161.055 112.311 161.124 112.159 161.225 111.91L162.431 108.598C162.555 108.242 162.253 108.092 162.141 108.048ZM91.6671 142.165C91.6671 142.429 91.4791 142.644 91.2151 142.644H87.0321C86.7671 142.644 86.5791 142.429 86.5791 142.165V108.497C86.5791 108.234 86.7671 108.021 87.0321 108.021H91.2151C91.4791 108.021 91.6671 108.234 91.6671 108.497V142.165Z"
    fill="#FFFFFE"
  />
</svg>
