<svg role="img" viewBox="0 0 24 24" xmlns="http://www.w3.org/2000/svg">
  <title>Segment</title>
  <path
    d="M12 2C6.477 2 2 6.477 2 12s4.477 10 10 10 10-4.477 10-10S17.523 2 12 2zm3.5 14.5c-.97.97-2.282 1.5-3.682 1.5-1.4 0-2.712-.53-3.682-1.5l1.414-1.414c.6.6 1.405.914 2.268.914.863 0 1.668-.314 2.268-.914.6-.6.914-1.405.914-2.268 0-.863-.314-1.668-.914-2.268-.6-.6-1.405-.914-2.268-.914-.863 0-1.668.314-2.268.914L7.136 9.136C8.106 8.166 9.418 7.636 10.818 7.636c1.4 0 2.712.53 3.682 1.5.97.97 1.5 2.282 1.5 3.682 0 1.4-.53 2.712-1.5 3.682z"
    fill="#52BD95"
  />
</svg>
