<svg role="img" viewBox="0 0 122.7 142.8" xmlns="http://www.w3.org/2000/svg">
  <title>Shopify</title>
  <path
    d="M107.4 27.1c-.1-.7-.7-1.1-1.2-1.1s-10.4-.2-10.4-.2-8.3-8-9.1-8.9c-.8-.8-2.4-.6-3-.4 0 0-1.6.5-4.2 1.3-.4-1.4-1.1-3.1-2-4.9-2.9-5.6-7.3-8.6-12.5-8.6h0c-.4 0-.7 0-1.1.1-.2-.2-.3-.4-.5-.5C61.1 1.5 58.2.3 54.7.4 48 .6 41.3 5.5 35.8 14.1c-3.8 6.1-6.7 13.7-7.6 19.6-7.7 2.4-13.1 4.1-13.3 4.1-3.9 1.2-4 1.3-4.5 5C10.2 45.6 0 124.5 0 124.5l85.6 14.8 37.1-9.2s-15.1-102.3-15.3-103ZM75.2 19.2c-2 .6-4.2 1.3-6.6 2.1 0-3.4-.5-8.2-2-12.2 5.1.8 7.6 6.6 8.6 10.1Zm-11.1 3.4c-4.5 1.4-9.4 2.9-14.3 4.4 1.4-5.3 4-10.5 7.2-14 1.2-1.3 2.9-2.7 4.8-3.5 2 3.9 2.4 9.4 2.3 13.1ZM54.9 4.9c1.6 0 2.9.3 4 1.1-1.8.9-3.6 2.3-5.2 4.1-4.3 4.6-7.6 11.7-8.9 18.6-4.1 1.3-8.1 2.5-11.7 3.6C35.5 21.4 44.6 5.2 54.9 4.9Z"
    fill="#95BF47"
  />
  <path
    d="M106.2 26c-.5 0-10.4-.2-10.4-.2s-8.3-8-9.1-8.9c-.3-.3-.7-.5-1.1-.5v122.9l37.1-9.2s-15.1-102.3-15.2-103c-.2-.7-.8-1.1-1.3-1.1Z"
    fill="#5E8E3E"
  />
  <path
    d="m65 45.1-4.3 16.1s-4.8-2.2-10.5-1.8c-8.4.5-8.4 5.8-8.4 7.1.5 7.2 19.4 8.8 20.5 25.7.8 13.3-7 22.4-18.4 23.1C30.3 116 22.8 108 22.8 108l2.9-12.3s7.6 5.7 13.6 5.3c3.9-.2 5.4-3.5 5.2-5.7-.6-9.4-16-8.8-17-24.3-.8-13 7.7-26.1 26.5-27.3 7.3-.5 11 1.4 11 1.4Z"
    fill="#FFFFFF"
  />
</svg>
