<svg width="32" height="32" viewBox="0 0 42 43" fill="none" xmlns="http://www.w3.org/2000/svg">
  <path d="M27 30c0 1.3-.6 2.3-1.7 3a8 8 0 0 1-4.2 1c-2.3 0-4-.5-5.3-1.4-1.3-1.1-2-2.4-2-4L3 28.2c0 2.7.8 5.1 2.4 7.3 1.6 2.1 3.7 3.8 6.4 5 1.5.7 3 1.2 4.6 1.5l.3.1H0V.2h16.3a16.7 16.7 0 0 0-10.2 6A11 11 0 0 0 3.9 13c0 2.8.6 5 1.7 6.7 1.2 1.6 2.7 2.8 4.5 3.7 1.8.9 4.1 1.5 7 2.1 2.8.6 4.9 1 6.2 1.4 1.2.4 2.2.8 2.8 1.3.5.4.9 1 .9 1.9Z" fill="#0BB07D"/>
  <path d="M16.6 42.1h-.4.4ZM42 42.1H25c1.6-.2 3.2-.8 4.7-1.4a15 15 0 0 0 6.1-5c1.5-2.1 2.3-4.5 2.3-7 0-2.8-.6-4.9-1.7-6.5a10.3 10.3 0 0 0-4.6-3.6c-1.9-.8-4.2-1.5-7-2-2.9-.6-4.9-1-6.1-1.4a7.8 7.8 0 0 1-2.8-1.2c-.5-.5-.8-1.1-.8-2 0-1.2.5-2.2 1.4-2.8 1-.7 2.3-1 3.8-1 1.8 0 3.3.5 4.3 1.4 1 .9 1.6 2 1.8 3.5H37A12 12 0 0 0 35 6.2 16.8 16.8 0 0 0 24.6 0H42v42.1Z" fill="#383738"/>
</svg>
