<svg width="274" height="253" viewBox="0 0 274 253" fill="none" xmlns="http://www.w3.org/2000/svg">
<path d="M211.83 0.436221C219.54 -0.783748 227.69 0.466129 233.91 5.3161C238.3 8.73627 249.16 18.0962 252.21 20.5661C258.34 25.536 262.979 31.8459 264.349 39.6257L273.96 94.1559H273.95C276.75 110.076 266.079 125.386 250.189 128.286L247.08 128.866C247.69 130.536 248.2 132.276 248.51 134.076L257.929 187.566C260.769 203.576 250.029 218.886 234.019 221.726L62.4099 251.976C49.2399 254.296 44.0596 247.736 30.8796 235.996C19.5299 225.836 11.7302 220.566 9.53002 210.346L0.959706 161.736C-0.840294 151.396 -0.44045 145.475 5.04955 137.425C10.1096 129.986 18.4103 126.206 28.9001 124.346C28.3501 122.766 27.8693 121.146 27.5593 119.406L20.0593 76.8356C18.0493 65.4559 15.5198 54.326 24.0593 42.7663C31.4393 32.7963 41.0097 30.5656 52.9997 28.7956L211.83 0.436221ZM94.4099 174.725C92.2099 176.735 87.1797 179.395 81.9997 178.175C77.4897 177.105 74.2192 173.175 73.3992 168.595L68.7292 142.095L33.2898 148.345C27.9798 149.295 24.4191 154.356 25.3591 159.656L33.1697 203.906C34.1199 209.216 39.1795 212.785 44.4792 211.836V211.866L44.49 211.876L206.889 183.235C212.199 182.285 215.759 177.226 214.819 171.916L207.01 127.635C206.059 122.325 200.999 118.756 195.689 119.706C190.379 120.656 184.369 121.715 181.359 122.235C176.599 123.085 168.549 120.135 167.179 112.355L164.679 98.1755L94.4099 174.725ZM222.81 33.2556C221.86 27.9158 216.8 24.3859 211.46 25.3259L50.6804 53.9558C45.3704 54.9058 41.84 59.9663 42.78 65.2663L50.7703 110.556V110.596C51.7204 115.906 56.78 119.476 62.0798 118.526L76.4802 115.996C83.13 114.836 89.4402 119.256 90.6003 125.876L93.1003 140.056L163.37 63.5056C166.51 60.0857 171.33 58.7464 175.78 60.0563C180.23 61.3664 183.59 65.0865 184.38 69.6364L189.05 96.0759L222.93 89.9157C228.21 88.9355 231.739 83.906 230.8 78.6061L222.81 33.2556Z" fill="black"/>
</svg>
