<svg xmlns="http://www.w3.org/2000/svg" width="24" height="24" viewBox="-48 0 620 680" preserveAspectRatio="xMidYMid meet">
<g transform="translate(0.000000,680.000000) scale(0.100000,-0.100000)" fill="#6B7280" stroke="none">
<path d="M4579 6521 c-23 -19 -24 -23 -27 -210 l-3 -191 27 -25 c27 -25 28&#xA;-25 211 -25 220 0 238 5 248 74 4 24 5 114 3 200 -4 208 12 195 -244 196 -174&#xA;0 -194 -2 -215 -19z"/>
<path d="M3866 5919 l-26 -20 0 -279 0 -279 26 -20 c25 -20 39 -21 285 -21&#xA;257 0 258 0 286 24 l27 24 0 272 0 272 -28 24 -28 25 -258 -1 c-243 -1 -260&#xA;-2 -284 -21z"/>
<path d="M2764 5590 c-104 -27 -213 -86 -284 -152 -14 -13 -83 -71 -155 -129&#xA;-158 -127 -361 -293 -395 -323 -14 -12 -95 -77 -180 -146 -85 -68 -195 -158&#xA;-245 -198 -49 -41 -156 -127 -237 -193 -81 -65 -157 -127 -170 -138 -13 -11&#xA;-70 -57 -128 -103 -94 -75 -297 -239 -498 -401 -129 -105 -200 -216 -239 -372&#xA;-13 -53 -16 -1540 -3 -1630 27 -191 126 -311 400 -484 91 -58 208 -132 260&#xA;-166 52 -34 196 -127 320 -207 124 -80 286 -184 360 -233 74 -48 164 -107 200&#xA;-130 265 -172 340 -221 376 -246 128 -88 266 -132 419 -132 212 -1 336 61 610&#xA;305 17 14 84 70 151 125 66 54 147 121 180 150 32 28 107 91 165 140 288 239&#xA;405 337 414 348 6 6 78 67 160 135 83 68 157 130 166 139 9 9 25 23 35 31 11&#xA;8 75 62 144 120 173 145 171 144 184 156 9 9 101 86 291 244 131 110 195 200&#xA;232 331 17 60 18 114 15 803 -3 813 -1 796 -65 924 -61 122 -131 183 -404 353&#xA;-124 78 -229 145 -626 401 -169 109 -310 198 -313 198 -2 0 -10 5 -17 10 -7 6&#xA;-46 33 -87 59 -354 229 -514 329 -567 358 -131 71 -319 92 -469 53z m313 -234&#xA;c23 -8 356 -217 740 -463 384 -247 790 -507 903 -578 236 -150 297 -203 329&#xA;-290 19 -50 22 -74 19 -145 -8 -148 -36 -186 -304 -406 -87 -71 -379 -312&#xA;-649 -534 -960 -792 -1281 -1052 -1329 -1077 -70 -35 -177 -56 -257 -49 -133&#xA;12 -153 22 -769 426 -162 107 -477 312 -700 457 -223 144 -433 288 -467 318&#xA;-44 40 -72 75 -95 123 -30 60 -33 75 -33 157 0 152 50 249 191 369 39 34 266&#xA;219 505 411 238 193 530 428 649 524 578 467 909 728 946 745 23 10 57 22 75&#xA;27 49 12 197 3 246 -15z m-2206 -3028 c22 -12 56 -46 76 -75 31 -46 37 -62 37&#xA;-108 1 -49 -3 -58 -32 -87 -64 -65 -154 -37 -212 65 -23 40 -30 65 -30 105 0&#xA;54 19 106 42 115 30 12 83 5 119 -15z m519 -737 c44 -23 80 -90 80 -147 0 -79&#xA;-74 -133 -137 -101 -90 47 -131 159 -82 221 38 48 84 57 139 27z m677 -122&#xA;c88 -33 159 -164 133 -244 -33 -101 -157 -100 -235 2 -43 56 -59 104 -52 155&#xA;10 78 78 116 154 87z"/>
<path d="M2859 4906 c-112 -40 -158 -127 -125 -238 26 -92 96 -138 208 -138&#xA;125 1 199 63 206 175 6 98 -39 168 -127 200 -52 18 -113 19 -162 1z"/>
<path d="M3522 4304 c-101 -52 -117 -181 -33 -257 72 -65 176 -54 232 24 32&#xA;45 34 134 3 175 -50 67 -135 92 -202 58z"/>
<path d="M2087 4216 c-146 -61 -230 -185 -229 -339 1 -129 82 -256 200 -314&#xA;52 -26 67 -28 167 -28 102 0 114 2 168 29 140 72 221 223 197 372 -13 78 -45&#xA;140 -105 199 -74 75 -130 98 -245 102 -83 3 -102 1 -153 -21z"/>
<path d="M4125 3811 c-156 -39 -224 -176 -155 -311 41 -79 111 -115 218 -108&#xA;129 8 193 66 200 185 9 134 -60 218 -193 236 -22 3 -53 2 -70 -2z"/>
<path d="M3196 3430 c-64 -20 -125 -109 -126 -184 0 -50 33 -120 69 -145 98&#xA;-70 233 -35 282 74 66 144 -72 300 -225 255z"/>
<path d="M1159 3407 c-102 -54 -128 -180 -57 -280 61 -85 228 -90 309 -8 70&#xA;70 76 181 14 250 -59 65 -182 82 -266 38z"/>
<path d="M2177 2954 c-61 -19 -127 -83 -152 -147 -12 -33 -16 -65 -13 -111 8&#xA;-124 93 -212 217 -223 116 -11 209 36 255 128 69 140 -2 311 -148 354 -61 18&#xA;-97 18 -159 -1z"/>
<path d="M2911 2452 c-71 -36 -96 -114 -56 -176 48 -73 161 -74 209 -2 23 37&#xA;21 107 -6 141 -20 26 -73 55 -100 55 -7 0 -28 -8 -47 -18z"/>
<path d="M4814 5316 c-17 -13 -19 -30 -22 -200 -4 -244 -21 -226 218 -226 244&#xA;0 230 -13 230 223 0 232 15 217 -226 217 -140 0 -185 -3 -200 -14z"/>
</g>
</svg>
