<svg fill="none" height="33" viewBox="0 0 43 33" width="43" xmlns="http://www.w3.org/2000/svg">
  <path d="M26.2505 31.5322c-1.6698.0038-3.3295-.2603-4.9159-.7824-.3808-.1765-.6835-.4873-.8505-.873-.1669-.3858-.1866-.8196-.0551-1.2188.1315-.3993.4049-.7362.7682-.9466.3632-.2104.791-.2796 1.2018-.1943 1.2469.4241 2.5542.6424 3.8709.6465 3.2669-.0034 6.3991-1.3056 8.7092-3.6207 2.3101-2.3152 3.6094-5.4543 3.6128-8.7284v-12.34914h-12.322c-3.267.00343-6.3992 1.30558-8.7093 3.62076-2.3101 2.31517-3.6094 5.45428-3.6128 8.72838.0041 1.3196.2219 2.6297.6451 3.8793.1012.2192.155.4574.1579.6989s-.0451.481-.1411.7025c-.0959.2216-.2375.4204-.4154.5833-.178.1628-.3883.2862-.6172.3619-.2288.0757-.4711.102-.7108.0773-.2398-.0248-.4716-.1-.6803-.2209-.2087-.1208-.3895-.2845-.5306-.4803s-.2393-.4194-.2881-.6559c-.7716-2.3681-.9731-4.8856-.588-7.3468.385-2.4611 1.3457-4.79593 2.8035-6.81372s3.3714-3.66124 5.5842-4.796c2.2129-1.134772 4.6623-1.7286475 7.148-1.7331133h14.0252c.4534 0 .8883.1805053 1.2089.5018233s.5007.75712.5007 1.21153v14.05608c-.0239 4.179-1.7006 8.1779-4.6625 11.1196-2.9618 2.9417-6.9669 4.5859-11.1368 4.5722z" fill="#22ab59"/>
  <path d="M8.70286 33c-.87679.0044-1.7458-.1647-2.55727-.4976-.81146-.3328-1.54941-.8229-2.17155-1.4421l-3.477286-3.4849c-.158426-.1587-.284097-.3472-.369837-.5547-.0857403-.2074-.12986195-.4298-.12986195-.6543 0-.2246.04412165-.4469.12986195-.6543.08574-.2075.211411-.396.369837-.5548.158427-.1587.346512-.2847.553506-.3706.207-.086.42884-.1302.65289-.1302s.44592.0442.65291.1302c.207.0859.39506.2119.55349.3706l3.47728 3.485c.6134.6147 1.44533.96 2.3128.96s1.69937-.3453 2.31277-.96l21.1153-21.15522c.3235-.29723.749-.45781 1.1878-.44826.4388.00956.857.18851 1.1673.49954.3104.31103.489.73012.4985 1.16988s-.1507.86622-.4473 1.19046l-21.1088 21.1423c-.6195.6221-1.3557 1.1155-2.1661 1.4517s-1.67914.5086-2.55624.5073z" fill="#005924"/>
</svg>
