<svg xmlns="http://www.w3.org/2000/svg" viewBox="1 0.901 53.201 53.199">
  <path
    fill="#000000"
    d="M45.333 0.901H9.868C4.992 0.901 1 4.891 1 9.769v35.466C1 50.109 4.992 54.1 9.868 54.1h35.466c4.876 0 8.868-3.99 8.868-8.865V9.769C54.201 4.891 50.209 0.901 45.333 0.901M44.527 41.609c0 1.55-1.269 2.815-2.82 2.815H13.492c-1.55 0-2.82-1.266-2.82-2.815V13.395c0-1.55 1.27-2.82 2.82-2.82h28.215c1.551 0 2.82 1.27 2.82 2.82v28.214zM34.857 33.143c0 0.889-0.726 1.612-1.61 1.612H21.962c-0.887 0-1.61-0.724-1.61-1.612V21.859c0-0.887 0.723-1.611 1.61-1.611h11.284c0.885 0 1.61 0.725 1.61 1.611v11.284z"
  />
</svg>
