<svg xmlns="http://www.w3.org/2000/svg" viewBox="0 0.299805 31.6997 31.6997">
  <rect y="0.299805" width="31.6997" height="31.6997" rx="5.65311" fill="#4945FF" />
  <path
    fill="#FFFFFF"
    fill-rule="evenodd"
    d="M21.9792 9.86237H11.1619V15.2657H16.576C16.6632 15.2657 16.734 15.3364 16.734 15.4237V20.8374H22.1372V10.0204C22.1372 9.93311 22.0665 9.86237 21.9792 9.86237Z"
    clip-rule="evenodd"
  />
  <path
    fill="#FFFFFF"
    fill-rule="evenodd"
    d="M11.1629 9.86224V15.2654H5.95038C5.87999 15.2654 5.84474 15.1803 5.89452 15.1305L11.1629 9.86224Z"
    clip-rule="evenodd"
    opacity="0.42"
  />
  <path
    fill="#FFFFFF"
    fill-rule="evenodd"
    d="M16.8694 26.1055C16.8197 26.1553 16.7346 26.1201 16.7346 26.0497V20.8373H22.1378L16.8694 26.1055Z"
    clip-rule="evenodd"
    opacity="0.42"
  />
  <path
    fill="#FFFFFF"
    d="M11.1642 15.2656H16.6573C16.7009 15.2656 16.7363 15.3009 16.7363 15.3446V20.8375H11.3222C11.2349 20.8375 11.1642 20.7668 11.1642 20.6795V15.2656Z"
    opacity="0.42"
  />
</svg>
