<svg xmlns="http://www.w3.org/2000/svg" width="256" height="256" viewBox="0 0 109 113" fill="none"><defs><linearGradient id="a" x1="20.862%" x2="63.426%" y1="20.687%" y2="44.071%"><stop offset="0%" stop-color="#249361"/><stop offset="100%" stop-color="#3ECF8E"/></linearGradient><linearGradient id="b" x1="1.991%" x2="21.403%" y1="-13.158%" y2="34.708%"><stop offset="0%"/><stop offset="100%" stop-opacity="0"/></linearGradient></defs><path fill="url(#a)" d="M63.708 110.284c-2.86 3.601-8.658 1.628-8.727-2.97l-1.007-67.251h45.22c8.19 0 12.758 9.46 7.665 15.874L63.708 110.284Z"/><path fill="url(#b)" fill-opacity=".2" d="M63.708 110.284c-2.86 3.601-8.658 1.628-8.727-2.97l-1.007-67.251h45.22c8.19 0 12.758 9.46 7.665 15.874L63.708 110.284Z"/><path fill="#3ECF8E" d="M45.317 2.071C48.177-1.528 53.975.443 54.044 5.04l.443 67.252H9.81c-8.19 0-12.759-9.46-7.665-15.875L45.317 2.071Z"/></svg>
