<?xml version="1.0" encoding="UTF-8"?> <svg xmlns="http://www.w3.org/2000/svg" width="16" height="24" viewBox="0 0 16 24" fill="none"><path d="M0.564089 20.7262L3.26487 23.427C3.39905 23.5612 3.61658 23.5612 3.75075 23.427L6.45154 20.7262C6.58571 20.592 6.58571 20.3745 6.45154 20.2403L3.75075 17.5395C3.61658 17.4054 3.39905 17.4054 3.26487 17.5395L0.564091 20.2403C0.429919 20.3745 0.429917 20.592 0.564089 20.7262Z" fill="#62B664"></path><path d="M4.93128 16.359L7.63206 19.0598C7.76623 19.194 7.98377 19.194 8.11794 19.0598L10.8187 16.359C10.9529 16.2248 10.9529 16.0073 10.8187 15.8731L8.11794 13.1723C7.98377 13.0382 7.76623 13.0382 7.63206 13.1723L4.93127 15.8731C4.7971 16.0073 4.7971 16.2248 4.93128 16.359Z" fill="#62B664"></path><path d="M9.29065 11.9977L11.9914 14.6985C12.1256 14.8326 12.3431 14.8326 12.4773 14.6985L15.1781 11.9977C15.3123 11.8635 15.3123 11.646 15.1781 11.5118L12.4773 8.81102C12.3431 8.67685 12.1256 8.67685 11.9914 8.81102L9.29065 11.5118C9.15648 11.646 9.15648 11.8635 9.29065 11.9977Z" fill="#62B664"></path><path d="M0.642214 12.0778L3.343 14.7785C3.47717 14.9127 3.69471 14.9127 3.82888 14.7785L6.52966 12.0778C6.66383 11.9436 6.66383 11.7261 6.52966 11.5919L3.82888 8.8911C3.69471 8.75693 3.47717 8.75692 3.343 8.89109L0.642211 11.5919C0.508039 11.7261 0.508042 11.9436 0.642214 12.0778Z" fill="#62B664"></path><path d="M5.0094 7.71448L7.71019 10.4153C7.84436 10.5494 8.06189 10.5494 8.19607 10.4153L10.8968 7.71448C11.031 7.58031 11.031 7.36277 10.8969 7.2286L8.19607 4.52782C8.06189 4.39364 7.84436 4.39365 7.71019 4.52782L5.0094 7.2286C4.87523 7.36277 4.87523 7.58031 5.0094 7.71448Z" fill="#62B664"></path><path d="M0.728152 3.42932L3.42893 6.1301C3.5631 6.26428 3.78064 6.26428 3.91482 6.13011L6.6156 3.42932C6.74977 3.29515 6.74977 3.07761 6.6156 2.94344L3.91482 0.24266C3.78064 0.108488 3.5631 0.108485 3.42893 0.242657L0.728149 2.94344C0.593977 3.07761 0.59398 3.29515 0.728152 3.42932Z" fill="#62B664"></path></svg> 