<svg xmlns="http://www.w3.org/2000/svg" viewBox="0 0 48 48" role="img" aria-label="TikTok Ads logo">
  <rect width="48" height="48" rx="10" fill="#050505"/>
  <path d="M29.3 8.5c1.1 5.4 4.4 8.3 9.2 8.7v7.1c-3.4.1-6.4-.9-9-2.8v10.3c0 8.1-5.4 12.7-12.1 12.7-6 0-10.6-4.1-10.6-9.9 0-6.3 5.1-10.3 11.7-10.1.7 0 1.3.1 1.9.2v7.3c-.6-.2-1.2-.3-1.9-.3-2.4 0-4.1 1.2-4.1 3.1 0 1.8 1.5 3 3.4 3 2.3 0 4.1-1.4 4.1-4.9V8.5h7.4Z" fill="#25F4EE"/>
  <path d="M32.1 8.5c1 4.6 3.9 7 8.5 7.5v6.5c-3.3.1-6.2-.8-8.6-2.7v10.3c0 8.1-5.4 12.7-12.1 12.7-3.4 0-6.4-1.3-8.4-3.5 1.9 1.2 4.2 1.9 6.7 1.9 6.7 0 12.1-4.6 12.1-12.7V18.2c2.4 1.9 5.3 2.8 8.6 2.7v-3.6c-4.6-.5-7.5-4.2-8.5-8.8h1.7Z" fill="#FE2C55"/>
  <path d="M27.2 8.5c1.1 5.4 4.4 8.3 9.2 8.7v4.7c-3.4.1-6.4-.9-9-2.8v10.3c0 8.1-5.4 12.7-12.1 12.7-2.7 0-5.2-.8-7.1-2.3 2 2.8 5.5 4.7 9.6 4.7 6.7 0 12.1-4.6 12.1-12.7V21.5c2.6 1.9 5.6 2.9 9 2.8v-7.1c-4.8-.4-8.1-3.3-9.2-8.7h-2.5Zm-8.8 16c-6.6-.2-11.7 3.8-11.7 10.1 0 2.6.9 4.9 2.5 6.6-1-1.5-1.5-3.2-1.5-5.1 0-6.3 5.1-10.3 11.7-10.1.7 0 1.3.1 1.9.2v-1.5c-.9-.1-1.9-.2-2.9-.2Zm-.1 7.2c-2.4 0-4.1 1.2-4.1 3.1 0 .9.4 1.7 1 2.2-.1-.3-.2-.6-.2-1 0-1.9 1.7-3.1 4.1-3.1.7 0 1.3.1 1.9.3v-1.2c-.8-.2-1.7-.3-2.7-.3Z" fill="#fff"/>
</svg>
