<svg width="273" height="273" viewBox="0 0 273 273" fill="none" xmlns="http://www.w3.org/2000/svg">
<mask id="mask0_10_265" style="mask-type:luminance" maskUnits="userSpaceOnUse" x="0" y="83" width="273" height="107">
<path d="M273 83H0V189.91H273V83Z" fill="white"/>
</mask>
<g mask="url(#mask0_10_265)">
<path d="M43.9116 156.019C42.2771 156.494 40.5961 156.714 38.8921 156.68C36.7706 156.807 34.684 156.135 33.0264 154.803C31.4613 153.135 30.6846 150.865 30.9165 148.583V124.305H48.9195V109.699H30.9165V90.4951L10.3632 96.1707V109.699H-0.0351562V124.317H10.3516V151.977C10.2357 155.915 11.221 159.807 13.1917 163.212C15.0349 166.05 17.7476 168.216 20.9354 169.374C24.7493 170.741 28.7835 171.401 32.8408 171.309C36.0171 171.309 39.1934 170.903 42.2654 170.104C44.9896 169.455 47.5747 168.309 49.8816 166.722L47.7022 154.039C46.5778 154.919 45.2911 155.591 43.9116 156.019Z" fill="#1D1DFF"/>
<path d="M84.5773 156.922C82.908 157.096 81.2503 156.47 80.1027 155.231C79.0594 153.529 78.5958 151.536 78.7812 149.556V84.0891H58.228V152.208C58.228 158.972 59.6771 163.837 62.5752 166.826C65.4733 169.802 70.1449 171.297 76.6018 171.297C78.9203 171.285 81.2387 171.007 83.4876 170.451C85.4816 170.023 87.3943 169.293 89.1679 168.274L90.4894 155.961C89.3649 156.285 88.3912 156.528 87.5913 156.691C86.6059 156.853 85.5859 156.934 84.5773 156.922Z" fill="#1D1DFF"/>
<path d="M102.233 127.444C104.702 129.483 107.855 130.514 111.054 130.34C114.277 130.537 117.453 129.495 119.934 127.444C122.125 125.383 123.296 122.475 123.133 119.475C123.307 116.441 122.136 113.475 119.934 111.379C117.442 109.329 114.277 108.286 111.054 108.483C107.855 108.31 104.702 109.34 102.233 111.379C99.9952 113.452 98.8013 116.418 98.9752 119.475C98.8128 122.487 100.007 125.406 102.233 127.444Z" fill="#1D1DFF"/>
<path d="M118.056 151.363C115.876 149.927 113.291 149.209 110.683 149.313C108.631 149.301 106.614 149.753 104.759 150.645C102.939 151.502 101.398 152.834 100.285 154.514C99.0906 156.436 98.4994 158.66 98.5921 160.919C98.511 162.888 99.0326 164.822 100.099 166.479C101.038 167.869 102.336 168.992 103.843 169.733C105.211 170.428 106.718 170.799 108.26 170.822C109.118 170.845 109.964 170.764 110.799 170.579C111.367 170.452 111.9 170.208 112.364 169.849L112.967 170.208C112.167 172.015 111.089 173.683 109.767 175.154C108.283 176.822 106.626 178.328 104.806 179.625C102.881 181.003 100.795 182.15 98.5806 183.007L106.915 189.169C110.01 187.791 112.827 185.845 115.192 183.424C117.743 180.864 119.829 177.888 121.359 174.61C122.913 171.343 123.713 167.776 123.713 164.162C123.747 161.614 123.272 159.089 122.321 156.737C121.464 154.571 119.98 152.707 118.056 151.363Z" fill="#1D1DFF"/>
<path d="M177.166 120.02C176.041 117.622 174.511 115.409 172.633 113.498C169.097 110.081 164.31 108.263 159.395 108.483C154.711 108.39 150.097 109.699 146.156 112.224C142.204 114.877 139.097 118.606 137.219 122.973C134.935 128.394 133.845 134.243 134.019 140.127C133.869 145.884 134.923 151.594 137.103 156.923C138.888 161.266 141.914 164.984 145.808 167.614C149.716 170.115 154.283 171.401 158.92 171.297C162.525 171.355 166.072 170.498 169.26 168.807C172.297 167.15 174.871 164.764 176.761 161.857C177.467 160.756 178.082 159.598 178.603 158.405L179.356 170.069H197.731V84.0779H177.177V120.02H177.166ZM175.833 148.71C175.149 150.911 173.816 152.869 172.031 154.328C170.303 155.602 168.205 156.262 166.061 156.204C162.803 156.343 159.673 154.872 157.703 152.278C155.685 149.66 154.676 145.537 154.676 139.896C154.676 134.266 155.709 130.131 157.761 127.514C159.755 124.919 162.896 123.46 166.164 123.587C168.309 123.529 170.42 124.189 172.147 125.464C173.908 126.865 175.207 128.753 175.891 130.896C176.794 133.687 177.224 136.606 177.166 139.537C177.236 142.641 176.783 145.745 175.833 148.71Z" fill="#1D1DFF"/>
<path d="M251.739 109.699L239.045 155.706L226.595 109.699H204.952L226.711 170.081H251.251L273.009 109.699H251.739Z" fill="#1D1DFF"/>
</g>
</svg>
