<svg width="64" height="64" viewBox="0 0 64 64" fill="none" xmlns="http://www.w3.org/2000/svg">
  <circle cx="32" cy="32" r="32" fill="#1D1DFF"/>
  <circle cx="32" cy="19" r="7" fill="#FFFFFF"/>
  <path d="M26.3789 15.275C25.8919 14.9541 25.3143 14.7937 24.7315 14.8169C24.2731 14.8144 23.8224 14.9153 23.4079 15.1146C23.0013 15.3061 22.6568 15.6037 22.4081 15.979C22.1413 16.4086 22.0092 16.9055 22.0299 17.4102C22.0118 17.8502 22.1284 18.2824 22.3667 18.6525C22.5765 18.9631 22.8666 19.2141 23.2033 19.3798C23.5089 19.5351 23.8457 19.6179 24.1902 19.6231C24.3818 19.6282 24.5709 19.6101 24.7574 19.5687C24.8843 19.5402 25.0035 19.4859 25.1071 19.4057L25.2418 19.4859C25.0631 19.8896 24.8222 20.2623 24.5269 20.591C24.1953 20.9637 23.8249 21.3001 23.4183 21.59C22.9883 21.898 22.5221 22.1542 22.0273 22.3457L23.8897 23.7226C24.5813 23.4146 25.2107 22.9798 25.7391 22.4389C26.309 21.8669 26.7752 21.2018 27.1171 20.4694C27.4642 19.7395 27.6429 18.9424 27.6429 18.1349C27.6507 17.5655 27.5445 17.0013 27.3321 16.4759C27.1404 15.9919 26.8089 15.5753 26.3789 15.275Z" fill="#FFFFFF" transform="matrix(2.48 0 0 2.576 -29.27 -7.757)"/>
</svg>
