<svg width="40" height="40" viewBox="0 0 40 40" fill="none" xmlns="http://www.w3.org/2000/svg">
<path d="M23.4424 10H32.9899C34.8491 10 36.6322 10.7421 37.9468 12.0631C39.2614 13.384 40 15.1756 40 17.0438V26.1921H36.0776V17.0438C36.0776 16.9501 36.0736 16.8565 36.0665 16.7648L26.519 26.1911L26.6152 26.1931L36.0776 26.1921V29.9138H26.6172C22.7449 29.9138 19.521 26.7298 19.521 22.8399V13.7147H23.4424V22.8399C23.4424 23.0151 23.4554 23.1893 23.4825 23.3595L33.2395 13.7258C33.1561 13.719 33.0725 13.7156 32.9889 13.7157H23.4424V10ZM13.7987 29.2291L0 13.7137H5.55194L13.6524 22.8228V13.7137H17.7913V27.6975C17.7913 29.8081 15.1977 30.802 13.7987 29.2281V29.2291Z" fill="black"/>
</svg>
