<svg width="24" height="24" viewBox="-1 -1 20 22" fill="none" xmlns="http://www.w3.org/2000/svg">
<path d="M8.91748 0.041822C8.82023 -0.0140103 8.70051 -0.0139359 8.60334 0.0420172L0.669434 4.61024C0.461068 4.73021 0.459536 5.02957 0.666663 5.15166L8.60057 9.82816C8.69914 9.88627 8.8216 9.88634 8.92025 9.82837L16.877 5.15186C17.0846 5.02986 17.0831 4.72994 16.8743 4.61005L8.91748 0.041822Z" fill="#ED4E01"/>
<path d="M0.473122 5.55579L8.42231 10.173C8.51985 10.2296 8.57993 10.3343 8.57993 10.4476L8.57974 19.6824C8.57974 19.9265 8.31698 20.0791 8.10679 19.957L0.157613 15.3397C0.0600783 15.283 -2.30427e-06 15.1783 0 15.0651L0.000187838 5.83041C0.000192804 5.58629 0.262936 5.43372 0.473122 5.55579Z" fill="#ED4E01"/>
<path d="M16.6123 14.4514C16.6123 14.6337 16.5156 14.8024 16.3583 14.8943L10.7945 18.146C10.4531 18.3455 10.0241 18.099 10.0241 17.7031L10.0239 11.1894C10.0239 11.0071 10.1206 10.8385 10.2779 10.7466L15.8417 7.49493C16.1832 7.29536 16.6122 7.54194 16.6122 7.9378L16.6123 14.4514ZM9.09235 10.895V19.6852C9.09235 19.9234 9.34315 20.0737 9.54848 19.9629L9.55824 19.9574L17.0318 15.5769C17.48 15.3205 17.544 15.1282 17.5439 14.7458L17.5439 5.95581C17.5438 5.71385 17.285 5.56262 17.078 5.68361L9.6044 10C9.34828 10.1923 9.09216 10.3846 9.09235 10.895Z" fill="#ED4E01"/>
<path d="M17.2879 7.05327L10.1293 18.9744L9.47634 18.5878L16.635 6.66667L17.2879 7.05327Z" fill="#ED4E01"/>
</svg>
