<svg width="48" height="48" viewBox="0 0 48 48" fill="none" xmlns="http://www.w3.org/2000/svg">
  <rect width="48" height="48" rx="11" fill="#4CA2F5"/>
  <g fill="#FFFFFF">
    <path d="M24 16.5C20 14 14.3 13.4 9.8 14.4C9 14.6 8.4 15.3 8.4 16.1L8.4 31.5C8.4 32.5 9.4 33.2 10.4 33C14.3 32.2 19.5 32.7 23.1 34.8C23.5 35 24 34.7 24 34.3Z"/>
    <path d="M24 16.5C28 14 33.7 13.4 38.2 14.4C39 14.6 39.6 15.3 39.6 16.1L39.6 31.5C39.6 32.5 38.6 33.2 37.6 33C33.7 32.2 28.5 32.7 24.9 34.8C24.5 35 24 34.7 24 34.3Z"/>
  </g>
  <path d="M24 16.8L24 34" stroke="#4CA2F5" stroke-width="1.8" stroke-linecap="round"/>
  <g stroke="#9BC8F7" stroke-width="1.6" stroke-linecap="round">
    <path d="M12.6 19.4C15 18.9 17.8 18.9 20.4 19.7"/>
    <path d="M12.6 24.1C15 23.6 17.8 23.6 20.4 24.4"/>
    <path d="M27.6 19.7C30.2 18.9 33 18.9 35.4 19.4"/>
    <path d="M27.6 24.4C30.2 23.6 33 23.6 35.4 24.1"/>
  </g>
</svg>
