<svg xmlns="http://www.w3.org/2000/svg" viewBox="0 0 114 115" width="114" height="115">
  <path fill="#89d4f7" d="m113.97 24.18c-0.95 2.27-2.59 7.98-24.2 43.53-21.61 35.55-29.72 45.02-29.72 45.02q-0.48 0.74-1.25 1.17-0.78 0.43-1.66 0.43-0.88 0-1.66-0.43-0.77-0.43-1.25-1.17c0 0-8.22-9.48-29.73-45.02-21.54-35.53-23.39-41.49-24.19-43.53-0.8-2.04-0.13-4.15 2.92-4.76 0.9-0.19 2.72-0.62 5.79-1.16 3.14 5.87 8.48 15.28 17.78 30.64 20.01 33.03 27.63 41.85 27.63 41.85q0.44 0.69 1.17 1.09 0.73 0.39 1.55 0.39 0.82-0.01 1.55-0.4 0.71-0.4 1.16-1.1c0 0 7.56-8.8 27.63-41.85 9.37-15.43 14.72-24.81 17.82-30.65 3.12 0.54 4.96 0.99 5.77 1.17 2.73 0.6 3.84 2.52 2.9 4.79z"/>
  <path fill="#2c68f5" d="m109.96 8.41q-2.02 5.06-4.68 9.82c-3.1 5.84-8.44 15.21-17.81 30.65-20.08 33.05-27.61 41.85-27.61 41.85-0.29 0.45-0.69 0.83-1.16 1.09q-0.72 0.39-1.54 0.39-0.82-0.01-1.54-0.39-0.71-0.4-1.16-1.09c0 0-7.62-8.82-27.63-41.85-9.3-15.35-14.64-24.77-17.78-30.64q-2.7-4.74-4.7-9.83c-0.77-1.91-0.12-3.86 2.7-4.45 2.82-0.59 15.89-3.96 50.13-3.96 34.24 0 47.57 3.4 50.13 3.96 2.56 0.56 3.57 2.34 2.68 4.45z"/>
</svg>
