<svg
  xmlns="http://www.w3.org/2000/svg"
  width="300"
  height="300"
  viewBox="0 0 300 300"
  fill="none"
  role="img"
  aria-label="ZeptoMail logo"
>
  <title>ZeptoMail</title>
  <path
    fill="#226DB4"
    d="m294.65,66.92L222.18,6.03c-3.87-3.25-9.13-3.95-13.71-1.81-4.58,2.14-7.43,6.61-7.43,11.66v24.16H67.37c-14.19,0-25.74,11.54-25.74,25.74v122.86l-24.83,20.69c-2.93,2.45-4.62,6.04-4.63,9.86,0,3.82,1.67,7.42,4.59,9.88l72.47,60.88c2.39,2,5.29,3.04,8.24,3.04,1.84,0,3.71-.4,5.47-1.23,4.58-2.14,7.43-6.61,7.43-11.66v-24.16h133.66c14.19,0,25.74-11.54,25.74-25.74v-122.86l24.82-20.69c2.94-2.45,4.62-6.04,4.63-9.86,0-3.82-1.66-7.42-4.59-9.88Zm-88.25,70.93c-3.64,3.03-4.13,8.44-1.1,12.08,3.03,3.64,8.44,4.13,12.08,1.1l35.25-29.38v108.56c0,4.73-3.85,8.58-8.58,8.58H101.82c-4.74,0-8.58,3.84-8.58,8.58v23.54l-61.5-51.67,73.29-61.09c3.64-3.03,4.13-8.44,1.1-12.08-3.03-3.64-8.44-4.13-12.08-1.1l-35.25,29.38v-108.56c0-4.73,3.85-8.58,8.58-8.58h142.24c4.74,0,8.58-3.84,8.58-8.58v-23.54l61.5,51.67-73.29,61.09Z"
  />
  <path
    fill="#F9B21D"
    d="m205.25,96.03h-99.36c-7.09,0-12.87,5.77-12.87,12.87v78.2c0,7.09,5.77,12.87,12.87,12.87h99.35c7.1,0,12.87-5.77,12.87-12.87v-78.2c0-7.09-5.77-12.87-12.87-12.87Zm-9.13,17.16l-40.55,33.66-40.55-33.66h81.1Zm-85.94,69.62v-51.33l38.08,31.61c2.12,1.76,4.71,2.64,7.31,2.64s5.19-.88,7.31-2.64l38.09-31.62v51.33h-90.78Z"
  />
</svg>
