<svg xmlns="http://www.w3.org/2000/svg" width="24" height="24" viewBox="0 0 290 290" fill="none">
  <path d="M282.5,63.9L210,3c-3.9-3.2-9.1-4-13.7-1.8s-7.4,6.6-7.4,11.7V37H55.2C41,37,29.4,48.6,29.4,62.8v122.9L4.6,206.3c-2.9,2.5-4.6,6.1-4.6,9.9c0,3.8,1.7,7.4,4.6,9.9L77.1,287c2.4,2,5.3,3,8.2,3c1.8,0,3.7-0.4,5.5-1.2c4.6-2.1,7.4-6.6,7.4-11.7v-24.2h133.7c14.2,0,25.7-11.5,25.7-25.7V104.3l24.8-20.7c2.9-2.4,4.6-6,4.6-9.9C287.1,70,285.4,66.4,282.5,63.9z M194.2,134.9c-3.6,3-4.1,8.4-1.1,12.1s8.4,4.1,12.1,1.1l35.2-29.4v108.6c0,4.7-3.9,8.6-8.6,8.6H89.6c-4.7,0-8.6,3.8-8.6,8.6v23.5l-61.5-51.7l73.3-61.1c3.6-3,4.1-8.4,1.1-12.1s-8.4-4.1-12.1-1.1l-35.2,29.4V62.8c0-4.7,3.8-8.6,8.6-8.6h142.2c4.7,0,8.6-3.8,8.6-8.6V22.1l61.5,51.7L194.2,134.9z" fill="#226DB4"/>
  <path d="M193.1,93H93.7c-7.1,0-12.9,5.8-12.9,12.9v78.2c0,7.1,5.8,12.9,12.9,12.9h99.3c7.1,0,12.9-5.8,12.9-12.9v-78.2C205.9,98.8,200.2,93,193.1,93z M183.9,110.2l-40.6,33.7l-40.6-33.7H183.9z M98,179.8v-51.3l38.1,31.6c2.1,1.8,4.7,2.6,7.3,2.6s5.2-0.9,7.3-2.6l38.1-31.6v51.3H98z" fill="#F9B21D"/>
</svg>
