<svg preserveAspectRatio="none" width="100%" height="100%" overflow="visible" style="display: block;" viewBox="0 0 81.7544 20" fill="none" xmlns="http://www.w3.org/2000/svg">
<g id="Logo_white">
<g id="Vector">
<path d="M81.7544 16.5145C81.7544 16.8707 81.6846 17.21 81.5452 17.5324C81.4057 17.8462 81.2139 18.1219 80.9698 18.3594C80.7257 18.5969 80.438 18.7835 80.1068 18.9192C79.7842 19.055 79.4399 19.1228 79.0738 19.1228H69.6982C69.332 19.1228 68.9833 19.055 68.6521 18.9192C68.3295 18.7835 68.0462 18.5969 67.8021 18.3594C67.558 18.1219 67.3662 17.8462 67.2268 17.5324C67.0873 17.21 67.0175 16.8707 67.0175 16.5145V3.48553C67.0175 3.12927 67.0873 2.79421 67.2268 2.48037C67.3662 2.15803 67.558 1.88236 67.8021 1.65333C68.0462 1.41583 68.3295 1.22921 68.6521 1.0935C68.9833 0.949295 69.332 0.877194 69.6982 0.877194H79.0738C79.4399 0.877194 79.7842 0.949295 80.1068 1.0935C80.438 1.22921 80.7257 1.41583 80.9698 1.65333C81.2139 1.88236 81.4057 2.15803 81.5452 2.48037C81.6846 2.79421 81.7544 3.12927 81.7544 3.48553V16.5145ZM70.3999 3.48553C70.0123 3.48553 69.6982 3.79971 69.6982 4.18728V16.5145H78.372C78.7596 16.5145 79.0738 16.2003 79.0738 15.8127V3.48553H70.3999Z" fill="var(--fill-0, black)"/>
<path d="M78.2499 2.48037L80.325 3.64611L70.4771 17.5324L68.402 16.3666L78.2499 2.48037Z" fill="var(--fill-0, black)"/>
</g>
<path id="Vector_2" d="M52.5997 19.1228L45.7735 5.75033V19.1228H43.1579V0.877194H46.016L52.9825 14.6187L59.9617 0.877194H62.807V19.1228H60.2041V5.75033L53.378 19.1228H52.5997Z" fill="var(--fill-0, black)"/>
<path id="Vector_3" d="M29.0975 19.1228L22.1053 0.877194H24.887L30.5263 15.891L36.1783 0.877194H38.9474L31.9551 19.1228H29.0975Z" fill="var(--fill-0, black)"/>
<g id="Vector_4">
<path d="M8.91748 0.041822C8.82023 -0.0140103 8.70051 -0.0139359 8.60334 0.0420172L0.669434 4.61024C0.461068 4.73021 0.459536 5.02957 0.666663 5.15166L8.60057 9.82816C8.69914 9.88627 8.8216 9.88634 8.92025 9.82837L16.877 5.15186C17.0846 5.02986 17.0831 4.72994 16.8743 4.61005L8.91748 0.041822Z" fill="var(--fill-0, #ED4E01)"/>
<path d="M0.473122 5.55579L8.42231 10.173C8.51985 10.2296 8.57993 10.3343 8.57993 10.4476L8.57974 19.6824C8.57974 19.9265 8.31698 20.0791 8.10679 19.957L0.157613 15.3397C0.0600783 15.283 -2.30427e-06 15.1783 0 15.0651L0.000187838 5.83041C0.000192804 5.58629 0.262936 5.43372 0.473122 5.55579Z" fill="var(--fill-0, #ED4E01)"/>
<path d="M16.6123 14.4514C16.6123 14.6337 16.5156 14.8024 16.3583 14.8943L10.7945 18.146C10.4531 18.3455 10.0241 18.099 10.0241 17.7031L10.0239 11.1894C10.0239 11.0071 10.1206 10.8385 10.2779 10.7466L15.8417 7.49493C16.1832 7.29536 16.6122 7.54194 16.6122 7.9378L16.6123 14.4514ZM9.09235 10.895V19.6852C9.09235 19.9234 9.34315 20.0737 9.54848 19.9629L9.55824 19.9574L17.0318 15.5769C17.48 15.3205 17.544 15.1282 17.5439 14.7458L17.5439 5.95581C17.5438 5.71385 17.285 5.56262 17.078 5.68361L9.6044 10C9.34828 10.1923 9.09216 10.3846 9.09235 10.895Z" fill="var(--fill-0, #ED4E01)"/>
<path d="M17.2879 7.05327L10.1293 18.9744L9.47634 18.5878L16.635 6.66667L17.2879 7.05327Z" fill="var(--fill-0, #ED4E01)"/>
</g>
</g>
</svg>
