<svg width="40" height="40" viewBox="0 0 40 40" fill="none" xmlns="http://www.w3.org/2000/svg">
<rect x="0.5" y="0.5" width="39" height="39" rx="9.5" fill="white"/>
<rect x="0.5" y="0.5" width="39" height="39" rx="9.5" stroke="#E1DBD5"/>
<path d="M2 14.8C2 10.3196 2 8.07937 2.87195 6.36808C3.63893 4.86278 4.86278 3.63893 6.36808 2.87195C8.07937 2 10.3196 2 14.8 2H25.2C29.6804 2 31.9206 2 33.6319 2.87195C35.1372 3.63893 36.3611 4.86278 37.1281 6.36808C38 8.07937 38 10.3196 38 14.8V24H2V14.8Z" fill="#F0EBE5"/>
<path d="M2.5 20H37.5V25.2C37.5 27.4486 37.4995 29.1052 37.3926 30.4141C37.2861 31.7169 37.0767 32.6319 36.6826 33.4053C35.9636 34.8163 34.8163 35.9636 33.4053 36.6826C32.6319 37.0767 31.7169 37.2861 30.4141 37.3926C29.1052 37.4995 27.4486 37.5 25.2002 37.5H14.7998C12.5514 37.5 10.8948 37.4995 9.58594 37.3926C8.28305 37.2861 7.36806 37.0767 6.59473 36.6826C5.18371 35.9636 4.0364 34.8163 3.31738 33.4053C2.92335 32.6319 2.7139 31.7169 2.60742 30.4141C2.50048 29.1052 2.5 27.4486 2.5 25.2002V20Z" fill="#0F766E" stroke="#0F766E"/>
<path d="M10.5 15.8C12.3 15.8 12.3 12.2 14.1 12.2C15.9 12.2 15.9 19.8 17.7 19.8C19.5 19.8 19.5 11 21.3 11C23.1 11 23.1 19.8 24.9 19.8C26.7 19.8 26.7 14.2 29.5 14.2" stroke="#0F766E" stroke-width="2" stroke-linecap="round"/>
<rect x="10" y="27" width="2.2" height="5" rx="1.1" fill="white" fill-opacity="0.95"/>
<rect x="14.8" y="25" width="2.2" height="9" rx="1.1" fill="white" fill-opacity="0.95"/>
<rect x="19.6" y="23" width="2.2" height="13" rx="1.1" fill="white" fill-opacity="0.95"/>
<rect x="24.4" y="25" width="2.2" height="9" rx="1.1" fill="white" fill-opacity="0.95"/>
<rect x="29.2" y="27" width="2.2" height="5" rx="1.1" fill="white" fill-opacity="0.95"/>
</svg>
