<svg width="40" height="40" viewBox="0 0 40 40" fill="none" xmlns="http://www.w3.org/2000/svg">
<rect x="0.5" y="0.5" width="39" height="39" rx="9.5" fill="white"/>
<rect x="0.5" y="0.5" width="39" height="39" rx="9.5" stroke="#E1DBD5"/>
<path d="M2 24.8C2 25.9201 2 26.4802 2.21799 26.908C2.40973 27.2843 2.71569 27.5903 3.09202 27.782C3.51984 28 4.0799 28 5.2 28H34.8C35.9201 28 36.4802 28 36.908 27.782C37.2843 27.5903 37.5903 27.2843 37.782 26.908C38 26.4802 38 25.9201 38 24.8V14.8C38 10.3196 38 8.07937 37.1281 6.36808C36.3611 4.86278 35.1372 3.63893 33.6319 2.87195C31.9206 2 29.6804 2 25.2 2H14.8C10.3196 2 8.07937 2 6.36808 2.87195C4.86278 3.63893 3.63893 4.86278 2.87195 6.36808C2 8.07937 2 10.3196 2 14.8V24.8Z" fill="#F0EBE5"/>
<path d="M5.2002 19.5H34.7998C35.3681 19.5 35.7648 19.5002 36.0732 19.5254C36.3753 19.5501 36.5491 19.5961 36.6807 19.6631C36.9629 19.8069 37.1931 20.0371 37.3369 20.3193C37.4039 20.4509 37.4499 20.6247 37.4746 20.9268C37.4998 21.2352 37.5 21.6319 37.5 22.2002V25.2002C37.5 27.4486 37.4995 29.1052 37.3926 30.4141C37.2861 31.7169 37.0767 32.6319 36.6826 33.4053C35.9636 34.8163 34.8163 35.9636 33.4053 36.6826C32.6319 37.0767 31.7169 37.2861 30.4141 37.3926C29.1052 37.4995 27.4486 37.5 25.2002 37.5H14.7998C12.5514 37.5 10.8948 37.4995 9.58594 37.3926C8.28305 37.2861 7.36806 37.0767 6.59473 36.6826C5.18371 35.9636 4.0364 34.8163 3.31738 33.4053C2.92335 32.6319 2.7139 31.7169 2.60742 30.4141C2.50048 29.1052 2.5 27.4486 2.5 25.2002V22.2002C2.5 21.6319 2.50019 21.2352 2.52539 20.9268C2.55009 20.6247 2.59613 20.4509 2.66309 20.3193C2.8069 20.0371 3.03709 19.8069 3.31934 19.6631C3.45091 19.5961 3.62471 19.5501 3.92676 19.5254C4.0809 19.5128 4.25731 19.5062 4.46582 19.5029L5.2002 19.5Z" fill="#D84E1F" stroke="#D84E1F"/>
<text x="20" y="31" text-anchor="middle" fill="white" font-family="Arial, sans-serif" font-size="8" font-weight="700" letter-spacing="0.5">HTML</text>
</svg>
