<svg width="40" height="40" viewBox="0 0 40 40" fill="none" xmlns="http://www.w3.org/2000/svg">
<rect x="0.5" y="0.5" width="39" height="39" rx="9.5" fill="white"/>
<rect x="0.5" y="0.5" width="39" height="39" rx="9.5" stroke="#E1DBD5"/>
<path d="M2 24.8C2 25.9201 2 26.4802 2.21799 26.908C2.40973 27.2843 2.71569 27.5903 3.09202 27.782C3.51984 28 4.0799 28 5.2 28H34.8C35.9201 28 36.4802 28 36.908 27.782C37.2843 27.5903 37.5903 27.2843 37.782 26.908C38 26.4802 38 25.9201 38 24.8V14.8C38 10.3196 38 8.07937 37.1281 6.36808C36.3611 4.86278 35.1372 3.63893 33.6319 2.87195C31.9206 2 29.6804 2 25.2 2H14.8C10.3196 2 8.07937 2 6.36808 2.87195C4.86278 3.63893 3.63893 4.86278 2.87195 6.36808C2 8.07937 2 10.3196 2 14.8V24.8Z" fill="#F0EBE5"/>
<path d="M5.2002 19.5H34.7998C35.3681 19.5 35.7648 19.5002 36.0732 19.5254C36.3753 19.5501 36.5491 19.5961 36.6807 19.6631C36.9629 19.8069 37.1931 20.0371 37.3369 20.3193C37.4039 20.4509 37.4499 20.6247 37.4746 20.9268C37.4998 21.2352 37.5 21.6319 37.5 22.2002V25.2002C37.5 27.4486 37.4995 29.1052 37.3926 30.4141C37.2861 31.7169 37.0767 32.6319 36.6826 33.4053C35.9636 34.8163 34.8163 35.9636 33.4053 36.6826C32.6319 37.0767 31.7169 37.2861 30.4141 37.3926C29.1052 37.4995 27.4486 37.5 25.2002 37.5H14.7998C12.5514 37.5 10.8948 37.4995 9.58594 37.3926C8.28305 37.2861 7.36806 37.0767 6.59473 36.6826C5.18371 35.9636 4.0364 34.8163 3.31738 33.4053C2.92335 32.6319 2.7139 31.7169 2.60742 30.4141C2.50048 29.1052 2.5 27.4486 2.5 25.2002V22.2002C2.5 21.6319 2.50019 21.2352 2.52539 20.9268C2.55009 20.6247 2.59613 20.4509 2.66309 20.3193C2.8069 20.0371 3.03709 19.8069 3.31934 19.6631C3.45091 19.5961 3.62471 19.5501 3.92676 19.5254C4.0809 19.5128 4.25731 19.5062 4.46582 19.5029L5.2002 19.5Z" fill="#395BFF" stroke="#395BFF"/>
<path d="M11.6585 32.5H8.70146V24.5H11.6546C12.4697 24.5 13.1715 24.6602 13.7601 24.9805C14.3512 25.2982 14.8069 25.7565 15.1272 26.3555C15.4476 26.9518 15.6077 27.6654 15.6077 28.4961C15.6077 29.3294 15.4476 30.0456 15.1272 30.6445C14.8095 31.2435 14.3551 31.7031 13.764 32.0234C13.1728 32.3411 12.471 32.5 11.6585 32.5ZM10.6351 30.8516H11.5843C12.0322 30.8516 12.4111 30.776 12.721 30.625C13.0335 30.4714 13.2692 30.2227 13.428 29.8789C13.5895 29.5326 13.6702 29.0716 13.6702 28.4961C13.6702 27.9206 13.5895 27.4622 13.428 27.1211C13.2666 26.7773 13.0283 26.5299 12.7132 26.3789C12.4007 26.2253 12.0153 26.1484 11.5569 26.1484H10.6351V30.8516ZM24.1499 28.5C24.1499 29.3802 23.9806 30.1263 23.6421 30.7383C23.3035 31.3503 22.8452 31.8151 22.2671 32.1328C21.6916 32.4505 21.0457 32.6094 20.3296 32.6094C19.6108 32.6094 18.9637 32.4492 18.3882 32.1289C17.8127 31.8086 17.3556 31.3437 17.0171 30.7344C16.6812 30.1224 16.5132 29.3776 16.5132 28.5C16.5132 27.6198 16.6812 26.8737 17.0171 26.2617C17.3556 25.6497 17.8127 25.1849 18.3882 24.8672C18.9637 24.5495 19.6108 24.3906 20.3296 24.3906C21.0457 24.3906 21.6916 24.5495 22.2671 24.8672C22.8452 25.1849 23.3035 25.6497 23.6421 26.2617C23.9806 26.8737 24.1499 27.6198 24.1499 28.5ZM22.1733 28.5C22.1733 27.9792 22.0991 27.5391 21.9507 27.1797C21.8049 26.8203 21.5939 26.5482 21.3179 26.3633C21.0444 26.1784 20.715 26.0859 20.3296 26.0859C19.9468 26.0859 19.6174 26.1784 19.3413 26.3633C19.0653 26.5482 18.853 26.8203 18.7046 27.1797C18.5588 27.5391 18.4858 27.9792 18.4858 28.5C18.4858 29.0208 18.5588 29.4609 18.7046 29.8203C18.853 30.1797 19.0653 30.4518 19.3413 30.6367C19.6174 30.8216 19.9468 30.9141 20.3296 30.9141C20.715 30.9141 21.0444 30.8216 21.3179 30.6367C21.5939 30.4518 21.8049 30.1797 21.9507 29.8203C22.0991 29.4609 22.1733 29.0208 22.1733 28.5ZM32.403 27.3984H30.4499C30.4239 27.1979 30.3705 27.0169 30.2897 26.8555C30.209 26.694 30.1022 26.556 29.9694 26.4414C29.8366 26.3268 29.6791 26.2396 29.4968 26.1797C29.3171 26.1172 29.1179 26.0859 28.8991 26.0859C28.5111 26.0859 28.1765 26.181 27.8952 26.3711C27.6166 26.5612 27.4017 26.8359 27.2507 27.1953C27.1022 27.5547 27.028 27.9896 27.028 28.5C27.028 29.0312 27.1035 29.4766 27.2546 29.8359C27.4082 30.1927 27.6231 30.4622 27.8991 30.6445C28.1778 30.8242 28.5072 30.9141 28.8874 30.9141C29.1009 30.9141 29.295 30.8867 29.4694 30.832C29.6465 30.7773 29.8015 30.6979 29.9343 30.5938C30.0697 30.487 30.1804 30.3581 30.2663 30.207C30.3548 30.0534 30.416 29.8802 30.4499 29.6875L32.403 29.6992C32.3692 30.0534 32.2663 30.4023 32.0944 30.7461C31.9252 31.0898 31.6921 31.4036 31.3952 31.6875C31.0983 31.9687 30.7364 32.1927 30.3093 32.3594C29.8848 32.526 29.3978 32.6094 28.8483 32.6094C28.1244 32.6094 27.4759 32.4505 26.903 32.1328C26.3327 31.8125 25.8822 31.3464 25.5515 30.7344C25.2207 30.1224 25.0554 29.3776 25.0554 28.5C25.0554 27.6198 25.2233 26.8737 25.5593 26.2617C25.8952 25.6497 26.3496 25.1849 26.9226 24.8672C27.4955 24.5495 28.1374 24.3906 28.8483 24.3906C29.3327 24.3906 29.7806 24.4583 30.1921 24.5938C30.6035 24.7266 30.9655 24.9219 31.278 25.1797C31.5905 25.4349 31.8444 25.7487 32.0397 26.1211C32.2351 26.4935 32.3562 26.9193 32.403 27.3984Z" fill="white"/>
</svg>
