<svg width="40" height="40" viewBox="0 0 40 40" fill="none" xmlns="http://www.w3.org/2000/svg">
<rect x="0.5" y="0.5" width="39" height="39" rx="9.5" fill="white"/>
<rect x="0.5" y="0.5" width="39" height="39" rx="9.5" stroke="#E1DBD5"/>
<path d="M2 24.8C2 25.9201 2 26.4802 2.21799 26.908C2.40973 27.2843 2.71569 27.5903 3.09202 27.782C3.51984 28 4.0799 28 5.2 28H34.8C35.9201 28 36.4802 28 36.908 27.782C37.2843 27.5903 37.5903 27.2843 37.782 26.908C38 26.4802 38 25.9201 38 24.8V14.8C38 10.3196 38 8.07937 37.1281 6.36808C36.3611 4.86278 35.1372 3.63893 33.6319 2.87195C31.9206 2 29.6804 2 25.2 2H14.8C10.3196 2 8.07937 2 6.36808 2.87195C4.86278 3.63893 3.63893 4.86278 2.87195 6.36808C2 8.07937 2 10.3196 2 14.8V24.8Z" fill="#F0EBE5"/>
<path d="M5.2002 19.5H34.7998C35.3681 19.5 35.7648 19.5002 36.0732 19.5254C36.3753 19.5501 36.5491 19.5961 36.6807 19.6631C36.9629 19.8069 37.1931 20.0371 37.3369 20.3193C37.4039 20.4509 37.4499 20.6247 37.4746 20.9268C37.4998 21.2352 37.5 21.6319 37.5 22.2002V25.2002C37.5 27.4486 37.4995 29.1052 37.3926 30.4141C37.2861 31.7169 37.0767 32.6319 36.6826 33.4053C35.9636 34.8163 34.8163 35.9636 33.4053 36.6826C32.6319 37.0767 31.7169 37.2861 30.4141 37.3926C29.1052 37.4995 27.4486 37.5 25.2002 37.5H14.7998C12.5514 37.5 10.8948 37.4995 9.58594 37.3926C8.28305 37.2861 7.36806 37.0767 6.59473 36.6826C5.18371 35.9636 4.0364 34.8163 3.31738 33.4053C2.92335 32.6319 2.7139 31.7169 2.60742 30.4141C2.50048 29.1052 2.5 27.4486 2.5 25.2002V22.2002C2.5 21.6319 2.50019 21.2352 2.52539 20.9268C2.55009 20.6247 2.59613 20.4509 2.66309 20.3193C2.8069 20.0371 3.03709 19.8069 3.31934 19.6631C3.45091 19.5961 3.62471 19.5501 3.92676 19.5254C4.0809 19.5128 4.25731 19.5062 4.46582 19.5029L5.2002 19.5Z" fill="#E47412" stroke="#E47412"/>
<path d="M15.9466 27.3984H13.9935C13.9674 27.1979 13.914 27.0169 13.8333 26.8555C13.7526 26.694 13.6458 26.556 13.513 26.4414C13.3802 26.3268 13.2226 26.2396 13.0403 26.1797C12.8606 26.1172 12.6614 26.0859 12.4427 26.0859C12.0547 26.0859 11.72 26.181 11.4388 26.3711C11.1601 26.5612 10.9453 26.8359 10.7942 27.1953C10.6458 27.5547 10.5716 27.9896 10.5716 28.5C10.5716 29.0312 10.6471 29.4766 10.7981 29.8359C10.9518 30.1927 11.1666 30.4622 11.4427 30.6445C11.7213 30.8242 12.0507 30.9141 12.431 30.9141C12.6445 30.9141 12.8385 30.8867 13.013 30.832C13.1901 30.7773 13.345 30.6979 13.4778 30.5938C13.6132 30.487 13.7239 30.3581 13.8099 30.207C13.8984 30.0534 13.9596 29.8802 13.9935 29.6875L15.9466 29.6992C15.9127 30.0534 15.8099 30.4023 15.638 30.7461C15.4687 31.0898 15.2356 31.4036 14.9388 31.6875C14.6419 31.9687 14.2799 32.1927 13.8528 32.3594C13.4284 32.526 12.9414 32.6094 12.3919 32.6094C11.6679 32.6094 11.0195 32.4505 10.4466 32.1328C9.87627 31.8125 9.42575 31.3464 9.09502 30.7344C8.76429 30.1224 8.59893 29.3776 8.59893 28.5C8.59893 27.6198 8.76689 26.8737 9.10283 26.2617C9.43877 25.6497 9.8932 25.1849 10.4661 24.8672C11.039 24.5495 11.681 24.3906 12.3919 24.3906C12.8763 24.3906 13.3242 24.4583 13.7356 24.5938C14.1471 24.7266 14.5091 24.9219 14.8216 25.1797C15.1341 25.4349 15.388 25.7487 15.5833 26.1211C15.7786 26.4935 15.8997 26.9193 15.9466 27.3984ZM21.2397 26.8984C21.2137 26.612 21.0978 26.3893 20.8921 26.2305C20.689 26.069 20.3986 25.9883 20.021 25.9883C19.771 25.9883 19.5627 26.0208 19.396 26.0859C19.2293 26.151 19.1043 26.2409 19.021 26.3555C18.9377 26.4674 18.8947 26.5964 18.8921 26.7422C18.8869 26.862 18.9103 26.9674 18.9624 27.0586C19.0171 27.1497 19.0952 27.2305 19.1968 27.3008C19.3009 27.3685 19.4259 27.4284 19.5718 27.4805C19.7176 27.5326 19.8817 27.5781 20.064 27.6172L20.7515 27.7734C21.1473 27.8594 21.4963 27.974 21.7983 28.1172C22.103 28.2604 22.3582 28.431 22.564 28.6289C22.7723 28.8268 22.9299 29.0547 23.0366 29.3125C23.1434 29.5703 23.1981 29.8594 23.2007 30.1797C23.1981 30.6849 23.0705 31.1185 22.8179 31.4805C22.5653 31.8424 22.202 32.1198 21.728 32.3125C21.2567 32.5052 20.6877 32.6016 20.021 32.6016C19.3517 32.6016 18.7684 32.5013 18.271 32.3008C17.7736 32.1003 17.3869 31.7956 17.1108 31.3867C16.8348 30.9779 16.6929 30.4609 16.6851 29.8359H18.5366C18.5522 30.0938 18.6213 30.3086 18.7437 30.4805C18.866 30.6523 19.034 30.7826 19.2476 30.8711C19.4637 30.9596 19.7137 31.0039 19.9976 31.0039C20.258 31.0039 20.4793 30.9687 20.6616 30.8984C20.8465 30.8281 20.9884 30.7305 21.0874 30.6055C21.1864 30.4805 21.2371 30.3372 21.2397 30.1758C21.2371 30.0247 21.1903 29.8958 21.0991 29.7891C21.008 29.6797 20.8674 29.5859 20.6772 29.5078C20.4897 29.4271 20.2502 29.3529 19.9585 29.2852L19.1226 29.0898C18.4299 28.931 17.8843 28.6745 17.4858 28.3203C17.0874 27.9635 16.8895 27.4818 16.8921 26.875C16.8895 26.3802 17.0223 25.9466 17.2905 25.5742C17.5588 25.2018 17.9299 24.9115 18.4038 24.7031C18.8778 24.4948 19.4181 24.3906 20.0249 24.3906C20.6447 24.3906 21.1825 24.4961 21.6382 24.707C22.0965 24.9154 22.452 25.2083 22.7046 25.5859C22.9572 25.9635 23.0861 26.401 23.0913 26.8984H21.2397ZM25.8562 24.5L27.6452 30.3594H27.7116L29.5007 24.5H31.6647L28.9655 32.5H26.3913L23.6921 24.5H25.8562Z" fill="white"/>
</svg>
