<svg width="40" height="40" viewBox="0 0 40 40" fill="none" xmlns="http://www.w3.org/2000/svg">
<rect x="0.5" y="0.5" width="39" height="39" rx="9.5" fill="white"/>
<rect x="0.5" y="0.5" width="39" height="39" rx="9.5" stroke="#E1DBD5"/>
<path d="M2 24.8C2 25.9201 2 26.4802 2.21799 26.908C2.40973 27.2843 2.71569 27.5903 3.09202 27.782C3.51984 28 4.0799 28 5.2 28H34.8C35.9201 28 36.4802 28 36.908 27.782C37.2843 27.5903 37.5903 27.2843 37.782 26.908C38 26.4802 38 25.9201 38 24.8V14.8C38 10.3196 38 8.07937 37.1281 6.36808C36.3611 4.86278 35.1372 3.63893 33.6319 2.87195C31.9206 2 29.6804 2 25.2 2H14.8C10.3196 2 8.07937 2 6.36808 2.87195C4.86278 3.63893 3.63893 4.86278 2.87195 6.36808C2 8.07937 2 10.3196 2 14.8V24.8Z" fill="#F0EBE5"/>
<path d="M5.2002 19.5H34.7998C35.3681 19.5 35.7648 19.5002 36.0732 19.5254C36.3753 19.5501 36.5491 19.5961 36.6807 19.6631C36.9629 19.8069 37.1931 20.0371 37.3369 20.3193C37.4039 20.4509 37.4499 20.6247 37.4746 20.9268C37.4998 21.2352 37.5 21.6319 37.5 22.2002V25.2002C37.5 27.4486 37.4995 29.1052 37.3926 30.4141C37.2861 31.7169 37.0767 32.6319 36.6826 33.4053C35.9636 34.8163 34.8163 35.9636 33.4053 36.6826C32.6319 37.0767 31.7169 37.2861 30.4141 37.3926C29.1052 37.4995 27.4486 37.5 25.2002 37.5H14.7998C12.5514 37.5 10.8948 37.4995 9.58594 37.3926C8.28305 37.2861 7.36806 37.0767 6.59473 36.6826C5.18371 35.9636 4.0364 34.8163 3.31738 33.4053C2.92335 32.6319 2.7139 31.7169 2.60742 30.4141C2.50048 29.1052 2.5 27.4486 2.5 25.2002V22.2002C2.5 21.6319 2.50019 21.2352 2.52539 20.9268C2.55009 20.6247 2.59613 20.4509 2.66309 20.3193C2.8069 20.0371 3.03709 19.8069 3.31934 19.6631C3.45091 19.5961 3.62471 19.5501 3.92676 19.5254C4.0809 19.5128 4.25731 19.5062 4.46582 19.5029L5.2002 19.5Z" fill="#E32038" stroke="#E32038"/>
<path d="M9.92021 32.5V24.5H13.2249C13.8239 24.5 14.3408 24.6172 14.7757 24.8516C15.2132 25.0833 15.5504 25.4076 15.7874 25.8242C16.0244 26.2383 16.1429 26.7201 16.1429 27.2695C16.1429 27.8216 16.0218 28.3047 15.7796 28.7188C15.54 29.1302 15.1976 29.4492 14.7522 29.6758C14.3069 29.9023 13.7783 30.0156 13.1663 30.0156H11.1272V28.4922H12.8069C13.0986 28.4922 13.3421 28.4414 13.5374 28.3398C13.7353 28.2383 13.8851 28.0964 13.9866 27.9141C14.0882 27.7292 14.139 27.5143 14.139 27.2695C14.139 27.0221 14.0882 26.8086 13.9866 26.6289C13.8851 26.4466 13.7353 26.306 13.5374 26.207C13.3395 26.1081 13.096 26.0586 12.8069 26.0586H11.8538V32.5H9.92021ZM19.9155 32.5H16.9585V24.5H19.9116C20.7267 24.5 21.4285 24.6602 22.0171 24.9805C22.6082 25.2982 23.064 25.7565 23.3843 26.3555C23.7046 26.9518 23.8647 27.6654 23.8647 28.4961C23.8647 29.3294 23.7046 30.0456 23.3843 30.6445C23.0666 31.2435 22.6121 31.7031 22.021 32.0234C21.4299 32.3411 20.728 32.5 19.9155 32.5ZM18.8921 30.8516H19.8413C20.2892 30.8516 20.6681 30.776 20.978 30.625C21.2905 30.4714 21.5262 30.2227 21.6851 29.8789C21.8465 29.5326 21.9272 29.0716 21.9272 28.4961C21.9272 27.9206 21.8465 27.4622 21.6851 27.1211C21.5236 26.7773 21.2853 26.5299 20.9702 26.3789C20.6577 26.2253 20.2723 26.1484 19.814 26.1484H18.8921V30.8516ZM24.8562 32.5V24.5H30.3171V26.0703H26.7897V27.7109H29.9694V29.2852H26.7897V32.5H24.8562Z" fill="white"/>
</svg>
