<svg width="30" height="30" viewBox="0 0 30 30" fill="none" xmlns="http://www.w3.org/2000/svg">
<path d="M6.4252 18.8976C6.4252 20.622 5.0315 22.0157 3.30709 22.0157C1.58268 22.0157 0.188976 20.622 0.188976 18.8976C0.188976 17.1732 1.58268 15.7795 3.30709 15.7795H6.4252V18.8976ZM7.98425 18.8976C7.98425 17.1732 9.37795 15.7795 11.1024 15.7795C12.8268 15.7795 14.2205 17.1732 14.2205 18.8976V26.6929C14.2205 28.4173 12.8268 29.811 11.1024 29.811C9.37795 29.811 7.98425 28.4173 7.98425 26.6929V18.8976Z" fill="#E01E5A"/>
<path d="M11.1024 6.37795C9.37795 6.37795 7.98425 4.98425 7.98425 3.25984C7.98425 1.53543 9.37795 0.141732 11.1024 0.141732C12.8268 0.141732 14.2205 1.53543 14.2205 3.25984V6.37795H11.1024ZM11.1024 7.96063C12.8268 7.96063 14.2205 9.35433 14.2205 11.0787C14.2205 12.8032 12.8268 14.1969 11.1024 14.1969H3.28346C1.55906 14.1969 0.165354 12.8032 0.165354 11.0787C0.165354 9.35433 1.55906 7.96063 3.28346 7.96063H11.1024Z" fill="#36C5F0"/>
<path d="M23.5984 11.0787C23.5984 9.35433 24.9921 7.96063 26.7165 7.96063C28.4409 7.96063 29.8346 9.35433 29.8346 11.0787C29.8346 12.8032 28.4409 14.1969 26.7165 14.1969H23.5984V11.0787ZM22.0394 11.0787C22.0394 12.8032 20.6457 14.1969 18.9213 14.1969C17.1969 14.1969 15.8032 12.8032 15.8032 11.0787V3.25984C15.8032 1.53543 17.1969 0.141732 18.9213 0.141732C20.6457 0.141732 22.0394 1.53543 22.0394 3.25984V11.0787Z" fill="#2EB67D"/>
<path d="M18.9213 23.5748C20.6457 23.5748 22.0394 24.9685 22.0394 26.6929C22.0394 28.4173 20.6457 29.811 18.9213 29.811C17.1969 29.811 15.8032 28.4173 15.8032 26.6929V23.5748H18.9213ZM18.9213 22.0157C17.1969 22.0157 15.8032 20.622 15.8032 18.8976C15.8032 17.1732 17.1969 15.7795 18.9213 15.7795H26.7402C28.4646 15.7795 29.8583 17.1732 29.8583 18.8976C29.8583 20.622 28.4646 22.0157 26.7402 22.0157H18.9213Z" fill="#ECB22E"/>
</svg>
