<svg preserveAspectRatio="none" width="100%" height="100%" overflow="visible" style="display: block;" viewBox="0 0 11.2976 11.2976" fill="none" xmlns="http://www.w3.org/2000/svg">
<g id="SVG">
<path id="Vector" d="M7.06101 3.29528L4.00124 6.35504C3.81397 6.54231 3.70877 6.7963 3.70877 7.06114C3.70877 7.32598 3.81397 7.57997 4.00124 7.76724C4.18851 7.95451 4.4425 8.05972 4.70734 8.05972C4.97218 8.05972 5.22617 7.95451 5.41344 7.76724L8.4732 4.70748C8.84774 4.33294 9.05816 3.82496 9.05816 3.29528C9.05816 2.7656 8.84774 2.25762 8.4732 1.88308C8.09867 1.50855 7.59068 1.29813 7.06101 1.29813C6.53133 1.29813 6.02335 1.50855 5.64881 1.88308L2.58905 4.94285C2.02724 5.50465 1.71162 6.26663 1.71162 7.06114C1.71162 7.85566 2.02724 8.61763 2.58905 9.17944C3.15085 9.74125 3.91283 10.0569 4.70734 10.0569C5.50186 10.0569 6.26383 9.74125 6.82564 9.17944L9.8854 6.11968" stroke="#515A67" stroke-width="0.706099" stroke-linecap="round" stroke-linejoin="round"/>
</g>
</svg>
