<svg preserveAspectRatio="none" width="100%" height="100%" overflow="visible" style="display: block;" viewBox="0 0 10.0423 10.0423" fill="none" xmlns="http://www.w3.org/2000/svg">
<g id="image" clip-path="url(#clip0_0_6)">
<path id="Vector" d="M4.48412 0.926782L0.740071 2.47612C0.53185 2.56242 0.534047 2.85804 0.743523 2.94105L4.50311 4.43201C4.83344 4.56303 5.20132 4.56303 5.53166 4.43201L9.29124 2.94105C9.50072 2.85788 9.50307 2.56226 9.2947 2.47612L5.5508 0.926939C5.20924 0.785582 4.82553 0.785582 4.48396 0.926939" fill="#FFCC00"/>
<path id="Vector_2" d="M5.35102 5.246V8.97059C5.35107 9.0115 5.36112 9.05178 5.38029 9.08792C5.39946 9.12406 5.42718 9.15497 5.46102 9.17796C5.49486 9.20094 5.53381 9.21531 5.57448 9.21981C5.61514 9.2243 5.65629 9.21879 5.69434 9.20376L9.88386 7.57753C9.93055 7.55897 9.9706 7.52683 9.99882 7.48526C10.027 7.44369 10.0422 7.39461 10.0422 7.34437V3.61993C10.0421 3.57902 10.0321 3.53874 10.0129 3.5026C9.99373 3.46646 9.96602 3.43555 9.93217 3.41256C9.89833 3.38958 9.85938 3.37521 9.81872 3.37071C9.77805 3.36622 9.73691 3.37172 9.69886 3.38676L5.50934 5.01298C5.46265 5.03154 5.4226 5.06369 5.39437 5.10526C5.36614 5.14682 5.35104 5.19575 5.35102 5.246Z" fill="#31C2F2"/>
<path id="Vector_3" d="M4.37306 5.43826L3.00354 6.09964L0.378892 7.35728C0.212566 7.43762 0.000108978 7.31648 0.000108978 7.13133V3.63566C0.000108978 3.56882 0.0343156 3.51108 0.0804474 3.46777C0.0993039 3.44899 0.120694 3.43293 0.143996 3.42007C0.206761 3.38241 0.2962 3.37237 0.372302 3.4025L4.35235 4.97945C4.55633 5.05979 4.57202 5.34317 4.37322 5.43841" fill="#ED3049"/>
<path id="Vector_4" d="M4.37302 5.43826L3.12966 6.03861L0.08025 3.46746C0.0991066 3.44868 0.120497 3.43262 0.143799 3.41976C0.206563 3.3821 0.296002 3.37206 0.372104 3.40219L4.35215 4.97914C4.55613 5.05948 4.57182 5.34302 4.37302 5.43826Z" fill="#C62842"/>
</g>
<defs>
<clipPath id="clip0_0_6">
<rect width="10.0423" height="10.0423" fill="white"/>
</clipPath>
</defs>
</svg>
