<svg preserveAspectRatio="none" width="100%" height="100%" overflow="visible" style="display: block;" viewBox="0 0 10.0423 10.0423" fill="none" xmlns="http://www.w3.org/2000/svg">
<g id="image" clip-path="url(#clip0_0_4)">
<path id="Vector" d="M5.02115 0C2.24797 0 0 2.20881 0 4.9337C0 7.11438 1.43856 8.9625 3.43396 9.61525C3.68502 9.66065 3.77641 9.50817 3.77641 9.37745C3.77641 9.2605 3.77239 8.9502 3.76988 8.53871C2.37299 8.83672 2.07825 7.8776 2.07825 7.8776C1.85029 7.30728 1.52091 7.15581 1.52091 7.15581C1.06499 6.84993 1.55555 6.85583 1.55555 6.85583C2.05917 6.89035 2.32429 7.36402 2.32429 7.36402C2.77218 8.11836 3.49974 7.90032 3.78544 7.77449C3.83164 7.45528 3.96118 7.23769 4.10479 7.11438C2.99009 6.98952 1.81766 6.56674 1.81766 4.67565C1.81766 4.13738 2.01348 3.6968 2.33433 3.35194C2.28261 3.22712 2.11039 2.72536 2.38354 2.046C2.38354 2.046 2.80532 1.91328 3.76435 2.5517C4.17401 2.44218 4.59661 2.38643 5.02115 2.38592C5.44795 2.3879 5.87725 2.44266 6.27844 2.55219C7.23698 1.91377 7.65775 2.04649 7.65775 2.04649C7.93191 2.72586 7.75968 3.22761 7.70796 3.35243C8.02932 3.6973 8.22414 4.13787 8.22414 4.67615C8.22414 6.57164 7.04969 6.98856 5.93148 7.11091C6.11174 7.26334 6.27192 7.56432 6.27192 8.02463C6.27192 8.68378 6.26589 9.21611 6.26589 9.37792C6.26589 9.50968 6.35627 9.66312 6.61135 9.61475C8.60524 8.96103 10.0423 7.11338 10.0423 4.9337C10.0423 2.20881 7.79433 0 5.02115 0Z" fill="black"/>
</g>
<defs>
<clipPath id="clip0_0_4">
<rect width="10.0423" height="10.0423" fill="white"/>
</clipPath>
</defs>
</svg>
