<svg preserveAspectRatio="none" width="100%" height="100%" overflow="visible" style="display: block;" viewBox="0 0 10.0423 10.0423" fill="none" xmlns="http://www.w3.org/2000/svg">
<g id="image">
<path id="Vector" d="M9.79096 6.6525L7.76123 3.24179C7.66816 3.08503 7.43884 2.95677 7.25155 2.95677H5.98435C5.68983 2.95677 5.5691 2.75529 5.71601 2.50903L6.4109 1.34437C6.46606 1.25194 6.46595 1.13815 6.41061 1.04582C6.35527 0.953483 6.25309 0.896619 6.14256 0.896619H4.37479C4.18754 0.896619 3.95767 1.02459 3.86399 1.181L0.428948 6.91515C0.335224 7.07155 0.335188 7.32753 0.428804 7.48397L1.31267 8.96091C1.45995 9.20698 1.70146 9.20726 1.84935 8.96155L2.53997 7.81411C2.6879 7.5684 2.92937 7.56868 3.07665 7.81476L3.70278 8.86102C3.7964 9.01747 4.02621 9.14547 4.21347 9.14547H8.29835C8.4856 9.14547 8.71539 9.01747 8.80904 8.86102L9.78995 7.22194C9.88356 7.06549 9.88403 6.80927 9.79096 6.6525ZM7.04981 6.48835C7.19617 6.73492 7.07495 6.93667 6.78038 6.93667H3.60301C3.30848 6.93667 3.18798 6.73535 3.33526 6.48928L4.92518 3.83256C5.07244 3.58648 5.31338 3.58649 5.46068 3.83256L7.04981 6.48835Z" fill="#1A1A2E"/>
</g>
</svg>
