<svg>
<style>
  @keyframes flowDash { to { stroke-dashoffset: -18; } }
  .flow { animation: flowDash 1.5s linear infinite; }
  @media (prefers-reduced-motion: reduce) { .flow { animation: none; } }
</style>
<line x1="60" y1="34" x2="460" y2="34" stroke="#E0B376" stroke-width="1" stroke-dasharray="3 3" class="flow" opacity="0.6"/>
<line x1="60" y1="48" x2="460" y2="48" stroke="#7587BA" stroke-width="0.7" opacity="0.09"/>
<line x1="60" y1="67" x2="460" y2="67" stroke="#E26C9E" stroke-width="0.7" opacity="0.6"/>
<line x1="60" y1="84" x2="460" y2="84" stroke="#E26C9E" stroke-width="1" stroke-dasharray="3 3" class="flow" style="animation-delay:0.4s" opacity="0.6"/>
<line x1="60" y1="100" x2="460" y2="100" stroke="#45A7A8" stroke-width="0.7" opacity="0.6"/>
<line x1="60" y1="118" x2="460" y2="118" stroke="#E0BB3C" stroke-width="0.7" opacity="0.6"/>



<path opacity="0.09" d="M504.213 55.5303C504.411 55.5303 504.601 55.6091 504.742 55.7494C504.882 55.8896 504.961 56.0799 504.961 56.2783C504.961 56.4766 504.882 56.6669 504.742 56.8072C504.601 56.9474 504.411 57.0263 504.213 57.0263H0.153388C-0.0449917 57.0263 -0.235247 56.9474 -0.375523 56.8072C-0.515799 56.6669 -0.594604 56.4766 -0.594604 56.2783C-0.594604 56.0799 -0.515799 55.8896 -0.375523 55.7494C-0.235247 55.6091 -0.0449917 55.5303 0.153388 55.5303H504.213Z" fill="#FF990A"/>
<path opacity="0.09" d="M523.618 77.0261C523.817 77.0261 524.007 77.1049 524.147 77.2452C524.287 77.3855 524.366 77.5757 524.366 77.7741C524.366 77.9725 524.287 78.1627 524.147 78.303C524.007 78.4433 523.817 78.5221 523.618 78.5221H-19.252C-19.4504 78.5221 -19.6406 78.4433 -19.7809 78.303C-19.9212 78.1627 -20 77.9725 -20 77.7741C-20 77.5757 -19.9212 77.3855 -19.7809 77.2452C-19.6406 77.1049 -19.4504 77.0261 -19.252 77.0261H523.618Z" fill="#E26C9E"/>

<path opacity="0.09" d="M505.183 120.018C505.382 120.018 505.572 120.097 505.712 120.237C505.852 120.377 505.931 120.568 505.931 120.766C505.931 120.964 505.852 121.155 505.712 121.295C505.572 121.435 505.382 121.514 505.183 121.514H-0.816949C-1.01533 121.514 -1.20559 121.435 -1.34586 121.295C-1.48614 121.155 -1.56494 120.964 -1.56494 120.766C-1.56494 120.568 -1.48614 120.377 -1.34586 120.237C-1.20559 120.097 -1.01533 120.018 -0.816949 120.018H505.183Z" fill="#45A7A8"/>
<path opacity="0.09" d="M482.867 141.514C483.065 141.514 483.255 141.593 483.395 141.733C483.536 141.874 483.615 142.064 483.615 142.262C483.615 142.461 483.536 142.651 483.395 142.791C483.255 142.931 483.065 143.01 482.867 143.01H21.4996C21.3013 143.01 21.111 142.931 20.9707 142.791C20.8305 142.651 20.7516 142.461 20.7516 142.262C20.7516 142.064 20.8305 141.874 20.9707 141.733C21.111 141.593 21.3013 141.514 21.4996 141.514H482.867Z" fill="#E0BB3C"/>
<path d="M318.625 48.4166L258.725 13.8333L198.825 48.4166L198.825 117.583L258.725 152.167L318.625 117.583V48.4166Z" fill="#0099BB"/>
<path d="M198.825 48.4165L258.725 82.9998L258.725 152.167L198.825 117.583L198.825 48.4165Z" fill="url(#paint0_linear_60_242)"/>
<rect width="69.1667" height="69.1667" transform="matrix(0.866025 -0.5 2.20305e-08 1 258.725 83)" fill="url(#paint1_linear_60_242)"/>
<path d="M258.725 13.8332L318.625 48.4166L258.725 82.9999L198.825 48.4166L258.725 13.8332Z" fill="url(#paint2_linear_60_242)"/>
<g style="mix-blend-mode:multiply" opacity="0.6">
<path d="M229.05 65.7085L259 83.0002L259 117.583L229.05 100.292L229.05 65.7085Z" fill="#7587BA"/>
<rect width="34.5833" height="34.5833" transform="matrix(0.866025 -0.5 2.20305e-08 1 259 83)" fill="#7587BA"/>
<path d="M259 48.4167L288.95 65.7084L259 83.0001L229.05 65.7084L259 48.4167Z" fill="#7587BA"/>
</g>
<g opacity="0.9" style="mix-blend-mode:multiply">
<path d="M198.825 48.4166L258.725 82.9999V152.167L198.825 117.583L198.825 48.4166Z" fill="#DFBC3C"/>
<path d="M258.725 82.9999L318.625 48.4166V117.583L258.725 152.167V82.9999Z" fill="#DFBC3C"/>
<path d="M258.725 13.8333L318.625 48.4166L258.725 82.9999L198.825 48.4166L258.725 13.8333Z" fill="#DFBC3C"/>
</g>
<defs>
<linearGradient id="paint0_linear_60_242" x1="231.962" y1="137.296" x2="231.962" y2="67.7832" gradientUnits="userSpaceOnUse">
<stop stop-color="#CAD1E7"/>
<stop offset="1" stop-color="#B4BDD8"/>
</linearGradient>
<linearGradient id="paint1_linear_60_242" x1="34.5833" y1="0.691664" x2="6.91666" y2="56.025" gradientUnits="userSpaceOnUse">
<stop stop-color="#CFD8EF"/>
<stop offset="1" stop-color="#D5DAE9"/>
</linearGradient>
<linearGradient id="paint2_linear_60_242" x1="258.654" y1="13.8333" x2="232.131" y2="70.6093" gradientUnits="userSpaceOnUse">
<stop stop-color="#EDF1FD"/>
<stop offset="1" stop-color="#E1E5F1"/>
</linearGradient>
</defs>
</svg>
