<svg width="480" height="480" viewBox="0 0 480 480" fill="none" xmlns="http://www.w3.org/2000/svg">
<g clip-path="url(#clip0_64_3895)">
<g clip-path="url(#clip1_64_3895)">
<path fill-rule="evenodd" clip-rule="evenodd" d="M255.098 137.738C263.708 136.906 272.381 137.195 281.033 137.253C286.863 137.292 293.244 138.847 298.971 139.862C303.706 140.702 308.465 141.071 313.005 142.813C326.202 148.065 338.385 155.67 349.96 163.832C350.56 164.255 351.625 165.286 352.112 165.834C355.39 169.518 360.18 172.638 362.608 176.938C364.913 181.026 367.883 184.207 370.51 188.032C371.042 188.823 371.505 191.125 372.005 192.138C379.695 207.83 384.808 224.66 387.143 241.979C387.323 243.308 386.523 244.771 386.745 245.829C387.708 250.397 388.775 253.77 388.49 258.563C388.178 264.352 386.366 269.793 385.078 275.348C383.656 281.48 382.53 287.36 380.245 293.303C377.508 300.525 374.86 307.773 371.593 314.78C370.18 317.663 368.05 320.377 366.603 323.212C364.055 328.202 361.38 334.077 358.03 338.612C354.835 342.937 350.49 347.22 347.273 351.655C346.54 352.665 344.458 353.683 343.533 354.67C338.706 359.66 334.141 363.64 327.981 366.992C325.043 368.59 322.213 371.527 318.923 372.742C309.423 376.972 298.363 379.035 288.021 379.805C285.351 380.005 281.635 378.905 279.758 380.808C278.188 381.978 275.595 380.77 274.17 379.787C268.64 381.352 266.378 381.125 260.651 380.982C259.918 380.962 257.703 381.25 256.651 381.277C256.376 381.135 247.746 380.241 247.283 380.335C239.938 381.842 233.123 375.882 226.623 375.747L227.446 373.047C222.886 372.899 221.718 371.752 218.102 368.987C212.013 370.032 209.206 366.52 203.977 364.327C199.777 363.577 193.061 356.822 190.001 355.755C182.216 353.037 183.2 352.335 178.4 345.655C177.832 344.865 174.719 342.962 173.695 341.832C164.398 331.572 154.455 319.777 150.135 306.43C149.219 303.585 148.863 300.773 147.915 297.945C146.305 297.285 145.924 298.747 144.49 299.484C141.03 301.267 135.806 302.115 131.978 302.77C130.338 303.052 127.726 302.545 126.152 302.63C120.56 302.887 112.51 301.497 107.57 298.782C103.956 296.795 99.1999 293.242 95.7141 290.935C89.4863 286.81 84.688 277.182 83.9348 269.917C82.8811 259.525 83.9962 249.027 87.2101 239.089C89.9951 230.213 93.8254 225.051 99.5988 217.817C102.267 214.475 106.205 212.344 109.782 210.115C111.087 209.302 112.693 208.774 114.069 208.085C118.978 204.796 122.15 205.475 127.468 205.036C136.146 204.32 144.322 204.795 152.168 209.046C153.683 209.866 155.183 211.097 156.6 212.313L157.986 213.507L158.159 213.536C158.998 213.711 159.42 214.34 160.164 214.923H160.165C161.185 211.709 162.629 208.648 163.816 205.627C167.829 195.408 172.817 186.43 181.033 178.951C182.519 177.265 183.869 175.346 185.441 173.744C186.545 172.699 188.296 172.032 189.3 170.905C195.69 163.734 202.389 157.682 210.674 152.523C222.508 145.291 237.179 141.065 250.523 137.448C251.738 137.119 253.71 137.873 255.098 137.738ZM270.754 372.221V372.222V372.221ZM218.82 367.033H218.82H218.82ZM220.689 365.858H220.69H220.689ZM295.295 355.508V355.507V355.508ZM274.182 352.331H274.183H274.182ZM276.313 351.638H276.314H276.313ZM313.169 348C313.097 348.056 313.024 348.105 312.95 348.147C313.024 348.105 313.097 348.056 313.169 348ZM193.353 340.478H193.354H193.353ZM296.517 324.052H296.518H296.517ZM308.957 323.345H308.958H308.957ZM224.201 321.492H224.202H224.201ZM298.742 322.817H298.743H298.742ZM234.674 318.442H234.675H234.674ZM343.22 318.175C343 318.201 342.795 318.222 342.602 318.236C342.795 318.222 343 318.201 343.221 318.175C343.03 318.097 342.846 318.027 342.669 317.963L343.22 318.175ZM341.656 317.66H341.657H341.656ZM236.978 316.91H236.979H236.978ZM286.367 312.529C285.972 312.754 285.591 312.948 285.38 313.072C285.591 312.948 285.972 312.754 286.367 312.529ZM287.741 311.361H287.742L287.75 311.303L287.741 311.361ZM312.569 301.18H312.568H312.569ZM115.268 292.872V292.873V292.872ZM274.398 286.859V286.86V286.859ZM192.793 285.343H192.794L191.612 285.197H191.611L192.793 285.343ZM219.043 283.565H219.044H219.043ZM218.707 282.929V282.93V282.929ZM178.874 281.646H178.875H178.874ZM223.746 281.389V281.39V281.389ZM238.306 280.444H238.305H238.306ZM287.397 277.702V277.701V277.702ZM287.604 277.708V277.709V277.708ZM287.839 277.067H287.84H287.839ZM223.007 269.034C222.911 269.084 222.818 269.135 222.728 269.189C222.818 269.135 222.911 269.084 223.007 269.034ZM118.832 267.492C118.88 267.496 118.927 267.498 118.976 267.498C118.927 267.498 118.88 267.496 118.832 267.492ZM119.422 267.467V267.468V267.467ZM208.678 258.45H208.679H208.678ZM118.872 253.17C118.443 253.618 117.778 254.225 117.13 254.848C116.807 255.159 116.488 255.473 116.205 255.773C116.017 255.974 115.844 256.167 115.697 256.349C116.504 255.348 118.086 253.991 118.872 253.17ZM119.33 252.577C119.314 252.63 119.273 252.699 119.212 252.78C119.273 252.699 119.314 252.63 119.33 252.577ZM141.21 248.065H141.211H141.21ZM142.101 247.16C141.979 247.243 141.864 247.331 141.755 247.425C141.864 247.331 141.979 247.243 142.101 247.16ZM283.618 247.312C283.369 247.386 283.111 247.456 282.845 247.523L282.846 247.524C283.112 247.457 283.369 247.386 283.618 247.312ZM143.077 246.615H143.078H143.077ZM288.272 244.576C288.305 244.604 288.322 244.622 288.33 244.646C288.322 244.622 288.305 244.604 288.272 244.576ZM165.845 231.55H165.846H165.845ZM154.705 222.885V222.886V222.885ZM275.595 219.849L275.665 220.116L275.596 219.849L275.373 219.847L275.595 219.849ZM130.999 217.893V217.892V217.893ZM283.811 209.857C283.713 209.923 283.615 210.012 283.487 210.149C283.615 210.013 283.713 209.923 283.811 209.857ZM371.412 206.328H371.413H371.412ZM192.116 193.765V193.766V193.765ZM341.137 186.169H341.138H341.137ZM342.838 184.755C343.074 184.639 343.299 184.531 343.49 184.433C343.299 184.531 343.074 184.639 342.838 184.755ZM206.851 173.954V173.955V173.954ZM275.532 166.24H275.533H275.532ZM238.797 153.402C238.627 153.494 238.467 153.604 238.308 153.727C238.467 153.604 238.627 153.494 238.797 153.402ZM239.504 153.154C239.557 153.145 239.613 153.137 239.669 153.131C239.613 153.137 239.558 153.145 239.504 153.154ZM279.695 147.495V147.496L279.845 147.682H279.846L279.695 147.495Z" fill="#F3BAB1"/>
<path fill-rule="evenodd" clip-rule="evenodd" d="M226.623 375.748C233.122 375.883 239.937 381.842 247.282 380.335C247.74 380.24 256.375 381.135 256.65 381.277C257.703 381.25 259.918 380.962 260.65 380.982C266.377 381.125 268.64 381.352 274.17 379.787C275.595 380.77 278.187 381.978 279.757 380.808L281.017 381.605C291.71 383.89 302.262 385.345 308.445 395.468C309.03 396.428 310.282 398.8 309.957 399.902C308.747 404.005 311.343 408.248 307.98 412.025C303.843 416.675 298.777 420.748 293.71 424.311C292.072 425.405 285.122 425.333 281.844 426.705C280.572 426.19 278.852 425.435 277.588 425.015C276.468 425.292 275.35 425.578 274.235 425.873C270.207 424.526 264.839 424.735 261.027 426.585C259.675 425.92 258.61 425.462 257.21 424.902C249.083 427.015 242.505 425.855 234.259 425.907C233.187 425.915 231.542 426.38 230.415 426.345C229.181 426.305 227.706 425.748 226.495 425.646C224.348 425.466 221.996 425.892 219.834 425.897C217.309 425.905 214.927 425.625 212.418 425.593C209.18 425.973 206.231 427.067 202.913 426.853C200.854 426.718 199.494 425.888 197.644 425.513C193.909 424.755 190.405 424.618 187.068 422.513C184.571 420.935 182.76 419.488 181.023 417.195L180.676 416.725L180.636 416.605C180.309 415.643 180.291 415.495 180.452 414.492L180.739 412.685C180.16 410.045 182.29 406.07 183.363 403.638C186.429 396.685 194.071 390.04 200.401 386.125C202.566 384.788 204.879 383.785 207.109 382.57C208.529 381.798 209.7 380.545 211.204 379.955C213.552 379.035 216.236 378.075 218.703 377.545C220.609 377.132 222.757 377.238 224.598 376.633C225.281 376.41 225.943 376.013 226.623 375.748ZM214.373 420.98C214.733 420.998 215.052 421.009 215.276 421.022C215.052 421.009 214.733 420.998 214.373 420.98ZM204.955 419.61C204.865 419.711 204.781 419.815 204.705 419.925H204.706C204.782 419.815 204.865 419.71 204.955 419.61ZM205.908 418.819C205.848 418.858 205.789 418.898 205.731 418.938C205.905 418.818 206.089 418.704 206.281 418.597L205.908 418.819ZM270.786 416.902H270.787H270.786ZM272.812 415.505C273.114 415.387 273.383 415.284 273.575 415.203C273.695 415.215 273.78 415.22 273.843 415.227C273.78 415.22 273.695 415.214 273.575 415.202C273.384 415.283 273.114 415.387 272.812 415.505ZM181.625 413.026H181.626H181.625ZM299.115 403.334C298.652 403.827 298.316 404.373 297.545 405.14V405.141C298.231 404.459 298.573 403.952 298.965 403.501C299.015 403.445 299.064 403.389 299.116 403.334H299.115ZM209.18 404.824C209.79 405.151 210.433 405.417 211.1 405.583C210.934 405.541 210.769 405.494 210.605 405.44C210.523 405.414 210.442 405.386 210.361 405.356C210.118 405.268 209.879 405.168 209.644 405.058C209.488 404.984 209.334 404.906 209.181 404.824H209.18ZM298.937 405.276C299.057 405.307 299.114 405.325 299.194 405.369C299.114 405.325 299.057 405.307 298.937 405.276ZM197.304 402.836C196.993 403.052 196.749 403.268 196.626 403.473H196.627C196.688 403.371 196.78 403.266 196.895 403.159C197.01 403.053 197.149 402.944 197.304 402.836ZM300.692 402.202L300.693 402.203L300.692 402.202ZM199.556 401.647C199.096 401.852 198.576 402.098 198.097 402.357C198.958 401.89 199.957 401.472 200.489 401.245L199.556 401.647ZM283.289 401.587C283.517 401.707 283.73 401.814 283.96 401.901C283.73 401.814 283.517 401.707 283.289 401.587ZM302.628 392.979V392.98V392.979ZM221.469 383.037H221.47H221.469Z" fill="#4B4746"/>
</g>
<g clip-path="url(#clip2_64_3895)">
<path d="M178.646 148.491C183.418 140.487 188.992 133.297 195.809 126.919C197.896 124.965 200.152 123.196 202.28 121.288C204.085 119.671 206.003 118.261 207.835 116.695C208.644 116.003 209.308 115.094 210.227 114.544C215.459 111.407 221.956 109.875 227.711 107.954C230.133 107.146 232.457 106.071 234.874 105.263C237.328 104.443 239.882 103.908 242.366 103.183C244.737 102.49 247.076 101.642 249.475 101.05C254.035 99.9225 259.197 99.2637 263.875 99.9525C265.78 100.233 267.712 100.786 269.63 100.915C271.357 101.031 273.052 100.275 274.765 100.345C277.255 100.447 278.822 101.493 281.46 100.959C283.98 100.448 295.84 102.022 298.627 102.819C299.802 103.154 300.805 103.706 301.86 104.301C303.487 104.195 307.185 103.873 308.71 104.133C314.415 105.114 320.237 105.936 325.882 107.192C328.415 107.756 331.545 109.751 334.032 110.331C341.425 112.055 345.962 115.973 352.252 119.473C359.655 123.59 367.242 126.798 373.222 133.277C374.285 134.357 376.5 135.419 377.602 136.596C379.505 138.169 381.3 140.44 383.127 142.008C390.097 147.99 393.402 154.143 397.772 161.865C402.11 169.531 402.745 172.682 405.192 181.118C408.892 193.863 411.517 205.635 408.927 218.986C407.902 224.143 406.855 228.53 406.402 233.869C406.107 237.345 402.83 242.792 401.657 246.226C400.952 247.896 400.135 249.808 399.232 251.367C397.337 254.642 395.087 257.698 392.52 260.478C389.532 263.703 385.235 268.24 380.437 268.187C373.355 268.112 365.747 261.637 360.792 256.932C358.242 254.512 358.292 253.16 356.477 250.452C355.317 248.871 352.845 247.27 351.817 245.664C350.34 243.227 349.077 240.515 347.757 237.982C345.552 233.747 341.697 229.13 340.742 224.411C339.672 219.127 337.082 211.522 337.39 206.275C334.087 209.75 333.755 208.662 329.967 211.188C327.98 212.513 325.532 215.235 323.375 216.582C317.987 219.948 312.377 221.691 306.402 223.682C304.757 224.14 302.86 226.198 301.31 226.637C299.257 227.22 297.05 227.508 294.99 228.115C287.325 230.366 279.545 232.366 271.597 233.309C270.212 233.474 266.942 235.418 266.64 235.247C264.427 233.991 264.305 236.24 262.027 236.398C256.882 236.753 251.537 236.808 246.372 236.947C245.419 236.974 243.964 237.897 243.256 237.887C238.863 237.827 234.434 237.286 230.014 237.1C224.175 236.854 218.432 236.789 212.614 236.5C211.059 236.423 208.155 235.496 206.591 235.418C204.298 235.304 201.065 236.516 198.815 236.582C198.153 236.602 195.457 235.566 194.208 235.335C193.449 235.637 192.394 236.097 191.626 236.29C188.223 235.509 185.162 234.905 181.28 234.007C173.792 232.204 162.243 232.403 156.613 226.68C154.684 224.718 155.71 217.016 155.207 214.628C153.952 208.668 154.779 204.067 156.649 198.161C156.196 196.797 155.876 195.886 155.293 194.56C156.52 189.159 158.069 186.851 160.443 182.008C162.27 178.28 163.9 173.533 165.814 169.861C168.716 164.293 171.992 158.9 175.343 153.607L175.956 153.608C177.01 154.243 178.994 154.844 179.428 153.258C179.167 152.103 178.779 151.628 178.157 150.629C178.285 149.839 178.44 149.267 178.646 148.491ZM232.156 114.734C233.575 113.853 233.727 114.201 234.8 112.817C235.006 111.597 234.358 111.139 233.196 110.822C232.496 111.928 230.992 114.121 230.794 115.308C231.468 115.376 231.427 115.213 232.156 114.734ZM297.01 161.759C297.555 161.624 297.82 161.497 298.367 161.674L298.772 161.414C299.135 159.607 299.532 156.093 301.73 155.939L301.837 155.63C301.37 155.045 301.35 155.108 300.62 154.87C299.41 156.502 299.15 157.906 298.152 159.646C297.45 160.879 296.415 161.541 295.792 162.667C296.285 162.331 296.557 162.153 297.01 161.759ZM230.426 224.313C232.098 222.559 233.766 220.557 235.787 219.255C236.124 219.037 236.131 218.965 236.252 218.598L236.184 218.245C234.795 219.09 229.998 222.637 230.426 224.313ZM262.73 229.71C264.107 228.611 265.767 225.266 266.845 223.571L266.775 223.237L266.257 223.138C264.932 225.212 263.765 227.426 262.432 229.446L262.572 229.681L262.73 229.71ZM337.505 151.085C338.942 149.06 339.717 147.659 341.7 146.118C341.202 145.901 341.225 145.888 340.687 145.855C339.977 146.604 337.062 150.287 336.99 151.13L337.505 151.085ZM361.597 168.943C363.062 168.516 366.885 167.588 367.977 166.862L368.175 166.447L368.007 166.29C366.167 167.094 362.182 167.803 361.427 168.815L361.597 168.943ZM336.635 133.214C338.247 132.312 340.82 131.169 341.602 129.644L341.415 129.228C339.425 131.399 337.03 131.758 336.41 132.775C336.485 132.921 336.56 133.068 336.635 133.214ZM246.829 142.877C248.177 141.289 251.417 139.606 251.49 139.026L251.182 139.042C249.333 139.955 247.694 140.743 246.5 142.492L246.505 142.952L246.829 142.877ZM236.03 124.277C234.821 124.76 234.519 124.851 233.517 125.659L233.368 126.077L233.525 126.188C234.426 125.778 235.543 125.389 236.169 124.669C236.129 124.536 236.125 124.378 236.03 124.277ZM179.328 169.993C178.624 169.429 177.431 169.347 176.487 169.299L176.628 169.896C177.599 170.228 178.329 169.987 179.328 169.993ZM221.457 149.771C222.143 149.37 223.369 148.86 223.523 148.281L222.781 148.193C221.917 148.76 221.422 148.992 220.812 149.8L220.927 149.997L221.457 149.771ZM225.034 130.25C224.072 130.878 223.404 131.214 222.702 132.126L222.767 132.446L222.826 132.477C223.565 132.001 224.842 131.314 225.246 130.615L225.034 130.25ZM238.149 213.448C237.557 214.368 236.984 215.07 236.78 216.129L237.044 216.452C237.476 215.736 238.399 214.456 238.377 213.713L238.149 213.448ZM206.394 131.367C207.676 130.796 209.419 130.119 210.186 128.944C210.085 128.516 210.19 128.667 209.957 128.443C208.751 129.247 207.485 130.06 206.323 130.921L206.275 131.258L206.394 131.367ZM218.395 208.711C219.126 208.345 220.546 207.763 220.956 207.156L220.583 206.913C219.45 207.461 219.183 207.568 218.261 208.407L218.214 208.686L218.395 208.711ZM350.675 131.587C351.885 130.564 352.917 129.739 354.19 128.794L354.197 128.428L353.837 128.195C352.54 129.164 351.59 129.812 350.492 131.011L350.45 131.387L350.675 131.587ZM265.01 125.24C266.8 125.19 268.592 124.901 270.182 124.024L270.415 123.647L270.132 123.514C268.477 124.203 264.955 124.573 264.697 124.972L265.01 125.24ZM282.862 153.534L283.502 153.573L283.562 153.39C282.62 153.133 282.542 153.138 281.552 153.161L281.372 154.201L281.565 154.424L282.862 153.534ZM378.48 181.232C377.6 181.697 374.707 183.057 374.337 183.777L374.615 183.88C375.585 183.44 378.385 182.302 378.887 181.575L378.745 181.292L378.48 181.232ZM264.087 116.818C265.697 117.777 266.375 117.755 268.215 117.337C267.282 116.651 265.31 116.767 264.087 116.818ZM210.454 141.732C209.457 142.229 207.242 143.149 206.721 143.894L206.932 144.19L207.15 144.224C208.02 143.675 210.556 142.453 210.875 141.924L210.454 141.732ZM206.102 145.422C206.035 146.633 205.968 147.531 205.806 148.744L206.125 149.04L206.611 148.919C207.491 147.502 207.398 146.724 206.102 145.422Z" fill="#97918A"/>
<path d="M252.267 147.735C252.847 147.736 253.355 147.764 253.88 148.022C255.002 148.572 256.217 149.542 256.61 150.774C257.962 155.006 248.682 172.743 246.517 177.534C245.241 180.358 244.222 183.272 242.936 186.089C247.407 182.36 251.66 179.034 255.66 174.748C258.645 171.55 262.522 168.72 266.16 166.25C269.6 163.915 273.76 160.707 278.125 160.742C286.585 161.071 283.622 172.129 283.165 177.433C282.925 180.193 282.81 182.803 282.672 185.472C284.867 183.898 286.185 184.007 287.742 182.898C289.412 181.71 291.58 179.737 293.36 178.392C298.492 174.558 303.745 170.886 309.11 167.381C311.027 166.105 317.177 161.432 319.412 162.073L319.602 162.472C318.297 170.737 299.742 184.515 293.377 190.128C290.397 192.757 286.935 193.334 283.627 197.127C282.762 197.24 281.062 197.944 280.467 197.989C279.077 198.094 277.705 198.144 276.27 198.285C271.305 195.809 274.767 195.567 273.997 193.718C271.835 188.521 276.165 178.913 274.177 174.872C274.035 174.77 273.892 174.668 273.752 174.567C272.232 175.731 270.09 176.302 268.695 176.257L265.6 178.562C260.495 184.256 257.852 184.361 253.192 188.332C247.306 193.858 243.275 200.16 235.311 203.117C234.685 203.349 229.438 200.855 229.422 199.51C229.343 192.725 234.147 185.521 236.89 179.714L245.449 161.4C244.501 161.81 243.56 162.233 242.626 162.671C237.057 165.33 235.518 167.917 231.206 171.676C227.229 175.141 224.135 177.995 220.4 181.794C214.771 187.519 209.09 192.811 204.365 199.41C202.682 201.761 203.071 206.732 199.839 208.078C198.456 208.623 196.697 207.636 195.411 207.098C195.866 205.562 197.224 200.943 197.915 199.592C204.347 187.006 216.169 175.082 226.246 165.245C229.958 161.891 234.873 159.128 238.696 156.046C243.679 152.03 246.238 150.12 252.267 147.735Z" fill="#4B4746"/>
<path fill-rule="evenodd" clip-rule="evenodd" d="M365.933 321.2C373.845 321.935 371.483 330.108 370.455 335.133C369.62 339.215 369.508 343.595 368.356 347.729C366.618 353.962 362.785 359.283 359.425 364.735C358.675 365.973 357.456 367.508 357.776 368.95C359.584 369.884 366.253 365.923 369.112 370.553C373.16 377.108 371.533 378.155 370.598 385.022C374.478 387.61 380.573 388.51 385.308 389.615C390.09 390.731 383.085 402.805 382.608 405.925C382.39 407.362 378.233 411.075 376.92 412.027C369.82 417.167 362.333 422.668 353.99 425.565C352.793 425.19 351.513 424.733 350.316 424.33C346.883 419.768 348.075 411.472 348.375 405.702C343.878 404.402 338.952 404.65 335.027 402.515C333.973 401.942 333.713 399.05 333.518 397.808C332.943 395.155 334.101 394.585 335.316 391.815C333.728 389.528 331.197 391.452 329.56 392.577C317.857 400.597 305.537 398.442 295.527 388.812C292.92 388.385 291.205 387.828 288.705 386.985C285.588 387.848 282.865 387.867 279.87 386.622C278.875 384.972 278.707 384.417 278.09 382.582C278.717 380.297 279.023 379.592 280.415 377.697C284.133 375.825 286.46 375.977 290.367 376.692C295.32 373.67 304.868 373.713 310.49 372.253C313.273 371.533 318.193 368.542 321.085 367.43C322.513 366.88 325.076 364.693 326.606 363.83C333.415 359.985 339.6 355.098 345.54 350.035C347.105 348.68 354.61 338.8 355.728 336.912C358.965 331.447 360.48 325.56 365.933 321.2ZM145.148 295.525C148.212 295.421 148.067 296.843 148.853 299.442C155.019 319.86 170.679 334.865 184.522 350.292C189.184 355.009 195.095 358.078 200.371 361.995C202.685 363.713 205.036 365.07 207.745 366.037C209.82 366.777 211.555 368.228 213.528 368.888C214.875 369.335 218.518 369.038 219.981 369.025C221.299 370.292 222.184 369.443 223 371C224.083 369.595 224.543 370.603 226.5 372C229.738 374.312 225.065 379.265 223.571 381.32C222.542 381.513 221.15 381.89 220.111 381.772C218.23 381.56 216.014 379.525 214.059 380.152C213.113 380.455 212.438 381.615 211.475 381.835C209.479 382.29 196.432 379.122 193.804 378.625C191.974 378.278 190.071 378.13 188.262 377.715C187.157 377.462 186.261 376.768 185.109 376.548C181.175 375.793 176.789 376.03 173.009 374.665C169.783 373.503 167.346 370.447 164.337 368.902C163.666 368.558 163.418 368.567 162.717 368.8C161.586 370.055 162.539 375.1 162.094 377.263C161.587 379.725 161.255 380.223 160.337 382.28C155.69 392.69 151.736 387.947 144.504 390.43L142.733 389.388C141.227 388.11 138.72 386.763 136.957 385.735C134.292 391.615 133.119 397.29 130.612 403.452C128.505 409.345 125.625 415.462 119.444 418.005C113.828 419.972 109.965 411.97 107.073 409.195C101.117 403.478 98.6279 397.21 94.5216 390.312C91.2364 384.793 87.0449 379.455 84.4474 373.558C83.5924 371.618 83.6312 368.84 84.7052 366.975C87.8551 361.675 91.4126 360.613 97.13 360.378C103.049 360.133 108.292 359.168 113.865 362.103C114.291 359.048 114.453 358.173 114.358 355.03C115.066 354.01 116.492 351.12 116.986 350.117C120.472 341.985 124.706 341.647 132.82 342.527C134.177 342.675 136.331 342.87 136.889 341.277C136.572 338.837 129.817 331.557 128.017 328.39C128.141 316.94 134.105 305.023 141.977 296.878C142.319 296.523 144.558 295.738 145.148 295.525ZM329.977 382.961C329.722 383.036 329.448 383.122 329.143 383.224C329.448 383.122 329.722 383.036 329.977 382.961ZM334.718 382.435C333.115 382.481 332.22 382.5 331.35 382.641C331.785 382.57 332.226 382.531 332.759 382.503C333.292 382.475 333.916 382.459 334.718 382.436V382.435ZM148.301 334.399H148.302H148.301ZM148.592 332.625H148.593H148.592ZM266.776 223.237L266.846 223.571C265.768 225.266 264.108 228.611 262.731 229.71L262.573 229.681L262.433 229.445C263.765 227.425 264.933 225.212 266.258 223.138L266.776 223.237ZM236.253 218.599C236.132 218.965 236.124 219.038 235.787 219.255C233.766 220.557 232.099 222.559 230.427 224.313C229.999 222.637 234.795 219.091 236.185 218.245L236.253 218.599ZM238.377 213.713C238.399 214.455 237.476 215.736 237.044 216.452L236.78 216.129C236.984 215.07 237.557 214.368 238.15 213.448L238.377 213.713ZM220.956 207.156C220.546 207.763 219.126 208.345 218.395 208.711L218.214 208.686L218.262 208.407C219.183 207.568 219.45 207.461 220.583 206.913L220.956 207.156ZM378.745 181.291L378.888 181.574C378.385 182.301 375.585 183.441 374.615 183.881L374.338 183.777C374.708 183.057 377.601 181.696 378.481 181.231L378.745 181.291ZM176.487 169.3C177.431 169.348 178.624 169.429 179.328 169.993C178.329 169.987 177.599 170.228 176.628 169.896L176.487 169.3ZM368.176 166.447L367.978 166.862C366.885 167.588 363.063 168.516 361.598 168.942L361.428 168.815C362.183 167.803 366.168 167.094 368.008 166.29L368.176 166.447ZM300.62 154.87C301.35 155.108 301.371 155.045 301.838 155.63L301.731 155.939C299.533 156.094 299.135 159.607 298.773 161.414L298.367 161.675C297.82 161.497 297.555 161.624 297.01 161.759C296.558 162.153 296.285 162.332 295.793 162.668C296.416 161.542 297.45 160.879 298.152 159.646C299.15 157.906 299.41 156.502 300.62 154.87ZM281.553 153.16C282.543 153.138 282.62 153.134 283.563 153.391L283.503 153.573L282.862 153.534L281.566 154.424L281.373 154.201L281.553 153.16ZM178.647 148.491C178.441 149.267 178.286 149.839 178.157 150.629C178.779 151.627 179.168 152.103 179.429 153.258C178.995 154.843 177.01 154.243 175.957 153.608L175.344 153.607L178.647 148.491ZM340.688 145.855C341.225 145.888 341.203 145.901 341.7 146.118C339.718 147.659 338.943 149.06 337.506 151.085L336.99 151.13C337.063 150.287 339.977 146.605 340.688 145.855ZM223.524 148.281C223.37 148.861 222.143 149.37 221.457 149.771L220.927 149.998L220.813 149.801C221.423 148.993 221.918 148.761 222.781 148.193L223.524 148.281ZM206.103 145.423C207.398 146.725 207.492 147.502 206.611 148.919L206.125 149.04L205.807 148.744C205.969 147.531 206.036 146.633 206.103 145.423ZM210.875 141.924C210.555 142.453 208.02 143.676 207.151 144.225L206.932 144.19L206.721 143.894C207.243 143.149 209.458 142.229 210.454 141.731L210.875 141.924ZM251.49 139.026C251.418 139.607 248.178 141.289 246.83 142.877L246.505 142.952L246.5 142.492C247.694 140.744 249.333 139.956 251.183 139.043L251.49 139.026ZM341.603 129.645C340.82 131.169 338.248 132.312 336.636 133.215C336.561 133.068 336.485 132.921 336.41 132.774C337.03 131.758 339.425 131.399 341.415 129.228L341.603 129.645ZM225.246 130.615C224.842 131.314 223.565 132.001 222.826 132.477L222.768 132.446L222.702 132.127C223.404 131.215 224.073 130.878 225.034 130.25L225.246 130.615ZM354.198 128.428L354.191 128.794C352.918 129.739 351.886 130.565 350.676 131.587L350.45 131.387L350.493 131.012C351.591 129.813 352.541 129.165 353.838 128.195L354.198 128.428ZM209.958 128.443C210.19 128.667 210.086 128.517 210.187 128.944C209.42 130.119 207.676 130.796 206.395 131.367L206.276 131.259L206.323 130.921C207.485 130.06 208.752 129.248 209.958 128.443ZM236.03 124.277C236.126 124.378 236.13 124.536 236.17 124.669C235.544 125.389 234.426 125.778 233.525 126.188L233.368 126.077L233.518 125.659C234.52 124.851 234.822 124.76 236.03 124.277ZM270.415 123.646L270.183 124.023C268.593 124.9 266.8 125.191 265.01 125.24L264.697 124.973C264.955 124.573 268.478 124.203 270.133 123.514L270.415 123.646ZM264.088 116.818C265.311 116.768 267.283 116.651 268.215 117.338C266.375 117.755 265.698 117.778 264.088 116.818ZM233.196 110.822C234.359 111.139 235.006 111.597 234.8 112.816C233.728 114.201 233.576 113.853 232.157 114.734C231.428 115.213 231.469 115.376 230.794 115.308C230.992 114.121 232.496 111.928 233.196 110.822Z" fill="#97918A"/>
</g>
<g clip-path="url(#clip3_64_3895)">
<path fill-rule="evenodd" clip-rule="evenodd" d="M223.661 330.973C227.97 330.958 232.677 332.7 236.771 333.897C240.459 335.277 246.227 334.358 248.237 338.275C250.132 341.968 247.226 345.112 243.936 346.532C243.349 346.935 243.234 346.98 242.575 347.268C238.2 346.63 226.962 343.442 222.23 341.772C221.523 341.525 219.377 338.825 219.433 337.75C219.551 335.475 222.134 332.495 223.661 330.973ZM240.586 341.426H240.585H240.586ZM239.464 340.678H239.465H239.464ZM296.982 242.437C301.005 243.312 303.632 249.729 305.095 253.13C310.64 266.032 315.885 279.695 318.362 293.562C319.32 300.297 318.327 305.587 315.25 311.527C311.96 317.875 310.633 318.793 304.95 322.545C301.543 322.415 295.885 323.392 292.54 322.527C288.753 321.55 283.42 319.6 280.005 317.718C279.15 317.195 277.24 316.217 277.197 315.357C277.07 312.835 280.025 307.8 281.425 306.045C283.98 306.575 286.502 307.255 288.98 308.08C293.762 309.678 302.363 313.78 306.848 311.7C309.34 310.545 309.375 309.147 308.545 307.497C308.62 307.65 309.96 304.49 310.125 304.072C308.955 300.267 309.265 295.69 308.1 291.45C304.935 279.955 299.975 269.26 296.53 257.888C296.335 257.245 295.167 255.545 294.72 254.96C290.347 249.242 291.385 246.196 296.982 242.437ZM335.708 266.263C340.02 265.783 344.948 267.585 349.436 268.317C352.724 268.857 364.673 270.295 361.803 276.272C360.625 278.722 358.098 279.793 355.508 280.308C354.733 279.988 353.887 279.58 353.112 279.23C352.847 285.898 351.67 291.67 346.925 296.572C344.865 298.565 342.295 300.598 339.317 300.79C331.568 301.292 335.093 291.44 336.155 287.205C336.93 284.113 337.922 280.75 339.255 277.87C339.457 277.435 340.58 276.428 340.963 276.08C338.368 275.8 332.85 275.31 330.885 273.723C328.145 271.508 334.196 267.425 335.708 266.263ZM238.092 245.529C240.361 245.792 243.162 245.527 245.269 245.891C253.378 247.289 264.245 246.622 271.433 250.66C272.03 251.633 272.553 252.572 272.633 253.702C271.938 255.24 268.395 258.722 266.527 258.402C265.185 258.172 264.712 258.523 263.505 259.093L263.095 259.287C261.095 266.767 261.07 272.551 255.657 278.646C252.275 281.838 249.456 283.307 245.19 280.64C241.08 272.755 243.456 261.365 249.474 255.09L249.194 255.053C246.553 254.665 246.203 254.468 244.021 252.945C242.793 253.605 241.731 253.976 240.437 254.458C236.214 252.428 235.273 254.897 231.836 253.335C229.497 252.27 232.241 249.145 233.34 248.196C235.157 246.628 235.674 246.011 238.092 245.529ZM119.48 236.49C123.554 236.729 129.39 236.721 133.173 238.259C141.946 241.827 147.822 249.07 146.29 258.982C144.017 273.687 130.466 291.853 116.992 274.053C115.637 271.158 117.539 267.758 118.878 264.848C121.585 258.96 127.358 256.225 133.125 254.122C133.986 253.807 134.966 254.02 135.674 253.247C134.682 250.979 124.7 245.276 122.07 245.055C121.034 245.019 119.714 246.922 118.847 246.881C117.391 246.811 116.503 246.562 115.269 247.478C113.607 248.71 112.08 250.37 110.657 251.793C109.865 251.45 108.553 251.012 108.087 250.372C107.902 248.454 109.459 246.001 110.295 244.311C112.238 240.381 115.859 238.589 119.48 236.49ZM138.562 262.397C132.925 263.375 127.972 263.338 123.808 267.543C125.213 268.84 125.954 269.445 127.512 270.555C128.915 271.415 129.899 272.26 131.171 273.298C138.2 268.535 136.594 269.477 138.744 262.62L138.562 262.397ZM346.018 241.46C347.528 241.389 355.564 245.749 357.524 246.478C362.174 248.205 364.843 249.325 368.165 253.077C366.235 255.547 365.02 256.88 361.93 257.803C360.305 257.995 357.523 257.83 355.803 257.782C350.02 253.377 331.55 249.076 346.018 241.46ZM236.113 220.067C239.794 220.306 244.835 221.853 248.631 222.436C253.205 223.137 258.073 223.65 262.62 224.506C263.88 224.744 265.91 226.31 266.935 227.178C265.827 229.425 264.965 230.526 263.032 232.088L260.197 232.291C251.647 234.179 244.561 230.096 237.271 230.878C233.792 228.725 227.607 228.105 231.523 223.653C233.301 221.632 233.323 221.084 236.113 220.067Z" fill="#4B4746"/>
</g>
</g>
<defs>
<clipPath id="clip0_64_3895">
<rect width="480" height="480" fill="white"/>
</clipPath>
<clipPath id="clip1_64_3895">
<rect width="480" height="480" fill="white"/>
</clipPath>
<clipPath id="clip2_64_3895">
<rect width="480" height="480" fill="white"/>
</clipPath>
<clipPath id="clip3_64_3895">
<rect width="480" height="480" fill="white"/>
</clipPath>
</defs>
</svg>
