<svg width="480" height="480" viewBox="0 0 480 480" fill="none" xmlns="http://www.w3.org/2000/svg">
<g clip-path="url(#clip0_64_3903)">
<g clip-path="url(#clip1_64_3903)">
<path fill-rule="evenodd" clip-rule="evenodd" d="M234.125 110.604C241.555 108.252 248.194 108.212 255.872 108.654C261.399 108.973 266.824 111.58 272.524 110.946C273.824 110.802 277.671 112.698 279.387 112.924C293.362 114.766 306.602 117.635 318.062 126.365C319.642 127.566 321.949 127.96 323.869 129.538L324.354 130.693L323.87 129.539C325.292 130.224 328.072 131.837 329.337 132.334L329.634 132.419C332.729 133.398 336.509 137.576 338.677 139.778C340.279 141.406 343.194 142.949 344.587 144.699C348.877 150.093 351.389 156.535 355.489 162.109V162.477C355.509 165.788 357.924 167.937 359.592 170.693C360.777 172.386 361.504 174.916 362.609 176.552C368.007 184.527 371.132 191.374 373.114 200.792C374.157 205.741 375.397 206.725 375.792 212.379C376.284 219.484 376.927 226.177 376.257 233.357C376.084 236.88 375.04 241.176 374.64 244.701C374.237 248.258 374.857 252.402 374 255.887C371.955 264.194 369.684 272.095 366.127 279.907C365.462 281.37 364.262 284.927 363.54 286.1C361.172 289.892 359.157 293.84 356.675 297.56C355.797 298.875 355.167 301.512 354.144 302.697C351.212 306.092 348.312 309.552 345.43 312.992C344.372 314.252 342.44 315.307 341.335 316.567C339.432 318.572 337.167 321.802 335.217 323.649C328.904 329.632 321.749 335.8 314.274 340.25C312.017 341.595 307.549 342.727 304.979 343.595C300.817 345 296.981 345.75 292.722 346.675C290.912 347.07 289.027 348.352 286.425 348.907C283.247 349.59 278.932 348.979 276.177 349.994C275.287 350.324 274.974 353.125 274.891 354.21C274.627 357.725 276.894 366.547 274.507 368.952L274.349 369.109V369.393C269.024 371.493 252.564 370.017 246.492 369.444C241.979 369.299 237.126 369.117 232.667 368.64C231.621 368.527 223.808 366.237 223.348 365.864C222.686 361.479 223.279 352.487 223.794 347.857C218.522 347.12 215.663 344.909 211.105 343.297C209.77 342.822 208.277 342.65 206.901 342.3C202.183 341.092 201.959 338.244 198.62 335.779C196.446 334.175 193.301 333.769 190.979 332.247C189.626 331.36 188.951 329.619 187.68 328.614C186.551 327.724 185.054 327.412 183.891 326.567C178.767 322.845 169.889 315.642 166.806 310.242C166.273 310.433 166.049 310.457 165.655 310.467L165.187 310.478C162.414 316.805 156.369 320.365 151.227 324.845C145.21 329.462 138.075 330.097 130.971 328.805C116.016 326.08 106.312 317.634 101.171 303.47C98.6838 296.617 98.5426 284.845 101.401 278.17C103.851 272.45 108.783 264.712 113.751 260.89C120.899 255.75 130.045 250.81 139.131 252.032C138.174 247.56 137.517 241.658 137.276 237.109C137.099 233.75 137.744 229.688 137.505 226.252C135.599 198.897 146.39 171.433 163.082 150.111C165.596 146.901 168.409 144.186 171.336 141.355C180.36 130.323 193.535 124.543 205.728 117.772C207.847 116.947 210 116.121 212.184 115.485C218.38 113.683 224.496 111.923 230.818 110.603C231.752 110.373 233.265 110.875 234.125 110.604ZM288.787 340.345L288.659 341.018L289.239 341.8V341.799L288.66 341.017L288.787 340.345ZM289.382 339.8C289.258 339.89 289.139 339.989 289.025 340.097C289.091 340.035 289.157 339.975 289.225 339.92C289.277 339.878 289.329 339.838 289.383 339.8H289.382ZM165.223 308.423C165.24 308.582 165.253 308.742 165.262 308.903C165.253 308.741 165.24 308.582 165.223 308.422V308.423ZM252.016 308.331C252.059 308.311 252.1 308.29 252.137 308.268L252.135 308.267C252.098 308.289 252.058 308.311 252.016 308.331ZM187.53 305.19C187.545 305.24 187.575 305.267 187.651 305.344C187.595 305.288 187.564 305.258 187.545 305.227C187.538 305.215 187.534 305.203 187.53 305.19ZM286.496 303.214C286.41 303.27 286.324 303.327 286.239 303.387H286.24C286.409 303.268 286.582 303.156 286.758 303.05L286.496 303.214ZM287.569 302.606H287.57H287.569ZM250.192 301.354C250.041 301.426 249.898 301.493 249.763 301.552C249.648 301.567 249.541 301.579 249.439 301.588C249.541 301.579 249.649 301.567 249.764 301.552L250.112 301.395C250.139 301.382 250.165 301.367 250.192 301.354ZM250.572 301.17C250.808 301.053 251.058 300.927 251.314 300.795H251.313C251.057 300.927 250.808 301.053 250.572 301.17ZM267.559 293.771C267.543 293.778 267.527 293.786 267.512 293.794C267.527 293.786 267.543 293.778 267.559 293.771ZM301.49 289.667L301.782 289.84L301.491 289.667C301.395 289.608 301.301 289.547 301.209 289.484C301.301 289.547 301.394 289.608 301.49 289.667ZM301.031 281.397C301.151 281.493 301.265 281.6 301.369 281.725L301.364 282.292L301.365 282.291L301.37 281.725C301.318 281.662 301.263 281.604 301.207 281.55C301.151 281.496 301.092 281.445 301.032 281.397C300.972 281.35 300.909 281.305 300.846 281.263L301.031 281.397ZM287.938 281.301C287.896 281.396 287.865 281.49 287.849 281.582L288.222 281.802V281.801L287.849 281.582C287.857 281.536 287.87 281.489 287.885 281.442C287.9 281.396 287.918 281.348 287.939 281.301H287.938ZM345.805 272.227C345.673 272.222 345.589 272.224 345.53 272.225C345.589 272.224 345.673 272.223 345.805 272.228C345.993 272.184 346.171 272.145 346.343 272.107C346.171 272.145 345.993 272.183 345.805 272.227ZM345.343 272.183C345.359 272.193 345.373 272.2 345.386 272.206C345.373 272.2 345.359 272.193 345.343 272.183ZM345.097 272.01C345.214 272.089 345.28 272.139 345.325 272.171C345.28 272.139 345.214 272.089 345.098 272.01H345.097ZM154.893 261.368C154.922 261.394 154.952 261.417 154.981 261.438C154.922 261.396 154.864 261.344 154.807 261.282L154.893 261.368ZM326.212 260.438L326.215 260.652L327.529 261.022V261.021L326.215 260.652L326.212 260.437V260.438ZM340.195 255.941C340.115 255.987 340.033 256.036 339.949 256.09H339.95C340.034 256.036 340.116 255.987 340.195 255.941ZM340.667 255.709C340.522 255.769 340.373 255.841 340.216 255.93C340.373 255.841 340.522 255.769 340.667 255.709ZM340.881 255.629C340.818 255.65 340.754 255.673 340.69 255.699C340.754 255.673 340.818 255.65 340.881 255.629ZM331.871 255.521C331.79 255.557 331.71 255.595 331.632 255.634C331.711 255.595 331.79 255.557 331.871 255.521ZM341.046 255.58C341 255.593 340.953 255.605 340.907 255.62C340.953 255.605 341 255.593 341.046 255.58ZM341.251 255.525C341.234 255.529 341.217 255.534 341.2 255.538C341.276 255.52 341.351 255.505 341.428 255.491L341.251 255.525ZM343.064 255.35H343.065L344.275 255.183L344.274 255.182L343.064 255.35ZM164.954 247.182C164.873 247.23 164.792 247.28 164.71 247.33C164.792 247.28 164.873 247.23 164.954 247.182ZM165.512 246.856C165.374 246.934 165.23 247.017 165.084 247.104C165.23 247.017 165.374 246.934 165.512 246.856ZM184.894 230.43C184.94 230.438 184.988 230.445 185.038 230.45H185.039C184.989 230.445 184.941 230.438 184.894 230.43ZM184.75 230.395C184.783 230.405 184.819 230.413 184.855 230.421C184.819 230.413 184.783 230.405 184.75 230.395ZM184.609 230.341C184.646 230.359 184.686 230.375 184.728 230.389C184.686 230.375 184.646 230.359 184.609 230.341L184.923 229.85H184.922L184.609 230.341ZM213.317 228.474C213.231 228.482 213.156 228.49 213.092 228.499C213.156 228.49 213.231 228.483 213.317 228.475C213.492 228.424 213.689 228.372 213.895 228.315L213.317 228.474ZM213.28 227.823C212.976 227.929 212.682 228.088 212.197 228.398H212.198C212.683 228.088 212.977 227.929 213.28 227.823ZM186.13 222.387L186.162 222.381L186.494 222.589L186.162 222.38C186.151 222.382 186.14 222.384 186.13 222.387ZM324.079 216.63L324.5 216.821V216.82L324.08 216.63C324.096 216.595 324.114 216.56 324.136 216.527L324.079 216.63ZM179.171 213.145C179.179 213.187 179.187 213.23 179.197 213.271C179.187 213.23 179.178 213.187 179.171 213.145ZM179.145 212.984C179.15 213.016 179.155 213.047 179.16 213.077C179.153 213.03 179.145 212.983 179.14 212.935L179.145 212.984ZM179.088 212.379C179.084 212.338 179.081 212.297 179.077 212.254C179.066 212.139 179.054 212.017 179.038 211.885H179.037C179.06 212.066 179.075 212.229 179.088 212.379ZM204.483 208.104C204.537 208.152 204.595 208.196 204.654 208.237L204.484 208.104C204.612 208.095 204.752 208.087 204.9 208.082C204.752 208.087 204.611 208.095 204.483 208.104ZM168.58 192.528C168.42 192.721 168.325 192.952 168.2 193.407H168.201C168.292 193.076 168.367 192.863 168.463 192.697C168.498 192.636 168.537 192.581 168.58 192.528ZM168.658 192.442C168.64 192.461 168.621 192.48 168.604 192.499C168.621 192.48 168.64 192.461 168.658 192.442ZM168.849 192.269C168.827 192.287 168.806 192.305 168.786 192.322C168.835 192.28 168.889 192.237 168.948 192.189C168.913 192.217 168.88 192.243 168.849 192.269ZM330.148 186.02C330.149 186.038 330.152 186.053 330.157 186.068C330.152 186.053 330.149 186.038 330.148 186.019V186.02ZM277.757 172.756H277.758C277.934 172.739 278.07 172.72 278.183 172.707H278.182C278.069 172.72 277.933 172.739 277.757 172.756ZM342.881 169.317V169.318V169.317ZM303.777 168.852C303.565 168.934 303.359 169.022 303.171 169.114C303.234 169.084 303.299 169.053 303.365 169.023C303.498 168.964 303.637 168.907 303.778 168.852H303.777ZM342.637 168.265C342.545 168.421 342.471 168.546 342.398 168.661C342.471 168.546 342.546 168.421 342.638 168.265H342.637ZM343.67 168.785V168.786V168.785ZM305.364 168.288C305.157 168.365 304.902 168.451 304.628 168.545C304.902 168.451 305.158 168.365 305.365 168.288L305.51 168.27L305.364 168.288ZM310.182 168.447H310.182C310.215 168.404 310.251 168.361 310.29 168.319H310.289C310.25 168.361 310.214 168.404 310.182 168.447ZM262.611 148.748C262.274 148.888 262.087 149.016 261.739 149.493C261.797 149.515 261.853 149.532 261.909 149.546C261.854 149.532 261.797 149.515 261.74 149.493C262.088 149.016 262.275 148.888 262.612 148.748H262.611ZM263.449 148.405C263.323 148.462 263.211 148.509 263.109 148.551L263.45 148.405L263.639 148.192C263.58 148.256 263.517 148.327 263.449 148.405ZM264.882 147.262C264.71 147.369 264.569 147.454 264.445 147.532C264.569 147.454 264.711 147.369 264.883 147.262H264.882ZM281.633 144.961C281.642 144.956 281.65 144.951 281.659 144.946C281.65 144.951 281.642 144.956 281.633 144.961ZM311.975 135.206C312.039 135.221 312.104 135.238 312.169 135.257L311.976 135.206C311.913 135.191 311.85 135.178 311.788 135.167L311.975 135.206ZM310.75 134.915C310.933 134.975 311.147 135.039 311.432 135.126H311.432C311.148 135.038 310.933 134.975 310.75 134.915ZM323.301 131.911C322.538 132.644 321.585 133.561 320.962 135.117C321.086 134.806 321.225 134.521 321.372 134.257C321.445 134.125 321.521 133.998 321.599 133.877C322.141 133.027 322.767 132.424 323.301 131.911ZM310.502 134.827C310.564 134.851 310.629 134.874 310.698 134.897C310.629 134.874 310.564 134.851 310.502 134.827ZM310.251 134.72C310.314 134.75 310.375 134.777 310.438 134.803C310.375 134.777 310.314 134.75 310.251 134.72ZM309.489 134.266C309.693 134.403 309.856 134.507 310.001 134.59C309.929 134.548 309.852 134.501 309.768 134.448C309.684 134.395 309.592 134.334 309.49 134.266H309.489ZM327.919 132.226C328.078 132.246 328.267 132.267 328.457 132.283C328.267 132.267 328.078 132.246 327.919 132.226Z" fill="#C77242"/>
<path fill-rule="evenodd" clip-rule="evenodd" d="M219.089 365.133C220.574 365.438 222.307 366.295 223.348 365.865C223.807 366.238 231.62 368.527 232.667 368.64C237.126 369.117 241.979 369.3 246.493 369.445C252.565 370.018 269.024 371.492 274.349 369.393V369.11C278.342 369.24 280.932 369.947 284.495 370.47C295.275 372.05 301.537 375.983 307.39 385.362C310.194 389.86 313.172 394.2 312.689 400.112C312.514 402.517 312.547 406.91 311.269 408.902C308.629 412.947 306.357 418.355 303.072 421.805C299.312 425.755 294.912 425.317 290.015 425.527C280.255 425.942 270.629 425.12 260.859 425.367C258.559 425.425 255.277 424.53 252.88 424.522C247.678 425.457 243.882 425.875 238.565 425.463C234.977 425.185 233.364 425.99 229.654 424.308C227.23 424.82 220.57 425.292 218.307 424.562C213.224 422.923 211.347 423.79 206.223 424.305C201.497 424.779 196.948 424.383 192.281 423.711L190.273 423.407C188.925 423.192 186.907 421.558 185.703 420.708C181.356 417.348 177.984 414.97 179.479 409.255C179.565 408.927 179.324 406.777 179.384 406.077C180.881 388.39 194.796 379.683 208.567 371.378C212.537 368.961 214.686 367.195 219.089 365.133ZM219.627 419.787V419.788V419.787ZM279.759 420.76C279.655 420.835 279.569 420.893 279.504 420.934C279.569 420.893 279.655 420.835 279.759 420.76ZM248.447 419.777H248.448H248.447ZM189.242 417.115C188.863 417.527 188.477 417.919 188.087 418.308C188.477 417.919 188.863 417.527 189.242 417.115ZM299.873 418.807H299.874H299.873ZM264.152 418.221C263.867 418.322 263.578 418.415 263.332 418.51C263.579 418.415 263.867 418.322 264.152 418.221ZM262.632 418.41H262.633H262.632ZM265.082 417.801C265.057 417.817 265.032 417.832 265.006 417.848C265.073 417.807 265.136 417.766 265.193 417.722L265.082 417.801ZM193.808 416.438L193.807 416.438L193.808 416.438ZM246.608 414.283H246.609H246.608ZM219.108 412.742H219.109H219.108ZM217.062 409.809C217.115 409.811 217.167 409.812 217.219 409.812C217.167 409.812 217.115 409.811 217.062 409.809ZM213.944 409.073H213.945H213.944ZM213.808 409.557V409.558L213.907 409.495L213.808 409.557ZM214.627 409.463C214.551 409.461 214.474 409.46 214.395 409.462C214.474 409.46 214.551 409.461 214.627 409.463ZM216.572 408.147H216.571C216.233 408.183 215.927 408.226 215.643 408.285C215.927 408.226 216.234 408.183 216.572 408.147ZM288.777 390.338C288.824 390.407 288.875 390.468 288.929 390.522C288.875 390.468 288.824 390.406 288.777 390.337V390.338ZM194.042 386.495V386.496V386.495ZM194.511 385.052C193.892 385.448 193.309 385.845 192.807 386.361C192.919 386.246 193.035 386.138 193.154 386.033C193.571 385.668 194.031 385.36 194.512 385.052H194.511ZM198.33 382.675V382.676V382.675ZM232.26 379.568V379.567V379.568ZM217.694 372.958C217.807 372.958 217.902 372.96 217.982 372.964C217.902 372.96 217.807 372.957 217.694 372.957C217.615 372.942 217.538 372.929 217.463 372.919C217.538 372.929 217.615 372.943 217.694 372.958ZM218.844 372.718C218.651 372.874 218.569 372.947 218.493 372.977C218.569 372.947 218.651 372.874 218.844 372.718Z" fill="#4B4746"/>
</g>
<g clip-path="url(#clip2_64_3903)">
<path d="M266.212 80.7565C268.312 80.0295 275.62 78.2162 277.835 78.6915C284.1 80.035 289.642 78.4195 295.992 78.625C297.632 78.642 299.565 79.5385 301.15 79.6403C306.245 79.967 310.545 81.0545 315.387 82.566C319.82 83.9488 326.005 85.2705 329.335 88.8203C330.577 92.804 329.785 94.543 327.877 98.2015L327.707 98.5275C333.925 95.16 344.792 95.0985 351.75 95.54C353.8 95.67 356.047 95.063 358.13 95.3605C381.607 97.4722 395.377 111.701 384.305 134.927C383.712 136.171 382.507 137.418 382.115 138.652C382.715 139.039 385.137 140.113 385.34 140.316C387.462 142.439 389.737 146.93 390.395 149.826C391.812 156.777 385.362 163.686 380.582 167.867C378.94 169.303 376.185 170.263 374.385 171.345C369.02 174.571 364.36 176.007 358.287 177.477C352.727 178.823 347.02 180.771 341.327 181.785C337.15 182.712 332.505 184.579 328.215 185.322C325.06 185.868 321.57 186.455 318.372 186.764C315.607 187.03 312.417 186.834 309.65 187.286C306.54 187.795 303.145 188.883 300.067 189.535C299.525 189.65 297.552 188.575 296.917 188.249C293.16 189.235 278.057 190.312 274.502 189.234C274.405 189.204 274.302 189.182 274.205 189.156C269.837 190.653 269.087 191.176 264.63 190.06C260.845 189.113 254.142 190 250.342 189.676C246.547 189.353 230.946 186.942 228.185 188.554C227.812 190.358 228.001 192.248 227.501 194.41C226.901 197.334 225.795 200.265 224.856 203.076C222.585 209.873 219.633 216.552 213.542 220.789C212.265 221.676 207.691 222.164 205.488 222.946L205.183 223.056C202.995 221.639 199.831 218.961 198.366 216.77C197.255 222.247 193.982 230.422 190.497 234.836C186.001 240.53 180.317 244.514 172.699 244.091C173.315 251.968 172.909 262.708 167.522 269.098C165.549 271.438 158.78 275.335 155.558 275.843C154.365 276.03 152.106 273.805 150.641 273.183C146.933 271.61 142.985 270.382 139.524 268.28C135.991 266.132 134.161 263.895 131.371 260.998C130.368 259.955 128.112 258.525 126.881 257.325C122.032 252.6 117.489 247.923 113.17 242.701C112.074 241.376 109.441 238.956 108.595 237.801C107.213 235.916 104.258 231.309 103.327 229.233C101.879 226.004 101.022 222.884 99.0318 219.776C99.6006 219.281 100.922 218.523 101.619 218.015C103.238 217.967 104.856 217.929 106.476 217.901C104.875 215.797 104.727 215.125 106.808 213.304L107.038 213.106C104.742 212.004 102.204 215.23 100.777 216.468C100.226 216.947 98.9273 217.647 98.2491 218.087C97.1801 216.624 95.5368 214.311 95.1363 212.464C94.1406 207.869 93.9816 199.248 94.1083 194.559C94.1736 192.144 95.2886 185.135 95.6636 182.619C97.3148 171.546 103.206 158.838 109.84 149.864C111.008 148.284 113.138 146.109 114.52 144.538C116.199 142.722 117.705 140.32 119.451 138.603C125.55 132.674 131.695 127.255 138.721 122.392C147.862 116.079 158.191 110.411 168.171 105.491C177.003 101.136 186.944 98.012 195.895 93.7692C197.881 92.9535 200.066 92.5315 202.06 91.7623C207.757 89.565 213.381 87.5573 219.305 85.9798C223.328 84.9085 228.968 82.554 233.103 82.9155C235.19 83.0785 237.991 82.0665 240.161 81.4105C244.095 80.2217 250.202 81.2018 253.495 80.5733C260.717 79.1948 258.812 78.3765 266.212 80.7565ZM185.539 180.564C186.979 180.135 189.366 178.475 189.628 176.936C189.141 176.537 188.815 176.399 188.085 176.428C186.497 177.303 184.994 178.285 183.952 179.806L183.905 180.364C184.574 180.75 184.615 180.596 185.539 180.564ZM104.761 222.684L105.669 221.666C105.599 220.981 105.549 221.046 105.74 220.391C106.378 220.153 107.094 220.003 107.484 219.549C106.848 218.947 106.179 219.097 105.303 219.163C104.042 220.082 102.424 221.514 102.793 223.288L103.217 223.582C104.015 223.405 104.149 223.211 104.761 222.684ZM168.29 120.625C170.431 120.053 170.974 119.988 173.178 119.823C173.901 119.147 174.728 118.57 174.927 117.641C174.624 117.098 174.771 117.267 174.28 116.869C173 120.054 169.778 118.654 167.932 120.265C168.122 120.62 167.984 120.522 168.29 120.625ZM155.056 225.196C155.927 224.868 160.4 222.923 160.748 222.323L160.367 222.262C159.443 222.596 154.968 223.964 154.613 224.181C154.291 224.896 154.286 224.561 154.51 225.214C155 225.233 154.827 225.289 155.056 225.196ZM131.728 232.559C130.999 232.949 130.043 233.338 129.633 233.999C130.468 234.117 131.865 233.529 132.734 233.239C133.801 232.849 135.264 232.143 134.965 230.747L134.369 230.644C133.258 231.035 132.618 231.761 131.728 232.559ZM305.85 174.752C307.585 174.483 310.955 174.104 312.44 173.333L312.735 172.882L312.447 172.495C309.785 173.998 307.932 173.061 305.705 174.499L305.85 174.752ZM309.395 93.8057C309.962 93.2397 312.422 88.0497 312.907 86.9952L312.787 86.4163C311.76 87.4868 309.23 92.6522 309.395 93.8057ZM375.402 144.958C376.76 145.33 378.572 145.249 379.63 144.221C378.85 143.842 377.112 144.78 375.285 144.245C374.51 143.62 374.812 144.014 374.512 142.911C373.715 143.599 372.112 144.772 371.252 145.357C372.485 145.268 374.232 145.203 375.402 144.958ZM236.377 187.508C237.758 186.769 239.46 185.457 240.772 184.507L240.867 184.152L240.742 184.012C239.186 184.596 237.454 185.745 236.164 186.786L236.114 187.206L236.377 187.508ZM192.798 200.53C193.527 200.325 194.779 200.099 195.224 199.573C194.712 199.142 194.99 199.295 194.344 199.186C193.502 199.519 192.568 199.798 191.915 200.398C192.468 200.647 192.174 200.597 192.798 200.53ZM378.022 124.443C376.972 125.046 374.105 126.29 373.67 126.836L373.907 126.925C375.185 126.507 377.357 125.773 378.287 124.833L378.252 124.547L378.022 124.443ZM374.447 132.402C375.2 132.275 375.19 132.307 375.85 131.944L375.852 131.762C375.19 131.572 375.2 131.526 374.527 131.493C373.772 131.752 373.12 131.854 372.67 132.472C373.287 132.784 373.585 132.558 374.447 132.402ZM281.665 173.838C282.432 173.171 283.555 172.263 284.18 171.508L284 171.238C283.105 171.81 281.897 172.455 281.295 173.272C281.407 173.753 281.277 173.568 281.665 173.838ZM346.997 162.264C348.035 161.581 348.642 161.167 349.615 160.364L349.522 160.068L349.89 159.893L349.95 160.04L349.455 160.076L350.072 159.875L350.03 159.792C348.722 160.234 347.08 161.369 345.727 162.116C344.497 162.547 344.27 162.612 343.247 163.404L342.992 163.943L343.252 164.068C344.555 163.333 345.56 162.697 346.997 162.264ZM131.172 180.374C132.419 180.916 133.036 180.886 134.338 180.458C133.206 180.115 132.36 180.23 131.172 180.374ZM331.462 156.149C332.057 155.508 333.375 154.233 333.655 153.502L333.592 153.227C332.645 154.006 331.977 154.426 331.4 155.505L331.462 156.149ZM160.589 141.704C160.053 140.882 158.502 140.107 157.58 140.449C158.083 141.083 159.773 141.535 160.589 141.704ZM308.162 154.955C307.185 155.744 305.277 156.675 305.34 157.768C306.462 157.176 308.337 156.445 308.162 154.955ZM165.921 196.8C166.525 196.364 168.159 195.374 168.295 194.843L168.178 194.773C167.163 195.216 166.408 195.429 165.683 196.249L165.703 196.626L165.921 196.8ZM170.868 149.38C172.052 149.833 172.618 149.939 173.87 149.564C172.929 149.062 171.968 149.265 170.868 149.38ZM126.951 153.49C126.144 153.806 125.394 154.095 124.607 154.457L124.75 154.715L125.058 154.756C125.862 154.491 126.818 154.263 127.438 153.732C127.184 153.44 127.345 153.523 126.951 153.49ZM146.793 139.6C147.546 139.301 148.753 138.99 149.118 138.439L148.805 138.267C148.04 138.472 146.713 138.69 146.253 139.241C146.634 139.585 146.439 139.493 146.793 139.6ZM171.291 154.853L169.24 155.35L169.115 155.597L169.557 155.761C170.417 155.603 170.91 155.578 171.666 155.123L171.64 154.851L171.291 154.853ZM156.325 134.583C157.596 135.315 158.742 135.631 160.12 134.885C158.778 134.56 157.691 134.599 156.325 134.583ZM169.375 226.954C171.71 225.388 174.967 225.69 175.391 224.438L175.283 224.351C173.867 224.804 170.138 225.68 169.254 226.248L169.143 226.614L169.375 226.954ZM321.185 170.253C320.22 170.84 319.035 171.467 318.267 172.261L318.212 172.658L318.367 172.756C319.335 172.146 320.662 171.437 321.347 170.583L321.185 170.253ZM313.522 165.328C312.115 165.632 310.76 165.838 309.49 166.507L309.455 166.826L309.532 166.885C310.637 166.665 313.092 166.337 313.707 165.484L313.522 165.328ZM270.532 159.38L270.682 159.872C271.482 160.193 273.957 159.757 275.105 159.738L274.997 159.361C273.587 159.144 271.967 159.269 270.532 159.38ZM271.515 165.164C270.67 165.64 267.945 166.901 267.657 167.434L267.935 167.714C269.22 167.195 270.88 166.453 271.885 165.484C271.762 165.378 271.637 165.271 271.515 165.164ZM256.145 180.596C257.545 179.598 258.785 178.699 260.122 177.622C260.052 177.27 260.142 177.399 259.902 177.208C258.97 177.811 256.162 179.424 255.945 180.415L256.145 180.596ZM308.212 152.12C308.3 153.143 308.115 153.133 308.67 153.656C309.977 153.621 310.795 153.128 312.11 152.742L311.987 152.41C309.775 152.431 310.225 153.054 308.212 152.12ZM334.29 172.875C333.49 173.869 331.932 176.371 331.542 177.546L331.82 177.852C332.187 177.394 334.225 174.005 334.637 173.264L334.29 172.875ZM185.259 197.534C184.388 198.078 184.048 198.176 183.61 199.048C183.577 199.895 183.535 200.205 184.235 200.944C184.576 201.3 184.951 201.622 185.354 201.904C185.11 200.774 184.881 200.35 184.34 199.315C184.536 198.528 184.862 198.298 185.398 197.616L185.259 197.534ZM139.19 155.443C141.007 156.955 141.443 156.71 143.836 156.652C143.132 155.477 140.501 155.498 139.19 155.443ZM299.047 181.214C297.385 181.98 295.79 182.683 294.61 184.128L294.655 184.516L294.95 184.611C296.062 183.177 297.837 182.659 299.422 181.538L299.3 181.28L299.047 181.214ZM149.962 134.741C151.376 133.704 152.968 133.28 154.219 132.196L154.18 131.816L153.794 131.737C152.608 132.411 150.697 133.417 149.708 134.251L149.716 134.641L149.962 134.741ZM158.516 149.268C156.927 150.33 157.173 150.493 155.317 149.802C154.729 150.09 154.534 150.5 154.156 151.043C155.391 151.204 157.997 150.833 158.731 149.745C158.616 149.318 158.728 149.452 158.516 149.268Z" fill="#FF81B2"/>
<path d="M312.422 118.171C315.497 118.179 318.097 120.102 319.65 122.622C319.052 131.175 316.937 135.776 310.727 142.037C310.085 142.684 308.99 143.898 308.285 143.635C306.982 143.149 304.667 144.263 303.072 144.496C299.635 145.001 295.98 145.993 292.52 145.389C290.757 145.082 289.59 144.1 288.14 143.106C286.435 145.659 283.175 151.881 278.29 151.195C276.422 150.933 275.86 151.991 274.417 152.544C272.207 153.39 269.632 152.506 267.015 152.757L266.575 152.801C263.372 149.803 264.41 152.045 261.215 151.628C258.99 150.896 256.255 150.282 254.082 149.652C249.759 148.399 252.29 148.695 249.472 151.559C247.153 153.915 243.963 155.337 240.815 156.681C236.644 155.58 231.898 154.958 227.737 153.757C226.219 153.318 223.09 151.409 221.671 150.495C220.542 149.768 216.518 147.924 215.838 147.376C212.726 144.87 207.554 141.073 204.934 138.275C205.73 134.856 206.359 134.122 208.821 131.653C213.769 135.331 217.552 138.472 222.938 141.561C223.158 141.7 223.38 141.836 223.604 141.971C229.861 145.756 235.782 147.954 243.222 146.225C244.016 146.041 244.114 145.82 244.408 145.266C244.04 143.43 240.84 141.466 239.578 140.085C238.632 138.7 236.305 138.458 235.242 137.502C229.291 132.153 232.356 125.99 235.989 121.22C236.649 121.204 238.567 121.166 239.147 121.396C244.003 123.254 246.116 128.69 249.729 131.941C254.177 135.943 262.27 138.705 268.12 139.81C271.395 140.429 275.61 140.253 278.902 140.147C274.277 136.638 273.25 136.685 269.002 131.557C273.207 121.863 273.67 116.489 283.602 126.251C288.815 131.374 291.075 132.697 298.205 132.359C305.03 132.035 304.647 134.394 310.46 128.878C310.507 126.118 310.155 123.596 310.245 120.769C311.005 119.654 311.512 119.134 312.422 118.171Z" fill="#4B4746"/>
<path d="M134.966 230.746C135.265 232.142 133.801 232.85 132.734 233.239C131.865 233.53 130.468 234.117 129.633 233.999C130.043 233.338 130.999 232.949 131.729 232.56C132.618 231.761 133.258 231.035 134.369 230.645L134.966 230.746ZM175.392 224.438C174.967 225.689 171.71 225.388 169.375 226.953L169.144 226.613L169.254 226.248C170.138 225.68 173.866 224.804 175.283 224.351L175.392 224.438ZM160.748 222.322C160.4 222.922 155.927 224.868 155.056 225.196C154.827 225.288 155 225.232 154.51 225.214C154.286 224.561 154.292 224.895 154.613 224.181C154.971 223.963 159.443 222.597 160.367 222.262L160.748 222.322ZM105.303 219.162C106.179 219.097 106.849 218.947 107.484 219.549C107.094 220.003 106.378 220.153 105.739 220.392C105.549 221.046 105.599 220.981 105.669 221.666L104.761 222.684C104.149 223.21 104.015 223.406 103.217 223.582L102.793 223.287C102.424 221.514 104.042 220.082 105.303 219.162ZM100.777 216.468C102.204 215.23 104.742 212.004 107.038 213.106L106.808 213.304C104.727 215.125 104.875 215.797 106.476 217.901C104.856 217.929 103.238 217.967 101.619 218.016C100.922 218.524 99.6009 219.281 99.0322 219.776C98.7722 219.337 98.4665 218.577 98.249 218.087C98.9273 217.647 100.226 216.946 100.777 216.468ZM185.397 197.616C184.862 198.298 184.537 198.528 184.341 199.314C184.882 200.35 185.11 200.774 185.354 201.904C184.951 201.622 184.576 201.3 184.235 200.944C183.535 200.205 183.577 199.895 183.609 199.048C184.048 198.175 184.388 198.079 185.259 197.534L185.397 197.616ZM194.344 199.187C194.99 199.295 194.713 199.142 195.225 199.573C194.779 200.099 193.527 200.325 192.798 200.53C192.175 200.598 192.468 200.647 191.915 200.397C192.569 199.798 193.502 199.519 194.344 199.187ZM168.295 194.843C168.159 195.374 166.525 196.364 165.921 196.8L165.703 196.626L165.684 196.249C166.408 195.43 167.164 195.217 168.178 194.773L168.295 194.843ZM240.867 184.152L240.772 184.507C239.46 185.457 237.758 186.769 236.377 187.508L236.114 187.206L236.164 186.785C237.454 185.744 239.187 184.596 240.742 184.012L240.867 184.152ZM299.3 181.28L299.423 181.538C297.838 182.659 296.063 183.177 294.95 184.61L294.655 184.516L294.61 184.128C295.79 182.683 297.385 181.98 299.048 181.215L299.3 181.28ZM131.172 180.374C132.36 180.23 133.206 180.115 134.338 180.458C133.036 180.886 132.419 180.916 131.172 180.374ZM188.086 176.428C188.815 176.399 189.141 176.537 189.628 176.937C189.365 178.475 186.979 180.135 185.539 180.564C184.615 180.596 184.573 180.75 183.905 180.364L183.952 179.806C184.994 178.285 186.497 177.303 188.086 176.428ZM259.902 177.208C260.142 177.399 260.053 177.27 260.123 177.621C258.786 178.698 257.545 179.598 256.146 180.596L255.945 180.415C256.164 179.424 258.97 177.812 259.902 177.208ZM334.638 173.264C334.225 174.005 332.188 177.392 331.82 177.852L331.543 177.546C331.933 176.371 333.49 173.869 334.29 172.875L334.638 173.264ZM312.735 172.882L312.44 173.333C310.956 174.103 307.586 174.483 305.851 174.752L305.705 174.499C307.932 173.061 309.785 173.998 312.447 172.495L312.735 172.882ZM284.18 171.509C283.555 172.264 282.432 173.171 281.665 173.838C281.278 173.568 281.407 173.752 281.295 173.271C281.897 172.455 283.105 171.81 284 171.238L284.18 171.509ZM321.348 170.583C320.663 171.438 319.335 172.146 318.367 172.756L318.213 172.658L318.268 172.262C319.035 171.468 320.22 170.84 321.185 170.253L321.348 170.583ZM271.885 165.484C270.88 166.453 269.22 167.195 267.935 167.714L267.657 167.434C267.945 166.901 270.67 165.64 271.515 165.164C271.637 165.271 271.762 165.378 271.885 165.484ZM313.708 165.484C313.093 166.337 310.637 166.666 309.532 166.886L309.455 166.826L309.49 166.507C310.76 165.838 312.115 165.632 313.522 165.328L313.708 165.484ZM350.072 159.875L349.904 159.929L349.89 159.894L349.621 160.021L349.455 160.075L349.522 160.069L349.615 160.363C348.643 161.166 348.035 161.581 346.997 162.264C345.56 162.697 344.555 163.334 343.253 164.068L342.992 163.942L343.247 163.404C344.27 162.612 344.498 162.547 345.728 162.116L346.247 161.819C347.485 161.096 348.886 160.179 350.03 159.792L350.072 159.875ZM349.95 160.039L349.522 160.069V160.068L349.621 160.021L349.904 159.929L349.95 160.039ZM270.532 159.38C271.967 159.27 273.587 159.143 274.997 159.36L275.105 159.738C273.958 159.757 271.483 160.193 270.683 159.872L270.532 159.38ZM308.162 154.955C308.337 156.445 306.462 157.176 305.34 157.768C305.277 156.675 307.185 155.744 308.162 154.955ZM139.19 155.442C140.501 155.497 143.132 155.477 143.836 156.652C141.443 156.71 141.007 156.954 139.19 155.442ZM333.655 153.502C333.375 154.233 332.058 155.507 331.463 156.148L331.4 155.505C331.978 154.426 332.645 154.007 333.593 153.228L333.655 153.502ZM171.666 155.123C170.91 155.578 170.418 155.602 169.558 155.761L169.115 155.598L169.24 155.351L171.291 154.853L171.64 154.851L171.666 155.123ZM126.951 153.49C127.345 153.523 127.185 153.44 127.438 153.731C126.819 154.262 125.862 154.491 125.059 154.756L124.75 154.715L124.606 154.457C125.393 154.095 126.145 153.806 126.951 153.49ZM308.213 152.119C310.225 153.053 309.775 152.431 311.987 152.41L312.11 152.742C310.795 153.128 309.977 153.621 308.67 153.656C308.115 153.133 308.3 153.142 308.213 152.119ZM158.516 149.268C158.727 149.452 158.616 149.318 158.73 149.745C157.996 150.833 155.391 151.204 154.156 151.043C154.534 150.5 154.73 150.09 155.317 149.802C157.173 150.492 156.927 150.33 158.516 149.268ZM170.868 149.381C171.967 149.265 172.929 149.062 173.87 149.564C172.618 149.94 172.051 149.834 170.868 149.381ZM374.513 142.91C374.813 144.014 374.51 143.62 375.285 144.245C377.113 144.78 378.85 143.842 379.63 144.221C378.572 145.249 376.76 145.329 375.402 144.958C374.233 145.203 372.485 145.268 371.253 145.356C372.113 144.772 373.715 143.599 374.513 142.91ZM157.581 140.449C158.503 140.107 160.054 140.882 160.59 141.704C159.773 141.535 158.084 141.083 157.581 140.449ZM282.703 139.347C283.653 139.285 284.393 139.167 285.315 139.397L285.173 139.77C284.138 140.02 283.8 140.283 282.897 139.99L282.703 139.347ZM149.118 138.439C148.753 138.991 147.546 139.301 146.793 139.601C146.439 139.493 146.634 139.585 146.254 139.241C146.714 138.691 148.041 138.471 148.806 138.267L149.118 138.439ZM156.325 134.583C157.691 134.6 158.779 134.56 160.12 134.886C158.742 135.632 157.596 135.316 156.325 134.583ZM154.18 131.815L154.22 132.196C152.968 133.28 151.375 133.704 149.962 134.741L149.716 134.642L149.709 134.251C150.698 133.417 152.608 132.411 153.794 131.737L154.18 131.815ZM374.527 131.493C375.2 131.526 375.19 131.572 375.853 131.762L375.85 131.944C375.19 132.307 375.2 132.276 374.447 132.402C373.585 132.558 373.287 132.783 372.67 132.472C373.12 131.854 373.772 131.752 374.527 131.493ZM378.252 124.547L378.287 124.833C377.357 125.773 375.185 126.507 373.907 126.926L373.67 126.836C374.105 126.29 376.972 125.046 378.022 124.443L378.252 124.547ZM174.28 116.869C174.771 117.267 174.624 117.098 174.927 117.641C174.728 118.57 173.901 119.148 173.178 119.823C170.974 119.988 170.431 120.052 168.29 120.625C167.984 120.521 168.122 120.619 167.932 120.265C169.778 118.654 173.001 120.054 174.28 116.869ZM312.907 86.9951C312.422 88.0496 309.962 93.2397 309.395 93.8057C309.23 92.6519 311.76 87.4865 312.787 86.416L312.907 86.9951Z" fill="#FF81B2"/>
</g>
<g clip-path="url(#clip3_64_3903)">
<path fill-rule="evenodd" clip-rule="evenodd" d="M247.439 296.325C248.686 296.545 250.1 296.871 251.293 297.226C262.655 300.605 275.073 300.653 286.748 298.91C289.359 298.52 300.803 295.851 302.583 296.533C302.878 297.51 302.583 298.581 302.413 299.628C301.501 300.643 297.012 303.91 295.492 305.112C292.807 307.005 289.193 307.895 286.123 309.138C285.268 309.36 281.038 311.61 280.433 311.556C276.883 311.231 269.318 311.955 266.138 311.46C259.015 310.05 249.925 309.427 244.026 304.982C242.813 304.066 245.862 297.33 247.439 296.325ZM152.8 276.303C153.837 276.368 154.373 276.45 155.174 277.035C159.294 283.157 143.141 293.22 139.916 297.393C138.471 299.262 132.225 304.382 129.816 304.058L129.539 303.63C129.572 299.9 133.834 294.443 136.265 291.77L138.364 289.685C137.386 289.478 136.37 289.268 135.351 289.235C131.901 289.12 119.155 293.243 117.59 289.113C117.898 286.828 120.134 283.04 122.591 282.58C129.709 281.255 137.035 281.135 144.016 279.013C147.011 278.103 149.712 276.928 152.8 276.303ZM287.97 213.9C292.562 214.199 291.482 222.323 292.52 225.809C294.244 231.591 296.35 237.399 298.327 243.103C299.795 247.332 304.23 252.834 307.405 255.917C308.866 255.399 313.229 253.923 313.457 256.1C314.022 261.457 308.82 276.217 306.518 280.434C305.615 281.694 305.95 282.525 304.27 282.945C303.357 282.67 301.205 279.945 299.285 278.732L298.99 278.55C299.825 276.147 301.793 269.532 301.2 267.265C300.255 263.647 296.013 258.715 294.195 255.37C292.725 252.66 290.451 247.76 289.48 244.887C288.398 241.397 287.97 237.688 287.21 234.136C285.9 228.019 282.53 219.064 287.97 213.9ZM234.722 237.27C240.437 237.001 242.695 240.467 244.455 245.261C247.253 252.93 248.479 260.552 247.378 268.702C246.535 274.942 247.012 275.48 241.081 277.485C237.927 278.39 238.451 276.5 236.818 275.115C230.947 270.13 229.13 267.27 228.833 259.39C228.588 252.877 228.019 241.071 234.722 237.27ZM328.758 214.023C332.428 214.003 334.11 215.822 335.46 219.018C337.97 224.954 344.135 251.017 333.44 252.183C326.058 251.458 325.502 244.691 322.457 239.238C322.777 237.198 322.247 235.259 322.225 233.251C322.155 226.978 322.325 217.186 328.758 214.023ZM240.635 208.508C243.683 208.201 249.307 209.326 251.612 211.351C252.087 211.769 252.456 212.33 252.396 212.99C252.381 213.148 252.338 213.302 252.298 213.455C252.203 213.812 251.963 214.181 251.743 214.473C250.155 216.584 237.243 218.333 234.126 218.965C220.685 221.689 209.435 226.371 198.161 234.187C195.939 235.728 193.666 237.211 191.67 239.044C189.667 240.652 186.541 243.269 183.927 242.992C183.05 242.4 183.389 242.785 182.971 241.715C183.224 240.204 185.354 235.917 186.365 234.701C190.912 229.238 195.972 225.925 202.131 222.575C204.386 221.331 206.848 219.24 209.181 218.264C216.012 215.406 222.974 212.467 230.031 210.215C232.688 209.367 236.73 209.013 239.524 208.655C239.893 208.593 240.263 208.543 240.635 208.508ZM339.237 178.588C341.237 178.413 343.853 179.295 346.016 179.215C347.445 179.162 349.262 179.372 350.062 180.676C350.107 182.198 349.075 183.093 348.095 184.253C346.43 184.775 344.365 185.001 342.66 185.539C339.898 186.411 337.155 187.403 334.348 188.141C332.985 188.498 332.59 189.675 331.388 189.825C331.083 189.663 330 189.084 329.715 189.217C325.562 191.145 321.423 192.312 317.035 193.541C314.995 194.113 312.215 195.381 310.155 196.203C307.045 197.563 305.113 200.342 302.053 199.955C299.753 198.322 304.563 192.266 306.11 191.345C316.258 185.301 327.425 180.136 339.237 178.588Z" fill="#4B4746"/>
</g>
</g>
<defs>
<clipPath id="clip0_64_3903">
<rect width="480" height="480" fill="white"/>
</clipPath>
<clipPath id="clip1_64_3903">
<rect width="480" height="480" fill="white"/>
</clipPath>
<clipPath id="clip2_64_3903">
<rect width="480" height="480" fill="white"/>
</clipPath>
<clipPath id="clip3_64_3903">
<rect width="480" height="480" fill="white"/>
</clipPath>
</defs>
</svg>
