<svg width="480" height="480" viewBox="0 0 480 480" fill="none" xmlns="http://www.w3.org/2000/svg">
<g clip-path="url(#clip0_64_3911)">
<g clip-path="url(#clip1_64_3911)">
<path fill-rule="evenodd" clip-rule="evenodd" d="M225.421 100.61C226.854 100.259 230.886 101.111 232.614 100.943C238.539 100.368 243.998 100.923 249.865 101.648C254.012 102.112 258.65 101.241 262.845 101.716C265.1 101.972 266.81 102.565 268.975 103.177C271.015 103.808 274.455 103.698 276.353 104.36C281.658 106.21 287.645 107.348 292.91 108.903C297.095 110.139 301.735 112.929 305.82 114.48C311.848 116.768 316.6 119.684 321.62 123.646C325.053 126.307 328.898 127.433 330.5 132.297C331.005 133.7 331.425 133.249 332.41 133.722C335.225 135.077 339.518 139.577 341.213 142.134C343.843 146.1 346.195 149.806 348.808 153.736C350.328 156.022 351.123 159.252 352.183 161.78C353.913 166.777 357.19 173.014 358.223 178.074C359.298 183.341 359.392 188.1 361.192 193.386C362.07 195.959 361.463 203.655 361.735 206.695C361.903 208.548 360.11 215.38 359.515 217.464C363.845 215.536 371.618 212.457 376.218 213.015C381.288 213.631 389.165 215.694 393.732 218.132C394.39 218.483 400.11 223.448 400.832 224.246C406.162 230.133 407.04 237.606 406.57 245.273C406.348 248.9 404.96 252.76 403.76 256.227C402.36 260.28 400.512 265.185 398.272 268.823C396.61 271.518 393.99 273.648 391.58 275.68C390.638 276.473 388.075 279.255 387.33 279.748C384.263 281.775 379.765 285.152 376.58 286.727C374.543 287.737 371.2 288.808 368.843 289.868C366.588 290.88 363.123 292.323 360.758 293.131C358.555 293.881 352.51 293.701 350.225 294.983C349.842 295.197 349.13 298.013 348.893 298.668C346.745 304.61 343.737 310.783 341.022 316.485C339.78 319.097 337.57 321.873 336.242 324.193C330.697 333.895 324.315 341.055 315.713 348.12C312.46 350.792 308.755 353.716 305.29 356.211C304.582 356.721 302.069 357.27 301.064 357.865C299.814 358.61 298.085 359.868 296.785 360.483C292.94 362.301 287.659 364.36 283.439 364.953C282.641 365.065 279.245 364.783 278.325 364.713C278.308 366.208 278.277 367.56 278.189 369.055L277.979 369.398C275.4 369.718 271.813 369.273 269.155 369.15C269.035 369.143 268.105 369.743 267.91 369.898C267.455 370.855 264.973 372.475 263.86 373.42L263.859 373.421C263.946 373.005 264.035 372.633 264.106 372.272C264.225 371.671 264.293 371.098 264.212 370.4C264.1 370.213 264.013 370.075 263.933 369.968C263.853 369.862 263.78 369.786 263.698 369.721C263.533 369.592 263.329 369.51 262.947 369.325C261.445 369.837 259.622 369.83 258.045 369.788C254.435 369.69 251.01 370.33 247.446 370.73C246.718 370.813 245.642 370.2 244.97 369.882C242.023 371.075 242.63 371.158 239.489 371.618L238.539 371.815C238.132 371.903 237.746 371.99 237.723 372.012C236.812 373.006 236.387 374.51 235.192 374.461C235.146 374.459 235.099 374.455 235.051 374.448C234.809 374.415 234.537 374.322 234.227 374.153C233.923 373.453 233.961 373.815 234.192 373.023C234.872 372.271 235.786 372.133 236.767 372.163L236.616 372.328L236.903 372.163C236.35 372.136 235.832 372.104 235.313 372.019C235.21 372.002 235.106 371.983 235.002 371.962C234.794 371.918 234.584 371.864 234.371 371.797C232.467 371.73 231.942 372.977 229.095 371.935C228.932 371.875 224.512 372.458 223.775 372.483C217.633 372.676 212.142 370.512 206.25 369.267C204.945 368.995 201.921 370.088 200.604 369.3C199.932 367.08 199.884 365.172 199.812 362.865C195.329 361.512 191.328 360.65 186.86 358.568C173.696 352.431 161.662 343.635 151.085 333.73C150.387 333.077 145.672 327.759 145.385 327.135C143.243 322.498 139.728 320.648 136.573 316.855C133.674 313.528 132.351 309.765 130.366 305.961C128.31 302.018 126.7 299.113 125.21 294.903C117.611 295.43 105.613 293.543 99.168 289.703C92.3542 285.64 83.0063 281.04 78.8818 274.043C77.979 272.51 75.2463 268.875 74.7353 267.708C73.6524 265.235 73.6332 260.188 73.0732 257.4C71.9505 244.284 76.76 230.758 84.9268 220.606C88.6694 215.954 94.9345 213.021 100.525 211.797C102.134 211.445 103.073 210.571 104.878 210.488C107.204 210.38 109.213 210.721 111.506 210.942C116.711 210.949 119.522 210.848 124.459 212.839C124.411 204.406 127.343 194.185 130.091 186.218C131.251 183.442 131.795 178.795 133.039 176.22C135.029 172.103 136.629 166.042 138.657 162.202C142.268 155.365 146.566 146.638 151.436 140.66C156.09 134.946 162.699 128.944 168.421 124.276C170.925 122.062 173.252 119.873 176.13 118.1C188.051 110.777 201.521 105.591 215.06 102.166C217.995 101.423 222.309 101.372 225.421 100.61ZM248.381 344.846C248.32 344.872 248.259 344.898 248.199 344.929C248.259 344.898 248.32 344.872 248.381 344.846ZM263.157 339.174V339.175V339.174ZM264.136 338.724C264.042 338.776 263.937 338.823 263.818 338.875C263.937 338.823 264.042 338.776 264.136 338.724ZM291.927 321.671H291.928H291.927ZM293.551 319.875V319.874V319.875ZM293.91 318.385H293.911L293.77 318.34L293.91 318.385ZM236.069 304.342H236.07H236.069ZM155.293 302.462V302.463V302.462ZM224.503 300.138H224.504H224.503ZM214.861 297.628C214.948 297.648 215.031 297.663 215.11 297.672C215.031 297.663 214.948 297.648 214.862 297.628H214.861ZM137.164 296.228C137.124 296.258 137.086 296.29 137.049 296.327C137.086 296.29 137.124 296.258 137.164 296.228ZM182.81 291.07H182.811H182.81ZM184.433 291.357V291.358V291.357ZM260.659 284.782C260.757 284.785 260.855 284.781 260.958 284.769C260.855 284.781 260.757 284.785 260.659 284.782ZM289.979 281.086C289.893 281.112 289.813 281.141 289.739 281.172C289.886 281.11 290.061 281.058 290.254 281.013L289.979 281.086ZM292.217 280.687C291.896 280.749 291.55 280.797 291.212 280.846L291.89 280.745C292.001 280.727 292.11 280.708 292.217 280.687ZM293.52 280.124H293.521H293.52ZM306.222 279.06C306.292 279.119 306.378 279.163 306.627 279.31V279.309C306.378 279.162 306.292 279.119 306.222 279.06ZM382.396 276.546C382.355 276.62 382.319 276.698 382.289 276.778C382.319 276.698 382.355 276.62 382.396 276.546ZM383.481 276.311C383.406 276.433 383.315 276.548 383.215 276.66C383.315 276.548 383.406 276.433 383.481 276.311ZM123.245 273.338C123.074 273.407 122.902 273.472 122.73 273.534C122.902 273.472 123.075 273.407 123.246 273.338L123.374 273.075L123.245 273.338ZM248.454 272.443L248.945 272.631C249.336 272.608 249.622 272.602 249.874 272.579C249.622 272.602 249.336 272.607 248.945 272.63L248.454 272.442V272.443ZM95.3477 269.403V269.402V269.403ZM291.54 269.148V269.147V269.148ZM262.822 267.671V267.672V267.671ZM262.797 267.253L263.013 267.485L262.798 267.253L262.53 267.243L262.797 267.253ZM296.853 266.397V266.398V266.397ZM115.174 265.886V265.885V265.886ZM187.988 265.535H187.989H187.988ZM87.2158 260.028C87.5049 260.153 87.6713 260.223 87.8418 260.28C87.6713 260.223 87.5049 260.152 87.2158 260.027V260.028ZM306.279 254.824V254.823V254.824ZM306.942 254.36C306.91 254.395 306.877 254.428 306.844 254.46C306.877 254.428 306.91 254.395 306.942 254.36L306.758 254.015L306.942 254.36ZM185.964 253.806H185.965H185.964ZM117.646 250.543H117.646H117.646ZM95.6963 248.057L95.4082 248.098L95.6963 248.058C95.9254 247.905 96.3929 247.607 96.9687 247.238C96.3931 247.606 95.9255 247.904 95.6963 248.057ZM352.082 245.918L352.765 245.943V245.942L352.083 245.918H352.082ZM98.5342 245.347C98.3484 245.464 98.1654 245.586 97.9834 245.709C98.1654 245.586 98.3484 245.464 98.5342 245.347ZM356.453 244.459C356.194 244.585 355.922 244.711 355.646 244.833C355.371 244.955 355.092 245.073 354.818 245.185V245.186C355.365 244.962 355.935 244.712 356.453 244.459ZM328.02 242.754V242.755V242.754ZM239.252 240.256V240.256V240.256ZM276.725 235.265V235.264V235.265ZM367.325 235.067V235.066V235.067ZM89.543 232.744C89.5823 232.748 89.6216 232.75 89.6611 232.75C89.6216 232.75 89.5823 232.748 89.543 232.744ZM88.9424 232.571C89.0667 232.621 89.1869 232.666 89.3057 232.698C89.1869 232.666 89.0667 232.621 88.9424 232.571ZM344.274 230.036H344.275L343.91 229.843L344.274 230.036ZM97.7187 228.501C97.9872 228.736 98.361 228.823 98.7676 228.836L98.7685 228.835C98.3619 228.823 97.9883 228.736 97.7197 228.501H97.7187ZM118.129 220.923C118.105 220.948 118.082 220.975 118.06 221.004C118.082 220.975 118.105 220.948 118.129 220.923ZM240.124 214.585H240.123H240.124ZM301.368 206.475C301.245 206.515 301.12 206.545 300.98 206.562C301.12 206.545 301.245 206.515 301.368 206.475ZM303.426 205.871V205.872V205.871ZM306.869 198.043C306.838 198.111 306.802 198.178 306.761 198.243C306.719 198.308 306.673 198.371 306.622 198.433C306.266 198.866 305.69 199.224 305.082 199.527C305.865 199.138 306.592 198.657 306.869 198.043ZM222.223 186.344C222.263 186.406 222.279 186.426 222.322 186.437C222.279 186.426 222.263 186.406 222.223 186.344ZM199.249 186.166H199.25H199.249ZM342.62 177.053C342.552 177.19 342.475 177.325 342.389 177.459C342.346 177.525 342.3 177.592 342.252 177.659V177.66C342.397 177.46 342.518 177.258 342.62 177.053ZM343.161 174.533C343.142 174.886 343.115 175.217 343.07 175.531L343.126 175.047C343.141 174.881 343.152 174.711 343.162 174.534L343.161 174.533ZM306.816 172.332C306.866 172.347 306.894 172.353 306.924 172.351C306.894 172.353 306.866 172.347 306.816 172.332ZM238.69 171.639C238.249 171.691 237.882 171.745 237.542 171.763C237.883 171.745 238.251 171.692 238.692 171.64L238.69 171.639ZM281.382 166.876L281.383 166.877L281.382 166.876ZM241.702 159.084H241.703H241.702ZM228.935 154.437C228.775 154.542 228.603 154.654 228.42 154.787C228.695 154.588 228.945 154.435 229.164 154.284L228.935 154.437ZM229.795 153.686C229.726 153.792 229.647 153.884 229.56 153.969C229.647 153.884 229.726 153.792 229.795 153.686ZM229.972 153.327C229.939 153.418 229.902 153.501 229.86 153.577L229.92 153.458C229.938 153.416 229.955 153.372 229.972 153.327ZM308.562 152.644C308.502 152.703 308.438 152.758 308.369 152.809C308.438 152.758 308.502 152.703 308.562 152.644ZM294.601 145.061C294.554 145.165 294.518 145.274 294.492 145.389C294.518 145.274 294.554 145.165 294.601 145.061ZM304.104 140.316V140.318V140.316ZM256.247 132.802C256.452 132.674 256.635 132.572 256.8 132.48C256.635 132.572 256.452 132.674 256.247 132.802ZM281.074 132.132C281.219 132.168 281.368 132.212 281.528 132.266C281.368 132.212 281.219 132.168 281.074 132.132ZM282.584 132.041C282.692 132.115 282.792 132.195 282.882 132.283C282.792 132.195 282.692 132.115 282.584 132.041ZM280.217 131.992V131.991V131.992ZM257.882 131.477H257.883L257.742 131.3L257.882 131.477ZM239.833 121.289V121.288V121.289Z" fill="#A86750"/>
<path fill-rule="evenodd" clip-rule="evenodd" d="M278.19 369.055C278.475 369.452 278.535 369.672 279.17 369.662C289.815 369.72 296.22 376.442 302.665 383.805C310.11 392.307 313.115 396.015 310.99 408.027C309.858 414.437 304.093 419.628 298.138 422.04C296.18 422.833 296.013 421.583 293.085 423.245C290.103 422.76 288.228 423.685 285.49 423.638C279.468 423.538 275.448 421.97 269.558 424.088C268.643 423.715 267.557 423.313 266.715 422.83C259.218 425.495 255.44 423.947 247.811 424.09C244.59 424.147 240.738 425.062 237.41 425.277C232.446 425.595 227.777 425.44 222.826 425.16C221.277 425.073 219.045 425.762 217.429 425.822C208.398 426.507 199.243 426.733 190.238 425.628C187.248 425.263 184.225 425.788 181.16 425.075C175.778 423.84 171.753 421.285 169.778 415.942C164.82 402.527 175.136 390.65 184.374 382.225C188.103 378.825 191.265 374.802 195.239 371.685C196.931 370.357 198.733 370.122 200.604 369.3C201.921 370.087 204.945 368.995 206.25 369.268C212.142 370.513 217.633 372.675 223.775 372.482C224.512 372.457 228.932 371.875 229.095 371.935C231.943 372.977 232.467 371.73 234.371 371.798C235.224 372.065 236.018 372.12 236.903 372.162L236.616 372.327L236.767 372.162C235.786 372.132 234.872 372.27 234.192 373.022C233.961 373.815 233.923 373.453 234.227 374.152C236.217 375.232 236.602 373.235 237.723 372.013C237.763 371.97 239.272 371.66 239.489 371.617C242.63 371.157 242.023 371.075 244.971 369.883C245.643 370.2 246.718 370.812 247.446 370.729C251.01 370.329 254.435 369.69 258.045 369.787C259.622 369.83 261.445 369.838 262.947 369.325C263.71 369.695 263.765 369.653 264.213 370.4C264.343 371.518 264.09 372.313 263.86 373.42C264.973 372.475 267.455 370.855 267.91 369.897C268.105 369.742 269.035 369.143 269.155 369.15C271.813 369.273 275.401 369.717 277.981 369.397L278.19 369.055ZM181.885 423.294C181.613 423.392 181.323 423.462 180.986 423.513C181.323 423.462 181.613 423.392 181.885 423.294ZM179.045 422.118C179.043 422.148 179.044 422.174 179.05 422.198C179.039 422.149 179.045 422.098 179.062 422.009L179.045 422.118ZM183.864 422.108V422.109V422.108ZM182.193 421.9V421.901V421.9ZM186.737 419.1C185.885 419.672 184.978 420.277 184.124 420.835C183.486 421.252 183.033 421.547 182.642 421.731L182.885 421.607C182.969 421.562 183.056 421.511 183.148 421.456C183.241 421.401 183.337 421.342 183.44 421.277C183.643 421.149 183.869 421.002 184.124 420.835C184.978 420.278 185.885 419.673 186.737 419.101L187.269 419.4L186.737 419.1ZM178.67 418.282H178.671H178.67ZM282.316 417.266H282.317H282.316ZM177.499 417.718H177.5H177.499ZM247.901 416.72H247.902H247.901ZM177.469 416.985H177.47H177.469ZM197.524 415.645C197.244 415.828 197.034 415.957 196.864 416.077C197.034 415.957 197.244 415.828 197.524 415.646V415.645ZM198.303 416.005H198.304H198.303ZM267.482 414.952V414.953V414.952ZM251.079 412.549V412.55V412.549ZM252.474 412.558C252.308 412.661 252.124 412.755 251.939 412.842C252.124 412.755 252.308 412.661 252.474 412.558ZM252.26 411.577V411.578V411.577ZM179.894 410.606C180.254 410.861 180.638 411.145 180.997 411.416C180.459 411.009 179.864 410.574 179.376 410.25L179.894 410.606ZM281.306 403.33C281.125 403.343 280.944 403.348 280.764 403.347C280.944 403.348 281.125 403.343 281.306 403.33ZM281.238 402.901C281.395 402.964 281.54 403.039 281.668 403.127C281.732 403.171 281.791 403.219 281.846 403.27H281.848C281.682 403.116 281.474 402.996 281.238 402.901ZM279.886 402.617C279.69 402.6 279.49 402.589 279.292 402.583C279.49 402.589 279.69 402.6 279.886 402.617ZM285.871 401.451C285.722 401.518 285.565 401.603 285.395 401.71L285.405 402.117L285.396 401.71C285.566 401.603 285.722 401.518 285.871 401.451ZM298.204 401.033C298.01 401.101 297.789 401.185 297.513 401.28L297.43 401.825H297.431L297.513 401.28C297.788 401.185 298.01 401.101 298.204 401.033ZM281.51 397.747C280.933 398.009 280.288 398.213 279.846 398.574C279.948 398.491 280.06 398.416 280.181 398.347C280.341 398.254 280.515 398.172 280.694 398.094C280.963 397.977 281.245 397.869 281.511 397.748L281.914 397.872H281.915L281.51 397.747ZM193.04 386.066H193.041H193.04Z" fill="#4B4746"/>
</g>
<g clip-path="url(#clip2_64_3911)">
<path d="M124.198 216.287C123.103 213.933 122.05 211.453 121.444 208.924C120.644 205.584 121.27 203.41 121.324 200.115C121.337 199.278 121.05 198.344 120.961 197.501C120.652 194.582 120.453 191.466 120.66 188.54C121.53 176.226 125.72 163.994 129.86 152.459C130.876 149.63 131.645 146.712 132.868 143.959C134.023 141.357 135.447 138.814 136.92 136.378C141.388 128.991 146.452 121.674 152.117 115.156C160.894 105.056 182.03 86.628 194.014 81.5853C197.632 80.0628 202.294 78.4633 206.209 78.0185C207.695 77.8498 209.17 78.132 210.656 77.836C213.649 77.2395 216.542 75.99 219.521 75.2883C224.106 74.2075 229.054 74.2253 233.735 73.8405C241.925 73.1673 250.235 72.2205 258.465 72.3718C267.585 72.5393 296.33 75.9485 303.69 80.436C304.657 82.7535 303.015 82.5927 301.507 84.1745L301.497 84.5975C302.995 85.4758 303.747 86.076 305.502 85.783C307.32 83.9552 305.567 82.762 306.415 81.6655L307.6 81.7998C313.135 85.004 320.18 88.0713 325.262 91.6943C330.5 95.427 338.787 102.462 341.772 108.1C346.03 110.44 348.07 114.984 350.357 119.141C351.165 120.612 351.71 123.605 352.53 124.955C354.99 129.006 356.347 130.001 356.83 134.813C362.802 141.24 364.64 152.917 366.385 161.256C367.45 166.339 369.627 170.149 369.032 175.754C368.93 176.711 369.315 178.572 368.772 179.456C367.825 181.004 369.057 181.889 369.342 183.335C369.34 188.354 369.372 193.716 367.8 198.536C367.29 200.454 366.025 203.266 365.68 205.127C364.567 211.103 366.332 215.997 358.375 216.389C355.225 216.545 351.487 216.988 348.15 216.619C346.41 216.427 343.805 215.951 341.987 215.747C337.055 217.052 332.48 215.691 327.592 214.737C317.352 213.61 306.74 213.287 296.477 212.344C289.697 211.49 284.462 210.288 277.575 210.87C270.182 211.494 261.772 210.45 254.257 210.961C252.355 211.091 249.848 210.387 247.874 210.581C243.071 211.052 238.29 211.398 233.503 211.986C229.371 212.613 226.227 213.155 222.036 212.703C217.943 212.262 218.941 211.718 215.86 210.326C215.658 210.371 215.457 210.413 215.254 210.453C208.88 211.67 214.769 184.306 215.935 180.817C216.416 179.381 216.264 176.157 216.702 174.423C217.637 170.723 218.569 167.942 218.625 164.089C217.214 166.626 216.213 169.678 214.884 172.32C210.546 180.932 205.848 189.393 201.652 198.059C199.144 203.239 197.781 208.532 193.823 212.794C189.277 214.193 187.249 213.229 183.122 213.54C176.775 214.018 168.625 217.724 169.711 206.97C169.926 204.834 169.98 202.324 170.401 200.17C170.827 197.987 171.785 195.773 172.13 193.548C172.628 188.549 173.053 184.594 174.587 179.761C173.346 181.449 171.795 183.161 170.652 184.896C168.663 187.916 166.906 191.259 164.925 194.275C162.422 198.084 159.748 202.052 157.496 206.016C155.854 208.907 154.684 212.592 152.938 215.592L152.768 215.88C148.248 218.438 136.928 216.622 131.537 216.628C129.779 216.63 127.836 217.151 126.084 217.4C125.396 217.072 124.839 216.694 124.198 216.287ZM342.582 213.764C343.417 213.997 343.06 214.066 343.707 213.707C344.215 212.653 344.485 212.037 343.882 210.923C343.307 210.758 343.325 210.74 342.732 210.767C341.845 210.986 340.967 211.09 340.322 211.709C340.412 212.791 341.67 213.244 342.582 213.764ZM288.442 206.851L288.277 207.087C287.58 208.065 287.26 208.414 286.415 209.261L286.292 209.762C286.845 209.974 286.615 209.919 287.252 209.843C289.477 208.602 288.057 208.578 289.52 207.383C290.572 206.522 292.132 207.899 293.337 206.237L292.967 206.169C291.162 206.225 290.2 206.316 288.442 206.851ZM187.749 133.871C188.76 133.52 189.566 133.252 190.309 132.502C189.659 132.396 189.13 132.679 188.491 132.91C187.069 132.353 185.729 131.84 184.758 133.268C184.728 134.365 184.606 133.858 185.18 134.833C186.182 135.435 187.086 134.74 187.749 133.871ZM144.437 164.847C145.888 165.45 144.109 165.734 145.593 165.707C146.303 164.366 146.995 163.005 147.83 161.738C147.542 161.401 147.709 161.506 147.358 161.379C146.859 161.974 146.431 162.479 145.858 163.024C145.278 163.576 143.113 164.338 143.001 164.926C143.48 164.904 143.959 164.888 144.437 164.847ZM282.642 92.8525L282.785 92.6107C279.9 92.7445 277.522 92.2588 274.77 92.632L274.915 93.2272C276.657 93.6155 280.802 93.4995 282.642 92.8525ZM352.247 171.688C351.637 172.118 351.77 172.084 351.352 172.585C350.397 173.729 348.895 174.876 347.72 175.83C351.495 174.136 350.887 173.657 353.257 172.188C354.177 171.766 356.012 170.591 356.99 170.025L357.002 169.52L357.175 169.873L357.405 169.576C356.082 169.266 353.397 171.006 352.247 171.688ZM352.742 136.852C353.627 136.223 355.237 135.202 355.822 134.384L355.842 133.866C355.597 133.618 355.617 133.562 355.33 133.46C354.225 134.307 352.957 135.305 352.39 136.605L352.742 136.852ZM235.889 111.282C237.372 110.624 240.106 109.521 241.155 108.315L241.011 108.05L240.729 108.003C239.768 108.557 235.868 110.524 235.551 111.109L235.889 111.282ZM352.702 193.863C354.315 193.016 358.182 191.591 356.825 189.41C356.115 191.357 354.297 192.46 352.6 193.498L352.562 193.797L352.702 193.863ZM291.642 195.277C292.422 194.412 292.802 194.149 293.897 194.01C295.08 194.364 296.25 193.777 297.092 192.972C296.5 192.88 295.122 193.411 294.212 193.495L293.96 193.516C292.262 193.354 291.46 193.717 290.575 195.213C289.942 198.239 288.09 196.626 286.68 197.972L286.872 198.222C288.915 198.465 290.932 197.215 291.642 195.277ZM239.511 90.007C238.48 92.1023 238.583 92.749 236.839 94.0803L236.895 94.3457C237.518 94.1812 237.961 94.0895 238.548 93.8063L239.827 90.5297C240.674 89.5165 242.138 87.6823 242.311 86.4133L241.997 86.363C240.796 87.4295 240.231 88.5728 239.511 90.007ZM240.155 152.973L240.104 152.604C238.925 152.343 237.878 152.148 236.744 151.721C237.196 152.498 237.267 152.748 238.038 153.233C238.983 153.432 239.191 153.281 240.155 152.973ZM306.822 205.042C307.807 204.696 308.482 204.528 309.337 203.907C308.81 203.602 309.085 203.723 308.33 203.777C307.435 204.022 306.357 204.228 305.62 204.75C306.002 205.123 306.12 204.996 306.822 205.042ZM296.232 86.0547C295.22 86.4052 290.112 88.1022 289.532 88.6247L289.462 88.9445C290.6 88.6363 296.107 87.1047 296.232 86.0547ZM302.03 199.253C301.46 199.909 299.722 201.657 299.692 202.26L299.94 202.329C300.927 201.466 301.572 200.995 302.26 199.855C302.225 199.369 302.32 199.561 302.03 199.253ZM198.587 143.888C199.271 143.53 200.283 143.136 200.671 142.57C200.131 142.389 200.325 142.42 199.722 142.45C198.833 142.904 198.448 143.01 197.837 143.76L197.956 144.015L198.587 143.888ZM354.447 162.825C355.077 162.201 355.965 161.494 356.182 160.684C355.87 160.486 355.887 160.455 355.542 160.353C354.997 161.169 354.51 161.867 353.92 162.649L354.105 162.885L354.447 162.825ZM145.613 154.464C146.449 154.118 148.368 153.511 148.717 152.88L148.276 152.723C147.256 153.133 146.266 153.442 145.415 154.118L145.358 154.424L145.613 154.464ZM201.938 159.738C202.697 159.754 203.415 159.876 204.04 159.511C203.198 159.09 202.47 159.136 201.522 159.08C200.781 159.166 200.144 159.141 199.574 159.581C200.439 159.918 200.981 159.793 201.938 159.738ZM295.615 102.769C294.895 103.049 293.855 103.282 293.58 103.824L293.91 103.946C294.585 103.69 295.592 103.409 296.017 102.895L295.615 102.769ZM255.305 78.4617C256.532 77.222 256.755 76.3625 257.207 74.7375C257.062 74.2218 257.197 74.3972 256.91 74.143C256.165 75.103 255.262 76.9375 255.002 78.126L255.305 78.4617ZM302.86 132.9L304.41 132.511L304.54 132.268L303.835 132.049C303.147 132.143 302.31 132.151 301.81 132.558C302.407 132.91 302.167 132.819 302.86 132.9ZM355.212 151.9C356.24 151.856 357.45 151.23 358.397 150.798C357.455 150.749 354.472 151.21 352.9 151.255C352.087 151.849 352.062 151.671 351.755 152.455C352.71 152.8 354.167 152.106 355.212 151.9ZM188.504 177.518C187.124 178.294 186.205 178.74 185.044 179.823L184.985 180.232L185.174 180.413C186.321 179.646 187.628 178.864 188.588 177.898L188.504 177.518ZM222.645 112.316L222.302 112.841C222.964 113.133 223.631 112.905 224.449 112.799L224.944 112.435C224.433 112.076 223.336 112.242 222.645 112.316ZM196.956 131.314C197.712 130.719 198.882 129.934 199.305 129.133L198.906 128.946C198.059 129.619 197.239 130.161 196.646 131.05C196.875 131.316 196.749 131.263 196.956 131.314ZM236.173 203.219C235.344 204.035 234.947 204.306 234.52 205.376C234.608 205.515 234.738 205.753 234.847 205.854C235.452 205.093 236.079 204.445 236.38 203.539L236.173 203.219ZM263.312 103.145C264.147 102.847 265.32 102.545 265.905 101.943C265.452 101.689 265.677 101.748 265.245 101.712C264.135 102.141 263.747 102.224 262.837 102.944L262.947 103.201L263.312 103.145ZM309.507 96.7858C308.555 97.2115 306.335 97.9885 305.85 98.5725L306.075 99.0192C307.06 98.6287 309.237 97.8722 309.662 96.975L309.507 96.7858ZM199.864 165.809C198.69 166.168 197.138 166.55 196.129 167.176L196.271 167.322L196.348 167.298C197.509 167.205 199.321 166.99 200.215 166.202L200.18 165.855L199.864 165.809ZM252.242 119.897C251.357 121.246 250.462 122.233 250.357 123.784L250.487 123.734C251.345 122.526 252.06 121.508 252.83 120.238L252.68 119.965L252.242 119.897ZM281.252 108.645C279.415 108.882 278.51 108.933 276.657 108.931C276.63 109.26 276.577 109.143 276.7 109.316C278.357 109.866 279.32 109.748 280.932 109.089C281.072 108.926 281.24 108.796 281.252 108.645ZM214.32 101.192C212.867 102.155 211.923 102.751 210.627 103.92L210.538 104.37L210.884 104.428C211.858 103.697 213.922 102.252 214.606 101.399L214.32 101.192ZM237.454 154.214C236.656 155.034 234.54 156.777 234.637 157.802C236.144 157.004 237.268 156.027 237.454 154.214ZM150.859 142.424C149.662 143.154 148.471 143.772 147.511 144.775L147.497 145.193L147.876 145.321C149.007 144.407 149.921 143.709 151.114 142.878L151.129 142.501L150.859 142.424ZM307.71 101.421C306.44 102.375 303.152 103.89 302.925 104.37L303.322 104.394C305 103.746 306.965 103.017 308.267 101.742L308.202 101.451L307.71 101.421ZM270.052 88.1845C269.017 88.6345 264.965 90.0063 264.657 90.3545L265.057 90.327C266.99 90.1918 268.642 89.6925 270.32 88.6895L270.52 88.3367L270.052 88.1845Z" fill="#EDC43E"/>
<path d="M258.71 121.393C258.845 121.444 258.982 121.492 259.12 121.546C259.687 121.773 260 122.076 260.225 122.659C261.815 126.775 257.162 143.2 255.802 147.906C255.262 149.769 254.507 151.566 253.99 153.429C253.487 155.232 253.312 157.124 252.88 158.946C252.295 161.417 251.48 163.821 250.877 166.285C249.883 170.352 249.567 176.576 247.864 180.086L247.655 180.51C248.199 181.901 248.385 182.584 248.463 184.064L248.882 184.363C250.132 183.974 252.202 180.523 252.86 179.354C261.255 164.395 268.685 148.062 279.867 134.941C281.837 132.629 286.682 127.332 289.98 129.375C294.787 132.353 292.622 140.927 293.707 145.519C294.09 147.134 294.282 147.213 293.567 148.741C293.537 150.655 293.955 153.119 293.955 155.153C293.952 160.517 294.187 165.906 294.275 171.257C295.442 172.736 296.115 174.282 296.86 175.995C299.925 172.391 299.66 169.666 301.707 165.139C304.952 157.961 308.545 143.24 316.8 140.57C321.417 139.076 323.7 150.189 324.8 153.343C327.49 161.064 329.375 171.329 335.855 177.074C336.27 177.444 336.012 177.005 336.242 177.67L335.477 178.498L335.57 178.817C336.632 179.005 336.82 179.024 337.795 179.445C339.525 181.512 337.66 183.531 336.247 185.208C335.047 186.633 334.377 186.495 332.615 186.556C325.735 186.307 322.36 176.948 321.74 171.265C321.31 170.992 320.882 170.712 320.462 170.427C319.817 169.987 318.97 169.44 318.822 168.66C319.077 168.363 319.885 167.425 319.737 167.025C318.605 163.96 318.135 161.594 317.712 158.392C315.867 156.861 315.652 156.024 314.555 153.954C312.967 154.485 313.15 156.035 312.44 157.372C311.705 158.704 310.822 159.913 310.22 161.324C307.88 166.784 306.255 172.076 304.592 177.755C302.872 183.636 299.49 187.402 293.967 190.035C291.91 188.055 290.542 187.223 288.145 185.705C288.717 182.93 289.455 182.062 287.075 180.157L286.812 179.95C286.497 177.953 287.107 175.842 286.972 173.818C286.765 170.634 284.73 159.6 286.22 157.29C287.13 155.878 285.847 155.673 285.772 154.189C285.592 150.627 286.7 146.472 285.965 143.006C285.82 142.324 285.67 142.113 285.1 141.734C278.867 141.457 266.022 169.674 262.612 175.064C257.855 182.587 254.075 191.432 246.001 195.632C241.928 194.009 242.554 192.514 240.833 189.021C241.625 179.109 243.849 171.456 246.106 161.9C246.657 159.569 247.794 157.031 248.288 154.719C249.781 147.461 251.582 140.352 253.615 133.234C255.055 128.192 254.78 125.436 258.71 121.393Z" fill="#4B4746"/>
<path fill-rule="evenodd" clip-rule="evenodd" d="M123.769 297.975C123.872 297.99 123.979 297.993 124.08 298.018C125.775 298.41 126.814 298.427 128.576 298.332C131.646 298.167 136.214 311.925 137.302 314.378C138.32 316.67 139.519 319.056 140.775 321.23C141.543 322.56 142.811 323.75 143.905 324.82C145.781 326.655 147.923 328.405 149.592 330.425C152.97 334.515 153.935 337.223 158.446 340.562C162.32 343.43 166.425 345.592 170.488 348.145C173.743 350.19 176.919 352.532 180.286 354.367C183.768 356.237 187.269 358.07 190.788 359.865C193.596 361.278 197.843 362.907 200.015 364.912C200.884 368.085 201.07 371.405 200.562 374.655C187.334 382.448 179.771 398.605 171.518 410.843C169.937 413.188 168.513 415.275 166.313 417.025C163.972 418.887 160.196 416.61 157.921 415.883C154.751 414.873 151.835 413.58 148.646 413.032L148.308 412.978C148.205 412.96 148.1 412.945 147.997 412.925C146.874 412.727 145.818 411.9 144.675 411.6C139.736 410.305 134.692 409.2 129.723 407.982C128.773 407.75 126.74 407.455 126.032 406.775C124.737 405.525 129.513 383.018 127.656 380.393L127.125 380.362C126.06 381.233 116.635 402.107 115.351 404.657C113.003 403.59 109.923 403.812 107.346 403.282C104.628 402.7 102.035 402.125 99.2824 401.715C97.6176 401.47 94.3895 402.247 93.6125 401.165C93.3447 397.5 95.2802 385.825 94.7297 381.332C94.8874 382.62 97.0576 369.665 96.8469 370.495C99.6404 359.5 101.496 348.01 105.567 337.435C108.39 330.194 118.467 301.572 123.769 297.975ZM146.855 391.777C146.498 391.889 146.165 392.003 145.88 392.119V392.12C145.975 392.081 146.075 392.042 146.18 392.004C146.389 391.927 146.617 391.852 146.855 391.777ZM150.325 390.81V390.811V390.81ZM186.459 376.239H186.46H186.459ZM120.324 346.298C120.01 346.543 119.694 346.778 119.379 346.995C119.694 346.778 120.01 346.543 120.324 346.298ZM127.243 341.82H127.244H127.243ZM342.733 210.768C343.325 210.74 343.308 210.757 343.883 210.923C344.485 212.037 344.216 212.653 343.708 213.706C343.061 214.066 343.418 213.997 342.583 213.764C341.671 213.244 340.413 212.791 340.322 211.709C340.967 211.091 341.845 210.986 342.733 210.768ZM293.338 206.236C292.133 207.898 290.573 206.522 289.521 207.383C288.058 208.579 289.478 208.601 287.253 209.843C286.616 209.919 286.845 209.974 286.293 209.762L286.415 209.261C287.26 208.414 287.58 208.065 288.278 207.087L288.443 206.852C290.2 206.316 291.163 206.226 292.968 206.169L293.338 206.236ZM236.381 203.539C236.08 204.445 235.453 205.093 234.848 205.854C234.739 205.753 234.608 205.515 234.521 205.376C234.947 204.306 235.345 204.035 236.174 203.219L236.381 203.539ZM308.33 203.776C309.085 203.723 308.811 203.602 309.338 203.907C308.483 204.528 307.808 204.697 306.823 205.042C306.121 204.996 306.003 205.123 305.62 204.749C306.358 204.227 307.435 204.021 308.33 203.776ZM302.03 199.253C302.32 199.561 302.225 199.369 302.26 199.855C301.573 200.995 300.928 201.467 299.941 202.329L299.693 202.26C299.723 201.657 301.46 199.909 302.03 199.253ZM297.093 192.973C296.25 193.777 295.08 194.363 293.898 194.01V194.011C292.803 194.15 292.423 194.412 291.643 195.276C290.933 197.214 288.916 198.465 286.873 198.223L286.68 197.972C288.09 196.625 289.943 198.239 290.575 195.213C291.46 193.717 292.263 193.355 293.96 193.516L294.213 193.495C295.123 193.411 296.501 192.88 297.093 192.973ZM356.825 189.409C358.183 191.59 354.316 193.017 352.703 193.863L352.563 193.797L352.601 193.498C354.298 192.46 356.115 191.357 356.825 189.409ZM188.588 177.898C187.628 178.864 186.322 179.646 185.174 180.413L184.986 180.232L185.045 179.823C186.206 178.74 187.125 178.294 188.505 177.518L188.588 177.898ZM356.99 170.025C356.013 170.591 354.178 171.766 353.258 172.188C350.888 173.658 351.495 174.136 347.72 175.83C348.895 174.876 350.398 173.728 351.353 172.585C351.77 172.084 351.638 172.118 352.248 171.688C353.291 171.069 355.595 169.581 357.002 169.54L356.99 170.025ZM357.012 169.54C357.153 169.537 357.285 169.548 357.405 169.576L357.175 169.873L357.012 169.54ZM357.012 169.54C357.009 169.54 357.005 169.54 357.002 169.54L357.003 169.521L357.012 169.54ZM200.181 165.855L200.215 166.202C199.321 166.99 197.509 167.206 196.349 167.298L196.272 167.322L196.129 167.176C197.138 166.55 198.69 166.168 199.864 165.809L200.181 165.855ZM147.359 161.379C147.71 161.505 147.543 161.401 147.831 161.737C146.996 163.005 146.303 164.366 145.593 165.707C144.109 165.734 145.888 165.451 144.438 164.848C143.96 164.888 143.481 164.904 143.001 164.926C143.113 164.338 145.278 163.577 145.859 163.024C146.431 162.479 146.86 161.974 147.359 161.379ZM355.543 160.354C355.888 160.455 355.87 160.486 356.183 160.684C355.965 161.494 355.077 162.202 354.447 162.825L354.106 162.886L353.92 162.649C354.51 161.867 354.998 161.169 355.543 160.354ZM201.523 159.08C202.471 159.136 203.198 159.09 204.04 159.511C203.416 159.876 202.698 159.754 201.939 159.737C200.982 159.793 200.439 159.918 199.574 159.581C200.145 159.141 200.781 159.166 201.523 159.08ZM237.455 154.214C237.269 156.027 236.145 157.004 234.638 157.802C234.541 156.776 236.657 155.034 237.455 154.214ZM148.717 152.881C148.368 153.511 146.449 154.117 145.613 154.464L145.358 154.424L145.415 154.118C146.266 153.443 147.257 153.134 148.277 152.724L148.717 152.881ZM236.744 151.721C237.878 152.148 238.926 152.342 240.105 152.604L240.155 152.973C239.192 153.281 238.983 153.432 238.038 153.232C237.267 152.747 237.197 152.498 236.744 151.721ZM358.398 150.798C357.45 151.23 356.24 151.856 355.213 151.9C354.168 152.106 352.71 152.8 351.755 152.455C352.063 151.671 352.088 151.849 352.901 151.255C354.473 151.21 357.455 150.749 358.398 150.798ZM151.13 142.501L151.114 142.878C149.922 143.708 149.008 144.407 147.877 145.321L147.497 145.192L147.512 144.775C148.472 143.772 149.663 143.154 150.86 142.425L151.13 142.501ZM199.722 142.45C200.325 142.42 200.132 142.388 200.671 142.569C200.283 143.136 199.271 143.53 198.587 143.889L197.956 144.015L197.837 143.76C198.449 143.011 198.833 142.905 199.722 142.45ZM355.33 133.46C355.618 133.562 355.598 133.618 355.843 133.866L355.823 134.384C355.238 135.202 353.628 136.223 352.743 136.853L352.391 136.605C352.958 135.305 354.225 134.307 355.33 133.46ZM184.758 133.269C185.729 131.84 187.069 132.353 188.491 132.91C189.131 132.679 189.66 132.396 190.31 132.502C189.566 133.252 188.761 133.521 187.749 133.871C187.087 134.741 186.182 135.434 185.18 134.833C184.607 133.858 184.728 134.365 184.758 133.269ZM187.99 133.448H187.991H187.99ZM304.54 132.269L304.41 132.511L302.861 132.899C302.168 132.819 302.408 132.909 301.811 132.558C302.311 132.151 303.148 132.143 303.835 132.05L304.54 132.269ZM199.305 129.134C198.882 129.934 197.712 130.719 196.956 131.314C196.75 131.263 196.875 131.316 196.647 131.05C197.239 130.16 198.06 129.619 198.906 128.946L199.305 129.134ZM252.68 119.965L252.83 120.237C252.06 121.508 251.345 122.526 250.487 123.734L250.358 123.784C250.463 122.233 251.357 121.246 252.242 119.897L252.68 119.965ZM222.646 112.315C223.337 112.241 224.434 112.076 224.945 112.436L224.449 112.8C223.631 112.906 222.964 113.133 222.303 112.841L222.646 112.315ZM241.011 108.05L241.155 108.314C240.106 109.521 237.373 110.623 235.89 111.281L235.552 111.109C235.87 110.524 239.769 108.556 240.73 108.003L241.011 108.05ZM281.253 108.646C281.24 108.797 281.073 108.926 280.933 109.089C279.32 109.748 278.358 109.866 276.7 109.316C276.578 109.143 276.631 109.26 276.658 108.931C278.511 108.933 279.416 108.882 281.253 108.646ZM214.607 101.398C213.923 102.252 211.859 103.697 210.885 104.428L210.539 104.37L210.628 103.92C211.924 102.751 212.867 102.155 214.32 101.192L214.607 101.398ZM308.203 101.451L308.268 101.741C306.965 103.017 305.001 103.745 303.323 104.394L302.925 104.37C303.152 103.89 306.44 102.375 307.71 101.421L308.203 101.451ZM296.018 102.895C295.593 103.409 294.585 103.69 293.91 103.946L293.58 103.823C293.855 103.282 294.895 103.049 295.615 102.769L296.018 102.895ZM265.245 101.712C265.678 101.748 265.453 101.688 265.905 101.942C265.32 102.545 264.148 102.848 263.313 103.146L262.947 103.2L262.838 102.944C263.748 102.224 264.135 102.142 265.245 101.712ZM309.663 96.9746C309.238 97.8719 307.06 98.629 306.075 99.0195L305.851 98.5723C306.336 97.9883 308.556 97.2118 309.508 96.7861L309.663 96.9746ZM242.312 86.4131C242.139 87.6821 240.675 89.517 239.827 90.5303L238.549 93.8066C237.961 94.0898 237.518 94.1812 236.896 94.3457L236.84 94.0801C238.584 92.749 238.48 92.102 239.511 90.0068C240.231 88.5726 240.797 87.4298 241.998 86.3633L242.312 86.4131ZM274.771 92.6318C277.523 92.2587 279.9 92.7441 282.785 92.6104L282.643 92.8525C280.803 93.4995 276.658 93.6158 274.915 93.2275L274.771 92.6318ZM270.521 88.3369L270.32 88.6895C268.643 89.6925 266.99 90.1919 265.058 90.3271L264.657 90.3545C264.965 90.0062 269.018 88.6346 270.053 88.1846L270.521 88.3369ZM296.233 86.0547C296.108 87.1046 290.601 88.6359 289.463 88.9443L289.532 88.625C290.112 88.1025 295.22 86.4053 296.233 86.0547ZM303.691 80.4365C305.505 80.6298 306.058 80.8253 307.601 81.7998L306.415 81.666C305.568 82.7624 307.32 83.9557 305.503 85.7832C303.748 86.0762 302.996 85.4758 301.498 84.5977L301.508 84.1748C303.015 82.5932 304.658 82.7535 303.691 80.4365ZM256.91 74.1426C257.198 74.3968 257.063 74.2216 257.208 74.7373C256.756 76.3623 256.532 77.2222 255.305 78.4619L255.003 78.126C255.263 76.9375 256.165 75.1026 256.91 74.1426Z" fill="#EDC43E"/>
</g>
<g clip-path="url(#clip3_64_3911)">
<path fill-rule="evenodd" clip-rule="evenodd" d="M292.804 318.88C293.644 321.56 293.612 324.083 292.37 326.633C289.07 333.045 285.247 341.283 278.23 344.238C275.555 345.366 272.09 345.738 269.835 346.823C264.132 346.268 255.809 345.013 251.224 341.365C249.179 338.98 248.419 335.343 249.663 332.238C250.247 330.776 253.602 333.028 254.617 333.48C259.252 335.555 264.339 336.78 269.452 336.472C279.982 336.018 286.199 325.288 292.304 318.43L292.804 318.88ZM232.632 231.765C233.722 232.325 234.654 233.283 234.988 234.471C236.778 240.835 239.183 266.145 237.944 272.378C237.188 276.178 234.924 280.327 233.118 283.742C229.871 285.52 225.8 286.472 224.38 289.87C223.656 291.605 223.302 292.655 222.28 294.28L222.067 294.615L222.946 297.065C230.605 303.865 234.723 303.307 243.841 304.425C248.166 304.955 240.956 314.358 238.828 315.128C237.216 315.39 234.949 316.2 233.336 316.718C230.463 314.41 229.07 315.635 226.162 314.468C224.665 313.523 220.647 311.67 219.53 310.487C214.444 305.1 213.222 300.382 215.375 293.597C218.059 285.14 220.221 282.152 225.757 275.87C226.317 275.772 228.258 275.482 228.513 274.965C229.762 272.427 230.553 266.762 230.715 263.897C230.909 262.172 230.19 259.73 230.363 258.128C231.361 248.872 225.946 239.852 232.302 231.63C232.412 231.675 232.527 231.711 232.632 231.765ZM300.187 232.188C302.372 232.254 304.592 232.824 306.762 233.106C308.885 233.383 311.053 233.462 313.163 233.827C316.415 234.39 320.44 236.318 322.325 239.135C322.857 239.932 323.182 240.888 322.924 241.845C322.689 242.709 322.063 243.385 321.26 243.763C319.653 244.516 318.617 244.469 316.995 243.908L316.692 243.801C318.085 259.19 313.435 287.553 293.78 289.435C289.875 289.808 283.602 289.083 280.352 286.658C278.56 286.711 275.667 287.155 274.092 286.043C267.827 281.615 266.705 273.388 265.87 266.628C264.557 256.015 266.495 252.065 271.482 243.3C269.22 243.645 265.968 245.343 263.913 244.142C263.608 243.598 263.485 243.317 263.567 242.683C263.859 240.433 266.062 237.509 267.852 236.18C271.295 233.622 295.359 232.043 300.187 232.188ZM163.3 236.295C177.267 232.149 193.45 230.755 207.528 235.045C209.052 235.509 213.09 238.154 213.663 239.815C214.324 241.692 213.183 243.7 212.395 245.379C211.204 245.734 209.58 246.119 208.67 246.922C209.072 248.476 209.912 252.103 209.753 253.633C208.945 261.363 207.715 270.418 203.817 277.213C201.717 280.873 195.309 286.562 191.606 288.647C186.13 288.242 185.118 290.442 179.006 288.335C165.727 289.797 160.781 274.415 161.823 263.843C162.198 260.03 162.393 256.513 163.172 252.738C163.441 251.436 165.223 247.219 164.998 246.607C164.62 246.732 163.875 246.984 163.504 246.899C161.372 246.411 158.886 248.47 157.197 246.556C156.564 243.753 160.518 237.121 163.3 236.295ZM97.0201 245.001C105.979 244.537 110.928 247.428 118.912 250.897C122.61 252.505 128.944 253 127.388 259.13C126.932 260.925 125.493 263.313 124.162 264.658C118.719 268.863 112.236 272.498 106.13 275.708C104.333 277.195 103.752 277.71 101.691 278.798C99.89 278.363 98.9332 278.676 97.234 278.283C95.1027 275.586 99.9063 268.827 102.535 267.58C106.131 265.872 109.832 263.783 112.886 261.221C107.13 255.958 101.007 257.665 95.0348 253.513C92.9568 252.07 94.9646 246.576 97.0201 245.001ZM378.967 242.541C381.822 242.432 381.307 245.521 381.335 247.498C378.762 250.912 374.01 253.178 370.323 255.285C368.478 256.34 364.885 257.435 364.655 259.775C365.863 260.765 374.313 260.97 376.778 262.014C379.903 263.342 380.265 264.462 381.833 267.397C377.268 273.04 374.647 272.668 367.96 272.655C364.205 271.673 360.627 270.773 356.797 270.133C353.702 269.615 349.177 267.967 347.445 265.17C347.113 263.357 348.27 262.098 349.128 260.548C352.195 255.005 354.865 254.255 360.262 251.755C361.08 251.377 362.875 249.779 363.995 249.342C364.887 248.994 367.485 248.567 368.128 248.189C372.36 245.703 374.062 243.781 378.967 242.541ZM296.09 204.598C298.361 204.394 308.383 206.137 310.698 207.357C315.1 209.676 317.085 211.458 318.743 216.077C317.078 223.906 312.75 221.658 307.623 218.391C299.53 213.236 294.185 213.467 284.73 214.538C282.983 214.971 275.948 216.332 274.878 216.934C272.205 218.442 267.835 221.551 265.142 223.35C264.765 223.579 264.095 223.472 263.753 223.24C261.79 221.908 263.397 219.74 264.12 218.483C266.47 214.118 269.552 212.37 273.49 209.908C281.09 205.157 287.355 205.044 296.09 204.598ZM182.024 204.139C183.842 203.896 190.051 204.285 191.702 204.779C199.242 207.038 201.584 208.957 205.581 215.052C203.88 223.547 199.5 219.946 193.828 217.864C187.731 215.626 182.97 214.306 176.433 214.849C171.971 215.763 167.486 216.274 163.246 217.96C160.297 219.133 157.611 222.752 154.878 222.39C151.29 219.671 160.402 211.899 162.561 210.439C169.054 206.05 174.291 204.759 182.024 204.139Z" fill="#4B4746"/>
<path fill-rule="evenodd" clip-rule="evenodd" d="M289.665 241.305C292.585 242.005 296.905 242.586 300.065 242.577C300.778 242.575 301.681 241.24 302.855 241.353C304.828 244.123 313.527 242.562 316.692 243.801C318.085 259.19 313.435 287.553 293.78 289.436C289.875 289.808 283.603 289.082 280.353 286.657C285.812 283.28 290.948 272.237 292.365 266.107C294.638 256.28 294.897 249.935 289.665 241.305ZM189.369 243.406C192.482 245.027 192.34 245.781 196.405 245.516C196.451 245.514 199.316 245.943 199.355 245.95C201.049 246.398 207.714 246.201 208.67 246.922C209.072 248.476 209.913 252.103 209.753 253.633C208.945 261.363 207.715 270.418 203.817 277.213C201.717 280.873 195.309 286.562 191.606 288.647C186.131 288.242 185.118 290.442 179.007 288.335C179.159 287.077 182.552 282.16 183.321 280.412C186.805 272.492 189.035 262.258 188.233 253.57C187.993 250.96 186.822 247.465 186.445 244.695C187.252 244.726 187.52 244.794 188.273 244.476C188.629 243.965 188.791 243.588 189.369 243.406Z" fill="#FEFEFE"/>
</g>
</g>
<defs>
<clipPath id="clip0_64_3911">
<rect width="480" height="480" fill="white"/>
</clipPath>
<clipPath id="clip1_64_3911">
<rect width="480" height="480" fill="white"/>
</clipPath>
<clipPath id="clip2_64_3911">
<rect width="480" height="480" fill="white"/>
</clipPath>
<clipPath id="clip3_64_3911">
<rect width="480" height="480" fill="white"/>
</clipPath>
</defs>
</svg>
