<svg width="480" height="480" viewBox="0 0 480 480" fill="none" xmlns="http://www.w3.org/2000/svg">
<g clip-path="url(#clip0_64_3887)">
<g clip-path="url(#clip1_64_3887)">
<path fill-rule="evenodd" clip-rule="evenodd" d="M231.521 118.263C237.742 117.803 245.002 120.92 251.227 121.172C261.625 121.977 271.337 125.892 280.457 130.715C282.43 132.026 286.229 133.457 287.937 135.005C292.982 139.583 297.843 143.701 303.328 147.77C307.495 150.862 310.995 156.033 315.007 159.298C316.095 160.183 317.378 162.168 318.385 163.25C321.175 167.208 324.145 171.113 326.882 175.109C329.95 180.523 333.395 188.622 335.377 194.541C336.072 196.611 336.345 200.088 336.965 202.21C338.883 208.778 339.63 216.087 338.792 222.957C347.722 216.935 352.212 214.235 363.342 216.693C369.142 217.974 376 220.974 379.275 226.109C385.317 235.58 387.288 245.694 384.56 256.538C381.775 268.965 375.137 281.433 363.847 288.085C358.852 291.03 354.94 292.373 349.965 295.76C345.76 295.705 344.597 296.232 340.645 297.52C339.23 297.715 337.427 297.042 336.07 297.03C335.728 297.027 330.685 297.788 330.8 297.635C329.758 299.035 329.297 302.452 328.432 303.775C325.25 307.712 323.405 313.272 320.765 317.207C317.403 322.222 310.858 328.808 306.618 333.005C301.645 337.928 296.627 343.73 290.667 347.122C285.247 350.207 279.44 352.657 273.905 355.52C271.755 356.6 269.36 357.165 267.222 358.363C266.553 359.403 268.175 364.032 268.108 366.08C266.876 366.764 260.813 369.102 260.755 369.148C255.59 373.398 251.007 373.265 244.929 375.262C244.826 376.745 244.846 377.115 243.66 378.065L243.004 377.448C243.056 377.252 243.102 377.1 243.136 376.971C243.222 376.649 243.239 376.467 243.121 376.085C243.097 376.009 243.068 375.924 243.033 375.83L239.331 376.887C235.891 375.695 235.14 376.685 232.141 376.41C229.075 376.127 223.682 375.043 220.852 374C219.195 374.708 217.119 377.055 215.898 375.472C214.903 373.179 215.546 367.748 215.634 365.005C215.441 364.68 215.306 364.377 214.828 364.36C209.698 364.162 204.928 363.965 200.232 361.788C198.478 362.24 196.634 362.755 194.795 362.443C187.614 361.223 183.169 360.125 176.743 356.712C169.732 352.987 162.186 349.965 156.138 344.485C154.299 342.817 151.66 341.48 149.956 339.533C146.119 335.483 143.539 330.44 139.576 326.443C139.001 325.865 137.759 324.458 137.305 323.813C132.926 317.588 129.445 310.608 126.99 303.403C125.865 300.148 123.753 296.842 122.556 293.565C121.242 289.842 119.71 285.808 118.926 281.965C118.205 279.113 118.321 275.382 117.689 272.627C115.885 264.76 115.94 257.72 116.931 249.757C117.251 247.189 116.054 243.896 116.54 241.032C117.082 237.849 117.703 234.587 118.284 231.401C120.08 217.257 122.508 204.029 128.015 190.814C129.078 188.264 132.2 183.55 133.729 181.013C143.836 164.243 155.956 151.049 171.318 138.894C176.591 135.22 183.912 130.702 189.915 128.47C195.963 126.222 202.799 124.946 209.027 122.487C215.424 119.961 224.694 118.768 231.521 118.263ZM204.72 356.148C204.972 356.187 205.169 356.206 205.336 356.208C205.169 356.206 204.971 356.186 204.72 356.147V356.148ZM206.727 355.709L206.726 355.71L206.727 355.709ZM229.918 355.388C230.152 355.401 230.363 355.38 230.555 355.337C230.363 355.38 230.152 355.401 229.918 355.388ZM232.285 354.635H232.284C232.122 354.638 231.962 354.698 231.791 354.783C231.621 354.867 231.441 354.978 231.239 355.08C231.643 354.875 231.962 354.641 232.285 354.635ZM209.9 355.118L209.899 355.111L209.896 355.102H209.895L209.9 355.118ZM237.294 354.257H237.295H237.294ZM176.226 352.493H176.227H176.226ZM177.812 351.872H177.811H177.812ZM179.86 350.744C179.932 350.737 180.017 350.755 180.243 350.755H180.244C180.018 350.755 179.932 350.737 179.86 350.744ZM259.339 348.377H259.34H259.339ZM261.586 346.87H261.587L260.96 346.695H260.959L261.586 346.87ZM272.625 340.601C272.504 340.638 272.376 340.67 272.244 340.696C272.376 340.67 272.504 340.638 272.625 340.601ZM267.42 339.507C267.681 339.553 267.955 339.617 268.24 339.691C267.955 339.617 267.681 339.553 267.42 339.507ZM191.409 338.781C191.411 338.821 191.415 338.861 191.42 338.901H191.421C191.416 338.861 191.412 338.821 191.41 338.781H191.409ZM218.278 338.576V338.577V338.576ZM218.81 337.768C218.109 338.035 217.327 338.249 216.617 338.441C217.091 338.313 217.596 338.175 218.088 338.018C218.334 337.94 218.577 337.857 218.811 337.768H218.81ZM192.25 336.856C192.128 337.009 192.011 337.166 191.907 337.326L192.072 337.089C192.129 337.011 192.189 336.933 192.25 336.856ZM260.689 324.37H260.69L260.335 324.195H260.334L260.689 324.37ZM230.87 322.455V322.455V322.455ZM285.668 321.861V321.86L285.41 321.653L285.668 321.861ZM305.521 319.595C305.371 319.765 305.213 319.931 305.055 320.092C305.213 319.931 305.371 319.765 305.521 319.595ZM306.017 318.937V318.936V318.937ZM245.95 318.103H245.951H245.95ZM139.293 316.812C139.128 316.969 138.958 317.134 138.799 317.304C138.958 317.134 139.128 316.969 139.293 316.812ZM245.434 317.69H245.433H245.434ZM190.127 312.757C189.895 312.984 189.647 313.216 189.417 313.433L190.127 312.758C190.244 312.645 190.356 312.533 190.459 312.424L190.127 312.757ZM288.752 312.37V312.371V312.37ZM174.861 312.429C174.815 312.488 174.77 312.549 174.726 312.612C174.77 312.549 174.815 312.488 174.861 312.429ZM303.38 312.075C303.496 311.758 303.547 311.46 303.551 311.17C303.549 311.315 303.535 311.462 303.507 311.613C303.479 311.763 303.437 311.916 303.379 312.075H303.38ZM191.05 311.605C191.036 311.671 191 311.748 190.947 311.833C191 311.748 191.036 311.671 191.05 311.605ZM246.622 311.005H246.621H246.622ZM139.823 308.573C139.729 308.693 139.612 308.855 139.481 309.047C139.612 308.855 139.729 308.693 139.823 308.573ZM302.842 308.393C302.828 308.439 302.815 308.488 302.802 308.538L303.156 309.46H303.157C303.044 309.167 302.92 308.863 302.802 308.538C302.815 308.488 302.828 308.439 302.842 308.393ZM248.207 308.547L248.257 308.828C248.094 308.97 247.946 309.102 247.805 309.229H247.806C247.947 309.102 248.095 308.97 248.258 308.828L248.207 308.547H248.207ZM286.771 309.388C286.721 309.439 286.676 309.49 286.637 309.543C286.715 309.437 286.816 309.337 286.934 309.241L286.771 309.388ZM294.062 307.205V307.205V307.205ZM304.386 306.608H304.387H304.386ZM251.938 303.062H251.937H251.938ZM254.473 300.815C254.138 301.167 253.769 301.533 253.386 301.882L253.948 301.35C254.13 301.171 254.306 300.991 254.473 300.815ZM319.653 299.256H319.654H319.653ZM203.535 298.595C203.521 298.627 203.504 298.659 203.486 298.69H203.487C203.505 298.659 203.522 298.627 203.536 298.595H203.535ZM292.844 293.203C292.602 293.415 292.41 293.6 292.238 293.754H292.239C292.411 293.6 292.603 293.415 292.845 293.203L292.457 292.757L292.844 293.203ZM139.639 292.733H139.64H139.639ZM289.302 292.716H289.303H289.302ZM265.884 287.348H265.885H265.884ZM270.147 287.289C270.03 287.348 269.961 287.378 269.9 287.393C269.839 287.408 269.786 287.41 269.703 287.413C269.869 287.407 269.915 287.407 270.148 287.29L271.337 286.603V286.602L270.147 287.289ZM316.736 287.21H316.737H316.736ZM175.792 287.211V287.21V287.211ZM320.868 284.188V284.187V284.188ZM318.941 283.59C318.929 283.704 318.896 283.838 318.845 283.987C318.896 283.838 318.931 283.704 318.943 283.59H318.941ZM123.647 282.594C123.156 282.744 122.651 282.947 122.143 283.252H122.144C122.652 282.947 123.157 282.744 123.647 282.594ZM323.257 282.926C323.147 282.949 323.038 282.974 322.928 282.999C323.147 282.948 323.368 282.902 323.589 282.863L323.257 282.926ZM159.434 282.521H159.435H159.434ZM127.166 281.587C127.082 281.641 126.995 281.691 126.906 281.736C126.638 281.871 126.347 281.968 126.04 282.048H126.04C126.451 281.941 126.829 281.803 127.166 281.587ZM160.489 281.455V281.455V281.455ZM302.053 278.944C301.917 279.057 301.75 279.181 301.563 279.314C301.75 279.181 301.917 279.057 302.053 278.944ZM216.172 278.951C215.951 279.14 215.73 279.315 215.53 279.474L215.531 279.475C215.83 279.236 216.177 278.961 216.502 278.657L216.172 278.951ZM301.307 278.784C301.496 278.671 301.68 278.562 301.855 278.455C301.931 278.46 301.977 278.462 302.009 278.464L301.855 278.455C301.68 278.561 301.496 278.671 301.307 278.784ZM217.343 277.66C217.237 277.838 217.108 278.012 216.965 278.178L217.104 278.009C217.237 277.839 217.352 277.661 217.442 277.479L217.343 277.66ZM193.304 276.465L193.173 276.813C192.767 277.017 192.39 277.191 192.009 277.36C192.39 277.191 192.768 277.017 193.174 276.813L193.304 276.465L193.041 276.243H193.04L193.304 276.465ZM217.626 276.915C217.616 276.98 217.603 277.044 217.585 277.107L217.627 276.915L217.405 276.685L217.626 276.915ZM125.366 270.158C125.285 270.459 125.169 270.717 125.025 270.946C124.953 271.06 124.874 271.167 124.789 271.268C124.703 271.369 124.611 271.463 124.514 271.553C124.466 271.598 124.416 271.642 124.365 271.685C124.007 271.985 123.589 272.238 123.146 272.509C124.158 271.889 125.044 271.363 125.367 270.158H125.366ZM317.521 270.277C317.445 270.419 317.382 270.56 317.331 270.701C317.382 270.56 317.445 270.419 317.521 270.277ZM241.142 271.372H241.141H241.142ZM259.584 270.44H259.585H259.584ZM187.551 269.172H187.552H187.551ZM189.946 265.863H189.945H189.946ZM245.364 268.365L245.585 268.308C245.587 268.307 245.588 268.307 245.588 268.307L245.364 268.365ZM189.409 265.448V265.449V265.448ZM190.558 265.395H190.557H190.558ZM191.514 264.752H191.515H191.514ZM137.413 262.387H137.414H137.413ZM272.832 262.149H272.833H272.832ZM379.979 260.71C379.822 260.776 379.631 260.855 379.384 260.974L379.385 260.975C379.632 260.856 379.823 260.776 379.979 260.71ZM381.022 259.872C380.815 260.16 380.672 260.32 380.522 260.433C380.672 260.32 380.816 260.16 381.023 259.872L380.775 259.485L381.022 259.872ZM350.873 251.287C350.618 251.483 350.374 251.687 350.149 251.904C350.374 251.687 350.618 251.483 350.873 251.287ZM136.726 251.295H136.727H136.726ZM181.784 250.648C182.134 250.383 182.598 250.077 183 249.742C182.799 249.909 182.582 250.07 182.372 250.221C182.161 250.372 181.958 250.515 181.783 250.647L181.784 250.648ZM147.762 250.182H147.763H147.762ZM354.654 247.965C354.624 248.072 354.584 248.176 354.534 248.277C354.458 248.429 354.362 248.575 354.248 248.717C354.171 248.812 354.087 248.905 353.996 248.997C353.95 249.042 353.903 249.088 353.854 249.133C353.659 249.314 353.439 249.49 353.203 249.664C353.912 249.141 354.476 248.605 354.655 247.966L354.654 247.965ZM183.849 248.655C183.836 248.703 183.819 248.751 183.799 248.798C183.759 248.893 183.706 248.987 183.641 249.08C183.738 248.941 183.811 248.799 183.85 248.655L183.696 248.529H183.695L183.849 248.655ZM293.112 247.745H293.113H293.112ZM255.424 246.099C255.217 246.78 254.564 247.003 253.839 247.481L253.84 247.482C254.565 247.004 255.218 246.78 255.425 246.099L255.023 245.876H255.022L255.424 246.099ZM281.184 240.317C281.125 240.36 281.068 240.404 281.013 240.449C281.122 240.36 281.241 240.273 281.367 240.188L281.184 240.317ZM283.292 239.081C283.035 239.228 282.709 239.399 282.369 239.586C282.709 239.399 283.035 239.228 283.292 239.081L283.775 239.557C283.683 239.613 283.587 239.677 283.488 239.747L283.775 239.557L283.292 239.08V239.081ZM348.79 237.226H348.79H348.79ZM349.641 236.712C349.577 236.776 349.499 236.837 349.412 236.896C349.499 236.837 349.577 236.776 349.641 236.712ZM176.43 233.196L176.431 233.198L176.502 232.799L176.43 233.196ZM179.208 230.555C179.2 230.575 179.186 230.598 179.165 230.622C179.145 230.647 179.12 230.674 179.089 230.703C179.028 230.76 178.946 230.827 178.849 230.901C178.558 231.123 178.13 231.412 177.695 231.738C177.405 231.955 177.113 232.189 176.856 232.431C177.755 231.585 179.096 230.833 179.209 230.555L178.747 230.427L179.208 230.555ZM300.83 226.235V226.236V226.235ZM242.894 223.966H242.895H242.894ZM305.04 223.51C304.69 223.676 304.426 223.799 304.179 223.902C304.426 223.799 304.69 223.676 305.04 223.51ZM189.578 220.892C189.473 220.992 189.359 221.075 189.238 221.149C189.157 221.198 189.073 221.242 188.986 221.283H188.987C189.204 221.18 189.403 221.058 189.578 220.892ZM177.808 220.775C177.772 220.786 177.735 220.797 177.698 220.806C177.772 220.788 177.845 220.765 177.917 220.737L177.808 220.775ZM189.038 209.077H189.039H189.038ZM274.183 206.047C274.085 206.127 273.989 206.216 273.886 206.327L274.079 206.134C274.113 206.103 274.148 206.075 274.183 206.047ZM275.53 206.058C275.491 206.083 275.45 206.108 275.409 206.133C275.503 206.077 275.592 206.019 275.674 205.959L275.53 206.058ZM274.72 205.715C274.578 205.784 274.459 205.851 274.35 205.923C274.459 205.851 274.578 205.784 274.72 205.715ZM190.635 200.781L190.651 201.136L190.636 200.781L190.303 200.677L190.635 200.781ZM242.404 194.849H242.405L241.898 194.722H241.897L242.404 194.849ZM315.976 187.339H315.975H315.976ZM246.055 185.478C245.99 185.52 245.923 185.562 245.855 185.602C245.991 185.521 246.122 185.437 246.249 185.348L246.055 185.478ZM204.473 183.982C204.328 184.133 204.195 184.294 204.05 184.495C204.195 184.294 204.328 184.133 204.473 183.982ZM175.414 179.52C175.543 179.368 175.66 179.207 175.768 179.038C175.66 179.207 175.543 179.368 175.414 179.52ZM255.263 178.044C255.18 178.116 255.096 178.174 255.004 178.227C254.759 178.369 254.458 178.476 253.982 178.725L253.983 178.726C254.697 178.353 255.016 178.297 255.346 177.967L255.263 178.044ZM271.117 172.817H271.118H271.117ZM271.271 171.19H271.272H271.271ZM262.576 171.305H262.577H262.576ZM264.138 169.898H264.139H264.138ZM272.385 168.767H272.384C272.257 168.933 272.143 169.096 272.04 169.257H272.041C272.144 169.096 272.258 168.933 272.385 168.767ZM267.947 167.794L268.237 168.375H268.238L267.948 167.794L266.578 167.48L267.947 167.794ZM271.805 168.367C271.864 168.378 271.912 168.386 271.952 168.393C271.872 168.38 271.76 168.36 271.592 168.318L271.805 168.367ZM236.571 167.134C236.311 167.457 236.048 167.765 235.826 168.04V168.041C236.048 167.766 236.311 167.457 236.571 167.134ZM293.858 167.841L293.857 167.84L293.858 167.841ZM173.138 165.547C173.225 165.552 173.316 165.555 173.409 165.557C173.223 165.553 173.048 165.544 172.887 165.529L173.138 165.547ZM186.543 164.777C186.274 164.898 185.986 165.011 185.709 165.142L185.631 165.256L185.632 165.257L185.71 165.142C186.078 164.967 186.469 164.825 186.805 164.652L186.543 164.777ZM187.157 164.441H187.158H187.157ZM301.598 163.785C301.303 163.923 301.025 164.033 300.749 164.124C301.025 164.033 301.303 163.923 301.598 163.785ZM187.514 164.083C187.491 164.118 187.466 164.151 187.44 164.183L187.515 164.083C187.538 164.049 187.559 164.013 187.578 163.976L187.514 164.083ZM191.171 161.53H191.172H191.171ZM269.477 160.785H269.478H269.477ZM178.306 151.442C178.687 151.18 178.994 150.938 179.197 150.523C179.035 150.856 178.805 151.076 178.525 151.286C178.455 151.338 178.381 151.389 178.305 151.442H178.306ZM270.59 150.766V150.767V150.766ZM178.948 149.489C179.038 149.599 179.093 149.681 179.131 149.759C179.093 149.681 179.039 149.599 178.949 149.489H178.948ZM299.731 149.289C299.671 149.383 299.611 149.469 299.548 149.548C299.611 149.469 299.671 149.383 299.731 149.289ZM299.842 148.382L299.908 148.985L299.842 148.381L299.467 148.145L299.842 148.382ZM283.472 146.164C283.509 146.165 283.544 146.159 283.583 146.146C283.544 146.159 283.509 146.165 283.472 146.164ZM224.301 144.276C223.544 144.443 222.947 144.526 222.406 144.53C223.055 144.526 223.785 144.406 224.776 144.165L224.301 144.276ZM223.278 143.664V143.665V143.664ZM220.001 143.599H220.002H220.001ZM196.839 142.025C196.784 142.063 196.729 142.1 196.673 142.136C196.841 142.029 197.004 141.91 197.162 141.786L196.839 142.025ZM198.882 140.323H198.883H198.882ZM195.481 132.34C195.568 132.345 195.655 132.348 195.743 132.349C195.655 132.348 195.568 132.345 195.481 132.34Z" fill="#EDC183"/>
<path fill-rule="evenodd" clip-rule="evenodd" d="M271.386 367.438C275.628 366.118 282.436 368.588 286.096 370.75C292.431 374.493 301.41 384.602 303.705 391.527C304.908 395.082 302.908 398.993 304.003 402.5C304.118 402.875 304.348 404.29 304.203 404.638C302.458 408.86 300.885 415.905 297.652 418.987C293.997 422.47 290.092 423.848 285.268 422.463C283.655 423.133 282.595 423.713 281.062 424.558C276.44 424.22 273.003 424.321 268.508 425.873C267.635 425.011 267.22 424.253 266.013 424.315C263.425 424.448 261.323 426.11 258.685 425.298C258.283 425.193 257.162 425.037 256.701 424.962L256.7 424.963C254.356 426.27 253.875 424.79 252.011 425.077C249.381 425.484 243.146 425.117 240.797 425.573L240.582 425.62C239.496 425.68 237.44 425.94 236.574 425.53C235.446 425.548 234.808 425.802 233.73 426.09C231.304 426.74 229.665 425.965 227.365 425.23C228.178 424.401 230.144 424.395 229.932 423.062C229.946 423.151 229.949 423.234 229.945 423.312C229.943 423.351 229.939 423.388 229.933 423.425C229.863 423.824 229.545 424.073 229.143 424.279C228.851 424.429 228.515 424.556 228.197 424.701C227.88 424.846 227.581 425.009 227.364 425.23C226.454 425.038 225.942 425.053 225.013 425.365L224.396 425.592C221.411 426.641 219.777 426.436 216.536 426.4C212.59 426.358 213.087 427.752 209.657 425.098C207.695 425.568 205.674 425.978 203.82 426.763C201.948 426.158 200.494 425.737 198.741 424.808L195.694 426.163C193.779 425.881 192.005 425.25 190.095 424.897C185.04 423.967 180.211 422.315 175.311 420.775C174.746 418.188 173.383 413.392 173.941 411.015C176.781 398.93 180.41 393.937 190.454 386.75C193.018 384.915 195.568 382.997 198.254 381.345C201.156 379.56 211.634 374.62 214.788 375.407C215.132 375.495 215.337 375.582 215.699 375.527C215.767 375.517 215.832 375.493 215.898 375.473C217.119 377.055 219.195 374.707 220.852 374C223.683 375.042 229.076 376.128 232.142 376.41C235.14 376.685 235.89 375.695 239.33 376.888L243.033 375.83C243.313 376.59 243.213 376.665 243.005 377.447L243.66 378.065C244.847 377.115 244.826 376.745 244.93 375.263C251.008 373.265 255.59 373.397 260.755 369.147C260.81 369.102 266.874 366.765 268.107 366.08L271.386 367.438ZM222.294 425.042C222.19 425.054 222.087 425.065 221.984 425.072C222.19 425.057 222.399 425.032 222.604 425L222.294 425.042ZM223.721 424.771C223.486 424.828 223.206 424.892 222.908 424.947L223.2 424.891C223.389 424.851 223.565 424.809 223.721 424.771ZM237.62 423.723H237.621H237.62ZM229.43 422.454H229.431H229.43ZM261.577 421.964V421.965V421.964ZM262.402 421.092H262.403L262.708 420.798L262.402 421.092ZM244.694 417.866C244.141 418.189 243.604 418.542 243.065 418.922C242.796 419.112 242.526 419.31 242.254 419.514C241.981 419.717 241.706 419.927 241.426 420.145C241.383 420.085 241.352 420.035 241.327 419.988C241.352 420.035 241.383 420.086 241.426 420.146C242.547 419.277 243.587 418.513 244.694 417.866ZM210.238 418.229C209.876 418.321 209.623 418.386 209.428 418.422V418.423C209.623 418.387 209.876 418.322 210.238 418.23V418.229ZM208.773 418.387V418.386V418.387ZM258.837 416.18C258.994 416.272 259.195 416.414 259.31 416.487C259.294 416.581 259.276 416.666 259.253 416.744C259.185 416.977 259.082 417.146 258.945 417.311C258.854 417.42 258.747 417.528 258.625 417.65C258.503 417.773 258.365 417.911 258.212 418.082C258.085 418.099 258.063 418.104 258.02 418.092C258.063 418.104 258.085 418.1 258.213 418.083C258.825 417.398 259.19 417.24 259.31 416.487C259.158 416.39 258.85 416.17 258.7 416.107L258.837 416.18ZM277.721 417.407H277.72L277.475 417.748H277.476L277.721 417.407ZM246.887 416.793C246.418 416.979 245.971 417.183 245.54 417.403L245.977 417.189C246.271 417.05 246.574 416.917 246.887 416.793ZM248.619 416L248.368 416.287L248.369 416.288L248.62 416C248.578 415.945 248.505 415.844 248.432 415.748L248.619 416ZM230.336 414.254C230.212 414.383 230.088 414.523 229.967 414.676C230.088 414.523 230.212 414.383 230.336 414.254ZM225.369 411.53C225.052 412.355 224.794 412.698 224.348 413.202L224.557 412.961C224.882 412.57 225.105 412.218 225.37 411.53H225.369ZM258.939 411.447C258.461 411.473 257.998 411.518 257.696 411.549C257.998 411.518 258.461 411.473 258.939 411.447ZM263.685 411.39C263.567 411.452 263.441 411.508 263.301 411.558L263.502 411.479C263.566 411.451 263.627 411.421 263.685 411.39ZM265.57 409.379C265.525 409.493 265.464 409.631 265.38 409.817C265.09 410.124 264.855 410.387 264.641 410.611L264.642 410.612C264.856 410.388 265.09 410.124 265.38 409.817C265.464 409.631 265.526 409.494 265.571 409.38L265.57 409.379ZM260.354 409.826H260.353H260.354ZM265.7 408.765C265.696 408.827 265.692 408.882 265.686 408.934C265.704 408.779 265.709 408.59 265.723 408.28L265.7 408.765ZM242.21 407.53L242.207 407.87L240.902 408.838C240.77 408.885 240.716 408.909 240.676 408.918C240.716 408.909 240.771 408.885 240.903 408.838L242.207 407.87L242.211 407.53H242.21ZM264.708 407.632H264.709H264.708ZM187.752 400.845C188.496 401.787 188.845 404.061 188.009 404.941L188.01 404.942C188.846 404.062 188.497 401.787 187.753 400.845L187.368 400.735H187.367L187.752 400.845ZM211.661 403.367H211.66H211.661ZM289.277 402.375H289.278H289.277ZM213.525 400.917C213.416 401.184 213.301 401.425 213.181 401.645C213.301 401.425 213.416 401.185 213.525 400.918V400.917ZM277.631 396.287H277.63H277.631ZM278.68 395.851H278.679H278.68ZM208.722 390.558C207.891 391.485 206.502 392.586 205.155 392.619C206.502 392.586 207.892 391.486 208.723 390.558L208.65 390.305L208.722 390.558ZM204.358 392.503C204.451 392.534 204.545 392.558 204.64 392.576C204.545 392.558 204.451 392.534 204.358 392.503ZM203.536 392.147C203.573 392.16 203.61 392.174 203.646 392.188C203.552 392.152 203.456 392.12 203.357 392.092L203.536 392.147ZM205.244 391.759C205.456 391.786 205.677 391.812 205.908 391.837V391.838C205.446 391.788 205.026 391.731 204.628 391.675L205.244 391.759ZM202.278 391.392C202.515 391.408 202.743 391.429 202.968 391.453C202.743 391.429 202.515 391.408 202.278 391.392ZM289.051 390.166C288.881 390.295 288.687 390.42 288.491 390.54C288.687 390.42 288.881 390.295 289.051 390.166ZM289.577 389.567C289.541 389.669 289.474 389.77 289.383 389.87H289.384C289.475 389.77 289.542 389.669 289.578 389.567H289.577ZM198.95 386.212C198.724 386.301 198.507 386.397 198.306 386.507L198.307 386.508C198.508 386.398 198.724 386.301 198.95 386.212ZM202.498 384.965C202.427 385.014 202.35 385.059 202.268 385.104C202.185 385.148 202.097 385.189 202.005 385.229L202.006 385.23C202.19 385.15 202.356 385.062 202.498 384.965ZM202.95 384.442C202.937 384.477 202.921 384.51 202.903 384.542C202.85 384.639 202.779 384.728 202.692 384.81L202.774 384.726C202.85 384.639 202.91 384.545 202.951 384.442L202.778 384.271L202.95 384.442ZM215.131 381.77C214.631 381.802 214.203 381.828 213.775 381.841C214.203 381.828 214.631 381.802 215.131 381.77ZM214.343 381.229C214.404 381.235 214.466 381.241 214.527 381.249C214.466 381.241 214.404 381.235 214.343 381.229ZM277.127 379.298L277.053 380.615C276.785 380.848 276.955 380.767 276.51 380.77L276.511 380.771C276.955 380.768 276.785 380.848 277.053 380.615L277.128 379.298H277.127ZM244.734 379.189H244.733H244.734ZM279.16 378.854C279.033 378.914 278.904 378.968 278.77 379.015C278.637 379.061 278.5 379.101 278.356 379.135C278.213 379.169 278.063 379.198 277.905 379.222L278.137 379.183C278.512 379.111 278.842 379.005 279.16 378.854ZM244.178 378.901H244.179H244.178ZM280.622 377.532L280.532 377.902C280.389 378.026 280.252 378.14 280.119 378.244C279.986 378.348 279.858 378.442 279.73 378.527C279.985 378.357 280.247 378.151 280.533 377.902L280.623 377.532L280.05 377.138L280.622 377.532ZM275.907 371.63H275.908H275.907Z" fill="#4B4746"/>
</g>
<g clip-path="url(#clip2_64_3887)">
<path d="M233.33 82.061C234.602 82.1657 235.875 82.2263 237.151 82.2513C239.396 82.2955 241.635 82.5025 243.882 82.5225C246.297 82.544 248.712 82.3015 251.127 82.3747C252.887 82.428 254.632 82.767 256.387 82.9015C270.487 83.329 283.755 86.6783 296.78 92.0178C298.74 92.8218 301.042 93.4265 302.992 94.316C305.25 95.346 307.435 96.8935 309.702 97.9405C312.597 99.281 315.717 100.339 318.527 101.814C321.487 103.367 325.015 106.091 327.882 107.6C333.42 110.512 337.517 112.692 342.312 116.882C347.827 121.702 351.475 126.561 355.682 132.454C357.305 134.727 359.712 136.965 361.335 139.314C367.477 148.204 371.585 155.881 373.815 166.524C374.537 169.968 373.68 173.442 373.33 176.852C373.25 177.635 374 179.46 373.932 180.029C372.605 191.101 366.892 201.22 361.322 210.656C359.815 213.212 356.007 216.773 354.175 218.929C350.997 222.672 346.56 223.7 342.667 226.146C338.157 228.979 334.172 233.187 329.147 235.349C328.075 235.811 326.42 235.584 325.277 236.012C323.25 236.771 320.845 237.922 318.65 237.83C316.172 237.728 311.807 237.464 310.107 235.457C304.997 229.549 307.515 222.184 305.847 215.152C305.16 212.248 302.152 204.802 302.297 202.269L302.307 202.031L302.332 201.671C301.41 200.451 294.327 194.922 292.702 193.961C290.467 192.641 285.242 190.454 282.545 189.661C280.875 189.228 278.872 189.204 277.227 188.776C266.545 185.999 255.892 185.91 245.052 188.568C240.679 189.187 234.541 190.954 230.493 192.584C228.67 193.319 223.879 194.193 222.46 194.968C218.639 197.057 215.089 202.022 211.823 204.895C208.86 207.504 204.922 209.961 201.63 212.167C197.797 214.489 193.091 216.901 188.882 218.475C186.004 219.551 183.983 219.484 181.018 221.282C179.081 222.458 173.352 222.147 170.992 222.462C168.819 222.752 165.862 222.942 163.641 223.018C157.358 222.666 151.425 221.026 145.915 217.996C142.625 216.187 140.97 214.546 137.315 212.991C132.266 216.191 130.037 219.276 123.815 219.575C116.735 219.915 109.812 218.754 104.529 213.648C103.181 212.344 99.9656 209.022 99.6496 207.158C99.0219 203.458 98.3061 202.203 96.3049 199.039C94.5166 196.212 93.8516 191.161 93.7896 187.859C93.7334 184.866 95.9696 186.24 94.2414 182.37C94.3806 180.498 95.6854 178.094 96.0041 176.027C96.2884 174.186 95.6336 171.298 96.0269 169.755C98.3951 160.466 101.523 152.17 106.071 143.718C107.651 140.617 109.003 137.16 110.902 134.238C119.527 120.967 129.681 108.856 143.745 101.12C145.973 99.894 148.164 98.0895 150.785 97.7787C152.22 97.6087 152.32 97.9688 153.37 98.7845C154.177 98.5325 154.866 97.47 155.567 96.9915C156.667 96.2413 158.145 95.9105 159.375 95.4147C166.862 92.396 173.841 93.4232 181.571 94.489C183.678 93.379 187.6 90.7128 189.467 89.9993C199.611 86.1235 208.952 84.3148 219.6 83.271C222.827 82.9525 226.055 82.6543 229.286 82.3765C230.921 82.2473 231.618 82.458 233.33 82.061ZM320.277 208.46C321.952 207.707 324.795 208.023 325.495 207.119C324.707 206.947 321.26 207.48 319.88 207.541C318.47 207.408 316.295 209.103 315.695 210.273C314.987 210.838 314.665 210.896 314.392 211.614C315.062 211.773 315.04 211.73 315.72 211.558C317.722 212.028 319.35 209.956 320.277 208.46ZM203.115 160.926C203.463 158.648 204.573 156.386 206.314 154.847L206.242 154.573L205.464 154.355C204.73 154.941 202.333 159.796 202.576 160.672L203.115 160.926ZM317.81 223.4C318.53 223.683 318.892 223.994 319.467 223.82C318.545 223.038 317.22 221.831 316.335 221.119C315.882 221.764 315.222 222.588 315.005 223.306L315.34 223.227L315.26 223.311L316.487 222.484C316.937 222.803 317.337 223.275 317.81 223.4ZM316.335 197.749L317.15 197.107L316.552 196.772C316.64 196.077 317.15 195.637 317.625 195.076L317.595 194.596L317.35 194.387C316.637 195.268 315.6 196.33 315.357 197.368L315.605 197.695L316.335 197.749ZM303.637 150.294C304.282 149.926 305.027 149.656 305.307 149.093L305.085 148.997C304.272 149.33 303.76 149.401 303.242 150.007C303.562 150.287 303.412 150.227 303.637 150.294ZM125.529 194.793C126.229 194.155 126.478 194.162 126.638 193.415L126.405 193.177C125.629 193.881 125.455 193.784 125.33 194.579L125.529 194.793ZM237.688 88.5985C237.551 89.4223 237.328 89.7432 237.65 90.2972C238.247 89.9712 239.022 89.4655 239.577 89.2035L240.254 88.8227L240.135 88.6162L237.688 88.5985ZM189.579 191.78C190.405 191.159 190.63 191.228 190.842 190.454L190.69 190.232C189.837 190.864 189.671 190.76 189.388 191.573L189.579 191.78ZM275.362 129.998C274.65 130.358 273.975 130.563 273.635 131.237L273.687 131.559C274.325 131.229 275.125 130.947 275.437 130.363L275.362 129.998ZM320.675 233.462C319.462 232.453 318.972 232.529 317.345 232.576C318.532 233.387 319.225 233.5 320.675 233.462ZM331.29 226.572C332.26 227.161 332.442 227.206 333.615 227.085C332.712 226.356 332.462 226.406 331.29 226.572ZM309.82 104.871C311 104.28 311.725 104 312.71 103.105L312.835 102.629L312.722 102.545C311.972 102.956 309.925 103.928 309.585 104.547L309.82 104.871ZM110.896 174.861C111.557 174.465 112.187 174.327 112.267 173.505C111.257 173.94 111.145 173.769 110.815 174.505L110.896 174.861ZM139.894 124.252C139.214 124.599 138.473 124.85 138.115 125.474L138.397 125.821C139.142 125.329 139.736 125.113 140.093 124.404L139.894 124.252ZM301.195 102.268C300.232 102.732 299.957 102.641 299.612 103.378L299.855 103.771C300.465 103.359 301.205 103.022 301.437 102.444L301.195 102.268ZM140.652 205.183C141.366 204.715 142.393 204.24 142.621 203.584L142.364 203.49C141.721 203.826 140.56 204.319 140.193 204.872L140.417 205.166L140.652 205.183ZM111.209 160.186C110.467 160.683 109.81 160.998 109.389 161.764L109.697 161.967C110.304 161.534 111.303 160.949 111.564 160.327L111.209 160.186ZM253.715 92.5092C255.025 92.493 255.852 92.538 257.137 92.1895L257.37 91.7887L257.02 91.6525C256.107 91.704 253.887 91.6805 253.28 92.1482L253.4 92.4693L253.715 92.5092Z" fill="#E88033"/>
<path d="M132.967 179.857L132.627 179.678C131.204 178.917 127.828 173.318 127.508 171.555C124.449 154.712 138.057 136.292 152.852 129.544C155.955 128.129 160.811 127.099 163.952 126.272C168.986 128.191 169.131 130.087 165.897 133.913C164.271 134.035 161.042 133.821 159.726 134.148C151.188 136.265 144.126 141.732 139.273 148.975C137.005 152.359 135.373 153.119 135.384 157.754C135.413 170.959 145.912 173.409 156.894 173.545C161.163 173.573 169.79 170.021 173.348 167.256C175.377 165.679 172.807 163.183 171.347 162.037C171.563 158.947 170.926 155.933 171.91 152.865C175.759 140.863 182.894 131.998 196.041 135.476C198.227 137.677 198.462 138.028 199.623 140.9C199.202 142.199 198.233 144.508 198.124 145.758C198.482 146.404 198.541 146.404 198.625 147.12C196.954 152.166 193.186 160.935 189.34 164.618C191.343 166.168 193.348 168.511 195.63 169.611C199.387 171.421 202.854 170.317 206.413 172.615C210.278 170.984 214.671 170.34 218.602 168.689C224.121 166.37 229.023 163.245 231.254 157.374C228.518 153.793 228.373 148.821 229.84 144.694C229.364 142.165 229.362 141.872 229.527 139.359L231.444 137.325C234.885 133.749 236.267 132.221 240.577 129.725C247.704 130.864 252.002 133.014 250.432 141.016C249.34 146.581 246.331 149.892 244.159 154.734C245.06 155.747 245.53 156.289 246.597 157.171C248.36 157.14 249.644 157.574 251.297 158.114C255.1 159.355 259.102 159.834 262.997 160.688C264.222 160.956 264.9 161.49 265.265 162.657C264.435 166.699 253.232 168.458 249.616 168.446C247.086 168.438 246.386 168.359 243.883 168.984C241.353 166.493 238.871 165.699 235.447 164.682C233.266 167.32 230.753 170.386 227.899 172.286C224.278 174.698 221.689 175.727 218.409 178.735C214.037 178.607 212.977 179.878 208.969 180.899C208.884 180.921 207.523 180.341 207.376 180.275C206.325 180.836 205.83 182.012 204.504 181.85C202.354 181.588 202.999 180.193 200.47 180.791L198.642 181.879C197.601 181.403 197.192 181.199 196.101 180.912C191.164 179.186 185.154 176.682 180.792 173.868C179.931 174.345 178.772 174.953 177.995 175.558C177.033 176.307 175.672 177.757 174.7 178.411C173.594 179.155 173.043 177.833 171.293 178.987C169.571 180.123 168.619 181.741 166.969 182.724C166.957 182.731 165.54 182.71 165.417 182.728C164.185 182.909 162.565 183.587 161.358 183.92C159.676 184.384 155.007 184.866 153.449 184.208C152.461 184.443 152.013 185.304 151.206 186.093C147.005 184.062 147.331 185.273 144.428 184.502C143.284 184.566 141.591 183.444 140.555 182.838C140.129 183.175 140.106 183.187 139.613 183.417C138.387 183.212 135.248 180.834 132.967 179.857Z" fill="#4B4746"/>
<path d="M366.915 286.189C371.052 282.875 373.397 286.555 374.555 290.33C375.9 295.085 376.157 298.937 376.497 303.84C376.59 305.187 377.855 307.502 378.075 309.022C378.7 313.325 378.892 317.635 379.197 321.965C379.76 326.837 381.317 335.218 380.407 339.995C379.702 343.695 380.089 344.032 379.962 347.595C379.604 357.76 377.343 369 374.223 378.65C373.05 382.278 367.312 391.05 364.375 393.947C363.32 395.342 360.56 395.86 359.357 396.713C353.3 401.015 348.097 400.975 340.95 400.76C337.773 400.665 333.102 398.173 329.938 397.165C327.395 396.358 324.963 396.337 323.07 394.247C318.398 395.87 312.918 398.617 307.933 399.867C307.155 400.062 304.792 399.958 304.399 399.428C301.867 395.99 301.385 388.872 299.015 385.072C298.672 384.53 298.267 384.032 297.805 383.59C296.882 382.7 295.367 381.832 294.345 380.907C292.61 379.337 291.172 377.698 289.215 376.263C284.395 372.888 277.547 371.442 271.787 370.822C270.115 370.643 267.975 372.927 266 371.39C264.748 368.867 265.157 356.391 266.197 353.735C269.837 344.428 287.562 341.913 295.022 337.048C299.26 334.283 303.838 329.148 308.058 325.865C308.998 325.135 314.253 320.867 314.688 320.357C317.687 316.837 320.96 311.005 323.32 306.95C325.39 303.398 326.543 298.753 330.178 296.213C332.108 294.863 336.847 294.63 339.225 294.635C344.432 294.645 353.285 293.91 357.532 290.745C360.257 288.718 361.417 287.015 364.899 285.285C365.904 285.37 365.853 285.44 366.561 285.945L366.915 286.189ZM121.804 290.26C123.496 289.83 125.11 293.135 125.729 294.345C127.911 298.607 129.235 302.985 131.319 307.42C133.462 311.98 137.307 318.94 140.447 322.753C142.886 325.715 146.638 329.34 149.148 332.37C149.913 333.293 158.392 341.549 159.131 342.06C163.69 345.21 171.713 348.715 176.906 350.87C180.56 352.385 184.45 354.448 188.271 355.48C191.495 356.35 194.604 356.365 197.844 356.745C199.284 356.915 202.612 359.052 204.071 359.015C208.1 358.915 211.438 356.59 215.596 358.668C216.534 360.914 216.242 370.527 215.409 373.09C212.884 380.865 211.456 379.527 204.699 380.795C203.278 381.062 197.362 384.505 195.533 385.482C191.918 387.422 189.15 388.295 185.745 391.09C183.462 392.962 177.423 397.62 174.685 397.888C172.715 396.985 171.266 398.15 169.095 398.777C168.362 398.502 167.621 398.233 166.89 397.955C161.291 395.825 155.886 397.365 152.388 391.452C151.13 391.852 149.851 392.177 148.556 392.43C141.345 393.825 138.529 391.253 132.332 387.588C128.828 385.518 123.285 377.835 121.587 374.04C121.037 372.668 121.269 370.672 120.822 369.312C117.962 360.61 116.016 351.753 115.623 342.57C115.484 339.33 114.22 332.831 114.406 329.73C114.938 320.92 114.41 298.577 119.266 291.487C120.17 291.127 120.943 290.705 121.804 290.26ZM359.049 391.859H359.05H359.049ZM203.26 375.622H203.261H203.26ZM175.188 375.196H175.189H175.188ZM204.424 373.895V373.896V373.895ZM334.815 373.282C334.677 373.403 334.562 373.546 334.47 373.747H334.471C334.501 373.68 334.535 373.62 334.57 373.564C334.642 373.453 334.724 373.363 334.816 373.282H334.815ZM203.014 368.025H203.015H203.014ZM202.329 367.597V367.598V367.597ZM203.391 367.595H203.392H203.391ZM150.347 366.728C150.679 366.794 150.935 366.815 151.279 366.831C150.935 366.815 150.679 366.794 150.347 366.728ZM336.787 362.939C336.708 363.232 336.623 363.522 336.542 363.81C336.623 363.522 336.709 363.233 336.788 362.94L337.061 362.633C336.981 362.726 336.891 362.827 336.787 362.939ZM337.604 362.004L337.604 362.005L337.604 362.004ZM337.966 361.739L337.967 361.74L337.966 361.739ZM349.976 343.406V343.405V343.406ZM347.893 343.193C347.958 343.126 348.033 343.048 348.117 342.955C348.033 343.048 347.958 343.126 347.893 343.193ZM131.986 329.206C131.933 329.379 131.891 329.561 131.857 329.751L131.858 329.752C131.881 329.625 131.906 329.502 131.937 329.383C131.952 329.323 131.968 329.265 131.986 329.207V329.206ZM130.104 329.503V329.502V329.503ZM128.36 329.362H128.361H128.36ZM129.323 328.831H129.324H129.323ZM132.186 328.718C132.132 328.82 132.085 328.926 132.044 329.037L132.11 328.874C132.134 328.821 132.159 328.769 132.186 328.718ZM133.215 327.765C132.969 327.873 132.766 328.01 132.597 328.17C132.681 328.09 132.774 328.016 132.877 327.948C132.928 327.914 132.982 327.882 133.038 327.852C133.094 327.821 133.153 327.793 133.215 327.766V327.765ZM332.609 323.607H332.61H332.609ZM363.469 317.604H363.47H363.469ZM364.335 306.517C364.293 306.513 364.253 306.508 364.213 306.502C364.253 306.508 364.293 306.513 364.335 306.517ZM363.863 306.406C363.902 306.422 363.94 306.435 363.979 306.447C363.94 306.435 363.902 306.422 363.863 306.406ZM363.122 305.942H363.123L363.061 305.186L363.06 305.185L363.122 305.942ZM369.692 298.226V298.225V298.226ZM373.804 289.44H373.805H373.804ZM366.391 288.362C366.36 288.469 366.337 288.583 366.323 288.709C366.337 288.583 366.36 288.469 366.391 288.362ZM371.639 285.934H371.64H371.639ZM317.346 232.576C318.973 232.529 319.463 232.453 320.675 233.462C319.225 233.5 318.533 233.387 317.346 232.576ZM331.29 226.572C332.463 226.406 332.713 226.356 333.615 227.085C332.443 227.205 332.26 227.161 331.29 226.572ZM316.335 221.119C317.22 221.831 318.545 223.038 319.468 223.82C318.893 223.994 318.53 223.683 317.81 223.4C317.337 223.275 316.937 222.803 316.487 222.483L315.26 223.311L315.34 223.227L315.005 223.306C315.222 222.588 315.883 221.764 316.335 221.119ZM320.485 207.498C322.081 207.358 324.806 206.969 325.495 207.119C324.817 207.995 322.128 207.726 320.438 208.393L320.277 208.46C319.35 209.956 317.722 212.028 315.72 211.559C315.04 211.73 315.062 211.773 314.393 211.614C314.665 210.895 314.988 210.838 315.695 210.273L315.825 210.049C316.564 208.898 318.558 207.416 319.88 207.541L320.485 207.498ZM142.621 203.584C142.393 204.24 141.366 204.714 140.652 205.183L140.417 205.166L140.193 204.872C140.561 204.318 141.722 203.827 142.364 203.49L142.621 203.584ZM317.595 194.597L317.625 195.076C317.15 195.637 316.64 196.077 316.553 196.771L317.15 197.107L316.335 197.749L315.604 197.695L315.357 197.368C315.6 196.33 316.637 195.267 317.35 194.387L317.595 194.597ZM126.638 193.415C126.477 194.162 126.229 194.154 125.529 194.793L125.331 194.578C125.456 193.784 125.63 193.881 126.405 193.177L126.638 193.415ZM190.842 190.454C190.63 191.228 190.406 191.16 189.579 191.78L189.389 191.573C189.672 190.76 189.838 190.864 190.69 190.232L190.842 190.454ZM152.64 184.013C153.154 183.892 152.951 183.907 153.449 184.207C152.461 184.443 152.013 185.304 151.206 186.093C147.005 184.063 147.331 185.273 144.429 184.502C146.433 184.265 150.341 184.551 152.64 184.013ZM132.967 179.856C136.578 177.687 137.642 180.885 140.465 182.747C140.495 182.778 140.526 182.807 140.556 182.838C140.129 183.175 140.106 183.187 139.613 183.417C138.387 183.212 135.249 180.833 132.967 179.856ZM196.102 180.912C197.589 180.08 198.961 179.807 200.471 180.791L198.643 181.879C197.601 181.403 197.192 181.2 196.102 180.912ZM112.268 173.505C112.187 174.327 111.558 174.466 110.896 174.861L110.815 174.505C111.145 173.769 111.257 173.941 112.268 173.505ZM111.564 160.327C111.303 160.95 110.304 161.534 109.697 161.967L109.389 161.764C109.81 160.998 110.467 160.683 111.209 160.186L111.564 160.327ZM206.242 154.573L206.314 154.847C204.574 156.386 203.463 158.648 203.115 160.926L202.576 160.672C202.334 159.795 204.73 154.941 205.464 154.354L206.242 154.573ZM185.896 144.976C191.532 146.28 189.402 151.072 187.577 154.747C186.634 156.647 185.557 157.585 183.812 158.706C181.512 155.82 181.339 153.677 179.903 150.362C181.889 148.178 183.275 146.361 185.896 144.976ZM238.349 155.959C238.933 156.019 239.054 156.089 239.615 156.287C240.099 157.132 239.959 156.667 239.863 157.777C238.742 157.229 238.46 157.222 238.349 155.959ZM305.308 149.093C305.028 149.656 304.283 149.926 303.638 150.294C303.413 150.227 303.563 150.287 303.243 150.007C303.761 149.401 304.273 149.33 305.085 148.997L305.308 149.093ZM240.532 139.207C241.301 139.664 241.148 142.137 242.354 144.336C241.026 146.257 240.698 146.39 239.692 148.625L239.36 148.618C238.443 147.372 237.4 142.359 238.097 140.81C238.521 139.866 239.362 139.623 240.228 139.236L240.532 139.207ZM231.443 137.325C231.724 139.48 230.541 142.653 229.84 144.694C229.364 142.165 229.362 141.872 229.526 139.358L231.443 137.325ZM275.438 130.362C275.125 130.946 274.325 131.229 273.688 131.559L273.635 131.236C273.975 130.563 274.65 130.358 275.362 129.998L275.438 130.362ZM140.094 124.404C139.736 125.113 139.142 125.329 138.397 125.821L138.115 125.475C138.473 124.85 139.214 124.599 139.895 124.252L140.094 124.404ZM312.835 102.629L312.71 103.104C311.725 103.999 311 104.28 309.82 104.871L309.585 104.547C309.925 103.928 311.973 102.957 312.723 102.545L312.835 102.629ZM301.438 102.444C301.205 103.022 300.464 103.359 299.854 103.771L299.612 103.378C299.957 102.641 300.233 102.732 301.195 102.269L301.438 102.444ZM257.37 91.7891L257.138 92.1895C255.853 92.5379 255.025 92.4935 253.715 92.5098L253.399 92.4697L253.28 92.1484C253.888 91.6809 256.107 91.7038 257.02 91.6523L257.37 91.7891ZM240.135 88.6162L240.254 88.8223L239.577 89.2031C239.023 89.4651 238.248 89.9709 237.65 90.2969C237.329 89.7429 237.551 89.4222 237.688 88.5986L240.135 88.6162Z" fill="#E88033"/>
</g>
<g clip-path="url(#clip3_64_3887)">
<path fill-rule="evenodd" clip-rule="evenodd" d="M243.322 312.22C243.689 312.947 243.314 314.145 243.253 314.952C242.805 320.84 238.181 326.695 234.073 330.67C230.454 334.175 221.363 339.15 216.227 339.57C208.235 340.223 202.16 339.015 195.867 333.955L194.575 332.87C195.122 330.758 195.554 325.72 197.347 324.567C199.561 325.222 202.174 326.815 204.28 327.49C206.918 328.335 212.301 329.727 214.883 329.897C216.441 330.002 223.861 327.498 225.226 326.545C228.813 323.997 232.497 321.492 235.693 318.46C237.924 316.342 239.942 313.145 242.762 311.905L243.322 312.22ZM180.125 239.665C180.895 239.994 181.63 240.449 182.363 240.864C185.539 249.156 188.041 258.682 190.484 267.26C192.348 273.807 183.367 277.985 180.255 282.207L180.055 282.482C180.003 288.802 181.879 289.447 186.729 292.755C189.409 292.752 196.282 293.243 198.357 294.938C199.619 297.607 195.621 300.178 193.558 301.235C189.39 303.415 184.027 304.977 179.569 302.805C174.245 300.207 173.171 295.695 171.343 290.532C173.916 280.34 174.256 277.815 182.174 270.633C180.867 265.608 180.126 261.485 177.869 256.678C177.127 255.098 177.171 251.163 176.855 249.284C176.226 245.546 177.005 242.127 180.125 239.665ZM134.431 251.885C134.372 238.58 156.705 242.407 164.809 244.347C167.838 245.072 170.727 248.159 171.969 250.912C171.708 251.73 171.428 252.543 171.13 253.348C170.751 254.368 170.539 254.925 169.527 255.39C168.61 255.352 167.332 254.212 166.377 253.603L165.85 253.747C168.639 257 168.711 256.998 168.563 261.338C168.239 270.768 164.82 278.697 157.463 284.76C153.778 287.795 149.618 288.285 145.195 286.575C144.872 286.533 144.552 286.467 144.237 286.38C139.892 285.15 137.665 280.827 135.617 277.397C136.163 274.222 135.554 272.445 135.504 269.345C135.551 266.06 135.672 262.737 135.843 259.455C135.957 257.268 138.778 253.887 137.58 251.942C136.639 251.635 136.134 252.293 134.746 252.285L134.431 251.885ZM241.652 241.226C249.516 240.884 254.226 241.564 261.771 244.081C264.988 245.155 265.325 245.795 266.768 248.716C265.993 250.65 265.558 251.333 264.231 252.835C262.726 252.4 260.01 251.547 258.495 251.817L258.378 251.485C254.971 251.29 252.381 250.692 249.081 250.05C248.966 250.028 247.637 250.11 247.37 250.119C247.244 250.166 246.904 250.282 246.804 250.277C244.791 250.185 242.66 249.165 240.581 249.135L239.433 248.16L239.276 248.354C238.505 249.264 237.876 249.284 236.667 249.604C236.737 250.723 237.731 252.958 238.217 254.063C240.015 258.155 239.993 262.815 238.924 267.125C239.228 271.425 236.669 279.203 233.7 282.508C231.436 285.027 229.598 284.707 226.647 285.582C226.284 285.52 222.407 283.933 221.77 283.683C217.899 275.693 216.6 265.01 219.081 256.228C219.402 255.093 221.574 251.461 221.251 250.553C218.576 250.755 213.175 253.895 211.18 251.935C210.601 249.533 213.902 246.33 215.899 245.418C224.093 241.514 232.902 241.605 241.652 241.226ZM233.973 274.61L233.972 274.608L233.973 274.61ZM356.825 238.121C357.74 240.958 357.923 238.772 359.648 239.664L359.658 240.338C357.748 244.225 343.105 253.51 342.92 256.647C343.675 256.717 344.823 256.115 345.575 255.8C350.4 257.027 356.97 256.167 361.17 258.18C367.25 261.092 362.05 264.985 357.858 265.715C355.3 266.16 351.743 266.307 349.708 266.942C346.488 266.325 344.82 266.123 341.705 267.218C337.038 265.17 327.403 267.955 324.745 263.003C323.97 261.558 329.033 255.481 330.405 254.66C334.375 253.028 338.486 249.052 341.913 247.277C346.958 244.666 351.253 238.885 356.218 237.821L356.825 238.121ZM236.575 260.442C236.574 260.447 236.576 260.446 236.575 260.439V260.442ZM236.348 253.039H236.349H236.348ZM247.092 249.304L247.36 250.12V250.119L247.093 249.304H247.092ZM246.346 249.003C246.389 249.028 246.434 249.051 246.483 249.073L246.347 249.003C246.304 248.977 246.262 248.95 246.219 248.917L246.346 249.003ZM245.396 247.469H245.395H245.396ZM236.868 246.968H236.867H236.868ZM243.698 246.332C243.813 246.333 243.924 246.342 244.033 246.361C244.088 246.371 244.142 246.382 244.194 246.396C244.301 246.425 244.404 246.464 244.504 246.514C244.255 246.389 243.984 246.333 243.698 246.332ZM235.17 200.857C237.163 200.537 240.979 200.682 243.098 200.927C247.557 201.442 252.29 207.887 251.633 212.323C251.4 213.88 249.76 214.948 248.139 214.344C245.128 213.222 242.197 211.681 239.15 210.611C237.007 209.87 234.695 209.854 232.515 209.16C230.171 209.962 227.221 211.011 224.803 211.386C223.674 211.561 223.745 211.518 222.59 211.949C220.742 212.972 218.609 214.048 216.921 215.344C215.47 216.505 212.799 223.104 210.234 221.067C205.433 217.282 216.367 207.31 219.215 205.388C221.406 203.909 226.818 201.725 229.471 201.037C230.114 200.87 233.677 201.023 234.884 200.892L235.17 200.857ZM154.275 203.031C162.383 202.375 176.057 204.083 175.985 215.106C175.973 217.033 175.086 218.801 174.354 220.558C170.201 217.562 161.179 213.339 156.182 212.269C154.831 211.929 154.109 211.528 152.987 212.168L152.804 212.981L152.524 213.101C146.369 211.177 142.278 218.556 136.915 220.3C136.558 220.416 136.397 220.121 136.154 219.901C135.901 218.48 137.116 215.864 137.85 214.636C141.413 208.672 147.794 204.871 154.275 203.031Z" fill="#4B4746"/>
<path fill-rule="evenodd" clip-rule="evenodd" d="M242 248C244 248.001 244.5 247 245.74 248.452C247.5 247.5 249.067 249.422 250.5 248L253.067 248.177C256.5 249 257 249.603 258.378 251.485L258.495 251.818C260.498 267.155 254.217 284.47 237.404 287.615C234.522 288.155 229.205 287.023 226.646 285.583C229.597 284.708 231.435 285.027 233.7 282.507C236.669 279.202 239.227 271.425 238.923 267.125C239.992 262.816 240.015 258.155 238.217 254.063C237.731 252.958 236.737 250.723 236.667 249.604C237.957 249.263 238.586 249.263 239.433 248.16C239.959 248.165 239.992 248.144 240.516 248.064L242 248ZM151.375 250.025C155.265 250.63 160.381 252.783 164.394 253.443C165.196 253.573 164.953 253.438 165.85 253.748C168.639 257 168.711 256.998 168.562 261.337C168.239 270.767 164.821 278.698 157.463 284.76C153.778 287.795 149.618 288.285 145.195 286.575C145.371 286.485 145.546 286.39 145.72 286.295C155.026 281.143 154.745 262.453 153.017 253.46C152.841 252.545 151.871 250.89 151.375 250.025Z" fill="#FEFEFE"/>
</g>
</g>
<defs>
<clipPath id="clip0_64_3887">
<rect width="480" height="480" fill="white"/>
</clipPath>
<clipPath id="clip1_64_3887">
<rect width="480" height="480" fill="white"/>
</clipPath>
<clipPath id="clip2_64_3887">
<rect width="480" height="480" fill="white"/>
</clipPath>
<clipPath id="clip3_64_3887">
<rect width="480" height="480" fill="white"/>
</clipPath>
</defs>
</svg>
