<svg preserveAspectRatio="none" width="100%" height="100%" overflow="visible" style="display: block;" viewBox="0 0 10.0423 10.0423" fill="none" xmlns="http://www.w3.org/2000/svg">
<g id="slack 1">
<path id="Vector" d="M2.15088 6.32594C2.15088 6.90318 1.68435 7.36971 1.10711 7.36971C0.529877 7.36971 0.0633451 6.90318 0.0633451 6.32594C0.0633451 5.74871 0.529877 5.28218 1.10711 5.28218H2.15088V6.32594ZM2.67276 6.32594C2.67276 5.74871 3.13929 5.28218 3.71653 5.28218C4.29376 5.28218 4.76029 5.74871 4.76029 6.32594V8.93536C4.76029 9.51259 4.29376 9.97913 3.71653 9.97913C3.13929 9.97913 2.67276 9.51259 2.67276 8.93536V6.32594Z" fill="#E01E5A"/>
<path id="Vector_2" d="M3.71647 2.13511C3.13923 2.13511 2.6727 1.66858 2.6727 1.09134C2.6727 0.514109 3.13923 0.0475768 3.71647 0.0475768C4.2937 0.0475768 4.76023 0.514109 4.76023 1.09134V2.13511H3.71647ZM3.71647 2.6649C4.2937 2.6649 4.76023 3.13143 4.76023 3.70867C4.76023 4.2859 4.2937 4.75243 3.71647 4.75243H1.09914C0.521909 4.75243 0.055377 4.2859 0.055377 3.70867C0.055377 3.13143 0.521909 2.6649 1.09914 2.6649H3.71647Z" fill="#36C5F0"/>
<path id="Vector_3" d="M7.89955 3.70867C7.89955 3.13143 8.36608 2.6649 8.94331 2.6649C9.52055 2.6649 9.98708 3.13143 9.98708 3.70867C9.98708 4.2859 9.52055 4.75243 8.94331 4.75243H7.89955V3.70867ZM7.37766 3.70867C7.37766 4.2859 6.91113 4.75243 6.3339 4.75243C5.75666 4.75243 5.29013 4.2859 5.29013 3.70867V1.09134C5.29013 0.514109 5.75666 0.0475768 6.3339 0.0475768C6.91113 0.0475768 7.37766 0.514109 7.37766 1.09134V3.70867Z" fill="#2EB67D"/>
<path id="Vector_4" d="M6.3339 7.89159C6.91113 7.89159 7.37766 8.35813 7.37766 8.93536C7.37766 9.51259 6.91113 9.97913 6.3339 9.97913C5.75666 9.97913 5.29013 9.51259 5.29013 8.93536V7.89159H6.3339ZM6.3339 7.36971C5.75666 7.36971 5.29013 6.90318 5.29013 6.32594C5.29013 5.74871 5.75666 5.28218 6.3339 5.28218H8.95122C9.52845 5.28218 9.99499 5.74871 9.99499 6.32594C9.99499 6.90318 9.52845 7.36971 8.95122 7.36971H6.3339Z" fill="#ECB22E"/>
</g>
</svg>
