<svg preserveAspectRatio="xMidYMid meet" width="100%" height="100%" overflow="visible" style="display: block;" viewBox="0 0 33.6 33.6" fill="none" xmlns="http://www.w3.org/2000/svg">
<g id="download (1) 1">
<path id="Vector" d="M6.2999 2.0999V8.3999H23.0999V12.5999L16.2476 12.7196C7.0349 13.5743 4.1999 15.7709 4.1999 22.3019V24.0113C4.1999 29.0156 7.961 31.4999 12.5999 31.4999C14.6957 31.4999 16.8839 31.0904 19.1729 29.9312L23.0999 28.3499V31.4999H29.3999V2.0999H6.2999ZM23.0999 22.0499L18.3455 24.0113C16.6928 24.9269 14.9771 25.4141 13.6415 25.4141C11.9909 25.4141 10.4999 25.1159 10.4999 23.0999V21.7559C10.6259 19.6202 12.4361 18.8222 17.3921 18.335L23.0999 17.8499V22.0499Z" fill="var(--fill-0, #FF8800)"/>
</g>
</svg>
