<svg preserveAspectRatio="xMidYMid meet" width="100%" height="100%" overflow="visible" style="display: block;" viewBox="0 0 33.6 33.6" fill="none" xmlns="http://www.w3.org/2000/svg">
<g id="download (2) 1" clip-path="url(#clip0_0_52)">
<path id="Vector" d="M15.0035 3.1006L2.47648 8.28445C1.77981 8.5732 1.78716 9.5623 2.48803 9.84003L15.067 14.8286C16.1723 15.2669 17.4032 15.2669 18.5084 14.8286L31.0874 9.84003C31.7883 9.56178 31.7962 8.57268 31.099 8.28445L18.5725 3.10113C17.4296 2.62817 16.1458 2.62817 15.003 3.10113" fill="var(--fill-0, #FFCC00)"/>
<path id="Vector_2" d="M17.904 17.5522V30.0141C17.9042 30.151 17.9378 30.2858 18.0019 30.4067C18.0661 30.5276 18.1588 30.631 18.2721 30.708C18.3853 30.7849 18.5156 30.8329 18.6517 30.848C18.7877 30.863 18.9254 30.8446 19.0527 30.7943L33.0702 25.3532C33.2264 25.2911 33.3604 25.1835 33.4549 25.0445C33.5493 24.9054 33.5998 24.7412 33.5999 24.573V12.1116C33.5998 11.9748 33.5661 11.84 33.502 11.7191C33.4378 11.5981 33.3451 11.4947 33.2319 11.4178C33.1186 11.3409 32.9883 11.2928 32.8523 11.2778C32.7162 11.2627 32.5785 11.2812 32.4512 11.3315L18.4337 16.7726C18.2775 16.8347 18.1435 16.9422 18.0491 17.0813C17.9546 17.2204 17.9041 17.3841 17.904 17.5522Z" fill="var(--fill-0, #31C2F2)"/>
<path id="Vector_3" d="M14.6317 18.1953L10.0495 20.4082L1.26786 24.6161C0.711363 24.8849 0.000512695 24.4796 0.000512695 23.8601V12.1641C0.000512695 11.9405 0.114963 11.7473 0.269313 11.6024C0.332404 11.5395 0.403972 11.4858 0.481938 11.4428C0.691938 11.3168 0.991188 11.2832 1.24581 11.384L14.5624 16.6602C15.2449 16.929 15.2974 17.8772 14.6323 18.1958" fill="var(--fill-0, #ED3049)"/>
<path id="Vector_4" d="M14.6318 18.1953L10.4717 20.204L0.268823 11.6013C0.331915 11.5385 0.403482 11.4848 0.481448 11.4417C0.691448 11.3157 0.990698 11.2821 1.24532 11.3829L14.5619 16.6592C15.2444 16.928 15.2969 17.8767 14.6318 18.1953Z" fill="var(--fill-0, #C62842)"/>
</g>
<defs>
<clipPath id="clip0_0_52">
<rect width="33.6" height="33.6" fill="white"/>
</clipPath>
</defs>
</svg>
