<svg preserveAspectRatio="xMidYMid meet" width="100%" height="100%" overflow="visible" style="display: block;" viewBox="0 0 33.6 33.6" fill="none" xmlns="http://www.w3.org/2000/svg">
<g id="download 1">
<path id="Vector" d="M32.7592 22.2582L25.968 10.8464C25.6566 10.3219 24.8894 9.89282 24.2627 9.89282H20.0229C19.0374 9.89282 18.6335 9.21867 19.125 8.39473L21.45 4.49796C21.6346 4.18869 21.6343 3.80797 21.4491 3.49904C21.2639 3.19011 20.9221 2.99985 20.5522 2.99985H14.6375C14.011 2.99985 13.2419 3.42801 12.9285 3.95133L1.43534 23.1369C1.12176 23.6603 1.12164 24.5167 1.43486 25.0401L4.39214 29.9817C4.88491 30.8051 5.69297 30.806 6.1878 29.9839L8.49851 26.1447C8.99346 25.3226 9.80139 25.3236 10.2942 26.1469L12.3891 29.6475C12.7023 30.171 13.4712 30.5993 14.0978 30.5993H27.7652C28.3917 30.5993 29.1605 30.171 29.4739 29.6475L32.7558 24.1634C33.069 23.64 33.0706 22.7827 32.7592 22.2582ZM23.5877 21.7089C24.0775 22.5339 23.6718 23.2089 22.6863 23.2089H12.0553C11.0698 23.2089 10.6666 22.5354 11.1594 21.7121L16.479 12.8231C16.9718 11.9997 17.7779 11.9997 18.2708 12.8231L23.5877 21.7089Z" fill="var(--fill-0, #1A1A2E)"/>
</g>
</svg>
