<svg preserveAspectRatio="xMidYMid meet" width="100%" height="100%" overflow="visible" style="display: block;" viewBox="0 0 35 33.6635" fill="none" xmlns="http://www.w3.org/2000/svg">
<g id="download (16) 1" clip-path="url(#clip0_0_16)">
<path id="Vector" d="M11.1545 33.6634C9.02106 33.6634 7.11617 33.1422 5.44033 32.0984C3.76402 31.055 2.43831 29.6283 1.46273 27.8179C0.487608 26.0065 4.88281e-05 23.951 4.88281e-05 21.6493C4.88281e-05 19.348 0.487608 17.3071 1.46319 15.5274C2.43831 13.717 3.76402 12.3052 5.44033 11.2923C7.11617 10.2494 9.02106 9.72769 11.1545 9.72769C12.8608 9.72769 14.3543 10.0498 15.6347 10.6939C16.6603 11.2105 17.5297 11.8948 18.2426 12.7461C18.4039 12.9396 18.7428 12.8302 18.7428 12.5787V1.39477C18.7428 1.2737 18.8279 1.16946 18.9466 1.14468L24.2864 0.033069C24.4453 -0.000120586 24.5949 0.120951 24.5949 0.283159V32.8556C24.5949 32.8893 24.5883 32.9226 24.5754 32.9536C24.5625 32.9847 24.5436 33.0129 24.5198 33.0366C24.496 33.0604 24.4678 33.0792 24.4367 33.092C24.4056 33.1048 24.3723 33.1114 24.3387 33.1114H19.5936C19.5342 33.1114 19.4768 33.0908 19.431 33.0531C19.3852 33.0154 19.3539 32.9629 19.3425 32.9047L18.8564 30.4216C18.8134 30.2019 18.525 30.1364 18.3824 30.3089C17.7008 31.1307 16.8458 31.8656 15.8174 32.513C14.6287 33.2796 13.0744 33.6634 11.1545 33.6634ZM12.3886 28.5083C14.2781 28.5083 15.8174 27.8791 17.0057 26.6207C18.2248 25.3319 18.8344 23.6902 18.8344 21.6956C18.8344 19.7009 18.2248 18.0746 17.0057 16.8162C15.8174 15.5274 14.2781 14.8828 12.3886 14.8828C10.5295 14.8828 8.99021 15.512 7.77154 16.7699C6.55241 18.0283 5.94285 19.6546 5.94285 21.6493C5.94285 23.6439 6.55241 25.2861 7.77154 26.5749C8.99067 27.8637 10.5295 28.5083 12.3886 28.5083Z" fill="#FFFFFF"/>
<path id="Vector_2" d="M31.0604 33.0184C33.2364 33.0184 35.0001 31.2426 35.0001 29.0516C35.0001 26.8611 33.2359 25.0852 31.0604 25.0852C28.8848 25.0852 27.1211 26.8611 27.1211 29.0516C27.1211 31.2426 28.8848 33.0184 31.0604 33.0184Z" fill="#2C71F0"/>
</g>
<defs>
<clipPath id="clip0_0_16">
<rect width="35" height="33.6635" fill="white"/>
</clipPath>
</defs>
</svg>
