<svg preserveAspectRatio="xMidYMid meet" width="100%" height="100%" overflow="visible" style="display: block;" viewBox="0 0 33.6 33.6" fill="none" xmlns="http://www.w3.org/2000/svg">
<g id="download (11) 1" clip-path="url(#clip0_0_32)">
<path id="Vector" d="M24.1608 24.1609V32.7341C24.1608 33.1844 23.7971 33.5481 23.3468 33.5481H0.814021C0.363711 33.5481 0 33.1844 0 32.7341V10.2186C0 9.7683 0.363711 9.40459 0.814021 9.40459H9.3699V23.3469C9.3699 23.7972 9.73361 24.1609 10.1839 24.1609H24.1608Z" fill="var(--fill-0, #4C00FF)"/>
<path id="Vector_2" d="M33.5481 12.0718C33.5481 19.2767 29.3394 24.1435 24.1609 24.1609V15.0854C24.1609 14.8256 24.057 14.5658 23.8665 14.3926L19.1555 9.68169C18.965 9.49117 18.7225 9.38725 18.4627 9.38725H9.38728V0.831376C9.38728 0.381067 9.75099 0.0173558 10.2013 0.0173558H22.8966C28.9238 3.62243e-05 33.5481 4.84952 33.5481 12.0718Z" fill="var(--fill-0, #FF5252)"/>
<path id="Vector_3" d="M23.8665 14.3754C24.057 14.5659 24.1609 14.8084 24.1609 15.0682V24.1436H10.2013C9.75099 24.1436 9.38728 23.7799 9.38728 23.3296V9.38733H18.4627C18.7225 9.38733 18.9823 9.49125 19.1555 9.68176L23.8665 14.3754Z" fill="var(--fill-0, black)"/>
</g>
<defs>
<clipPath id="clip0_0_32">
<rect width="33.6" height="33.6" fill="white"/>
</clipPath>
</defs>
</svg>
