<svg preserveAspectRatio="xMidYMid meet" width="100%" height="100%" overflow="visible" style="display: block;" viewBox="0 0 22.4 33.6" fill="none" xmlns="http://www.w3.org/2000/svg">
<g id="download (20) 1" clip-path="url(#clip0_0_6)">
<path id="Vector" d="M5.6001 33.6C8.6913 33.6 11.2001 31.0912 11.2001 28V22.4H5.6001C2.5089 22.4 9.76563e-05 24.9088 9.76563e-05 28C9.76563e-05 31.0912 2.5089 33.6 5.6001 33.6Z" fill="var(--fill-0, #0ACF83)"/>
<path id="Vector_2" d="M9.76563e-05 16.8C9.76563e-05 13.7088 2.5089 11.2 5.6001 11.2H11.2001V22.4H5.6001C2.5089 22.4 9.76563e-05 19.8912 9.76563e-05 16.8Z" fill="var(--fill-0, #A259FF)"/>
<path id="Vector_3" d="M0 5.6C0 2.5088 2.5088 0 5.6 0H11.2V11.2H5.6C2.5088 11.2 0 8.6912 0 5.6Z" fill="var(--fill-0, #F24E1E)"/>
<path id="Vector_4" d="M11.2001 -4.88281e-05H16.8001C19.8913 -4.88281e-05 22.4001 2.50875 22.4001 5.59995C22.4001 8.69115 19.8913 11.2 16.8001 11.2H11.2001V-4.88281e-05Z" fill="var(--fill-0, #FF7262)"/>
<path id="Vector_5" d="M22.4001 16.8C22.4001 19.8912 19.8913 22.4 16.8001 22.4C13.7089 22.4 11.2001 19.8912 11.2001 16.8C11.2001 13.7088 13.7089 11.2 16.8001 11.2C19.8913 11.2 22.4001 13.7088 22.4001 16.8Z" fill="var(--fill-0, #1ABCFE)"/>
</g>
<defs>
<clipPath id="clip0_0_6">
<rect width="22.4" height="33.6" fill="white"/>
</clipPath>
</defs>
</svg>
