<svg preserveAspectRatio="xMidYMid meet" width="100%" height="100%" overflow="visible" style="display: block;" viewBox="0 0 33.4328 25.2065" fill="none" xmlns="http://www.w3.org/2000/svg">
<g id="Group">
<path id="Vector" d="M2.27951 25.2065H7.59836V12.2247L0 6.49744V22.9156C0 24.1833 1.02198 25.2065 2.27951 25.2065Z" fill="var(--fill-0, #4285F4)"/>
<path id="Vector_2" d="M25.8344 25.2065H31.1532C32.4147 25.2065 33.4327 24.1794 33.4327 22.9156V6.49744L25.8344 12.2247" fill="var(--fill-0, #34A853)"/>
<path id="Vector_3" d="M25.8344 2.29746V12.2247L33.4327 6.49746V3.44292C33.4327 0.609821 30.2149 -1.00527 27.962 0.69382" fill="var(--fill-0, #FBBC04)"/>
<path id="Vector_4" d="M7.59832 12.2247V2.29744L16.7164 9.17015L25.8343 2.29744V12.2247L16.7164 19.0974" fill="var(--fill-0, #EA4335)"/>
<path id="Vector_5" d="M4.88281e-05 3.44287V6.49741L7.59841 12.2247V2.29741L5.47088 0.693771C3.21416 -1.00532 4.88281e-05 0.609772 4.88281e-05 3.44287Z" fill="var(--fill-0, #C5221F)"/>
</g>
</svg>
