<svg preserveAspectRatio="xMidYMid meet" width="100%" height="100%" overflow="visible" style="display: block;" viewBox="0 0 33.6 33.6" fill="none" xmlns="http://www.w3.org/2000/svg">
<g id="download (6) 1" clip-path="url(#clip0_0_38)">
<path id="Vector" d="M15.8452 17.5629H11.074V14.8903H15.848V17.5643L15.8452 17.5629ZM20.6192 -9.76563e-05V8.3999H29.0192L20.6192 -9.76563e-05ZM22.5274 14.8903H17.7534V17.5643H22.5274V14.8903ZM22.5274 19.4725H17.7534V22.1465H22.5274V19.4725ZM29.0178 9.0999V31.3095C29.0178 32.5751 27.993 33.5999 26.7274 33.5999H6.87258C6.5718 33.5999 6.27396 33.5407 5.99608 33.4256C5.7182 33.3105 5.4657 33.1417 5.25302 32.9291C4.82349 32.4995 4.58218 31.917 4.58218 31.3095V2.2903C4.58218 1.0247 5.60698 -9.76563e-05 6.87258 -9.76563e-05H19.9178V9.0999H29.0178ZM24.4356 12.9821H9.16298V24.0547H24.437V12.9807L24.4356 12.9821ZM15.8452 19.4725H11.074V22.1465H15.848V19.4725H15.8452Z" fill="var(--fill-0, #0F9D58)"/>
</g>
<defs>
<clipPath id="clip0_0_38">
<rect width="33.6" height="33.6" fill="white"/>
</clipPath>
</defs>
</svg>
