<svg preserveAspectRatio="xMidYMid meet" width="100%" height="100%" overflow="visible" style="display: block;" viewBox="0 0 33.6 33.6" fill="none" xmlns="http://www.w3.org/2000/svg">
<g id="download (8) 1" clip-path="url(#clip0_0_23)">
<path id="Vector" d="M25.6419 7.95793H7.95779V25.642H25.6419V7.95793Z" fill="var(--fill-0, white)"/>
<path id="Vector_2" d="M25.6419 33.6001L33.5999 25.6422L29.6209 24.9634L25.6419 25.6422L24.9157 29.2817L25.6419 33.6001Z" fill="var(--fill-0, #EA4335)"/>
<path id="Vector_3" d="M-9.76563e-05 25.6422V30.9474C-9.76563e-05 32.4131 1.18693 33.6001 2.6526 33.6001H7.95772L8.77488 29.6212L7.95772 25.6422L3.62227 24.9634L-9.76563e-05 25.6422Z" fill="var(--fill-0, #188038)"/>
<path id="Vector_4" d="M33.5999 7.958V2.65261C33.5999 1.18707 32.4129 4.88281e-05 30.9473 4.88281e-05H25.6421C25.1579 1.97352 24.9159 3.42581 24.9159 4.35702C24.9159 5.28811 25.1579 6.48852 25.6421 7.958C27.4021 8.462 28.7284 8.714 29.621 8.714C30.5135 8.714 31.84 8.462 33.6 7.958H33.5999Z" fill="var(--fill-0, #1967D2)"/>
<path id="Vector_5" d="M33.6 7.95793H25.642V25.642H33.6V7.95793Z" fill="var(--fill-0, #FBBC04)"/>
<path id="Vector_6" d="M25.6419 25.6422H7.95779V33.6001H25.6419V25.6422Z" fill="var(--fill-0, #34A853)"/>
<path id="Vector_7" d="M25.642 0H2.65269C1.18703 0 0 1.18703 0 2.65269V25.6422H7.95795V7.95795H25.6422V0H25.642Z" fill="var(--fill-0, #4285F4)"/>
<path id="Vector_8" d="M11.5853 21.6766C10.9243 21.2301 10.4668 20.5779 10.2169 19.7157L11.7511 19.0836C11.8902 19.6141 12.1334 20.0253 12.4804 20.3171C12.8254 20.6089 13.2452 20.7526 13.736 20.7526C14.2379 20.7526 14.6689 20.6001 15.0292 20.2951C15.3895 19.99 15.5707 19.6009 15.5707 19.1301C15.5707 18.6483 15.3807 18.2546 15.0004 17.9496C14.6202 17.6446 14.1427 17.4921 13.5724 17.4921H12.686V15.9734H13.4819C13.9725 15.9734 14.3859 15.8408 14.7219 15.5754C15.0579 15.3103 15.2259 14.9477 15.2259 14.4857C15.2259 14.0746 15.0756 13.7474 14.7749 13.5019C14.4744 13.2565 14.0942 13.1327 13.6322 13.1327C13.1812 13.1327 12.8231 13.2522 12.5577 13.493C12.2943 13.736 12.0953 14.0406 11.9787 14.3795L10.4601 13.7473C10.6612 13.177 11.0304 12.673 11.5719 12.2375C12.1135 11.802 12.8054 11.5832 13.6454 11.5832C14.2665 11.5832 14.8259 11.7026 15.3209 11.9435C15.8162 12.1845 16.2052 12.5182 16.4859 12.9427C16.7667 13.3693 16.9059 13.8467 16.9059 14.3773C16.9059 14.9188 16.7755 15.3765 16.5147 15.7522C16.2537 16.128 15.9332 16.4153 15.553 16.6165V16.7071C16.0439 16.9096 16.4704 17.2419 16.7865 17.6687C17.107 18.0998 17.2683 18.6148 17.2683 19.2162C17.2683 19.8173 17.1158 20.3545 16.8108 20.8253C16.5057 21.2961 16.0836 21.6675 15.5485 21.9371C15.0115 22.2068 14.408 22.3439 13.7382 22.3439C12.9622 22.346 12.246 22.1227 11.5852 21.6761L11.5853 21.6766ZM21.0087 14.0636L19.3243 15.2816L18.4821 14.0038L21.504 11.8243H22.6623V22.1054H21.0088L21.0087 14.0636Z" fill="var(--fill-0, #4285F4)"/>
</g>
<defs>
<clipPath id="clip0_0_23">
<rect width="33.6" height="33.6" fill="white"/>
</clipPath>
</defs>
</svg>
