<svg preserveAspectRatio="xMidYMid meet" width="100%" height="100%" overflow="visible" style="display: block;" viewBox="0 0 32.2 33.4385" fill="none" xmlns="http://www.w3.org/2000/svg">
<g id="download (9) 1">
<path id="Vector" d="M23.9073 10.7152V6.84378C24.903 6.36574 25.6015 5.34277 25.6015 4.15632V4.06715C25.6015 2.4299 24.2813 1.08741 22.6663 1.08741H22.5796C20.9647 1.08741 19.6445 2.42743 19.6445 4.06715V4.15632C19.6445 5.34772 20.343 6.36821 21.3387 6.84378V10.7177C19.855 10.9505 18.5001 11.5698 17.3831 12.4837L6.89824 4.21081C6.96759 3.94083 7.01713 3.66341 7.01713 3.37114C7.01961 1.51592 5.53841 0.00995068 3.71044 0.00747376C1.88247 0.00499684 0.396313 1.50849 0.396313 3.3637C0.396313 5.21892 1.87504 6.72489 3.70301 6.72737C4.29747 6.72737 4.84982 6.55646 5.33282 6.27657L15.6443 14.4157C14.7674 15.7582 14.2547 17.3657 14.2547 19.0996C14.2547 20.9127 14.8194 22.5896 15.7731 23.9692L12.6373 27.1496C12.3896 27.0728 12.132 27.0208 11.8595 27.0208C10.356 27.0208 9.13738 28.2568 9.13738 29.7801C9.13738 31.3034 10.356 32.5419 11.8595 32.5419C13.363 32.5419 14.5792 31.3059 14.5792 29.7801C14.5792 29.5051 14.5272 29.2426 14.4529 28.9924L17.554 25.8443C18.9609 26.9341 20.7145 27.5905 22.6217 27.5905C27.2437 27.5905 30.9913 23.7884 30.9913 19.0971C30.9913 14.8517 27.9174 11.3419 23.9073 10.7152ZM22.6217 23.454C20.2513 23.454 18.3292 21.5047 18.3292 19.0996C18.3292 16.6945 20.2513 14.7452 22.6217 14.7452C24.9922 14.7452 26.9143 16.6945 26.9143 19.0996C26.9143 21.5047 24.9922 23.454 22.6217 23.454Z" fill="var(--fill-0, #FF7A59)"/>
</g>
</svg>
