<svg preserveAspectRatio="xMidYMid meet" width="100%" height="100%" overflow="visible" style="display: block;" viewBox="0 0 33.6 33.6" fill="none" xmlns="http://www.w3.org/2000/svg">
<g id="download (15) 1" clip-path="url(#clip0_0_19)">
<path id="Vector" d="M29.4 0H4.2C1.8802 0 0 1.8802 0 4.2V29.4C0 31.7212 1.8802 33.6 4.2 33.6H29.4C31.7212 33.6 33.6 31.7212 33.6 29.4V4.2C33.6 1.8802 31.7212 0 29.4 0ZM21.2786 6.1586C21.2786 5.5426 21.7826 5.0386 22.4014 5.0386C23.0174 5.0386 23.5214 5.5426 23.5214 6.1586V21.1218C23.5214 21.7406 23.0174 22.2432 22.4014 22.2432C21.7812 22.2432 21.2786 21.7406 21.2786 21.1218V6.1586ZM15.68 5.5916C15.68 4.9756 16.1798 4.473 16.8 4.473C17.4202 4.473 17.92 4.9756 17.92 5.5916V21.8344C17.92 22.4504 17.4202 22.9544 16.8 22.9544C16.1798 22.9544 15.68 22.4504 15.68 21.8344V5.5916ZM10.08 6.1586C10.08 5.5426 10.5826 5.0386 11.1986 5.0386C11.8188 5.0386 12.3214 5.5426 12.3214 6.1586V21.1218C12.3214 21.7406 11.8174 22.2432 11.1986 22.2432C10.5826 22.2432 10.08 21.7406 10.08 21.1218V6.1586ZM4.4786 8.4C4.4786 7.7812 4.9826 7.28 5.6014 7.28C6.2174 7.28 6.72 7.7812 6.72 8.4V18.473C6.72 19.0904 6.2174 19.593 5.6014 19.593C4.9812 19.593 4.4786 19.089 4.4786 18.473V8.4ZM28.728 25.4828C28.5558 25.6298 24.4076 29.113 16.8 29.113C9.1938 29.113 5.0442 25.6326 4.8706 25.4828C4.4016 25.0796 4.3456 24.374 4.7502 23.9036C5.1492 23.436 5.8562 23.3786 6.3252 23.7776C6.391 23.835 10.0954 26.873 16.7986 26.873C23.5858 26.873 27.237 23.8126 27.2692 23.7832C27.7368 23.3786 28.4438 23.4332 28.8484 23.9036C29.253 24.374 29.1984 25.0796 28.728 25.4828ZM29.1214 18.473C29.1214 19.0904 28.6174 19.593 28 19.593C27.3826 19.593 26.8786 19.089 26.8786 18.473V8.4C26.8786 7.7812 27.384 7.28 28 7.28C28.6174 7.28 29.1214 7.7798 29.1214 8.4V18.473Z" fill="var(--fill-0, black)"/>
</g>
<defs>
<clipPath id="clip0_0_19">
<rect width="33.6" height="33.6" fill="white"/>
</clipPath>
</defs>
</svg>
