<svg preserveAspectRatio="xMidYMid meet" width="100%" height="100%" overflow="visible" style="display: block;" viewBox="0 0 33.6 33.6" fill="none" xmlns="http://www.w3.org/2000/svg">
<g id="download (13) 1" clip-path="url(#clip0_0_36)">
<path id="Vector" d="M4.0404 5.85201C5.61677 4.01463 7.57216 2.54023 9.77227 1.53007C11.9724 0.519918 14.3651 -0.00205492 16.786 6.07962e-06C26.0736 6.07962e-06 33.6 7.52641 33.6 16.8126C33.6 21.9086 31.332 26.4768 27.748 29.5596L4.0418 5.85201H4.0404ZM2.5438 7.87641L25.7222 31.0548C24.9886 31.5168 24.2172 31.9228 23.4122 32.2672L1.3314 10.1878C1.6772 9.38281 2.0832 8.61001 2.5438 7.87641ZM0.4508 12.8282L20.7718 33.1492C19.7778 33.39 18.7516 33.544 17.6988 33.6L0 15.9012C0.0550547 14.8652 0.205966 13.8364 0.4508 12.8282ZM0.2128 19.635L13.965 33.3886C10.5308 32.8019 7.36338 31.1637 4.89985 28.7002C2.43632 26.2366 0.798141 23.0692 0.2114 19.635H0.2128Z" fill="var(--fill-0, #5E6AD2)"/>
</g>
<defs>
<clipPath id="clip0_0_36">
<rect width="33.6" height="33.6" fill="white"/>
</clipPath>
</defs>
</svg>
