<svg preserveAspectRatio="xMidYMid meet" width="100%" height="100%" overflow="visible" style="display: block;" viewBox="0 0 33.6 33.6" fill="none" xmlns="http://www.w3.org/2000/svg">
<g id="download (4) 1" clip-path="url(#clip0_0_57)">
<path id="Vector" d="M6.2427 5.8911C7.2871 6.7395 7.6791 6.6751 9.6419 6.5435L28.1429 5.4333C28.5349 5.4333 28.2087 5.0413 28.0785 4.9769L25.6061 3.2899C24.9523 2.7677 24.2341 2.3757 22.7291 2.5059L4.8091 3.8121C4.1553 3.8779 4.0251 4.2041 4.2855 4.4645L6.2427 5.8911ZM7.3529 10.2031V29.6687C7.3529 30.7145 7.8751 31.1065 9.0525 31.0407L29.3847 29.8647C30.5621 29.8003 30.6923 29.0807 30.6923 28.2323V8.8955C30.6923 8.0471 30.3661 7.5893 29.6465 7.6551L8.3987 8.8955C7.6147 8.9613 7.3529 9.3533 7.3529 10.2031ZM27.4247 11.2475C27.5549 11.8355 27.4247 12.4235 26.8367 12.4907L25.8567 12.6867V27.0563C25.0055 27.5141 24.2215 27.7759 23.5677 27.7759C22.5219 27.7759 22.2601 27.4483 21.4747 26.4697L15.0669 16.4093V26.1435L17.0955 26.6013C17.0955 26.6013 17.0955 27.7773 15.4603 27.7773L10.9495 28.0391C10.8193 27.7787 10.9495 27.1249 11.4073 26.9947L12.5833 26.6685V13.7955L10.9509 13.6639C10.8193 13.0759 11.1469 12.2275 12.0611 12.1617L16.8995 11.8355L23.5691 22.0261V13.0101L21.8681 12.8141C21.7379 12.0945 22.2601 11.5737 22.9139 11.5079L27.4247 11.2475ZM2.7105 1.4489L21.3445 0.0768969C23.6321 -0.119103 24.2215 0.0110969 25.6593 1.0569L31.6079 5.2373C32.5879 5.9555 32.9141 6.1515 32.9141 6.9355V29.8647C32.9141 31.3011 32.3919 32.1523 30.5621 32.2811L8.9209 33.5887C7.5489 33.6545 6.8937 33.4571 6.1741 32.5429L1.7935 26.8589C1.0095 25.8131 0.683301 25.0305 0.683301 24.1149V3.7337C0.683301 2.5577 1.2069 1.5777 2.7105 1.4489Z" fill="var(--fill-0, black)"/>
</g>
<defs>
<clipPath id="clip0_0_57">
<rect width="33.6" height="33.6" fill="white"/>
</clipPath>
</defs>
</svg>
