<svg preserveAspectRatio="xMidYMid meet" width="100%" height="100%" overflow="visible" style="display: block;" viewBox="0 0 33.6 33.6" fill="none" xmlns="http://www.w3.org/2000/svg">
<g id="download (19) 1" clip-path="url(#clip0_0_12)">
<path id="Vector" d="M19.4741 3.50687C18.2519 1.47967 15.3133 1.47967 14.0925 3.50687L9.66574 11.0879C13.0477 12.7762 15.9291 15.3197 18.024 18.466C20.119 21.6123 21.3544 25.2519 21.6077 29.0233H18.4983C18.2454 25.7907 17.1528 22.6802 15.3286 19.9996C13.5045 17.3189 11.0119 15.161 8.09774 13.7395L4.00134 20.8235C5.6396 21.5583 7.06684 22.6932 8.1518 24.1238C9.23677 25.5545 9.94464 27.2349 10.2103 29.0107H3.07174C2.98692 29.0048 2.90491 28.9779 2.83312 28.9324C2.76133 28.8869 2.70204 28.8241 2.66061 28.7499C2.61918 28.6757 2.59693 28.5923 2.59587 28.5073C2.59481 28.4222 2.61497 28.3383 2.65454 28.2631L4.63274 24.9003C3.9629 24.3413 3.19734 23.9082 2.37314 23.6221L0.414536 26.9849C0.210692 27.3345 0.0783493 27.7211 0.0251945 28.1223C-0.0279603 28.5235 -0.000867121 28.9313 0.1049 29.3219C0.210668 29.7125 0.393001 30.0783 0.641308 30.3978C0.889616 30.7174 1.19895 30.9845 1.55134 31.1835C2.01565 31.4449 2.53891 31.5836 3.07174 31.5867H12.8479C13.0294 29.3464 12.6292 27.0972 11.6861 25.057C10.743 23.0168 9.28903 21.2547 7.46494 19.9415L9.01894 17.2507C11.3208 18.8314 13.1707 20.9851 14.386 23.4992C15.6013 26.0133 16.14 28.8008 15.9489 31.5867H24.2299C24.4226 27.3668 23.5044 23.1703 21.5673 19.4164C19.6302 15.6625 16.7419 12.4827 13.1909 10.1947L16.3325 4.81167C16.4025 4.69453 16.5158 4.6097 16.6479 4.57563C16.78 4.54155 16.9203 4.56097 17.0381 4.62967C17.3951 4.82567 30.6881 28.0209 30.9373 28.2897C30.9813 28.3683 31.0037 28.4572 31.0022 28.5473C31.0008 28.6373 30.9755 28.7254 30.929 28.8026C30.8826 28.8798 30.8165 28.9433 30.7376 28.9867C30.6586 29.0302 30.5696 29.0519 30.4795 29.0499H27.2777C27.3183 29.9067 27.3183 30.7621 27.2777 31.6133H30.4935C31.0372 31.6163 31.5721 31.4757 32.044 31.2057C32.516 30.9357 32.9083 30.5459 33.1813 30.0758C33.4544 29.6056 33.5984 29.0716 33.5989 28.5279C33.5995 27.9842 33.4564 27.45 33.1843 26.9793L19.4741 3.50687Z" fill="var(--fill-0, black)"/>
</g>
<defs>
<clipPath id="clip0_0_12">
<rect width="33.6" height="33.6" fill="white"/>
</clipPath>
</defs>
</svg>
