<svg xmlns="http://www.w3.org/2000/svg" viewBox="0 0 64 64" width="64" height="64" fill="none"><path fill="#4945FF" d="M42.6 0H21.4v21.3h14.9c1 0 1.8.8 1.8 1.8v14.8H59.4V3.6A3.6 3.6 0 0 0 55.8 0h-13.2Z"/><path fill="#4945FF" fill-opacity=".4" d="M21.4 0v21.3H4.6l-.1-.1V21c0-.2.1-.3.2-.4L21 .3c.1-.1.2-.2.4-.2l.1-.1h-.1Z"/><path fill="#4945FF" fill-opacity=".4" d="M38.1 42.7H21.4V25.9c0-1.3 1-2.3 2.3-2.3h14.4v19.1Z"/><path fill="#4945FF" fill-opacity=".4" d="M21.4 42.7v16.7h.1l.1-.1L38 43.1c.1-.1.2-.2.2-.4V42.6l-.1.1H21.4Z"/></svg>
