<svg width="28" height="28" viewBox="0 0 28 28" fill="none" xmlns="http://www.w3.org/2000/svg">
<path d="M15.225 18.0985H18.8184C19.068 18.0985 19.2722 18.305 19.2722 18.5582V20.6815C19.705 20.7883 20.0894 21.0374 20.3636 21.3888C20.6378 21.7402 20.7859 22.1736 20.7842 22.6194C20.7842 23.7195 19.9034 24.612 18.8184 24.612C17.7322 24.612 16.8514 23.7195 16.8514 22.6194C16.8514 21.6779 17.4977 20.888 18.3645 20.6804V19.0179H15.2262V24.458C15.2265 24.5371 15.2065 24.6148 15.1681 24.6839C15.1297 24.7529 15.0742 24.811 15.0069 24.8524L11.8685 26.7669C11.7973 26.8104 11.7154 26.8333 11.632 26.8329C11.5485 26.8325 11.4668 26.8088 11.396 26.7645L5.64904 23.1642C5.58273 23.1226 5.52811 23.0648 5.49035 22.9962C5.45259 22.9276 5.43292 22.8505 5.43321 22.7722V19.0167L2.56204 17.3484C2.49675 17.3105 2.44175 17.2572 2.40188 17.1931C2.36201 17.1291 2.33848 17.0562 2.33337 16.9809V16.9494V10.9737C2.33337 10.8104 2.41854 10.6587 2.55737 10.577L5.43321 8.87138V5.18938C5.43321 5.03888 5.50554 4.89888 5.62571 4.81371L5.65021 4.79738L11.3984 1.23438C11.4696 1.19002 11.5519 1.1665 11.6358 1.1665C11.7197 1.1665 11.802 1.19002 11.8732 1.23438L15.0115 3.18854C15.0779 3.23017 15.1325 3.288 15.1702 3.35659C15.208 3.42517 15.2277 3.50225 15.2274 3.58054V8.86671H19.726V6.63021C19.2931 6.52344 18.9085 6.27418 18.6343 5.92251C18.3601 5.57083 18.2121 5.13716 18.214 4.69121C18.214 3.59104 19.0949 2.69854 20.1799 2.69854C21.266 2.69854 22.1457 3.59104 22.1457 4.69121C22.1457 5.63271 21.5005 6.42255 20.6337 6.63021V9.32638C20.6342 9.38638 20.6228 9.44588 20.6002 9.50148C20.5776 9.55708 20.5443 9.60768 20.5022 9.65038C20.46 9.69308 20.4098 9.72704 20.3545 9.75032C20.2992 9.7736 20.2399 9.78574 20.1799 9.78605H15.2274V11.893H22.9554C23.0546 11.4593 23.2977 11.0718 23.6451 10.7937C23.9925 10.5156 24.4237 10.3632 24.8687 10.3612C25.9537 10.3612 26.8345 11.2525 26.8345 12.3527C26.8345 13.4529 25.9549 14.3454 24.8687 14.3454C24.4236 14.3434 23.9922 14.1908 23.6448 13.9124C23.2974 13.6341 23.0544 13.2464 22.9554 12.8124H15.225V15.0722H21.0035L22.071 16.4489C22.3683 16.275 22.7066 16.1836 23.051 16.184C24.1372 16.184 25.0169 17.0754 25.0169 18.1755C25.0169 19.2757 24.1372 20.1682 23.051 20.1682C21.966 20.1682 21.0852 19.2757 21.0852 18.1755C21.0852 17.7719 21.2042 17.3962 21.4072 17.0824L20.5625 15.9915H15.225V18.0985ZM11.6352 2.16538L9.25171 3.64238V7.10505H8.34404V4.20471L6.34087 5.44721V8.88305L8.80254 10.4697L11.3307 8.87838V6.22305H12.2384V9.13505C12.2384 9.29371 12.1567 9.44188 12.0237 9.52588L9.29021 11.2444V13.6722L10.9492 14.8494L10.4289 15.603L8.78854 14.4387L7.00354 15.6112L6.51004 14.8412L8.38254 13.6104V11.2887L5.87771 9.67171L3.24104 11.235V13.1904L5.54171 11.8032L6.00604 12.593L3.24104 14.2602V16.6834L5.76804 18.151L8.41637 16.555L8.87954 17.3449L6.34087 18.8744V22.5167L8.52954 23.8875L11.2887 22.2239L11.753 23.0149L9.39987 24.4335L11.6375 25.8347L14.3185 24.1979V17.4545L8.76754 20.8297L8.30087 20.0422L14.3185 16.3835V3.83721L11.6352 2.16538ZM18.8184 21.5484C18.6783 21.5491 18.5397 21.5775 18.4107 21.6319C18.2816 21.6863 18.1645 21.7656 18.0661 21.8653C17.9677 21.965 17.8899 22.0831 17.8372 22.2129C17.7845 22.3427 17.758 22.4816 17.759 22.6217C17.759 23.2132 18.2327 23.6927 18.8184 23.6927C18.9583 23.6918 19.0966 23.6633 19.2255 23.609C19.3543 23.5546 19.4713 23.4753 19.5695 23.3758C19.6678 23.2762 19.7455 23.1583 19.7981 23.0287C19.8508 22.8991 19.8775 22.7604 19.8765 22.6205C19.8776 22.4806 19.8511 22.3417 19.7985 22.212C19.7459 22.0823 19.6682 21.9642 19.5699 21.8645C19.4717 21.7649 19.3547 21.6855 19.2257 21.6311C19.0968 21.5766 18.9584 21.5493 18.8184 21.5484ZM23.0534 17.1034C22.9133 17.1041 22.7747 17.1325 22.6457 17.1869C22.5166 17.2413 22.3995 17.3206 22.3011 17.4203C22.2027 17.52 22.1249 17.6381 22.0722 17.7679C22.0195 17.8977 21.993 18.0366 21.994 18.1767C21.994 18.7694 22.4677 19.25 23.0522 19.25C23.1923 19.2493 23.3308 19.2209 23.4599 19.1665C23.589 19.1121 23.7061 19.0328 23.8045 18.9331C23.9029 18.8334 23.9807 18.7153 24.0334 18.5855C24.0861 18.4557 24.1126 18.3168 24.1115 18.1767C24.1126 18.0366 24.0861 17.8977 24.0334 17.7679C23.9807 17.6381 23.9029 17.52 23.8045 17.4203C23.7061 17.3206 23.589 17.2413 23.4599 17.1869C23.3308 17.1325 23.1935 17.1041 23.0534 17.1034ZM24.8675 11.2817C24.7275 11.2825 24.5889 11.3109 24.4598 11.3652C24.3307 11.4196 24.2136 11.4989 24.1152 11.5986C24.0168 11.6983 23.9391 11.8165 23.8864 11.9463C23.8337 12.0761 23.8071 12.215 23.8082 12.355C23.8082 12.9465 24.283 13.426 24.8675 13.426C25.0074 13.4251 25.1458 13.3967 25.2746 13.3423C25.4035 13.2879 25.5204 13.2087 25.6187 13.1091C25.7169 13.0096 25.7946 12.8916 25.8473 12.762C25.9 12.6325 25.9266 12.4938 25.9257 12.3539C25.9268 12.2139 25.9003 12.0751 25.8476 11.9454C25.795 11.8156 25.7174 11.6976 25.6191 11.5979C25.5208 11.4982 25.4039 11.4189 25.2749 11.3644C25.1459 11.31 25.0075 11.2815 24.8675 11.2805V11.2817ZM20.1787 3.61671C20.0387 3.61763 19.9003 3.64613 19.7713 3.70058C19.6424 3.75503 19.5254 3.83436 19.4271 3.93405C19.3289 4.03373 19.2512 4.15181 19.1986 4.28153C19.146 4.41125 19.1195 4.55007 19.1205 4.69004C19.1205 5.28271 19.5942 5.76338 20.1787 5.76338C20.3188 5.76262 20.4573 5.73423 20.5864 5.67985C20.7155 5.62546 20.8326 5.54615 20.931 5.44645C21.0294 5.34675 21.1072 5.22862 21.1599 5.09883C21.2126 4.96903 21.2391 4.83012 21.238 4.69004C21.2391 4.54997 21.2126 4.41106 21.1599 4.28126C21.1072 4.15147 21.0294 4.03334 20.931 3.93364C20.8326 3.83394 20.7155 3.75463 20.5864 3.70024C20.4573 3.64586 20.3188 3.61747 20.1787 3.61671Z" fill="url(#paint0_linear_870_3369)"/>
<defs>
<linearGradient id="paint0_linear_870_3369" x1="1962.43" y1="514.494" x2="424.105" y2="1982.98" gradientUnits="userSpaceOnUse">
<stop stop-color="#6350FB"/>
<stop offset="0.5" stop-color="#3D8FFF"/>
<stop offset="1" stop-color="#9AD8F8"/>
</linearGradient>
</defs>
</svg>
