<svg xmlns="http://www.w3.org/2000/svg" viewBox="0 0 512 512" fill="none">
<path d="M256 8C119 8 8 119 8 256c0 78.3 36.3 148.1 93 193.6l-2.5 48.2c-.5 9.5 9.3 15.8 17.8 11.4L168 482c27.3 10.4 56.9 16.1 88 16.1 137 0 248-111 248-248S393 8 256 8zm0 432c-26.1 0-51-5.3-73.7-14.9l-11.5-4.9-52.8 26.4 1.5-28.5-9.3-7.3C66.3 376.6 40 319.2 40 256c0-119.1 96.9-216 216-216s216 96.9 216 216-96.9 216-216 216z" fill="#1F93FF"/>
<path d="M176 200h160c13.3 0 24 10.7 24 24s-10.7 24-24 24H176c-13.3 0-24-10.7-24-24s10.7-24 24-24zm0 64h96c13.3 0 24 10.7 24 24s-10.7 24-24 24h-96c-13.3 0-24-10.7-24-24s10.7-24 24-24z" fill="#1F93FF"/>
</svg>
