<svg width="28" height="28" viewBox="0 0 28 28" fill="none" xmlns="http://www.w3.org/2000/svg">
<g clip-path="url(#clip0_870_3280)">
<path d="M27.7059 5.22896C27.4096 5.08429 27.2813 5.36079 27.1086 5.50196C27.0491 5.54746 26.9989 5.60696 26.9488 5.66063C26.5148 6.12379 26.0084 6.42713 25.3469 6.39096C24.3798 6.33729 23.5538 6.64063 22.8234 7.38029C22.6683 6.46796 22.1526 5.92429 21.3686 5.57429C20.9579 5.39229 20.5426 5.21146 20.2544 4.81596C20.0538 4.53479 19.9989 4.22096 19.8986 3.91296C19.8344 3.72629 19.7703 3.53613 19.5568 3.50463C19.3234 3.46846 19.2324 3.66329 19.1414 3.82663C18.7763 4.49396 18.6351 5.22896 18.6491 5.97329C18.6806 7.64863 19.3876 8.98329 20.7934 9.93179C20.9533 10.0403 20.9941 10.15 20.9439 10.3086C20.8483 10.6353 20.7339 10.9526 20.6336 11.2805C20.5694 11.4893 20.4738 11.5336 20.2498 11.4438C19.4929 11.1185 18.8054 10.6512 18.2244 10.0671C17.2246 9.10113 16.3216 8.03479 15.1946 7.19946C14.9335 7.00651 14.6654 6.82322 14.3908 6.64996C13.2416 5.53346 14.5424 4.61646 14.8434 4.50796C15.1584 4.39363 14.9519 4.00396 13.9346 4.00863C12.9173 4.01329 11.9863 4.35279 10.7998 4.80663C10.6235 4.87419 10.4421 4.92764 10.2573 4.96646C9.14851 4.75755 8.01453 4.71743 6.89377 4.84746C4.69461 5.09246 2.93877 6.13313 1.64727 7.90763C0.0956079 10.0403 -0.269559 12.4646 0.177275 14.9916C0.647441 17.6563 2.00777 19.8625 4.09728 21.5868C6.26494 23.3753 8.76044 24.2515 11.6083 24.0835C13.3373 23.9843 15.2634 23.7521 17.4346 21.9135C17.9829 22.1865 18.5569 22.295 19.5113 22.3766C20.2463 22.4455 20.9533 22.3416 21.5004 22.2273C22.3579 22.0453 22.2984 21.2508 21.9893 21.1061C19.4751 19.9348 20.0269 20.412 19.5241 20.0258C20.8028 18.5138 22.7278 16.9435 23.4814 11.8556C23.5398 11.4508 23.4896 11.1965 23.4814 10.8698C23.4768 10.6715 23.5223 10.5933 23.7498 10.5711C24.381 10.5056 24.9933 10.3174 25.5523 10.017C27.1809 9.12679 27.8389 7.66613 27.9941 5.91379C28.0174 5.64546 27.9894 5.37013 27.7059 5.22896ZM13.5111 21C11.0739 19.0843 9.89211 18.4531 9.40444 18.48C8.94711 18.508 9.02994 19.0295 9.13027 19.3701C9.23528 19.7061 9.37177 19.9371 9.56311 20.2323C9.69611 20.4271 9.78711 20.7176 9.43127 20.9358C8.64611 21.4211 7.28227 20.7725 7.21811 20.741C5.63027 19.8053 4.30144 18.571 3.36694 16.8828C2.46394 15.2576 1.93894 13.5146 1.85261 11.6538C1.82927 11.2035 1.96111 11.0448 2.40911 10.9631C2.99724 10.8506 3.59984 10.8352 4.19294 10.9176C6.68027 11.2816 8.79661 12.3935 10.5723 14.154C11.5849 15.1573 12.3514 16.3555 13.1413 17.5268C13.9813 18.7705 14.8843 19.9558 16.0346 20.9265C16.4406 21.2671 16.7638 21.5261 17.0741 21.7163C16.1384 21.8213 14.5774 21.8446 13.5111 21ZM14.6778 13.4866C14.6776 13.4287 14.6915 13.3715 14.7183 13.3202C14.7451 13.2688 14.784 13.2247 14.8317 13.1917C14.8794 13.1588 14.9344 13.1379 14.9919 13.131C15.0494 13.124 15.1078 13.1311 15.1619 13.1518C15.231 13.1766 15.2905 13.2222 15.3324 13.2825C15.3742 13.3427 15.3962 13.4145 15.3953 13.4878C15.3954 13.5352 15.3862 13.5821 15.368 13.6259C15.3498 13.6696 15.3231 13.7093 15.2895 13.7427C15.2558 13.776 15.2159 13.8023 15.1719 13.82C15.128 13.8378 15.081 13.8466 15.0336 13.846C14.9866 13.8461 14.94 13.8369 14.8966 13.8188C14.8532 13.8008 14.8138 13.7742 14.7808 13.7408C14.7478 13.7073 14.7218 13.6676 14.7043 13.624C14.6868 13.5803 14.677 13.5336 14.6778 13.4866ZM18.3061 15.3486C18.0728 15.4431 17.8406 15.5248 17.6178 15.5353C17.2825 15.547 16.9536 15.4423 16.6868 15.239C16.3671 14.9706 16.1384 14.8213 16.0428 14.3546C16.0098 14.1266 16.0161 13.8945 16.0614 13.6686C16.1431 13.2871 16.0521 13.0421 15.7826 12.8205C15.5644 12.6385 15.2856 12.5883 14.9799 12.5883C14.8753 12.5822 14.7736 12.551 14.6836 12.4973C14.5553 12.4343 14.4503 12.2756 14.5506 12.0796C14.5833 12.0166 14.7373 11.8626 14.7746 11.8346C15.1899 11.599 15.6694 11.676 16.1116 11.8533C16.5223 12.0213 16.8326 12.3293 17.2794 12.7656C17.7356 13.2918 17.8184 13.4376 18.0786 13.832C18.2839 14.1411 18.4706 14.4585 18.5978 14.8213C18.6759 15.0488 18.5756 15.2343 18.3061 15.3486Z" fill="#4D6BFE"/>
</g>
<defs>
<clipPath id="clip0_870_3280">
<rect width="28" height="28" fill="white"/>
</clipPath>
</defs>
</svg>
