<svg xmlns="http://www.w3.org/2000/svg" viewBox="0 0 48 48"><path fill="#fff" d="M33.8 3H14.2L3 14.2v19.6L14.2 45h19.6L45 33.8V14.2z"/><path fill="#1e88e5" d="M34.8 7.4 38 10.2V7.4z"/><path fill="#4caf50" d="M14.2 45H7.4V38z"/><path fill="#e53935" d="M45 14.2V7.4h-6.8z"/><path fill="#c62828" d="M38 7.4h-3.2L45 14.2V7.4z"/><path fill="#f9bb2d" d="M45 38v-4.2L38.6 45H45z"/><path fill="#1565c0" d="m7.4 7.4 6.8 6.8V7.4z"/><path fill="#1565c0" d="M14.2 3H7.4v4.4L14.2 3z"/><path fill="#188038" d="M3 38v7.4l4.4-4.4z"/><path fill="#e53935" d="M38 45h4.6L38 40.6z"/><path fill="#2e7d32" d="M3 14.2v-4.4l4.4 4.4z"/><path fill="#4caf50" d="M7.4 38 3 33.8V38z"/><path fill="#1e88e5" d="M33.8 45h-1L38 40.6V45z"/><path fill="#1565c0" d="M7.4 7.4H3v6.8z"/><path fill="#1e88e5" d="M38 10.2V45h7V14.2z"/><path fill="#f6bf26" d="M45 38V14.2L38 7.4v3l7 7z"/><path fill="#1e88e5" d="m14.2 3 23.6 4.4H14.2z"/><path fill="#1565c0" d="M7.4 7.4v30.8L14.2 45V14.2z"/><path fill="#188038" d="M3 38V14.2l4.4-6.8v31z"/><path fill="#4caf50" d="M14.2 45h19.6L7.4 38.2v6.6l6.8.2z"/><path fill="#fff" d="M33.8 14.2H14.2v19.6h19.6z"/><path fill="#1e88e5" d="M24.8 27.2c-.8.6-1.2 1.4-1.2 2.4h-1.8c0-.8.2-1.4.6-2 .4-.6 1-1 1.8-1.4.6-.4 1-.8 1.2-1.2s.4-.8.4-1.2c0-.6-.2-1-.6-1.4-.4-.4-.8-.4-1.4-.4-.6 0-1 .2-1.4.6-.4.4-.4.8-.4 1.4h-1.8c0-1 .4-1.8 1-2.4.6-.6 1.6-1 2.6-1s1.8.4 2.4 1c.6.6 1 1.4 1 2.4 0 .6-.2 1.2-.6 1.8-.2.4-.8.8-1.8 1.4zm-2.6 3.4H24v1.8h-1.8z"/><path fill="#1e88e5" d="M33.8 14.2H14.2v2.4h17v17h2.6z"/></svg>
