<svg xmlns="http://www.w3.org/2000/svg" viewBox="0 0 130 135" fill="none">
  <path d="M96.52 43.26V27.63c4.02-1.93 6.84-6.06 6.84-10.85v-.36c0-6.61-5.33-12.03-11.85-12.03h-.35c-6.52 0-11.85 5.41-11.85 12.03v.36c0 4.81 2.82 8.93 6.84 10.85v15.64c-5.99.94-11.46 3.44-15.97 7.13L27.85 17c.28-1.09.48-2.21.48-3.39C28.34 6.12 22.36.04 14.98.03 7.6.02 1.6 6.09 1.6 13.58c0 7.49 5.97 13.57 13.35 13.58 2.4 0 4.63-.69 6.58-1.82l41.63 32.86c-3.54 5.42-5.61 11.91-5.61 18.91 0 7.32 2.28 14.09 6.13 19.66l-12.66 12.84c-1-.31-2.04-.52-3.14-.52-6.07 0-10.99 4.99-10.99 11.14s4.92 11.15 10.99 11.15 10.98-4.99 10.98-11.15c0-1.11-.21-2.17-.51-3.18l12.52-12.71c5.68 4.4 12.76 7.05 20.46 7.05 18.66 0 33.79-15.35 33.79-34.29 0-17.14-12.41-31.31-28.6-33.84zM91.33 94.69c-9.57 0-17.33-7.87-17.33-17.58s7.76-17.58 17.33-17.58c9.57 0 17.33 7.87 17.33 17.58s-7.76 17.58-17.33 17.58z" fill="#FF7A59"/>
</svg>
