<svg preserveAspectRatio="xMidYMid meet" viewBox="0 0 4680 1340" width="32" height="32" fill="#555CF6" xmlns="http://www.w3.org/2000/svg"><g transform="matrix(.1 0 0 -.1 0 1340)"><path d="m44630 12190v-1100h1035 1035v1100 1100h-1035-1035z"/><path d="m3005 12924c-27-2-122-8-210-14-682-46-1238-181-1610-392-579-328-867-860-945-1748-27-315-22-983 11-1350 99-1114 477-1571 1599-1935 240-77 551-158 982-255 200-45 471-109 603-142 718-180 950-325 1025-639 52-219 52-743 1-979-90-409-361-558-1058-578-916-28-1770 93-2796 395-104 30-192 51-197 47-9-11-363-1654-357-1660 13-13 344-143 497-195 599-205 1232-333 1975-400 192-17 921-23 1170-10 1336 72 2100 364 2531 968 343 480 468 1172 425 2353-23 628-75 921-216 1215-275 572-890 901-2355 1261-928 228-1049 261-1233 334-257 103-375 220-427 425-37 145-52 559-29 790 40 399 201 563 619 630 337 54 1146 36 1845-41 270-30 745-97 1109-157 163-27 260-39 262-32 6 19 215 1798 211 1801-7 8-405 85-636 123-484 81-907 131-1466 172-141 10-1221 21-1330 13z"/><path d="m29995 12778c-10-29-2915-9568-2915-9573 0-3 505-4 1122-3l1123 3 252 910c138 501 254 920 258 933l5 22 1608-2 1607-3 255-920c141-506 258-926 260-933 4-10 234-12 1126-10l1120 3-1466 4790-1467 4790-1442 3c-1148 2-1443 0-1446-10zm1993-3900c298-1096 542-1996 542-2000 0-5-495-8-1101-8-913 0-1100 2-1096 13 3 8 252 908 553 2000 301 1093 551 1987 554 1987s250-897 548-1992z"/><path d="m10620 10354c-174-9-386-27-485-40-1298-175-2058-859-2265-2041-52-297-53-309-57-1428-5-1101-1-1267 38-1544 71-508 250-957 514-1286 373-466 948-769 1689-889 341-56 574-70 1021-63 534 9 985 59 1535 172 392 80 970 246 970 277 0 12-289 1506-296 1529-4 15-9 15-52 3-408-124-1105-239-1669-275-248-16-774-7-911 15-410 67-605 204-703 497-41 124-59 252-66 492l-6 207h1891 1892v738c0 766-9 1094-36 1335-122 1107-605 1788-1496 2108-225 80-536 146-828 173-155 15-557 27-680 20zm390-1634c217-27 356-86 471-200 163-163 212-333 213-745l1-240h-905-905l-3 150c-8 412 63 647 246 817 113 104 253 171 423 202 146 27 320 33 459 16z"/><path d="m23975 10349c-393-27-850-146-1307-340-178-76-444-210-581-292l-108-65-12 31c-7 18-56 143-108 279l-94 248h-812-813v-5065c0-4647 1-5065 16-5065 9 0 470 63 1024 140 555 77 1013 140 1019 140 8 0 11 424 11 1448v1449l83-18c356-79 820-140 1285-170 242-15 726-7 887 15 679 95 1153 365 1469 836 76 113 195 357 244 500 76 222 125 461 159 765 13 116 16 349 20 1360 5 1239 0 1514-32 1775-100 822-416 1397-947 1726-288 179-628 277-1053 304-165 11-190 11-350-1zm-335-1799c199-19 324-68 431-168s166-220 194-395c22-137 22-2422 0-2550-48-273-179-445-404-527-120-44-215-54-461-47-225 6-449 29-710 71-157 26-371 68-442 86l-38 11v1489 1488l43 37c66 57 262 186 378 248 302 162 577 244 884 266 11 0 67-4 125-9z"/><path d="m40785 10354c-590-35-1344-283-1937-637l-107-64-49 126c-27 69-75 195-107 279l-59 152h-813-813v-5065c0-4680 1-5065 16-5065 9 0 471 63 1026 140s1013 140 1018 140c6 0 10 533 10 1448v1448l183-37c302-61 565-97 977-136 235-22 889-25 1050-5 310 39 595 120 829 239 192 96 309 181 461 333 292 292 470 651 570 1150 74 370 80 513 80 1910 0 1389-6 1528-80 1900-203 1020-806 1608-1770 1724-130 15-381 26-485 20zm-375-1804c126-12 198-32 297-80 153-75 252-208 306-410l22-85v-1265-1265l-22-84c-62-231-202-390-401-455-131-43-197-49-442-43-222 6-361 19-635 58-137 20-453 80-527 100l-38 10v1489 1490l58 45c327 261 788 460 1145 494 116 12 131 12 237 1z"/><path d="m18790 10324c-451-118-1157-426-1625-709-78-48-122-69-126-62-3 7-37 157-74 335l-68 322h-864-863v-3505-3505h1035 1035v2139 2139l108 70c357 231 977 537 1584 782 84 34 156 65 160 68 4 4-31 437-78 962-46 525-84 963-84 973 0 23-24 22-140-9z"/><path d="m44630 6705v-3505h1035 1035v3505 3505h-1035-1035z"/></g></svg>
