<svg xmlns="http://www.w3.org/2000/svg" viewBox="0 2 23 24" width="28" height="28" fill="none"><path d="M21.037 7.663c-1.22-1.95-2.989-3.577-5.016-4.405l-.6-.207a6.925 6.925 0 00-2.048-.322c-2.196.01-3.975 1.87-3.975 4.166 0 .956.309 1.835.827 2.535l-.25-.333c.12.18.25.36.399.54.63.783 1.526 1.593 2.687 2.515 2.854 2.261 4.705 4.266 4.858 6.753.036.336.06.678.06 1.025 0 1.264-.27 2.6-.727 3.543h.003s-.196.367-.073.474c.063.055.2.097.438-.052a11.654 11.654 0 003.238-3.245 11.997 11.997 0 001.988-6.465 11.995 11.995 0 00-1.809-6.522z" fill="#FF7A1A"/><path d="M12.378 16.159l-1.788-1.51C6.844 11.85 4.897 8.834 5.965 5.115c.096-.34.216-.668.352-.99V4.12s.265-.568-.312-.287a11.449 11.449 0 00-3.301 2.753 11.915 11.915 0 00-2.688 6.968 12.008 12.008 0 001.954 7.23 9.054 9.054 0 002.05 2.113h-.003c3.949 2.975 7.336 1.41 7.336 1.41h.004c1.655-.704 2.82-2.397 2.82-4.378a4.772 4.772 0 00-1.799-3.771z" fill="#092540"/></svg>
