<svg width="48" height="48" viewBox="0 0 48 48" fill="none" xmlns="http://www.w3.org/2000/svg">
<g clipPath="url(#clip0_10_2)">
<mask id="mask0_10_2" style="mask-type:luminance" maskUnits="userSpaceOnUse" x="0" y="0" width="48" height="48">
<path d="M48 0H0V48H48V0Z" fill="white"/>
</mask>
<g mask="url(#mask0_10_2)">
<mask id="mask1_10_2" style="mask-type:luminance" maskUnits="userSpaceOnUse" x="0" y="0" width="48" height="48">
<path d="M48 0H0V47.9135H48V0Z" fill="white"/>
</mask>
<g mask="url(#mask1_10_2)">
<path d="M47.4812 45.0595L25.5136 1.12433C25.0811 0.172976 24.6487 0 24.1297 0C23.6973 0 23.1784 0.172976 22.6595 1.03784C19.5459 5.96757 18.1622 11.6757 18.1622 17.6432C18.1622 25.9459 22.4 33.7297 28.6271 46.2702C29.319 47.6541 29.8378 47.9135 31.0486 47.9135H46.2702C47.3945 47.9135 48 47.4812 48 46.6163C48 46.1838 47.9135 45.9243 47.4812 45.0595ZM15.5675 24.3027C13.8378 21.7082 13.3189 21.5351 12.8864 21.5351C12.4541 21.5351 12.1946 21.7082 11.4162 23.2648L0.432439 45.2324C0.086488 45.9243 0 46.1838 0 46.5298C0 47.2216 0.605401 47.9135 1.90271 47.9135H17.3838C18.4216 47.9135 19.2 47.0486 19.6324 45.4054C20.1514 43.3297 20.3243 41.5135 20.3243 39.3514C20.3243 33.2973 17.6432 27.4163 15.5675 24.3027Z" fill="#1868DB"/>
</g>
</g>
</g>
<defs>
<clipPath id="clip0_10_2">
<rect width="48" height="48" fill="white"/>
</clipPath>
</defs>
</svg>
